<svg width="60" height="60" viewBox="0 0 60 60" fill="none" xmlns="http://www.w3.org/2000/svg">
<g clip-path="url(#clip0_3683_23823)">
<path d="M31.1267 0H28.8751C28.7982 0.0118834 28.7219 0.0281449 28.645 0.0350248C27.7431 0.116332 26.8368 0.163241 25.9405 0.285202C21.8176 0.831214 17.9798 2.20594 14.4285 4.36121C7.67147 8.47181 2.8047 15.0776 0.881256 22.7492C0.0150108 26.2061 -0.200771 29.7148 0.180752 33.2598C0.999645 40.848 4.68431 47.8374 10.4823 52.8008C16.2803 57.7642 23.7544 60.3271 31.3782 59.9662C37.1389 59.6983 42.7007 57.7775 47.3991 54.4333C52.0975 51.0892 55.7338 46.4632 57.8735 41.1079C58.8382 38.7145 59.4783 36.2027 59.7767 33.6395C59.8705 32.8182 59.9268 31.9927 60 31.1696V28.826C59.9562 28.2825 59.9156 27.7384 59.868 27.1949C59.6406 24.6088 59.0657 22.0651 58.1587 19.6327C56.6192 15.4758 54.1808 11.7101 51.0178 8.60448C47.8547 5.49886 44.0449 3.12992 39.8605 1.66681C37.3668 0.790199 34.7655 0.256402 32.1281 0.0800567C31.7922 0.0575408 31.4607 0.026894 31.1267 0ZM29.9966 56.2423C15.513 56.2423 3.75269 44.4953 3.75957 30.0106C3.76645 15.511 15.4611 3.7808 29.9597 3.76829C44.4832 3.75266 56.2348 15.4885 56.2348 30.0156C56.2348 44.5853 44.4357 56.238 29.9966 56.2423Z" fill="#6F6F6F"/>
<path d="M46.1842 33.9121V23.6261C46.1842 23.5329 46.178 23.4385 46.1842 23.3453C46.1961 23.1576 46.1079 23.1001 45.9341 23.1026C45.45 23.1095 44.9659 23.1026 44.4818 23.1026C43.8882 23.1026 43.2934 23.1088 42.7011 23.0995C42.4966 23.0963 42.4134 23.1714 42.4284 23.3728C42.4365 23.4735 42.4284 23.5754 42.4284 23.6774V41.9547C42.4284 42.43 42.4284 42.4307 41.9575 42.4307H23.588C23.1039 42.4307 23.1039 42.4307 23.1033 42.9154C23.1033 43.8919 23.1033 44.8682 23.1033 45.8443C23.1033 46.1927 23.112 46.2021 23.4554 46.2027C24.6112 46.2027 25.7671 46.2027 26.9229 46.2027C32.6399 46.2027 38.3569 46.2027 44.074 46.2027C44.5706 46.2027 45.039 46.1239 45.4406 45.8087C45.6796 45.6303 45.8722 45.3971 46.002 45.1286C46.1319 44.8602 46.1953 44.5644 46.1867 44.2663C46.1834 42.5714 46.1834 40.8766 46.1867 39.1821L46.1842 33.9121Z" fill="#6F6F6F"/>
<path d="M26.0868 13.8161C22.6676 13.8161 19.2466 13.8161 15.8238 13.8161C15.1639 13.8161 14.616 14.0281 14.2045 14.5516C13.9653 14.8448 13.829 15.2085 13.8167 15.5867C13.8167 15.6805 13.8136 15.7743 13.8136 15.8681V36.4146C13.8136 36.8986 13.8136 36.8986 14.2989 36.8986H17.156C17.57 36.8986 17.5706 36.8986 17.5706 36.4865C17.5706 30.8079 17.5706 25.1297 17.5706 19.4519C17.5706 18.9284 17.5794 18.4049 17.5669 17.8821C17.5619 17.6475 17.6451 17.5693 17.8796 17.5693C19.043 17.5781 20.2069 17.5731 21.3709 17.5731H36.3191C36.4054 17.5731 36.4911 17.5731 36.5774 17.5731C36.8808 17.5693 36.8939 17.5587 36.8945 17.2541C36.8945 16.2463 36.8945 15.2387 36.8945 14.2313C36.8945 13.8161 36.8945 13.8154 36.4636 13.8154L26.0868 13.8161Z" fill="#6F6F6F"/>
<path d="M34.6895 32.8133C35.2472 32.8133 35.7924 32.6476 36.2558 32.3371C36.7192 32.0267 37.0799 31.5857 37.2921 31.0699C37.5044 30.5541 37.5586 29.9869 37.4479 29.4402C37.3372 28.8936 37.0666 28.3922 36.6704 27.9996C36.2742 27.607 35.7703 27.341 35.2227 27.2353C34.6751 27.1296 34.1084 27.189 33.5945 27.406C33.0807 27.623 32.643 27.9877 32.3368 28.4539C32.0306 28.9201 31.8699 29.4667 31.875 30.0245C31.8804 30.7669 32.1795 31.4769 32.7069 31.9995C33.2343 32.5221 33.9471 32.8147 34.6895 32.8133Z" fill="#6F6F6F"/>
<path d="M25.3107 32.8133C25.8685 32.814 26.4139 32.649 26.8777 32.3392C27.3415 32.0294 27.7028 31.5887 27.9158 31.0732C28.1287 30.5577 28.1836 29.9905 28.0736 29.4437C27.9636 28.8969 27.6936 28.3951 27.2979 28.002C26.9021 27.6089 26.3985 27.3423 25.851 27.236C25.3035 27.1296 24.7367 27.1884 24.2226 27.4047C23.7085 27.6211 23.2702 27.9853 22.9635 28.4512C22.6568 28.9171 22.4955 29.4636 22.4999 30.0213C22.5044 30.7637 22.8026 31.4741 23.3293 31.9972C23.8559 32.5204 24.5683 32.8138 25.3107 32.8133Z" fill="#6F6F6F"/>
</g>
<defs>
<clipPath id="clip0_3683_23823">
<rect width="60" height="60" fill="white" transform="matrix(-1 0 0 1 60 0)"/>
</clipPath>
</defs>
</svg>
