<svg width="108" height="50" viewBox="0 0 108 50" fill="none" xmlns="http://www.w3.org/2000/svg">
<path fill-rule="evenodd" clip-rule="evenodd" d="M75.433 1.68085C75.487 1.70851 77.6167 1.14894 81.8266 0C82.7273 3.3 80.7185 6.69574 77.3403 7.58511L75.4416 8.08511C75.433 8.08511 75.433 1.68298 75.433 1.68298V1.68085ZM65.5337 4.14574L71.9435 2.47766V30.2436H65.5337V4.14574ZM40.7693 34.0723L47.2428 32.3872C48.0571 33.1383 49.2257 33.6372 51.0725 33.6372C54.0641 33.6372 55.9001 32.1426 55.9001 29.1957V27.2862C54.4896 28.9883 52.4387 29.984 49.662 29.984C43.5946 29.984 39.1504 25.1691 39.1504 19.4415C39.1504 13.7138 43.5946 8.89894 49.662 8.89894C52.4398 8.89894 54.4896 9.89468 55.9001 11.5968V9.46915H62.1382V29.1862C62.1382 36.1596 56.5405 39.1074 50.8576 39.1074C46.4134 39.1074 42.696 37.4883 40.7304 34.0862L40.7682 34.0649L40.7693 34.0723ZM50.7301 24.2553C53.7649 24.2553 55.9001 22.3043 55.9001 19.4404C55.9001 16.5766 53.7639 14.6255 50.7301 14.6255C47.6964 14.6255 45.5602 16.5766 45.5602 19.4404C45.5602 22.3043 47.6964 24.2553 50.7301 24.2553ZM75.3833 30.234V11.1809L81.7931 9.51064V30.234H75.3833ZM100.72 9.48936H107.13V30.234H100.72V28.283C99.3096 29.8606 97.2166 30.8149 94.3535 30.8149C88.7559 30.8149 84.141 26.0415 84.141 19.8574C84.141 13.6734 88.7559 8.9 94.3535 8.9C97.2155 8.9 99.3107 9.85426 100.72 11.4319V9.47872V9.48936ZM95.6355 24.9309C98.5839 24.9309 100.72 22.9798 100.72 19.867C100.72 16.7543 98.5839 14.8032 95.6355 14.8032C92.6871 14.8032 90.5508 16.7543 90.5508 19.867C90.5508 22.9798 92.6871 24.9309 95.6355 24.9309Z" fill="#6F6F6F"/>
<path fill-rule="evenodd" clip-rule="evenodd" d="M15.9516 26.7211C11.5474 26.7211 7.9758 23.2785 7.9758 19.0328C7.9758 14.787 11.5463 11.3445 15.9516 11.3445C20.3569 11.3445 23.9274 14.787 23.9274 19.0328C23.9274 23.2785 20.3569 26.7211 15.9516 26.7211ZM26.136 7.19662C26.676 6.64874 27.122 5.99874 27.5184 5.19874C28.2744 3.64981 28.4688 1.80832 27.9763 0.0242749L27.972 0.0200195L12.2278 4.07747C5.21424 5.69449 0 11.7775 0 19.0434C0 27.536 7.14096 34.4211 15.9516 34.4211C24.7622 34.4211 31.9032 27.536 31.9032 19.0434C31.9032 14.2828 29.659 10.0285 26.136 7.20725" fill="url(#paint0_linear_3023_22127)"/>
<path fill-rule="evenodd" clip-rule="evenodd" d="M27.9733 0.0246063L27.9712 0.0192871L13.2788 3.80333C12.3446 4.02141 10.2278 4.54056 8.78604 5.32248C5.34948 7.35227 3.05664 11.0076 3.05664 15.1789C3.05664 21.3065 8.00304 26.3172 14.2562 26.7033C14.3459 26.6969 14.5262 26.7001 14.6634 26.6821C14.7358 26.6714 14.8103 26.6608 14.8729 26.648C10.9795 26.1395 7.97712 22.9246 7.97712 19.031C7.97712 15.2523 10.8067 12.1129 14.5327 11.4672L22.9286 9.12035C25.2431 8.25333 26.5326 7.1895 27.5186 5.19801C28.2746 3.64907 28.469 1.80759 27.9766 0.0235424" fill="url(#paint1_linear_3023_22127)"/>
<path fill-rule="evenodd" clip-rule="evenodd" d="M22.7178 36.0298L7.17119 40.0447C2.87819 41.1532 0.323991 45.3894 1.46879 49.5064L24.7892 43.4851C29.0822 42.3766 31.6343 38.1405 30.4895 34.0234L22.7156 36.0309L22.7178 36.0298Z" fill="url(#paint2_linear_3023_22127)"/>
<defs>
<linearGradient id="paint0_linear_3023_22127" x1="11.8448" y1="30.5608" x2="26.5798" y2="8.21809" gradientUnits="userSpaceOnUse">
<stop stop-color="#6F6F6F"/>
<stop offset="1" stop-color="#3E3E3E"/>
</linearGradient>
<linearGradient id="paint1_linear_3023_22127" x1="12.4093" y1="23.709" x2="23.7576" y2="6.19269" gradientUnits="userSpaceOnUse">
<stop stop-color="#3E3E3E"/>
<stop offset="1" stop-color="#6F6F6F"/>
</linearGradient>
<linearGradient id="paint2_linear_3023_22127" x1="12.173" y1="47.769" x2="16.3644" y2="34.6818" gradientUnits="userSpaceOnUse">
<stop stop-color="#6F6F6F"/>
<stop offset="1" stop-color="#3E3E3E"/>
</linearGradient>
</defs>
</svg>
