<svg width="138" height="29" viewBox="0 0 138 29" fill="none" xmlns="http://www.w3.org/2000/svg">
<g clip-path="url(#clip0_3023_22133)">
<path d="M57.3922 1.28889V18.6889H54.3264V5.03472H54.2856L48.8081 18.6889H46.7642L41.1641 5.03472H41.1232V18.6889H38.3027V1.28889H42.7174L47.7861 14.1778H47.8679L53.2228 1.28889H57.3922ZM59.9266 2.61806C59.9266 2.13472 60.0901 1.73194 60.4579 1.40972C60.8258 1.0875 61.2346 0.926389 61.7251 0.926389C62.2565 0.926389 62.7062 1.0875 63.0332 1.40972C63.3602 1.73194 63.5646 2.13472 63.5646 2.61806C63.5646 3.10139 63.4011 3.50417 63.0332 3.82639C62.6653 4.14861 62.2565 4.30972 61.7251 4.30972C61.1937 4.30972 60.785 4.14861 60.4579 3.82639C60.1309 3.46389 59.9266 3.06111 59.9266 2.61806ZM63.2376 6.20278V18.6889H60.2536V6.20278H63.2376ZM72.2713 16.5542C72.721 16.5542 73.2115 16.4736 73.7429 16.2319C74.2743 16.0306 74.7648 15.7486 75.2145 15.4264V18.1653C74.7239 18.4472 74.1925 18.6486 73.5794 18.7694C72.9662 18.8903 72.3122 18.9708 71.5764 18.9708C69.6961 18.9708 68.1837 18.4069 67.0391 17.2389C65.8537 16.0708 65.2814 14.5806 65.2814 12.8083C65.2814 10.7944 65.8946 9.14305 67.08 7.85417C68.2654 6.56528 69.9414 5.92083 72.1487 5.92083C72.721 5.92083 73.2933 6.00139 73.8247 6.12222C74.3969 6.24305 74.8466 6.44444 75.1736 6.60556V9.425C74.7239 9.10278 74.2334 8.82083 73.7838 8.65972C73.2933 8.49861 72.8027 8.37778 72.3122 8.37778C71.1268 8.37778 70.1866 8.74028 69.4508 9.50555C68.7151 10.2708 68.388 11.2778 68.388 12.5667C68.388 13.8153 68.7559 14.8222 69.4508 15.5069C70.1457 16.1917 71.0859 16.5542 72.2713 16.5542ZM83.676 6.00139C83.9212 6.00139 84.1256 6.00139 84.33 6.04167C84.5344 6.08194 84.6979 6.12222 84.8205 6.1625V9.14305C84.657 9.02222 84.4526 8.90139 84.1256 8.82083C83.7986 8.74028 83.4716 8.65972 83.0219 8.65972C82.2862 8.65972 81.673 8.98194 81.1825 9.58611C80.692 10.1903 80.4058 11.1167 80.4058 12.4056V18.6889H77.4218V6.20278H80.4058V8.17639H80.4467C80.7328 7.49166 81.1416 6.96805 81.673 6.56528C82.2453 6.20278 82.8993 6.00139 83.676 6.00139ZM84.984 12.6472C84.984 10.5931 85.5972 8.94167 86.7417 7.73333C87.9271 6.525 89.5622 5.92083 91.6469 5.92083C93.609 5.92083 95.1623 6.48472 96.266 7.65278C97.3697 8.82083 97.942 10.3917 97.942 12.3653C97.942 14.3792 97.3288 15.9903 96.1843 17.1986C94.9988 18.4069 93.4046 19.0111 91.3608 19.0111C89.3987 19.0111 87.8454 18.4472 86.7008 17.3194C85.5563 16.1514 84.984 14.5806 84.984 12.6472ZM88.0907 12.5264C88.0907 13.8153 88.3768 14.8222 88.9899 15.5069C89.6031 16.1917 90.4615 16.5542 91.5652 16.5542C92.628 16.5542 93.4864 16.2319 94.0587 15.5069C94.6309 14.8222 94.9171 13.8153 94.9171 12.4458C94.9171 11.1167 94.6309 10.1097 94.0587 9.38472C93.4864 8.7 92.628 8.3375 91.6061 8.3375C90.5024 8.3375 89.6848 8.7 89.0717 9.425C88.3768 10.1903 88.0907 11.1972 88.0907 12.5264ZM102.398 9.50555C102.398 9.90833 102.52 10.2708 102.806 10.5125C103.092 10.7542 103.665 11.0361 104.605 11.3986C105.79 11.8819 106.649 12.4056 107.098 12.9694C107.589 13.5736 107.834 14.2583 107.834 15.1042C107.834 16.2722 107.384 17.1986 106.444 17.9236C105.545 18.6486 104.278 18.9708 102.725 18.9708C102.193 18.9708 101.621 18.8903 100.967 18.7694C100.313 18.6486 99.7814 18.4875 99.3318 18.2861V15.3861C99.8632 15.7486 100.476 16.0708 101.089 16.2722C101.703 16.4736 102.275 16.5944 102.806 16.5944C103.46 16.5944 103.992 16.5139 104.278 16.3125C104.605 16.1111 104.768 15.8292 104.768 15.3861C104.768 14.9833 104.605 14.6611 104.278 14.3389C103.951 14.0569 103.297 13.7347 102.398 13.3722C101.294 12.9292 100.517 12.4056 100.068 11.8417C99.6179 11.2778 99.3726 10.5528 99.3726 9.66667C99.3726 8.53889 99.8223 7.6125 100.722 6.8875C101.621 6.1625 102.806 5.8 104.237 5.8C104.687 5.8 105.177 5.84028 105.709 5.96111C106.24 6.08194 106.73 6.20278 107.098 6.32361V9.18333C106.69 8.94166 106.24 8.7 105.709 8.49861C105.177 8.29722 104.646 8.21667 104.155 8.21667C103.583 8.21667 103.133 8.3375 102.847 8.53889C102.561 8.82083 102.398 9.10278 102.398 9.50555ZM109.101 12.6472C109.101 10.5931 109.714 8.94167 110.859 7.73333C112.044 6.525 113.68 5.92083 115.764 5.92083C117.726 5.92083 119.28 6.48472 120.383 7.65278C121.487 8.82083 122.059 10.3917 122.059 12.3653C122.059 14.3792 121.446 15.9903 120.302 17.1986C119.116 18.4069 117.522 19.0111 115.478 19.0111C113.516 19.0111 111.963 18.4472 110.818 17.3194C109.714 16.1514 109.101 14.5806 109.101 12.6472ZM112.208 12.5264C112.208 13.8153 112.494 14.8222 113.107 15.5069C113.72 16.1917 114.579 16.5542 115.682 16.5542C116.745 16.5542 117.604 16.2319 118.176 15.5069C118.748 14.8222 119.034 13.8153 119.034 12.4458C119.034 11.1167 118.748 10.1097 118.176 9.38472C117.604 8.7 116.745 8.3375 115.723 8.3375C114.62 8.3375 113.802 8.7 113.189 9.425C112.535 10.1903 112.208 11.1972 112.208 12.5264ZM131.992 8.61944H127.537V18.6889H124.512V8.61944H122.386V6.20278H124.512V4.47083C124.512 3.18194 124.962 2.09444 125.82 1.24861C126.678 0.402778 127.782 0 129.131 0C129.499 0 129.826 0.0402779 130.112 0.0402779C130.398 0.0402779 130.643 0.120833 130.848 0.201389V2.73889C130.766 2.69861 130.562 2.61806 130.316 2.5375C130.071 2.45694 129.785 2.41667 129.458 2.41667C128.845 2.41667 128.354 2.61806 128.027 2.98056C127.7 3.34306 127.537 3.94722 127.537 4.67222V6.1625H131.992V3.34306L134.976 2.45694V6.1625H138.001V8.57916H134.976V14.4194C134.976 15.1847 135.14 15.7083 135.385 16.0306C135.671 16.3528 136.121 16.5139 136.734 16.5139C136.898 16.5139 137.102 16.4736 137.347 16.3931C137.592 16.3125 137.797 16.2319 137.96 16.1111V18.5278C137.756 18.6486 137.47 18.7292 137.02 18.8097C136.571 18.8903 136.162 18.9306 135.712 18.9306C134.445 18.9306 133.505 18.6083 132.892 17.9639C132.278 17.3194 131.951 16.3125 131.951 14.9833L131.992 8.61944Z" fill="#6F6F6F"/>
<path d="M43.3828 24.3398C43.3828 24.8893 43.2956 25.3633 43.1211 25.7617C42.9466 26.1576 42.7018 26.4674 42.3867 26.6914L43.4023 27.4883L42.8906 27.9609L41.6914 27.0078C41.5039 27.0547 41.306 27.0781 41.0977 27.0781C40.6497 27.0781 40.2526 26.9688 39.9062 26.75C39.5599 26.5286 39.2904 26.2148 39.0977 25.8086C38.9076 25.3997 38.8099 24.9271 38.8047 24.3906V23.9805C38.8047 23.4336 38.8997 22.9505 39.0898 22.5312C39.2799 22.112 39.5482 21.7917 39.8945 21.5703C40.2435 21.3464 40.6419 21.2344 41.0898 21.2344C41.5482 21.2344 41.9505 21.3451 42.2969 21.5664C42.6458 21.7878 42.9141 22.1068 43.1016 22.5234C43.2891 22.9375 43.3828 23.4219 43.3828 23.9766V24.3398ZM42.6328 23.9727C42.6328 23.3034 42.4987 22.7878 42.2305 22.4258C41.9648 22.0612 41.5846 21.8789 41.0898 21.8789C40.6185 21.8789 40.2461 22.0599 39.9727 22.4219C39.7018 22.7812 39.5625 23.2812 39.5547 23.9219V24.3398C39.5547 24.9909 39.6901 25.5039 39.9609 25.8789C40.2344 26.2539 40.6133 26.4414 41.0977 26.4414C41.582 26.4414 41.957 26.2656 42.2227 25.9141C42.4883 25.5599 42.625 25.0534 42.6328 24.3945V23.9727Z" fill="#6F6F6F"/>
<path d="M48.9102 27H48.1562L45.293 22.6172V27H44.5391V21.3125H45.293L48.1641 25.7148V21.3125H48.9102V27Z" fill="#6F6F6F"/>
<path d="M53.4531 25.5156H51.0703L50.5352 27H49.7617L51.9336 21.3125H52.5898L54.7656 27H53.9961L53.4531 25.5156ZM51.2969 24.8984H53.2305L52.2617 22.2383L51.2969 24.8984Z" fill="#6F6F6F"/>
<path d="M58.4844 21.3125L60.3438 25.9531L62.2031 21.3125H63.1758V27H62.4258V24.7852L62.4961 22.3945L60.6289 27H60.0547L58.1914 22.4062L58.2656 24.7852V27H57.5156V21.3125H58.4844Z" fill="#6F6F6F"/>
<path d="M67.7109 25.5156H65.3281L64.793 27H64.0195L66.1914 21.3125H66.8477L69.0234 27H68.2539L67.7109 25.5156ZM65.5547 24.8984H67.4883L66.5195 22.2383L65.5547 24.8984Z" fill="#6F6F6F"/>
<path d="M71.2344 24.3555L70.5391 25.0781V27H69.7891V21.3125H70.5391V24.125L73.0664 21.3125H73.9727L71.7344 23.8242L74.1484 27H73.25L71.2344 24.3555Z" fill="#6F6F6F"/>
<path d="M78.0195 24.3711H75.5547V26.3867H78.418V27H74.8047V21.3125H78.3789V21.9297H75.5547V23.7578H78.0195V24.3711Z" fill="#6F6F6F"/>
<path d="M81.4375 24.6992H80.1016V27H79.3477V21.3125H81.2305C81.8711 21.3125 82.3633 21.4583 82.707 21.75C83.0534 22.0417 83.2266 22.4661 83.2266 23.0234C83.2266 23.3776 83.1302 23.6862 82.9375 23.9492C82.7474 24.2122 82.4818 24.4089 82.1406 24.5391L83.4766 26.9531V27H82.6719L81.4375 24.6992ZM80.1016 24.0859H81.2539C81.6263 24.0859 81.9219 23.9896 82.1406 23.7969C82.362 23.6042 82.4727 23.3464 82.4727 23.0234C82.4727 22.6719 82.3672 22.4023 82.1562 22.2148C81.9479 22.0273 81.6458 21.9323 81.25 21.9297H80.1016V24.0859Z" fill="#6F6F6F"/>
<g style="mix-blend-mode:luminosity">
<path d="M13.9799 -1H0V12.775H13.9799V-1Z" fill="#F25022"/>
<path d="M29.431 -1H15.4512V12.775H29.431V-1Z" fill="#7FBA00"/>
<path d="M13.9799 14.2251H0V28.0001H13.9799V14.2251Z" fill="#00A4EF"/>
<path d="M29.431 14.2251H15.4512V28.0001H29.431V14.2251Z" fill="#FFB900"/>
</g>
</g>
<defs>
<clipPath id="clip0_3023_22133">
<rect width="138" height="29" fill="white"/>
</clipPath>
</defs>
</svg>
