<svg width="118" height="34" viewBox="0 0 118 34" fill="none" xmlns="http://www.w3.org/2000/svg">
<g clip-path="url(#clip0_3023_22141)">
<path d="M20.3044 32.1843C25.9432 31.188 30.6005 30.3636 30.654 30.3523L30.7513 30.3317L25.4277 23.9985C22.4997 20.5153 20.1041 17.6518 20.1041 17.6353C20.1041 17.6041 25.6012 2.46418 25.6321 2.41031C25.6424 2.3923 29.3833 8.85182 34.7002 18.0686C39.6781 26.6975 43.7821 33.8121 43.8202 33.8788L43.8896 34L26.9708 33.9978L10.0521 33.9956L20.3044 32.1843V32.1843ZM85.1858 30.6526C82.6105 30.4875 81.1126 29.0208 80.7157 26.2755C80.6101 25.5452 80.6097 25.5262 80.5989 20.7852L80.5885 16.1966H81.7283H82.868L82.877 20.6349C82.8851 24.6351 82.8902 25.1041 82.9284 25.3855C83.0836 26.5275 83.3926 27.2955 83.9185 27.8468C84.3395 28.2879 84.8323 28.5462 85.5145 28.6833C85.8363 28.748 86.7518 28.7481 87.0452 28.6836C87.7368 28.5314 88.2911 28.2304 88.7801 27.7415C89.3374 27.1843 89.7497 26.3938 89.9492 25.4998L90.0165 25.1985L90.0239 20.7226L90.0314 16.2467H91.1951H92.3587V23.283V30.3192H91.2071H90.0554V29.2028C90.0554 28.4443 90.0471 28.0892 90.0295 28.0951C90.0152 28.0999 89.9561 28.1903 89.898 28.2962C89.5012 29.0201 88.8399 29.6821 88.1154 30.0809C87.2469 30.559 86.3759 30.729 85.1859 30.6527L85.1858 30.6526ZM111.326 30.6413C110.417 30.5729 109.46 30.2603 108.677 29.7763C107.028 28.7561 106.053 27.0745 105.767 24.7603C105.668 23.9595 105.656 22.8838 105.739 22.2033C105.923 20.6829 106.52 19.1903 107.371 18.1247C107.589 17.8515 108.084 17.3567 108.357 17.1386C109.094 16.5497 109.957 16.1379 110.873 15.9375C111.407 15.8207 112.347 15.7659 112.913 15.8184C114.338 15.9504 115.643 16.6212 116.53 17.6768C117.432 18.7494 117.927 20.2481 117.991 22.0935C118.001 22.3827 118.003 22.8898 117.996 23.2203L117.983 23.8213L112.995 23.8276L108.006 23.8339V24.0565C108.006 24.7343 108.171 25.5063 108.456 26.1631C108.702 26.7295 109.124 27.348 109.471 27.6473C110.18 28.261 111.049 28.6283 112 28.7167C112.352 28.7495 113.25 28.715 113.652 28.6532C114.798 28.4771 115.888 28.0276 116.767 27.3678C116.871 27.2902 116.97 27.2177 116.988 27.2067C117.013 27.1905 117.019 27.3933 117.019 28.2458L117.018 29.305L116.782 29.4508C115.787 30.0665 114.647 30.4618 113.439 30.6098C113.079 30.654 111.757 30.6736 111.326 30.6413L111.326 30.6413ZM115.667 21.708C115.667 20.5727 115.189 19.3115 114.512 18.6621C114.029 18.1986 113.445 17.9154 112.751 17.8078C112.422 17.757 111.73 17.7766 111.384 17.8465C110.652 17.9945 110.046 18.3164 109.518 18.8383C108.962 19.3876 108.545 20.0548 108.283 20.815C108.189 21.0884 108.079 21.5371 108.045 21.7868L108.028 21.9057H111.848H115.667V21.708ZM47.9998 30.2878C48.0056 30.2706 49.6996 25.8198 51.7641 20.3971L55.5179 10.5377L56.724 10.5377L57.9301 10.5376L58.0302 10.7943C58.336 11.5786 65.5449 30.2978 65.5449 30.3075C65.5449 30.3139 64.9675 30.319 64.2618 30.3189L62.9787 30.3187L61.9397 27.552L60.9007 24.7853L56.7172 24.7853L52.5337 24.7852L52.4973 24.8791C52.4773 24.9308 52.0334 26.1757 51.5108 27.6456L50.5607 30.3182L49.2749 30.3186C48.2572 30.319 47.9914 30.3125 47.9998 30.2878V30.2878ZM60.1371 22.674C60.1371 22.6696 59.4379 20.7737 58.5833 18.461C56.9845 14.1342 56.8951 13.8739 56.7687 13.1793C56.7095 12.8536 56.6795 12.8445 56.6444 13.1417C56.6192 13.3542 56.5103 13.8296 56.4263 14.0932C56.3846 14.2241 55.6646 16.2004 54.8263 18.4851C53.988 20.7698 53.3022 22.6487 53.3022 22.6605C53.3022 22.6723 54.84 22.6819 56.7196 22.6819C58.5992 22.6819 60.1371 22.6784 60.1371 22.674V22.674ZM66.321 29.9588V29.5985L70.4891 23.8678L74.6572 18.1372L70.8834 18.1247L67.1097 18.1122L67.1031 17.1544L67.0966 16.1966H72.5548H78.013V16.5201V16.8436L73.8444 22.6055C71.5517 25.7745 69.6759 28.3727 69.6759 28.3792C69.6759 28.3857 71.5292 28.3911 73.7944 28.3911H77.9128V29.3551V30.3191H72.1169H66.321V29.9588ZM96.907 30.3024C96.8978 30.2933 96.8903 27.1157 96.8903 23.2412V16.1966H98.0294H99.1686V17.6489C99.1686 18.4477 99.1783 19.1012 99.1902 19.1012C99.202 19.1012 99.2575 18.9705 99.3134 18.8107C99.5695 18.0784 100.014 17.3941 100.586 16.8503C101.101 16.3604 101.691 16.0674 102.386 15.9553C102.581 15.9238 102.746 15.9178 103.137 15.928C103.627 15.9408 103.884 15.9766 104.182 16.0741L104.276 16.1048V17.2874V18.47L104.007 18.3353C103.531 18.0973 103.062 18.0031 102.498 18.0324C102.131 18.0515 101.891 18.0986 101.597 18.2088C100.993 18.4354 100.504 18.8353 100.162 19.3813C99.6662 20.1717 99.3129 21.1876 99.2087 22.1214C99.19 22.2889 99.179 23.6536 99.1746 26.344L99.1681 30.3191H98.0459C97.4287 30.3191 96.9162 30.3116 96.907 30.3024ZM0 30.253C0 30.244 2.50844 25.8889 5.57432 20.575L11.1486 10.9132L17.6449 5.46072C21.2178 2.46187 24.1507 0.00460464 24.1624 0.000123182C24.1742 -0.00435739 24.1272 0.113956 24.058 0.263043C23.9888 0.41213 20.8145 7.22166 17.004 15.3953L10.0759 30.2565L5.03794 30.2628C2.26707 30.2663 0 30.2619 0 30.253V30.253Z" fill="#6F6F6F"/>
</g>
<defs>
<clipPath id="clip0_3023_22141">
<rect width="118" height="34" fill="white"/>
</clipPath>
</defs>
</svg>
