<svg id="ic_Gathering_statistics.svg" data-name="ic_Gathering statistics.svg" xmlns="http://www.w3.org/2000/svg" width="160" height="160" viewBox="0 0 160 160">
  <defs>
    <style>
      .cls-1, .cls-2 {
        fill: #3597bc;
      }

      .cls-1 {
        opacity: 0.1;
      }

      .cls-2 {
        fill-rule: evenodd;
      }
    </style>
  </defs>
  <rect class="cls-1" width="160" height="160" rx="80" ry="80"/>
  <path class="cls-2" d="M1200.43,1867.8h-3.44v-50.99a4.264,4.264,0,0,0-4.21-4.31h-7.69a4.264,4.264,0,0,0-4.21,4.31v50.99h-8.73v-27.89a4.271,4.271,0,0,0-4.21-4.31h-7.69a4.271,4.271,0,0,0-4.21,4.31v27.89h-8.73v-14.45a4.271,4.271,0,0,0-4.22-4.3h-7.68a4.264,4.264,0,0,0-4.22,4.3v14.45h-3.62a1.6,1.6,0,0,0,0,3.2h72.86A1.6,1.6,0,0,0,1200.43,1867.8Zm-56.26,0h-9.84v-14.45a1.093,1.093,0,0,1,1.08-1.1h7.68a1.093,1.093,0,0,1,1.08,1.1v14.45h0Zm24.84,0h-9.84v-27.89a1.093,1.093,0,0,1,1.08-1.1h7.69a1.084,1.084,0,0,1,1.07,1.1v27.89Zm24.85,0h-9.84v-50.99a1.093,1.093,0,0,1,1.07-1.11h7.69a1.1,1.1,0,0,1,1.08,1.11v50.99h0Zm3.13-77.1a1.637,1.637,0,0,0-.45-1.21,1.551,1.551,0,0,0-1.19-.47h-9.56a1.6,1.6,0,0,0,0,3.2h5.85l-15.5,15.83-5.84-5.97a1.543,1.543,0,0,0-1.11-.47,1.577,1.577,0,0,0-1.11.47l-28.18,28.79a1.624,1.624,0,0,0,0,2.26,1.546,1.546,0,0,0,2.22,0l27.07-27.65,5.85,5.97a1.545,1.545,0,0,0,2.21,0l16.61-16.96v5.41a1.565,1.565,0,1,0,3.13,0v-9.2Zm-61.26,45.28a1.605,1.605,0,1,1-1.57,1.6A1.584,1.584,0,0,1,1135.73,1835.98Z" transform="translate(-1084 -1750)"/>
</svg>
