<?xml version="1.0" encoding="utf-8"?>
<!-- Generator: Adobe Illustrator 22.0.1, SVG Export Plug-In . SVG Version: 6.00 Build 0)  -->
<svg version="1.1" id="Layer_1" xmlns="http://www.w3.org/2000/svg" xmlns:xlink="http://www.w3.org/1999/xlink" x="0px" y="0px"
	 viewBox="0 0 44 44" style="enable-background:new 0 0 44 44;" xml:space="preserve">
<style type="text/css">
	.st0{fill:none;}
</style>
<rect class="st0" width="44" height="44"/>
<path fill="#666" d="M37.6,8.2H6.7H6.3l0,0.4l2.8,31.5l0,0.3l0.3,0.1L22,44h0.2l12.7-3.5l0.3-0.1l0-0.3L38,8.6l0-0.4H37.6z M32.3,14.6l0,0.4
	l-0.4,3.6l-9.7,4.2l0,0h9.4l-0.3,3.9l-0.7,8.4l-8.3,2.4l-8.4-2.5l-0.5-6.2l4.1,0l0.3,3.2l4.5,1.1l0,0l4.6-1.3l0.3-5.2l-14,0l0,0l0,0
	l-0.3-3.9l9.5-3.9l0.6-0.2H12.3l0-0.1l-0.1-0.6l-0.1-0.6L12,16.6L12,15.9l-0.1-0.6l-0.1-0.6H32.3L32.3,14.6L32.3,14.6z"/>
<polygon fill="#666" points="17.8,1.6 17.8,0 15,0 13.2,0 13.2,5.9 15,5.9 17.8,5.9 17.8,4.3 15,4.3 15,1.6 "/>
<polygon fill="#666" points="24.4,0 19.1,0 19.1,1.6 21.7,4.3 19.1,4.3 19.1,5.9 24.4,5.9 24.4,4.3 21.7,1.6 24.4,1.6 "/>
<polygon fill="#666" points="31,0 25.7,0 25.7,1.6 28.3,4.3 25.7,4.3 25.7,5.9 31,5.9 31,4.3 28.3,1.6 31,1.6 "/>
</svg>
