<svg width="17" height="17" viewBox="0 0 17 17" fill="none" xmlns="http://www.w3.org/2000/svg">
<path d="M0.252146 7.28093L2.78932 8.5031V10.5376C2.78932 10.7087 2.88733 10.8647 3.04147 10.939L7.89529 13.2771C7.9556 13.3061 8.02167 13.3212 8.08864 13.3212H8.90427C8.97124 13.3212 9.03728 13.3061 9.09765 13.2771L13.938 10.9454C14.0319 10.9001 14.1069 10.8235 14.1501 10.7288C14.1562 10.7154 14.162 10.7019 14.1678 10.6883C14.1914 10.633 14.2036 10.5735 14.2036 10.5134V8.50306L14.8957 8.16969V10.9286C14.7459 11.0284 14.6305 11.178 14.5746 11.3601L14.1808 12.6432C14.1323 12.8015 14.1336 12.9684 14.1847 13.1258L14.5499 14.2512C14.654 14.5722 14.9506 14.7949 15.2879 14.8053C15.2901 14.8053 15.2924 14.8054 15.2946 14.8054L15.3057 14.8056C15.308 14.8056 15.3104 14.8056 15.3127 14.8056C15.6443 14.8056 15.9371 14.6062 16.0587 14.2977L16.4809 13.2259C16.546 13.0607 16.5543 12.8758 16.504 12.7054L16.1104 11.3688C16.0555 11.1825 15.9391 11.0295 15.7867 10.928V7.74056L16.7479 7.27754C16.902 7.20327 17 7.04731 17 6.87618V6.52139C17 6.35029 16.902 6.19429 16.7479 6.12002L8.68976 2.23847C8.56755 2.17963 8.42525 2.17963 8.30308 2.23847L0.252146 6.11664C0.0980074 6.19087 0 6.34686 0 6.518V6.8796C0 7.0507 0.0980074 7.20666 0.252146 7.28093ZM15.3207 13.7402L15.0409 12.8777L15.3394 11.9049L15.6407 12.9279L15.3207 13.7402ZM13.3126 10.2578L8.80256 12.4303H8.19032L3.6803 10.2578V8.93233L8.30311 11.1592C8.3642 11.1886 8.43031 11.2033 8.49645 11.2033C8.5626 11.2033 8.62868 11.1886 8.6898 11.1592L13.3126 8.93237L13.3126 10.2578ZM8.49642 3.13429L15.8962 6.6988L13.6238 7.79345C13.6037 7.7998 13.584 7.80725 13.5648 7.81648L8.49642 10.258L3.42812 7.81648C3.40891 7.80725 3.38917 7.7998 3.36917 7.79345L1.09668 6.69876L8.49642 3.13429Z" fill="#F1563C"/>
</svg>
