<svg width="132" height="38" viewBox="0 0 132 38" fill="none" xmlns="http://www.w3.org/2000/svg">
<g clip-path="url(#clip0_3023_22206)">
<path d="M22.7134 35.9707C29.0212 34.8572 34.2311 33.9358 34.2909 33.9231L34.3997 33.9001L28.4445 26.8218C25.1692 22.9288 22.4893 19.7285 22.4893 19.7101C22.4893 19.6751 28.6386 2.75408 28.6731 2.69388C28.6847 2.67375 32.8694 9.89321 38.8172 20.1943C44.3856 29.8384 48.9765 37.79 49.0192 37.8645L49.0968 38L30.1707 37.9976L11.2447 37.9951L22.7134 35.9707V35.9707ZM95.2926 34.2588C92.4117 34.0743 90.7362 32.435 90.2922 29.3667C90.174 28.5505 90.1736 28.5293 90.1615 23.2305L90.1498 18.1021H91.4248H92.6998L92.7099 23.0626C92.7189 27.5333 92.7246 28.0575 92.7674 28.372C92.941 29.6484 93.2866 30.5067 93.875 31.1228C94.3459 31.6159 94.8972 31.9046 95.6603 32.0578C96.0203 32.1301 97.0444 32.1302 97.3726 32.0581C98.1463 31.888 98.7663 31.5516 99.3133 31.0052C99.9368 30.3825 100.398 29.4989 100.621 28.4998L100.696 28.163L100.705 23.1606L100.713 18.1581H102.015H103.317V26.0221V33.8861H102.028H100.74V32.6384C100.74 31.7907 100.731 31.3938 100.711 31.4004C100.695 31.4057 100.629 31.5069 100.564 31.6252C100.12 32.4342 99.3803 33.1741 98.5698 33.6199C97.5982 34.1542 96.6239 34.3442 95.2926 34.2589L95.2926 34.2588ZM124.534 34.2461C123.517 34.1697 122.446 33.8204 121.571 33.2794C119.727 32.1392 118.635 30.2597 118.315 27.6732C118.205 26.7782 118.192 25.576 118.284 24.8155C118.49 23.1161 119.158 21.4479 120.11 20.257C120.354 19.9517 120.907 19.3987 121.213 19.1549C122.038 18.4967 123.003 18.0364 124.027 17.8124C124.624 17.6819 125.676 17.6207 126.31 17.6794C127.903 17.827 129.364 18.5766 130.356 19.7565C131.365 20.9552 131.919 22.6302 131.99 24.6927C132.001 25.016 132.003 25.5827 131.996 25.9521L131.981 26.6238L126.401 26.6308L120.821 26.6379V26.8867C120.821 27.6442 121.005 28.507 121.324 29.2411C121.598 29.8741 122.071 30.5654 122.459 30.8999C123.253 31.5858 124.224 31.9963 125.288 32.0951C125.682 32.1318 126.687 32.0932 127.136 32.0242C128.418 31.8273 129.637 31.3249 130.621 30.5876C130.737 30.5008 130.848 30.4198 130.867 30.4074C130.896 30.3894 130.903 30.6161 130.902 31.5689L130.901 32.7527L130.638 32.9156C129.524 33.6037 128.249 34.0456 126.898 34.211C126.495 34.2603 125.016 34.2823 124.534 34.2461L124.534 34.2461ZM129.391 24.2619C129.391 22.993 128.856 21.5835 128.098 20.8576C127.558 20.3396 126.905 20.0231 126.128 19.9029C125.761 19.846 124.986 19.8679 124.599 19.9461C123.78 20.1115 123.102 20.4712 122.512 21.0546C121.89 21.6685 121.424 22.4142 121.131 23.2638C121.025 23.5693 120.902 24.0709 120.864 24.3499L120.845 24.4828H125.118H129.391V24.2619ZM53.6946 33.8511C53.7012 33.8319 55.5961 28.8574 57.9056 22.7968L62.1048 11.7775L63.454 11.7774L64.8031 11.7773L64.9151 12.0642C65.2572 12.9408 73.3214 33.8622 73.3214 33.8731C73.3214 33.8802 72.6755 33.886 71.8861 33.8859L70.4507 33.8856L69.2885 30.7934L68.1262 27.7013L63.4463 27.7012L58.7665 27.7011L58.7258 27.8061C58.7034 27.8638 58.2068 29.2552 57.6223 30.898L56.5594 33.885L55.1211 33.8855C53.9826 33.8859 53.6852 33.8787 53.6946 33.851V33.8511ZM67.272 25.3415C67.272 25.3366 66.4898 23.2177 65.5338 20.6329C63.7454 15.7971 63.6453 15.5061 63.504 14.7298C63.4377 14.3657 63.4042 14.3556 63.3649 14.6878C63.3368 14.9253 63.2149 15.4566 63.1209 15.7513C63.0743 15.8975 62.2689 18.1063 61.3311 20.6598C60.3934 23.2133 59.6262 25.3133 59.6262 25.3265C59.6262 25.3396 61.3465 25.3504 63.4491 25.3504C65.5517 25.3504 67.272 25.3464 67.272 25.3415V25.3415ZM74.1896 33.4834V33.0806L78.8522 26.6758L83.5148 20.271L79.2933 20.257L75.0718 20.243L75.0645 19.1725L75.0572 18.1021H81.163H87.2687V18.4636V18.8252L82.6056 25.2649C80.0409 28.8068 77.9425 31.7107 77.9425 31.7179C77.9425 31.7252 80.0157 31.7312 82.5496 31.7312H87.1567V32.8086V33.8861H80.6732H74.1896V33.4834ZM108.404 33.8674C108.394 33.8572 108.386 30.3058 108.386 25.9754V18.1021H109.66H110.934V19.7253C110.934 20.618 110.945 21.3484 110.958 21.3484C110.972 21.3484 111.034 21.2023 111.096 21.0237C111.383 20.2052 111.88 19.4405 112.52 18.8327C113.096 18.2852 113.756 17.9577 114.533 17.8324C114.752 17.7972 114.937 17.7905 115.373 17.8019C115.922 17.8161 116.209 17.8562 116.543 17.9652L116.648 17.9995V19.3213V20.643L116.347 20.4924C115.815 20.2264 115.29 20.1211 114.659 20.1539C114.249 20.1752 113.979 20.2279 113.651 20.351C112.976 20.6042 112.428 21.0513 112.045 21.6615C111.491 22.5448 111.096 23.6803 110.979 24.7239C110.958 24.9112 110.946 26.4364 110.941 29.4433L110.934 33.8861H109.678C108.988 33.8861 108.415 33.8777 108.404 33.8674ZM0 33.8121C0 33.8022 2.80606 28.9347 6.23568 22.9955L12.4714 12.1971L19.7383 6.10315C23.7351 2.7515 27.016 0.00514637 27.0292 0.000137674C27.0423 -0.00487003 26.9898 0.127362 26.9123 0.293989C26.8349 0.460615 23.284 8.07126 19.0215 17.2065L11.2713 33.8161L5.63566 33.8232C2.53605 33.8271 0 33.8221 0 33.8121V33.8121Z" fill="#0089D6"/>
</g>
<defs>
<clipPath id="clip0_3023_22206">
<rect width="132" height="38" fill="white"/>
</clipPath>
</defs>
</svg>
