<svg width="484" height="303" viewBox="0 0 484 303" fill="none" xmlns="http://www.w3.org/2000/svg">
<g clip-path="url(#clip0_3843_23859)">
<path d="M298.398 268.265L280.559 273.048L298.527 262.005C298.14 244.4 291.992 226.145 291.992 226.145C291.992 226.145 253.594 237.263 243.516 256.516C233.439 275.769 241.371 288.48 255.498 295.867C269.624 303.253 284.594 302.519 294.672 283.265C296.915 278.98 298.025 273.772 298.398 268.265Z" fill="#F2F2F2"/>
<path d="M277.15 272.028L276.653 272.977C270.822 283.979 264.456 291.613 257.631 295.764C257.533 295.826 257.432 295.881 257.334 295.943L257.055 295.48L256.793 295.032C264.27 290.606 270.546 282.105 275.634 272.511C275.801 272.203 275.971 271.891 276.131 271.573C278.249 267.493 280.156 263.242 281.852 259.03C281.986 258.706 282.118 258.374 282.25 258.042C284.459 252.471 286.301 247.007 287.778 242.196C287.883 241.857 287.985 241.515 288.083 241.177C290.549 233.024 291.917 226.9 292.21 225.539C292.249 225.374 292.267 225.281 292.272 225.26L292.785 225.367L292.792 225.365L293.31 225.474C293.305 225.495 293.244 225.804 293.115 226.371C292.644 228.495 291.308 234.229 289.104 241.561C289.003 241.892 288.902 242.234 288.796 242.573C287.602 246.479 286.174 250.795 284.508 255.237C284.091 256.354 283.668 257.449 283.237 258.522C283.11 258.857 282.978 259.189 282.844 259.514C281.012 264.067 279.114 268.238 277.15 272.028Z" fill="white"/>
<path d="M289.104 241.561C288.767 241.439 288.425 241.314 288.083 241.177C287.155 240.808 286.246 240.39 285.361 239.927C281.585 237.959 278.299 235.169 275.744 231.763C275.417 231.909 275.089 232.055 274.754 232.203C277.421 235.823 280.881 238.787 284.869 240.867C285.814 241.361 286.785 241.805 287.777 242.196C288.114 242.331 288.456 242.455 288.796 242.573C291.59 243.56 294.519 244.117 297.481 244.224C297.414 243.86 297.349 243.503 297.287 243.154C294.495 243.028 291.738 242.492 289.104 241.561Z" fill="white"/>
<path d="M283.236 258.522C282.902 258.371 282.573 258.211 282.248 258.042C282.147 257.995 282.044 257.941 281.945 257.889C277.856 255.751 274.345 252.657 271.712 248.869C269.078 245.082 267.399 240.714 266.819 236.139C266.486 236.318 266.153 236.497 265.822 236.683C266.48 241.35 268.241 245.793 270.96 249.644C273.678 253.495 277.275 256.644 281.453 258.829C281.585 258.898 281.716 258.966 281.851 259.03C282.182 259.198 282.511 259.358 282.843 259.514C287.996 261.881 293.723 262.715 299.337 261.915C299.332 261.559 299.327 261.203 299.317 260.845C293.845 261.651 288.256 260.844 283.236 258.522Z" fill="white"/>
<path d="M277.149 272.028C276.805 271.885 276.466 271.731 276.13 271.573C275.77 271.403 275.413 271.228 275.06 271.044C269.569 268.164 265.159 263.585 262.49 257.991C259.821 252.397 259.037 246.089 260.254 240.012C259.844 240.282 259.435 240.547 259.034 240.822C258.018 246.989 258.972 253.319 261.761 258.913C264.549 264.507 269.031 269.08 274.568 271.983C274.921 272.168 275.276 272.347 275.633 272.51C275.972 272.676 276.311 272.829 276.652 272.977C283.57 275.933 291.354 276.15 298.426 273.586C298.509 273.186 298.576 272.785 298.645 272.378C291.707 275.06 283.996 274.934 277.149 272.028Z" fill="white"/>
<path d="M64.1466 269.935L81.9848 274.718L64.0176 263.674C64.4041 246.07 70.5519 227.815 70.5519 227.815C70.5519 227.815 108.95 238.933 119.028 258.186C129.106 277.439 121.173 290.15 107.047 297.536C92.9206 304.923 77.9504 304.189 67.8727 284.935C65.6296 280.65 64.5197 275.442 64.1466 269.935Z" fill="#F2F2F2"/>
<path d="M85.3944 273.698L85.8912 274.647C91.7217 285.649 98.0882 293.283 104.913 297.433C105.011 297.496 105.112 297.551 105.21 297.613L105.489 297.15L105.751 296.702C98.2738 292.276 91.9981 283.775 86.9101 274.18C86.743 273.873 86.5736 273.56 86.4135 273.243C84.2956 269.163 82.388 264.912 80.6924 260.7C80.5582 260.376 80.4264 260.044 80.2945 259.712C78.0851 254.141 76.2431 248.677 74.7666 243.866C74.6607 243.527 74.5595 243.185 74.4608 242.847C71.9951 234.694 70.6273 228.569 70.3342 227.209C70.2956 227.043 70.2773 226.951 70.2722 226.93L69.7592 227.037L69.752 227.034L69.2344 227.144C69.2395 227.165 69.2998 227.474 69.4289 228.041C69.8997 230.165 71.2366 235.898 73.4404 243.231C73.5414 243.562 73.6426 243.904 73.7485 244.243C74.9426 248.149 76.3696 252.465 78.0363 256.907C78.4531 258.024 78.8766 259.119 79.3068 260.192C79.434 260.527 79.5658 260.859 79.6999 261.183C81.5323 265.737 83.4305 269.908 85.3944 273.698Z" fill="white"/>
<path d="M65.2564 244.823C65.194 245.173 65.1294 245.53 65.0625 245.894C68.0245 245.786 70.9529 245.23 73.7475 244.243C74.0871 244.125 74.4288 244.001 74.7657 243.866C75.7579 243.475 76.7287 243.031 77.6741 242.537C81.6622 240.457 85.1219 237.493 87.7892 233.873C87.4543 233.725 87.1265 233.579 86.7988 233.433C84.2446 236.839 80.9584 239.629 77.1822 241.597C76.2967 242.06 75.388 242.477 74.4598 242.847C74.1183 242.984 73.7765 243.109 73.4395 243.231C70.8051 244.162 68.0476 244.698 65.2564 244.823Z" fill="white"/>
<path d="M63.2258 262.515C63.2158 262.873 63.2104 263.229 63.2051 263.585C68.8199 264.385 74.5463 263.551 79.6995 261.183C80.0312 261.028 80.3605 260.868 80.692 260.7C80.826 260.636 80.9577 260.567 81.0893 260.499C85.2674 258.314 88.8646 255.165 91.5829 251.314C94.3011 247.463 96.0622 243.019 96.7202 238.352C96.3894 238.166 96.0563 237.988 95.7232 237.809C95.1432 242.384 93.4648 246.752 90.831 250.539C88.1973 254.327 84.6863 257.421 80.5975 259.559C80.4987 259.611 80.3953 259.665 80.2941 259.712C79.9698 259.881 79.6406 260.041 79.3064 260.192C74.2865 262.514 68.6979 263.321 63.2258 262.515Z" fill="white"/>
<path d="M63.8984 274.048C63.9676 274.454 64.0343 274.856 64.1176 275.256C71.19 277.82 78.9732 277.603 85.8913 274.647C86.2326 274.499 86.5715 274.346 86.9101 274.18C87.2678 274.017 87.6228 273.838 87.9753 273.653C93.5128 270.75 97.9942 266.177 100.783 260.583C103.571 254.989 104.526 248.659 103.509 242.492C103.108 242.217 102.7 241.952 102.289 241.682C103.507 247.759 102.723 254.067 100.054 259.661C97.3846 265.255 92.9745 269.834 87.4835 272.714C87.131 272.898 86.7735 273.073 86.4136 273.243C86.0772 273.401 85.7383 273.554 85.3945 273.698C78.5472 276.604 70.8367 276.73 63.8984 274.048Z" fill="white"/>
<path d="M147.778 283.416L158.398 286.264L147.701 279.689C147.931 269.209 151.591 258.341 151.591 258.341C151.591 258.341 174.451 264.96 180.45 276.422C186.45 287.884 181.727 295.451 173.317 299.848C164.908 304.246 155.996 303.808 149.996 292.347C148.661 289.795 148 286.695 147.778 283.416Z" fill="#F2F2F2"/>
<path d="M160.427 285.657L160.723 286.222C164.194 292.771 167.984 297.316 172.047 299.787C172.105 299.824 172.165 299.857 172.224 299.894L172.39 299.618L172.546 299.351C168.095 296.717 164.358 291.656 161.329 285.944C161.23 285.761 161.129 285.575 161.034 285.386C159.773 282.957 158.637 280.426 157.628 277.919C157.548 277.725 157.47 277.528 157.391 277.33C156.076 274.014 154.979 270.761 154.1 267.897C154.037 267.695 153.977 267.491 153.918 267.29C152.45 262.436 151.636 258.79 151.461 257.98C151.438 257.882 151.428 257.827 151.424 257.814L151.119 257.878L151.115 257.877L150.807 257.942C150.81 257.954 150.846 258.139 150.922 258.476C151.203 259.74 151.999 263.154 153.311 267.519C153.371 267.716 153.431 267.919 153.494 268.121C154.205 270.446 155.054 273.016 156.047 275.661C156.295 276.325 156.547 276.977 156.803 277.616C156.879 277.815 156.957 278.013 157.037 278.206C158.128 280.917 159.258 283.4 160.427 285.657Z" fill="white"/>
<path d="M148.44 268.467C148.403 268.675 148.364 268.888 148.324 269.104C150.088 269.04 151.831 268.709 153.495 268.121C153.697 268.051 153.9 267.977 154.101 267.897C154.691 267.664 155.269 267.4 155.832 267.106C158.206 265.867 160.266 264.103 161.854 261.948C161.655 261.859 161.459 261.773 161.264 261.686C159.744 263.714 157.787 265.375 155.539 266.546C155.012 266.822 154.471 267.07 153.919 267.29C153.715 267.372 153.512 267.446 153.311 267.519C151.743 268.073 150.101 268.392 148.44 268.467Z" fill="white"/>
<path d="M147.229 278.999C147.223 279.212 147.22 279.424 147.217 279.636C150.559 280.112 153.969 279.616 157.036 278.206C157.234 278.114 157.43 278.018 157.627 277.919C157.707 277.881 157.785 277.84 157.864 277.799C160.351 276.498 162.493 274.623 164.111 272.331C165.729 270.038 166.778 267.393 167.169 264.615C166.972 264.504 166.774 264.397 166.576 264.291C166.23 267.015 165.231 269.615 163.663 271.87C162.095 274.124 160.005 275.966 157.571 277.239C157.512 277.27 157.451 277.302 157.39 277.33C157.197 277.431 157.001 277.526 156.802 277.616C153.814 278.998 150.487 279.479 147.229 278.999Z" fill="white"/>
<path d="M147.629 285.865C147.67 286.107 147.71 286.346 147.759 286.584C151.97 288.111 156.603 287.981 160.722 286.222C160.925 286.133 161.127 286.042 161.328 285.944C161.541 285.847 161.753 285.74 161.962 285.63C165.259 283.902 167.927 281.179 169.587 277.849C171.247 274.519 171.815 270.75 171.21 267.079C170.971 266.915 170.728 266.757 170.484 266.597C171.209 270.214 170.742 273.969 169.153 277.3C167.564 280.63 164.939 283.356 161.67 285.071C161.46 285.18 161.247 285.284 161.033 285.386C160.832 285.48 160.631 285.571 160.426 285.657C156.35 287.387 151.759 287.461 147.629 285.865Z" fill="white"/>
<path d="M362.807 177.612C363.509 177.19 364.109 176.62 364.566 175.941C365.023 175.262 365.325 174.491 365.452 173.683C365.579 172.874 365.527 172.048 365.299 171.262C365.072 170.476 364.675 169.749 364.136 169.133L373.998 151.856L363.678 152.523L355.895 168.827C354.919 169.8 354.335 171.097 354.252 172.472C354.17 173.848 354.595 175.205 355.447 176.288C356.299 177.371 357.519 178.104 358.875 178.348C360.232 178.592 361.631 178.33 362.807 177.612V177.612Z" fill="#FFB6B6"/>
<path d="M438.724 295.389H431.896L428.648 269.068L438.725 269.068L438.724 295.389Z" fill="#FFB6B6"/>
<path d="M440.466 302.004L418.451 302.003V301.725C418.451 299.454 419.354 297.275 420.961 295.669C422.568 294.063 424.747 293.161 427.02 293.161H427.02L440.466 293.161L440.466 302.004Z" fill="#2F2E41"/>
<path d="M391.945 295.389H385.117L381.869 269.068L391.946 269.068L391.945 295.389Z" fill="#FFB6B6"/>
<path d="M393.687 302.004L371.672 302.003V301.725C371.672 299.454 372.575 297.275 374.182 295.669C375.789 294.063 377.968 293.161 380.241 293.161H380.241L393.687 293.161L393.687 302.004Z" fill="#2F2E41"/>
<path d="M374.389 152.599C374.389 152.599 372.511 179.328 376.21 192.79C379.908 206.252 380.569 287.661 380.569 287.661H392.966L403.712 176.846L428.484 288.052L440.293 287.24L433.816 156.199L374.389 152.599Z" fill="#2F2E41"/>
<path d="M428.692 62.4946L419.215 55.5819L403.333 59.0382L399.034 69.2479L391.627 72.9188C389.191 74.1258 387.085 75.9059 385.49 78.106C383.894 80.3062 382.857 82.8606 382.468 85.5498L371.885 158.592L433.815 156.199L441.313 70.1778C441.391 69.2792 441.288 68.3741 441.011 67.5159C440.733 66.6578 440.285 65.864 439.695 65.1817C439.105 64.4994 438.384 63.9424 437.574 63.5436C436.765 63.1448 435.884 62.9124 434.983 62.86L428.692 62.4946Z" fill="#E4E4E4"/>
<path d="M387.708 78.6243L381.988 86.3312L357.074 162.279L368.752 166.953L387.451 131.562L387.708 78.6243Z" fill="#E4E4E4"/>
<path d="M408.186 51.1157C418.655 51.1157 427.141 42.6334 427.141 32.1699C427.141 21.7064 418.655 13.2241 408.186 13.2241C397.717 13.2241 389.23 21.7064 389.23 32.1699C389.23 42.6334 397.717 51.1157 408.186 51.1157Z" fill="#2F2E41"/>
<path d="M408.444 51.9729C416.083 51.9729 422.276 45.7831 422.276 38.1476C422.276 30.5121 416.083 24.3223 408.444 24.3223C400.804 24.3223 394.611 30.5121 394.611 38.1476C394.611 45.7831 400.804 51.9729 408.444 51.9729Z" fill="#FFB9B9"/>
<path d="M418.945 36.3554C410.137 33.1801 407.157 31.2295 397.428 36.3554L393.842 22.0181H422.531L418.945 36.3554Z" fill="#2F2E41"/>
<path d="M406.649 24.0663C412.591 24.0663 417.408 19.252 417.408 13.3133C417.408 7.37459 412.591 2.5603 406.649 2.5603C400.707 2.5603 395.891 7.37459 395.891 13.3133C395.891 19.252 400.707 24.0663 406.649 24.0663Z" fill="#2F2E41"/>
<path d="M393.843 10.753C393.844 7.9915 394.909 5.33652 396.817 3.33908C398.725 1.34165 401.329 0.155153 404.089 0.0258453C403.918 0.0177743 403.75 0 403.577 0C400.723 0 397.987 1.1329 395.969 3.14949C393.952 5.16607 392.818 7.90113 392.818 10.753C392.818 13.6049 393.952 16.34 395.969 18.3565C397.987 20.3731 400.723 21.506 403.577 21.506C403.75 21.506 403.918 21.4883 404.089 21.4802C401.329 21.3509 398.725 20.1644 396.817 18.1669C394.909 16.1695 393.844 13.5145 393.843 10.753Z" fill="#2F2E41"/>
<path opacity="0.1" d="M433.317 82.9982L429.458 121.452L415.828 148.301L433.317 82.9982Z" fill="black"/>
<path d="M25.3395 201.35H21.998V204.133H25.3395V201.35Z" fill="#F0F0F0"/>
<path d="M341.397 204.133H334.813V201.35H341.397V204.133ZM328.228 204.133H321.643V201.35H328.228V204.133ZM315.059 204.133H308.475V201.35H315.059V204.133ZM301.89 204.133H295.305V201.35H301.89V204.133ZM288.721 204.133H282.137V201.35H288.721V204.133ZM275.552 204.133H268.967V201.35H275.552L275.552 204.133ZM262.383 204.133H255.799V201.35H262.383V204.133ZM249.214 204.133H242.629V201.35H249.214V204.133ZM236.045 204.133H229.46V201.35H236.045V204.133ZM222.876 204.133H216.291V201.35H222.876L222.876 204.133ZM209.706 204.133H203.122V201.35H209.707L209.706 204.133ZM196.537 204.133H189.953V201.35H196.537L196.537 204.133ZM183.368 204.133H176.784V201.35H183.368L183.368 204.133ZM170.199 204.133H163.615V201.35H170.199L170.199 204.133ZM157.03 204.133H150.446V201.35H157.03L157.03 204.133ZM143.861 204.133H137.276V201.35H143.861L143.861 204.133ZM130.692 204.133H124.107V201.35H130.692L130.692 204.133ZM117.523 204.133H110.938V201.35H117.523L117.523 204.133ZM104.354 204.133H97.7693V201.35H104.354L104.354 204.133ZM91.1845 204.133H84.6003V201.35H91.1846L91.1845 204.133ZM78.0155 204.133H71.4312V201.35H78.0156L78.0155 204.133ZM64.8464 204.133H58.2619V201.35H64.8466L64.8464 204.133ZM51.6773 204.133H45.0929V201.35H51.6776L51.6773 204.133ZM38.5083 204.133H31.9238V201.35H38.5085L38.5083 204.133Z" fill="#F0F0F0"/>
<path d="M25.3395 130.659H21.998V133.442H25.3395V130.659Z" fill="#F0F0F0"/>
<path d="M341.397 133.442H334.813V130.659H341.397V133.442ZM328.228 133.442H321.643V130.659H328.228V133.442ZM315.059 133.442H308.475V130.659H315.059V133.442ZM301.89 133.442H295.305V130.659H301.89V133.442ZM288.721 133.442H282.137V130.659H288.721V133.442ZM275.552 133.442H268.967V130.659H275.552L275.552 133.442ZM262.383 133.442H255.799V130.659H262.383V133.442ZM249.214 133.442H242.629V130.659H249.214V133.442ZM236.045 133.442H229.46V130.659H236.045V133.442ZM222.876 133.442H216.291V130.659H222.876L222.876 133.442ZM209.706 133.442H203.122V130.659H209.707L209.706 133.442ZM196.537 133.442H189.953V130.659H196.537L196.537 133.442ZM183.368 133.442H176.784V130.659H183.368L183.368 133.442ZM170.199 133.442H163.615V130.659H170.199L170.199 133.442ZM157.03 133.442H150.446V130.659H157.03L157.03 133.442ZM143.861 133.442H137.276V130.659H143.861L143.861 133.442ZM130.692 133.442H124.107V130.659H130.692L130.692 133.442ZM117.523 133.442H110.938V130.659H117.523L117.523 133.442ZM104.354 133.442H97.7693V130.659H104.354L104.354 133.442ZM91.1845 133.442H84.6003V130.659H91.1846L91.1845 133.442ZM78.0155 133.442H71.4312V130.659H78.0156L78.0155 133.442ZM64.8464 133.442H58.2619V130.659H64.8466L64.8464 133.442ZM51.6773 133.442H45.0929V130.659H51.6776L51.6773 133.442ZM38.5083 133.442H31.9238V130.659H38.5085L38.5083 133.442Z" fill="#F0F0F0"/>
<path d="M25.3395 59.9684H21.998V62.7515H25.3395V59.9684Z" fill="#F0F0F0"/>
<path d="M341.397 62.7515H334.813V59.9684H341.397V62.7515ZM328.228 62.7515H321.643V59.9684H328.228V62.7515ZM315.059 62.7515H308.475V59.9684H315.059V62.7515ZM301.89 62.7515H295.305V59.9684H301.89V62.7515ZM288.721 62.7515H282.137V59.9684H288.721V62.7515ZM275.552 62.7515H268.967V59.9684H275.552L275.552 62.7515ZM262.383 62.7515H255.799V59.9684H262.383V62.7515ZM249.214 62.7515H242.629V59.9684H249.214V62.7515ZM236.045 62.7515H229.46V59.9684H236.045V62.7515ZM222.876 62.7515H216.291V59.9684H222.876L222.876 62.7515ZM209.706 62.7515H203.122V59.9684H209.707L209.706 62.7515ZM196.537 62.7515H189.953V59.9684H196.537L196.537 62.7515ZM183.368 62.7515H176.784V59.9684H183.368L183.368 62.7515ZM170.199 62.7515H163.615V59.9684H170.199L170.199 62.7515ZM157.03 62.7515H150.446V59.9684H157.03L157.03 62.7515ZM143.861 62.7515H137.276V59.9684H143.861L143.861 62.7515ZM130.692 62.7515H124.107V59.9684H130.692L130.692 62.7515ZM117.523 62.7515H110.938V59.9684H117.523L117.523 62.7515ZM104.354 62.7515H97.7693V59.9684H104.354L104.354 62.7515ZM91.1845 62.7515H84.6003V59.9684H91.1846L91.1845 62.7515ZM78.0155 62.7515H71.4312V59.9684H78.0156L78.0155 62.7515ZM64.8464 62.7515H58.2619V59.9684H64.8466L64.8464 62.7515ZM51.6773 62.7515H45.0929V59.9684H51.6776L51.6773 62.7515ZM38.5083 62.7515H31.9238V59.9684H38.5085L38.5083 62.7515Z" fill="#F0F0F0"/>
<path d="M130.872 202.185H103.584V302.376H130.872V202.185Z" fill="#3F3D56"/>
<path d="M135.884 202.185H108.596V302.376H135.884V202.185Z" fill="#F1563C"/>
<path d="M195.472 131.494H168.184V302.376H195.472V131.494Z" fill="#3F3D56"/>
<path d="M200.485 131.494H173.197V302.376H200.485V131.494Z" fill="#F1563C"/>
<path d="M260.073 60.8033H232.785V302.376H260.073V60.8033Z" fill="#3F3D56"/>
<path d="M265.085 60.8033H237.797V302.376H265.085V60.8033Z" fill="#F1563C"/>
<path d="M22.2766 68.0394C25.9674 68.0394 28.9594 65.0489 28.9594 61.36C28.9594 57.671 25.9674 54.6805 22.2766 54.6805C18.5857 54.6805 15.5938 57.671 15.5938 61.36C15.5938 65.0489 18.5857 68.0394 22.2766 68.0394Z" fill="#F0F0F0"/>
<path d="M22.2766 138.73C25.9674 138.73 28.9594 135.74 28.9594 132.051C28.9594 128.362 25.9674 125.371 22.2766 125.371C18.5857 125.371 15.5938 128.362 15.5938 132.051C15.5938 135.74 18.5857 138.73 22.2766 138.73Z" fill="#F0F0F0"/>
<path d="M22.2766 209.421C25.9674 209.421 28.9594 206.43 28.9594 202.741C28.9594 199.052 25.9674 196.062 22.2766 196.062C18.5857 196.062 15.5938 199.052 15.5938 202.741C15.5938 206.43 18.5857 209.421 22.2766 209.421Z" fill="#F0F0F0"/>
<path d="M494.528 301.753H0V303H494.528V301.753Z" fill="#3F3D56"/>
<path d="M410.99 161.93C410.933 161.114 411.055 160.295 411.349 159.531C411.643 158.767 412.1 158.077 412.69 157.509C413.279 156.941 413.986 156.509 414.76 156.244C415.535 155.978 416.358 155.886 417.172 155.973L425.658 137.981L431.039 146.807L422.156 162.54C421.919 163.897 421.192 165.12 420.113 165.977C419.035 166.835 417.679 167.267 416.302 167.192C414.926 167.117 413.625 166.539 412.646 165.57C411.667 164.6 411.078 163.305 410.99 161.93Z" fill="#FFB6B6"/>
<path d="M434.061 67.818L437.556 63.2627C437.556 63.2627 446.071 61.5293 447.517 73.2191L446.606 125.188L427.947 154.542L415.828 151.45L431.673 116.579L434.061 67.818Z" fill="#E4E4E4"/>
<path d="M47.5454 118V112.833C45.0641 112.782 42.4972 111.861 41 110.582L42.0266 107.155C43.8059 108.558 45.9637 109.329 48.1871 109.354C51.2245 109.354 53.278 107.257 53.278 104.341C53.278 101.527 51.6095 99.7881 48.4438 98.2533C44.0801 96.2071 41.385 93.8537 41.385 89.4032C41.385 85.157 43.909 81.9342 47.8449 81.1669V76H50.4972V80.9623C52.4751 80.9907 54.4042 81.6118 56.0588 82.7527L54.9891 86.1291C53.4023 84.9857 51.5219 84.3789 49.5988 84.3897C46.3049 84.3897 45.0641 86.7428 45.0641 88.7893C45.0641 91.4494 46.647 92.7794 50.369 94.6213C54.7753 96.7698 57 99.4299 57 103.983C57 108.024 54.647 111.81 50.2405 112.679V118H47.5454Z" fill="#CDCDCD"/>
</g>
<defs>
<clipPath id="clip0_3843_23859">
<rect width="484" height="303" fill="white"/>
</clipPath>
</defs>
</svg>
