<svg width="60" height="60" viewBox="0 0 60 60" fill="none" xmlns="http://www.w3.org/2000/svg">
<path fill-rule="evenodd" clip-rule="evenodd" d="M0 60H60V0H0V60Z" fill="#009480"/>
<path fill-rule="evenodd" clip-rule="evenodd" d="M45.0004 25.275C45.0004 35.025 38.8504 40.725 33.3004 44.25C27.9754 47.625 22.1254 49.125 15.6754 47.925C15.5254 47.925 15.3754 47.85 15.1504 47.775C15.2254 46.5 15.2254 45.15 15.3754 43.875C15.3754 43.575 15.9754 43.35 16.3504 43.2C18.6754 42.225 21.1504 41.475 23.2504 40.125C24.3754 39.45 25.4254 38.4 25.8754 37.65C21.0754 35.55 17.7754 30.75 17.7754 25.2C17.7754 17.7 23.8504 11.625 31.4254 11.625C38.9254 11.625 45.0004 17.775 45.0004 25.275Z" fill="white"/>
<path fill-rule="evenodd" clip-rule="evenodd" d="M40.5 25.2C40.5 30.15 36.375 34.2 31.425 34.125C26.475 34.125 22.5 30 22.5 24.975C22.575 20.1 26.625 16.125 31.575 16.125C36.525 16.2 40.5 20.25 40.5 25.2Z" fill="#414141"/>
<path fill-rule="evenodd" clip-rule="evenodd" d="M29.8504 29.175C29.5504 29.175 29.3254 29.1 29.1754 28.95C29.0254 28.8 28.9504 28.5 28.9504 28.2V26.775C28.9504 25.95 28.6504 25.5 28.1254 25.35C28.6504 25.125 28.9504 24.675 28.9504 23.85V22.425C28.9504 21.75 29.2504 21.45 29.8504 21.45V20.55C29.1754 20.55 28.7254 20.7 28.4254 21C28.1254 21.3 27.9754 21.75 27.9754 22.425V23.85C27.9754 24.6 27.6754 24.975 27.1504 24.975V25.8C27.6754 25.8 27.9754 26.175 27.9754 26.85V28.35C27.9754 29.025 28.1254 29.475 28.4254 29.775C28.7254 30.075 29.1754 30.225 29.8504 30.225C29.8504 30 29.8504 29.175 29.8504 29.175ZM33.1504 30C33.8254 30 34.2754 29.85 34.5754 29.55C34.8754 29.25 35.0254 28.8 35.0254 28.125V26.625C35.0254 25.95 35.3254 25.575 35.8504 25.575V24.75C35.3254 24.75 35.0254 24.375 35.0254 23.625V22.125C35.0254 21.525 34.8754 21 34.5754 20.7C34.2754 20.4 33.7504 20.25 33.1504 20.25V21.15C33.7504 21.15 34.0504 21.45 34.0504 22.125V23.55C34.0504 24.3 34.3504 24.825 34.8754 25.05C34.3504 25.275 34.0504 25.725 34.0504 26.475V27.9C34.0504 28.275 33.9754 28.5 33.8254 28.65C33.6754 28.8 33.4504 28.875 33.1504 28.875C33.1504 29.175 33.1504 30 33.1504 30Z" fill="white"/>
</svg>
