<svg width="26" height="26" viewBox="0 0 26 26" fill="none" xmlns="http://www.w3.org/2000/svg">
<path fill-rule="evenodd" clip-rule="evenodd" d="M23.1842 11.6459L21.9678 11.4118C21.2515 11.2741 20.6646 10.7868 20.3986 10.1074C20.1318 9.42883 20.2302 8.67245 20.6618 8.08405L21.4257 7.04222C21.5392 6.88783 21.5225 6.67317 21.3868 6.53745L19.7371 4.88778C19.6053 4.75595 19.3983 4.73611 19.244 4.84072L18.2181 5.53528C17.8642 5.77483 17.4567 5.90161 17.0387 5.90161C15.9835 5.90161 15.102 5.14678 14.9413 4.10611L14.745 2.82939C14.7165 2.64 14.5532 2.5 14.3612 2.5H12.0278C11.8415 2.5 11.6809 2.63261 11.6459 2.81578L11.3437 4.38728C11.1524 5.38245 10.2758 6.10461 9.26045 6.10461C8.84238 6.10461 8.43405 5.97822 8.08095 5.73867L6.756 4.84111C6.60161 4.73688 6.39472 4.75633 6.26289 4.88817L4.61283 6.53783C4.47711 6.67355 4.46078 6.88783 4.57395 7.043L5.33772 8.08483C5.769 8.67283 5.86738 9.42922 5.601 10.1082C5.33422 10.7868 4.74778 11.2745 4.03145 11.4122L2.815 11.6463C2.63222 11.6809 2.5 11.8415 2.5 12.0278V14.3612C2.5 14.5528 2.64 14.7162 2.82978 14.7453L4.1065 14.9417C4.82711 15.0525 5.43183 15.5177 5.72311 16.1862C6.01478 16.855 5.94478 17.6145 5.53567 18.2185L4.84111 19.2443C4.7365 19.3983 4.75633 19.6057 4.88817 19.7375L6.53783 21.3872C6.67355 21.5225 6.88745 21.54 7.04261 21.426L8.08445 20.6623C8.45155 20.3932 8.88167 20.2505 9.32772 20.2505C10.3439 20.2505 11.2204 20.9727 11.4118 21.9678L11.6459 23.1846C11.6809 23.3673 11.8415 23.5 12.0278 23.5H14.3612C14.5532 23.5 14.7162 23.36 14.7453 23.1702L14.8833 22.2723C15.0646 21.0932 16.0761 20.4763 16.9818 20.4763C17.4275 20.4763 17.8568 20.6187 18.2247 20.8886L18.9573 21.4257C19.1125 21.5396 19.3268 21.5221 19.4622 21.3868L21.1118 19.7371C21.2437 19.6053 21.2635 19.3983 21.1588 19.244L20.4643 18.2181C20.0552 17.6142 19.9852 16.8547 20.2768 16.1858C20.5685 15.5173 21.1728 15.0522 21.8935 14.9413L23.1702 14.745C23.36 14.7162 23.5 14.5528 23.5 14.3612V12.0278C23.5 11.8415 23.3678 11.6809 23.1842 11.6459ZM16.5 13.1944C16.5 15.0172 15.0172 16.5 13.1944 16.5C11.3717 16.5 9.88889 15.0172 9.88889 13.1944C9.88889 11.3717 11.3717 9.88889 13.1944 9.88889C15.0172 9.88889 16.5 11.3717 16.5 13.1944Z" fill="white"/>
</svg>
