<svg width="401" height="272" viewBox="0 0 401 272" fill="none" xmlns="http://www.w3.org/2000/svg">
<g clip-path="url(#clip0_3872_23892)">
<path d="M44.4985 242.585C43.935 238.951 42.8356 235.421 41.2362 232.109L41.003 231.627L39.2713 233.548L40.5544 230.687L40.4705 230.521C39.3383 228.279 38.0834 226.101 36.7116 223.997L36.4572 223.607L36.1179 223.984L36.3555 223.454L36.2365 223.275C34.5375 220.726 33.2323 219.114 33.2193 219.098L32.8502 218.644L32.6128 219.185C32.5693 219.284 28.2552 229.228 27.6838 239.054L27.6747 239.207L30.5782 242.718L27.6172 240.858L27.6223 241.533C27.6313 242.688 27.7099 243.841 27.8576 244.987C27.988 245.972 28.1415 246.934 28.318 247.872C28.598 247.881 28.8702 247.966 29.1054 248.118C28.9009 247.069 28.7245 245.991 28.5762 244.884C28.4618 244.001 28.3898 243.103 28.3611 242.208L34.0884 245.805L28.4167 238.947C28.9331 230.64 32.1382 222.27 33.0381 220.06C33.521 220.687 34.432 221.903 35.5218 223.528L33.5407 227.946L36.3652 224.813C37.5898 226.72 38.7178 228.687 39.7449 230.707L36.6941 237.51L40.8189 232.935C42.2597 236.034 43.257 239.32 43.7814 242.697C44.5033 248.152 44.3624 253.392 43.3845 257.453C42.4478 261.342 40.797 263.733 38.8551 264.012C38.4555 264.067 38.0489 264.043 37.6586 263.941C37.3456 264.164 36.9689 264.279 36.5851 264.269H36.4793C37.0816 264.603 37.7569 264.785 38.4457 264.797C38.6159 264.797 38.7858 264.785 38.9543 264.761C41.2373 264.433 43.0605 261.902 44.0878 257.637C45.0877 253.485 45.2341 248.142 44.4985 242.585Z" fill="#E6E6E6"/>
<path d="M38.1099 264.51C35.1236 264.51 30.8179 262.867 26.5472 259.876C25.9185 259.432 25.3183 258.949 24.7499 258.43L24.2716 257.993L26.0802 257.472L23.672 257.384L23.5704 257.277C19.0564 252.549 16.2475 245.869 16.2195 245.803L16 245.275L16.5707 245.301C16.6276 245.303 17.9845 245.367 20.0239 245.657L20.151 245.675V245.674L20.5982 245.742C22.2636 245.995 23.9133 246.342 25.5397 246.78L25.7133 246.828L26.2559 248.165L26.1736 246.965L26.6715 247.109C29.0309 247.79 31.2719 248.83 33.3163 250.191C39.8111 254.74 43.4048 260.426 41.5051 263.139C40.8557 264.067 39.6604 264.51 38.1099 264.51ZM25.731 258.328C26.1278 258.664 26.5406 258.983 26.9641 259.282C32.9125 263.449 39.2994 265.024 40.9109 262.723C42.5221 260.422 38.8568 254.957 32.9075 250.79C31.0721 249.569 29.0724 248.614 26.9685 247.956L27.2902 252.64L25.1771 247.434C23.7855 247.065 22.3618 246.761 20.9365 246.529L21.17 249.929L19.7157 246.346C18.5889 246.191 17.6805 246.107 17.128 246.064C17.8813 247.719 20.3703 252.828 23.9936 256.67L30.6394 256.913L25.731 258.328Z" fill="#E6E6E6"/>
<path d="M363.727 264.101H16.123V264.913H363.727V264.101Z" fill="#3F3D56"/>
<path d="M247.505 64.4588H246.055V24.7311C246.055 21.7116 245.46 18.7216 244.305 15.932C243.15 13.1423 241.457 10.6075 239.322 8.4724C237.188 6.33727 234.654 4.64359 231.865 3.48807C229.076 2.33254 226.087 1.7378 223.068 1.73779H138.923C132.826 1.73778 126.979 4.16027 122.668 8.47234C118.357 12.7844 115.936 18.6328 115.936 24.731V242.68C115.936 248.778 118.357 254.627 122.668 258.939C126.979 263.251 132.826 265.674 138.922 265.674H223.068C229.164 265.674 235.011 263.251 239.322 258.939C243.633 254.627 246.055 248.779 246.055 242.68V92.7376H247.505L247.505 64.4588Z" fill="#E6E6E6"/>
<path d="M223.996 7.72023H213.012C213.518 8.95895 213.71 10.3029 213.574 11.6337C213.437 12.9645 212.976 14.2413 212.23 15.3517C211.484 16.462 210.476 17.3718 209.296 18.0009C208.116 18.63 206.799 18.9591 205.461 18.9592H157.256C155.918 18.9591 154.601 18.63 153.421 18.0009C152.241 17.3718 151.233 16.462 150.487 15.3517C149.741 14.2413 149.28 12.9645 149.143 11.6337C149.007 10.3029 149.199 8.95893 149.705 7.72021H139.446C137.191 7.72021 134.959 8.16435 132.876 9.02728C130.794 9.89021 128.901 11.155 127.307 12.7495C125.713 14.344 124.449 16.2369 123.586 18.3202C122.723 20.4035 122.279 22.6364 122.279 24.8913V242.521C122.279 244.776 122.723 247.008 123.586 249.092C124.449 251.175 125.713 253.068 127.307 254.662C128.901 256.257 130.794 257.522 132.876 258.385C134.959 259.248 137.191 259.692 139.446 259.692H223.996C226.251 259.692 228.483 259.248 230.566 258.385C232.648 257.522 234.541 256.257 236.135 254.662C237.729 253.068 238.993 251.175 239.856 249.092C240.719 247.008 241.163 244.776 241.163 242.521V24.8913C241.163 22.6364 240.719 20.4035 239.856 18.3202C238.993 16.2369 237.729 14.344 236.135 12.7495C234.541 11.155 232.648 9.89023 230.566 9.0273C228.483 8.16437 226.251 7.72023 223.996 7.72023H223.996Z" fill="white"/>
<path d="M184.02 90.5977C178.785 90.5977 173.668 89.045 169.315 86.136C164.963 83.227 161.571 79.0923 159.567 74.2548C157.564 69.4173 157.04 64.0942 158.061 58.9587C159.083 53.8232 161.603 49.106 165.305 45.4035C169.006 41.701 173.722 39.1796 178.856 38.1581C183.99 37.1366 189.312 37.6609 194.148 39.6646C198.984 41.6684 203.118 45.0617 206.026 49.4153C208.934 53.769 210.486 58.8875 210.486 64.1236C210.479 71.1425 207.688 77.8717 202.726 82.8348C197.764 87.798 191.037 90.5898 184.02 90.5977ZM184.02 38.3747C178.928 38.3747 173.951 39.8849 169.718 42.7142C165.485 45.5435 162.186 49.5649 160.237 54.2699C158.289 58.9749 157.779 64.1521 158.772 69.1469C159.766 74.1417 162.217 78.7297 165.817 82.3307C169.417 85.9318 174.004 88.3841 178.998 89.3776C183.991 90.3712 189.167 89.8612 193.871 87.9124C198.574 85.9635 202.595 82.6632 205.423 78.4288C208.252 74.1945 209.761 69.2162 209.761 64.1236C209.754 57.2969 207.039 50.7521 202.213 45.9249C197.387 41.0978 190.844 38.3825 184.02 38.3747Z" fill="#3F3D56"/>
<path d="M178.944 243.277C176.291 243.277 173.697 242.49 171.491 241.016C169.285 239.541 167.566 237.446 166.55 234.994C165.535 232.542 165.269 229.844 165.787 227.241C166.305 224.638 167.582 222.247 169.458 220.371C171.334 218.494 173.725 217.216 176.327 216.698C178.929 216.181 181.626 216.446 184.078 217.462C186.529 218.477 188.624 220.197 190.098 222.404C191.572 224.611 192.359 227.205 192.359 229.859C192.355 233.416 190.94 236.827 188.425 239.343C185.91 241.858 182.501 243.273 178.944 243.277ZM178.944 217.166C176.434 217.166 173.981 217.91 171.894 219.305C169.807 220.7 168.181 222.682 167.22 225.001C166.26 227.321 166.009 229.873 166.498 232.335C166.988 234.797 168.196 237.059 169.971 238.834C171.746 240.609 174.007 241.818 176.468 242.308C178.93 242.798 181.481 242.546 183.8 241.586C186.119 240.625 188.101 238.998 189.495 236.911C190.889 234.823 191.633 232.369 191.633 229.859C191.63 226.494 190.291 223.267 187.913 220.888C185.534 218.508 182.308 217.17 178.944 217.166Z" fill="#3F3D56"/>
<path d="M276.835 164.361H222.604V110.115H276.835V164.361ZM223.329 163.636H276.11V110.841H223.329V163.636Z" fill="#3F3D56"/>
<path d="M162.306 193.374H132.898V163.958H162.306V193.374ZM133.624 192.649H161.581V164.683H133.624V192.649Z" fill="#3F3D56"/>
<path d="M47.2803 87.1711C53.8737 87.1711 59.2188 81.8246 59.2188 75.2294C59.2188 68.6341 53.8737 63.2876 47.2803 63.2876C40.6868 63.2876 35.3418 68.6341 35.3418 75.2294C35.3418 81.8246 40.6868 87.1711 47.2803 87.1711Z" fill="#2F2E41"/>
<path d="M67.1793 103.662C75.0287 103.662 81.3918 97.2969 81.3918 89.4454C81.3918 81.5939 75.0287 75.229 67.1793 75.229C59.33 75.229 52.9668 81.5939 52.9668 89.4454C52.9668 97.2969 59.33 103.662 67.1793 103.662Z" fill="#2F2E41"/>
<path d="M83.5647 211.808L76.5938 224.144C76.5938 224.144 67.478 215.026 72.304 212.612L79.8111 210.199L83.5647 211.808Z" fill="#FFB8B8"/>
<path d="M71.2296 244.794L73.3745 253.912L66.9398 256.058L64.7949 245.599L71.2296 244.794Z" fill="#FFB8B8"/>
<path d="M84.6483 152.767L86.0302 166.873C86.0302 166.873 110.912 189.817 102.332 198.398C93.7526 206.98 83.0282 213.953 83.0282 213.953L78.2022 210.467L89.1947 195.448L66.9415 179.625L72.0356 245.867L64.2604 248.013L46.8331 180.966C46.8331 180.966 41.4709 159.512 54.6084 148.784L84.6483 152.767Z" fill="#2F2E41"/>
<path d="M68.8184 253.645C68.8184 253.645 72.8401 248.549 74.7168 253.108C75.9536 256.244 76.9398 259.472 77.6661 262.763C77.6661 262.763 84.637 273.222 73.9125 271.882C63.188 270.541 66.4054 265.713 66.4054 265.713C65.8349 265.344 65.3809 264.82 65.0961 264.203C64.8113 263.586 64.7075 262.901 64.7967 262.227C65.0648 259.813 66.4054 254.181 66.4054 254.181C66.4054 254.181 67.7459 251.767 68.8184 253.645Z" fill="#2F2E41"/>
<path d="M79.9452 218.647C79.9452 218.647 82.2241 220.926 78.4705 224.681C78.4705 224.681 77.9343 235.14 73.1083 234.067C68.2823 232.995 66.6736 219.854 67.2099 218.513C67.7461 217.172 66.4055 207.249 69.6229 207.517C72.8402 207.785 76.8619 211.272 76.8619 211.272C76.8619 211.272 69.891 217.708 76.5938 221.999C76.5938 221.999 78.3365 221.329 79.9452 218.647Z" fill="#2F2E41"/>
<path d="M59.9707 114.993L80.3471 115.529C75.8569 109.155 75.0117 101.636 76.8617 93.27L63.4562 95.9519C66.0377 102.78 66.0822 108.636 59.9707 114.993Z" fill="#FFB8B8"/>
<path d="M53.5341 149.589L85.1712 158.439L91.2429 116.6C91.119 114.719 90.3395 112.941 89.0399 111.575C87.7404 110.21 86.0033 109.344 84.1311 109.128L76.8598 108.289L63.7223 109.63L57.5088 111.386C55.7676 111.878 54.2439 112.945 53.1851 114.412C52.1263 115.88 51.5945 117.662 51.6761 119.47L53.5341 149.589Z" fill="#F1563C"/>
<path d="M83.8313 150.393L88.9254 156.293L101.259 143.152L96.6734 120.411C96.1265 117.699 94.7847 115.211 92.819 113.264C90.8533 111.317 88.3527 109.999 85.6356 109.478L82.2227 108.825L89.7298 139.398L83.8313 150.393Z" fill="#F1563C"/>
<path d="M84.0851 158.687L87.854 153.612L84.6367 150.394L79.4111 151.757C78.6726 151.95 77.9964 152.33 77.448 152.861C76.8997 153.392 76.4978 154.056 76.2814 154.788C76.065 155.52 76.0414 156.296 76.2128 157.04C76.3843 157.784 76.745 158.471 77.26 159.034C77.7007 159.516 78.2425 159.895 78.8466 160.143C79.4508 160.391 80.1023 160.503 80.7545 160.47C81.4067 160.436 82.0435 160.259 82.6193 159.951C83.1951 159.643 83.6957 159.211 84.0851 158.687Z" fill="#FFB8B8"/>
<path d="M59.1655 152.002L54.0714 157.902L41.7383 144.761L46.3234 122.02C46.8703 119.308 48.2121 116.82 50.1778 114.872C52.1435 112.925 54.6442 111.608 57.3612 111.087L60.7742 110.434L53.2671 141.007L59.1655 152.002Z" fill="#F1563C"/>
<path d="M58.9135 160.296L55.1445 155.221L58.3619 152.003L63.5875 153.367C64.326 153.559 65.0023 153.94 65.5506 154.471C66.0989 155.002 66.5008 155.665 66.7172 156.398C66.9336 157.13 66.9572 157.905 66.7858 158.649C66.6143 159.393 66.2536 160.08 65.7386 160.644C65.2979 161.126 64.7561 161.505 64.152 161.753C63.5478 162.001 62.8963 162.112 62.2441 162.079C61.5919 162.046 60.9551 161.869 60.3793 161.561C59.8035 161.252 59.3029 160.821 58.9135 160.296Z" fill="#FFB8B8"/>
<path d="M69.1438 99.9061C74.2844 99.9061 78.4517 95.7376 78.4517 90.5956C78.4517 85.4536 74.2844 81.2852 69.1438 81.2852C64.0032 81.2852 59.8359 85.4536 59.8359 90.5956C59.8359 95.7376 64.0032 99.9061 69.1438 99.9061Z" fill="#FFB8B8"/>
<path d="M79.1175 89.7302H63.1994L58.3672 83.1906C63.1212 79.0283 69.0711 78.2822 75.7065 79.4943L79.1175 89.7302Z" fill="#2F2E41"/>
<path d="M169.517 81.5313C181.531 81.5313 191.271 71.7893 191.271 59.7718C191.271 47.7543 181.531 38.0122 169.517 38.0122C157.503 38.0122 147.764 47.7543 147.764 59.7718C147.764 71.7893 157.503 81.5313 169.517 81.5313Z" fill="#E6E6E6"/>
<path d="M261.61 100.814H214.049V148.389H261.61V100.814Z" fill="#F1563C"/>
<path d="M141.231 184.644H166.727V159.141H141.231V184.644Z" fill="#E6E6E6"/>
<path d="M171.693 238.563C177.7 238.563 182.57 233.692 182.57 227.683C182.57 221.675 177.7 216.804 171.693 216.804C165.686 216.804 160.816 221.675 160.816 227.683C160.816 233.692 165.686 238.563 171.693 238.563Z" fill="#F1563C"/>
<ellipse cx="330.545" cy="151.034" rx="33.9573" ry="33.5669" fill="white"/>
<ellipse cx="330.546" cy="227.926" rx="35.5184" ry="35.5185" fill="white"/>
<path d="M329.372 262.827C329.261 263.098 329.137 263.362 329 263.619C328.28 264.991 327.263 266.172 326.027 267.071C324.564 268.134 322.846 268.761 321.061 268.885C319.276 269.009 317.493 268.625 315.905 267.775C314.317 266.924 312.986 265.639 312.057 264.061C311.128 262.483 310.637 260.672 310.637 258.826V257.199H311.975C317.173 260.667 323.186 262.612 329.372 262.827Z" fill="#333333"/>
<path d="M348.888 257.979V259.099C348.889 261.279 348.136 263.397 346.749 265.118C345.361 266.839 343.418 268.066 341.226 268.605C339.034 269.143 336.719 268.962 334.645 268.091C332.572 267.22 330.859 265.708 329.777 263.794C329.627 263.538 329.493 263.274 329.373 263.004C329.671 263.012 329.964 263.016 330.262 263.016C336.834 263.023 343.28 261.28 348.888 257.979Z" fill="#333333"/>
<path d="M362.284 137.854C361.985 137.81 361.683 137.783 361.381 137.763C364.816 145.691 365.054 154.643 362.045 162.743C362.347 162.707 362.646 162.659 362.944 162.603C365.857 162.038 368.475 160.456 370.332 158.139C372.189 155.821 373.165 152.919 373.086 149.949C373.007 146.978 371.877 144.132 369.899 141.917C367.921 139.703 365.222 138.263 362.284 137.854Z" fill="#333333"/>
<path d="M299.709 137.763C299.407 137.783 299.105 137.81 298.806 137.854C295.868 138.263 293.169 139.703 291.191 141.918C289.213 144.132 288.084 146.978 288.004 149.949C287.925 152.919 288.901 155.821 290.758 158.139C292.615 160.456 295.233 162.038 298.146 162.603C298.444 162.659 298.743 162.707 299.045 162.743C296.036 154.643 296.275 145.691 299.709 137.763Z" fill="#333333"/>
<path d="M361.868 137.77C358.615 129.91 352.589 123.554 344.962 119.936C337.335 116.318 328.65 115.697 320.595 118.194C312.541 120.691 305.691 126.127 301.378 133.446C297.064 140.766 295.594 149.445 297.253 157.8C298.913 166.154 303.583 173.586 310.357 178.652C317.131 183.718 325.524 186.056 333.907 185.213C342.29 184.369 350.064 180.403 355.718 174.087C361.372 167.77 364.503 159.552 364.502 151.031C364.501 146.478 363.605 141.971 361.868 137.77ZM361.632 162.727C358.743 170.581 353.052 177.057 345.68 180.88C338.308 184.703 329.788 185.597 321.797 183.385C313.806 181.173 306.923 176.016 302.502 168.928C298.082 161.841 296.444 153.337 297.912 145.089C299.379 136.842 303.846 129.448 310.432 124.365C317.018 119.281 325.247 116.875 333.499 117.62C341.751 118.365 349.428 122.208 355.02 128.391C360.612 134.575 363.713 142.651 363.713 151.031C363.711 155.024 363.007 158.984 361.632 162.727Z" fill="#333333"/>
<path d="M348.135 143.228H312.95C311.094 143.228 309.315 143.927 308.003 145.171C306.69 146.415 305.953 148.103 305.953 149.863C305.953 151.623 306.69 153.31 308.003 154.555C309.315 155.799 311.094 156.498 312.95 156.498H348.135C349.991 156.498 351.771 155.799 353.083 154.555C354.395 153.31 355.133 151.623 355.133 149.863C355.133 148.103 354.395 146.415 353.083 145.171C351.771 143.927 349.991 143.228 348.135 143.228Z" fill="#333333"/>
<path d="M361.615 210.136C361.488 209.901 361.358 209.669 361.224 209.442C361.22 209.434 361.216 209.43 361.212 209.422C358.106 204.046 353.67 199.579 348.34 196.459C343.011 193.339 336.97 191.674 330.812 191.627C324.654 191.581 318.589 193.153 313.214 196.191C307.838 199.229 303.337 203.628 300.15 208.956C296.964 214.284 295.203 220.358 295.04 226.582C294.877 232.806 296.317 238.966 299.219 244.457C302.122 249.948 306.387 254.582 311.595 257.904C316.804 261.226 322.778 263.121 328.93 263.404C329.305 263.424 329.684 263.436 330.063 263.436C330.221 263.444 330.375 263.444 330.533 263.444C336.88 263.454 343.111 261.731 348.571 258.459C354.501 254.911 359.291 249.706 362.365 243.472C362.369 243.464 362.373 243.46 362.377 243.452C362.495 243.212 362.61 242.969 362.724 242.721C365.099 237.587 366.236 231.958 366.043 226.294C365.85 220.63 364.333 215.093 361.615 210.136H361.615ZM361.954 242.502C361.84 242.749 361.721 242.993 361.599 243.232C358.662 249.134 354.149 254.087 348.571 257.529C343.139 260.883 336.897 262.653 330.533 262.646C330.244 262.646 329.96 262.642 329.672 262.634C329.55 262.634 329.427 262.63 329.305 262.622C323.277 262.409 317.408 260.613 312.275 257.411C307.142 254.209 302.922 249.711 300.03 244.359C297.139 239.008 295.675 232.988 295.783 226.891C295.891 220.794 297.568 214.831 300.647 209.588C303.727 204.345 308.104 200.002 313.347 196.989C318.591 193.975 324.52 192.393 330.551 192.399C336.583 192.404 342.509 193.998 347.746 197.022C352.984 200.046 357.353 204.396 360.423 209.645C360.426 209.653 360.43 209.657 360.434 209.665C360.573 209.893 360.707 210.124 360.833 210.356C363.543 215.235 365.058 220.699 365.253 226.291C365.448 231.883 364.317 237.441 361.954 242.502Z" fill="#333333"/>
<path d="M358.07 211.163C357.363 210.645 356.517 210.364 355.65 210.361H339.784C338.679 210.361 337.619 210.814 336.838 211.619C336.056 212.424 335.617 213.516 335.617 214.655C335.617 215.793 336.056 216.885 336.838 217.691C337.619 218.496 338.679 218.948 339.784 218.948H355.65C355.933 218.949 356.215 218.92 356.493 218.861C356.769 218.799 357.039 218.712 357.299 218.599C357.978 218.298 358.566 217.816 359.004 217.204C359.442 216.591 359.715 215.87 359.793 215.113C359.871 214.357 359.753 213.592 359.45 212.898C359.148 212.204 358.671 211.605 358.07 211.163L358.07 211.163Z" fill="#333333"/>
<path d="M341.082 217.387C342.375 217.387 343.424 216.338 343.424 215.045C343.424 213.752 342.375 212.703 341.082 212.703C339.789 212.703 338.74 213.752 338.74 215.045C338.74 216.338 339.789 217.387 341.082 217.387Z" fill="#F1F1F1"/>
<path d="M347.719 217.387C348.797 217.387 349.671 216.338 349.671 215.045C349.671 213.752 348.797 212.703 347.719 212.703C346.641 212.703 345.768 213.752 345.768 215.045C345.768 216.338 346.641 217.387 347.719 217.387Z" fill="#F1F1F1"/>
<path d="M354.745 217.387C355.822 217.387 356.696 216.338 356.696 215.045C356.696 213.752 355.822 212.703 354.745 212.703C353.667 212.703 352.793 213.752 352.793 215.045C352.793 216.338 353.667 217.387 354.745 217.387Z" fill="#68CA84"/>
</g>
<defs>
<clipPath id="clip0_3872_23892">
<rect width="401" height="272" fill="white"/>
</clipPath>
</defs>
</svg>
