<svg width="416" height="272" viewBox="0 0 416 272" fill="none" xmlns="http://www.w3.org/2000/svg">
<g clip-path="url(#clip0_3819_23867)">
<path d="M337.209 22H38.4999C36.4343 21.9996 34.454 21.8666 32.9934 21.63C31.5328 21.3935 32.002 21.0728 31.9996 20.7383V1.26168C32.002 0.927185 31.993 0 31.993 0C31.993 0 35.4339 0.000388815 37.4996 0H337.209C339.274 0.000383203 341.255 0.133441 342.715 0.369969C344.176 0.606497 343.997 0.927184 344 1.26168V20.7383C343.997 21.0728 344.176 21.3935 342.715 21.63C341.255 21.8666 339.274 21.9996 337.209 22Z" fill="#E1E1E1"/>
<path d="M371.115 260.554L377.956 260.734C379.87 257.695 381.012 254.236 381.284 250.656C376.901 255.299 369.169 254.132 363.508 257.09C361.749 258.026 360.224 259.345 359.045 260.95C357.866 262.555 357.064 264.404 356.697 266.361L353.877 270.307C356.995 271.097 360.248 271.202 363.41 270.614C366.573 270.027 369.57 268.762 372.197 266.906C373.659 265.851 374.983 264.615 376.137 263.229C373.6 262.056 371.115 260.554 371.115 260.554Z" fill="#F2F2F2"/>
<path d="M367.349 250.149L373.552 247.262C373.908 243.69 373.386 240.084 372.031 236.759C370.181 242.867 362.74 245.268 358.993 250.438C357.837 252.059 357.061 253.92 356.722 255.881C356.383 257.843 356.491 259.856 357.036 261.77L356.273 266.559C359.417 265.876 362.375 264.521 364.943 262.586C367.512 260.652 369.63 258.184 371.152 255.353C371.99 253.756 372.624 252.06 373.038 250.305C370.243 250.386 367.349 250.149 367.349 250.149Z" fill="#F2F2F2"/>
<path d="M357.166 266.76H352.971L350.975 250.592H357.167L357.166 266.76Z" fill="#A0616A"/>
<path d="M357.056 265.39L352.579 263.573L352.447 263.519L349.975 265.39C348.618 265.389 347.314 265.913 346.334 266.85C345.354 267.787 344.774 269.066 344.716 270.42C344.709 270.495 344.709 270.573 344.709 270.65V270.823H358.238V265.39L357.056 265.39Z" fill="#2F2E41"/>
<path d="M349.177 258.398L345.561 260.524L335.633 247.601L340.97 244.464L349.177 258.398Z" fill="#A0616A"/>
<path d="M351.675 260.528L351.184 259.693L349.406 256.675L348.481 257.219L348.387 257.274L343.605 257.977L343.463 257.998L342.284 260.863C341.688 261.213 341.167 261.677 340.75 262.229C340.333 262.781 340.03 263.409 339.856 264.078C339.682 264.746 339.642 265.443 339.738 266.127C339.834 266.812 340.064 267.47 340.415 268.066L340.503 268.211L352.162 261.357L351.675 260.528Z" fill="#2F2E41"/>
<path d="M362.481 167.918C364.448 173.846 364.24 180.279 362.008 187.185L361.425 210.922L359.554 225.895C360.683 228.829 361.261 231.945 361.262 235.088C361.254 243.327 360.699 255.031 357.888 260.529H351.235L349.734 236.045L347.941 223.734L347.721 210.542L347.528 199.037L340.294 209.604L333.265 219.873L340.252 231.647L346.347 250.592L339.913 256.005L332.614 242.18L329.077 238.074L319.42 217.19L320.288 214.283C322.075 208.294 324.671 202.577 328.003 197.289L337.608 175.018L362.481 167.918Z" fill="#2F2E41"/>
<path d="M251.673 172.347H119.655C118.602 172.346 117.592 171.928 116.847 171.183C116.102 170.439 115.683 169.43 115.682 168.378V67.5607C115.683 66.5083 116.102 65.4993 116.847 64.7552C117.592 64.0111 118.602 63.5925 119.655 63.5913H251.673C252.727 63.5925 253.737 64.0111 254.482 64.7552C255.226 65.4993 255.645 66.5083 255.647 67.5607V168.378C255.645 169.43 255.226 170.439 254.482 171.183C253.737 171.928 252.727 172.346 251.673 172.347Z" fill="white"/>
<path d="M251.674 172.84H119.655C118.471 172.839 117.336 172.368 116.499 171.532C115.662 170.695 115.191 169.561 115.189 168.378V67.561C115.191 66.3782 115.662 65.2442 116.499 64.4078C117.336 63.5714 118.471 63.1009 119.655 63.0996H251.674C252.858 63.1009 253.993 63.5714 254.83 64.4078C255.667 65.2442 256.138 66.3782 256.14 67.561V168.378C256.138 169.561 255.667 170.695 254.83 171.532C253.993 172.368 252.858 172.839 251.674 172.84ZM119.655 64.0838C118.733 64.0848 117.848 64.4515 117.195 65.1034C116.543 65.7553 116.176 66.6391 116.175 67.561V168.378C116.176 169.3 116.543 170.184 117.195 170.836C117.848 171.488 118.733 171.855 119.655 171.856H251.674C252.596 171.855 253.481 171.488 254.134 170.836C254.786 170.184 255.153 169.3 255.154 168.378V67.561C255.153 66.6391 254.786 65.7553 254.134 65.1034C253.481 64.4515 252.596 64.0848 251.674 64.0838H119.655Z" fill="#F0F0F0"/>
<path d="M115.986 153.155V168.378C115.988 169.35 116.375 170.281 117.062 170.968C117.75 171.655 118.682 172.041 119.655 172.043H251.673C252.646 172.041 253.578 171.655 254.265 170.968C254.953 170.281 255.34 169.35 255.342 168.378V153.155H115.986Z" fill="#E1E1E1"/>
<path d="M117.23 64.2338L116.699 65.0625L255.076 153.57L255.607 152.741L117.23 64.2338Z" fill="#F0F0F0"/>
<path d="M343.758 21.9876H32.2842C32.1535 21.9847 32.029 21.9308 31.9376 21.8374C31.8461 21.744 31.7949 21.6186 31.7949 21.4879C31.7949 21.3573 31.8461 21.2318 31.9376 21.1384C32.029 21.0451 32.1535 20.9912 32.2842 20.9883H343.758C343.889 20.9912 344.014 21.0451 344.105 21.1384C344.197 21.2318 344.248 21.3573 344.248 21.4879C344.248 21.6186 344.197 21.744 344.105 21.8374C344.014 21.9308 343.889 21.9847 343.758 21.9876Z" fill="#CACACA"/>
<path d="M43.2957 14.9925C46.268 14.9925 48.6774 12.5318 48.6774 9.49627C48.6774 6.46076 46.268 4 43.2957 4C40.3235 4 37.9141 6.46076 37.9141 9.49627C37.9141 12.5318 40.3235 14.9925 43.2957 14.9925Z" fill="#3F3D56"/>
<path d="M61.8856 14.9925C64.8578 14.9925 67.2673 12.5318 67.2673 9.49627C67.2673 6.46076 64.8578 4 61.8856 4C58.9134 4 56.5039 6.46076 56.5039 9.49627C56.5039 12.5318 58.9134 14.9925 61.8856 14.9925Z" fill="#3F3D56"/>
<path d="M80.4774 14.9925C83.4496 14.9925 85.8591 12.5318 85.8591 9.49627C85.8591 6.46076 83.4496 4 80.4774 4C77.5052 4 75.0957 6.46076 75.0957 9.49627C75.0957 12.5318 77.5052 14.9925 80.4774 14.9925Z" fill="#3F3D56"/>
<path d="M332.616 5.3623H319.41C319.148 5.3675 318.899 5.47503 318.716 5.66181C318.532 5.84859 318.43 6.09972 318.43 6.36128C318.43 6.62285 318.532 6.87398 318.716 7.06076C318.899 7.24754 319.148 7.35507 319.41 7.36027H332.616C332.878 7.35507 333.127 7.24754 333.311 7.06076C333.494 6.87398 333.596 6.62285 333.596 6.36128C333.596 6.09972 333.494 5.84859 333.311 5.66181C333.127 5.47503 332.878 5.3675 332.616 5.3623Z" fill="#3F3D56"/>
<path d="M332.616 9.1123H319.41C319.148 9.1175 318.899 9.22503 318.716 9.41181C318.532 9.59859 318.43 9.84972 318.43 10.1113C318.43 10.3728 318.532 10.624 318.716 10.8108C318.899 10.9975 319.148 11.1051 319.41 11.1103H332.616C332.878 11.1051 333.127 10.9975 333.311 10.8108C333.494 10.624 333.596 10.3728 333.596 10.1113C333.596 9.84972 333.494 9.59859 333.311 9.41181C333.127 9.22503 332.878 9.1175 332.616 9.1123Z" fill="#3F3D56"/>
<path d="M332.616 12.8569H319.41C319.148 12.8621 318.899 12.9697 318.716 13.1564C318.532 13.3432 318.43 13.5943 318.43 13.8559C318.43 14.1175 318.532 14.3686 318.716 14.5554C318.899 14.7422 319.148 14.8497 319.41 14.8549H332.616C332.878 14.8497 333.127 14.7422 333.311 14.5554C333.494 14.3686 333.596 14.1175 333.596 13.8559C333.596 13.5943 333.494 13.3432 333.311 13.1564C333.127 12.9697 332.878 12.8621 332.616 12.8569Z" fill="#3F3D56"/>
<path d="M296.422 139.471C296.71 139.85 297.078 140.161 297.5 140.383C297.922 140.604 298.387 140.731 298.863 140.753C299.339 140.776 299.814 140.694 300.255 140.513C300.696 140.332 301.092 140.057 301.414 139.706L312.037 144.322L311.003 138.398L301.074 134.923C300.449 134.42 299.661 134.164 298.859 134.202C298.058 134.241 297.299 134.572 296.725 135.133C296.152 135.693 295.804 136.445 295.748 137.244C295.692 138.044 295.932 138.836 296.422 139.471V139.471Z" fill="#A0616A"/>
<path d="M306.086 136.124L326.379 138.752L347.307 126.157C348.426 125.484 349.675 125.055 350.973 124.898C352.27 124.742 353.585 124.862 354.833 125.25C356.08 125.638 357.231 126.286 358.21 127.151C359.189 128.015 359.973 129.077 360.512 130.267C361.483 132.419 361.594 134.861 360.821 137.093C360.049 139.324 358.452 141.177 356.358 142.27L328.236 152.282L328.183 152.301L303.51 141.321L306.086 136.124Z" fill="#F1563C"/>
<path d="M335.721 171.502L337.408 167.289L336.292 163.667L339.597 127.566L340.086 122.094L340.119 118.016L351.421 117.74L352.647 120.85L355.073 122.299C357.717 123.883 359.898 126.136 361.394 128.829C362.891 131.523 363.651 134.563 363.598 137.643L363.16 161.324L364.288 163.578C364.594 164.19 364.765 164.861 364.787 165.545C364.809 166.229 364.683 166.909 364.418 167.54C364.152 168.171 363.752 168.736 363.247 169.198C362.742 169.66 362.142 170.008 361.49 170.216L336.642 177.761L335.721 171.502Z" fill="#F1563C"/>
<path d="M344.737 113.873C350.409 113.873 355.007 109.28 355.007 103.613C355.007 97.947 350.409 93.3535 344.737 93.3535C339.065 93.3535 334.467 97.947 334.467 103.613C334.467 109.28 339.065 113.873 344.737 113.873Z" fill="#A0616A"/>
<path d="M355.431 105.85C355.737 104.561 355.596 102.747 355.423 101.449C355.201 99.7371 354.622 98.0911 353.723 96.6174C352.824 95.1437 351.625 93.8751 350.204 92.894C349.659 92.4805 349.011 92.2234 348.331 92.1504C347.991 92.1218 347.65 92.2014 347.358 92.3779C347.066 92.5544 346.838 92.8186 346.705 93.1328C346.534 92.7057 346.277 92.3182 345.95 91.9943C345.623 91.6703 345.233 91.4167 344.804 91.2492C343.942 90.9194 343.015 90.7947 342.097 90.8849C340.317 91.0315 338.611 91.6567 337.158 92.6942C335.705 93.7318 334.56 95.1429 333.846 96.7778C333.571 97.4288 332.805 95.0242 332.457 95.6393C332.138 96.2787 331.581 96.7677 330.905 97.0019C330.224 97.1917 329.948 99.9948 329.68 99.3412C329.472 99.8242 329.389 100.352 329.441 100.875C329.492 101.399 329.675 101.901 329.972 102.334C330.27 102.768 330.673 103.119 331.143 103.356C331.613 103.592 332.135 103.706 332.661 103.686C333.349 103.597 334.03 103.467 334.702 103.296C335.936 103.14 337.183 103.442 338.21 104.143C339.236 104.843 339.97 105.895 340.273 107.1C340.46 106.4 340.76 105.734 341.16 105.129C341.363 104.828 341.635 104.58 341.953 104.405C342.271 104.23 342.627 104.134 342.99 104.124C343.337 104.164 343.673 104.274 343.975 104.448C344.278 104.622 344.542 104.856 344.752 105.136C345.204 105.666 345.543 106.285 345.999 106.812C347.335 108.36 349.143 111.97 351.047 111.706C352.55 111.499 355.012 107.61 355.431 105.85Z" fill="#2F2E41"/>
<path d="M374.901 190.112C375.166 189.716 375.341 189.267 375.414 188.797C375.487 188.326 375.456 187.845 375.322 187.388C375.189 186.931 374.957 186.509 374.643 186.151C374.329 185.793 373.94 185.508 373.503 185.317L374.427 173.781L369.153 176.681L369.085 187.191C368.811 187.945 368.824 188.772 369.121 189.517C369.418 190.262 369.977 190.872 370.694 191.232C371.411 191.592 372.235 191.677 373.011 191.47C373.786 191.264 374.458 190.78 374.901 190.112Z" fill="#A0616A"/>
<path d="M368.597 182.064L364.5 162.035L345.785 146.345C344.784 145.506 343.973 144.465 343.404 143.29C342.835 142.115 342.521 140.832 342.484 139.528C342.447 138.223 342.687 136.925 343.188 135.72C343.689 134.514 344.44 133.428 345.391 132.534C347.114 130.917 349.391 130.02 351.754 130.026C354.117 130.032 356.389 130.94 358.105 132.564L376.708 155.89L376.743 155.934L374.353 182.812L368.597 182.064Z" fill="#F1563C"/>
<path d="M415.413 272H243.998C243.921 272 243.845 271.985 243.773 271.956C243.702 271.927 243.637 271.883 243.583 271.829C243.528 271.775 243.485 271.71 243.455 271.639C243.425 271.567 243.41 271.491 243.41 271.414C243.41 271.337 243.425 271.261 243.455 271.189C243.485 271.118 243.528 271.054 243.583 270.999C243.637 270.945 243.702 270.902 243.773 270.872C243.845 270.843 243.921 270.828 243.998 270.828H415.413C415.49 270.828 415.566 270.843 415.638 270.872C415.709 270.902 415.774 270.945 415.829 270.999C415.883 271.054 415.927 271.118 415.956 271.189C415.986 271.261 416.001 271.337 416.001 271.414C416.001 271.491 415.986 271.567 415.956 271.639C415.927 271.71 415.883 271.775 415.829 271.829C415.774 271.883 415.709 271.927 415.638 271.956C415.566 271.985 415.49 272 415.413 272Z" fill="#CCCCCC"/>
<path d="M304.634 176.707H226.737C226.194 176.706 225.674 176.49 225.29 176.107C224.906 175.723 224.69 175.203 224.689 174.661V143.084C224.69 142.542 224.906 142.022 225.29 141.639C225.674 141.255 226.194 141.039 226.737 141.039H304.634C305.177 141.039 305.698 141.255 306.082 141.639C306.465 142.022 306.681 142.542 306.682 143.084V174.661C306.681 175.203 306.465 175.723 306.082 176.107C305.698 176.49 305.177 176.706 304.634 176.707Z" fill="#3F3D56"/>
<path d="M188 183C192.971 183 197 178.971 197 174C197 169.029 192.971 165 188 165C183.029 165 179 169.029 179 174C179 178.971 183.029 183 188 183Z" fill="#3F3D56"/>
<path opacity="0.1" d="M187.999 181.773C192.292 181.773 195.772 178.293 195.772 174C195.772 169.707 192.292 166.227 187.999 166.227C183.707 166.227 180.227 169.707 180.227 174C180.227 178.293 183.707 181.773 187.999 181.773Z" fill="black"/>
<path d="M187.702 178.5V177.393C187.195 177.382 186.67 177.185 186.363 176.91L186.573 176.176C186.937 176.477 187.379 176.642 187.833 176.647C188.455 176.647 188.875 176.198 188.875 175.573C188.875 174.97 188.533 174.597 187.886 174.269C186.993 173.83 186.442 173.326 186.442 172.372C186.442 171.462 186.958 170.772 187.763 170.607V169.5H188.306V170.563C188.71 170.569 189.105 170.703 189.443 170.947L189.225 171.671C188.9 171.426 188.515 171.295 188.122 171.298C187.448 171.298 187.195 171.802 187.195 172.241C187.195 172.811 187.518 173.096 188.28 173.49C189.181 173.951 189.636 174.521 189.636 175.496C189.636 176.362 189.155 177.174 188.253 177.36V178.5H187.702Z" fill="#F1563C"/>
<path d="M147 162C155.284 162 162 155.284 162 147C162 138.716 155.284 132 147 132C138.716 132 132 138.716 132 147C132 155.284 138.716 162 147 162Z" fill="#3F3D56"/>
<path opacity="0.1" d="M146.999 159.955C154.154 159.955 159.954 154.155 159.954 147C159.954 139.845 154.154 134.045 146.999 134.045C139.845 134.045 134.045 139.845 134.045 147C134.045 154.155 139.845 159.955 146.999 159.955Z" fill="black"/>
<path d="M146.505 154.5V152.655C145.659 152.636 144.784 152.308 144.273 151.851L144.623 150.627C145.23 151.128 145.966 151.403 146.724 151.412C147.759 151.412 148.459 150.663 148.459 149.622C148.459 148.617 147.89 147.996 146.811 147.448C145.323 146.717 144.405 145.876 144.405 144.287C144.405 142.77 145.265 141.619 146.607 141.345V139.5H147.511V141.272C148.185 141.282 148.843 141.504 149.407 141.912L149.042 143.118C148.501 142.709 147.86 142.492 147.205 142.496C146.082 142.496 145.659 143.337 145.659 144.068C145.659 145.018 146.199 145.493 147.467 146.15C148.97 146.918 149.728 147.868 149.728 149.494C149.728 150.937 148.926 152.289 147.424 152.6V154.5H146.505Z" fill="#F1563C"/>
<path d="M297.217 191.854H234.154C233.831 191.855 233.511 191.791 233.213 191.668C232.914 191.545 232.643 191.364 232.414 191.136C232.186 190.908 232.004 190.638 231.881 190.34C231.757 190.042 231.693 189.722 231.693 189.4C231.693 189.077 231.757 188.757 231.881 188.459C232.004 188.161 232.186 187.891 232.414 187.663C232.643 187.435 232.914 187.254 233.213 187.131C233.511 187.008 233.831 186.944 234.154 186.945H297.217C300.385 186.901 300.417 191.899 297.217 191.854Z" fill="#F1563C"/>
<path d="M297.217 203.104H234.154C233.503 203.104 232.878 202.846 232.417 202.385C231.956 201.925 231.697 201.301 231.697 200.65C231.697 199.999 231.956 199.374 232.417 198.914C232.878 198.454 233.503 198.195 234.154 198.195H297.217C300.386 198.151 300.417 203.149 297.217 203.104Z" fill="#F1563C"/>
<path d="M297.217 214.355H234.154C233.831 214.355 233.511 214.292 233.213 214.169C232.914 214.046 232.643 213.865 232.414 213.637C232.186 213.409 232.004 213.138 231.881 212.84C231.757 212.542 231.693 212.223 231.693 211.9C231.693 211.578 231.757 211.258 231.881 210.96C232.004 210.662 232.186 210.391 232.414 210.163C232.643 209.935 232.914 209.755 233.213 209.631C233.511 209.508 233.831 209.445 234.154 209.446H297.217C300.385 209.401 300.417 214.399 297.217 214.355Z" fill="#F1563C"/>
<path d="M102.902 232.531L109.424 230.464C110.237 226.966 110.183 223.324 109.267 219.852C106.647 225.673 98.9586 227.099 94.5781 231.745C93.223 233.205 92.214 234.95 91.626 236.852C91.0379 238.754 90.8858 240.764 91.1809 242.733L89.8086 247.384C93.0137 247.11 96.1213 246.145 98.9173 244.557C101.713 242.968 104.131 240.792 106.005 238.18C107.041 236.704 107.887 235.103 108.523 233.416C105.742 233.138 102.902 232.531 102.902 232.531Z" fill="#F2F2F2"/>
<path d="M95.9302 223.931L100.846 219.175C100.012 215.682 98.3374 212.446 95.9677 209.747C96.2208 216.124 89.9763 220.826 88.1296 226.936C87.5683 228.846 87.4444 230.858 87.7671 232.823C88.0899 234.787 88.851 236.654 89.994 238.284L90.8419 243.058C93.5884 241.386 95.9393 239.138 97.7326 236.47C99.5258 233.802 100.719 230.777 101.229 227.604C101.498 225.821 101.541 224.012 101.357 222.218C98.7432 223.209 95.9302 223.931 95.9302 223.931Z" fill="#F2F2F2"/>
<path d="M109.072 135.377C108.535 135.449 107.989 135.402 107.472 135.24C106.955 135.078 106.479 134.805 106.08 134.44C105.68 134.075 105.365 133.627 105.157 133.127C104.949 132.627 104.854 132.088 104.877 131.547L81.1855 107.532L87.7993 102.932L109.008 127.985C109.914 128.084 110.753 128.512 111.365 129.188C111.976 129.864 112.318 130.741 112.326 131.652C112.334 132.563 112.007 133.446 111.407 134.132C110.807 134.819 109.976 135.261 109.072 135.377Z" fill="#FFB6B6"/>
<path d="M73.8967 97.1442C73.8967 97.1442 72.2176 98.1497 75.0123 101.211C77.2497 103.662 87.0131 115.447 90.9103 117.908C90.4853 119.134 101.265 130.871 102.399 131.619L108.39 124.149C108.048 122.008 96.2584 111.783 95.4464 112.043L91.6872 107.374L83.1696 93.1016L75.0975 96.3959L73.8967 97.1442Z" fill="#F1563C"/>
<path d="M55.186 240.238H59.6523L61.7778 223.027H55.1855L55.186 240.238Z" fill="#FFB6B6"/>
<path d="M53.7299 237.182L60.8656 236.756V239.81L67.6498 244.491C67.9849 244.722 68.2373 245.055 68.3701 245.439C68.5029 245.824 68.5091 246.241 68.3879 246.629C68.2667 247.017 68.0245 247.357 67.6964 247.598C67.3684 247.839 66.9719 247.969 66.5646 247.969H58.0692L56.6049 244.948L56.0332 247.969H52.8301L53.7299 237.182Z" fill="#2F2E41"/>
<path d="M80.2754 240.238H84.7417L86.8672 223.027H80.2754V240.238Z" fill="#FFB6B6"/>
<path d="M78.8177 237.182L85.9535 236.756V239.81L92.7377 244.491C93.0728 244.722 93.3251 245.055 93.4579 245.439C93.5907 245.824 93.597 246.241 93.4758 246.629C93.3546 247.017 93.1123 247.357 92.7843 247.598C92.4563 247.839 92.0597 247.969 91.6525 247.969H83.1571L81.6928 244.948L81.1211 247.969H77.918L78.8177 237.182Z" fill="#2F2E41"/>
<path d="M53.26 225.396H53.3086L54.1675 197.411C53.6117 196.34 53.3295 195.148 53.3463 193.941C53.3631 192.735 53.6782 191.551 54.2637 190.496L54.3866 190.273L54.0678 188.797C53.6582 186.9 53.8462 184.922 54.6058 183.136L55.4072 157.031C52.5442 138.495 66.1881 126.407 66.1881 126.407L63.6948 115.928L88.3791 113.503L86.6268 126.407L91.0147 141.468C93.9155 169.702 93.3892 197.216 88.786 223.872L88.9115 223.935C89.3634 224.091 89.5572 224.716 89.3445 225.332C89.1318 225.947 88.5931 226.32 88.1412 226.164L77.3472 225.789C76.8953 225.633 76.7015 225.008 76.9142 224.392C77.1269 223.777 77.6657 223.404 78.1175 223.56L78.8515 223.931L77.2863 196.926L77.46 191.994L77.1021 186.398L75.4476 161.228L69.185 192.18L62.7881 225.707C62.9645 225.867 63.0883 226.076 63.1432 226.307C63.1981 226.539 63.1815 226.781 63.0955 227.003C63.0096 227.225 62.8583 227.415 62.6618 227.549C62.4652 227.684 62.2326 227.755 61.9946 227.754H53.26C52.9474 227.754 52.6478 227.629 52.4269 227.408C52.2061 227.187 52.082 226.887 52.082 226.575C52.082 226.263 52.2061 225.963 52.4269 225.742C52.6478 225.521 52.9474 225.396 53.26 225.396L53.26 225.396Z" fill="#2F2E41"/>
<path d="M83.5702 89.5678L78.7158 86.6579L69.007 85.688L60.4258 90.0535L60.5118 103.389L65.9556 117.221L87.1639 121.588L89.6383 109.432C89.6383 109.432 95.949 100.965 89.1528 96.1149L83.5702 89.5678Z" fill="#F1563C"/>
<path d="M62.792 147.148C62.3307 146.864 61.9373 146.482 61.6395 146.03C61.3418 145.578 61.1469 145.066 61.0685 144.531C60.9902 143.995 61.0303 143.449 61.1861 142.931C61.3419 142.412 61.6096 141.935 61.9703 141.531L58.8398 107.958L66.8746 108.577L67.4252 141.384C68.0641 142.034 68.4421 142.896 68.4874 143.806C68.5327 144.716 68.2423 145.611 67.6712 146.322C67.1001 147.032 66.2879 147.509 65.3887 147.661C64.4894 147.813 63.5655 147.631 62.792 147.148Z" fill="#FFB6B6"/>
<path d="M60.7244 90.1872C60.7244 90.1872 58.7874 89.9041 59.0118 94.0416C59.1914 97.354 58.3377 117.771 59.7965 122.14C58.6908 122.82 58.6319 139.437 59.0354 140.733L68.4067 138.738C69.4984 136.863 68.7796 119.683 67.9862 119.371L68.0328 113.38L70.1039 93.6311L62.1282 90.367L60.7244 90.1872Z" fill="#F1563C"/>
<path d="M108.619 150.254C108.368 149.948 108.189 149.59 108.094 149.206C107.999 148.822 107.99 148.422 108.069 148.034C108.996 143.426 108.996 138.68 108.069 134.071C107.99 133.684 107.999 133.284 108.094 132.9C108.189 132.516 108.368 132.158 108.619 131.852C108.86 131.558 109.162 131.32 109.505 131.155C109.847 130.99 110.222 130.902 110.602 130.897C114.685 129.271 118.594 129.271 122.225 130.897C122.852 130.908 123.454 131.142 123.924 131.557C124.394 131.971 124.7 132.54 124.788 133.16C125.501 138.398 125.501 143.708 124.788 148.946C124.699 149.573 124.387 150.148 123.907 150.564C123.428 150.98 122.815 151.209 122.18 151.209H110.642C110.255 151.21 109.873 151.125 109.523 150.96C109.173 150.794 108.864 150.553 108.619 150.254Z" fill="#F1563C"/>
<path d="M111.851 136.915H121.563C121.724 136.914 121.878 136.85 121.991 136.737C122.105 136.623 122.168 136.469 122.168 136.309C122.168 136.148 122.105 135.994 121.991 135.88C121.878 135.767 121.724 135.703 121.563 135.702H111.851C111.69 135.702 111.536 135.766 111.422 135.88C111.308 135.993 111.244 136.148 111.244 136.309C111.244 136.469 111.308 136.624 111.422 136.737C111.536 136.851 111.69 136.915 111.851 136.915Z" fill="white"/>
<path d="M111.849 141.766H121.561C121.722 141.766 121.876 141.702 121.989 141.588C122.103 141.474 122.167 141.32 122.167 141.16C122.167 140.999 122.103 140.845 121.989 140.732C121.876 140.618 121.722 140.554 121.561 140.553H111.849C111.689 140.554 111.535 140.618 111.421 140.732C111.308 140.845 111.244 140.999 111.244 141.16C111.244 141.32 111.308 141.474 111.421 141.588C111.535 141.702 111.689 141.766 111.849 141.766Z" fill="white"/>
<path d="M111.851 146.618H121.563C121.724 146.618 121.878 146.554 121.992 146.44C122.106 146.326 122.17 146.172 122.17 146.011C122.17 145.85 122.106 145.696 121.992 145.582C121.878 145.469 121.724 145.405 121.563 145.405H111.851C111.69 145.405 111.536 145.469 111.422 145.582C111.308 145.696 111.244 145.85 111.244 146.011C111.244 146.172 111.308 146.326 111.422 146.44C111.536 146.554 111.69 146.618 111.851 146.618Z" fill="white"/>
<path d="M139.24 247.793C139.24 247.87 139.225 247.946 139.195 248.017C139.166 248.089 139.123 248.153 139.068 248.208C139.014 248.262 138.949 248.305 138.878 248.335C138.807 248.364 138.73 248.379 138.653 248.379H0.58618C0.430716 248.379 0.281617 248.317 0.171687 248.207C0.0617571 248.097 0 247.948 0 247.793C0 247.638 0.0617571 247.489 0.171687 247.379C0.281617 247.269 0.430716 247.208 0.58618 247.208H138.653C138.73 247.207 138.807 247.222 138.878 247.252C138.949 247.281 139.014 247.324 139.068 247.379C139.123 247.433 139.166 247.498 139.195 247.569C139.225 247.64 139.24 247.716 139.24 247.793Z" fill="#CCCCCC"/>
<path d="M82.9605 80.7303V71.6945C82.9626 70.1038 82.6509 68.5284 82.0432 67.0581C81.4355 65.5879 80.5438 64.2516 79.419 63.1258C78.2943 61.9999 76.9584 61.1065 75.4879 60.4966C74.0174 59.8867 72.441 59.5723 70.8488 59.5713C69.2566 59.5703 67.6798 59.8827 66.2085 60.4907C64.7372 61.0987 63.4002 61.9904 62.274 63.1148C61.1478 64.2392 60.2543 65.5743 59.6448 67.0438C59.0352 68.5132 58.7215 70.0883 58.7215 71.679V71.6945C56.5854 76.1414 57.9217 78.2556 58.7215 80.7303C58.7222 81.1612 58.8938 81.5743 59.1989 81.879C59.5039 82.1838 59.9174 82.3553 60.3487 82.356H81.3325C81.764 82.3555 82.1777 82.1841 82.4828 81.8793C82.788 81.5746 82.9598 81.1614 82.9605 80.7303Z" fill="#2F2E41"/>
<path d="M74.8161 81.7688C79.8263 81.7688 83.888 77.7111 83.888 72.7057C83.888 67.7003 79.8263 63.6426 74.8161 63.6426C69.8058 63.6426 65.7441 67.7003 65.7441 72.7057C65.7441 77.7111 69.8058 81.7688 74.8161 81.7688Z" fill="#FFB7B7"/>
<path d="M65.3209 75.0815C65.4031 75.0686 65.4854 75.0513 65.5676 75.0383C66.9827 74.7875 68.3977 74.5411 69.8085 74.286L69.9383 71.0912L71.6477 73.9531C75.5467 75.2458 79.1948 74.5152 82.6265 72.9026C83.7584 72.3658 84.8567 71.7608 85.9153 71.0912C85.6271 69.3242 84.947 67.6439 83.925 66.1733C82.903 64.7027 81.5648 63.479 80.0083 62.5916C79.8785 62.5181 79.753 62.4533 79.6232 62.3884C79.6226 62.3884 79.622 62.3883 79.6215 62.3881C79.621 62.3879 79.6205 62.3876 79.6201 62.3872C79.6197 62.3867 79.6194 62.3863 79.6192 62.3857C79.619 62.3852 79.6189 62.3846 79.6189 62.3841C79.3982 62.2803 79.1731 62.1809 78.9481 62.0901C77.1864 61.4023 75.2654 61.2281 73.4085 61.5878C71.5517 61.9475 69.8351 62.8263 68.4583 64.122C65.6888 66.7636 64.4425 71.1258 65.3209 75.0815Z" fill="#2F2E41"/>
<path d="M228.763 94H221.237C220.909 93.9996 220.595 93.8622 220.363 93.6179C220.131 93.3737 220 93.0425 220 92.697V81.303C220 80.9575 220.131 80.6263 220.363 80.3821C220.595 80.1378 220.909 80.0004 221.237 80H228.763C229.091 80.0004 229.405 80.1378 229.637 80.3821C229.869 80.6263 230 80.9575 230 81.303V92.697C230 93.0425 229.869 93.3737 229.637 93.6179C229.405 93.8622 229.091 93.9996 228.763 94ZM221.237 80.6244C221.066 80.6247 220.903 80.6962 220.782 80.8234C220.661 80.9506 220.593 81.1231 220.593 81.303V92.697C220.593 92.8769 220.661 93.0494 220.782 93.1766C220.903 93.3038 221.066 93.3753 221.237 93.3756H228.763C228.934 93.3753 229.097 93.3038 229.218 93.1766C229.339 93.0494 229.407 92.8769 229.407 92.697V81.303C229.407 81.1231 229.339 80.9506 229.218 80.8234C229.097 80.6962 228.934 80.6247 228.763 80.6244H221.237Z" fill="#3F3D56"/>
<path d="M243.238 94H235.762C235.295 93.9995 234.847 93.8242 234.517 93.5125C234.186 93.2008 234.001 92.7782 234 92.3374V69.6626C234.001 69.2218 234.186 68.7992 234.517 68.4875C234.847 68.1758 235.295 68.0005 235.762 68H243.238C243.705 68.0005 244.153 68.1758 244.483 68.4875C244.814 68.7992 244.999 69.2218 245 69.6626V92.3374C244.999 92.7782 244.814 93.2008 244.483 93.5125C244.153 93.8242 243.705 93.9995 243.238 94ZM235.762 68.6153C235.468 68.6156 235.186 68.7261 234.978 68.9224C234.77 69.1187 234.652 69.3849 234.652 69.6626V92.3374C234.652 92.6151 234.77 92.8813 234.978 93.0776C235.186 93.2739 235.468 93.3844 235.762 93.3847H243.238C243.532 93.3844 243.814 93.2739 244.022 93.0776C244.23 92.8813 244.348 92.6151 244.348 92.3374V69.6626C244.348 69.3849 244.23 69.1187 244.022 68.9224C243.814 68.7261 243.532 68.6156 243.238 68.6153L235.762 68.6153Z" fill="#3F3D56"/>
<path d="M257.136 94H250.864C250.37 93.9994 249.896 93.7966 249.547 93.4361C249.197 93.0756 249.001 92.5868 249 92.0769V58.9231C249.001 58.4132 249.197 57.9244 249.547 57.5639C249.896 57.2034 250.37 57.0006 250.864 57H257.136C257.63 57.0006 258.104 57.2034 258.453 57.5639C258.803 57.9244 258.999 58.4132 259 58.9231V92.0769C258.999 92.5868 258.803 93.0756 258.453 93.4361C258.104 93.7966 257.63 93.9994 257.136 94ZM250.864 57.6116C250.527 57.612 250.204 57.7503 249.966 57.9961C249.727 58.242 249.593 58.5754 249.593 58.9231V92.0769C249.593 92.4246 249.727 92.758 249.966 93.0039C250.204 93.2497 250.527 93.388 250.864 93.3884H257.136C257.473 93.388 257.796 93.2497 258.034 93.0039C258.273 92.758 258.407 92.4246 258.407 92.0769V58.9231C258.407 58.5754 258.273 58.242 258.034 57.9961C257.796 57.7503 257.473 57.612 257.136 57.6116H250.864Z" fill="#3F3D56"/>
<path d="M228 82H222V92H228V82Z" fill="#F1563C"/>
<path d="M242 71H237V92H242V71Z" fill="#F1563C"/>
<path d="M257 59H251V92H257V59Z" fill="#F1563C"/>
<path d="M262.7 98H215.3C215.261 98 215.222 97.9922 215.185 97.977C215.149 97.9619 215.116 97.9396 215.088 97.9116C215.06 97.8836 215.038 97.8503 215.023 97.8137C215.008 97.777 215 97.7378 215 97.6981V50.3019C215 50.2218 215.032 50.145 215.088 50.0884C215.144 50.0318 215.22 50 215.3 50C215.38 50 215.456 50.0318 215.512 50.0884C215.568 50.145 215.6 50.2218 215.6 50.3019V97.3962H262.7C262.78 97.3962 262.856 97.428 262.912 97.4847C262.968 97.5413 263 97.618 263 97.6981C263 97.7782 262.968 97.855 262.912 97.9116C262.856 97.9682 262.78 98 262.7 98Z" fill="#3F3D56"/>
</g>
<defs>
<clipPath id="clip0_3819_23867">
<rect width="416" height="272" fill="white"/>
</clipPath>
</defs>
</svg>
