<svg width="304" height="250" viewBox="0 0 304 250" fill="none" xmlns="http://www.w3.org/2000/svg">
<path d="M69.6934 50.5496L70.9875 157.68L126.907 185.012L125.613 77.882L69.6934 50.5496Z" fill="#F2F2F2"/>
<path d="M52.7023 41.9919L10.918 128.066L67.6133 155.778L66.3192 48.6477L52.7023 41.9919Z" fill="#F2F2F2"/>
<path d="M304 162.912L191.146 107.751L192.441 214.881L262.216 248.986L304 162.912Z" fill="#F2F2F2"/>
<path d="M130.668 77.8823L131.962 185.013L187.881 212.345L186.587 105.214L130.668 77.8823Z" fill="#F2F2F2"/>
<path d="M256.885 82.4455L249.863 82.7188L250.213 91.7782L257.235 91.5049L256.885 82.4455Z" fill="#F1563C"/>
<path d="M225.207 114.174C225.207 114.174 215.483 109.512 215.639 113.538C215.794 117.564 225.441 120.213 225.441 120.213L225.207 114.174Z" fill="#FFB9B9"/>
<path d="M230.541 148.242C230.541 148.242 225.953 159.509 224.258 167.64C222.563 175.771 219.981 186.961 223.302 194.897C226.623 202.832 236.064 226.156 236.161 228.672C236.258 231.189 235.352 233.744 237.359 233.666C239.365 233.588 250.283 230.139 250.726 228.609C251.169 227.08 247.001 223.21 247.001 223.21L236.709 190.847L247.447 169.762L255.193 201.217L256.71 240.474C256.71 240.474 264.156 238.168 265.237 240.142C265.237 240.142 268.573 235.476 268.997 233.443C269.421 231.41 267.421 192.676 267.421 192.676C267.421 192.676 274.256 148.557 268.739 148.772C263.221 148.986 241.611 135.714 230.541 148.242Z" fill="#2F2E41"/>
<path d="M237.283 231.653C237.283 231.653 232.193 242.94 231.711 243.463C231.229 243.986 227.912 249.156 230.42 249.058C232.928 248.96 238.85 246.21 243.208 242.008C247.567 237.806 253.314 230.525 252.793 230.041C252.271 229.558 248.702 228.184 248.702 228.184L237.283 231.653Z" fill="#2F2E41"/>
<path d="M257.617 237.918C257.617 237.918 257.31 242.971 256.385 245.023C255.459 247.075 255.576 250.095 258.084 249.998C260.592 249.9 267.074 248.64 267.074 248.64C267.074 248.64 267.458 245.6 266.937 245.117C266.416 244.633 264.196 239.174 265.141 237.626C266.086 236.077 257.617 237.918 257.617 237.918Z" fill="#2F2E41"/>
<path d="M261.329 73.9556C261.329 73.9556 266.675 82.3165 268.759 84.2516C270.844 86.1867 264.98 90.4473 264.98 90.4473L254.486 91.8638C254.486 91.8638 254.618 82.2816 254.078 81.2945C253.537 80.3074 261.329 73.9556 261.329 73.9556Z" fill="#FFB9B9"/>
<path d="M252.207 84.8956C252.207 84.8956 254.369 88.844 256.375 88.7659C258.382 88.6878 268.759 84.2516 269.202 82.7221C269.646 81.1927 272.64 93.6776 272.64 93.6776L247.247 138.519L241.053 134.223L244.054 107.895L246.519 93.6859L252.207 84.8956Z" fill="#F1563C"/>
<path d="M270.138 125.027C269.125 127.153 268.492 129.37 268.58 131.64C268.584 131.741 268.588 131.841 268.596 131.942C268.837 136.6 270.547 141.987 271.16 145.905C271.606 148.716 271.479 150.767 269.84 151.249C265.866 152.412 270.419 153.243 255.045 158.378C239.672 163.512 236.989 159.08 236.95 158.074C236.911 157.067 239.127 149.42 238.606 148.936C238.085 148.452 231.316 155.269 229.271 154.34C227.225 153.412 229.037 148.3 229.037 148.3C229.037 148.3 233.645 137.536 233.547 135.019C233.45 132.503 240.526 120.634 240.526 120.634L245.339 89.1955C245.339 89.1955 247.19 85.091 249.678 84.4902C252.167 83.8893 254.232 85.3211 254.232 85.3211L250.067 94.5562L245.674 110.857L246.409 116.877C246.409 116.877 251.518 106.093 254.873 101.93C258.229 97.767 265.383 87.9115 265.383 87.9115C265.383 87.9115 267.053 82.2565 265.792 80.5666C264.531 78.8717 271.052 78.6179 273.832 85.5665C275.305 89.2493 277.698 94.7412 279.196 99.8545C280.532 104.384 281.163 108.619 279.84 111.04C277.817 114.737 272.731 119.598 270.138 125.027Z" fill="#575A89"/>
<path opacity="0.1" d="M279.84 111.04C277.818 114.737 272.732 119.598 270.138 125.027C269.461 122.578 268.635 120.045 268.635 120.045C268.635 120.045 265.466 103.03 274.84 98.6328C276.393 98.4821 277.947 98.9176 279.197 99.8544C280.533 104.384 281.164 108.619 279.84 111.04Z" fill="black"/>
<path d="M242.627 109.967L234.68 112.293L223.645 112.722L222.51 122.343L240.644 123.654C240.644 123.654 245.174 110.876 242.627 109.967Z" fill="#575A89"/>
<path d="M255.587 142.317C255.587 142.317 244.955 144.087 247.382 147.298C249.808 150.508 259.227 147.133 259.227 147.133L255.587 142.317Z" fill="#FFB9B9"/>
<path opacity="0.1" d="M268.598 131.942C268.839 136.6 270.549 141.987 271.162 145.905C267.775 149.122 264.554 151.959 263.341 152.006C260.833 152.104 256.801 151.756 255.315 152.318C253.83 152.88 252.959 143.337 252.959 143.337C252.959 143.337 253.845 140.278 257.8 138.612C260.469 137.485 265.585 134.428 268.598 131.942Z" fill="black"/>
<path d="M274.722 95.613C274.722 95.613 283.21 94.2747 282.751 108.406C282.293 122.538 283.646 131.558 280.232 134.211C276.818 136.864 265.729 148.889 263.221 148.986C260.714 149.084 256.682 148.737 255.196 149.299C253.711 149.861 252.84 140.317 252.84 140.317C252.84 140.317 253.726 137.259 257.681 135.593C261.635 133.927 270.951 128.019 270.873 126.006C270.795 123.993 268.517 117.025 268.517 117.025C268.517 117.025 265.347 100.01 274.722 95.613Z" fill="#575A89"/>
<path d="M253.844 86.3359C259.943 86.3359 264.887 81.3748 264.887 75.255C264.887 69.1352 259.943 64.1741 253.844 64.1741C247.745 64.1741 242.801 69.1352 242.801 75.255C242.801 81.3748 247.745 86.3359 253.844 86.3359Z" fill="#FFB9B9"/>
<path d="M246.409 59.3729C246.143 59.6032 245.824 59.7638 245.481 59.8404C245.308 59.8713 245.131 59.8324 244.987 59.7324C244.843 59.6325 244.745 59.4794 244.713 59.3067C244.46 59.8325 244.175 60.3929 243.659 60.6626C243.143 60.9324 242.346 60.7062 242.271 60.1273C242.196 60.5668 242.002 60.9773 241.711 61.3142C241.391 61.6204 240.811 61.6977 240.531 61.3538C240.757 62.5926 240.618 63.8665 240.689 65.1239C240.76 66.3812 241.094 67.7142 242.04 68.541C243.421 69.7467 245.497 69.4491 247.313 69.2207C247.588 69.1629 247.873 69.1785 248.14 69.2661C248.82 69.5568 248.789 70.5066 248.798 71.2483C248.853 72.5495 249.367 73.789 250.247 74.7465C251.127 75.704 252.316 76.3177 253.604 76.4785C254.325 76.5901 255.061 76.41 255.649 75.9777C256.165 75.5391 256.428 74.8243 257.019 74.4949C257.98 73.959 259.146 74.7405 259.849 75.5891C260.551 76.4377 261.244 77.4816 262.332 77.6369C263.772 77.8424 264.869 76.3701 265.407 75.0144C266.149 73.1143 266.505 71.0843 266.453 69.0441C266.401 67.0039 265.942 64.9949 265.104 63.1353C262.098 56.5598 251.828 55.5197 246.409 59.3729Z" fill="#2F2E41"/>
<path d="M187.969 68.5005C200.532 68.5005 210.717 58.2809 210.717 45.6743C210.717 33.0678 200.532 22.8481 187.969 22.8481C175.405 22.8481 165.221 33.0678 165.221 45.6743C165.221 58.2809 175.405 68.5005 187.969 68.5005Z" fill="#F1563C"/>
<path d="M163.223 21.5916C168.464 26.9861 176.515 27.6395 176.515 27.6395C176.515 27.6395 176.069 19.5466 170.828 14.152C165.587 8.75739 157.535 8.104 157.535 8.104C157.535 8.104 157.982 16.197 163.223 21.5916Z" fill="#3F3D56"/>
<path d="M164.979 18.8189C172.228 20.7809 176.722 27.5162 176.722 27.5162C176.722 27.5162 169.463 31.0706 162.213 29.1086C154.964 27.1467 150.471 20.4113 150.471 20.4113C150.471 20.4113 157.73 16.857 164.979 18.8189Z" fill="#F1563C"/>
<path d="M172.096 13.6753C172.144 21.2092 177.493 27.2824 177.493 27.2824C177.493 27.2824 182.765 21.1409 182.717 13.6071C182.669 6.07327 177.319 0 177.319 0C177.319 0 172.048 6.14149 172.096 13.6753Z" fill="#3F3D56"/>
<path d="M175.28 12.9012C179.147 19.3591 177.73 27.3387 177.73 27.3387C177.73 27.3387 170.043 24.8481 166.176 18.3902C162.309 11.9323 163.726 3.95264 163.726 3.95264C163.726 3.95264 171.413 6.4433 175.28 12.9012Z" fill="#F1563C"/>
<path d="M185.911 55.6519C192.367 55.6519 197.601 50.4001 197.601 43.9218C197.601 37.4434 192.367 32.1917 185.911 32.1917C179.454 32.1917 174.221 37.4434 174.221 43.9218C174.221 50.4001 179.454 55.6519 185.911 55.6519Z" fill="#F2F2F2"/>
<path d="M180.442 51.3558C182.536 51.3558 184.233 49.6525 184.233 47.5514C184.233 45.4503 182.536 43.7471 180.442 43.7471C178.348 43.7471 176.65 45.4503 176.65 47.5514C176.65 49.6525 178.348 51.3558 180.442 51.3558Z" fill="#3F3D56"/>
<path d="M65.7168 248.207C78.2802 248.207 88.4648 237.987 88.4648 225.381C88.4648 212.774 78.2802 202.554 65.7168 202.554C53.1534 202.554 42.9688 212.774 42.9688 225.381C42.9688 237.987 53.1534 248.207 65.7168 248.207Z" fill="#F1563C"/>
<path d="M55.7835 192.254C57.7441 199.527 64.4597 204.031 64.4597 204.031C64.4597 204.031 67.9965 196.744 66.0359 189.471C64.0753 182.199 57.3596 177.695 57.3596 177.695C57.3596 177.695 53.8229 184.982 55.7835 192.254Z" fill="#3F3D56"/>
<path d="M58.6663 190.692C64.0463 195.947 64.7034 204.025 64.7034 204.025C64.7034 204.025 56.6379 203.584 51.2578 198.328C45.8778 193.073 45.2207 184.995 45.2207 184.995C45.2207 184.995 53.2863 185.437 58.6663 190.692Z" fill="#F1563C"/>
<path d="M67.3777 189.675C63.7643 196.279 65.49 204.198 65.49 204.198C65.49 204.198 73.0743 201.408 76.6877 194.804C80.3012 188.2 78.5754 180.282 78.5754 180.282C78.5754 180.282 70.9911 183.071 67.3777 189.675Z" fill="#3F3D56"/>
<path d="M70.532 190.554C70.7764 198.084 65.6668 204.362 65.6668 204.362C65.6668 204.362 60.1611 198.431 59.9167 190.901C59.6723 183.371 64.7819 177.093 64.7819 177.093C64.7819 177.093 70.2876 183.024 70.532 190.554Z" fill="#F1563C"/>
<path d="M64.7681 234.574C71.2243 234.574 76.458 229.323 76.458 222.844C76.458 216.366 71.2243 211.114 64.7681 211.114C58.3119 211.114 53.0781 216.366 53.0781 222.844C53.0781 229.323 58.3119 234.574 64.7681 234.574Z" fill="#F2F2F2"/>
<path d="M68.5589 220.942C70.6528 220.942 72.3503 219.239 72.3503 217.138C72.3503 215.037 70.6528 213.333 68.5589 213.333C66.465 213.333 64.7676 215.037 64.7676 217.138C64.7676 219.239 66.465 220.942 68.5589 220.942Z" fill="#3F3D56"/>
<path d="M121.639 247.89H3.16016V248.524H121.639V247.89Z" fill="#2F2E41"/>
<path d="M296.356 249.158H177.877V249.792H296.356V249.158Z" fill="#2F2E41"/>
<path d="M30.2965 248.353L29.7349 248.062C37.0276 233.914 33.1279 215.542 28.5727 202.621C25.4795 193.936 21.5342 185.581 16.7949 177.679L17.329 177.34C22.0929 185.282 26.0587 193.68 29.1681 202.409C33.7654 215.449 37.6925 234.004 30.2965 248.353Z" fill="#2F2E41"/>
<path d="M35.7027 177.453L31.6035 199.964L32.2249 200.078L36.3241 177.567L35.7027 177.453Z" fill="#2F2E41"/>
<path d="M8.44713 196.632L7.98438 197.064L29.1526 219.89L29.6153 219.458L8.44713 196.632Z" fill="#2F2E41"/>
<path d="M46.5028 221.706L35.7656 236.61L36.2778 236.982L47.0149 222.078L46.5028 221.706Z" fill="#2F2E41"/>
<path d="M37.5969 171.486C39.3419 171.486 40.7564 170.066 40.7564 168.315C40.7564 166.564 39.3419 165.145 37.5969 165.145C35.852 165.145 34.4375 166.564 34.4375 168.315C34.4375 170.066 35.852 171.486 37.5969 171.486Z" fill="#F1563C"/>
<path d="M3.15945 195.897C4.90436 195.897 6.3189 194.478 6.3189 192.727C6.3189 190.976 4.90436 189.556 3.15945 189.556C1.41453 189.556 0 190.976 0 192.727C0 194.478 1.41453 195.897 3.15945 195.897Z" fill="#3F3D56"/>
<path d="M17.0618 199.067C18.8067 199.067 20.2212 197.648 20.2212 195.897C20.2212 194.146 18.8067 192.727 17.0618 192.727C15.3169 192.727 13.9023 194.146 13.9023 195.897C13.9023 197.648 15.3169 199.067 17.0618 199.067Z" fill="#3F3D56"/>
<path d="M10.7415 211.431C12.4864 211.431 13.9009 210.012 13.9009 208.261C13.9009 206.51 12.4864 205.091 10.7415 205.091C8.99657 205.091 7.58203 206.51 7.58203 208.261C7.58203 210.012 8.99657 211.431 10.7415 211.431Z" fill="#F1563C"/>
<path d="M50.2356 219.357C51.9805 219.357 53.3951 217.938 53.3951 216.187C53.3951 214.436 51.9805 213.017 50.2356 213.017C48.4907 213.017 47.0762 214.436 47.0762 216.187C47.0762 217.938 48.4907 219.357 50.2356 219.357Z" fill="#3F3D56"/>
<path d="M39.8079 222.845C41.5528 222.845 42.9673 221.425 42.9673 219.674C42.9673 217.923 41.5528 216.504 39.8079 216.504C38.063 216.504 36.6484 217.923 36.6484 219.674C36.6484 221.425 38.063 222.845 39.8079 222.845Z" fill="#3F3D56"/>
<path d="M47.0755 232.99C48.8204 232.99 50.2349 231.57 50.2349 229.819C50.2349 228.068 48.8204 226.649 47.0755 226.649C45.3305 226.649 43.916 228.068 43.916 229.819C43.916 231.57 45.3305 232.99 47.0755 232.99Z" fill="#3F3D56"/>
<path d="M13.9016 175.29C15.6466 175.29 17.0611 173.87 17.0611 172.12C17.0611 170.369 15.6466 168.949 13.9016 168.949C12.1567 168.949 10.7422 170.369 10.7422 172.12C10.7422 173.87 12.1567 175.29 13.9016 175.29Z" fill="#3F3D56"/>
<path d="M216.926 56.8245H64.6406V148.446H216.926V56.8245Z" fill="#3F3D56"/>
<path d="M70.6461 61.8969C71.5186 61.8969 72.2259 61.1872 72.2259 60.3117C72.2259 59.4363 71.5186 58.7266 70.6461 58.7266C69.7737 58.7266 69.0664 59.4363 69.0664 60.3117C69.0664 61.1872 69.7737 61.8969 70.6461 61.8969Z" fill="#F1563C"/>
<path d="M76.3317 61.8969C77.2041 61.8969 77.9114 61.1872 77.9114 60.3117C77.9114 59.4363 77.2041 58.7266 76.3317 58.7266C75.4592 58.7266 74.752 59.4363 74.752 60.3117C74.752 61.1872 75.4592 61.8969 76.3317 61.8969Z" fill="#F1563C"/>
<path d="M82.0192 61.8969C82.8917 61.8969 83.5989 61.1872 83.5989 60.3117C83.5989 59.4363 82.8917 58.7266 82.0192 58.7266C81.1467 58.7266 80.4395 59.4363 80.4395 60.3117C80.4395 61.1872 81.1467 61.8969 82.0192 61.8969Z" fill="#F1563C"/>
<path d="M216.926 63.8569H64.7676V64.491H216.926V63.8569Z" fill="#2F2E41"/>
<path d="M153.42 82.5039V111.037H112.085L104.449 120.231L105.321 111.037H101.605V82.5039H153.42Z" fill="#F1563C"/>
<path opacity="0.1" d="M153.422 92.3318H134.781V111.037H153.422V92.3318Z" fill="black"/>
<path d="M138.889 96.4534H190.704V124.986H186.987L187.86 134.18L180.225 124.986H138.889V96.4534Z" fill="#F1563C"/>
<path opacity="0.1" d="M104.767 124.831C111.048 124.831 116.141 124.333 116.141 123.718C116.141 123.103 111.048 122.604 104.767 122.604C98.4849 122.604 93.3926 123.103 93.3926 123.718C93.3926 124.333 98.4849 124.831 104.767 124.831Z" fill="black"/>
<path opacity="0.1" d="M187.86 139.887C195.014 139.887 200.814 139.319 200.814 138.618C200.814 137.918 195.014 137.35 187.86 137.35C180.706 137.35 174.906 137.918 174.906 138.618C174.906 139.319 180.706 139.887 187.86 139.887Z" fill="black"/>
</svg>
