<svg width="416" height="341" viewBox="0 0 416 341" fill="none" xmlns="http://www.w3.org/2000/svg">
<path d="M95.3711 68.9497L97.142 215.076L173.663 252.357L171.892 106.231L95.3711 68.9497Z" fill="#F2F2F2"/>
<path d="M72.118 57.2769L14.9395 174.682L92.5226 212.482L90.7517 66.3553L72.118 57.2769Z" fill="#F2F2F2"/>
<path d="M415.999 222.211L261.568 146.972L263.339 293.098L358.821 339.617L415.999 222.211Z" fill="#F2F2F2"/>
<path d="M178.811 106.231L180.581 252.357L257.102 289.639L255.331 143.513L178.811 106.231Z" fill="#F2F2F2"/>
<path d="M351.525 112.456L341.916 112.828L342.395 125.185L352.004 124.813L351.525 112.456Z" fill="#F1563C"/>
<path d="M308.179 155.733C308.179 155.733 294.872 149.374 295.085 154.866C295.298 160.358 308.498 163.971 308.498 163.971L308.179 155.733Z" fill="#FFB9B9"/>
<path d="M315.48 202.202C315.48 202.202 309.202 217.571 306.883 228.662C304.563 239.752 301.03 255.015 305.575 265.839C310.119 276.663 323.038 308.477 323.171 311.909C323.304 315.342 322.064 318.827 324.81 318.721C327.555 318.614 342.496 313.91 343.102 311.823C343.709 309.737 338.005 304.458 338.005 304.458L323.92 260.315L338.615 231.556L349.215 274.46L351.291 328.007C351.291 328.007 361.48 324.861 362.959 327.554C362.959 327.554 367.524 321.189 368.104 318.417C368.684 315.644 365.948 262.81 365.948 262.81C365.948 262.81 375.301 202.632 367.751 202.925C360.201 203.218 330.628 185.114 315.48 202.202Z" fill="#2F2E41"/>
<path d="M324.703 315.975C324.703 315.975 317.739 331.371 317.079 332.084C316.419 332.797 311.881 339.848 315.313 339.715C318.745 339.582 326.848 335.83 332.812 330.098C338.777 324.367 346.641 314.436 345.928 313.776C345.215 313.117 340.33 311.243 340.33 311.243L324.703 315.975Z" fill="#2F2E41"/>
<path d="M352.531 324.521C352.531 324.521 352.11 331.412 350.844 334.212C349.578 337.011 349.738 341.13 353.169 340.997C356.601 340.864 365.471 339.145 365.471 339.145C365.471 339.145 365.998 334.999 365.285 334.339C364.572 333.679 361.533 326.234 362.826 324.121C364.119 322.009 352.531 324.521 352.531 324.521Z" fill="#2F2E41"/>
<path d="M357.606 100.875C357.606 100.875 364.922 112.28 367.774 114.919C370.626 117.559 362.603 123.37 362.603 123.37L348.242 125.302C348.242 125.302 348.423 112.232 347.683 110.886C346.944 109.539 357.606 100.875 357.606 100.875Z" fill="#FFB9B9"/>
<path d="M345.125 115.798C345.125 115.798 348.084 121.183 350.829 121.077C353.574 120.97 367.775 114.919 368.382 112.833C368.988 110.747 373.086 127.776 373.086 127.776L338.337 188.94L329.861 183.08L333.968 147.169L337.341 127.788L345.125 115.798Z" fill="#F1563C"/>
<path d="M369.664 170.537C368.278 173.437 367.412 176.461 367.532 179.557C367.538 179.694 367.543 179.832 367.555 179.969C367.884 186.323 370.224 193.671 371.064 199.015C371.673 202.848 371.499 205.646 369.257 206.304C363.819 207.89 370.049 209.023 349.012 216.027C327.974 223.031 324.302 216.986 324.249 215.613C324.196 214.24 327.228 203.809 326.515 203.149C325.802 202.489 316.539 211.786 313.741 210.52C310.942 209.253 313.421 202.282 313.421 202.282C313.421 202.282 319.726 187.599 319.593 184.167C319.46 180.734 329.143 164.545 329.143 164.545L335.729 121.663C335.729 121.663 338.262 116.064 341.667 115.245C345.072 114.425 347.898 116.378 347.898 116.378L342.199 128.975L336.187 151.209L337.193 159.42C337.193 159.42 344.184 144.711 348.776 139.033C353.368 133.354 363.157 119.911 363.157 119.911C363.157 119.911 365.443 112.198 363.718 109.893C361.992 107.581 370.915 107.235 374.719 116.713C376.736 121.736 380.009 129.227 382.06 136.202C383.888 142.38 384.751 148.157 382.94 151.458C380.173 156.502 373.213 163.132 369.664 170.537Z" fill="#575A89"/>
<path opacity="0.1" d="M382.94 151.458C380.173 156.502 373.212 163.132 369.664 170.537C368.737 167.197 367.606 163.741 367.606 163.741C367.606 163.741 363.269 140.533 376.097 134.535C378.223 134.33 380.349 134.924 382.06 136.202C383.887 142.38 384.751 148.157 382.94 151.458Z" fill="black"/>
<path d="M332.015 149.996L321.14 153.168L306.04 153.753L304.486 166.877L329.302 168.664C329.302 168.664 335.5 151.235 332.015 149.996Z" fill="#575A89"/>
<path d="M349.749 194.12C349.749 194.12 335.199 196.535 338.52 200.914C341.841 205.293 354.73 200.689 354.73 200.689L349.749 194.12Z" fill="#FFB9B9"/>
<path opacity="0.1" d="M367.553 179.969C367.882 186.322 370.222 193.671 371.062 199.015C366.427 203.402 362.02 207.272 360.359 207.336C356.927 207.47 351.409 206.996 349.377 207.762C347.344 208.529 346.152 195.512 346.152 195.512C346.152 195.512 347.365 191.34 352.776 189.067C356.429 187.53 363.43 183.36 367.553 179.969Z" fill="black"/>
<path d="M375.938 130.416C375.938 130.416 387.553 128.591 386.925 147.866C386.298 167.141 388.15 179.445 383.478 183.064C378.807 186.683 363.632 203.084 360.201 203.218C356.769 203.351 351.251 202.877 349.219 203.643C347.186 204.41 345.994 191.393 345.994 191.393C345.994 191.393 347.207 187.221 352.618 184.948C358.029 182.676 370.778 174.618 370.671 171.872C370.565 169.126 367.447 159.622 367.447 159.622C367.447 159.622 363.11 136.414 375.938 130.416Z" fill="#575A89"/>
<path d="M347.365 117.762C355.711 117.762 362.477 110.995 362.477 102.648C362.477 94.3006 355.711 87.5337 347.365 87.5337C339.02 87.5337 332.254 94.3006 332.254 102.648C332.254 110.995 339.02 117.762 347.365 117.762Z" fill="#FFB9B9"/>
<path d="M337.19 80.9846C336.826 81.2987 336.389 81.5178 335.919 81.6223C335.684 81.6644 335.441 81.6114 335.244 81.475C335.047 81.3386 334.912 81.1299 334.869 80.8944C334.523 81.6115 334.133 82.3758 333.427 82.7438C332.721 83.1118 331.63 82.8032 331.528 82.0136C331.425 82.6132 331.16 83.173 330.761 83.6326C330.323 84.0502 329.529 84.1557 329.146 83.6866C329.456 85.3763 329.265 87.1139 329.362 88.8289C329.459 90.544 329.916 92.3621 331.212 93.4898C333.101 95.1345 335.942 94.7286 338.427 94.417C338.803 94.3381 339.193 94.3595 339.558 94.4789C340.488 94.8754 340.446 96.171 340.459 97.1826C340.535 98.9576 341.237 100.648 342.441 101.954C343.645 103.26 345.273 104.097 347.036 104.317C348.022 104.469 349.029 104.223 349.834 103.634C350.54 103.035 350.9 102.06 351.709 101.611C353.024 100.88 354.619 101.946 355.581 103.104C356.542 104.261 357.49 105.685 358.98 105.897C360.95 106.177 362.45 104.169 363.187 102.32C364.202 99.7279 364.689 96.959 364.618 94.1762C364.547 91.3934 363.919 88.653 362.772 86.1166C358.658 77.1475 344.606 75.7289 337.19 80.9846Z" fill="#2F2E41"/>
<path d="M173.454 338.122H11.3242V338.987H173.454V338.122Z" fill="#2F2E41"/>
<path d="M405.54 339.852H243.41V340.716H405.54V339.852Z" fill="#2F2E41"/>
<path d="M105.743 299.203C108.131 299.203 110.067 297.267 110.067 294.879C110.067 292.49 108.131 290.554 105.743 290.554C103.356 290.554 101.42 292.49 101.42 294.879C101.42 297.267 103.356 299.203 105.743 299.203Z" fill="#3F3D56"/>
<path d="M78.4582 338.753L77.6898 338.356C87.6692 319.059 82.3329 293.999 76.0993 276.375C71.8666 264.528 66.4678 253.132 59.9824 242.353L60.7133 241.891C67.2323 252.725 72.6592 264.179 76.9142 276.086C83.2052 293.872 88.5791 319.181 78.4582 338.753Z" fill="#2F2E41"/>
<path d="M85.8555 242.046L80.2461 272.75L81.0964 272.905L86.7058 242.201L85.8555 242.046Z" fill="#2F2E41"/>
<path d="M48.5571 268.206L47.9238 268.795L76.8909 299.931L77.5241 299.341L48.5571 268.206Z" fill="#2F2E41"/>
<path d="M100.634 302.407L85.9414 322.736L86.6423 323.243L101.335 302.914L100.634 302.407Z" fill="#2F2E41"/>
<path d="M88.4485 233.906C90.8362 233.906 92.7719 231.97 92.7719 229.582C92.7719 227.194 90.8362 225.258 88.4485 225.258C86.0607 225.258 84.125 227.194 84.125 229.582C84.125 231.97 86.0607 233.906 88.4485 233.906Z" fill="#F1563C"/>
<path d="M41.3235 267.203C43.7112 267.203 45.6469 265.267 45.6469 262.879C45.6469 260.491 43.7112 258.555 41.3235 258.555C38.9357 258.555 37 260.491 37 262.879C37 265.267 38.9357 267.203 41.3235 267.203Z" fill="#3F3D56"/>
<path d="M60.3469 271.527C62.7347 271.527 64.6704 269.591 64.6704 267.203C64.6704 264.815 62.7347 262.879 60.3469 262.879C57.9591 262.879 56.0234 264.815 56.0234 267.203C56.0234 269.591 57.9591 271.527 60.3469 271.527Z" fill="#3F3D56"/>
<path d="M51.7004 288.392C54.0882 288.392 56.0239 286.456 56.0239 284.068C56.0239 281.68 54.0882 279.744 51.7004 279.744C49.3126 279.744 47.377 281.68 47.377 284.068C47.377 286.456 49.3126 288.392 51.7004 288.392Z" fill="#F1563C"/>
<path d="M91.4758 303.96C93.8636 303.96 95.7993 302.024 95.7993 299.636C95.7993 297.247 93.8636 295.311 91.4758 295.311C89.088 295.311 87.1523 297.247 87.1523 299.636C87.1523 302.024 89.088 303.96 91.4758 303.96Z" fill="#3F3D56"/>
<path d="M101.419 317.798C103.807 317.798 105.743 315.861 105.743 313.473C105.743 311.085 103.807 309.149 101.419 309.149C99.0314 309.149 97.0957 311.085 97.0957 313.473C97.0957 315.861 99.0314 317.798 101.419 317.798Z" fill="#3F3D56"/>
<path d="M56.0227 239.095C58.4105 239.095 60.3461 237.159 60.3461 234.771C60.3461 232.383 58.4105 230.447 56.0227 230.447C53.6349 230.447 51.6992 232.383 51.6992 234.771C51.6992 237.159 53.6349 239.095 56.0227 239.095Z" fill="#3F3D56"/>
<path d="M296.848 77.5085H88.457V202.481H296.848V77.5085Z" fill="#3F3D56"/>
<path d="M96.6715 84.4276C97.8654 84.4276 98.8332 83.4595 98.8332 82.2654C98.8332 81.0713 97.8654 80.1033 96.6715 80.1033C95.4776 80.1033 94.5098 81.0713 94.5098 82.2654C94.5098 83.4595 95.4776 84.4276 96.6715 84.4276Z" fill="#F1563C"/>
<path d="M104.455 84.4276C105.649 84.4276 106.616 83.4595 106.616 82.2654C106.616 81.0713 105.649 80.1033 104.455 80.1033C103.261 80.1033 102.293 81.0713 102.293 82.2654C102.293 83.4595 103.261 84.4276 104.455 84.4276Z" fill="#F1563C"/>
<path d="M112.236 84.4276C113.43 84.4276 114.398 83.4595 114.398 82.2654C114.398 81.0713 113.43 80.1033 112.236 80.1033C111.042 80.1033 110.074 81.0713 110.074 82.2654C110.074 83.4595 111.042 84.4276 112.236 84.4276Z" fill="#F1563C"/>
<path d="M296.847 87.1008H88.6309V87.9657H296.847V87.1008Z" fill="#2F2E41"/>
<path d="M209.946 112.535V151.454H153.382L142.932 163.995L144.125 151.454H139.041V112.535H209.946Z" fill="#F1563C"/>
<path opacity="0.1" d="M209.946 125.941H184.438V151.454H209.946V125.941Z" fill="black"/>
<path d="M190.057 131.562H260.961V170.481H255.876L257.07 183.021L246.622 170.481H190.057V131.562Z" fill="#F1563C"/>
<path opacity="0.1" d="M143.365 170.27C151.961 170.27 158.93 169.59 158.93 168.751C158.93 167.912 151.961 167.232 143.365 167.232C134.769 167.232 127.801 167.912 127.801 168.751C127.801 169.59 134.769 170.27 143.365 170.27Z" fill="black"/>
<path opacity="0.1" d="M257.072 190.805C266.862 190.805 274.798 190.031 274.798 189.075C274.798 188.12 266.862 187.346 257.072 187.346C247.282 187.346 239.346 188.12 239.346 189.075C239.346 190.031 247.282 190.805 257.072 190.805Z" fill="black"/>
</svg>
