<svg width="415" height="360" viewBox="0 0 415 360" fill="none" xmlns="http://www.w3.org/2000/svg">
<g clip-path="url(#clip0_2544_21331)">
<path d="M232.794 128.785H61.425L29.5695 164.201V128.785H0V0H232.794V128.785Z" fill="#E5E5E5"/>
<path d="M195.073 37.8311H38.623V44.8069H195.073V37.8311Z" fill="white"/>
<path d="M195.073 60.9048H38.623V67.8807H195.073V60.9048Z" fill="white"/>
<path d="M195.073 83.979H38.623V90.9549H195.073V83.979Z" fill="white"/>
<path d="M40.7233 235.193C43.9726 235.193 46.6067 232.564 46.6067 229.321C46.6067 226.078 43.9726 223.449 40.7233 223.449C37.4739 223.449 34.8398 226.078 34.8398 229.321C34.8398 232.564 37.4739 235.193 40.7233 235.193Z" fill="#E6E6E6"/>
<path d="M339.43 352.505H332.838L329.701 327.127H339.43L339.43 352.505Z" fill="#9F616A"/>
<path d="M341.109 358.884L319.854 358.883V358.614C319.854 356.424 320.725 354.324 322.277 352.776C323.828 351.227 325.933 350.357 328.127 350.357H328.127L341.11 350.357L341.109 358.884Z" fill="#2F2E41"/>
<path d="M275.178 351.984L268.928 349.893L274.037 324.835L283.261 327.922L275.178 351.984Z" fill="#9F616A"/>
<path d="M274.741 358.565L254.588 351.821L254.673 351.566C255.371 349.49 256.866 347.775 258.831 346.799C260.795 345.823 263.067 345.666 265.147 346.362L265.148 346.362L277.457 350.481L274.741 358.565Z" fill="#2F2E41"/>
<path d="M283.305 221.347L269.029 341.877L283.031 343.056C283.031 343.056 305.055 224.552 311.844 238.59C318.634 252.628 326.953 340.425 326.953 340.425H340.849C340.849 340.425 344.412 203.437 329.863 196.66L283.305 221.347Z" fill="#2F2E41"/>
<path d="M320.306 122.047C321.654 114.412 316.545 107.132 308.896 105.787C301.246 104.442 293.952 109.541 292.604 117.176C291.257 124.811 296.365 132.091 304.015 133.437C311.665 134.782 318.959 129.683 320.306 122.047Z" fill="#9F616A"/>
<path d="M298.098 138.815L316.042 140.268C316.042 140.268 330.349 140.51 336.169 144.382C341.989 148.254 330.592 172.215 330.592 172.215C330.592 172.215 327.629 181.715 329.864 186.011C337.118 199.949 336.042 210.683 336.042 210.683C336.042 210.683 321.135 214.086 295.431 220.863C295.431 220.863 279.426 227.156 279.911 223.768C280.396 220.379 285.246 181.654 285.246 181.654V141.478L298.098 138.815Z" fill="#3F3D56"/>
<path d="M329.488 118.091C328.77 114.093 327.162 108.422 323.579 104.123C323.692 104.123 323.804 104.128 323.917 104.125C325.149 104.089 326.55 103.702 327.058 102.582C327.222 102.133 327.263 101.649 327.177 101.18C327.091 100.71 326.88 100.272 326.567 99.9107C325.932 99.1973 325.172 98.605 324.325 98.1624C325.189 98.686 326.411 99.1724 327.101 98.4348C327.278 98.2125 327.388 97.9443 327.418 97.6617C327.448 97.3791 327.397 97.0939 327.27 96.8394C327.008 96.3346 326.64 95.8919 326.192 95.5416C324.739 94.2593 323.15 93.14 321.453 92.2037C320.139 91.4791 318.41 90.8972 317.23 91.8242C316.029 92.7685 316.222 94.6075 316.53 96.1026C315.857 95.7099 315.101 95.482 314.322 95.4376C313.934 95.4266 313.553 95.5497 313.244 95.7862C312.936 96.0228 312.719 96.3583 312.629 96.7362C312.618 97.0344 312.684 97.3304 312.821 97.5956C312.958 97.8608 313.161 98.0862 313.411 98.25C308.774 97.4888 302.849 98.3524 295.274 101.851C295.274 101.851 287.929 104.294 287.556 113.945C287.518 115.488 287.69 117.03 288.066 118.527C288.48 120.277 289.952 128.859 288.186 132.327L297.031 135.473L297.133 130.185C290.258 120.28 293.654 116.645 296.331 110.688C296.335 110.677 296.343 110.668 296.352 110.661C296.362 110.654 296.373 110.65 296.385 110.649C296.396 110.648 296.408 110.651 296.418 110.656C296.429 110.661 296.438 110.67 296.444 110.68C296.938 111.527 298.834 114.431 305.357 114.431L302.836 111.915C302.836 111.915 313.928 116.444 317.961 116.444C317.961 116.444 320.986 118.456 317.961 121.476C314.936 124.495 308.316 128.939 311.845 134.474C315.374 140.009 315.07 141.973 315.07 141.973L323.137 137.444C323.137 137.444 328.064 127.715 328.938 124.849C329.656 122.672 329.844 120.355 329.488 118.091Z" fill="#2F2E41"/>
<path d="M240 234H386V309H367.455H347.477H240V234Z" fill="white"/>
<path d="M252.888 238.253C249.023 235.928 244.362 236.106 242.59 236.283C243.265 237.93 245.289 242.133 249.155 244.458C253.03 246.789 257.685 246.606 259.454 246.43C258.779 244.783 256.754 240.579 252.888 238.253Z" fill="#F1563C"/>
<path d="M271.053 284.38H246.893C245.451 284.38 244.069 284.953 243.049 285.972C242.03 286.991 241.457 288.374 241.457 289.816C241.457 291.258 242.03 292.64 243.049 293.66C244.069 294.679 245.451 295.252 246.893 295.252H271.053C272.494 295.251 273.875 294.677 274.894 293.658C275.912 292.639 276.484 291.257 276.484 289.816C276.484 288.375 275.912 286.993 274.894 285.974C273.875 284.955 272.494 284.381 271.053 284.38Z" fill="#F1563C"/>
<path d="M380.457 227H244.999C243.423 227 241.863 227.31 240.407 227.913C238.951 228.516 237.629 229.4 236.514 230.514C235.4 231.629 234.516 232.951 233.913 234.407C233.31 235.863 233 237.423 233 238.999V304.997C233 308.179 234.264 311.231 236.514 313.482C238.765 315.732 241.817 316.996 244.999 316.996H380.457C382.033 316.996 383.593 316.686 385.049 316.083C386.505 315.48 387.828 314.596 388.942 313.482C390.056 312.367 390.94 311.045 391.543 309.589C392.146 308.133 392.456 306.573 392.456 304.997V238.999C392.456 237.423 392.146 235.863 391.543 234.407C390.94 232.951 390.056 231.629 388.942 230.514C387.828 229.4 386.505 228.516 385.049 227.913C383.593 227.31 382.033 227 380.457 227ZM241.648 235.185C241.915 235.137 248.258 234.057 253.51 237.218C258.762 240.378 260.78 246.488 260.863 246.746L261.076 247.405L260.394 247.526C259.422 247.678 258.439 247.75 257.455 247.742C255.069 247.742 251.613 247.347 248.531 245.493C243.279 242.334 241.262 236.223 241.178 235.965L240.966 235.306L241.648 235.185ZM271.052 296.46H246.892C245.13 296.46 243.44 295.76 242.194 294.514C240.948 293.268 240.248 291.578 240.248 289.816C240.248 288.054 240.948 286.364 242.194 285.118C243.44 283.872 245.13 283.172 246.892 283.172H271.052C272.814 283.172 274.504 283.872 275.75 285.118C276.996 286.364 277.696 288.054 277.696 289.816C277.696 291.578 276.996 293.268 275.75 294.514C274.504 295.76 272.814 296.46 271.052 296.46ZM380.98 295.252C380.975 297.173 380.209 299.013 378.851 300.371C377.493 301.729 375.653 302.495 373.732 302.5H355.612C353.692 302.495 351.851 301.729 350.493 300.371C349.135 299.013 348.37 297.173 348.364 295.252V284.38C348.37 282.46 349.135 280.619 350.493 279.261C351.851 277.903 353.692 277.138 355.612 277.132H373.732C375.653 277.138 377.493 277.903 378.851 279.261C380.209 280.619 380.975 282.46 380.98 284.38L380.98 295.252Z" fill="#F1563C"/>
<path d="M361.353 293.138H353.501C352.94 293.138 352.402 293.361 352.006 293.757C351.609 294.154 351.387 294.692 351.387 295.252C351.387 295.813 351.609 296.351 352.006 296.747C352.402 297.143 352.94 297.366 353.501 297.366H361.353C361.913 297.366 362.451 297.143 362.848 296.747C363.244 296.351 363.467 295.813 363.467 295.252C363.467 294.692 363.244 294.154 362.848 293.757C362.451 293.361 361.913 293.138 361.353 293.138ZM361.353 296.158H353.501C353.382 296.158 353.264 296.135 353.153 296.09C353.043 296.044 352.943 295.978 352.859 295.894C352.774 295.809 352.707 295.709 352.662 295.599C352.616 295.489 352.593 295.371 352.593 295.252C352.593 295.133 352.616 295.015 352.662 294.905C352.707 294.795 352.774 294.695 352.859 294.611C352.943 294.527 353.043 294.46 353.153 294.415C353.264 294.369 353.382 294.346 353.501 294.346H361.353C361.472 294.346 361.59 294.369 361.7 294.415C361.81 294.46 361.91 294.527 361.995 294.611C362.079 294.695 362.146 294.795 362.192 294.905C362.237 295.015 362.261 295.133 362.261 295.252C362.261 295.371 362.237 295.489 362.192 295.599C362.146 295.709 362.079 295.809 361.995 295.894C361.91 295.978 361.81 296.044 361.7 296.09C361.59 296.135 361.472 296.158 361.353 296.158Z" fill="#F1563C"/>
<path d="M375.846 293.138H367.994C367.716 293.138 367.441 293.192 367.184 293.298C366.927 293.404 366.694 293.56 366.497 293.756C366.301 293.953 366.145 294.186 366.038 294.442C365.932 294.699 365.877 294.974 365.877 295.252C365.877 295.53 365.932 295.805 366.038 296.062C366.145 296.319 366.301 296.552 366.497 296.748C366.694 296.944 366.927 297.1 367.184 297.206C367.441 297.312 367.716 297.367 367.994 297.366H375.846C376.407 297.366 376.945 297.143 377.341 296.747C377.737 296.351 377.96 295.813 377.96 295.252C377.96 294.692 377.737 294.154 377.341 293.757C376.945 293.361 376.407 293.138 375.846 293.138ZM375.846 296.158H367.994C367.875 296.158 367.757 296.135 367.647 296.09C367.537 296.044 367.437 295.978 367.352 295.894C367.268 295.809 367.201 295.709 367.155 295.599C367.11 295.489 367.086 295.371 367.086 295.252C367.086 295.133 367.11 295.015 367.155 294.905C367.201 294.795 367.268 294.695 367.352 294.611C367.437 294.527 367.537 294.46 367.647 294.415C367.757 294.369 367.875 294.346 367.994 294.346H375.846C376.086 294.347 376.316 294.442 376.485 294.612C376.655 294.782 376.75 295.012 376.75 295.252C376.75 295.492 376.655 295.722 376.485 295.892C376.316 296.062 376.086 296.158 375.846 296.158Z" fill="#F1563C"/>
<path d="M361.353 287.702H353.501C352.94 287.702 352.402 287.925 352.006 288.321C351.609 288.718 351.387 289.255 351.387 289.816C351.387 290.377 351.609 290.915 352.006 291.311C352.402 291.707 352.94 291.93 353.501 291.93H361.353C361.631 291.931 361.906 291.876 362.163 291.77C362.42 291.664 362.653 291.508 362.85 291.312C363.046 291.116 363.202 290.883 363.309 290.626C363.415 290.369 363.47 290.094 363.47 289.816C363.47 289.538 363.415 289.263 363.309 289.006C363.202 288.75 363.046 288.517 362.85 288.32C362.653 288.124 362.42 287.968 362.163 287.862C361.906 287.756 361.631 287.702 361.353 287.702ZM361.353 290.722H353.501C353.26 290.722 353.03 290.627 352.86 290.457C352.69 290.287 352.595 290.056 352.595 289.816C352.595 289.576 352.69 289.345 352.86 289.176C353.03 289.006 353.26 288.91 353.501 288.91H361.353C361.593 288.91 361.823 289.006 361.993 289.176C362.163 289.345 362.259 289.576 362.259 289.816C362.259 290.056 362.163 290.287 361.993 290.457C361.823 290.627 361.593 290.722 361.353 290.722Z" fill="#F1563C"/>
<path d="M375.846 287.702H367.994C367.716 287.702 367.441 287.756 367.184 287.862C366.927 287.968 366.694 288.124 366.497 288.32C366.301 288.517 366.145 288.75 366.038 289.006C365.932 289.263 365.877 289.538 365.877 289.816C365.877 290.094 365.932 290.369 366.038 290.626C366.145 290.883 366.301 291.116 366.497 291.312C366.694 291.508 366.927 291.664 367.184 291.77C367.441 291.876 367.716 291.931 367.994 291.93H375.846C376.407 291.93 376.945 291.707 377.341 291.311C377.737 290.915 377.96 290.377 377.96 289.816C377.96 289.255 377.737 288.718 377.341 288.321C376.945 287.925 376.407 287.702 375.846 287.702ZM375.846 290.722H367.994C367.754 290.722 367.523 290.627 367.354 290.457C367.184 290.287 367.088 290.056 367.088 289.816C367.088 289.576 367.184 289.345 367.354 289.176C367.523 289.006 367.754 288.91 367.994 288.91H375.846C376.086 288.91 376.317 289.006 376.487 289.176C376.657 289.345 376.752 289.576 376.752 289.816C376.752 290.056 376.657 290.287 376.487 290.457C376.317 290.627 376.086 290.722 375.846 290.722Z" fill="#F1563C"/>
<path d="M361.353 282.266H353.501C352.94 282.266 352.402 282.489 352.006 282.885C351.609 283.282 351.387 283.819 351.387 284.38C351.387 284.941 351.609 285.478 352.006 285.875C352.402 286.271 352.94 286.494 353.501 286.494H361.353C361.913 286.494 362.451 286.271 362.848 285.875C363.244 285.478 363.467 284.941 363.467 284.38C363.467 283.819 363.244 283.282 362.848 282.885C362.451 282.489 361.913 282.266 361.353 282.266ZM361.353 285.286H353.501C353.26 285.286 353.03 285.191 352.86 285.021C352.69 284.851 352.595 284.62 352.595 284.38C352.595 284.14 352.69 283.909 352.86 283.739C353.03 283.57 353.26 283.474 353.501 283.474H361.353C361.593 283.474 361.823 283.57 361.993 283.739C362.163 283.909 362.259 284.14 362.259 284.38C362.259 284.62 362.163 284.851 361.993 285.021C361.823 285.191 361.593 285.286 361.353 285.286Z" fill="#F1563C"/>
<path d="M375.846 282.266H367.994C367.716 282.266 367.441 282.32 367.184 282.426C366.927 282.532 366.694 282.688 366.497 282.884C366.301 283.081 366.145 283.314 366.038 283.57C365.932 283.827 365.877 284.102 365.877 284.38C365.877 284.658 365.932 284.933 366.038 285.19C366.145 285.447 366.301 285.68 366.497 285.876C366.694 286.072 366.927 286.228 367.184 286.334C367.441 286.44 367.716 286.495 367.994 286.494H375.846C376.406 286.493 376.943 286.27 377.339 285.874C377.735 285.477 377.957 284.94 377.957 284.38C377.957 283.82 377.735 283.283 377.339 282.886C376.943 282.49 376.406 282.267 375.846 282.266ZM375.846 285.286H367.994C367.754 285.286 367.523 285.191 367.354 285.021C367.184 284.851 367.088 284.62 367.088 284.38C367.088 284.14 367.184 283.909 367.354 283.739C367.523 283.57 367.754 283.474 367.994 283.474H375.846C376.086 283.474 376.317 283.57 376.487 283.739C376.657 283.909 376.752 284.14 376.752 284.38C376.752 284.62 376.657 284.851 376.487 285.021C376.317 285.191 376.086 285.286 375.846 285.286Z" fill="#F1563C"/>
<path d="M337.925 170.294L328.513 172.578L328.442 191.591L317.855 228.06C317.008 228.729 316.36 229.617 315.982 230.627C315.605 231.637 315.512 232.731 315.713 233.791C315.914 234.85 316.403 235.834 317.125 236.636C317.847 237.438 318.775 238.027 319.809 238.34C320.843 238.652 321.943 238.676 322.99 238.409C324.036 238.141 324.99 237.593 325.746 236.823C326.502 236.053 327.033 235.091 327.28 234.042C327.528 232.992 327.482 231.895 327.149 230.869L339.805 193.116L337.925 170.294Z" fill="#9F616A"/>
<path d="M275.281 169.895L286.573 173.115L286.644 192.128L297.231 228.597C298.078 229.266 298.726 230.154 299.104 231.164C299.481 232.174 299.574 233.268 299.373 234.328C299.172 235.387 298.683 236.371 297.961 237.173C297.239 237.975 296.311 238.564 295.277 238.877C294.243 239.189 293.143 239.213 292.096 238.946C291.05 238.678 290.096 238.13 289.34 237.36C288.584 236.59 288.053 235.628 287.806 234.579C287.558 233.529 287.604 232.432 287.937 231.406L275.281 193.653V169.895Z" fill="#9F616A"/>
<path d="M323.801 142.445L326.133 141.686C327.443 141.26 328.867 141.359 330.106 141.961C330.106 141.961 336.895 142.445 337.865 147.286C338.835 152.127 341.194 194.436 341.194 194.436L326.813 189.869L323.801 142.445Z" fill="#3F3D56"/>
<path d="M291.066 142.446L286.937 142.238L285.63 141.586C285.63 141.586 277.971 142.446 277.001 147.286C276.031 152.127 273.209 195.741 273.209 195.741L287.591 191.826L291.066 142.446Z" fill="#3F3D56"/>
<path d="M81.2257 318.794L88.0426 312.859C87.7511 308.595 87.2188 304.352 86.4484 300.148L82.6864 301.737L86.1767 298.698C85.1724 293.51 84.1781 290.137 84.1781 290.137C84.1781 290.137 70.4239 302.328 62.7273 317.199L66.1036 328.285L60.9465 320.955C60.1796 322.724 59.525 324.54 58.9865 326.391C53.6198 345.077 55.3834 361.974 62.9258 364.132C70.4682 366.29 80.933 352.892 86.2997 334.206C87.8657 328.221 88.5032 322.031 88.19 315.853L81.2257 318.794Z" fill="#F1F1F1"/>
<path d="M99.2769 333.323L108.186 331.759C110.145 327.959 111.887 324.051 113.404 320.056L109.361 319.475L113.923 318.674C115.75 313.714 116.645 310.314 116.645 310.314C116.645 310.314 98.5578 313.654 84.2672 322.414L81.4167 333.645L80.7982 324.71C79.2253 325.829 77.7245 327.046 76.3047 328.353C62.0336 341.58 54.7926 356.954 60.1316 362.693C65.4706 368.431 81.3676 362.361 95.6388 349.134C100.079 344.818 103.83 339.849 106.762 334.398L99.2769 333.323Z" fill="#F1F1F1"/>
<path d="M414.332 359.178H1.49029C1.31312 359.178 1.1432 359.135 1.01792 359.058C0.892636 358.98 0.822266 358.876 0.822266 358.767C0.822266 358.658 0.892636 358.553 1.01792 358.476C1.1432 358.399 1.31312 358.356 1.49029 358.356H414.332C414.51 358.356 414.68 358.399 414.805 358.476C414.93 358.553 415 358.658 415 358.767C415 358.876 414.93 358.98 414.805 359.058C414.68 359.135 414.51 359.178 414.332 359.178Z" fill="#CBCBCB"/>
<path d="M126.64 244.852H113.208C112.623 244.851 112.062 244.618 111.648 244.204C111.234 243.79 111.001 243.229 111 242.644V223.336C111.001 222.751 111.234 222.19 111.648 221.776C112.062 221.362 112.623 221.129 113.208 221.128H126.64C127.225 221.129 127.786 221.362 128.2 221.776C128.614 222.19 128.847 222.751 128.847 223.336V242.644C128.847 243.229 128.614 243.79 128.2 244.204C127.786 244.618 127.225 244.851 126.64 244.852ZM113.208 222.187C112.903 222.187 112.611 222.308 112.395 222.524C112.18 222.739 112.059 223.032 112.058 223.336V242.644C112.059 242.949 112.18 243.241 112.395 243.456C112.611 243.672 112.903 243.793 113.208 243.794H126.64C126.944 243.793 127.237 243.672 127.452 243.456C127.668 243.241 127.789 242.949 127.789 242.644V223.336C127.789 223.032 127.668 222.739 127.452 222.524C127.237 222.308 126.944 222.187 126.64 222.187H113.208Z" fill="#E1E1E1"/>
<path d="M154.144 244.851H141.782C141.054 244.851 140.357 244.561 139.843 244.047C139.329 243.533 139.04 242.836 139.039 242.109V207.137C139.04 206.41 139.329 205.713 139.843 205.199C140.357 204.685 141.054 204.396 141.782 204.395H154.144C154.871 204.396 155.568 204.685 156.082 205.199C156.596 205.713 156.886 206.41 156.886 207.137V242.109C156.886 242.836 156.596 243.533 156.082 244.047C155.568 244.561 154.871 244.851 154.144 244.851ZM141.782 205.453C141.335 205.454 140.907 205.631 140.591 205.947C140.275 206.263 140.098 206.691 140.097 207.137V242.109C140.098 242.555 140.275 242.984 140.591 243.299C140.907 243.615 141.335 243.793 141.782 243.793H154.144C154.59 243.793 155.019 243.615 155.334 243.299C155.65 242.984 155.828 242.555 155.828 242.109V207.137C155.828 206.691 155.65 206.263 155.334 205.947C155.019 205.631 154.59 205.454 154.144 205.453H141.782Z" fill="#E1E1E1"/>
<path d="M181.931 244.851H169.569C168.842 244.851 168.144 244.561 167.63 244.047C167.116 243.533 166.827 242.836 166.826 242.109V189.242C166.827 188.515 167.116 187.818 167.63 187.304C168.144 186.79 168.842 186.501 169.569 186.5H181.931C182.658 186.501 183.355 186.79 183.869 187.304C184.383 187.818 184.673 188.515 184.673 189.242V242.109C184.673 242.836 184.383 243.533 183.869 244.047C183.355 244.561 182.658 244.851 181.931 244.851ZM169.569 187.558C169.122 187.559 168.694 187.736 168.378 188.052C168.062 188.368 167.885 188.796 167.884 189.242V242.109C167.885 242.555 168.062 242.984 168.378 243.299C168.694 243.615 169.122 243.793 169.569 243.793H181.931C182.378 243.793 182.806 243.615 183.121 243.299C183.437 242.984 183.615 242.555 183.615 242.109V189.242C183.615 188.796 183.437 188.368 183.121 188.052C182.806 187.736 182.378 187.559 181.931 187.558H169.569Z" fill="#E1E1E1"/>
<path d="M124.718 224.988H114.645V241.358H124.718V224.988Z" fill="#E1E1E1"/>
<path d="M153.001 208.787H142.928V240.459H153.001V208.787Z" fill="#E1E1E1"/>
<path d="M180.826 191H170.826V240H180.826V191Z" fill="#E1E1E1"/>
<path d="M119.814 215.506C122.444 215.506 124.576 213.374 124.576 210.744C124.576 208.114 122.444 205.982 119.814 205.982C117.185 205.982 115.053 208.114 115.053 210.744C115.053 213.374 117.185 215.506 119.814 215.506Z" fill="#E1E1E1"/>
<path d="M147.855 197.517C150.485 197.517 152.617 195.386 152.617 192.756C152.617 190.126 150.485 187.994 147.855 187.994C145.226 187.994 143.094 190.126 143.094 192.756C143.094 195.386 145.226 197.517 147.855 197.517Z" fill="#E1E1E1"/>
<path d="M175.642 179.523C178.272 179.523 180.404 177.391 180.404 174.762C180.404 172.132 178.272 170 175.642 170C173.013 170 170.881 172.132 170.881 174.762C170.881 177.391 173.013 179.523 175.642 179.523Z" fill="#E1E1E1"/>
</g>
<defs>
<clipPath id="clip0_2544_21331">
<rect width="415" height="360" fill="white"/>
</clipPath>
</defs>
</svg>
