<svg width="167" height="79" viewBox="0 0 167 79" fill="none" xmlns="http://www.w3.org/2000/svg">
<rect opacity="0.01" width="166" height="78" fill="#8F8F8F" stroke="#979797"/>
<path fill-rule="evenodd" clip-rule="evenodd" d="M96.0455 24.3085V21.2705H83.3873V33.9287H86.4253V30.1186H93.0075V33.9161H96.0455V24.2958V24.3085ZM93.0075 27.0933H86.4253V24.3085H93.0075V27.0933ZM81.362 43.1768V48.873H68.9569V45.8351H78.324V44.0629H68.9569V36.2148H81.362V39.2528H71.9949V41.0249H81.362V43.1768ZM96.0455 39.2452V36.2072H83.3873V48.8654H86.4253V45.0553H93.0075V48.8528H96.0455V39.2325V39.2452ZM93.0075 42.03H86.4253V39.2452H93.0075V42.03Z" fill="#5A17EE"/>
<path d="M98.8303 18.4933V51.5794H93.5822V57.2199L84.0936 51.9743L83.3493 51.5642H66.1797V18.4933H98.8379M102.129 15.2021H62.881V54.8705H82.5012L96.8709 62.8072V54.8705H102.121V15.2021H102.129Z" fill="#5A17EE"/>
<path fill-rule="evenodd" clip-rule="evenodd" d="M77.2886 29.1112L81.1772 27.696L81.362 27.6226V21.2783H68.9569V21.5315L68.9291 33.9365H71.9671V31.0479L74.2455 30.2226L77.6633 33.9365H81.4152L77.2886 29.1112ZM71.9721 27.815V24.3163H78.324V25.5011L71.9721 27.815Z" fill="#5A17EE"/>
</svg>
