<?xml version="1.0" encoding="utf-8"?>
<!-- Generator: Adobe Illustrator 24.2.1, SVG Export Plug-In . SVG Version: 6.00 Build 0)  -->
<svg version="1.1" id="Layer_1" xmlns="http://www.w3.org/2000/svg" xmlns:xlink="http://www.w3.org/1999/xlink" x="0px" y="0px"
	 viewBox="0 0 166 78" style="enable-background:new 0 0 166 78;" xml:space="preserve">
<style type="text/css">
	.st0{fill:none;stroke:#F9008E;stroke-miterlimit:10;}
	.st1{fill:#008690;}
	.st2{fill:#0069F0;}
	.st3{fill:#FFFFFF;}
	.st4{fill:#7E7FF1;}
	.st5{opacity:0.1;enable-background:new    ;}
	.st6{opacity:0.2;enable-background:new    ;}
	.st7{fill:#5453CF;}
	.st8{fill:#4F4EC1;}
	.st9{fill:none;}
	.st10{fill:#0071CB;}
	.st11{fill:#F71C00;}
	.st12{fill:#22317A;}
	.st13{fill:#2495E2;}
	.st14{fill:#020202;}
	.st15{fill:#242F3F;}
	.st16{fill:#FF9300;}
	.st17{clip-path:url(#SVGID_2_);}
	.st18{fill:#44CBF7;}
	.st19{fill:#00C391;}
	.st20{fill:#155A9D;}
	.st21{fill:#4893D3;}
	.st22{fill:#2173BC;}
	.st23{fill:#0D4873;}
	.st24{fill:#94BBE6;}
	.st25{fill:#63A340;}
	.st26{fill:#75BA3D;}
	.st27{fill:#6BAE41;}
	.st28{fill:#F62A2A;}
	.st29{fill:#3D81FB;}
	.st30{fill:#00AC47;}
	.st31{fill:#FFBA00;}
	.st32{fill:#F7292A;}
	.st33{clip-path:url(#SVGID_4_);}
	.st34{fill:#F96200;}
	.st35{fill:#FF9200;}
	.st36{fill:url(#SVGID_5_);}
	.st37{fill:#006FCA;}
	.st38{fill-rule:evenodd;clip-rule:evenodd;fill:#FFFFFF;}
	.st39{fill:url(#SVGID_6_);}
	.st40{fill:#00A0DE;}
	.st41{fill:#7D878F;}
	.st42{fill:#00A1E4;}
</style>
<g>
	<g>
		<path class="st19" d="M104.3,30.8c-1.1-2.5-2.6-4.8-4.5-6.7c-4-3.9-9.2-6.1-14.9-6.1h0c-3.8,0-7.5,1.1-10.9,3.1
			c-3.2,1.9-5.8,4.6-7.5,7.6c-0.1,0.3,0,0.6,0.2,0.7c0.3,0.1,0.6,0,0.7-0.2c1.6-2.8,4.1-5.4,7.1-7.2c3.2-1.9,6.8-3,10.4-3h0
			c5.3,0,10.4,2.1,14.1,5.8c3.8,3.8,5.9,8.8,5.9,14.2c0,5.3-2.1,10.3-5.9,14.1c-3.8,3.8-8.8,5.8-14.2,5.8c-3.5,0-7-0.9-10.1-2.7
			c-3-1.7-5.4-4.2-7.2-7.1c-0.1-0.2-0.5-0.3-0.7-0.2c-0.2,0.1-0.3,0.5-0.2,0.7c1.8,3.1,4.4,5.7,7.6,7.5C77.5,59,81.2,60,84.9,60
			c5.6,0,10.9-2.2,14.9-6.2c4-4,6.2-9.2,6.2-14.8C106,36.2,105.4,33.4,104.3,30.8 M62.4,33.1h6.6c0.3,0,0.5-0.2,0.5-0.5
			c0-0.3-0.2-0.5-0.5-0.5h-6.6c-0.3,0-0.5,0.2-0.5,0.5C61.9,32.8,62.2,33.1,62.4,33.1 M66.8,39.3c0-0.3-0.2-0.5-0.5-0.5h-5.8
			c-0.3,0-0.5,0.2-0.5,0.5c0,0.3,0.2,0.5,0.5,0.5h5.8C66.6,39.8,66.8,39.6,66.8,39.3 M69.1,46.1c0-0.3-0.2-0.5-0.5-0.5h-7.1
			c-0.3,0-0.5,0.2-0.5,0.5c0,0.3,0.2,0.5,0.5,0.5h7.1C68.8,46.6,69.1,46.4,69.1,46.1 M73.7,35.1c0.1,0,0.3-0.1,0.3-0.2
			c0.1-0.1,0.1-0.3,0.1-0.4c-0.4-2.3,0-4.4,1.1-6c1-1.4,2.5-2.4,4.4-2.8c3.6-0.8,7.9,0.8,9.2,5.4c0,0.1,0.1,0.3,0.3,0.3
			c0.1,0.1,0.3,0.1,0.4,0c1.4-0.7,2.9-0.7,4.2-0.1c1.3,0.6,2.2,1.8,2.6,3.3c0.1,0.2,0.2,0.3,0.4,0.4c3.4,0.6,4.9,3.2,4.8,5.5
			c0,1.2-0.5,2.4-1.3,3.3c-0.9,1-2.2,1.6-3.7,1.7h-5.8c-0.1,0-0.3,0.1-0.4,0.1l-8.8,8.2V46c0-0.3-0.2-0.5-0.5-0.5h-7.1
			c-1.4-0.1-2.6-0.7-3.5-1.7c-0.8-0.9-1.3-2.1-1.3-3.3c-0.1-1.2,0.3-2.5,1-3.4C71,36.1,72.2,35.4,73.7,35.1 M68.1,40.5
			c0.1,2.7,2,5.7,5.8,6c0,0,0,0,0,0h6.6v8.5c0,0.2,0.1,0.4,0.3,0.5c0.1,0,0.1,0,0.2,0c0.1,0,0.3,0,0.4-0.1l9.5-8.8h5.6
			c0,0,0,0,0.1,0c4-0.4,5.9-3.3,6-6c0.1-1.5-0.4-3-1.3-4.1c-0.9-1.2-2.3-2-4-2.4c-0.5-1.7-1.6-3-3-3.7c-1.4-0.6-2.9-0.7-4.5-0.1
			c-0.7-2.1-2.1-3.8-4-4.8c-1.9-1-4.1-1.3-6.2-0.8c-2.1,0.5-3.8,1.6-5,3.2c-1.2,1.7-1.7,3.9-1.4,6.3C69.5,35,68,37.9,68.1,40.5
			 M76.7,37.8c0.8,0,1.5,0.7,1.5,1.5c0,0.8-0.7,1.5-1.5,1.5s-1.5-0.7-1.5-1.5C75.2,38.5,75.9,37.8,76.7,37.8 M82.9,33.3
			c0.8,0,1.5,0.7,1.5,1.5c0,0.8-0.7,1.5-1.5,1.5s-1.5-0.7-1.5-1.5C81.3,34,82,33.3,82.9,33.3 M87.9,42c0,0.8-0.7,1.5-1.5,1.5
			c-0.8,0-1.5-0.7-1.5-1.5c0-0.8,0.7-1.5,1.5-1.5C87.3,40.5,87.9,41.2,87.9,42 M92.2,35.9c0.8,0,1.5,0.7,1.5,1.5s-0.7,1.5-1.5,1.5
			c-0.8,0-1.5-0.7-1.5-1.5S91.4,35.9,92.2,35.9 M76.7,41.8c1.4,0,2.6-1.1,2.6-2.5c0-0.4-0.1-0.7-0.2-1l2-1.6
			c0.5,0.4,1.1,0.7,1.8,0.7c0.1,0,0.3,0,0.4,0l1.4,2.9c-0.5,0.5-0.7,1.1-0.7,1.8c0,1.4,1.1,2.5,2.6,2.5c1.4,0,2.6-1.1,2.6-2.5
			c0-0.4-0.1-0.8-0.3-1.2l1.9-1.5c0.4,0.4,1,0.6,1.6,0.6c1.4,0,2.6-1.1,2.6-2.5s-1.1-2.5-2.6-2.5c-1.4,0-2.6,1.1-2.6,2.5
			c0,0.4,0.1,0.8,0.3,1.1L88,40c-0.4-0.3-1-0.6-1.6-0.6c-0.3,0-0.6,0.1-0.9,0.2l-1.3-2.7c0.7-0.5,1.2-1.2,1.2-2.1
			c0-1.4-1.1-2.5-2.6-2.5s-2.6,1.1-2.6,2.5c0,0.4,0.1,0.7,0.2,1l-2,1.6c-0.5-0.4-1.1-0.7-1.7-0.7c-1.4,0-2.6,1.1-2.6,2.5
			C74.2,40.7,75.3,41.8,76.7,41.8"/>
	</g>
</g>
</svg>
