<?xml version="1.0" encoding="utf-8"?>
<!-- Generator: Adobe Illustrator 24.2.1, SVG Export Plug-In . SVG Version: 6.00 Build 0)  -->
<svg version="1.1" id="Layer_1" xmlns="http://www.w3.org/2000/svg" xmlns:xlink="http://www.w3.org/1999/xlink" x="0px" y="0px"
	 viewBox="0 0 166 78" style="enable-background:new 0 0 166 78;" xml:space="preserve">
<style type="text/css">
	.st0{fill:none;stroke:#F9008E;stroke-miterlimit:10;}
	.st1{fill:#008690;}
	.st2{fill:#0069F0;}
	.st3{fill:#FFFFFF;}
	.st4{fill:#7E7FF1;}
	.st5{opacity:0.1;enable-background:new    ;}
	.st6{opacity:0.2;enable-background:new    ;}
	.st7{fill:#5453CF;}
	.st8{fill:#4F4EC1;}
	.st9{fill:none;}
	.st10{fill:#0071CB;}
	.st11{fill:#F71C00;}
	.st12{fill:#22317A;}
	.st13{fill:#2495E2;}
	.st14{fill:#020202;}
	.st15{fill:#242F3F;}
	.st16{fill:#FF9300;}
	.st17{clip-path:url(#SVGID_2_);}
	.st18{fill:#44CBF7;}
	.st19{fill:#00C391;}
	.st20{fill:#155A9D;}
	.st21{fill:#4893D3;}
	.st22{fill:#2173BC;}
	.st23{fill:#0D4873;}
	.st24{fill:#94BBE6;}
	.st25{fill:#63A340;}
	.st26{fill:#75BA3D;}
	.st27{fill:#6BAE41;}
	.st28{fill:#F62A2A;}
	.st29{fill:#3D81FB;}
	.st30{fill:#00AC47;}
	.st31{fill:#FFBA00;}
	.st32{fill:#F7292A;}
	.st33{clip-path:url(#SVGID_4_);}
	.st34{fill:#F96200;}
	.st35{fill:#FF9200;}
	.st36{fill:url(#SVGID_5_);}
	.st37{fill:#006FCA;}
	.st38{fill-rule:evenodd;clip-rule:evenodd;fill:#FFFFFF;}
	.st39{fill:url(#SVGID_6_);}
	.st40{fill:#00A0DE;}
	.st41{fill:#7D878F;}
	.st42{fill:#00A1E4;}
</style>
<g>
	<g>
		<polygon class="st20" points="83,23.9 76.7,17 62,24.2 62,53.8 76.7,61 83,54.1 64.8,48.7 64.8,42.3 83,44.1 83,34 69.8,35.2 
			69.6,39 64.7,32.5 69.6,24.3 69.6,28 		"/>
		<polygon class="st21" points="83,54.1 89.3,61 104,53.8 104,24.2 89.3,17 83,23.9 101.2,29.3 101.2,35.7 83,34 83,44.1 96.2,42.8 
			96.4,39 101.3,45.5 96.4,53.7 96.4,50 		"/>
		<polygon class="st22" points="89.3,17 76.7,17 83,23.9 		"/>
		<polygon class="st22" points="76.7,61 89.3,61 83,54.1 		"/>
		<polygon class="st23" points="69.6,28 88.5,31.2 101.2,29.3 83,23.9 		"/>
		<polygon class="st24" points="64.8,48.7 77.5,46.8 96.4,50 83,54.1 		"/>
		<polygon class="st20" points="88.5,31.2 88.5,34.5 101.2,35.7 101.2,29.3 		"/>
		<polygon class="st22" points="69.6,24.3 69.6,28 88.5,31.2 88.5,34.5 64.7,32.5 		"/>
		<polygon class="st24" points="64.7,32.5 69.6,39 69.8,35.2 83,34 		"/>
		<polygon class="st21" points="64.8,48.7 77.5,46.8 77.5,43.5 64.8,42.3 		"/>
		<polygon class="st22" points="101.3,45.5 83,44.1 77.5,43.5 77.5,46.8 96.4,50 96.4,53.7 		"/>
		<polygon class="st23" points="96.4,39 96.2,42.8 83,44.1 101.3,45.5 		"/>
	</g>
</g>
</svg>
