<?xml version="1.0" encoding="utf-8"?>
<!-- Generator: Adobe Illustrator 24.2.1, SVG Export Plug-In . SVG Version: 6.00 Build 0)  -->
<svg version="1.1" id="Layer_1" xmlns="http://www.w3.org/2000/svg" xmlns:xlink="http://www.w3.org/1999/xlink" x="0px" y="0px"
	 viewBox="0 0 166 78" style="enable-background:new 0 0 166 78;" xml:space="preserve">
<style type="text/css">
	.st0{fill:none;stroke:#F9008E;stroke-miterlimit:10;}
	.st1{fill:#008690;}
	.st2{fill:#0069F0;}
	.st3{fill:#FFFFFF;}
	.st4{fill:#7E7FF1;}
	.st5{opacity:0.1;enable-background:new    ;}
	.st6{opacity:0.2;enable-background:new    ;}
	.st7{fill:#5453CF;}
	.st8{fill:#4F4EC1;}
	.st9{fill:none;}
	.st10{fill:#0071CB;}
	.st11{fill:#F71C00;}
	.st12{fill:#22317A;}
	.st13{fill:#2495E2;}
	.st14{fill:#020202;}
	.st15{fill:#242F3F;}
	.st16{fill:#FF9300;}
	.st17{clip-path:url(#SVGID_2_);}
	.st18{fill:#44CBF7;}
	.st19{fill:#00C391;}
	.st20{fill:#155A9D;}
	.st21{fill:#4893D3;}
	.st22{fill:#2173BC;}
	.st23{fill:#0D4873;}
	.st24{fill:#94BBE6;}
	.st25{fill:#63A340;}
	.st26{fill:#75BA3D;}
	.st27{fill:#6BAE41;}
	.st28{fill:#F62A2A;}
	.st29{fill:#3D81FB;}
	.st30{fill:#00AC47;}
	.st31{fill:#FFBA00;}
	.st32{fill:#F7292A;}
	.st33{clip-path:url(#SVGID_4_);}
	.st34{fill:#F96200;}
	.st35{fill:#FF9200;}
	.st36{fill:url(#SVGID_5_);}
	.st37{fill:#006FCA;}
	.st38{fill-rule:evenodd;clip-rule:evenodd;fill:#FFFFFF;}
	.st39{fill:url(#SVGID_6_);}
	.st40{fill:#00A0DE;}
	.st41{fill:#7D878F;}
	.st42{fill:#00A1E4;}
</style>
<g>
	<g>
		<path class="st15" d="M71,34.5c0,0.7,0.1,1.2,0.2,1.6c0.1,0.4,0.3,0.8,0.6,1.3c0.1,0.1,0.1,0.3,0.1,0.4c0,0.2-0.1,0.4-0.3,0.6
			l-1.2,0.8c-0.2,0.1-0.3,0.2-0.5,0.2c-0.2,0-0.4-0.1-0.5-0.3c-0.3-0.3-0.5-0.6-0.7-0.9c-0.2-0.3-0.4-0.7-0.6-1.1
			c-1.4,1.7-3.2,2.5-5.4,2.5c-1.5,0-2.8-0.4-3.7-1.3c-0.9-0.9-1.4-2.1-1.4-3.5c0-1.6,0.5-2.8,1.7-3.8s2.6-1.4,4.5-1.4
			c0.6,0,1.3,0.1,1.9,0.1s1.4,0.2,2.1,0.4v-1.3c0-1.4-0.3-2.4-0.9-2.9c-0.6-0.6-1.6-0.8-3-0.8c-0.6,0-1.3,0.1-2,0.2
			c-0.7,0.2-1.3,0.4-2,0.6c-0.3,0.1-0.5,0.2-0.6,0.2c-0.1,0-0.2,0.1-0.3,0.1c-0.3,0-0.4-0.2-0.4-0.6v-0.9c0-0.3,0-0.5,0.1-0.6
			c0.1-0.1,0.3-0.3,0.5-0.4c0.6-0.3,1.4-0.6,2.3-0.8c0.9-0.2,1.8-0.3,2.9-0.3c2.2,0,3.8,0.5,4.8,1.5c1,1,1.5,2.5,1.5,4.5L71,34.5
			L71,34.5z M63.6,37.3c0.6,0,1.2-0.1,1.9-0.3c0.7-0.2,1.2-0.6,1.7-1.2c0.3-0.3,0.5-0.7,0.6-1.2s0.2-1,0.2-1.6v-0.8
			c-0.5-0.1-1.1-0.2-1.7-0.3c-0.6-0.1-1.2-0.1-1.7-0.1c-1.2,0-2.1,0.2-2.7,0.7C61.3,33,61,33.7,61,34.7c0,0.9,0.2,1.5,0.7,1.9
			C62.1,37.1,62.7,37.3,63.6,37.3L63.6,37.3z M78.3,39.3c-0.3,0-0.5-0.1-0.7-0.2c-0.1-0.1-0.3-0.4-0.4-0.7l-4.3-14.2
			c-0.1-0.4-0.2-0.6-0.2-0.7c0-0.3,0.1-0.5,0.4-0.5H75c0.3,0,0.6,0.1,0.7,0.2c0.1,0.1,0.3,0.4,0.4,0.7L79.1,36L82,23.9
			c0.1-0.4,0.2-0.6,0.3-0.7c0.1-0.1,0.4-0.2,0.7-0.2h1.5c0.3,0,0.6,0.1,0.7,0.2c0.1,0.1,0.3,0.4,0.3,0.7l2.9,12.3l3.2-12.3
			c0.1-0.4,0.2-0.6,0.4-0.7c0.1-0.1,0.4-0.2,0.7-0.2h1.7c0.3,0,0.5,0.1,0.5,0.5c0,0.1,0,0.2,0,0.3c0,0.1-0.1,0.3-0.1,0.5l-4.4,14.2
			c-0.1,0.4-0.2,0.6-0.4,0.7c-0.1,0.1-0.4,0.2-0.7,0.2h-1.6c-0.3,0-0.6-0.1-0.7-0.2s-0.3-0.4-0.3-0.7l-2.8-11.8l-2.8,11.8
			c-0.1,0.4-0.2,0.6-0.3,0.7s-0.4,0.2-0.7,0.2H78.3z M101.8,39.8c-1,0-1.9-0.1-2.8-0.3c-0.9-0.2-1.6-0.5-2.1-0.7
			c-0.3-0.2-0.5-0.3-0.6-0.5c-0.1-0.2-0.1-0.3-0.1-0.5v-0.9c0-0.4,0.1-0.6,0.4-0.6c0.1,0,0.2,0,0.3,0.1s0.3,0.1,0.5,0.2
			c0.6,0.3,1.3,0.5,2,0.6c0.7,0.1,1.4,0.2,2.2,0.2c1.2,0,2-0.2,2.7-0.6s1-1,1-1.7c0-0.5-0.2-0.9-0.5-1.3c-0.3-0.3-1-0.7-1.8-1
			l-2.7-0.8c-1.3-0.4-2.3-1-2.9-1.9c-0.6-0.8-0.9-1.7-0.9-2.7c0-0.8,0.2-1.4,0.5-2c0.3-0.6,0.8-1.1,1.3-1.5c0.5-0.4,1.2-0.7,1.9-1
			c0.7-0.2,1.5-0.3,2.3-0.3c0.4,0,0.8,0,1.2,0.1c0.4,0.1,0.8,0.1,1.2,0.2c0.4,0.1,0.7,0.2,1,0.3c0.3,0.1,0.6,0.2,0.8,0.3
			c0.3,0.1,0.4,0.3,0.5,0.5c0.1,0.1,0.2,0.3,0.2,0.6v0.9c0,0.4-0.1,0.6-0.4,0.6c-0.1,0-0.4-0.1-0.7-0.2c-1-0.5-2.2-0.7-3.5-0.7
			c-1,0-1.9,0.2-2.4,0.5s-0.9,0.9-0.9,1.6c0,0.5,0.2,1,0.5,1.3c0.4,0.3,1,0.7,2,1l2.6,0.8c1.3,0.4,2.3,1,2.8,1.8
			c0.6,0.8,0.8,1.6,0.8,2.6c0,0.8-0.2,1.5-0.5,2.1c-0.3,0.6-0.8,1.2-1.3,1.6c-0.6,0.5-1.2,0.8-2,1C103.6,39.6,102.7,39.8,101.8,39.8
			L101.8,39.8z"/>
		<path class="st16" d="M105.2,48.7c-6,4.5-14.8,6.8-22.3,6.8c-10.5,0-20-3.9-27.2-10.4c-0.6-0.5-0.1-1.2,0.6-0.8
			c7.8,4.5,17.3,7.2,27.2,7.2c6.7,0,14-1.4,20.8-4.3C105.4,46.8,106.2,47.9,105.2,48.7L105.2,48.7z"/>
		<path class="st16" d="M107.7,45.8c-0.8-1-5.1-0.5-7-0.2c-0.6,0.1-0.7-0.4-0.1-0.8c3.4-2.4,9.1-1.7,9.7-0.9
			c0.7,0.8-0.2,6.5-3.4,9.2c-0.5,0.4-1,0.2-0.7-0.3C106.9,50.9,108.5,46.8,107.7,45.8z"/>
	</g>
</g>
</svg>
