<?xml version="1.0" encoding="utf-8"?>
<!-- Generator: Adobe Illustrator 24.2.1, SVG Export Plug-In . SVG Version: 6.00 Build 0)  -->
<svg version="1.1" id="Layer_1" xmlns="http://www.w3.org/2000/svg" xmlns:xlink="http://www.w3.org/1999/xlink" x="0px" y="0px"
	 viewBox="0 0 166 78" style="enable-background:new 0 0 166 78;" xml:space="preserve">
<style type="text/css">
	.st0{fill:none;stroke:#F9008E;stroke-miterlimit:10;}
	.st1{fill:#008690;}
	.st2{fill:#0069F0;}
	.st3{fill:#FFFFFF;}
	.st4{fill:#7E7FF1;}
	.st5{opacity:0.1;enable-background:new    ;}
	.st6{opacity:0.2;enable-background:new    ;}
	.st7{fill:#5453CF;}
	.st8{fill:#4F4EC1;}
	.st9{fill:none;}
	.st10{fill:#0071CB;}
	.st11{fill:#F71C00;}
	.st12{fill:#22317A;}
	.st13{fill:#2495E2;}
	.st14{fill:#020202;}
	.st15{fill:#242F3F;}
	.st16{fill:#FF9300;}
	.st17{clip-path:url(#SVGID_2_);}
	.st18{fill:#44CBF7;}
	.st19{fill:#00C391;}
	.st20{fill:#155A9D;}
	.st21{fill:#4893D3;}
	.st22{fill:#2173BC;}
	.st23{fill:#0D4873;}
	.st24{fill:#94BBE6;}
	.st25{fill:#63A340;}
	.st26{fill:#75BA3D;}
	.st27{fill:#6BAE41;}
	.st28{fill:#F62A2A;}
	.st29{fill:#3D81FB;}
	.st30{fill:#00AC47;}
	.st31{fill:#FFBA00;}
	.st32{fill:#F7292A;}
	.st33{clip-path:url(#SVGID_4_);}
	.st34{fill:#F96200;}
	.st35{fill:#FF9200;}
	.st36{fill:url(#SVGID_5_);}
	.st37{fill:#006FCA;}
	.st38{fill-rule:evenodd;clip-rule:evenodd;fill:#FFFFFF;}
	.st39{fill:url(#SVGID_6_);}
	.st40{fill:#00A0DE;}
	.st41{fill:#7D878F;}
	.st42{fill:#00A1E4;}
</style>
<g>
	<g id="g10" transform="matrix(1.3333333,0,0,-1.3333333,0,173.33333)">
		<g id="g12" transform="scale(0.1)">
			<g id="g100">
				<g>
					<defs>
						<path id="SVGID_1_" d="M622.5,1165c-87,0-157.5-70.5-157.5-157.5c0-79.9,59.4-145.8,136.5-156.1v31.7c0,8.9-5.6,17-14.1,19.8
							c-44.5,14.9-76.3,57.4-75.1,107.2c1.4,60.6,50.8,108.2,111.4,107.6c60.4-0.6,109.1-49.7,109.1-110.2c0-1.4,0-2.8-0.1-4.1
							c0-0.3,0-0.6,0-0.9c-0.1-1.3-0.1-2.5-0.2-3.8c0-0.4-0.1-0.8-0.1-1.2c-0.1-0.9-0.2-1.8-0.3-2.6c-0.1-1-0.2-2-0.4-3
							c-0.1-0.4-0.1-0.9-0.2-1.3C718,901.6,602.1,851.7,601.5,851.4c6.9-0.9,13.9-1.4,21-1.4c87,0,157.5,70.5,157.5,157.5
							C780,1094.5,709.5,1165,622.5,1165"/>
					</defs>
					<clipPath id="SVGID_2_">
						<use xlink:href="#SVGID_1_"  style="overflow:visible;"/>
					</clipPath>
					<g id="g102" class="st17">
						<path id="path108" class="st18" d="M441.1,826.1h362.8v362.8H441.1V826.1"/>
					</g>
				</g>
			</g>
		</g>
	</g>
</g>
</svg>
