<svg xmlns="http://www.w3.org/2000/svg" width="26" height="26" viewBox="0 0 26 26">
  <defs>
    <style>
      .cls-1 {
        fill: #fff;
        fill-rule: evenodd;
      }
    </style>
  </defs>
  <path id="in.svg" class="cls-1" d="M659.979,571.7v-0.039c-0.007.013-.018,0.027-0.026,0.039h0.026Zm10.1-11.734h-22.16A1.893,1.893,0,0,0,646,561.826v22.288a1.893,1.893,0,0,0,1.921,1.864h22.16A1.9,1.9,0,0,0,672,584.114V561.826A1.9,1.9,0,0,0,670.077,559.962Zm-16.2,21.777h-3.928V569.992h3.928v11.747Zm-1.965-13.35h-0.025A2.246,2.246,0,1,1,651.914,568.389Zm16.126,13.35h-3.927v-6.284c0-1.579-.568-2.657-1.989-2.657a2.149,2.149,0,0,0-2.015,1.429,2.647,2.647,0,0,0-.13.952v6.56h-3.928s0.052-10.645,0-11.747h3.928v1.665a3.9,3.9,0,0,1,3.54-1.941c2.584,0,4.521,1.68,4.521,5.288v6.735Z" transform="translate(-646 -559.969)"/>
</svg>
