<?xml version="1.0" encoding="utf-8"?>
<!-- Generator: Adobe Illustrator 23.0.3, SVG Export Plug-In . SVG Version: 6.00 Build 0)  -->
<svg version="1.1" id="Layer_1" xmlns="http://www.w3.org/2000/svg" xmlns:xlink="http://www.w3.org/1999/xlink" x="0px" y="0px"
	 viewBox="0 0 1236.8 1203.3" style="enable-background:new 0 0 1236.8 1203.3;" xml:space="preserve">
<style type="text/css">
	.st0{opacity:0.2;fill:#727272;}
	.st1{opacity:0.1;fill:#727272;}
	.st2{opacity:0.3;fill:#727272;}
	.st3{fill:#E26F66;}
	.st4{fill:#C14736;}
	.st5{fill:#F1563C;}
	.st6{fill:#FFFFFF;}
	.st7{opacity:0.5;fill:#E2E2E2;}
	.st8{opacity:0.3;fill:#D4ECFF;}
	.st9{fill:url(#SVGID_1_);}
	.st10{fill:url(#SVGID_2_);}
	.st11{fill:url(#SVGID_3_);}
	.st12{fill:#5E5E5E;}
	.st13{fill:url(#SVGID_4_);}
	.st14{fill:url(#SVGID_5_);}
	.st15{fill:none;stroke:#FFFFFF;stroke-width:0.25;stroke-miterlimit:10;}
	.st16{fill:#B8BCFC;}
	.st17{fill:none;stroke:#FFFFFF;stroke-width:0.75;stroke-miterlimit:10;}
	.st18{fill:#ECF3FA;}
	.st19{opacity:0.3;}
	.st20{fill:#727272;}
	.st21{fill:none;stroke:#FFFFFF;stroke-miterlimit:10;}
	.st22{enable-background:new    ;}
	.st23{fill:#E3DEDA;}
	.st24{fill:#DBB391;}
	.st25{fill:#DBD5D1;}
	.st26{fill:#898989;}
	.st27{opacity:0.7;fill:#A17E85;}
	.st28{fill:#CAC1B8;}
	.st29{fill:#F5F1EE;}
	.st30{fill:url(#SVGID_6_);}
	.st31{fill:#ADADAD;}
	.st32{fill:url(#SVGID_7_);}
	.st33{fill:#69544B;}
	.st34{fill:#4E3F38;}
	.st35{fill:#3B2F2A;}
	.st36{fill:url(#SVGID_8_);}
	.st37{fill:#383A35;}
	.st38{fill:url(#SVGID_9_);}
	.st39{fill:url(#SVGID_10_);}
</style>
<g>
	<g>
		<path class="st4" d="M1022.1,143.1L838.6,249.3c-14.8,8.5-33,8.5-47.7,0L613.2,146.9c-6.2-3.6-9.3-9.8-9.3-16v31.2h0
			c0,6.2,3.1,12.4,9.2,15.9l177.7,102.4c14.8,8.5,33,8.5,47.7,0l183.5-106.2c5-2.9,7.4-7.9,7.4-12.9v-30.9
			C1029.5,135.4,1027,140.3,1022.1,143.1z"/>
		<path class="st3" d="M790.7,250.4L613,148.1c-6.5-4.6-9-10.9-9-17.2v31.2h0c0,6.2,3.1,12.4,9.2,15.9l177.7,102.4
			c2.9,1.7,5.8,3,8.9,4l-0.2-30C796.5,253.4,793.5,252.1,790.7,250.4z"/>
		<path class="st3" d="M813.5,256.7v30.1c4.7,0.1,9.4-0.4,13.9-1.7V255C822.9,256.3,818.2,256.8,813.5,256.7z"/>
		<g>
			<path class="st5" d="M1022.1,114.9L832.6,5.7c-10.9-6.3-24.3-6.3-35.2,0L613.2,112.2c-12.3,7.1-12.4,24.9,0,32.1l177.7,102.4
				c14.8,8.5,33,8.5,47.7,0l183.5-106.2C1032,134.8,1032,120.6,1022.1,114.9z"/>
			<polygon class="st6" points="653.6,127.1 807.7,216.1 816.8,210.8 662.7,121.9 			"/>
			<polygon class="st6" points="677,113.4 831.1,202.3 840.1,197.1 686.1,108.1 			"/>
			<polygon class="st6" points="700,99.9 763.3,136.6 772.3,131.4 709.1,94.7 			"/>
			<polygon class="st6" points="863.1,169 865.9,171.5 875.7,165.9 873.7,162.8 			"/>
			<polygon class="st6" points="860.4,163 863.5,165.4 873.1,159.8 872,156.3 			"/>
			<path class="st6" d="M881.4,74.4c-7.6-4.5-20-4.5-27.6,0c-7.6,4.5-7.5,11.8,0.1,16.3c7.6,4.5,20,4.5,27.6,0
				C889.1,86.2,889.1,78.9,881.4,74.4z"/>
			<path class="st21" d="M898.6,65c-29.1-17.1-76.3-17.1-105.3,0c-28.9,17.1-28.8,45,0.3,62.1c29.1,17.1,76.3,17.1,105.3,0
				C927.9,110,927.7,82.1,898.6,65z"/>
			<path class="st6" d="M846,128.7c0,0,28.4-20,0.7-35.8c-24.9-14.2-50.8,6.7-50.8,6.7L846,128.7z"/>
			<path class="st6" d="M875.3,169.4l-7.7,5.2l-9.4-33.3l8.6-1.4 M872.1,137.5l-19.3,3.3l11.7,41.6l17.2-10.8L872.1,137.5z"/>
		</g>
		<path class="st6" d="M1019,141.8L837.7,246.7c-6.9,4-14.8,6.1-22.9,6.1c-8.1,0-16-2.1-22.9-6.1L616.4,145.6
			c-5.3-3.1-12.2-10.6-12.2-16.7c-0.1,0.7-0.1,1.4-0.1,2.1c0,7.5,3.9,14.3,10.4,18.1l175.5,101.1c7.7,4.4,16.3,6.6,24.9,6.6
			c8.6,0,17.2-2.2,24.8-6.6l181.3-104.9c5.4-3.1,8.6-8.7,8.6-14.9C1029.5,135.1,1023.1,139.4,1019,141.8z"/>
	</g>
	<g>
		<path class="st4" d="M492.4,580.6L237.2,726.9c-14.8,8.5-33,8.5-47.7,0L11.8,624.5c-6.2-3.6-9.3-9.8-9.3-16v31.2h0
			c0,6.2,3.1,12.4,9.2,15.9L189.5,758c14.8,8.5,33,8.5,47.7,0l255.3-146.3c5-2.9,7.4-7.9,7.4-12.9v-30.9
			C499.8,572.9,497.3,577.8,492.4,580.6z"/>
		<path class="st3" d="M189.2,727.6L11.5,625.2c-6.5-4.6-9-10.9-9-17.2v31.2h0c0,6.2,3.1,12.4,9.2,15.9l177.7,102.4
			c2.9,1.7,5.8,3,8.9,4l-0.2-30C195.1,730.6,192.1,729.2,189.2,727.6z"/>
		<path class="st3" d="M212,734.3v30.1c4.7,0.1,9.4-0.4,13.9-1.7v-30.1C221.4,733.9,216.7,734.4,212,734.3z"/>
		<path class="st5" d="M492.4,558.1L302.9,448.8c-10.9-6.3-24.3-6.3-35.2,0L11.8,596.7c-12.3,7.1-12.4,24.9,0,32.1l177.7,102.4
			c14.8,8.5,33,8.5,47.7,0l255.3-147.5C502.3,578,502.3,563.8,492.4,558.1z"/>
		<path class="st6" d="M489.3,583.5l-253,147c-6.9,4-14.8,6.1-22.9,6.1c-8.1,0-16-2.1-22.9-6.1L14.9,629.3
			c-5.3-3.1-12.2-10.6-12.2-16.7c-0.1,0.7-0.1,1.4-0.1,2.1c0,7.5,3.9,14.3,10.4,18.1l175.5,101.1c7.7,4.4,16.3,6.6,24.9,6.6
			c8.6,0,17.2-2.2,24.8-6.6l253-147c5.4-3.1,8.6-8.7,8.6-14.9C499.8,576.8,493.5,581.1,489.3,583.5z"/>
		<g>
			<rect x="247.1" y="520.6" class="st4" width="99.4" height="55.8"/>
			<g>
				<path class="st6" d="M345.3,584.1h-97.5c-4.5,0-8.1-3.6-8.1-8.1l0-53.8c0-4.5,3.7-8.1,8.1-8.1h97.5c4.5,0,8.1,3.6,8.1,8.1
					l0,53.8C353.5,580.5,349.8,584.1,345.3,584.1z M250,573.8h93.2l0-49.5H250L250,573.8z"/>
			</g>
			<path class="st6" d="M317.7,599.6c-0.9-1.8-2.6-2.8-4.6-2.8l-93.2,0c-1.3,0-2.4-1.1-2.4-2.4l0-49.5c0-1.9-1-3.6-2.7-4.5
				c-1.8-1-3.9-0.8-5.6,0.4c-1.3,1-2,2.7-2,4.4l0,53c0,4.8,3.9,8.8,8.8,8.8h96.7c1.7,0,3.3-0.6,4.4-1.9
				C318.4,603.5,318.6,601.4,317.7,599.6z"/>
			<path class="st6" d="M289.1,620.5c-0.9-1.8-2.6-2.8-4.6-2.8l-93.1,0c-1.4,0-2.5-1.1-2.5-2.5l0-49.3c0-1.9-1-3.6-2.7-4.5
				c-1.8-1-3.9-0.8-5.6,0.4c-1.3,1-2,2.7-2,4.4l0,53c0,4.8,3.9,8.8,8.8,8.8h96.7c1.7,0,3.3-0.6,4.4-1.9
				C289.8,624.4,290,622.2,289.1,620.5z"/>
			<path class="st6" d="M262.2,642.8c-0.9-1.8-2.6-2.8-4.6-2.8l-93.6,0c-1.1,0-1.9-0.9-1.9-1.9l0-49.9c0-1.9-1-3.6-2.7-4.5
				c-1.8-1-3.9-0.8-5.6,0.4c-1.3,1-2,2.7-2,4.4l0,53c0,4.8,3.9,8.8,8.8,8.8l96.7,0c1.7,0,3.3-0.6,4.4-1.9
				C262.9,646.8,263.1,644.6,262.2,642.8z"/>
		</g>
	</g>
	<g>
		<g>
			<path class="st4" d="M900.8,1059.6l-183.5,106.2c-14.8,8.5-33,8.5-47.7,0l-177.7-102.4c-6.2-3.6-9.3-9.8-9.3-16v31.2h0
				c0,6.2,3.1,12.4,9.2,15.9l177.7,102.4c14.8,8.5,33,8.5,47.7,0l183.5-106.2c5-2.9,7.4-7.9,7.4-12.9v-30.9
				C908.1,1051.8,905.7,1056.7,900.8,1059.6z"/>
			<path class="st3" d="M669.3,1166.9l-177.7-102.4c-6.5-4.6-9-10.9-9-17.2v31.2h0c0,6.2,3.1,12.4,9.2,15.9l177.7,102.4
				c2.9,1.7,5.8,3,8.9,4l-0.2-30C675.2,1169.8,672.2,1168.5,669.3,1166.9z"/>
			<path class="st3" d="M692.2,1173.1v30.1c4.7,0.1,9.4-0.4,13.9-1.7v-30.1C701.5,1172.7,696.9,1173.2,692.2,1173.1z"/>
			<g>
				<path class="st5" d="M900.8,1031.3L711.3,922.1c-10.9-6.3-24.3-6.3-35.2,0l-184.2,106.5c-12.3,7.1-12.4,24.9,0,32.1l177.7,102.4
					c14.8,8.5,33,8.5,47.7,0l183.5-106.2C910.7,1051.2,910.7,1037,900.8,1031.3z"/>
			</g>
			<path class="st6" d="M897.6,1058.2l-181.3,104.9c-6.9,4-14.8,6.1-22.9,6.1c-8.1,0-16-2.1-22.9-6.1L495,1062
				c-5.3-3.1-12.2-10.6-12.2-16.7c-0.1,0.7-0.1,1.4-0.1,2.1c0,7.5,3.9,14.3,10.4,18.1l175.5,101.1c7.7,4.4,16.3,6.6,24.9,6.6
				c8.6,0,17.2-2.2,24.8-6.6l181.3-104.9c5.4-3.1,8.6-8.7,8.6-14.9C908.2,1051.5,901.8,1055.8,897.6,1058.2z"/>
		</g>
		<g>
			<path class="st6" d="M776.9,990.9c-12.4-7.2-32.6-7.1-45,0c-6.3,3.7-9.8,8.6-9.8,14c0,5.4,3.5,10.3,9.8,14
				c6.2,3.6,14.3,5.4,22.5,5.4c8.1,0,16.3-1.8,22.5-5.4c6.3-3.7,9.8-8.6,9.8-14C786.7,999.5,783.2,994.5,776.9,990.9z M776.8,1004.9
				c0,3.1-2.2,6-6.2,8.3c-8.9,5.2-23.5,5.2-32.5,0c-4-2.3-6.2-5.3-6.2-8.3c0-3.1,2.2-6,6.2-8.3c4.5-2.6,10.4-3.9,16.2-3.9
				c5.9,0,11.8,1.3,16.2,3.9C774.6,998.8,776.8,1001.8,776.8,1004.9z"/>
			<path class="st6" d="M726.8,1063.5c11.7-6.8,17.4-13.4,17.4-20.3c0-9.4-11-17-20.6-22.5c-18.3-10.5-40.9-19-70.7-1.8l-4.9,2.8
				l75.6,43.7L726.8,1063.5z M734.2,1043.1c0.1,4-3.5,8.3-10.7,12.9l-59.3-34.2c14.7-7.3,29.8-8.9,53.1,4.6
				C728.9,1033,734.1,1038.2,734.2,1043.1z"/>
			<path class="st6" d="M738.9,1083.4l-122.2-70.6c-4.5-2.6-11.6-2.6-16.1,0l-12.4,7.2c-2.5,1.4-3.9,3.5-3.9,5.7
				c0,2.1,1.2,4,3.4,5.4l-19,15c-2.7,1.6-4.1,3.8-4.1,6.3c0,2.4,1.5,4.6,4.3,6.2l94.4,54.5c2.5,1.5,5.8,2.2,9.1,2.2
				c3.2,0,6.3-0.7,8.7-2l28.2-11.9l1,0.6c4.5,2.6,11.6,2.6,16.1,0l12.4-7.2c2.5-1.4,3.9-3.5,3.9-5.7
				C742.7,1086.9,741.4,1084.9,738.9,1083.4z M675.7,1107.2l-0.5,0.2c-1.5,0.9-4.2,0.9-5.7,0l-94.4-54.5c-0.5-0.3-0.6-0.6-0.6-0.6
				c0,0,0.1-0.3,0.9-0.8l26.9-21.2l-7.8-4.6l12.4-7.2c0.5-0.3,1.2-0.4,1.9-0.4c0.7,0,1.3,0.1,1.8,0.4l122.2,70.6l-12.4,7.2
				c-1,0.6-2.7,0.6-3.6,0l-6.4-3.7L675.7,1107.2z"/>
			<path class="st6" d="M668.3,1056.4l-2.6-1.5c-1.8-1-3.6-1-5.4,0l-2.1,1.2c-1.1,0.6-1.6,1.4-1.6,2.2s0.6,1.6,1.6,2.2l2.6,1.5
				c0.9,0.5,1.8,0.8,2.7,0.8c0.9,0,1.8-0.3,2.7-0.8l2.1-1.2c1.1-0.6,1.6-1.4,1.6-2.2C670,1057.7,669.4,1057,668.3,1056.4z"/>
			<path class="st6" d="M656,1062.1l-4.7-2.7c-0.9-0.5-3.7-2.1-6.5-0.5c-1.3,0.7-1.5,1.6-1.5,2.2c0,1.4,1.4,2.3,2.4,2.9l1.8,1
				l-13.8,8l-2.9-1.7c-0.9-0.5-3.7-2.1-6.5-0.5c-1.3,0.7-1.5,1.6-1.5,2.2c0,1.4,1.4,2.3,2.4,2.9l11.4,6.6c1.4,0.8,2.7,1.2,3.9,1.2
				c0.9,0,1.8-0.2,2.6-0.7c1-0.6,1.6-1.3,1.6-2.2c0-1.3-1.3-2.3-2.4-2.9l-1.6-0.9l15.7-9.1c1.2-0.7,2.5-1.5,2.5-2.8
				C658.6,1063.7,657.4,1062.9,656,1062.1z"/>
		</g>
	</g>
	<g>
		<path class="st4" d="M827.5,698.1L827.5,698.1l0,0.2C827.5,698.2,827.5,698.1,827.5,698.1z"/>
		<path class="st5" d="M827.5,698.1L827.5,698.1l0,0.2C827.5,698.2,827.5,698.1,827.5,698.1z"/>
		<path class="st4" d="M947.4,656.6L947.4,656.6l0,0.2C947.4,656.7,947.4,656.6,947.4,656.6z"/>
		<path class="st5" d="M947.4,656.6L947.4,656.6l0,0.2C947.4,656.7,947.4,656.6,947.4,656.6z"/>
		<path class="st4" d="M1218.6,542.3l-155.6,89.8c-13.6,7.9-30.3,1.4-43.9-6.4L829.8,515c-5.7-3.3-8.5-9-8.5-14.8v81.6h0
			c0,5.7,2.9,11.4,8.5,14.7l189.3,110.7c13.6,7.9,30.3,14.3,43.9,6.4l155.6-89.8c4.6-2.6,6.9-7.3,6.8-11.9v-81.3
			C1225.4,535.2,1223.2,539.7,1218.6,542.3z"/>
		<path class="st3" d="M1027.2,630.4L828.4,514.5c-5.4-3.8-7.5-9.1-7.5-14.3v81.6h0c0,5.2,3.8,11.8,8.9,14.7l185.8,108.6
			c5.9,4.1,16.6,8.6,19.1,9.4l-0.3-81C1031.8,632.7,1029.6,631.8,1027.2,630.4z"/>
		<path class="st3" d="M1046.2,635.7l0.1,81.3c4.1,0.3,8.3,0.1,12.8-1.5v-81.6C1054.6,635,1050.5,636.1,1046.2,635.7z"/>
		<path class="st6" d="M1217.1,585.3l-150.9,87.3c-5.8,3.3-12.4,5.1-19.1,5.1c-6.7,0-13.3-1.8-19.1-5.1L831.2,559.2
			c-4.4-2.5-10.1-8.8-10.2-13.9c-0.1,0.6-0.1,1.1-0.1,1.7c0,6.3,3.2,11.9,8.7,15l196.9,113.4c6.4,3.7,13.5,5.5,20.7,5.5
			c7.1,0,14.3-1.8,20.7-5.5l150.9-87.3c4.5-2.6,7.1-7.2,7.1-12.4C1225.9,579.8,1220.5,583.3,1217.1,585.3z"/>
		<g>
			<path class="st5" d="M1219.3,521l-208.1-121.1c-9.1-5.2-20.2-5.2-29.3,0l-153,88.5c-10.3,5.9-10.3,20.7,0,26.6l198.3,115.4
				c12.3,7.1,27.4,7.1,39.6,0l152.4-88.2C1227.5,537.5,1227.5,525.7,1219.3,521z"/>
		</g>
		<g>
			<g>
				<g>
					<g class="st22">
						<g>
							<polygon class="st23" points="874.8,541.6 876.3,542.4 1066.3,432.4 1066.3,430.7 							"/>
						</g>
						<g>
							<polygon class="st6" points="858.3,532.1 874.8,541.6 1066.3,430.7 1049.9,421.2 							"/>
						</g>
					</g>
				</g>
				<g>
					<polygon class="st24" points="987.6,468.2 985.4,469.5 983.2,468.2 985.4,467 					"/>
					<polygon class="st25" points="987.6,468.2 986.5,468.9 985.4,468.2 985.4,467 					"/>
					<polygon class="st26" points="985.4,468.2 985.4,467 983.2,468.2 984.3,468.9 					"/>
					<polygon class="st27" points="984.3,468.9 985.4,468.2 986.5,468.9 985.4,469.5 					"/>
				</g>
				<g>
					<polygon class="st24" points="1004.4,458.5 1002.2,459.8 1000,458.5 1002.2,457.2 					"/>
					<polygon class="st25" points="1004.4,458.5 1003.3,459.2 1002.2,458.5 1002.2,457.2 					"/>
					<polygon class="st26" points="1002.2,458.5 1002.2,457.2 1000,458.5 1001.1,459.1 					"/>
					<polygon class="st27" points="1001.1,459.1 1002.2,458.5 1003.3,459.2 1002.2,459.8 					"/>
				</g>
				<g>
					<polygon class="st24" points="1012.1,454.1 1009.9,455.4 1007.7,454.1 1009.9,452.8 					"/>
					<polygon class="st25" points="1012.1,454.1 1011,454.7 1009.9,454.1 1009.9,452.8 					"/>
					<polygon class="st26" points="1009.9,454.1 1009.9,452.8 1007.7,454.1 1008.8,454.7 					"/>
					<polygon class="st27" points="1008.8,454.7 1009.9,454.1 1011,454.7 1009.9,455.4 					"/>
				</g>
				<g>
					<polygon class="st24" points="980.1,472.6 977.9,473.9 975.7,472.6 977.9,471.3 					"/>
					<polygon class="st25" points="980.1,472.6 979,473.2 977.9,472.6 977.9,471.3 					"/>
					<polygon class="st26" points="977.9,472.6 977.9,471.3 975.7,472.6 976.8,473.2 					"/>
					<polygon class="st27" points="976.8,473.2 977.9,472.6 979,473.2 977.9,473.9 					"/>
				</g>
				<g>
					<polygon class="st24" points="972.5,477 970.3,478.2 968.1,477 970.3,475.7 					"/>
					<polygon class="st25" points="972.5,477 971.4,477.6 970.3,477 970.3,475.7 					"/>
					<polygon class="st26" points="970.3,477 970.3,475.7 968.1,477 969.2,477.6 					"/>
					<polygon class="st27" points="969.2,477.6 970.3,477 971.4,477.6 970.3,478.2 					"/>
				</g>
				<g>
					<g class="st22">
						<g>
							<polygon class="st28" points="992.1,463.9 992.1,465.6 996.5,463.1 996.5,461.4 							"/>
						</g>
						<g>
							<polygon class="st28" points="998.8,469.9 998.8,474.8 1000.6,473.8 1000.6,468.9 							"/>
						</g>
						<g>
							<polygon class="st23" points="979.8,458.8 979.8,462 981,461.3 997.3,470.8 997.3,472.5 996,473.2 998.8,474.8 998.8,469.9 
															"/>
						</g>
						<g>
							<polygon class="st29" points="979.8,458.8 998.8,469.9 1000.6,468.9 992.1,463.9 996.5,461.4 994.9,460.4 990.5,463 
								981.6,457.8 							"/>
						</g>
					</g>
				</g>
			</g>
			<g>
				<g>
					<g class="st22">
						<g>
							<polygon class="st23" points="969.9,596.7 971.4,597.5 1161.6,487.4 1161.6,485.7 							"/>
						</g>
						<g>
							<polygon class="st6" points="953.4,587.2 969.9,596.7 1161.6,485.7 1145.3,476.2 							"/>
						</g>
					</g>
				</g>
				<g>
					<polygon class="st24" points="1082.7,523.3 1080.5,524.6 1078.3,523.3 1080.5,522.1 					"/>
					<polygon class="st25" points="1082.7,523.3 1081.6,524 1080.5,523.3 1080.5,522.1 					"/>
					<polygon class="st26" points="1080.5,523.3 1080.5,522.1 1078.3,523.3 1079.4,524 					"/>
					<polygon class="st27" points="1079.4,524 1080.5,523.3 1081.6,524 1080.5,524.6 					"/>
				</g>
				<g>
					<polygon class="st24" points="1099.5,513.6 1097.3,514.9 1095.1,513.6 1097.3,512.4 					"/>
					<polygon class="st25" points="1099.5,513.6 1098.4,514.3 1097.3,513.6 1097.3,512.4 					"/>
					<polygon class="st26" points="1097.3,513.6 1097.3,512.4 1095.1,513.6 1096.2,514.3 					"/>
					<polygon class="st27" points="1096.2,514.3 1097.3,513.6 1098.4,514.3 1097.3,514.9 					"/>
				</g>
				<g>
					<polygon class="st24" points="1107.2,509.2 1105,510.5 1102.8,509.2 1105,507.9 					"/>
					<polygon class="st25" points="1107.2,509.2 1106.1,509.8 1105,509.2 1105,507.9 					"/>
					<polygon class="st26" points="1105,509.2 1105,507.9 1102.8,509.2 1103.9,509.8 					"/>
					<polygon class="st27" points="1103.9,509.8 1105,509.2 1106.1,509.8 1105,510.5 					"/>
				</g>
				<g>
					<polygon class="st24" points="1075.2,527.7 1073,529 1070.7,527.7 1073,526.4 					"/>
					<polygon class="st25" points="1075.2,527.7 1074.1,528.3 1073,527.7 1073,526.4 					"/>
					<polygon class="st26" points="1073,527.7 1073,526.4 1070.7,527.7 1071.8,528.3 					"/>
					<polygon class="st27" points="1071.8,528.3 1073,527.7 1074.1,528.3 1073,529 					"/>
				</g>
				<g>
					<polygon class="st24" points="1067.6,532.1 1065.4,533.3 1063.2,532.1 1065.4,530.8 					"/>
					<polygon class="st25" points="1067.6,532.1 1066.5,532.7 1065.4,532.1 1065.4,530.8 					"/>
					<polygon class="st26" points="1065.4,532.1 1065.4,530.8 1063.2,532.1 1064.3,532.7 					"/>
					<polygon class="st27" points="1064.3,532.7 1065.4,532.1 1066.5,532.7 1065.4,533.3 					"/>
				</g>
				<g>
					<g class="st22">
						<g>
							<polygon class="st28" points="1087.2,519 1087.2,520.8 1091.6,518.2 1091.6,516.5 							"/>
						</g>
						<g>
							<polygon class="st28" points="1093.9,525 1093.9,529.9 1095.7,528.9 1095.7,524 							"/>
						</g>
						<g>
							<polygon class="st23" points="1074.8,514 1074.8,517.1 1076,516.4 1092.4,525.9 1092.4,527.6 1091.1,528.3 1093.9,529.9 
								1093.9,525 							"/>
						</g>
						<g>
							<polygon class="st29" points="1074.8,514 1093.9,525 1095.7,524 1087.2,519 1091.6,516.5 1089.9,515.5 1085.6,518.1 
								1076.7,512.9 							"/>
						</g>
					</g>
				</g>
			</g>
		</g>
		<linearGradient id="SVGID_1_" gradientUnits="userSpaceOnUse" x1="939.5392" y1="654.8628" x2="983.7927" y2="610.6093">
			<stop  offset="0" style="stop-color:#C9C9C9"/>
			<stop  offset="0" style="stop-color:#FFFFFF"/>
			<stop  offset="3.295910e-02" style="stop-color:#FCFCFC"/>
			<stop  offset="0.4272" style="stop-color:#DEDEDE"/>
			<stop  offset="0.7634" style="stop-color:#CBCBCB"/>
			<stop  offset="1" style="stop-color:#C4C4C4"/>
		</linearGradient>
		<polygon class="st9" points="953.4,668.7 969.9,678.4 969.9,596.7 953.4,587.2 		"/>
		<polygon class="st31" points="969.9,678.4 971.3,679.2 971.4,597.5 969.9,596.7 		"/>
		<linearGradient id="SVGID_2_" gradientUnits="userSpaceOnUse" x1="844.4584" y1="599.7598" x2="888.7119" y2="555.5063">
			<stop  offset="0" style="stop-color:#C9C9C9"/>
			<stop  offset="0" style="stop-color:#FFFFFF"/>
			<stop  offset="3.295910e-02" style="stop-color:#FCFCFC"/>
			<stop  offset="0.4272" style="stop-color:#DEDEDE"/>
			<stop  offset="0.7634" style="stop-color:#CBCBCB"/>
			<stop  offset="1" style="stop-color:#C4C4C4"/>
		</linearGradient>
		<polygon class="st10" points="858.3,613.6 874.8,623.2 874.8,541.6 858.3,532.1 		"/>
		<polygon class="st31" points="874.8,623.2 876.2,624.1 876.3,542.4 874.8,541.6 		"/>
		<polygon class="st33" points="968,652.5 968,632.7 950.8,622.8 950.8,642.6 		"/>
		<polygon class="st34" points="950.8,622.8 952.6,621.8 969.8,631.6 968,632.7 		"/>
		<polygon class="st35" points="968,652.5 969.9,651.4 969.8,631.6 968,632.7 		"/>
		<linearGradient id="SVGID_3_" gradientUnits="userSpaceOnUse" x1="947.6816" y1="625.915" x2="971.1312" y2="649.3646">
			<stop  offset="0" style="stop-color:#C9C9C9"/>
			<stop  offset="0" style="stop-color:#FFFFFF"/>
			<stop  offset="0.1494" style="stop-color:#D5D5D5"/>
			<stop  offset="0.3632" style="stop-color:#9F9F9F"/>
			<stop  offset="0.5626" style="stop-color:#747474"/>
			<stop  offset="0.7415" style="stop-color:#555555"/>
			<stop  offset="0.8933" style="stop-color:#434343"/>
			<stop  offset="1" style="stop-color:#3C3C3C"/>
		</linearGradient>
		<polygon class="st11" points="968,652.5 968,632.7 950.8,622.8 950.8,642.6 		"/>
		<polygon class="st12" points="950.8,622.8 952.6,621.8 969.8,631.6 968,632.7 		"/>
		<polygon class="st2" points="968,652.5 969.9,651.4 969.8,631.6 968,632.7 		"/>
		<polygon class="st29" points="962.5,647.9 962.5,635.8 952.1,629.9 952.1,641.9 		"/>
		<polygon class="st37" points="958.1,643.3 958,635.3 956.6,634.5 956.6,642.4 		"/>
		<polygon class="st23" points="952.1,629.9 953.8,628.8 964.2,634.8 962.5,635.8 		"/>
		<polygon class="st28" points="962.5,647.9 964.3,646.9 964.2,634.8 962.5,635.8 		"/>
		<g>
			<polygon class="st33" points="872.9,596.9 872.9,577 855.7,567.2 855.8,587 			"/>
			<polygon class="st34" points="855.7,567.2 857.5,566.1 874.7,576 872.9,577 			"/>
			<polygon class="st35" points="872.9,596.9 874.8,595.8 874.7,576 872.9,577 			"/>
			<linearGradient id="SVGID_4_" gradientUnits="userSpaceOnUse" x1="852.6009" y1="570.303" x2="876.0504" y2="593.7526">
				<stop  offset="0" style="stop-color:#C9C9C9"/>
				<stop  offset="0" style="stop-color:#FFFFFF"/>
				<stop  offset="0.1494" style="stop-color:#D5D5D5"/>
				<stop  offset="0.3632" style="stop-color:#9F9F9F"/>
				<stop  offset="0.5626" style="stop-color:#747474"/>
				<stop  offset="0.7415" style="stop-color:#555555"/>
				<stop  offset="0.8933" style="stop-color:#434343"/>
				<stop  offset="1" style="stop-color:#3C3C3C"/>
			</linearGradient>
			<polygon class="st13" points="872.9,596.9 872.9,577 855.7,567.2 855.8,587 			"/>
			<polygon class="st12" points="855.7,567.2 857.5,566.1 874.7,576 872.9,577 			"/>
			<polygon class="st2" points="872.9,596.9 874.8,595.8 874.7,576 872.9,577 			"/>
			<polygon class="st29" points="867.5,592.3 867.4,580.2 857,574.2 857,586.3 			"/>
			<polygon class="st37" points="863,587.7 862.9,579.7 861.5,578.8 861.5,586.8 			"/>
			<polygon class="st23" points="857,574.2 858.7,573.2 869.2,579.2 867.4,580.2 			"/>
			<polygon class="st28" points="867.5,592.3 869.2,591.2 869.2,579.2 867.4,580.2 			"/>
		</g>
		<polygon class="st33" points="942.2,630.7 942.2,618.1 882.9,584.2 882.9,596.7 		"/>
		<polygon class="st34" points="882.9,584.2 884,583.5 943.4,617.4 942.2,618.1 		"/>
		<polygon class="st35" points="942.2,630.7 943.4,630 943.4,617.4 942.2,618.1 		"/>
		<linearGradient id="SVGID_5_" gradientUnits="userSpaceOnUse" x1="895.0662" y1="577.1159" x2="930.0491" y2="637.7079">
			<stop  offset="0" style="stop-color:#C9C9C9"/>
			<stop  offset="0" style="stop-color:#FFFFFF"/>
			<stop  offset="0.1494" style="stop-color:#D5D5D5"/>
			<stop  offset="0.3632" style="stop-color:#9F9F9F"/>
			<stop  offset="0.5626" style="stop-color:#747474"/>
			<stop  offset="0.7415" style="stop-color:#555555"/>
			<stop  offset="0.8933" style="stop-color:#434343"/>
			<stop  offset="1" style="stop-color:#3C3C3C"/>
		</linearGradient>
		<polygon class="st14" points="942.2,630.7 942.2,618.1 882.9,584.2 882.9,596.7 		"/>
		<polygon class="st12" points="882.9,584.2 884,583.5 943.4,617.4 942.2,618.1 		"/>
		<polygon class="st2" points="942.2,630.7 943.4,630 943.4,617.4 942.2,618.1 		"/>
		<g>
			<polygon class="st28" points="902.2,603.1 902.2,610 906.8,607.2 906.8,600.4 			"/>
		</g>
		<g>
			<polygon class="st28" points="912.3,614.4 912.3,621.3 921.7,615.8 921.7,608.9 			"/>
		</g>
		<g>
			<polygon class="st23" points="894.5,604.2 894.5,611 912.3,621.3 912.3,614.4 			"/>
		</g>
		<g>
			<polygon class="st29" points="912.3,614.4 921.7,608.9 918.8,607.3 914.1,610 902.2,603.1 906.8,600.4 903.9,598.7 894.5,604.2 
							"/>
		</g>
		<polygon class="st6" points="918.8,607.3 916.2,608.8 919.1,610.5 921.7,608.9 		"/>
		<polygon class="st29" points="921.7,608.9 919.1,610.5 919.1,617.3 921.7,615.8 		"/>
		<polygon class="st29" points="906.8,600.4 904.2,601.9 904.2,604.3 906.8,605.8 		"/>
		<polygon class="st6" points="903.9,598.7 901.3,600.3 904.2,601.9 906.8,600.4 		"/>
	</g>
</g>
</svg>
