<?xml version="1.0" encoding="utf-8"?>
<!-- Generator: Adobe Illustrator 23.0.3, SVG Export Plug-In . SVG Version: 6.00 Build 0)  -->
<svg version="1.1" id="Layer_1" xmlns="http://www.w3.org/2000/svg" xmlns:xlink="http://www.w3.org/1999/xlink" x="0px" y="0px"
	 viewBox="0 0 463.5 311.4" style="enable-background:new 0 0 463.5 311.4;" xml:space="preserve">
<style type="text/css">
	.st0{fill:#C14736;}
	.st1{fill:#E26F66;}
	.st2{fill:#F1563C;}
	.st3{fill:#FFFFFF;}
</style>
<g>
	<path class="st0" d="M455.5,154.9L255.6,270.6c-16.1,9.3-35.9,9.3-52,0L10.1,159C3.4,155.1,0,148.3,0,141.5v34h0
		c0,6.8,3.4,13.5,10.1,17.4l193.5,111.5c16.1,9.3,35.9,9.3,52,0l199.9-115.7c5.4-3.1,8.1-8.6,8-14.1v-33.7
		C463.5,146.5,460.8,151.8,455.5,154.9z"/>
	<path class="st1" d="M203.4,271.8L9.8,160.3c-7-5-9.8-11.9-9.8-18.7v34h0c0,6.8,3.4,13.5,10.1,17.4l193.5,111.5
		c3.1,1.8,6.4,3.2,9.7,4.3l-0.3-32.7C209.7,275,206.5,273.6,203.4,271.8z"/>
	<path class="st1" d="M228.3,278.6v32.8c5.1,0.1,10.2-0.5,15.1-1.8v-32.8C238.5,278.1,233.3,278.7,228.3,278.6z"/>
	<g>
		<path class="st2" d="M455.5,124.1L249.1,5.1c-11.9-6.9-26.5-6.9-38.4,0L10.1,121.2c-13.4,7.8-13.5,27.2,0,34.9l193.5,111.5
			c16.1,9.3,35.9,9.3,52,0L455.5,152C466.2,145.8,466.2,130.3,455.5,124.1z"/>
		<polygon class="st3" points="54.1,137.5 221.9,234.4 231.8,228.6 63.9,131.7 		"/>
		<polygon class="st3" points="79.6,122.5 247.4,219.4 257.3,213.6 89.4,116.7 		"/>
		<polygon class="st3" points="104.6,107.8 173.5,147.8 183.4,142.1 114.5,102.1 		"/>
		<polygon class="st3" points="282.2,183.1 285.3,185.8 296,179.7 293.8,176.4 		"/>
		<polygon class="st3" points="279.4,176.5 282.7,179.1 293.1,173.1 291.9,169.2 		"/>
		<path class="st3" d="M302.2,80c-8.3-4.9-21.8-4.9-30,0c-8.3,4.9-8.2,12.8,0.1,17.7c8.3,4.9,21.8,4.9,30,0
			C310.6,92.8,310.5,84.9,302.2,80z"/>
		<path class="st3" d="M264,154.2c-21.3,0-42.6-4.8-58.8-14.3c-16.3-9.6-25.3-22.5-25.3-36.3c0-13.8,8.8-26.6,24.9-36.1
			c32.3-19.1,85-19.1,117.5,0l0,0c16.3,9.6,25.3,22.5,25.3,36.3c0,13.8-8.8,26.6-24.9,36.1C306.6,149.4,285.3,154.2,264,154.2z
			 M263.5,58.6c-20.2,0-40.4,4.5-55.8,13.6c-14.3,8.4-22.2,19.5-22.1,31.2c0,11.8,8,23,22.5,31.5c30.9,18.2,81.1,18.2,111.8,0
			c14.3-8.5,22.1-19.6,22.1-31.2c0-11.8-8-23-22.5-31.5l0,0C304,63.2,283.7,58.6,263.5,58.6z"/>
		<path class="st3" d="M263.6,139.2c0,0,30.9-21.8,0.8-39c-27.1-15.5-55.4,7.3-55.4,7.3L263.6,139.2z"/>
		<path class="st3" d="M295.5,183.5l-8.4,5.6l-10.2-36.3l9.4-1.5 M292,148.8l-21.1,3.6l12.7,45.3l18.8-11.8L292,148.8z"/>
	</g>
	<path class="st3" d="M452.1,153.5L254.6,267.7c-7.5,4.4-16.2,6.7-24.9,6.7c-8.8,0-17.4-2.3-25-6.7L13.5,157.5
		C7.7,154.2,0.2,146,0.2,139.3C0.1,140,0,140.8,0,141.5c0,8.2,4.2,15.6,11.4,19.7l191.2,110.2c8.4,4.8,17.7,7.2,27.1,7.2
		c9.4,0,18.7-2.4,27.1-7.2l197.5-114.3c5.9-3.4,9.4-9.4,9.4-16.2C463.5,146.2,456.6,150.9,452.1,153.5z"/>
</g>
</svg>
