<?xml version="1.0" encoding="utf-8"?>
<!-- Generator: Adobe Illustrator 23.0.3, SVG Export Plug-In . SVG Version: 6.00 Build 0)  -->
<svg version="1.1" id="Layer_1" xmlns="http://www.w3.org/2000/svg" xmlns:xlink="http://www.w3.org/1999/xlink" x="0px" y="0px"
	 viewBox="0 0 571.2 367.9" style="enable-background:new 0 0 571.2 367.9;" xml:space="preserve">
<style type="text/css">
	.st0{fill:#C14736;}
	.st1{fill:#E26F66;}
	.st2{fill:#F1563C;}
	.st3{fill:#FFFFFF;}
	.st4{fill:none;stroke:#FFFFFF;stroke-miterlimit:10;}
	.st5{enable-background:new    ;}
	.st6{fill:#E3DEDA;}
	.st7{fill:#DBB391;}
	.st8{fill:#DBD5D1;}
	.st9{fill:#898989;}
	.st10{opacity:0.7;fill:#A17E85;}
	.st11{fill:#CAC1B8;}
	.st12{fill:#F5F1EE;}
	.st13{fill:url(#SVGID_1_);}
	.st14{fill:#ADADAD;}
	.st15{fill:url(#SVGID_2_);}
	.st16{fill:#69544B;}
	.st17{fill:#4E3F38;}
	.st18{fill:#3B2F2A;}
	.st19{fill:url(#SVGID_3_);}
	.st20{fill:#5E5E5E;}
	.st21{opacity:0.3;fill:#727272;}
	.st22{fill:#383A35;}
	.st23{fill:url(#SVGID_4_);}
	.st24{fill:url(#SVGID_5_);}
</style>
<g>
	<path class="st0" d="M562.7,156.8l-293.2,168c-17,9.8-37.9,9.8-54.8,0L10.6,207.2C3.6,203.1,0,195.9,0,188.8v35.9h0
		c0,7.1,3.6,14.2,10.6,18.3l204.1,117.6c17,9.8,37.9,9.8,54.8,0l293.2-168c5.7-3.3,8.5-9.1,8.5-14.8v-35.5
		C571.2,147.9,568.3,153.5,562.7,156.8z"/>
	<path class="st1" d="M214.4,325.6L10.4,208C3,202.7,0,195.4,0,188.3v35.9h0c0,7.1,3.6,14.2,10.6,18.3l204.1,117.6
		c3.3,1.9,6.7,3.4,10.2,4.6l-0.3-34.5C221.2,329,217.7,327.5,214.4,325.6z"/>
	<path class="st1" d="M240.6,333.3v34.6c5.4,0.1,10.8-0.5,16-1.9v-34.6C251.4,332.8,246,333.5,240.6,333.3z"/>
	<path class="st2" d="M562.7,130.9L345,5.4c-12.5-7.2-27.9-7.2-40.5,0L10.6,175.3c-14.2,8.2-14.2,28.6,0,36.8l204.1,117.6
		c17,9.8,37.9,9.8,54.8,0l293.2-169.5C574,153.8,574.1,137.4,562.7,130.9z"/>
	<path class="st3" d="M559.1,160L268.5,328.9c-8,4.6-17,7-26.3,7c-9.3,0-18.4-2.4-26.3-7L14.2,212.8c-6.1-3.5-14-12.2-14.1-19.2
		c-0.1,0.8-0.2,1.6-0.2,2.4c0,8.7,4.5,16.4,12,20.8l201.6,116.2c8.8,5.1,18.7,7.6,28.6,7.6c9.9,0,19.7-2.5,28.5-7.6l290.6-168.9
		c6.2-3.6,9.9-10,9.9-17.1C571.2,152.3,563.9,157.3,559.1,160z"/>
	<g>
		<rect x="281" y="87.9" class="st0" width="114.1" height="64.1"/>
		<g>
			<path class="st3" d="M393.7,160.8h-112c-5.2,0-9.3-4.2-9.3-9.3l0-61.8c0-5.2,4.2-9.3,9.3-9.3h112c5.2,0,9.3,4.2,9.3,9.3l0,61.8
				C403.1,156.6,398.9,160.8,393.7,160.8z M284.2,149h107.1l0-56.8H284.2L284.2,149z"/>
		</g>
		<path class="st3" d="M362,178.6c-1-2-3-3.3-5.3-3.3l-107.1,0c-1.5,0-2.7-1.2-2.7-2.7l0-56.8c0-2.2-1.2-4.1-3.1-5.2
			c-2-1.1-4.5-0.9-6.4,0.5c-1.5,1.2-2.3,3.1-2.3,5.1l0,60.9c0,5.6,4.5,10.1,10.1,10.1l111.1,0c1.9,0,3.8-0.7,5-2.2
			C362.8,183.1,363,180.6,362,178.6z"/>
		<path class="st3" d="M329.2,202.5c-1-2-3-3.3-5.3-3.3l-106.9,0c-1.6,0-2.9-1.3-2.9-2.9l0-56.7c0-2.2-1.2-4.1-3.1-5.2
			c-2-1.1-4.5-0.9-6.4,0.5c-1.5,1.2-2.3,3.1-2.3,5.1l0,60.9c0,5.6,4.5,10.1,10.1,10.1l111.1,0c1.9,0,3.8-0.7,5-2.2
			C330,207,330.2,204.6,329.2,202.5z"/>
		<path class="st3" d="M298.3,228.2c-1-2-3-3.3-5.3-3.3l-107.5,0c-1.2,0-2.2-1-2.2-2.2l0-57.3c0-2.2-1.2-4.1-3.1-5.2
			c-2-1.1-4.5-0.9-6.4,0.5c-1.5,1.2-2.3,3.1-2.3,5.1l0,60.9c0,5.6,4.5,10.1,10.1,10.1l111.1,0c1.9,0,3.8-0.7,5-2.2
			C299,232.7,299.3,230.3,298.3,228.2z"/>
	</g>
</g>
</svg>
