<?xml version="1.0" encoding="utf-8"?>
<!-- Generator: Adobe Illustrator 23.0.3, SVG Export Plug-In . SVG Version: 6.00 Build 0)  -->
<svg version="1.1" id="Layer_1" xmlns="http://www.w3.org/2000/svg" xmlns:xlink="http://www.w3.org/1999/xlink" x="0px" y="0px"
	 viewBox="0 0 1236.8 1203.3" style="enable-background:new 0 0 1236.8 1203.3;" xml:space="preserve">
<style type="text/css">
	.st0{opacity:0.2;fill:#727272;}
	.st1{opacity:0.1;fill:#727272;}
	.st2{opacity:0.3;fill:#727272;}
	.st3{fill:#E26F66;}
	.st4{fill:#C14736;}
	.st5{fill:#F1563C;}
	.st6{fill:#FFFFFF;}
	.st7{opacity:0.5;fill:#E2E2E2;}
	.st8{opacity:0.3;fill:#D4ECFF;}
	.st9{fill:url(#SVGID_1_);}
	.st10{fill:url(#SVGID_2_);}
	.st11{fill:url(#SVGID_3_);}
	.st12{fill:#5E5E5E;}
	.st13{fill:url(#SVGID_4_);}
	.st14{fill:url(#SVGID_5_);}
	.st15{fill:none;stroke:#FFFFFF;stroke-width:0.25;stroke-miterlimit:10;}
	.st16{fill:#B8BCFC;}
	.st17{fill:none;stroke:#FFFFFF;stroke-width:0.75;stroke-miterlimit:10;}
	.st18{fill:#ECF3FA;}
	.st19{opacity:0.3;}
	.st20{fill:#727272;}
	.st21{fill:none;stroke:#FFFFFF;stroke-miterlimit:10;}
	.st22{enable-background:new    ;}
	.st23{fill:#E3DEDA;}
	.st24{fill:#DBB391;}
	.st25{fill:#DBD5D1;}
	.st26{fill:#898989;}
	.st27{opacity:0.7;fill:#A17E85;}
	.st28{fill:#CAC1B8;}
	.st29{fill:#F5F1EE;}
	.st30{fill:url(#SVGID_6_);}
	.st31{fill:#ADADAD;}
	.st32{fill:url(#SVGID_7_);}
	.st33{fill:#69544B;}
	.st34{fill:#4E3F38;}
	.st35{fill:#3B2F2A;}
	.st36{fill:url(#SVGID_8_);}
	.st37{fill:#383A35;}
	.st38{fill:url(#SVGID_9_);}
	.st39{fill:url(#SVGID_10_);}
</style>
<g>
	<path class="st0" d="M511.8,661.7L387.3,592L87.1,764.7l121.7,70.1c14.8,8.5,33,8.5,47.7,0l255.3-147.5
		C521.6,681.7,521.6,667.4,511.8,661.7z"/>
	<path class="st0" d="M520.8,1122.1l157.8-88.7c7.9-4.6,17.6-4.6,25.5,0l63,36.9c7.1,4.1-215.9,130.3-215.9,130.3l-0.4-37.8
		l-29.9-17.4C511.8,1140.2,511.8,1127.3,520.8,1122.1z"/>
	<path class="st1" d="M985.9,297.6c-12.1-3.5-27.2-6.6-55-5c0,0-27,3.3-53.2,17.1l-119.6,68.8l60.8,35c14.8,8.5,33,8.5,47.7,0
		l162.8-93.2C1029.5,320.4,1000,301.7,985.9,297.6z"/>
	<g class="st19">
		<path class="st20" d="M1230.6,657.6l-208.1-121.1c-9-5.2-20.2-5.2-29.3,0l-153,88.5c-10.3,5.9-10.3,20.7,0,26.6L1038.6,767
			c12.3,7.1,27.4,7.1,39.6,0l152.4-88.2C1238.8,674.1,1238.8,662.3,1230.6,657.6z"/>
	</g>
</g>
</svg>
