<?xml version="1.0" encoding="utf-8"?>
<!-- Generator: Adobe Illustrator 23.0.3, SVG Export Plug-In . SVG Version: 6.00 Build 0)  -->
<svg version="1.1" id="Layer_1" xmlns="http://www.w3.org/2000/svg" xmlns:xlink="http://www.w3.org/1999/xlink" x="0px" y="0px"
	 viewBox="0 0 500 328.4" style="enable-background:new 0 0 500 328.4;" xml:space="preserve">
<style type="text/css">
	.st0{fill:#C14736;}
	.st1{fill:#E26F66;}
	.st2{fill:#F1563C;}
	.st3{fill:#FFFFFF;}
	.st4{fill:none;stroke:#FFFFFF;stroke-miterlimit:10;}
	.st5{enable-background:new    ;}
	.st6{fill:#E3DEDA;}
	.st7{fill:#DBB391;}
	.st8{fill:#DBD5D1;}
	.st9{fill:#898989;}
	.st10{opacity:0.7;fill:#A17E85;}
	.st11{fill:#CAC1B8;}
	.st12{fill:#F5F1EE;}
	.st13{fill:url(#SVGID_1_);}
	.st14{fill:#ADADAD;}
	.st15{fill:url(#SVGID_2_);}
	.st16{fill:#69544B;}
	.st17{fill:#4E3F38;}
	.st18{fill:#3B2F2A;}
	.st19{fill:url(#SVGID_3_);}
	.st20{fill:#5E5E5E;}
	.st21{opacity:0.3;fill:#727272;}
	.st22{fill:#383A35;}
	.st23{fill:url(#SVGID_4_);}
	.st24{fill:url(#SVGID_5_);}
</style>
<g>
	<g>
		<path class="st0" d="M480.3,163.3l-210.8,122c-17,9.8-37.9,9.8-54.8,0L10.6,167.7C3.5,163.6,0,156.4,0,149.3v35.9h0
			c0,7.1,3.6,14.2,10.6,18.3L214.7,321c17,9.8,37.9,9.8,54.8,0l210.8-122c5.7-3.3,8.5-9.1,8.5-14.8v-35.5
			C488.7,154.4,485.9,160.1,480.3,163.3z"/>
		<path class="st1" d="M214.4,286.6L10.4,169C2.9,163.7,0,156.4,0,149.3v35.9h0c0,7.1,3.6,14.2,10.6,18.3L214.7,321
			c3.3,1.9,6.7,3.4,10.2,4.6l-0.3-34.5C221.2,290,217.7,288.5,214.4,286.6z"/>
		<path class="st1" d="M240.7,293.8v34.6c5.4,0.1,10.8-0.5,16-1.9v-34.6C251.4,293.3,246.1,293.9,240.7,293.8z"/>
		<g>
			<path class="st2" d="M480.3,130.9L262.6,5.4c-12.5-7.2-27.9-7.2-40.5,0L10.6,127.8c-14.2,8.2-14.2,28.6,0,36.8l204.1,117.6
				c17,9.8,37.9,9.8,54.8,0l210.8-122C491.6,153.8,491.6,137.4,480.3,130.9z"/>
		</g>
		<path class="st3" d="M476.7,161.8L268.5,282.3c-8,4.6-17,7-26.3,7c-9.3,0-18.4-2.4-26.3-7L14.2,166.1c-6.1-3.5-14-12.2-14.1-19.2
			c-0.1,0.8-0.2,1.6-0.2,2.4c0,8.7,4.5,16.4,12,20.8l201.6,116.2c8.8,5.1,18.7,7.6,28.6,7.6c9.9,0,19.7-2.5,28.5-7.6l208.2-120.5
			c6.2-3.6,9.9-10,9.9-17.1C488.8,154.1,481.5,159.1,476.7,161.8z"/>
	</g>
	<g>
		<path class="st3" d="M338,84.5c-14.3-8.2-37.4-8.2-51.6,0c-7.3,4.2-11.3,9.9-11.3,16.1c0,6.2,4,11.9,11.3,16.1
			c7.1,4.1,16.5,6.2,25.8,6.2c9.3,0,18.7-2.1,25.8-6.2c7.3-4.2,11.3-9.9,11.3-16.1C349.3,94.4,345.3,88.7,338,84.5z M337.9,100.5
			c0,3.5-2.5,6.9-7.1,9.6c-10.3,5.9-27,5.9-37.3,0c-4.6-2.6-7.1-6.1-7.1-9.6c0-3.5,2.5-6.9,7.1-9.6c5.1-3,11.9-4.5,18.6-4.5
			c6.8,0,13.5,1.5,18.6,4.5C335.4,93.6,337.9,97,337.9,100.5z"/>
		<path class="st3" d="M280.4,167.9c13.5-7.8,20-15.4,20-23.3c0-10.8-12.6-19.5-23.7-25.9c-21-12.1-47-21.8-81.2-2.1l-5.6,3.3
			l86.9,50.2L280.4,167.9z M289,144.4c0.1,4.6-4,9.5-12.3,14.8l-68.1-39.3c16.9-8.4,34.2-10.2,61,5.2
			C282.9,132.9,288.9,138.8,289,144.4z"/>
		<path class="st3" d="M294.4,190.8l-140.4-81.1c-5.2-3-13.3-3-18.5,0l-14.2,8.2c-2.9,1.7-4.5,4-4.5,6.6c0,2.4,1.4,4.5,3.9,6.2
			l-21.8,17.3c-3.1,1.9-4.7,4.4-4.7,7.2c0,2.8,1.8,5.3,4.9,7.1l108.5,62.6c2.9,1.7,6.7,2.5,10.5,2.5c3.6,0,7.2-0.8,10-2.3l32.4-13.7
			l1.1,0.7c5.2,3,13.3,3,18.5,0l14.2-8.2c2.9-1.7,4.5-4,4.5-6.6C298.8,194.7,297.2,192.4,294.4,190.8z M221.8,218.1l-0.5,0.3
			c-1.8,1-4.8,1-6.6,0l-108.5-62.6c-0.6-0.4-0.7-0.6-0.7-0.7c0,0,0.1-0.4,1-0.9l30.9-24.4l-9-5.3l14.2-8.2c0.6-0.3,1.3-0.5,2.1-0.5
			c0.8,0,1.5,0.2,2.1,0.5l140.4,81.1l-14.2,8.2c-1.1,0.6-3.1,0.6-4.2,0l-7.3-4.2L221.8,218.1z"/>
		<path class="st3" d="M213.3,159.7l-2.9-1.7c-2-1.2-4.1-1.2-6.2,0l-2.5,1.4c-1.2,0.7-1.9,1.6-1.9,2.6c0,1,0.6,1.8,1.9,2.6l2.9,1.7
			c1,0.6,2,0.9,3.1,0.9c1,0,2.1-0.3,3.1-0.9l2.5-1.4c1.3-0.7,1.9-1.6,1.9-2.6C215.2,161.3,214.5,160.4,213.3,159.7z"/>
		<path class="st3" d="M199.1,166.3l-5.4-3.1c-1-0.6-4.2-2.4-7.5-0.6c-1.5,0.8-1.8,1.8-1.8,2.5c0,1.6,1.6,2.7,2.7,3.4l2,1.2
			l-15.8,9.1l-3.4-2c-1-0.6-4.2-2.4-7.5-0.6c-1.5,0.8-1.8,1.8-1.8,2.5c0,1.6,1.6,2.7,2.7,3.4l13.1,7.5c1.6,0.9,3.1,1.4,4.5,1.4
			c1.1,0,2.1-0.3,3-0.8c1.2-0.7,1.8-1.5,1.8-2.5c0-1.5-1.5-2.6-2.8-3.3l-1.8-1l18.1-10.4c1.4-0.8,2.8-1.8,2.8-3.2
			C202.1,168.1,200.7,167.2,199.1,166.3z"/>
	</g>
</g>
</svg>
