<?xml version="1.0" encoding="utf-8"?>
<!-- Generator: Adobe Illustrator 23.0.3, SVG Export Plug-In . SVG Version: 6.00 Build 0)  -->
<svg version="1.1" id="Layer_1" xmlns="http://www.w3.org/2000/svg" xmlns:xlink="http://www.w3.org/1999/xlink" x="0px" y="0px"
	 viewBox="0 0 465.2 369" style="enable-background:new 0 0 465.2 369;" xml:space="preserve">
<style type="text/css">
	.st0{fill:#C14736;}
	.st1{fill:#E26F66;}
	.st2{fill:#F1563C;}
	.st3{fill:#FFFFFF;}
	.st4{fill:none;stroke:#FFFFFF;stroke-miterlimit:10;}
	.st5{enable-background:new    ;}
	.st6{fill:#E3DEDA;}
	.st7{fill:#DBB391;}
	.st8{fill:#DBD5D1;}
	.st9{fill:#898989;}
	.st10{opacity:0.7;fill:#A17E85;}
	.st11{fill:#CAC1B8;}
	.st12{fill:#F5F1EE;}
	.st13{fill:url(#SVGID_1_);}
	.st14{fill:#ADADAD;}
	.st15{fill:url(#SVGID_2_);}
	.st16{fill:#69544B;}
	.st17{fill:#4E3F38;}
	.st18{fill:#3B2F2A;}
	.st19{fill:url(#SVGID_3_);}
	.st20{fill:#5E5E5E;}
	.st21{opacity:0.3;fill:#727272;}
	.st22{fill:#383A35;}
	.st23{fill:url(#SVGID_4_);}
	.st24{fill:url(#SVGID_5_);}
</style>
<g>
	<path class="st0" d="M7.6,347L7.6,347l0,0.2C7.6,347.2,7.6,347.1,7.6,347z"/>
	<path class="st2" d="M7.6,347L7.6,347l0,0.2C7.6,347.2,7.6,347.1,7.6,347z"/>
	<path class="st0" d="M145.4,299.3L145.4,299.3l0,0.2C145.3,299.5,145.4,299.4,145.4,299.3z"/>
	<path class="st2" d="M145.4,299.3L145.4,299.3l0,0.2C145.3,299.5,145.4,299.4,145.4,299.3z"/>
	<path class="st0" d="M456.9,168.2L278.2,271.3c-15.6,9-34.8,1.7-50.5-7.4L10.3,136.7c-6.5-3.8-9.8-10.4-9.8-17v93.7h0
		c0,6.6,3.3,13.1,9.8,16.9l217.5,127.1c15.6,9,34.8,16.4,50.5,7.4l178.7-103.1c5.3-3,7.9-8.4,7.8-13.7v-93.4
		C464.7,159.9,462.1,165.2,456.9,168.2z"/>
	<path class="st1" d="M237,269.3L8.6,136.2C2.5,131.8,0,125.7,0,119.7v93.7h0c0,5.9,4.4,13.5,10.3,16.9l213.4,124.8
		c6.8,4.7,19,9.9,21.9,10.8l-0.3-93C242.3,271.9,239.8,270.9,237,269.3z"/>
	<path class="st1" d="M258.8,275.4l0.1,93.4c4.7,0.3,9.5,0.1,14.7-1.8v-93.7C268.5,274.6,263.7,275.8,258.8,275.4z"/>
	<path class="st3" d="M455.1,217.5L281.8,317.8c-6.6,3.8-14.2,5.8-21.9,5.8c-7.7,0-15.3-2-21.9-5.9L11.8,187.5
		c-5.1-2.9-11.6-10.2-11.7-16c-0.1,0.6-0.1,1.3-0.1,2c0,7.2,3.7,13.7,10,17.3L236.1,321c7.3,4.2,15.6,6.4,23.8,6.4
		c8.2,0,16.4-2.1,23.7-6.3L457,220.8c5.1-3,8.2-8.3,8.2-14.2C465.2,211.1,459.1,215.3,455.1,217.5z"/>
	<g>
		<path class="st2" d="M457.7,143.6L218.6,4.5c-10.4-6-23.2-6-33.6,0L9.3,106.2c-11.8,6.8-11.8,23.8,0,30.6L237,269.3
			c14.1,8.1,31.4,8.1,45.5,0L457.7,168C467.1,162.6,467.1,149,457.7,143.6z"/>
	</g>
	<g>
		<g>
			<g>
				<g class="st5">
					<g>
						<polygon class="st6" points="61.9,167.3 63.6,168.2 281.9,41.9 281.9,39.9 						"/>
					</g>
					<g>
						<polygon class="st3" points="43,156.4 61.9,167.3 281.9,39.9 263.1,29 						"/>
					</g>
				</g>
			</g>
			<g>
				<polygon class="st7" points="191.6,83 189,84.5 186.5,83 189,81.6 				"/>
				<polygon class="st8" points="191.6,83 190.3,83.8 189,83 189,81.6 				"/>
				<polygon class="st9" points="189,83 189,81.6 186.5,83 187.8,83.8 				"/>
				<polygon class="st10" points="187.8,83.8 189,83 190.3,83.8 189,84.5 				"/>
			</g>
			<g>
				<polygon class="st7" points="210.9,71.9 208.3,73.3 205.8,71.9 208.3,70.4 				"/>
				<polygon class="st8" points="210.9,71.9 209.6,72.6 208.3,71.9 208.3,70.4 				"/>
				<polygon class="st9" points="208.3,71.9 208.3,70.4 205.8,71.9 207,72.6 				"/>
				<polygon class="st10" points="207,72.6 208.3,71.9 209.6,72.6 208.3,73.3 				"/>
			</g>
			<g>
				<polygon class="st7" points="219.7,66.8 217.2,68.2 214.6,66.8 217.2,65.3 				"/>
				<polygon class="st8" points="219.7,66.8 218.4,67.5 217.2,66.8 217.2,65.3 				"/>
				<polygon class="st9" points="217.2,66.8 217.2,65.3 214.6,66.8 215.9,67.5 				"/>
				<polygon class="st10" points="215.9,67.5 217.2,66.8 218.4,67.5 217.2,68.2 				"/>
			</g>
			<g>
				<polygon class="st7" points="182.9,88 180.3,89.5 177.8,88 180.3,86.6 				"/>
				<polygon class="st8" points="182.9,88 181.6,88.8 180.3,88 180.3,86.6 				"/>
				<polygon class="st9" points="180.3,88 180.3,86.6 177.8,88 179.1,88.8 				"/>
				<polygon class="st10" points="179.1,88.8 180.3,88 181.6,88.8 180.3,89.5 				"/>
			</g>
			<g>
				<polygon class="st7" points="174.2,93 171.6,94.5 169.1,93 171.6,91.6 				"/>
				<polygon class="st8" points="174.2,93 172.9,93.8 171.6,93 171.6,91.6 				"/>
				<polygon class="st9" points="171.6,93 171.6,91.6 169.1,93 170.4,93.8 				"/>
				<polygon class="st10" points="170.4,93.8 171.6,93 172.9,93.8 171.6,94.5 				"/>
			</g>
			<g>
				<g class="st5">
					<g>
						<polygon class="st11" points="196.7,78.1 196.7,80.1 201.7,77.2 201.7,75.2 						"/>
					</g>
					<g>
						<polygon class="st11" points="204.4,85 204.4,90.6 206.5,89.4 206.5,83.8 						"/>
					</g>
					<g>
						<polygon class="st12" points="182.5,72.3 182.5,75.8 183.9,75 202.6,85.9 202.7,87.9 201.2,88.8 204.4,90.6 204.4,85 						
							"/>
					</g>
					<g>
						<polygon class="st12" points="182.5,72.3 204.4,85 206.5,83.8 196.7,78.1 201.7,75.2 199.9,74.1 194.8,77 184.6,71 						"/>
					</g>
				</g>
			</g>
		</g>
		<g>
			<g>
				<g class="st5">
					<g>
						<polygon class="st6" points="171.1,230.6 172.8,231.6 391.4,105.1 391.3,103.1 						"/>
					</g>
					<g>
						<polygon class="st3" points="152.2,219.7 171.1,230.6 391.3,103.1 372.6,92.2 						"/>
					</g>
				</g>
			</g>
			<g>
				<polygon class="st7" points="300.8,146.3 298.2,147.8 295.7,146.3 298.2,144.9 				"/>
				<polygon class="st8" points="300.8,146.3 299.5,147.1 298.2,146.3 298.2,144.9 				"/>
				<polygon class="st9" points="298.2,146.3 298.2,144.9 295.7,146.3 297,147.1 				"/>
				<polygon class="st10" points="297,147.1 298.2,146.3 299.5,147.1 298.2,147.8 				"/>
			</g>
			<g>
				<polygon class="st7" points="320.1,135.2 317.5,136.6 315,135.2 317.5,133.7 				"/>
				<polygon class="st8" points="320.1,135.2 318.8,135.9 317.5,135.2 317.5,133.7 				"/>
				<polygon class="st9" points="317.5,135.2 317.5,133.7 315,135.2 316.3,135.9 				"/>
				<polygon class="st10" points="316.3,135.9 317.5,135.2 318.8,135.9 317.5,136.6 				"/>
			</g>
			<g>
				<polygon class="st7" points="328.9,130.1 326.4,131.5 323.8,130.1 326.4,128.6 				"/>
				<polygon class="st8" points="328.9,130.1 327.6,130.8 326.4,130.1 326.4,128.6 				"/>
				<polygon class="st9" points="326.4,130.1 326.4,128.6 323.8,130.1 325.1,130.8 				"/>
				<polygon class="st10" points="325.1,130.8 326.4,130.1 327.6,130.8 326.4,131.5 				"/>
			</g>
			<g>
				<polygon class="st7" points="292.1,151.3 289.5,152.8 287,151.3 289.5,149.9 				"/>
				<polygon class="st8" points="292.1,151.3 290.8,152.1 289.5,151.3 289.5,149.9 				"/>
				<polygon class="st9" points="289.5,151.3 289.5,149.9 287,151.3 288.3,152.1 				"/>
				<polygon class="st10" points="288.3,152.1 289.5,151.3 290.8,152.1 289.5,152.8 				"/>
			</g>
			<g>
				<polygon class="st7" points="283.4,156.4 280.9,157.8 278.3,156.4 280.9,154.9 				"/>
				<polygon class="st8" points="283.4,156.4 282.1,157.1 280.9,156.4 280.9,154.9 				"/>
				<polygon class="st9" points="280.9,156.4 280.9,154.9 278.3,156.4 279.6,157.1 				"/>
				<polygon class="st10" points="279.6,157.1 280.9,156.4 282.1,157.1 280.9,157.8 				"/>
			</g>
			<g>
				<g class="st5">
					<g>
						<polygon class="st11" points="305.9,141.4 305.9,143.4 311,140.5 311,138.5 						"/>
					</g>
					<g>
						<polygon class="st11" points="313.6,148.3 313.6,153.9 315.7,152.7 315.7,147.1 						"/>
					</g>
					<g>
						<polygon class="st6" points="291.7,135.6 291.7,139.2 293.1,138.3 311.8,149.2 311.9,151.2 310.4,152.1 313.6,153.9 
							313.6,148.3 						"/>
					</g>
					<g>
						<polygon class="st12" points="291.7,135.6 313.6,148.3 315.7,147.1 305.9,141.4 311,138.5 309.1,137.4 304,140.3 293.8,134.3 
													"/>
					</g>
				</g>
			</g>
		</g>
	</g>
	<linearGradient id="SVGID_1_" gradientUnits="userSpaceOnUse" x1="136.3067" y1="297.4005" x2="187.1372" y2="246.5699">
		<stop  offset="0" style="stop-color:#C9C9C9"/>
		<stop  offset="0" style="stop-color:#FFFFFF"/>
		<stop  offset="3.295910e-02" style="stop-color:#FCFCFC"/>
		<stop  offset="0.4272" style="stop-color:#DEDEDE"/>
		<stop  offset="0.7634" style="stop-color:#CBCBCB"/>
		<stop  offset="1" style="stop-color:#C4C4C4"/>
	</linearGradient>
	<polygon class="st13" points="152.2,313.3 171.1,324.4 171.1,230.6 152.2,219.7 	"/>
	<polygon class="st14" points="171.1,324.4 172.8,325.3 172.8,231.6 171.1,230.6 	"/>
	<linearGradient id="SVGID_2_" gradientUnits="userSpaceOnUse" x1="27.0948" y1="234.1079" x2="77.9253" y2="183.2774">
		<stop  offset="0" style="stop-color:#C9C9C9"/>
		<stop  offset="0" style="stop-color:#FFFFFF"/>
		<stop  offset="3.295910e-02" style="stop-color:#FCFCFC"/>
		<stop  offset="0.4272" style="stop-color:#DEDEDE"/>
		<stop  offset="0.7634" style="stop-color:#CBCBCB"/>
		<stop  offset="1" style="stop-color:#C4C4C4"/>
	</linearGradient>
	<polygon class="st15" points="43,250 61.9,261.1 61.9,167.3 43,156.4 	"/>
	<polygon class="st14" points="61.9,261.1 63.6,262.1 63.6,168.3 61.9,167.3 	"/>
	<polygon class="st16" points="169,294.6 169,271.9 149.2,260.6 149.3,283.3 	"/>
	<polygon class="st17" points="149.2,260.6 151.3,259.4 171.1,270.7 169,271.9 	"/>
	<polygon class="st18" points="169,294.6 171.1,293.4 171.1,270.7 169,271.9 	"/>
	<linearGradient id="SVGID_3_" gradientUnits="userSpaceOnUse" x1="145.6592" y1="264.1504" x2="172.5939" y2="291.0851">
		<stop  offset="0" style="stop-color:#C9C9C9"/>
		<stop  offset="0" style="stop-color:#FFFFFF"/>
		<stop  offset="0.1494" style="stop-color:#D5D5D5"/>
		<stop  offset="0.3632" style="stop-color:#9F9F9F"/>
		<stop  offset="0.5626" style="stop-color:#747474"/>
		<stop  offset="0.7415" style="stop-color:#555555"/>
		<stop  offset="0.8933" style="stop-color:#434343"/>
		<stop  offset="1" style="stop-color:#3C3C3C"/>
	</linearGradient>
	<polygon class="st19" points="169,294.6 169,271.9 149.2,260.6 149.3,283.3 	"/>
	<polygon class="st20" points="149.2,260.6 151.3,259.4 171.1,270.7 169,271.9 	"/>
	<polygon class="st21" points="169,294.6 171.1,293.4 171.1,270.7 169,271.9 	"/>
	<polygon class="st12" points="162.7,289.4 162.7,275.5 150.7,268.7 150.7,282.5 	"/>
	<polygon class="st22" points="157.6,284.1 157.5,275 155.9,274 155.9,283.1 	"/>
	<polygon class="st6" points="150.7,268.7 152.7,267.5 164.7,274.4 162.7,275.5 	"/>
	<polygon class="st11" points="162.7,289.4 164.7,288.2 164.7,274.4 162.7,275.5 	"/>
	<g>
		<polygon class="st16" points="59.8,230.8 59.7,208 40,196.7 40.1,219.5 		"/>
		<polygon class="st17" points="40,196.7 42.1,195.5 61.8,206.8 59.7,208 		"/>
		<polygon class="st18" points="59.8,230.8 61.9,229.6 61.8,206.8 59.7,208 		"/>
		<linearGradient id="SVGID_4_" gradientUnits="userSpaceOnUse" x1="36.4474" y1="200.2732" x2="63.382" y2="227.2079">
			<stop  offset="0" style="stop-color:#C9C9C9"/>
			<stop  offset="0" style="stop-color:#FFFFFF"/>
			<stop  offset="0.1494" style="stop-color:#D5D5D5"/>
			<stop  offset="0.3632" style="stop-color:#9F9F9F"/>
			<stop  offset="0.5626" style="stop-color:#747474"/>
			<stop  offset="0.7415" style="stop-color:#555555"/>
			<stop  offset="0.8933" style="stop-color:#434343"/>
			<stop  offset="1" style="stop-color:#3C3C3C"/>
		</linearGradient>
		<polygon class="st23" points="59.8,230.8 59.7,208 40,196.7 40.1,219.5 		"/>
		<polygon class="st20" points="40,196.7 42.1,195.5 61.8,206.8 59.7,208 		"/>
		<polygon class="st21" points="59.8,230.8 61.9,229.6 61.8,206.8 59.7,208 		"/>
		<polygon class="st12" points="53.5,225.5 53.5,211.7 41.5,204.8 41.5,218.6 		"/>
		<polygon class="st22" points="48.4,220.2 48.3,211.1 46.6,210.1 46.7,219.2 		"/>
		<polygon class="st6" points="41.5,204.8 43.5,203.6 55.5,210.5 53.5,211.7 		"/>
		<polygon class="st11" points="53.5,225.5 55.5,224.3 55.5,210.5 53.5,211.7 		"/>
	</g>
	<polygon class="st16" points="139.4,269.6 139.4,255.2 71.2,216.2 71.3,230.6 	"/>
	<polygon class="st17" points="71.2,216.2 72.5,215.4 140.7,254.4 139.4,255.2 	"/>
	<polygon class="st18" points="139.4,269.6 140.7,268.8 140.7,254.4 139.4,255.2 	"/>
	<linearGradient id="SVGID_5_" gradientUnits="userSpaceOnUse" x1="85.224" y1="208.0986" x2="125.4061" y2="277.696">
		<stop  offset="0" style="stop-color:#C9C9C9"/>
		<stop  offset="0" style="stop-color:#FFFFFF"/>
		<stop  offset="0.1494" style="stop-color:#D5D5D5"/>
		<stop  offset="0.3632" style="stop-color:#9F9F9F"/>
		<stop  offset="0.5626" style="stop-color:#747474"/>
		<stop  offset="0.7415" style="stop-color:#555555"/>
		<stop  offset="0.8933" style="stop-color:#434343"/>
		<stop  offset="1" style="stop-color:#3C3C3C"/>
	</linearGradient>
	<polygon class="st24" points="139.4,269.6 139.4,255.2 71.2,216.2 71.3,230.6 	"/>
	<polygon class="st20" points="71.2,216.2 72.5,215.4 140.7,254.4 139.4,255.2 	"/>
	<polygon class="st21" points="139.4,269.6 140.7,268.8 140.7,254.4 139.4,255.2 	"/>
	<g>
		<polygon class="st11" points="93.4,238 93.4,245.8 98.7,242.7 98.7,234.8 		"/>
	</g>
	<g>
		<polygon class="st11" points="105.1,251 105.1,258.8 115.8,252.5 115.8,244.7 		"/>
	</g>
	<g>
		<polygon class="st6" points="84.6,239.2 84.6,247.1 105.1,258.8 105.1,251 		"/>
	</g>
	<g>
		<polygon class="st12" points="105.1,251 115.8,244.7 112.5,242.7 107.1,245.9 93.4,238 98.7,234.8 95.4,232.9 84.6,239.2 		"/>
	</g>
	<polygon class="st3" points="112.5,242.7 109.5,244.5 112.8,246.4 115.8,244.7 	"/>
	<polygon class="st12" points="115.8,244.7 112.8,246.4 112.8,254.3 115.8,252.5 	"/>
	<polygon class="st12" points="98.7,234.8 95.7,236.6 95.7,239.3 98.7,241 	"/>
	<polygon class="st3" points="95.4,232.9 92.4,234.7 95.7,236.6 98.7,234.8 	"/>
</g>
</svg>
