<svg width="200" height="200" viewBox="0 0 200 200" fill="none" xmlns="http://www.w3.org/2000/svg">
    <path d="M200 0H0V200H200V0Z" fill="#F1563C"/>
    <path d="M123.597 54.5454H140.374C143.039 54.5454 145.078 54.5454 146.489 55.0159C147.9 55.4865 148.527 56.1138 148.998 57.5253C149.468 58.9369 149.468 60.9757 149.468 63.6419V80.4234C149.468 83.0897 149.468 85.1285 148.998 86.5401C148.527 87.9516 147.743 88.5789 146.489 89.0494C145.078 89.5199 143.039 89.5199 140.374 89.5199H123.597C120.932 89.5199 118.893 89.5199 117.482 89.0494C116.071 88.5789 115.444 87.9516 114.974 86.5401C114.503 85.1285 114.503 83.0897 114.503 80.4234V63.4851C114.503 60.8189 114.503 58.78 114.974 57.3685C115.444 55.957 116.228 55.3296 117.482 54.8591C118.893 54.5454 120.932 54.5454 123.597 54.5454Z" fill="white"/>
    <path d="M127.359 99.4006C126.889 98.3028 126.418 97.6754 125.321 97.3618C124.223 97.0481 122.655 97.0481 120.774 97.0481C116.854 97.0481 113.718 97.0481 111.523 96.2639C109.328 95.4797 108.074 94.225 107.29 92.0293C106.663 89.9905 106.506 87.3242 106.506 83.8738V83.0897C106.506 80.894 106.506 79.3256 106.192 78.0709C105.722 76.973 105.251 76.3457 104.154 76.032C103.056 75.7184 101.332 75.7184 99.1365 75.7184H92.7081C90.513 75.7184 88.9451 75.7184 87.6907 76.032C86.5932 76.5025 85.966 76.973 85.6524 78.0709C85.3388 79.1688 85.3388 80.894 85.3388 83.0897V83.2465C85.3388 87.0106 85.3388 89.9905 84.5549 92.0293C83.7709 94.225 82.5166 95.4797 80.3215 96.2639C78.9104 96.7344 77.0289 96.8913 74.8338 96.8913C72.4819 96.8913 70.4436 96.7344 68.8757 96.2639C66.6806 95.4797 65.4263 94.225 64.6423 92.0293C64.0152 89.9905 63.8584 87.3242 63.8584 83.8738V83.0897C63.8584 80.894 63.8584 79.3256 63.5448 78.0709C63.0744 76.973 62.604 76.3457 61.5065 76.032C60.409 75.7184 58.6842 75.7184 56.4891 75.7184H50.0607C47.8656 75.7184 46.2977 75.7184 45.0434 76.032C43.9458 76.5025 43.3187 76.973 43.0051 78.0709C42.6915 79.1688 42.6915 80.894 42.6915 83.0897V83.2465C42.6915 87.0106 42.6915 89.9905 41.9075 92.0293C41.1236 94.225 39.8692 95.4797 37.6741 96.2639C35.9494 96.8913 33.5975 96.8913 30.6185 97.0481H28.737C26.5419 97.0481 24.974 97.0481 23.7197 97.3618C22.6221 97.8323 21.995 98.3028 21.6814 99.4006C21.3678 100.499 21.3678 102.224 21.3678 104.419V110.85C21.3678 113.045 21.3678 114.614 21.6814 115.868C22.1518 116.966 22.6221 117.594 23.7197 117.907C24.8172 118.221 26.5419 118.221 28.737 118.221H35.1655C37.3606 118.221 38.9285 118.221 40.1828 117.907C41.2804 117.437 41.9075 116.966 42.2211 115.868C42.5347 114.771 42.5347 113.045 42.5347 110.85V110.066C42.5347 106.615 42.6915 103.949 43.3186 101.91C44.1026 99.7143 45.3569 98.4596 47.552 97.6754C49.1199 97.2049 51.0014 97.0481 53.5101 97.0481C55.7052 97.0481 57.5867 97.3618 58.9978 97.6754C61.1929 98.4596 62.4472 99.7143 63.2312 101.91C63.8584 103.949 64.0152 106.929 64.0152 110.693V110.85C64.0152 113.045 64.0152 114.614 64.3287 115.868C64.7991 116.966 65.2695 117.594 66.367 117.907C67.4646 118.221 69.1893 118.221 71.3844 118.221H77.8128C80.0079 118.221 81.5758 118.221 82.8302 117.907C83.9277 117.437 84.5549 116.966 84.8685 115.868C85.1821 114.771 85.182 113.045 85.182 110.85V110.066C85.182 106.615 85.3388 103.792 85.966 101.91C86.75 99.7143 88.0043 98.4596 90.1994 97.6754C91.7673 97.2049 93.6488 97.0481 96.1575 97.0481C98.3526 97.0481 100.234 97.3618 101.645 97.6754C103.84 98.4596 105.095 99.7143 105.879 101.91C106.506 103.949 106.663 106.929 106.663 110.693V110.85C106.663 113.045 106.663 114.614 106.976 115.868C107.446 116.966 107.917 117.594 109.014 117.907C110.112 118.221 111.837 118.221 114.032 118.221H120.46C122.655 118.221 124.223 118.221 125.478 117.907C126.575 117.437 127.202 116.966 127.516 115.868C127.829 114.771 127.829 113.045 127.829 110.85V104.419C127.829 102.224 127.829 100.499 127.359 99.4006Z" fill="white"/>
    <path d="M176.279 96.5776C177.377 96.1071 178.004 95.6366 178.318 94.5387C178.631 93.4409 178.631 91.7157 178.631 89.52V83.0897C178.631 80.894 178.631 79.3256 178.318 78.0709C177.847 76.973 177.377 76.3457 176.279 76.032C175.182 75.7184 173.457 75.7184 171.262 75.7184H164.833C162.638 75.7184 161.07 75.7184 159.816 76.032C158.719 76.5025 158.091 76.973 157.778 78.0709C157.464 79.1688 157.464 80.7371 157.464 82.6192C157.464 86.5401 157.464 89.6768 156.68 91.8725C155.896 94.0682 154.642 95.3229 152.447 96.1071C150.409 96.7344 147.743 96.8913 144.294 96.8913H143.667C141.472 96.8913 139.904 96.8913 138.649 97.2049C137.552 97.6754 136.925 98.146 136.611 99.2438C136.297 100.342 136.297 102.067 136.297 104.263V110.693C136.297 112.889 136.297 114.457 136.611 115.712C137.081 116.809 137.552 117.437 138.649 117.75C139.747 118.064 141.472 118.064 143.667 118.064H143.823C147.586 118.064 150.565 118.064 152.604 118.848C154.799 119.633 156.053 120.887 156.837 123.083C157.464 124.808 157.464 127.161 157.621 130.141V132.023C157.621 134.218 157.621 135.787 157.935 137.041C158.405 138.139 158.875 138.767 159.973 139.08C161.07 139.394 162.795 139.394 164.99 139.394H171.419C173.614 139.394 175.182 139.394 176.436 139.08C177.534 138.61 178.161 138.139 178.474 137.041C178.788 135.944 178.788 134.218 178.788 132.023V125.592C178.788 123.397 178.788 121.828 178.474 120.574C178.004 119.476 177.534 118.848 176.436 118.535C175.339 118.221 173.614 118.221 171.419 118.221H170.635C167.185 118.221 164.52 118.064 162.482 117.437C160.287 116.653 159.032 115.398 158.248 113.202C157.778 111.634 157.621 109.752 157.621 107.242C157.621 105.047 157.935 103.165 158.248 101.753C159.032 99.5575 160.287 98.3028 162.482 97.5186C164.52 96.8913 167.499 96.7344 171.262 96.7344H171.419C173.457 96.8913 175.182 96.8913 176.279 96.5776Z" fill="white"/>
    <path d="M23.7208 127.004H145.391C146.802 127.004 147.9 128.102 147.9 129.514V136.101C147.9 137.512 146.802 138.61 145.391 138.61H23.7208C22.3097 138.61 21.2122 137.512 21.2122 136.101V129.514C21.2122 128.259 22.3097 127.004 23.7208 127.004Z" fill="white"/>
</svg>
