<svg width="71" height="43" viewBox="0 0 71 43" fill="none" xmlns="http://www.w3.org/2000/svg">
<path d="M45.2109 40.3592C44.6142 40.2586 44.0427 40.075 43.4889 39.8368C43.3323 39.7687 43.2305 39.7879 43.0946 39.8915C41.5233 41.1052 39.6964 41.672 37.7677 41.968C36.7841 42.119 35.7902 42.2048 34.7963 42.1708C32.3832 42.0894 30.038 41.6927 27.8656 40.5605C27.4403 40.3385 27.0253 40.0943 26.6546 39.7894C26.4819 39.6473 26.3283 39.6251 26.1215 39.6843C25.1099 39.9759 24.0761 40.081 23.0261 40.0262C22.8459 39.8575 22.9065 39.6355 22.9065 39.4342C22.9021 35.5328 22.874 31.6299 22.9183 27.7284C22.936 26.1107 21.8506 24.7091 19.9218 24.7121C18.9634 24.7121 18.0049 24.7136 17.0465 24.7121C16.5015 24.7121 16.469 24.684 16.2711 24.1689C15.6228 22.4757 14.0663 21.3479 12.331 21.3154C10.2812 21.2769 8.48979 22.7066 8.04674 24.7328C7.45306 27.4502 9.56048 30.021 12.3369 29.9648C14.0663 29.9293 15.6671 28.7852 16.2697 27.1542C16.4853 26.5725 16.4882 26.5681 17.1188 26.5681C18.0655 26.5681 19.0106 26.5636 19.9573 26.5681C20.7164 26.5725 21.121 26.9662 21.1225 27.7329C21.1299 31.5736 21.1269 35.4144 21.1225 39.2551C21.1225 39.409 21.155 39.5822 20.994 39.6917C19.1111 39.2359 17.4186 38.3833 15.9521 37.1253C15.518 36.7523 15.1827 36.6709 14.6348 36.8618C9.38621 38.6868 4.06229 36.2417 1.54874 31.5692C0.470664 29.5652 -0.068375 27.4295 0.00694269 25.1561C0.111797 21.974 1.25485 19.1959 3.36966 16.8204C5.08424 14.8949 7.20791 13.5806 9.60035 12.6792C9.87799 12.5742 9.99762 12.4128 10.0862 12.1494C11.3725 8.34268 13.8802 5.66082 17.553 4.06976C18.7729 3.54138 20.0636 3.31049 21.3868 3.27793C21.7856 3.26757 22.1961 3.29273 22.5904 3.40818C22.7189 3.59762 22.6761 3.81371 22.6761 4.01796C22.6791 8.54841 22.7027 13.0803 22.6643 17.6108C22.651 19.1796 23.7911 20.6256 25.6578 20.5901C27.526 20.5546 29.3941 20.5827 31.2623 20.5827C31.4218 20.5827 31.5828 20.5753 31.7408 20.6034C32.2104 20.6863 32.5412 21.0149 32.5501 21.4722C32.5752 22.7273 32.559 23.9839 32.559 25.239C32.559 25.6001 32.3182 25.717 32.0347 25.8088C31.1648 26.09 30.4619 26.6021 29.9169 27.3377C27.9513 29.9914 29.5241 33.7375 32.7953 34.1844C34.7786 34.4553 36.4164 33.434 37.1785 32.025C38.2949 29.9589 37.4576 27.2563 35.3782 26.1226C35.2054 26.0278 35.0326 25.9287 34.848 25.865C34.5172 25.7526 34.4035 25.5276 34.4065 25.1887C34.4153 24.0683 34.4168 22.9479 34.4065 21.8275C34.3991 21.0134 34.148 20.2823 33.637 19.6399C33.0079 18.8481 32.1573 18.5832 31.1914 18.5832C29.3602 18.5817 27.5289 18.5832 25.6977 18.5832C24.8027 18.5832 24.4542 18.2368 24.4527 17.3281C24.4498 12.6245 24.4527 7.92234 24.4483 3.21873C24.4483 3.06036 24.497 2.90496 24.469 2.74511C25.3713 2.00361 26.408 1.49743 27.4787 1.06377C29.115 0.402187 30.8207 0.0854552 32.587 0.159458C33.7744 0.20978 34.9263 0.436228 35.997 0.977928C36.2407 1.10077 36.4341 1.10225 36.6852 0.994209C38.3555 0.277862 40.1011 -0.086231 41.922 0.0173728C44.1638 0.146138 46.2121 0.889125 48.1172 2.05837C48.2221 2.12201 48.3417 2.17085 48.4289 2.25373C49.1495 2.92716 50.0105 3.01892 50.9645 3.05148C53.4486 3.13437 55.6446 4.0742 57.5763 5.62234C60.1001 7.64409 61.7468 10.2653 62.7171 13.3305C62.7939 13.5732 62.9209 13.7197 63.1483 13.8322C65.7386 15.1124 67.8638 16.9255 69.3997 19.3942C70.333 20.8935 70.8366 22.5275 70.9725 24.2917C71.1202 26.2247 70.6623 28.0126 69.8678 29.7531C69.2653 31.0719 68.5756 32.3225 67.5743 33.3837C65.9794 35.0739 64.0684 36.1618 61.7527 36.514C60.1858 36.7538 58.6735 36.5333 57.1952 36.0182C56.9545 35.9339 56.8305 35.9605 56.6695 36.1499C55.0376 38.0829 52.9848 39.3735 50.5806 40.118C49.5055 40.451 48.4037 40.6005 47.2784 40.5901C47.1484 40.4613 47.1706 40.2941 47.1706 40.1372C47.1676 36.739 47.1676 33.3408 47.1706 29.9441C47.1706 29.4468 47.2474 29.3743 47.7584 29.3743C50.1183 29.3698 52.4783 29.3743 54.8382 29.3728C56.6163 29.3728 57.882 28.1384 57.9366 26.3549C57.9396 26.2439 57.944 26.1329 57.9396 26.0219C57.9263 25.7348 58.0562 25.5853 58.3294 25.4817C60.171 24.7846 61.2299 23.4392 61.3008 21.4767C61.3613 19.819 60.6023 18.4944 59.1565 17.6463C56.4066 16.033 52.8977 17.8609 52.7161 21.2132C52.6142 23.087 53.7011 24.6677 55.5102 25.4181C56.1068 25.6652 56.1748 25.797 56.0758 26.5636C56.0153 27.0328 55.6785 27.3717 55.206 27.4339C55.0716 27.4517 54.9357 27.4472 54.8013 27.4472C52.5034 27.4472 50.204 27.4472 47.9061 27.4472C47.7717 27.4472 47.6358 27.4472 47.5014 27.4339C47.2976 27.4132 47.1957 27.3007 47.178 27.0994C47.1647 26.9396 47.1676 26.7797 47.1676 26.6199C47.1676 22.3603 47.1676 18.1007 47.1676 13.8411C47.1676 13.4592 47.1603 13.0774 47.1027 12.7C46.8974 11.3679 45.7927 10.3955 44.4474 10.3837C43.1566 10.3733 41.8659 10.3837 40.5751 10.3807C40.0228 10.3807 40.0021 10.3615 39.8101 9.83457C38.7365 6.90554 35.0976 5.96867 32.8056 8.14583C31.5473 9.34024 31.1265 10.8588 31.664 12.5446C32.1912 14.1978 33.3476 15.2471 35.0577 15.5165C37.3616 15.8806 39.3302 14.6077 39.9032 12.5949C39.9933 12.2811 40.1793 12.1583 40.4924 12.1597C41.7211 12.1612 42.9513 12.1509 44.18 12.1642C44.9185 12.1731 45.3157 12.5816 45.3172 13.3201C45.3231 15.4247 45.3187 17.5309 45.3187 19.6355C45.3187 26.3209 45.3187 33.0048 45.3157 39.6902C45.3157 39.9167 45.3822 40.1624 45.205 40.3622L45.2109 40.3592Z" fill="white"/>
<path d="M38.292 11.0334C38.3451 12.5816 37.0706 13.7301 35.6411 13.6679C34.2396 13.6058 33.1896 12.4335 33.2427 10.9742C33.2944 9.59332 34.4966 8.51141 35.904 8.57949C37.3468 8.64905 38.3481 9.67917 38.2905 11.0334H38.292Z" fill="white"/>
<path d="M59.539 21.3894C59.5345 22.7969 58.4033 23.9277 57.0077 23.9217C55.6077 23.9158 54.4941 22.788 54.4912 21.3746C54.4882 19.9374 55.5944 18.8377 57.0417 18.8407C58.4491 18.8437 59.5449 19.9611 59.5404 21.3894H59.539Z" fill="white"/>
<path d="M33.3638 32.3033C31.9623 32.3092 30.84 31.208 30.834 29.8212C30.8267 28.3471 31.9284 27.2193 33.3668 27.2267C34.7387 27.2341 35.8892 28.2849 35.901 29.5445C35.9158 31.1429 34.8539 32.2974 33.3638 32.3033Z" fill="white"/>
<path d="M14.7692 25.4699C14.7367 26.9558 13.635 28.0659 12.2143 28.0452C10.7951 28.0244 9.69635 26.8789 9.71998 25.4477C9.7436 24.0194 10.8837 22.9434 12.3147 22.9582C13.4962 22.9701 14.8977 24.0979 14.7692 25.4684V25.4699Z" fill="white"/>
</svg>
