<svg width="76" height="44" viewBox="0 0 76 44" fill="none" xmlns="http://www.w3.org/2000/svg">
<path fill-rule="evenodd" clip-rule="evenodd" d="M60.2777 22.5582C61.5407 22.8539 62.8354 23.0005 64.1341 22.9948C65.3523 23.0299 66.569 22.8866 67.7437 22.5697C68.7564 22.2938 69.7034 21.8252 70.5303 21.1907C71.2856 20.6077 71.9066 19.8754 72.3527 19.0418C72.7923 18.1581 73.0137 17.186 72.9993 16.2035C73.0171 14.9575 72.6027 13.7424 71.8236 12.7561C70.8 11.6216 69.4463 10.8197 67.9436 10.4578L64.4163 9.30871C63.4144 9.05018 62.4778 8.59249 61.6651 7.96423C61.172 7.51757 60.8981 6.88598 60.9126 6.22905C60.8575 5.34397 61.3107 4.50242 62.0883 4.04571C63.1167 3.53641 64.2648 3.30247 65.4157 3.36772C67.0707 3.33902 68.712 3.66456 70.2246 4.3215C70.5197 4.47724 70.8433 4.57485 71.1769 4.60878C71.5532 4.60878 71.753 4.34448 71.753 3.82737V2.67824C71.766 2.39393 71.6879 2.11273 71.5296 1.87385C71.329 1.61798 71.0718 1.40977 70.7772 1.26482C70.4414 1.07969 70.0868 0.929483 69.719 0.816655C69.6321 0.789833 69.5452 0.762142 69.4577 0.734258C69.0953 0.618784 68.7225 0.500001 68.2963 0.425952C68.1736 0.404625 68.0515 0.38268 67.9291 0.36069C67.524 0.287892 67.1162 0.214605 66.6738 0.161652C66.1018 0.0717041 65.5245 0.0179662 64.9454 0.000774233C63.8792 -0.0119133 62.8172 0.131399 61.7944 0.425952C60.8541 0.682525 59.9723 1.11149 59.196 1.68999C58.455 2.22901 57.8381 2.91413 57.3853 3.70097C56.9263 4.53332 56.6955 5.46757 56.7151 6.41291C56.7201 7.6982 57.1581 8.9461 57.9614 9.96372C58.9906 11.1927 60.3958 12.0667 61.9708 12.4573L65.6038 13.6179C66.5345 13.8443 67.3994 14.2768 68.1317 14.882C68.5845 15.3404 68.8301 15.9572 68.8137 16.5942C68.8293 17.533 68.3319 18.4088 67.5086 18.8924C66.3905 19.4891 65.1238 19.7678 63.852 19.6968C62.8519 19.6866 61.8554 19.5788 60.8773 19.3751C59.9316 19.189 59.0092 18.9039 58.126 18.5247L57.5029 18.2719C57.3544 18.2266 57.1999 18.2034 57.0443 18.203C56.6799 18.203 56.4682 18.4443 56.4682 18.9614V20.2139C56.4512 20.8158 56.823 21.3631 57.3971 21.5814C58.3098 22.0278 59.2782 22.3562 60.2777 22.5582ZM22.2655 18.157C22.0649 17.4464 21.9738 16.7105 21.9951 15.9737V8.05616C22.1747 5.84818 21.4228 3.66442 19.914 2.01175C18.5031 0.690251 16.3279 0.0352481 13.3533 0.0352481C12.0371 0.0203095 10.7246 0.174856 9.44976 0.494899C8.3582 0.759797 7.30104 1.14532 6.29874 1.64403C6.02566 1.76046 5.78411 1.93752 5.59329 2.16114C5.44835 2.42081 5.38689 2.71716 5.41692 3.01149V4.16062C5.41692 4.67773 5.59329 4.91904 5.94601 4.91904C6.08162 4.91193 6.21586 4.88877 6.34577 4.8501C6.64318 4.76299 6.93392 4.65547 7.21583 4.52834C8.09796 4.19561 9.00127 3.91924 9.92007 3.70097C10.8053 3.4899 11.7131 3.3819 12.6243 3.37921C14.0844 3.24064 15.5435 3.65162 16.7042 4.52834C17.6034 5.63494 18.0253 7.04087 17.8799 8.44687V10.228C16.8805 10.0097 15.9282 9.81433 14.9993 9.68793C14.1226 9.56832 13.239 9.50307 12.3539 9.49257C10.1593 9.39635 8.00228 10.0732 6.27522 11.4001C4.7662 12.6518 3.9295 14.5119 4.00602 16.4448C3.92882 18.1937 4.59724 19.8955 5.85195 21.1447C7.21181 22.365 9.01716 22.9988 10.8607 22.9029C13.716 22.9471 16.4323 21.7003 18.2209 19.5245C18.4913 20.0875 18.7382 20.5472 18.9969 20.9724C19.2548 21.3836 19.5541 21.7686 19.8905 22.1215C20.0918 22.3179 20.3591 22.4363 20.643 22.4547C20.8759 22.4462 21.101 22.3702 21.2896 22.2364L22.8769 21.2137C23.1412 21.0525 23.3147 20.7811 23.3472 20.4782C23.3455 20.2778 23.2842 20.0822 23.1708 19.9152C22.8219 19.3534 22.5192 18.7655 22.2655 18.157ZM14.4585 19.2602C13.6254 19.5387 12.7523 19.6861 11.8718 19.6968C10.9168 19.733 9.98755 19.3888 9.29692 18.7431C8.63507 18.0437 8.29886 17.1078 8.36807 16.1575C8.29245 15.0917 8.72672 14.0518 9.54382 13.3422C10.638 12.6058 11.9586 12.2608 13.2827 12.3654C14.0687 12.3661 14.8539 12.4122 15.6342 12.5033C16.4058 12.6042 17.1712 12.7462 17.927 12.9285V13.9512C17.9311 14.6834 17.8402 15.4132 17.6565 16.123C17.5015 16.7008 17.2117 17.2357 16.81 17.6859C16.1748 18.3963 15.3658 18.938 14.4585 19.2602ZM31.9772 22.3398C31.6407 22.3706 31.3037 22.2853 31.0249 22.0985C30.7644 21.8326 30.5816 21.5032 30.4958 21.1447L24.617 2.23008C24.4898 1.93525 24.399 1.62664 24.3466 1.31078C24.3243 1.14766 24.3794 0.983536 24.4962 0.86496C24.6129 0.746384 24.7786 0.686296 24.9462 0.701743H27.3918C27.7366 0.658793 28.0853 0.74501 28.3677 0.94306C28.6192 1.21192 28.7936 1.54094 28.8732 1.89684L33.0824 18.0881L36.986 1.89684C37.0325 1.53739 37.1976 1.20256 37.4563 0.94306C37.756 0.763894 38.105 0.679612 38.4556 0.701743H40.4544C40.8101 0.663093 41.1682 0.748568 41.4656 0.94306C41.7257 1.20157 41.8911 1.53691 41.9359 1.89684L45.8864 18.2834L50.225 1.89684C50.298 1.541 50.4687 1.21129 50.7188 0.94306C51.0097 0.76354 51.3514 0.679033 51.6947 0.701743H54.0462C54.2176 0.678549 54.3903 0.735211 54.5127 0.854831C54.6351 0.974452 54.693 1.14321 54.6693 1.31078C54.6795 1.44083 54.6795 1.57144 54.6693 1.70148C54.6339 1.91029 54.5748 2.11457 54.493 2.31052L48.4378 21.1677C48.3611 21.527 48.1817 21.8577 47.9205 22.1215C47.6342 22.2917 47.3029 22.3756 46.9681 22.3628H44.8165C44.4609 22.4015 44.1027 22.316 43.8053 22.1215C43.5496 21.8509 43.3854 21.5098 43.335 21.1447L39.455 5.3672L35.5986 21.1103C35.5448 21.4778 35.3812 21.8216 35.1283 22.0985C34.8308 22.2828 34.48 22.3675 34.1289 22.3398H31.9772Z" fill="white"/>
<path fill-rule="evenodd" clip-rule="evenodd" d="M68.4063 34.9659C60.1307 40.8627 48.0958 43.9993 37.7632 43.9993C23.9454 44.0663 10.5989 39.1572 0.334201 30.2325C-0.446062 29.5481 0.263268 28.6242 1.19722 29.1603C12.5982 35.45 25.5047 38.7566 38.638 38.7526C48.4499 38.7021 58.1554 36.7875 67.2004 33.1181C68.5718 32.5136 69.754 33.9964 68.4063 34.9659Z" fill="white"/>
<path fill-rule="evenodd" clip-rule="evenodd" d="M72.2404 31.8127C71.1904 30.4501 65.3342 31.1492 62.6744 31.4809C61.8812 31.5876 61.7528 30.8767 62.4761 30.2961C67.1424 26.9666 74.8185 27.9263 75.7168 29.0401C76.615 30.1539 75.4601 37.9622 71.0505 41.6945C70.3738 42.2751 69.7322 41.9789 70.0355 41.2206C71.0738 38.7679 73.2786 33.1161 72.2404 31.8127Z" fill="white"/>
</svg>
