<svg width="61" height="60" viewBox="0 0 61 60" fill="none" xmlns="http://www.w3.org/2000/svg">
<path fill-rule="evenodd" clip-rule="evenodd" d="M0 30C0 13.4118 13.463 0 30.1146 0C46.7663 0 60.2293 13.4118 60.2293 30C60.2293 46.5882 46.7663 60 30.1146 60C13.463 60 0 46.5882 0 30ZM54.9148 29.9999C54.9148 43.6446 43.8113 54.7058 30.1145 54.7058C16.4177 54.7058 5.31419 43.6446 5.31419 29.9999C5.31419 16.3553 16.4177 5.29406 30.1145 5.29406C43.8113 5.29406 54.9148 16.3553 54.9148 29.9999Z" fill="white"/>
<path d="M24.4459 32.8235C26.0112 32.8235 27.2802 31.5594 27.2802 30C27.2802 28.4406 26.0112 27.1765 24.4459 27.1765C22.8805 27.1765 21.6116 28.4406 21.6116 30C21.6116 31.5594 22.8805 32.8235 24.4459 32.8235Z" fill="white"/>
<path d="M17.0058 22.2352H15.5887C14.8801 22.2352 14.5258 22.5882 14.5258 23.2941V43.4117C14.5258 44.4705 15.5887 45.5294 16.6516 45.5294H36.4918C37.2004 45.5294 37.5547 45.1764 37.5547 44.4705V43.0588C37.5547 42.3529 37.2004 42 36.4918 42H18.7773C18.423 42 18.423 41.647 18.423 41.647V23.2941C18.0687 22.5882 17.7144 22.2352 17.0058 22.2352Z" fill="white"/>
<path d="M35.4288 32.8235C36.9942 32.8235 38.2632 31.5594 38.2632 30C38.2632 28.4406 36.9942 27.1765 35.4288 27.1765C33.8635 27.1765 32.5945 28.4406 32.5945 30C32.5945 31.5594 33.8635 32.8235 35.4288 32.8235Z" fill="white"/>
<path d="M23.7374 14.4706C23.0288 14.4706 22.6745 14.8235 22.6745 15.5294V16.9412C22.6745 17.647 23.0288 18 23.7374 18H41.4519C41.8062 18 41.8062 18.3529 41.8062 18.3529V36.7059C41.8062 37.4117 42.1605 37.7647 42.869 37.7647H44.2862C44.9948 37.7647 45.3491 37.4117 45.3491 36.7059V16.5882C45.3491 15.5294 44.2862 14.4706 43.2233 14.4706H23.7374Z" fill="white"/>
</svg>
