<svg width="46" height="60" viewBox="0 0 46 60" fill="none" xmlns="http://www.w3.org/2000/svg">
<path fill-rule="evenodd" clip-rule="evenodd" d="M43.6364 11.5007L24.9351 0.554448C23.6492 -0.184816 22.065 -0.184816 20.7792 0.554448L2.07792 11.5007C0.809985 12.1949 0.0159072 13.5154 0 14.9563V38.98C0.0202422 40.4196 0.813114 41.7381 2.07792 42.4356L12.3013 48.4363V59.0101C12.3077 59.1851 12.3576 59.3557 12.4468 59.5067C12.7346 59.9855 13.3567 60.1427 13.839 59.8585L43.6364 42.4356C44.9012 41.7381 45.694 40.4196 45.7143 38.98V14.9563C45.6984 13.5154 44.9043 12.1949 43.6364 11.5007ZM23.7232 9.25456C23.2997 9.01173 22.7826 9.00248 22.3517 9.2274L22.3103 9.2499L11.1186 15.569C10.9399 15.6698 10.7918 15.8169 10.6895 15.9948C10.3813 16.5313 10.5566 17.2133 11.0793 17.5361L11.1111 17.5551L22.3009 23.9848C22.7307 24.2317 23.2566 24.2377 23.6908 24.0034L23.7326 23.98L34.7505 17.5512C34.9233 17.4504 35.0665 17.3061 35.166 17.1326C35.4738 16.5957 35.2978 15.9139 34.7748 15.5916L34.743 15.5727L23.7232 9.25456ZM11.6022 22.4619C10.9827 22.4619 10.4783 22.9548 10.4599 23.5698L10.4593 23.6048L10.4597 35.3674L10.4634 35.4904C10.5054 36.2079 10.8989 36.861 11.5176 37.2329L11.5611 37.2583L17.3141 40.5415V45.1495L17.3173 45.2348C17.3609 45.8262 17.8545 46.2924 18.457 46.2924C18.6426 46.2924 18.8252 46.2472 18.9891 46.1609L19.0297 46.1385L34.2936 37.2999L34.3987 37.236C35.0021 36.8455 35.376 36.181 35.3942 35.4594L35.3949 35.409V23.6069C35.3949 23.4072 35.3425 23.211 35.2431 23.0379C34.935 22.5012 34.2576 22.309 33.7154 22.5978L33.683 22.6157L23.5322 28.4432L23.4453 28.4922C23.1037 28.6655 22.6961 28.6565 22.3615 28.4652L22.3246 28.4432L12.1712 22.6136C11.9981 22.5142 11.8018 22.4619 11.6022 22.4619Z" fill="white"/>
</svg>
