<svg width="90" height="42" viewBox="0 0 90 42" fill="none" xmlns="http://www.w3.org/2000/svg">
<path d="M65.4048 7.65714V23.6446H69.2333V18.8238H77.5286V23.6095H81.3571V7.65714H65.4048ZM77.5286 14.9952H69.2333V11.4857H77.5286V14.9952Z" fill="white"/>
<path d="M61.8984 23.6095H46.2651V19.781H58.0699V17.5476H46.2651V7.65714H61.8984V11.4857H50.0937V13.719H61.8984V23.6095Z" fill="white"/>
<path d="M26.8 7.65714V23.6446H30.6286V18.8238H38.9238V23.6095H42.7524V7.65714H26.8ZM38.9238 14.9952H30.6286V11.4857H38.9238V14.9952Z" fill="white"/>
<path d="M18.1602 17.5285L23.0608 15.745L23.2937 15.6525V7.65714H7.65714V23.6095H11.4379V19.9692L14.3093 18.9291L18.6324 23.6095H23.3607L18.1602 17.5285ZM11.4602 15.895V11.4857H19.4619V12.9789L11.4602 15.895Z" fill="white"/>
<path d="M84.7295 27.2913V4.288H4.29119V27.2913H61.7198L77.0947 34.891V27.2913H84.7295ZM0 0H89.0143V31.5857H81.389V41.7952L60.7243 31.5857H0V0Z" fill="white"/>
</svg>
