<svg width="218" height="96" viewBox="0 0 218 96" fill="none" xmlns="http://www.w3.org/2000/svg">
<path d="M52.0901 47.5417L62.4581 31.916H50.7735L42.3175 45.0419V31.916H31.3555V63.93H42.3175V51.2344L49.8804 63.93H62.1648L52.0901 47.5417Z" fill="#121210"/>
<path d="M65.5898 41.8521V63.9302H76.2123V41.8521H65.5898Z" fill="#121210"/>
<path d="M86.1313 42.1059V63.93H97.0948V42.1059H103.383V31.916H79.8359V42.1059H86.1313Z" fill="#121210"/>
<path d="M112.055 42.1059V63.93H123.017V42.1059H129.305V31.916H105.766V42.1059H112.055Z" fill="#121210"/>
<path d="M147.039 64.6088C149.759 64.6088 152.223 64.0153 154.348 62.8268V51.9566C152.582 53.5607 150.275 54.44 147.889 54.4189C143.896 54.4189 141.005 51.6591 141.005 47.9202C141.005 44.1813 143.896 41.4216 147.889 41.4216C150.274 41.4024 152.579 42.2827 154.343 43.8867V32.9776C152.076 31.8381 149.573 31.2446 147.035 31.2446C137.22 31.2446 130.039 38.3773 130.039 47.9303C130.039 57.4834 137.225 64.6088 147.039 64.6088Z" fill="#121210"/>
<path d="M157.328 31.916V63.93H168.29V52.81H176.107V63.93H187.071V31.916H176.107V42.6157H168.29V31.916H157.328Z" fill="#121210"/>
<path d="M66.3188 39.0272C64.69 37.8718 62.921 34.4275 63.5165 31.5089C64.0151 29.0625 64.6914 26.8053 65.5962 26.6479C64.729 27.9043 65.073 28.5253 65.2349 28.8459C65.3967 29.1665 65.7927 29.4062 66.1266 29.2676C66.4156 29.1463 66.5486 28.804 66.6324 28.4964C67.0515 26.9569 67.0529 25.3467 67.5559 23.8318C68.0588 22.3169 69.3653 20.981 70.8452 20.3918C70.3076 21.2756 69.6023 21.8779 69.4592 22.8469C69.1919 24.6521 70.2902 25.0564 70.692 25.0969C71.2455 25.1517 71.8106 24.7546 72.0751 24.2665C72.5867 23.3206 73.0289 21.7147 72.1098 19.4011C71.4204 17.6682 71.3481 16.4536 72.6879 15.1597C72.6344 17.0732 73.0896 17.944 73.9958 19.6365C74.6418 20.8395 75.5451 22.0728 75.3312 23.4202C75.2387 23.9979 74.9453 24.5221 74.662 25.0333C74.3788 25.5446 74.0926 26.076 74.0233 26.6566C73.9539 27.2371 74.1432 27.887 74.636 28.2047C75.1289 28.5224 75.9208 28.3318 76.0813 27.7714C76.1339 27.5642 76.1037 27.3446 75.9972 27.1591C75.8906 26.9737 75.7161 26.8369 75.5104 26.7779C76.2402 26.7475 76.8617 27.3555 77.1507 28.0227C77.4398 28.6899 77.4904 29.4394 77.6638 30.1485C77.9745 31.4309 78.4023 32.6397 78.3662 33.9582C78.3242 35.4572 77.6768 38.5231 74.8687 39.6582C72.5361 40.6042 68.3536 40.4771 66.3188 39.0272Z" fill="#52C5F2"/>
<path d="M66.3991 38.8871C65.7762 38.4394 65.2906 37.8054 64.8918 37.1541C64.401 36.3551 64.0341 35.4865 63.8035 34.5777C63.5525 33.6525 63.4954 32.6854 63.6359 31.7371C63.8139 30.6758 64.0793 29.6311 64.4293 28.6134C64.5689 28.1741 64.759 27.7525 64.9958 27.357C65.1403 27.1201 65.3456 26.8559 65.6375 26.7981L65.4612 26.5656C65.058 27.1606 64.6967 27.9202 64.9698 28.6423C65.0595 28.9303 65.2458 29.1787 65.4973 29.3456C65.5873 29.4018 65.6879 29.4389 65.7929 29.4548C65.8978 29.4707 66.0049 29.4649 66.1075 29.4378C66.2102 29.4108 66.3062 29.363 66.3896 29.2975C66.4731 29.2319 66.5422 29.15 66.5928 29.0568C66.7021 28.8535 66.7814 28.6356 66.8284 28.4098C66.9035 28.1209 66.9729 27.8206 67.0191 27.5231C67.1246 26.9295 67.1998 26.3302 67.2952 25.7338C67.4657 24.6564 67.7027 23.5892 68.3169 22.6693C68.9433 21.7228 69.838 20.9847 70.8865 20.5493L70.703 20.311C70.333 20.9103 69.8359 21.4331 69.5295 22.0743C69.2566 22.6624 69.1811 23.3229 69.3141 23.9575C69.4587 24.6348 70.0209 25.2269 70.742 25.2572C71.9358 25.3164 72.5052 23.9705 72.7003 23C72.8132 22.4234 72.8332 21.8325 72.7596 21.2497C72.6671 20.4886 72.4214 19.7896 72.1583 19.0748C71.9228 18.4379 71.7248 17.7505 71.8028 17.066C71.8852 16.3511 72.3 15.7662 72.8029 15.268L72.5254 15.1539C72.5024 15.7436 72.5484 16.3339 72.6627 16.9129C72.7768 17.4192 72.9479 17.9109 73.1729 18.3787C73.4374 18.9491 73.738 19.5066 74.0473 20.0539C74.371 20.6316 74.7222 21.1948 74.9563 21.8129C75.1904 22.431 75.2844 23.0751 75.1008 23.7148C74.8999 24.3921 74.475 24.9713 74.1817 25.6081C73.9244 26.1656 73.7625 26.7779 73.9143 27.3888C74.0371 27.8783 74.3811 28.352 74.8942 28.4748C75.3754 28.5888 75.9708 28.4112 76.1949 27.9404C76.2499 27.8127 76.2771 27.6746 76.2746 27.5355C76.2721 27.3964 76.24 27.2595 76.1804 27.1338C76.1208 27.0081 76.035 26.8965 75.9289 26.8065C75.8227 26.7165 75.6986 26.6501 75.5647 26.6118L75.5214 26.931C76.4694 26.9107 77.0027 27.8653 77.208 28.6639C77.3308 29.1448 77.3901 29.6373 77.497 30.1196C77.604 30.602 77.7586 31.119 77.8843 31.6187C78.104 32.4852 78.2615 33.3777 78.1907 34.2817C78.1488 34.8121 78.0519 35.3367 77.9017 35.8472C77.5187 37.1469 76.7672 38.3585 75.6038 39.095C74.3406 39.8922 72.7292 40.0886 71.2681 40.0915C70.3749 40.0988 69.4839 40.0018 68.6132 39.8027C67.8249 39.6379 67.0754 39.3242 66.4049 38.8784C66.2329 38.7571 66.0711 39.0387 66.2401 39.1586C67.5235 40.0612 69.213 40.3471 70.7493 40.4078C72.2855 40.4684 73.9894 40.3125 75.3841 39.5976C76.718 38.9131 77.6285 37.6697 78.1112 36.2761C78.3046 35.7096 78.435 35.1236 78.5 34.5286C78.5766 33.7023 78.5171 32.8691 78.3237 32.062C78.1893 31.4483 78.0129 30.8461 77.8612 30.2381C77.7167 29.672 77.6531 29.09 77.5028 28.5268C77.2542 27.6039 76.5894 26.593 75.5185 26.6161C75.4798 26.6172 75.4427 26.632 75.4139 26.6578C75.385 26.6837 75.3664 26.719 75.3612 26.7573C75.3559 26.7957 75.3645 26.8346 75.3854 26.8672C75.4063 26.8998 75.4381 26.924 75.4751 26.9353C75.9289 27.0624 76.1284 27.6718 75.7541 27.9982C75.5913 28.1288 75.3881 28.1986 75.1794 28.1954C74.9706 28.1922 74.7696 28.1164 74.6109 27.9809C74.2106 27.6328 74.1123 27.0393 74.2077 26.5367C74.3247 25.9157 74.6658 25.3814 74.9621 24.8268C75.2584 24.2723 75.4997 23.7365 75.5257 23.1227C75.5318 22.5698 75.4153 22.0224 75.1846 21.5197C74.9407 20.9812 74.6651 20.4575 74.3594 19.9514C74.0819 19.4618 73.816 18.9636 73.5674 18.4581C73.3241 17.979 73.1351 17.4743 73.0038 16.9533C72.8775 16.3648 72.8266 15.7625 72.8521 15.1611C72.8512 15.1294 72.8412 15.0986 72.8232 15.0724C72.8052 15.0463 72.78 15.0258 72.7507 15.0136C72.7214 15.0014 72.6892 14.998 72.6579 15.0036C72.6267 15.0093 72.5977 15.0239 72.5746 15.0456C72.136 15.4471 71.8008 15.9485 71.5976 16.5071C71.446 17.0134 71.4231 17.5494 71.5311 18.0668C71.6511 18.7296 71.9358 19.3333 72.1425 19.9702C72.3555 20.604 72.4686 21.2671 72.4777 21.9356C72.4822 22.4425 72.4066 22.947 72.2537 23.4303C72.1092 23.8737 71.917 24.3459 71.5485 24.6478C70.9313 25.1518 70.1032 24.9539 69.7463 24.2333C69.4746 23.6715 69.5338 22.9133 69.7607 22.3559C70.0396 21.6627 70.5932 21.111 70.9819 20.4785C71.0513 20.3673 70.9328 20.1897 70.7984 20.2402C69.94 20.5907 69.1742 21.1346 68.5608 21.8295C67.9474 22.5244 67.5029 23.3515 67.2619 24.2463C66.9729 25.3265 66.8833 26.4457 66.6838 27.5433C66.6347 27.8076 66.5798 28.0704 66.5133 28.3303C66.4734 28.566 66.3826 28.7903 66.2474 28.9874C65.941 29.3557 65.5089 29.0351 65.3456 28.7073C65.0059 28.0227 65.3456 27.3223 65.7387 26.7374C65.8254 26.6104 65.6837 26.4732 65.5551 26.4977C64.9004 26.6262 64.5435 27.4509 64.3267 27.9924C63.8931 29.0192 63.646 30.1196 63.4176 31.2042C63.2022 32.2029 63.1943 33.2351 63.3945 34.2369C63.5932 35.2215 63.9473 36.1681 64.4437 37.0415C64.899 37.8487 65.48 38.63 66.2387 39.1774C66.4049 39.29 66.5668 39.0084 66.3991 38.8871Z" fill="#121210"/>
<path opacity="0.12" d="M69.9217 38.1101C68.4635 37.9874 64.8635 38.1101 63.7954 30.1904C63.5801 30.6395 63.9761 29.0697 63.4775 31.5161C62.8821 34.4348 64.6496 37.8704 66.2798 39.0344C68.319 40.4785 72.4942 40.6114 74.8384 39.6655C77.6465 38.5304 78.2939 35.4644 78.3358 33.9654C78.372 32.6469 77.9442 31.4382 77.632 30.1557C77.4571 29.4452 77.4095 28.6943 77.1204 28.0227C76.8314 27.3512 76.9513 27.6862 76.3183 27.0537C77.4095 29.269 76.3342 30.0662 77.0727 32.3971C77.8531 34.8637 76.7114 37.2942 74.0377 37.765C73.5117 37.8574 72.698 37.9094 71.3771 38.0711C71.3872 38.0682 70.2917 38.1347 69.9217 38.1101Z" fill="black"/>
<path opacity="0.12" d="M75.1094 23.9805C75.4418 22.9855 75.345 22.6808 74.8724 21.4071C74.6195 20.7211 74.0168 19.7434 73.7278 19.0733C73.4387 18.4032 73.0644 18.0465 72.8086 17.1699C73.0514 17.6638 72.891 18.8018 73.1222 19.4878C73.4113 20.3268 74.1859 21.6699 74.303 22.3761C74.5183 23.6859 74.3131 24.3979 74.2235 25.6572L75.1094 23.9805Z" fill="black"/>
<path d="M67.0624 37.2276C66.2941 36.407 65.7905 35.3745 65.6171 34.2642C65.4842 33.428 65.7833 31.8091 66.3788 31.2055C66.5103 31.5376 66.545 32.6973 66.8123 32.924C67.0797 33.1507 67.3471 33.0468 67.5899 32.7796C67.7145 32.6179 67.7885 32.4229 67.8023 32.2193C67.9945 31.0105 68.0307 30.1527 68.5668 29.0522C69.0929 27.9749 70.0121 27.0637 71.1596 26.7012C70.752 27.4594 70.3763 28.2623 70.3763 28.98C70.3763 29.4133 70.7347 30.5339 71.7709 30.2942C72.6265 30.0978 72.8143 28.502 72.6481 28.1034C73.7205 28.9699 75.0559 30.5672 75.7612 31.7514C76.4664 32.9356 76.4115 34.7393 75.8378 35.9928C75.2178 37.3475 74.248 37.9843 73.0918 38.3829C72.031 38.7454 69.168 39.4501 67.0624 37.2276Z" fill="#A6E6DB"/>
<path d="M67.1754 37.1124C66.7504 36.6566 66.4081 36.1303 66.1638 35.5571C65.9312 35.0537 65.7912 34.5127 65.7504 33.9598C65.7371 33.4831 65.7926 33.0069 65.9152 32.546C66.025 32.1128 66.1797 31.6477 66.4933 31.3214L66.2216 31.2492C66.3979 31.7228 66.3502 32.2601 66.5236 32.7337C66.5582 32.8579 66.6286 32.9691 66.726 33.0536C66.8234 33.1381 66.9435 33.1921 67.0714 33.2089C67.4153 33.2406 67.7463 32.9489 67.8691 32.6471C68.0137 32.2933 68.0252 31.8687 68.0801 31.4918C68.1351 31.1148 68.1871 30.7581 68.2709 30.3985C68.4383 29.6402 68.7649 28.926 69.2291 28.3031C69.727 27.6326 70.4169 27.129 71.2076 26.8589L71.0241 26.6207C70.485 27.5983 69.7797 28.9486 70.5573 29.9927C70.702 30.1952 70.9075 30.3463 71.144 30.4242C71.3804 30.5021 71.6356 30.5027 71.8724 30.426C72.3233 30.2816 72.5777 29.8281 72.7135 29.4035C72.8393 29.0122 72.952 28.4547 72.7974 28.0532L72.5257 28.2121C73.5992 29.1124 74.5346 30.1654 75.3019 31.3372C75.6874 31.8708 75.9459 32.4853 76.0578 33.1338C76.1572 33.8223 76.1159 34.5239 75.9364 35.196C75.7809 35.8179 75.4856 36.3962 75.0729 36.8869C74.6602 37.3776 74.1409 37.7679 73.5547 38.028C72.7392 38.3885 71.8618 38.5886 70.9706 38.6172C70.2684 38.6501 69.5673 38.5328 68.9141 38.2733C68.2609 38.0138 67.6706 37.618 67.1827 37.1124C67.0381 36.9608 66.8083 37.1918 66.9529 37.342C67.8838 38.3099 69.1541 38.8794 70.4966 38.9306C71.4421 38.9668 72.3853 38.8147 73.2714 38.4829C73.8771 38.274 74.4372 37.9515 74.9218 37.5327C75.4321 37.0663 75.8278 36.4886 76.078 35.8444C76.5882 34.5707 76.6229 32.9273 75.9335 31.7113C75.5221 31.0201 75.0496 30.3671 74.5215 29.7602C73.995 29.1152 73.4085 28.5214 72.7699 27.9868C72.6586 27.8973 72.4332 27.9767 72.4982 28.1457C72.6066 28.4273 72.543 28.797 72.4794 29.08C72.4014 29.4324 72.254 29.8555 71.9288 30.0563C71.7572 30.1535 71.5567 30.1866 71.363 30.1499C71.1692 30.1131 70.9948 30.0088 70.8709 29.8555C70.6687 29.607 70.554 29.299 70.5443 28.9789C70.5327 28.2063 70.9576 27.4453 71.3203 26.7896C71.3351 26.7608 71.3411 26.7283 71.3375 26.6961C71.3339 26.6639 71.3208 26.6335 71.3 26.6087C71.2792 26.5838 71.2515 26.5657 71.2204 26.5565C71.1893 26.5474 71.1562 26.5476 71.1252 26.5571C69.8028 26.9904 68.8129 28.0561 68.2854 29.3154C68.0269 29.978 67.855 30.6712 67.7738 31.3777C67.7463 31.5596 67.7217 31.7431 67.6943 31.925C67.6763 32.1211 67.6376 32.3148 67.5786 32.5027C67.4703 32.7828 67.0352 33.0645 66.856 32.6904C66.6335 32.2124 66.7115 31.6434 66.5338 31.1553C66.5259 31.1281 66.5111 31.1034 66.4908 31.0837C66.4705 31.0639 66.4454 31.0498 66.418 31.0427C66.3906 31.0355 66.3619 31.0356 66.3345 31.043C66.3072 31.0503 66.2822 31.0646 66.262 31.0845C65.7244 31.6449 65.5394 32.5287 65.4527 33.2753C65.372 34.1816 65.5478 35.0923 65.96 35.9037C66.2119 36.428 66.5429 36.9107 66.9413 37.3348C67.0887 37.4951 67.3185 37.2655 67.1754 37.1124Z" fill="#121210"/>
<path opacity="0.12" d="M66.7092 36.8987C64.8304 34.5881 65.8421 31.6492 65.8797 32.0579C66.4404 38.4223 72.9078 38.5566 72.4005 38.6923C71.5941 38.9162 68.4507 39.0317 66.7092 36.8987Z" fill="black"/>
<path d="M71.7526 37.5743C72.3697 37.2291 73.2932 36.2385 73.9205 35.1958C74.5188 34.1993 74.4986 32.979 74.3121 32.4519C74.1257 31.9248 73.3641 31.4973 72.8048 31.5738C71.7931 31.7183 71.5041 33.3372 71.4448 33.6476C71.2641 33.1942 71.1384 32.2916 70.2886 31.9724C69.4388 31.6533 68.8896 32.2613 68.6526 32.6945C67.7681 34.299 69.6932 35.9814 69.9533 36.2587C70.384 36.7092 71.7526 37.5743 71.7526 37.5743Z" fill="#FDAEF8"/>
<path d="M71.8346 37.7143C72.5818 37.2811 73.1816 36.5503 73.6744 35.8615C73.97 35.474 74.2062 35.0447 74.3753 34.5877C74.5134 34.1786 74.5856 33.7501 74.5892 33.3183C74.6068 32.98 74.5542 32.6417 74.4346 32.3247C74.2638 31.9809 73.975 31.7098 73.6209 31.5608C73.2986 31.3963 72.9262 31.3587 72.5775 31.4554C72.297 31.5607 72.0558 31.7498 71.8867 31.9969C71.5485 32.4576 71.3808 33.0439 71.2869 33.5999H71.6005C71.4984 33.2726 71.3788 32.9511 71.2421 32.6367C71.0547 32.2582 70.7318 31.9639 70.3374 31.8121C69.4702 31.4842 68.6898 32.0908 68.3892 32.8894C67.8733 34.257 69.028 35.6333 69.979 36.4998C70.5093 36.9516 71.0769 37.3579 71.6757 37.7143C71.8534 37.827 72.0167 37.5453 71.8404 37.4342C70.9733 36.8868 70.1596 36.299 69.4919 35.5207C69.0425 34.9964 68.6147 34.3408 68.5944 33.6274C68.5742 32.9544 69.0439 32.0532 69.807 32.0388C70.0374 32.0426 70.2626 32.1083 70.4589 32.229C70.6552 32.3497 70.8154 32.5209 70.9227 32.7248C71.0947 33.0266 71.1669 33.3645 71.2927 33.6851C71.3447 33.8166 71.5817 33.8613 71.6063 33.6851C71.7508 32.8504 72.1743 31.4409 73.2914 31.7774C73.6396 31.8726 73.9374 32.0988 74.1224 32.4085C74.2302 32.665 74.2795 32.9422 74.2669 33.2201C74.2726 33.6067 74.2195 33.9918 74.1094 34.3624C73.9716 34.784 73.7682 35.1811 73.5068 35.5394C73.2246 35.9507 72.908 36.3372 72.5601 36.6947C72.3002 36.9796 72.0015 37.2266 71.6728 37.4284C71.6348 37.4498 71.6069 37.4855 71.5953 37.5274C71.5836 37.5694 71.5892 37.6143 71.6106 37.6522C71.6321 37.6901 71.6677 37.718 71.7098 37.7296C71.7518 37.7413 71.7967 37.7358 71.8346 37.7143Z" fill="#121210"/>
<path opacity="0.12" d="M71.7164 37.5744C72.2107 37.3145 73.0662 36.2978 72.8148 36.4191C71.238 37.1412 70.3174 35.6783 69.8809 35.0934C68.3187 32.9965 70.4894 32.0838 70.4894 32.0838C71.0848 32.0361 68.7551 31.4296 68.4444 33.0109C68.0889 34.8074 69.7451 35.9974 69.9185 36.2559C70.2726 36.7686 71.7164 37.5744 71.7164 37.5744Z" fill="black"/>
</svg>
