<svg width="43" height="30" viewBox="0 0 43 30" fill="none" xmlns="http://www.w3.org/2000/svg">
<path id="ic-quote-2 copy" fill-rule="evenodd" clip-rule="evenodd" d="M24.7364 16.3636C24.2946 17.5758 24 18.9394 24 20.303C24 25.6061 28.2713 30 33.5736 30C38.7287 30 43 25.6061 43 20.303C43 15.6061 39.7597 11.6667 35.4884 10.7576L39.3178 0H31.6589L24.7364 16.3636ZM0.88372 16.3636C0.294575 17.5758 0 18.9394 0 20.303C0 25.6061 4.27132 30 9.42636 30C14.7287 30 19 25.6061 19 20.303C19 15.6061 15.7597 11.6667 11.6357 10.7576L15.4651 0H7.65891L0.88372 16.3636Z" fill="white"/>
</svg>
