<svg width="43" height="30" viewBox="0 0 43 30" fill="none" xmlns="http://www.w3.org/2000/svg">
<path id="ic-quote-2" fill-rule="evenodd" clip-rule="evenodd" d="M18.2636 13.6364C18.7054 12.4242 19 11.0606 19 9.69697C19 4.39394 14.7287 0 9.42636 0C4.27132 0 0 4.39394 0 9.69697C0 14.3939 3.24031 18.3333 7.51163 19.2424L3.68217 30H11.3411L18.2636 13.6364ZM42.1163 13.6364C42.7054 12.4242 43 11.0606 43 9.69697C43 4.39394 38.7287 0 33.5736 0C28.2713 0 24 4.39394 24 9.69697C24 14.3939 27.2403 18.3333 31.3643 19.2424L27.5349 30H35.3411L42.1163 13.6364Z" fill="white"/>
</svg>
