<svg width="284" height="258" viewBox="0 0 284 258" fill="none" xmlns="http://www.w3.org/2000/svg">
<path d="M139.14 256.886H136.494C135.912 256.886 135.354 256.654 134.943 256.242C134.532 255.829 134.301 255.27 134.301 254.687V247.18H139.14L141.085 254.332C141.167 254.632 141.178 254.947 141.119 255.252C141.059 255.557 140.931 255.844 140.742 256.091C140.554 256.338 140.312 256.538 140.034 256.676C139.756 256.814 139.45 256.886 139.14 256.886H139.14Z" fill="#A36468"/>
<path d="M234.323 76.8828H14.9243C12.5801 76.8828 10.6797 79.495 10.6797 82.7172V190.168C10.6797 193.39 12.5801 196.002 14.9243 196.002H234.323C236.667 196.002 238.567 193.39 238.567 190.168V82.7172C238.567 79.495 236.667 76.8828 234.323 76.8828Z" fill="#F2F2F2"/>
<path fill-rule="evenodd" clip-rule="evenodd" d="M2.34989 2.74048C1.65668 3.694 1.22119 5.02211 1.22119 6.49895V206.386C1.22119 207.863 1.65668 209.191 2.34989 210.144C3.04323 211.098 3.98252 211.664 4.99899 211.664H279.003C280.02 211.664 280.959 211.098 281.652 210.144C282.346 209.191 282.781 207.863 282.781 206.386V6.49895C282.781 5.02211 282.346 3.694 281.652 2.74048C280.959 1.78677 280.02 1.22048 279.003 1.22048H4.99899C3.98252 1.22048 3.04323 1.78677 2.34989 2.74048ZM1.99439 2.48057C2.74796 1.44402 3.80756 0.779297 4.99899 0.779297H279.003C280.195 0.779297 281.254 1.44402 282.008 2.48057C282.762 3.51732 283.221 4.93875 283.221 6.49895V206.386C283.221 207.946 282.762 209.368 282.008 210.404C281.254 211.441 280.195 212.106 279.003 212.106H4.99899C3.80756 212.106 2.74796 211.441 1.99439 210.404C1.24069 209.368 0.78125 207.946 0.78125 206.386V6.49895C0.78125 4.93875 1.24069 3.51732 1.99439 2.48057Z" fill="#3F3D56"/>
<path fill-rule="evenodd" clip-rule="evenodd" d="M279.922 10.4861H4.96094V10.0449H279.922V10.4861Z" fill="#3F3D56"/>
<path fill-rule="evenodd" clip-rule="evenodd" d="M279.922 38.2791H4.96094V37.8379H279.922V38.2791Z" fill="#3F3D56"/>
<path d="M12.8794 8.05853C14.0942 8.05853 15.0791 7.16967 15.0791 6.07321C15.0791 4.97675 14.0942 4.08789 12.8794 4.08789C11.6645 4.08789 10.6797 4.97675 10.6797 6.07321C10.6797 7.16967 11.6645 8.05853 12.8794 8.05853Z" fill="#F86B75"/>
<path d="M19.477 8.05853C20.6919 8.05853 21.6767 7.16967 21.6767 6.07321C21.6767 4.97675 20.6919 4.08789 19.477 4.08789C18.2622 4.08789 17.2773 4.97675 17.2773 6.07321C17.2773 7.16967 18.2622 8.05853 19.477 8.05853Z" fill="#FAD375"/>
<path d="M25.8547 8.05853C26.9481 8.05853 27.8344 7.16967 27.8344 6.07321C27.8344 4.97675 26.9481 4.08789 25.8547 4.08789C24.7613 4.08789 23.875 4.97675 23.875 6.07321C23.875 7.16967 24.7613 8.05853 25.8547 8.05853Z" fill="#8BCC55"/>
<path fill-rule="evenodd" clip-rule="evenodd" d="M13.5395 3.42556C12.5889 3.42556 11.7798 4.29198 11.7798 5.41088C11.7798 6.52978 12.5889 7.3962 13.5395 7.3962C14.4902 7.3962 15.2993 6.52978 15.2993 5.41088C15.2993 4.29198 14.4902 3.42556 13.5395 3.42556ZM11.3398 5.41088C11.3398 4.09319 12.3035 2.98438 13.5395 2.98438C14.7756 2.98438 15.7392 4.09319 15.7392 5.41088C15.7392 6.72856 14.7756 7.83738 13.5395 7.83738C12.3035 7.83738 11.3398 6.72856 11.3398 5.41088Z" fill="#3F3D56"/>
<path fill-rule="evenodd" clip-rule="evenodd" d="M19.9157 3.42556C18.8224 3.42556 17.936 4.31442 17.936 5.41088C17.936 6.50734 18.8224 7.3962 19.9157 7.3962C21.0091 7.3962 21.8955 6.50734 21.8955 5.41088C21.8955 4.31442 21.0091 3.42556 19.9157 3.42556ZM17.4961 5.41088C17.4961 4.07076 18.5794 2.98438 19.9157 2.98438C21.2521 2.98438 22.3354 4.07076 22.3354 5.41088C22.3354 6.751 21.2521 7.83738 19.9157 7.83738C18.5794 7.83738 17.4961 6.751 17.4961 5.41088Z" fill="#3F3D56"/>
<path fill-rule="evenodd" clip-rule="evenodd" d="M26.5173 3.42556C25.4239 3.42556 24.5376 4.31442 24.5376 5.41088C24.5376 6.50734 25.4239 7.3962 26.5173 7.3962C27.6107 7.3962 28.497 6.50734 28.497 5.41088C28.497 4.31442 27.6107 3.42556 26.5173 3.42556ZM24.0977 5.41088C24.0977 4.07076 25.181 2.98438 26.5173 2.98438C27.8537 2.98438 28.937 4.07076 28.937 5.41088C28.937 6.751 27.8537 7.83738 26.5173 7.83738C25.181 7.83738 24.0977 6.751 24.0977 5.41088Z" fill="#3F3D56"/>
<path d="M133.42 35.4129C138.279 35.4129 142.219 31.4624 142.219 26.5893C142.219 21.7161 138.279 17.7656 133.42 17.7656C128.56 17.7656 124.621 21.7161 124.621 26.5893C124.621 31.4624 128.56 35.4129 133.42 35.4129Z" fill="#F2F2F2"/>
<path fill-rule="evenodd" clip-rule="evenodd" d="M135.62 15.7791C130.882 15.7791 127.041 19.6308 127.041 24.3821C127.041 29.1335 130.882 32.9852 135.62 32.9852C140.358 32.9852 144.199 29.1335 144.199 24.3821C144.199 19.6308 140.358 15.7791 135.62 15.7791ZM126.602 24.3821C126.602 19.3871 130.639 15.3379 135.62 15.3379C140.601 15.3379 144.639 19.3871 144.639 24.3821C144.639 29.3771 140.601 33.4264 135.62 33.4264C130.639 33.4264 126.602 29.3771 126.602 24.3821Z" fill="#3F3D56"/>
<path d="M200.984 21.957H162.202C160.885 21.957 159.816 23.0283 159.816 24.3497V31.4763C159.816 32.7977 160.885 33.869 162.202 33.869H200.984C202.302 33.869 203.37 32.7977 203.37 31.4763V24.3497C203.37 23.0283 202.302 21.957 200.984 21.957Z" fill="#F1563C"/>
<path d="M263.016 21.957H224.234C222.916 21.957 221.848 23.0283 221.848 24.3497V31.4763C221.848 32.7977 222.916 33.869 224.234 33.869H263.016C264.333 33.869 265.401 32.7977 265.401 31.4763V24.3497C265.401 23.0283 264.333 21.957 263.016 21.957Z" fill="#F1563C"/>
<path fill-rule="evenodd" clip-rule="evenodd" d="M164.753 18.6482C163.849 18.6482 163.116 19.3835 163.116 20.2905V28.4767C163.116 29.3837 163.849 30.119 164.753 30.119H204.592C205.496 30.119 206.23 29.3837 206.23 28.4767V20.2905C206.23 19.3835 205.496 18.6482 204.592 18.6482H164.753ZM162.676 20.2905C162.676 19.1398 163.606 18.207 164.753 18.207H204.592C205.739 18.207 206.67 19.1398 206.67 20.2905V28.4767C206.67 29.6273 205.739 30.5601 204.592 30.5601H164.753C163.606 30.5601 162.676 29.6273 162.676 28.4767V20.2905Z" fill="#3F3D56"/>
<path fill-rule="evenodd" clip-rule="evenodd" d="M226.785 18.6482C225.88 18.6482 225.147 19.3835 225.147 20.2905V28.4767C225.147 29.3837 225.88 30.119 226.785 30.119H266.623C267.528 30.119 268.261 29.3837 268.261 28.4767V20.2905C268.261 19.3835 267.528 18.6482 266.623 18.6482H226.785ZM224.707 20.2905C224.707 19.1398 225.637 18.207 226.785 18.207H266.623C267.771 18.207 268.701 19.1398 268.701 20.2905V28.4767C268.701 29.6273 267.771 30.5601 266.623 30.5601H226.785C225.637 30.5601 224.707 29.6273 224.707 28.4767V20.2905Z" fill="#3F3D56"/>
<path d="M249.357 67.1777H35.5241C32.7364 67.1777 30.4766 70.2686 30.4766 74.0815V176.746C30.4766 180.559 32.7364 183.65 35.5241 183.65H249.357C252.145 183.65 254.405 180.559 254.405 176.746V74.0815C254.405 70.2686 252.145 67.1777 249.357 67.1777Z" fill="#F2E3E0"/>
<path fill-rule="evenodd" clip-rule="evenodd" d="M133.399 99.7459C137.47 98.3862 141.784 97.9116 146.052 98.3537C150.321 98.7957 154.447 100.144 158.155 102.31C161.864 104.475 165.07 107.408 167.56 110.912C170.051 114.417 171.768 118.413 172.599 122.635C173.429 126.857 173.354 131.208 172.377 135.399C171.401 139.589 169.546 143.523 166.935 146.939C164.325 150.354 161.019 153.173 157.237 155.208L157.067 155.3L122.297 106.371L122.439 106.24C125.591 103.319 129.327 101.106 133.399 99.7459ZM146.007 98.7925C141.801 98.3569 137.55 98.8246 133.538 100.165C129.587 101.484 125.956 103.619 122.88 106.432L157.2 154.727C160.855 152.729 164.053 149.985 166.586 146.67C169.158 143.304 170.987 139.428 171.949 135.298C172.911 131.169 172.986 126.881 172.167 122.72C171.349 118.56 169.656 114.622 167.202 111.168C164.748 107.715 161.588 104.825 157.934 102.691C154.279 100.557 150.214 99.2281 146.007 98.7925ZM136.719 114.522L155.318 128.51L150.922 131.552L150.672 131.189L154.565 128.495L137.159 115.404V120.085H136.719V114.522Z" fill="#3F3D56"/>
<path d="M138.543 101.502C132.609 101.502 126.808 103.267 121.874 106.573C116.94 109.879 113.094 114.578 110.823 120.076C108.552 125.574 107.958 131.624 109.116 137.461C110.273 143.297 113.131 148.659 117.327 152.866C121.523 157.074 126.869 159.94 132.689 161.101C138.51 162.262 144.542 161.666 150.025 159.389C155.507 157.112 160.193 153.255 163.49 148.307C166.787 143.359 168.547 137.542 168.547 131.591C168.543 123.612 165.381 115.961 159.755 110.319C154.129 104.677 146.499 101.506 138.543 101.502ZM132.542 145.13V118.051L150.544 131.591L132.542 145.13Z" fill="#F1563C"/>
<path d="M126.864 183.96C126.864 183.96 121.475 202.757 121.241 210.981C121.007 219.205 120.07 232.363 120.773 235.652C121.475 238.942 123.584 245.52 123.584 245.52C123.584 245.52 128.036 240.116 129.676 243.171C129.676 243.171 129.442 236.827 128.27 234.947C128.27 234.947 128.739 225.079 128.739 221.554C128.739 218.03 134.596 201.817 135.065 201.582C135.533 201.347 136.939 206.047 135.768 216.385C134.596 226.723 133.659 244.821 133.659 246.7C133.659 248.58 136.471 252.339 138.345 251.165C140.219 249.99 141.391 239.881 141.391 239.881C141.391 239.881 143.031 218.735 143.968 216.385C144.905 214.035 149.826 187.015 146.077 184.9C142.328 182.785 126.864 183.96 126.864 183.96Z" fill="#46455B"/>
<path d="M130.847 245.051C130.613 245.99 129.676 250.455 129.676 251.864C129.676 253.274 130.613 255.859 126.63 256.799C122.75 257.715 123.317 255.285 122.698 253.857C122.682 253.819 122.665 253.782 122.647 253.744C121.944 252.334 123.584 245.051 123.818 245.051C123.956 245.051 125.064 243.185 125.955 241.646C126.141 241.318 126.399 241.037 126.709 240.823C127.02 240.61 127.374 240.469 127.747 240.413C128.119 240.356 128.499 240.385 128.858 240.497C129.218 240.609 129.547 240.801 129.822 241.059C130.192 241.419 130.485 241.849 130.685 242.325C130.885 242.801 130.987 243.312 130.985 243.829C130.993 244.24 130.946 244.651 130.847 245.051Z" fill="#A36468"/>
<path opacity="0.1" d="M130.848 245.05C130.614 245.99 129.677 250.454 129.677 251.864C129.677 253.274 130.614 255.858 126.631 256.798C122.751 257.714 123.318 255.285 122.699 253.856C123.372 252.104 125.005 248.337 126.162 245.05C127.184 242.146 129.695 243.093 130.986 243.828C130.994 244.24 130.947 244.651 130.848 245.05Z" fill="black"/>
<path d="M137.643 147.54C140.36 147.54 142.563 145.331 142.563 142.606C142.563 139.881 140.36 137.672 137.643 137.672C134.926 137.672 132.723 139.881 132.723 142.606C132.723 145.331 134.926 147.54 137.643 147.54Z" fill="#FBBEBE"/>
<path d="M133.66 143.546L132.957 151.3L141.392 152.709C141.392 152.709 140.455 145.896 141.158 144.486C141.86 143.076 133.66 143.546 133.66 143.546Z" fill="#FBBEBE"/>
<path d="M140.221 149.655C140.221 149.655 133.192 148.95 132.723 149.655C132.417 150.234 132.256 150.879 132.255 151.535C132.255 151.535 129.443 152.71 128.974 152.24C128.506 151.77 128.037 150.36 126.631 150.83C125.226 151.3 122.414 159.758 122.414 159.758C122.414 159.758 123.117 157.174 124.288 167.042C125.46 176.911 125.226 183.02 125.46 183.725C125.694 184.43 124.288 188.659 132.723 188.659C141.158 188.659 147.25 188.189 147.25 186.544C147.25 184.9 145.844 177.851 147.25 172.681C148.656 167.512 150.764 160.463 150.764 160.463L147.953 151.3C147.953 151.3 145.141 150.595 144.438 151.77C143.735 152.945 141.861 152.71 141.861 152.71C141.861 152.71 141.627 149.89 140.221 149.655Z" fill="#DCE6F2"/>
<path d="M126.866 151.301L121.009 148.717C121.009 148.717 109.997 140.258 110.465 132.739C110.465 132.739 106.717 129.215 106.482 132.974C106.248 136.734 107.419 145.192 110.231 148.012C113.043 150.831 122.649 159.76 124.055 159.995C125.461 160.23 126.866 151.301 126.866 151.301Z" fill="#DCE6F2"/>
<path d="M106.949 133.443C106.949 133.443 102.498 121.225 106.481 121.695C110.464 122.165 109.527 127.334 109.527 127.334V133.443L106.949 133.443Z" fill="#FBBEBE"/>
<path d="M147.016 151.77L152.873 149.186C152.873 149.186 163.885 140.727 163.417 133.208C163.417 133.208 167.165 129.684 167.4 133.443C167.634 137.202 166.462 145.661 163.651 148.481C160.839 151.3 151.233 160.229 149.827 160.464C148.421 160.699 147.016 151.77 147.016 151.77Z" fill="#DCE6F2"/>
<path d="M166.931 133.914C166.931 133.914 171.383 121.696 167.4 122.166C163.417 122.635 164.354 127.805 164.354 127.805V133.914L166.931 133.914Z" fill="#FBBEBE"/>
<path d="M141.392 136.733L142.095 136.264C142.095 136.264 137.643 133.679 135.769 135.089C133.894 136.499 133.426 137.673 132.957 138.143C132.489 138.613 131.317 141.198 132.02 142.138C132.723 143.077 132.489 143.27 132.957 144.114C133.426 144.957 132.139 148.351 135.711 149.356C139.283 150.361 142.095 146.132 142.563 145.192C143.032 144.252 144.672 137.908 141.392 136.733Z" fill="#46455B"/>
<path fill-rule="evenodd" clip-rule="evenodd" d="M183.574 257.107H79.3086V256.666H183.574V257.107Z" fill="#3F3D56"/>
</svg>
