<svg width="186" height="162" viewBox="0 0 186 162" fill="none" xmlns="http://www.w3.org/2000/svg">
<path d="M18.4226 149.982C16.7279 155.672 19.358 161.489 19.358 161.489C19.358 161.489 24.7357 158.081 26.4304 152.392C28.125 146.702 25.4949 140.885 25.4949 140.885C25.4949 140.885 20.1173 144.292 18.4226 149.982Z" fill="#F2F2F2"/>
<path d="M20.9965 150.137C22.4228 155.9 19.5232 161.587 19.5232 161.587C19.5232 161.587 14.311 157.928 12.8848 152.165C11.4585 146.401 14.3581 140.715 14.3581 140.715C14.3581 140.715 19.5702 144.373 20.9965 150.137Z" fill="#F2F2F2"/>
<path d="M105.757 155.858L106.835 153.07L96.6466 147.561L95.0547 151.677L105.757 155.858Z" fill="#FFB8B8"/>
<path d="M111.536 148.584C111.079 148.405 110.591 148.318 110.1 148.329C109.61 148.34 109.126 148.447 108.677 148.646C108.228 148.845 107.822 149.131 107.483 149.487C107.144 149.843 106.878 150.263 106.7 150.723L105.972 152.603L104.85 155.505L104.576 156.217L108.171 157.622L111.649 148.629L111.536 148.584Z" fill="#2F2E41"/>
<path d="M104.85 150.493L104.381 151.743L103.21 154.864L103.182 154.943C100.199 155.328 96.9292 154.573 93.9045 153.399C92.6944 152.93 91.5091 152.399 90.3534 151.807C88.6429 150.938 87.1114 150.021 85.8896 149.237C84.05 148.05 82.9125 147.159 82.9125 147.159C82.9125 147.159 82.612 147.432 82.0683 147.9C81.3394 148.527 80.1748 149.506 78.6997 150.658C78.1369 151.101 77.5327 151.563 76.8871 152.047C72.1275 155.595 66.0195 146.127 66.0195 146.127C66.0195 146.127 67.7374 145.028 68.1861 144.814C69.6312 144.127 73.0261 142.506 75.955 141.065C77.4639 140.321 78.8474 139.624 79.7763 139.129C83.0655 137.368 87.1542 140.699 87.1542 140.699L104.85 150.493Z" fill="#2F2E41"/>
<path opacity="0.14" d="M104.85 150.493L104.381 151.743L103.21 154.864L103.182 154.943C100.199 155.328 96.9292 154.573 93.9045 153.399C92.6944 152.93 91.5091 152.399 90.3534 151.807C88.6429 150.938 87.1114 150.021 85.8896 149.237C84.05 148.05 82.9125 147.159 82.9125 147.159C82.9125 147.159 82.612 147.432 82.0683 147.9C81.3394 148.527 80.1748 149.506 78.6997 150.658C78.1369 151.101 77.5327 151.563 76.8871 152.047C72.1275 155.595 66.0195 146.127 66.0195 146.127C66.0195 146.127 67.7374 145.028 68.1861 144.814C69.6312 144.127 73.0261 142.506 75.955 141.065C77.4639 140.321 78.8474 139.624 79.7763 139.129C83.0655 137.368 87.1542 140.699 87.1542 140.699L104.85 150.493Z" fill="black"/>
<path opacity="0.5" d="M44.577 84.1077C67.685 84.1077 86.4177 65.2795 86.4177 42.0538C86.4177 18.8281 67.685 0 44.577 0C21.469 0 2.73633 18.8281 2.73633 42.0538C2.73633 65.2795 21.469 84.1077 44.577 84.1077Z" fill="#F1563C"/>
<path opacity="0.5" d="M139.912 102.489C150.366 102.489 158.841 93.978 158.841 83.479C158.841 72.9799 150.366 64.4688 139.912 64.4688C129.457 64.4688 120.982 72.9799 120.982 83.479C120.982 93.978 129.457 102.489 139.912 102.489Z" fill="#F1563C"/>
<path opacity="0.4" d="M13.6821 13.9648C9.77931 23.1407 9.24987 33.4124 12.1884 42.9445C15.1269 52.4766 21.3419 60.6479 29.7229 65.9982C38.1038 71.3486 48.1045 73.5294 57.9379 72.1509C67.7712 70.7724 76.7966 65.9245 83.4011 58.4734C81.017 64.0795 77.4487 69.0975 72.9435 73.1799C68.4383 77.2623 63.1039 80.3114 57.3099 82.116C51.5159 83.9205 45.4008 84.4374 39.3883 83.6308C33.3758 82.8242 27.6097 80.7134 22.4894 77.4446C17.3691 74.1758 13.0171 69.8272 9.73492 64.7001C6.45274 59.573 4.31885 53.79 3.48109 47.7517C2.64333 41.7134 3.12173 35.5642 4.88315 29.7302C6.64458 23.8962 9.6469 18.5168 13.6821 13.9648Z" fill="#F1563C"/>
<path d="M44.6917 42.0547H44.8068L46.8759 161.284H42.5078L44.6917 42.0547Z" fill="#3F3D56"/>
<path d="M38.251 96.1267L37.2871 97.9668L44.2035 101.627L45.1674 99.7866L38.251 96.1267Z" fill="#3F3D56"/>
<path d="M185.757 161.758H0.24282C0.17842 161.758 0.116658 161.732 0.0711201 161.686C0.0255825 161.64 0 161.578 0 161.514C0 161.449 0.0255825 161.387 0.0711201 161.341C0.116658 161.295 0.17842 161.27 0.24282 161.27H185.757C185.822 161.27 185.883 161.295 185.929 161.341C185.974 161.387 186 161.449 186 161.514C186 161.578 185.974 161.64 185.929 161.686C185.883 161.732 185.822 161.758 185.757 161.758Z" fill="#3F3D56"/>
<path d="M57.2446 124.245H43.161C42.8713 124.244 42.5936 124.129 42.3888 123.923C42.1839 123.717 42.0687 123.438 42.0684 123.146V117.045C42.0684 114.877 42.9254 112.797 44.4509 111.264C45.9764 109.731 48.0454 108.869 50.2028 108.869C52.3602 108.869 54.4292 109.731 55.9548 111.264C57.4803 112.797 58.3373 114.877 58.3373 117.045V123.146C58.337 123.438 58.2217 123.717 58.0169 123.923C57.812 124.129 57.5343 124.244 57.2446 124.245Z" fill="#2F2E41"/>
<path d="M70.6369 131.906C70.3091 131.964 69.9978 132.094 69.7251 132.286C69.4524 132.477 69.2249 132.727 69.0585 133.017C68.8922 133.307 68.791 133.63 68.7623 133.963C68.7336 134.296 68.7779 134.632 68.8921 134.946L65.0625 138.486L66.6354 141.35L71.9737 136.274C72.4862 136.046 72.8977 135.637 73.1303 135.125C73.3628 134.612 73.4003 134.032 73.2355 133.494C73.0707 132.955 72.7152 132.496 72.2362 132.204C71.7573 131.911 71.1882 131.805 70.6369 131.906Z" fill="#FFB8B8"/>
<path d="M59.1139 148.004C58.9409 148.004 58.7676 147.996 58.5941 147.981C57.561 147.895 56.5668 147.546 55.7047 146.967C54.8426 146.388 54.1409 145.599 53.6655 144.673L47.5301 132.804C47.128 132.026 47.0398 131.123 47.2837 130.281C47.5276 129.44 48.0849 128.725 48.8396 128.286C49.5943 127.847 50.4883 127.718 51.3357 127.924C52.1831 128.131 52.9187 128.658 53.3893 129.396L59.0496 142.161L66.7517 135.871L71.2112 137.616L63.6799 145.973C63.1009 146.612 62.3959 147.122 61.6097 147.472C60.8236 147.821 59.9736 148.003 59.1139 148.004Z" fill="#CCCCCC"/>
<path d="M81.8088 129.663L74.9851 122.804C74.7464 122.564 74.4227 122.43 74.0851 122.43C73.7475 122.43 73.4238 122.564 73.1851 122.804L67.0466 128.974C66.8079 129.214 66.6738 129.539 66.6738 129.879C66.6738 130.218 66.8079 130.543 67.0466 130.783L73.4222 137.191C73.6496 137.42 73.9546 137.554 74.2759 137.565C74.5972 137.577 74.9111 137.466 75.1544 137.255L81.7409 131.535C81.8674 131.426 81.9711 131.292 82.0461 131.142C82.1212 130.992 82.1661 130.828 82.1782 130.661C82.1904 130.493 82.1696 130.325 82.1171 130.165C82.0645 130.006 81.9812 129.858 81.8719 129.731C81.8517 129.708 81.8307 129.685 81.8088 129.663Z" fill="#3F3D56"/>
<path d="M80.8436 130.866L73.8198 123.807L68.0234 129.633L74.7746 136.418L80.8436 130.866Z" fill="#F2F2F2"/>
<path d="M74.317 132.921C75.8922 132.921 77.1692 131.637 77.1692 130.054C77.1692 128.471 75.8922 127.188 74.317 127.188C72.7418 127.188 71.4648 128.471 71.4648 130.054C71.4648 131.637 72.7418 132.921 74.317 132.921Z" fill="#F1563C"/>
<path opacity="0.1" d="M75.5871 132.497C76.0642 132.047 76.3726 131.445 76.4604 130.793C76.5483 130.141 76.4102 129.478 76.0695 128.916C75.7288 128.354 75.2061 127.927 74.5892 127.707C73.9723 127.487 73.2988 127.486 72.6816 127.706C73.015 127.471 73.3945 127.311 73.7947 127.236C74.1948 127.161 74.6062 127.173 75.0014 127.271C75.3965 127.369 75.7662 127.551 76.0856 127.805C76.405 128.058 76.6667 128.378 76.8531 128.741C77.0395 129.105 77.1462 129.505 77.1663 129.913C77.1863 130.322 77.119 130.73 76.9691 131.11C76.8191 131.491 76.5899 131.834 76.2969 132.118C76.0038 132.402 75.6537 132.62 75.27 132.756C75.3817 132.678 75.4877 132.591 75.5871 132.497Z" fill="black"/>
<path d="M72.9158 129.485C72.5757 129.806 72.5577 130.963 73.077 131.518C73.5964 132.074 74.4564 131.818 74.7966 131.497C75.1367 131.176 74.8282 130.91 74.3088 130.355C73.7894 129.799 73.256 129.164 72.9158 129.485Z" fill="#F2F2F2"/>
<path d="M75.8099 130.951C76.2766 130.951 76.655 130.57 76.655 130.101C76.655 129.632 76.2766 129.252 75.8099 129.252C75.3432 129.252 74.9648 129.632 74.9648 130.101C74.9648 130.57 75.3432 130.951 75.8099 130.951Z" fill="#2F2E41"/>
<path d="M74.2924 129.326C74.7591 129.326 75.1374 128.945 75.1374 128.476C75.1374 128.007 74.7591 127.627 74.2924 127.627C73.8256 127.627 73.4473 128.007 73.4473 128.476C73.4473 128.945 73.8256 129.326 74.2924 129.326Z" fill="#2F2E41"/>
<path d="M75.8109 130.313C75.9276 130.313 76.0222 130.218 76.0222 130.101C76.0222 129.984 75.9276 129.889 75.8109 129.889C75.6942 129.889 75.5996 129.984 75.5996 130.101C75.5996 130.218 75.6942 130.313 75.8109 130.313Z" fill="#F2F2F2"/>
<path d="M75.9025 129.683C75.9608 129.683 76.0081 129.636 76.0081 129.577C76.0081 129.518 75.9608 129.471 75.9025 129.471C75.8442 129.471 75.7969 129.518 75.7969 129.577C75.7969 129.636 75.8442 129.683 75.9025 129.683Z" fill="#F2F2F2"/>
<path d="M74.383 128.06C74.4413 128.06 74.4886 128.012 74.4886 127.954C74.4886 127.895 74.4413 127.848 74.383 127.848C74.3246 127.848 74.2773 127.895 74.2773 127.954C74.2773 128.012 74.3246 128.06 74.383 128.06Z" fill="#F2F2F2"/>
<path d="M74.2914 128.688C74.408 128.688 74.5026 128.593 74.5026 128.476C74.5026 128.359 74.408 128.264 74.2914 128.264C74.1747 128.264 74.0801 128.359 74.0801 128.476C74.0801 128.593 74.1747 128.688 74.2914 128.688Z" fill="#F2F2F2"/>
<path d="M104.896 159.781L106.184 157.084L96.4469 150.805L94.5449 154.785L104.896 159.781Z" fill="#FFB8B8"/>
<path d="M111.216 152.974C110.774 152.76 110.294 152.636 109.804 152.609C109.314 152.582 108.823 152.652 108.361 152.816C107.898 152.979 107.471 153.232 107.106 153.562C106.74 153.891 106.443 154.289 106.231 154.734L105.362 156.552L104.021 159.359L103.693 160.047L107.171 161.726L111.325 153.028L111.216 152.974Z" fill="#2F2E41"/>
<path d="M104.404 154.361L103.84 155.571L102.434 158.593L102.4 158.668C99.3967 158.822 96.1939 157.816 93.2679 156.413C92.0971 155.852 90.956 155.23 89.849 154.551C88.21 153.553 86.753 152.52 85.5948 151.644C83.8514 150.319 82.7854 149.343 82.7854 149.343C82.7854 149.343 82.4649 149.592 81.8869 150.016C81.1124 150.585 79.8764 151.471 78.3175 152.506C77.7226 152.904 77.0848 153.318 76.4041 153.75C71.3874 156.921 64.2534 160.782 58.1852 161.597C47.5279 163.03 50.0363 148.735 50.0363 148.735L58.5179 144.308L62.119 145.043L66.1279 145.858L67.5484 146.148C67.5484 146.148 67.8179 146.046 68.2817 145.867C69.775 145.294 73.2838 143.939 76.3142 142.729C77.8755 142.104 79.3082 141.516 80.2722 141.094C83.6862 139.593 87.5082 143.229 87.5082 143.229L104.404 154.361Z" fill="#2F2E41"/>
<path d="M34.5149 161.938C34.8393 161.863 35.1435 161.718 35.406 161.512C35.6685 161.306 35.8829 161.045 36.0341 160.747C36.1853 160.449 36.2697 160.121 36.2812 159.787C36.2928 159.452 36.2313 159.119 36.101 158.812L39.7434 155.077L38.0253 152.299L32.9552 157.645C32.4551 157.9 32.0652 158.329 31.8593 158.853C31.6534 159.377 31.6459 159.959 31.8381 160.488C32.0304 161.017 32.4091 161.457 32.9024 161.724C33.3958 161.991 33.9695 162.067 34.5149 161.938L34.5149 161.938Z" fill="#FFB8B8"/>
<path d="M52.1962 124.517C55.3325 124.517 57.8749 121.961 57.8749 118.809C57.8749 115.657 55.3325 113.102 52.1962 113.102C49.06 113.102 46.5176 115.657 46.5176 118.809C46.5176 121.961 49.06 124.517 52.1962 124.517Z" fill="#FFB8B8"/>
<path d="M44.8086 134.652L49.7553 148.748L49.7256 148.797C49.0376 149.94 48.8127 150.863 49.0754 151.464C49.1446 151.617 49.246 151.753 49.3725 151.862C49.499 151.972 49.6477 152.053 49.8083 152.099L61.5144 143.875L61.1045 140.579L61.1273 140.543C62.2588 138.723 62.6252 137.075 62.2164 135.645C61.686 133.789 60.0006 132.947 59.9836 132.938L59.9428 132.906L54.1042 125.764L46.2995 127.157L44.8086 134.652Z" fill="#CCCCCC"/>
<path d="M37.2846 159.393L33.9707 155.294L41.9593 142.039L45.6839 130.468L45.7994 130.505L45.6839 130.468C45.8873 129.835 46.2233 129.255 46.669 128.764C47.1147 128.273 47.66 127.884 48.2679 127.623C48.8758 127.363 49.5323 127.236 50.1932 127.251C50.854 127.267 51.5038 127.425 52.0989 127.714C52.6939 128.004 53.2202 128.418 53.6425 128.929C54.0648 129.44 54.3731 130.036 54.5467 130.678C54.7203 131.319 54.7552 131.99 54.649 132.645C54.5427 133.301 54.2979 133.926 53.9309 134.479L47.0932 144.776L37.2846 159.393Z" fill="#CCCCCC"/>
<path d="M60.2613 117.654H51.6495L51.5612 116.411L51.1197 117.654H49.7937L49.6187 115.191L48.7435 117.654H46.1777V117.532C46.1796 115.817 46.8582 114.173 48.0645 112.961C49.2708 111.748 50.9064 111.066 52.6124 111.064H53.8266C55.5326 111.066 57.1682 111.748 58.3745 112.961C59.5808 114.173 60.2594 115.817 60.2613 117.532V117.654Z" fill="#2F2E41"/>
<path d="M51.5774 125.382C51.5126 125.382 51.4479 125.376 51.384 125.365L45.0781 124.246V113.771H52.0197L51.8478 113.973C49.4568 116.776 51.2582 121.321 52.5448 123.78C52.6396 123.96 52.6819 124.164 52.6668 124.367C52.6516 124.57 52.5797 124.765 52.4592 124.929C52.3584 125.069 52.2258 125.183 52.0725 125.262C51.9192 125.341 51.7495 125.382 51.5774 125.382Z" fill="#2F2E41"/>
<path d="M37.1515 32.8545V56.5259C37.1454 56.6355 37.169 56.7447 37.2196 56.842C37.2702 56.9393 37.3461 57.0211 37.4391 57.0786C37.5322 57.1362 37.6389 57.1674 37.7482 57.1689C37.8574 57.1705 37.965 57.1424 38.0597 57.0876L56.7285 45.2519C56.8198 45.1907 56.8947 45.1077 56.9465 45.0104C56.9983 44.9131 57.0254 44.8045 57.0254 44.6941C57.0254 44.5837 56.9983 44.4751 56.9465 44.3778C56.8947 44.2805 56.8198 44.1975 56.7285 44.1363L38.0597 32.3006C37.9659 32.2442 37.8586 32.2145 37.7493 32.2148C37.64 32.2152 37.5329 32.2455 37.4395 32.3025C37.346 32.3594 37.2698 32.441 37.2191 32.5382C37.1683 32.6355 37.145 32.7449 37.1515 32.8545Z" fill="#F2F2F2"/>
<path d="M136.62 76.4224V90.5351C136.616 90.6005 136.63 90.6656 136.659 90.7236C136.689 90.7816 136.733 90.8304 136.787 90.8647C136.84 90.899 136.902 90.9176 136.966 90.9185C137.029 90.9195 137.091 90.9027 137.146 90.87L147.969 83.8137C148.022 83.7772 148.065 83.7277 148.096 83.6697C148.126 83.6117 148.141 83.5469 148.141 83.4811C148.141 83.4153 148.126 83.3505 148.096 83.2925C148.065 83.2345 148.022 83.185 147.969 83.1485L137.146 76.0921C137.092 76.0585 137.03 76.0408 136.966 76.041C136.903 76.0412 136.841 76.0593 136.787 76.0932C136.733 76.1272 136.688 76.1758 136.659 76.2338C136.63 76.2918 136.616 76.357 136.62 76.4224Z" fill="#F2F2F2"/>
</svg>
