<svg width="36" height="36" xmlns="http://www.w3.org/2000/svg" xmlns:xlink="http://www.w3.org/1999/xlink"><defs><path id="a" d="M0 .3h19.683v18.674H0z"/></defs><g fill="none" fill-rule="evenodd"><circle fill="#F1563C" cx="18" cy="18" r="18"/><g transform="translate(8 8.213)"><mask id="b" fill="#ffffff"><use xlink:href="#a"/></mask><path d="M4.371.3c-.406 0-.787.15-1.073.422L1.868 2.08.445 3.42l-.015.015-.015.015a1.395 1.395 0 00.029 2.014l4.228 4.011-4.228 4.01c-.412.391-.55.956-.363 1.477.653 1.894 2.108 3.287 4.096 3.916.24.096.447.096.534.096.383 0 .754-.141 1.046-.396l.016-.014.016-.015 4.222-4.01 4.228 4.01.012.012.013.011a1.571 1.571 0 002.121-.023l1.427-1.34 1.429-1.363.01-.01.01-.01c.274-.276.418-.621.418-.999a1.43 1.43 0 00-.417-.998l-.012-.012-.012-.01-4.227-4.01 2.62-2.481c.093-.088.15-.168.265-.344l.068-.103.04-.115 1.6-4.552A1.406 1.406 0 0019.24.721a1.562 1.562 0 00-1.072-.42c-.163 0-.325.025-.48.074l-4.457 1.42c-.38.121-.731.326-1.018.591L9.681 4.74l-.297-.282L5.444.721a1.55 1.55 0 00-1.073-.42m0 1.025c.112 0 .224.04.309.12l3.94 3.737 1.053 1 3.296-3.064a1.6 1.6 0 01.605-.351l4.452-1.42a.472.472 0 01.14-.021c.115 0 .227.04.309.12a.414.414 0 01.105.432l-1.6 4.55s-.097.149-.11.161l-3.388 3.207 4.993 4.735a.425.425 0 01.124.296c0 .111-.039.21-.124.296l-1.423 1.357-1.43 1.344a.455.455 0 01-.306.124.477.477 0 01-.312-.124l-4.993-4.736-4.986 4.736a.483.483 0 01-.313.124c-.045 0-.09 0-.136-.026-1.69-.518-2.918-1.69-3.47-3.292a.388.388 0 01.103-.42l4.993-4.735L1.21 4.74a.409.409 0 010-.592l1.423-1.344 1.43-1.358a.448.448 0 01.31-.12" fill="#ffffff" mask="url(#b)"/></g><path d="M24.308 13.953l.46-1.31a2.975 2.975 0 01-1.43-1.355l-1.378.432c.007.025.014.037.027.062.019.049.046.098.07.147.046.087.1.186.151.272a8.8 8.8 0 00.097.147c.06.087.118.174.183.26.032.036.064.086.097.11.09.124.194.236.305.334l.007.012h.006c.11.1.228.21.351.296.04.024.085.062.125.086.084.062.174.124.273.186.045.024.097.05.149.073.097.062.194.111.3.148.044.025.096.05.142.074.02 0 .045.013.065.026M13.736 11.818l-1.345-1.281-2.236 2.107 4.681 4.44 2.235-2.108-.74-.704-1.118 1.061a.48.48 0 01-.313.124.474.474 0 01-.305-.124c-.175-.172-.175-.43 0-.591l1.112-1.06-1.353-1.284-1.112 1.06a.435.435 0 01-.311.124.426.426 0 01-.307-.123c-.174-.16-.174-.42 0-.593l1.112-1.048zM25.048 11.844l.442-1.247-1.312.42c.2.346.5.641.87.827M23.313 14.396c-.045-.024-.085-.05-.13-.074a4.713 4.713 0 01-.358-.234c-.039-.026-.084-.062-.123-.087a6.866 6.866 0 01-.098-.073l-9.497 9.003.038.036c.039.038.09.062.13.099.091.061.181.123.273.172.059.037.118.062.176.1.09.037.181.086.273.135l.195.074c.052.025.103.038.155.062l9.447-8.967a3.393 3.393 0 01-.48-.246M25.562 23.03l-1.351-1.284-1.119 1.06a.464.464 0 01-.306.125.487.487 0 01-.311-.124.407.407 0 010-.591l1.118-1.061-1.353-1.283-1.118 1.06a.42.42 0 01-.305.124.43.43 0 01-.313-.123.41.41 0 010-.593l1.118-1.048-.74-.703-2.237 2.122 4.687 4.44 2.23-2.122zM12.612 25.25l1.066-1a6.158 6.158 0 01-.488-.247c-.045-.025-.083-.061-.123-.087a3.62 3.62 0 01-.364-.233c-.039-.026-.085-.05-.124-.087a4.688 4.688 0 01-.794-.751 4.869 4.869 0 00-.096-.112c-.085-.123-.17-.235-.247-.345a1.192 1.192 0 01-.079-.123c-.09-.15-.182-.297-.26-.457l-1.066.999c.474 1.16 1.353 1.998 2.575 2.442M11.78 21.166c.012.05.039.1.059.15.025.06.057.121.084.183.045.099.09.173.142.26.034.06.066.11.099.172.058.086.122.174.188.26.033.036.064.074.098.123.012.012.025.024.032.037l9.505-9.016c-.027-.024-.052-.062-.079-.086-.032-.037-.064-.085-.096-.124a9.62 9.62 0 01-.248-.332c-.025-.049-.059-.087-.077-.123a3.972 3.972 0 01-.261-.469l-9.446 8.965z" fill="#ffffff"/></g></svg>