<svg width="36" height="36" xmlns="http://www.w3.org/2000/svg" xmlns:xlink="http://www.w3.org/1999/xlink"><defs><path id="a" d="M0 .287h19.714v19.125H0z"/></defs><g fill="none" fill-rule="evenodd"><circle fill="#F1563C" cx="18" cy="18" r="18"/><g transform="translate(8 8.302)"><mask id="b" fill="#ffffff"><use xlink:href="#a"/></mask><path d="M10.358 14.602c-.692.07-1.378 0-2.044-.215a.577.577 0 00-.362.008l-1.836.569a.346.346 0 01-.088.017.298.298 0 01-.19-.07.293.293 0 01-.111-.257l.172-1.704a.578.578 0 00-.092-.387 4.638 4.638 0 01-.843-3.278c.252-2.15 2.034-3.906 4.237-4.181 1.427-.172 2.801.223 3.873 1.127a4.724 4.724 0 011.711 3.536c.045 2.46-1.901 4.585-4.427 4.835M18.933 8.4h-1.027a7.58 7.58 0 00-.337-1.197l.895-.507a.738.738 0 00.288-1.024l-.718-1.204a.782.782 0 00-1.06-.276l-.899.5a7.807 7.807 0 00-.904-.879l.518-.878a.74.74 0 00-.283-1.023l-1.24-.697a.75.75 0 00-.59-.069.78.78 0 00-.475.345l-.514.869a7.879 7.879 0 00-1.237-.319V1.035c0-.414-.35-.748-.775-.748H9.139c-.425 0-.776.334-.776.748V2.04c-.416.07-.828.18-1.236.319l-.515-.87a.78.78 0 00-.473-.344.75.75 0 00-.59.069l-1.241.697a.736.736 0 00-.283 1.023l.518.878c-.324.267-.63.56-.904.878l-.9-.5a.738.738 0 00-.585-.077.752.752 0 00-.474.354L.967 5.672a.733.733 0 00.283 1.024l.895.507A7.58 7.58 0 001.808 8.4H.779C.35 8.4 0 8.734 0 9.148v1.393c0 .422.35.758.78.758h1.028c.08.404.19.809.337 1.195l-.895.507a.72.72 0 00-.363.457.707.707 0 00.08.567l.713 1.205a.781.781 0 001.06.275l.899-.498c.275.318.58.61.904.877l-.518.87a.744.744 0 00.283 1.031l1.24.697a.805.805 0 001.064-.284l.515-.86c.408.137.82.24 1.236.318v1.006c0 .414.35.75.776.75h1.436c.425 0 .775-.336.775-.75v-1.006c.417-.077.83-.18 1.237-.318l.514.86c.107.182.274.3.474.353a.83.83 0 00.59-.069l1.241-.697a.748.748 0 00.283-1.032l-.518-.869c.323-.266.625-.559.904-.877l.9.498a.789.789 0 001.059-.275l.718-1.205a.725.725 0 00.075-.567.72.72 0 00-.363-.457l-.895-.507c.146-.386.257-.79.337-1.195h1.027c.43 0 .78-.336.78-.758V9.148c0-.414-.35-.748-.78-.748" fill="#ffffff" mask="url(#b)"/></g><path d="M20.246 15.999h-4.777a.52.52 0 00-.526.513c0 .278.236.504.526.504h4.777c.289 0 .524-.226.524-.504a.52.52 0 00-.524-.513M20.246 17.78h-2.088a.517.517 0 00-.529.503c0 .283.237.513.529.513h2.088a.52.52 0 00.524-.513.515.515 0 00-.524-.504M15.468 18.796h1.192a.515.515 0 00.528-.512.517.517 0 00-.528-.505h-1.192a.515.515 0 00-.524.505.52.52 0 00.524.512M18.752 19.552H15.47a.52.52 0 00-.526.513c0 .278.236.504.526.504h3.283a.517.517 0 00.529-.504.522.522 0 00-.529-.513" fill="#ffffff"/></g></svg>