<svg width="36" height="36" xmlns="http://www.w3.org/2000/svg" xmlns:xlink="http://www.w3.org/1999/xlink"><defs><path id="a" d="M0 .152h25.56V19.5H0z"/></defs><g fill="none" fill-rule="evenodd"><circle fill="#F1563C" cx="18" cy="18" r="18"/><g transform="rotate(-180 15.5 14.326)"><mask id="b" fill="#ffffff"><use xlink:href="#a"/></mask><path d="M12.78.152c-.303 0-.587.115-.799.325l-1.033 1.01a3.63 3.63 0 00-.365-.43 2.703 2.703 0 00-1.918-.78c-.734 0-1.416.28-1.92.788a2.614 2.614 0 00-.79 1.87c0 .706.283 1.372.796 1.876.12.115.271.237.441.359L6.156 6.189 4.093 8.213a1.065 1.065 0 00-.314.975c.062.346.285.64.61.799.648.311 1.063.599 1.174.708a.438.438 0 010 .625.454.454 0 01-.638-.001c-.123-.121-.427-.556-.716-1.142a1.116 1.116 0 00-.813-.612l-.034-.007-.035-.003a1.141 1.141 0 00-.945.336L.338 11.895c-.216.203-.339.49-.339.792 0 .298.12.575.338.78l1.03 1.013a3.97 3.97 0 00-.437.353 2.595 2.595 0 00-.801 1.882c0 .72.284 1.392.8 1.89a2.686 2.686 0 001.91.768 2.71 2.71 0 001.913-.771c.127-.128.252-.281.37-.44l1.026 1.004c.209.216.493.334.802.334.312 0 .599-.118.809-.333l5.017-4.922.241.237c-.16.113-.311.232-.435.351a2.618 2.618 0 00-.006 3.769 2.71 2.71 0 001.914.771c.726 0 1.406-.273 1.913-.771.127-.128.252-.281.37-.44l1.027 1.005c.21.215.496.333.808.333.31 0 .594-.118.803-.335l5.817-5.704a1.085 1.085 0 00-.008-1.566l-1.029-1.01c.165-.117.32-.24.441-.358a2.607 2.607 0 00.797-1.879c0-.71-.283-1.377-.797-1.878a2.715 2.715 0 00-1.913-.78c-.72 0-1.4.278-1.913.781-.124.12-.25.269-.369.43l-1.036-1.013L13.577.475a1.13 1.13 0 00-.797-.323m0 .75c.093 0 .186.034.256.103l5.826 5.714 1.714 1.675c.27-.477.55-.88.772-1.092a1.95 1.95 0 011.372-.561c.52 0 1.006.2 1.374.56.762.743.762 1.951 0 2.694-.217.211-.628.487-1.114.763l1.708 1.675c.07.063.107.158.107.254 0 .095-.037.18-.107.244l-5.826 5.713a.339.339 0 01-.253.106.346.346 0 01-.26-.106l-1.714-1.675c-.27.478-.55.88-.772 1.103-.367.36-.853.551-1.372.551a1.938 1.938 0 01-1.373-.551 1.898 1.898 0 01-.573-1.357c0-.51.206-.986.573-1.346.222-.213.632-.487 1.118-.753l-1.459-1.431-5.565 5.459a.348.348 0 01-.26.106.339.339 0 01-.254-.106l-1.714-1.675c-.27.478-.55.88-.772 1.103-.367.36-.854.551-1.372.551a1.931 1.931 0 01-1.374-.551 1.877 1.877 0 01-.572-1.357c0-.51.2-.986.572-1.346.222-.213.628-.487 1.12-.753L.871 12.93a.344.344 0 010-.498l2.064-2.026a.375.375 0 01.275-.107c.015 0 .03 0 .045.002.113.02.216.095.264.2.287.584.638 1.125.865 1.348.238.233.548.35.86.35.31 0 .62-.117.858-.35a1.175 1.175 0 000-1.686c-.226-.222-.778-.562-1.372-.848a.36.36 0 01-.2-.265.329.329 0 01.103-.308L6.698 6.72 8.41 5.033c-.487-.254-.897-.54-1.119-.752a1.877 1.877 0 01-.573-1.346c0-.51.206-.985.573-1.347.368-.37.854-.561 1.373-.561a1.93 1.93 0 011.378.56c.216.214.498.617.768 1.093l1.713-1.675a.362.362 0 01.256-.103" fill="#ffffff" mask="url(#b)"/></g><path d="M8.993 18.053a.376.376 0 01-.2.265c-.595.276-1.146.625-1.373.848a1.175 1.175 0 000 1.686c.46.445 1.26.445 1.719 0 .226-.223.573-.763.864-1.346a.368.368 0 01.265-.202.36.36 0 01.32.106l1.804 1.77 1.46-1.43c-.493-.266-.904-.541-1.12-.753a1.881 1.881 0 010-2.693 1.91 1.91 0 011.372-.561c.52 0 1.006.19 1.374.56.227.214.503.616.773 1.093l1.453-1.431-1.806-1.77a.337.337 0 01-.101-.308.36.36 0 01.199-.264c.594-.287 1.145-.626 1.373-.85.227-.222.357-.518.357-.836 0-.318-.13-.615-.357-.848-.46-.456-1.259-.456-1.718 0-.227.223-.573.763-.864 1.346a.376.376 0 01-.272.202.385.385 0 01-.313-.106l-1.81-1.77-5.306 5.204 1.804 1.781c.081.085.125.19.103.307M20.643 18.053a.372.372 0 01-.2.265c-.593.276-1.145.625-1.371.848a1.174 1.174 0 000 1.686 1.25 1.25 0 001.718 0c.226-.223.578-.763.865-1.346a.358.358 0 01.583-.095l.21.2 1.6 1.57 1.454-1.432c-.491-.265-.897-.54-1.119-.752a1.882 1.882 0 010-2.693c.757-.742 1.989-.753 2.746 0 .227.213.503.615.772 1.092l1.455-1.431-1.805-1.77a.366.366 0 01-.103-.308.358.358 0 01.2-.264c.594-.287 1.146-.626 1.372-.85.233-.222.357-.518.357-.836 0-.318-.124-.615-.357-.848-.459-.456-1.26-.456-1.718 0-.227.223-.573.763-.865 1.346a.365.365 0 01-.264.202.4.4 0 01-.319-.106l-1.805-1.77-5.312 5.204 1.804 1.781a.33.33 0 01.102.307" fill="#ffffff"/><path d="M16.412 18.244a.346.346 0 01-.259.105h-.06a.365.365 0 01-.264-.2c-.292-.583-.638-1.125-.864-1.348-.46-.444-1.26-.455-1.72 0a1.174 1.174 0 000 1.686c.228.223.779.562 1.373.848a.377.377 0 01.2.266.349.349 0 01-.102.307l-.076.085-1.73 1.695 5.313 5.205 1.805-1.77a.35.35 0 01.313-.106.391.391 0 01.27.192c.293.592.638 1.132.865 1.357.459.445 1.26.445 1.719 0 .227-.234.355-.531.355-.85 0-.317-.128-.614-.355-.836-.228-.223-.779-.563-1.373-.848a.383.383 0 01-.2-.266.338.338 0 01.102-.307l1.806-1.77-1.454-1.432c-.27.477-.551.881-.773 1.093a1.972 1.972 0 01-2.745 0 1.882 1.882 0 010-2.694c.222-.211.627-.487 1.118-.762l-1.453-1.42-1.643 1.611-.168.16z" fill="#ffffff"/></g></svg>