<svg width="36" height="36" xmlns="http://www.w3.org/2000/svg" xmlns:xlink="http://www.w3.org/1999/xlink"><defs><path id="a" d="M.448.311h6.307v7.336H.448z"/><path id="c" d="M.216.286h14.063V13.91H.216z"/></defs><g fill="none" fill-rule="evenodd"><circle fill="#F1563C" cx="18" cy="18" r="18"/><path d="M12.532 23.315a.277.277 0 00-.266-.062l-2.082.61a.256.256 0 00-.11.432l2.481 2.41c.052.046.12.077.192.077.02 0 .044-.007.063-.007a.275.275 0 00.19-.178l.626-2.024a.243.243 0 00-.068-.255l-1.026-1.003zM12.674 22.4c-.142-1.025.638-2.614 1.199-3.595a24.349 24.349 0 011.692-2.538l-3.528.818-.11.06-3.843 3.733a.266.266 0 00-.072.273c.03.1.11.173.217.19l4.323.941.122.118z" fill="#ffffff"/><g transform="translate(14.06 21.067)"><mask id="b" fill="#ffffff"><use xlink:href="#a"/></mask><path d="M.448 3.112l.121.116.965 4.205a.279.279 0 00.197.198c.03.016.054.016.08.016a.31.31 0 00.204-.082l3.842-3.726.07-.121L6.755.31c-.87.618-1.756 1.18-2.605 1.637-1.01.543-2.645 1.3-3.702 1.164" fill="#ffffff" mask="url(#b)"/></g><g transform="translate(13.455 9.302)"><mask id="d" fill="#ffffff"><use xlink:href="#c"/></mask><path d="M10.488 5.618a1.25 1.25 0 01-1.73 0 1.162 1.162 0 010-1.679 1.248 1.248 0 011.73 0 1.163 1.163 0 010 1.68M14.163.371c-.362-.353-4.978.3-8.353 3.576-.772.75-1.533 1.6-2.234 2.48-.122.159-.245.316-.367.48l-.009.003C1.27 9.448-.094 12.124.276 13.292l.578.559c1.203.357 3.953-.963 6.562-2.832l.005-.021c.396-.276.764-.55 1.116-.824A25.77 25.77 0 0010.48 8.48C13.794 5.262 14.62.816 14.163.372" fill="#ffffff" mask="url(#d)"/></g></g></svg>