<svg display="none" xmlns="http://www.w3.org/2000/svg">
    <symbol id="why1" viewBox="0 0 30 42">
        <path fill="#f1563c" fill-rule="evenodd" d="M533,2327H515v-30h18v30Zm3-36H512a3,3,0,0,0-3,3v36a3,3,0,0,0,3,3h24a3,3,0,0,0,3-3v-36a3,3,0,0,0-3-3m-12,33a3,3,0,1,0-3-3,3,3,0,0,0,3,3" transform="translate(-509 -2291)"/>
    </symbol>
    <symbol id="why2" viewBox="0 0 44 38">
        <path fill="#f1563c" fill-rule="evenodd" d="M879.5,2319.57a5.5,5.5,0,0,1,11,0h-11Zm-22,0a8.251,8.251,0,0,1,16.5,0H857.5Zm8.25-27.14a5.43,5.43,0,1,1-5.5,5.43,5.469,5.469,0,0,1,5.5-5.43m21.335,16.48a11.038,11.038,0,0,0-9.938,3.09,13.912,13.912,0,0,0-5.835-4.83,10.8,10.8,0,0,0,5.437-9.31,11,11,0,0,0-22,0,10.784,10.784,0,0,0,5.478,9.33A14.108,14.108,0,0,0,852,2320.05a4.986,4.986,0,0,0,5.016,4.95h33.968a4.986,4.986,0,0,0,5.016-4.95v-0.04a11.185,11.185,0,0,0-8.915-11.1M885,2308a5,5,0,1,0-5-5,5,5,0,0,0,5,5" transform="translate(-852 -2287)"/>
    </symbol>
    <symbol id="why3" viewBox="0 0 44 40">
        <path fill="#f1563c" fill-rule="evenodd" d="M1223.5,2315.4h-2.75a2.681,2.681,0,0,0-2.75,2.6v3.05l-5.97-5.65h-13.28v-18.2h24.75v18.2Zm0-23.4h-24.75a5.356,5.356,0,0,0-5.5,5.2v18.2a5.356,5.356,0,0,0,5.5,5.2h11l9.06,8.57a2.808,2.808,0,0,0,1.92.76,2.682,2.682,0,0,0,2.77-2.6v-6.73a5.356,5.356,0,0,0,5.5-5.2v-18.2a5.356,5.356,0,0,0-5.5-5.2m-16.5,31.2h-6.8l-4.2,1.99v-1.99h-5.5V2305a2.754,2.754,0,0,0-5.5,0v18.2a5.35,5.35,0,0,0,5.5,5.2v1a2.686,2.686,0,0,0,2.75,2.6,2.863,2.863,0,0,0,1.23-.28l7.02-3.32h5.5a2.6,2.6,0,1,0,0-5.2" transform="translate(-1185 -2292)"/>
    </symbol>
    <symbol id="why4" viewBox="0 0 44 37">
        <path fill="#f1563c" fill-rule="evenodd" d="M542.5,2746.31h-33v-25.62h33v25.62Zm0-31.31h-33a5.6,5.6,0,0,0-5.5,5.69v25.62a5.6,5.6,0,0,0,5.5,5.69h33a5.6,5.6,0,0,0,5.5-5.69v-25.62a5.6,5.6,0,0,0-5.5-5.69M515,2734.92h8.25a2.8,2.8,0,0,0,2.751-2.84v-5.7a2.8,2.8,0,0,0-2.751-2.84H515a2.8,2.8,0,0,0-2.75,2.84v5.7a2.8,2.8,0,0,0,2.75,2.84m16.5-2.84H537a2.852,2.852,0,0,0,0-5.7h-5.5a2.852,2.852,0,0,0,0,5.7M515,2743.46h22a2.847,2.847,0,0,0,0-5.69H515a2.847,2.847,0,0,0,0,5.69" transform="translate(-504 -2715)"/>
    </symbol>
    <symbol id="why5" viewBox="0 0 40 49">
        <path fill="#f1563c" fill-rule="evenodd" d="M875.825,2744.98a2.891,2.891,0,0,1-.747,1.9,2.856,2.856,0,0,1-2.047.99,3.113,3.113,0,0,1-2.92-3.06h5.714v0.17Zm-2.853-27.73c6.294,0,11.413,5.49,11.413,12.25H861.56c0-6.76,5.118-12.25,11.412-12.25m-11.713,19.74a3.207,3.207,0,0,0,.3-1.36h22.825a3.207,3.207,0,0,0,.3,1.36l0.788,1.7h-25Zm31.156,2.9-2.324-4.99v-5.4c0-9.12-6.205-16.68-14.324-18.11,0.006-.08.058-0.15,0.058-0.23v-3.13a2.858,2.858,0,1,0-5.706,0v3.13c0,0.08.053,0.15,0.058,0.23-8.118,1.43-14.324,8.99-14.324,18.11v5.4l-2.551,5.48a1.676,1.676,0,0,0-.065.2c-0.011.02-.015,0.05-0.024,0.07a3.272,3.272,0,0,0-.2,1.04c0,0.03-.017.06-0.017,0.09a0.309,0.309,0,0,0,.007.04,3.274,3.274,0,0,0,.186.99,3.581,3.581,0,0,0,.14.33c0.035,0.07.053,0.15,0.093,0.22a2.879,2.879,0,0,0,.267.35,2.032,2.032,0,0,0,.2.26,2.735,2.735,0,0,0,.7.51,3.017,3.017,0,0,0,.3.13,2.6,2.6,0,0,0,.872.19c0.019,0,.034.01,0.052,0.01h8.582c0,5.49,4.425,9.19,8.467,9.19H873.1a8.367,8.367,0,0,0,6.056-2.84,8.824,8.824,0,0,0,2.363-6.35h8.624a2.962,2.962,0,0,0,2.853-3.06,3.18,3.18,0,0,0-.585-1.86" transform="translate(-853 -2705)"/>
    </symbol>
    <symbol id="why6" viewBox="0 0 44.28 43.65">
        <path fill="#f1563c" fill-rule="evenodd" d="M1198.31,2734.02l-4.15-10.92H1223l-3.69,10.92h-21Zm25.62,3.59,5.53-16.38a2.722,2.722,0,0,0-1.75-3.45,2.6,2.6,0,0,0-.87-0.11v-0.03h-34.76l-1.4-3.69a2.782,2.782,0,0,0-3.57-1.59,2.722,2.722,0,0,0-1.62,3.51l8.31,21.83a2.756,2.756,0,0,0,2.59,1.77h24.91a2.775,2.775,0,0,0,2.63-1.86m-24.77,12.78a5.536,5.536,0,1,1-5.54-5.46,5.5,5.5,0,0,1,5.54,5.46m24.91,0a5.536,5.536,0,1,1-5.54-5.46,5.5,5.5,0,0,1,5.54,5.46" transform="translate(-1185.31 -2712.19)"/>
    </symbol>
<!--tab icons-->
    <symbol id="tab-hospitality" viewBox="0 0 68 48">
        <path fill="#f1563c" fill-rule="evenodd" d="M775.528,3312.23a3.157,3.157,0,0,1,1.149.61v11.91a7.313,7.313,0,0,1-1.85,4.15c-1.663,1.91-4.117,2.87-7.3,2.87a18.834,18.834,0,0,1-3.315-.31c-3.125-.54-3.877-1.9-4.124-2.35-1.6-2.89.04-8.13,0.733-9.73l0.108-.24,0.076-.26,1.456-4.9,5.567-1.75h7.5m0.517-4.23h-8.689l-8.389,2.64-2.1,7.06s-6.891,15.58,6.591,17.93a24.273,24.273,0,0,0,4.07.37c10.243,0,13.458-7.84,13.458-11.25v-11.9c0-3.97-4.944-4.85-4.944-4.85h0Z" transform="translate(-713 -3308)"/>
        <path fill="#fcb03b" fill-rule="evenodd" d="M745.8,3347H745.2a23.2,23.2,0,0,1-23.2-23.2V3308h47v15.8A23.2,23.2,0,0,1,745.8,3347Z" transform="translate(-713 -3308)"/>
        <path fill="#3b484e" fill-rule="evenodd" d="M771.347,3356H722.653a9.651,9.651,0,0,1-9.653-9.65V3345h68v1.35A9.651,9.651,0,0,1,771.347,3356Z" transform="translate(-713 -3308)"/>
    </symbol>
    <symbol id="tab-customerservice" viewBox="0 0 70 70">
        <path fill="#f1563c" fill-rule="evenodd" d="M1025,3297v70A35,35,0,0,0,1025,3297Z" transform="translate(-990 -3297)"/>
        <path fill="#fcb03b" fill-rule="evenodd" d="M990,3332a35,35,0,0,0,35,35v-70A35,35,0,0,0,990,3332Z" transform="translate(-990 -3297)"/>
        <path fill="#3b484e" fill-rule="evenodd" d="M1025,3367a34.849,34.849,0,0,0,28-14.09c-2.19-2.45-7.73-4.11-13.22-6.41a68.427,68.427,0,0,1-7.31-3.33l-0.06-5.69s2.22-1.71,2.91-7.07c1.38,0.4,2.84-2.08,2.92-3.38,0.07-1.25-.2-4.75-1.89-4.39a35.031,35.031,0,0,0,.48-6.24c-0.44-4.57-4.93-9.4-11.83-9.4s-11.39,4.83-11.83,9.4a35.031,35.031,0,0,0,.48,6.24c-1.69-.36-1.96,3.14-1.89,4.39,0.08,1.3,1.54,3.78,2.92,3.38,0.69,5.36,2.91,7.07,2.91,7.07l-0.06,5.69a68.427,68.427,0,0,1-7.31,3.33c-5.5,2.3-11.031,3.96-13.22,6.41A34.849,34.849,0,0,0,1025,3367Z" transform="translate(-990 -3297)"/>
    </symbol>
    <symbol id="tab-ecommerce" viewBox="0 0 72 51">
        <path fill="#4d4a45" fill-rule="evenodd" d="M571,3317v11h72v-11H571Z" transform="translate(-571 -3306)"/>
        <path fill="#f1563c" fill-rule="evenodd" d="M643,3309.57a3.614,3.614,0,0,0-3.63-3.57H574.63a3.614,3.614,0,0,0-3.63,3.57V3317h72v-7.43Z" transform="translate(-571 -3306)"/>
        <path fill="#fcb03b" fill-rule="evenodd" d="M571,3353.41a3.624,3.624,0,0,0,3.63,3.59h64.74a3.624,3.624,0,0,0,3.63-3.59V3328H571v25.41Z" transform="translate(-571 -3306)"/>
    </symbol>
    <symbol id="tab-entertainment" viewBox="0 0 75.72 50.56">
        <path fill="#fcb03b" fill-rule="evenodd" d="M1202.84,3343.62c-0.15-6-1.36-27.76-12.62-38.41a50.69,50.69,0,0,0-10.97,0c-4.95,3.75-9.31,3.42-14.27,3.42s-9.31.33-14.27-3.42a50.6,50.6,0,0,0-10.96,0c-11.27,10.65-12.47,32.41-12.62,38.41s1.8,12.15,7.81,11.85,12.92-10.65,18.78-12.75c4.3-1.54,11.26-1.5,11.26-1.5s6.97-.04,11.27,1.5c5.86,2.1,12.77,12.45,18.78,12.75S1202.99,3349.62,1202.84,3343.62Z" transform="translate(-1127.12 -3304.91)"/>
        <path fill="#3b484e" fill-rule="evenodd" d="M1156,3322.85a1.17,1.17,0,0,1-1.18,1.15h-16.64a1.17,1.17,0,0,1-1.18-1.15v-2.7a1.17,1.17,0,0,1,1.18-1.15h16.64a1.17,1.17,0,0,1,1.18,1.15v2.7Zm-8.15-10.85a1.17,1.17,0,0,1,1.15,1.18v16.64a1.17,1.17,0,0,1-1.15,1.18h-2.7a1.17,1.17,0,0,1-1.15-1.18v-16.64a1.17,1.17,0,0,1,1.15-1.18h2.7Z" transform="translate(-1127.12 -3304.91)"/>
        <path fill="#f1563c" fill-rule="evenodd" d="M1186.94,3315.24a3.36,3.36,0,1,1-3.36-3.36A3.361,3.361,0,0,1,1186.94,3315.24Zm-6.62,6.62a3.36,3.36,0,1,1-3.36-3.36A3.361,3.361,0,0,1,1180.32,3321.86Zm13.24,0a3.36,3.36,0,1,1-3.36-3.36A3.361,3.361,0,0,1,1193.56,3321.86Zm-6.62,6.62a3.36,3.36,0,1,1-3.36-3.36A3.354,3.354,0,0,1,1186.94,3328.48Z" transform="translate(-1127.12 -3304.91)"/>
    </symbol>
    <symbol id="tab-finance" viewBox="0 0 71 65">
        <path fill="#fcb03b" fill-rule="evenodd" d="M1329,3352h-51v-36h51v36Z" transform="translate(-1268 -3294)"/>
        <path fill="#3b484e" fill-rule="evenodd" d="M1298,3350h-10v-34h10v34Zm21,0h-10v-34h10v34Zm17,9h-65v-9h65v9Z" transform="translate(-1268 -3294)"/>
        <path fill="#f1563c" fill-rule="evenodd" d="M1268,3316l35.5-22,35.5,22h-71Z" transform="translate(-1268 -3294)"/>
    </symbol>
    <symbol id="tab-healthcare" viewBox="0 0 60 67">
        <path fill="#f1563c" fill-rule="evenodd" d="M915,3313.07c0-.47,0-0.95-0.016-1.43A56.407,56.407,0,0,1,885,3298v67C903.136,3353.11,915,3337.06,915,3313.07Z" transform="translate(-855 -3298)"/>
        <path fill="#3b484e" fill-rule="evenodd" d="M884.973,3298a56.418,56.418,0,0,1-29.957,13.67c-0.011.49-.017,0.98-0.017,1.46,0,23.96,9.247,39.12,29.974,51.87C884.973,3365,885,3298.02,884.973,3298Z" transform="translate(-855 -3298)"/>
        <path fill="#fcb03b" fill-rule="evenodd" d="M899.756,3335.72l2.17-2.24a11.067,11.067,0,0,0,0-15.27,10.184,10.184,0,0,0-14.758,0L885,3320.45v30.54Z" transform="translate(-855 -3298)"/>
        <path fill="#f1563c" fill-rule="evenodd" d="M882.831,3318.21a10.184,10.184,0,0,0-14.758,0,11.065,11.065,0,0,0,0,15.27l2.17,2.24L885,3350.99h0v-30.54h0Z" transform="translate(-855 -3298)"/>
    </symbol>
    <symbol id="icon-apiai" viewBox="0 0 54 66">
        <path fill="#ffffff" fill-rule="evenodd" d="M699.984,4460.68c0,3.45-.047,6.91.02,10.37a3.864,3.864,0,0,1-2.256,3.85c-11.34,6.16-22.645,12.39-33.962,18.59-1.477.81-1.567,0.76-1.573-.94-0.009-2.68-.045-5.35.018-8.03a2.082,2.082,0,0,0-1.274-2.17c-4.194-2.2-8.329-4.52-12.528-6.71a4.064,4.064,0,0,1-2.432-4.06c0.069-6.96.025-13.92,0.027-20.89,0-2.17.073-2.22,2.051-1.15,7.153,3.84,14.322,7.66,21.436,11.57a5.814,5.814,0,0,0,6.131-.02c7.54-4.15,15.14-8.18,22.719-12.25,1.542-.83,1.618-0.78,1.621,1.03Q699.993,4455.27,699.984,4460.68Zm-27.45-2.32a4.36,4.36,0,0,1-2.385-.58q-11.493-6.18-22.981-12.36a2.322,2.322,0,0,1-.469-3.7,5.636,5.636,0,0,1,1.752-1.27c7.1-3.84,14.233-7.62,21.3-11.52a6.175,6.175,0,0,1,6.542.03c6.894,3.81,13.853,7.51,20.787,11.24a7.775,7.775,0,0,1,2.154,1.46c1.141,1.25.969,2.49-.5,3.28q-11.726,6.36-23.468,12.68A4.689,4.689,0,0,1,672.534,4458.36Z" transform="translate(-646 -4428)"/>
    </symbol>
    <symbol id="icon-googlenlapi" viewBox="0 0 55 54">
        <path fill="#ffffff" fill-rule="evenodd" d="M1250.52,4440.2V4433H1238v54h12.52v-7.2h-5.37v-39.6h5.37Zm35.33-7.2h-5.37v7.2h5.37v39.6h-5.37v7.2H1293v-54h-7.15Zm-6.71,9.9v7.2h-27.28v-7.2h27.28Zm0,13.5v7.2h-27.28v-7.2h27.28Zm0,13.5v7.2h-27.28v-7.2h27.28Z" transform="translate(-1238 -4433)"/>
    </symbol>

    <symbol id="icon-watson" viewBox="0 0 72 72">
        <path fill="#ffffff" fill-rule="evenodd" d="M964.11,4431.11a1.492,1.492,0,0,0,1.49-1.49v-9.15a1.489,1.489,0,0,0-1.49-1.47,1.47,1.47,0,0,0-1.469,1.47v9.12A1.514,1.514,0,0,0,964.11,4431.11Zm14.557,3.42a1.413,1.413,0,0,0,.636.15,1.508,1.508,0,0,0,1.338-.83l3.946-8.25a1.3,1.3,0,0,0,.154-0.63,1.473,1.473,0,0,0-.834-1.34,1.3,1.3,0,0,0-.636-0.16,1.5,1.5,0,0,0-1.337.84l-3.946,8.24a1.315,1.315,0,0,0-.154.64A1.507,1.507,0,0,0,978.667,4434.53Zm-31.79-.68a1.5,1.5,0,0,0,1.337.83,1.55,1.55,0,0,0,.636-0.15,1.534,1.534,0,0,0,.855-1.34,1.634,1.634,0,0,0-.153-0.64l-3.947-8.24a1.5,1.5,0,0,0-1.337-.84,1.3,1.3,0,0,0-.636.16,1.478,1.478,0,0,0-.855,1.34,1.3,1.3,0,0,0,.154.63Zm52.9,3.46a1.415,1.415,0,0,0-1.25-.7,1.46,1.46,0,0,0-.789.22l-7.762,4.83a1.4,1.4,0,0,0-.7,1.24,1.423,1.423,0,0,0,.219.79,1.522,1.522,0,0,0,1.25.73,1.46,1.46,0,0,0,.789-0.22l7.761-4.83A1.511,1.511,0,0,0,999.781,4437.31Zm-62.529,7.09a1.488,1.488,0,0,0,1.469-1.52,1.528,1.528,0,0,0-.7-1.25l-7.761-4.82a1.486,1.486,0,0,0-2.039.48,1.545,1.545,0,0,0-.219.79,1.473,1.473,0,0,0,.7,1.27l7.762,4.83A1.573,1.573,0,0,0,937.252,4444.4Zm54.376,14.49c0-.03,0-0.06,0-0.08h-0.012a27.743,27.743,0,0,0-5.567-12.78c-0.147-.21-0.3-0.41-0.464-0.61l0.014-.01c-0.151-.19-0.321-0.34-0.483-0.51a27.754,27.754,0,0,0-40.777-1.33l0-.01a1.014,1.014,0,0,1-.09.1,27.77,27.77,0,0,0-7.979,19.49,28.058,28.058,0,0,0,.328,4.27c0,0.01,0,.03,0,0.05v0.02h0.012a27.756,27.756,0,0,0,6.052,13.39l-0.013.01c0.056,0.07.125,0.12,0.182,0.18a27.779,27.779,0,0,0,41.071,1.65l0.009,0.01c0.049-.05.085-0.11,0.133-0.16A27.818,27.818,0,0,0,991.628,4458.89Zm-9.024,21.85c-0.172.19-.344,0.37-0.522,0.54-3.477,3.32-9.983,3.58-16.791.97a41.754,41.754,0,0,0,7.582-4.37,3.648,3.648,0,0,0,5.362-4.59,39.741,39.741,0,0,0,5.344-6.63C985.6,4472.34,985.379,4477.56,982.6,4480.74Zm-24.5,7.15-0.033.08h-0.008l0.041-.11c-0.711-.39-1.156-1.48-1.391-3.04a31.53,31.53,0,0,0,5.682-1.43C960.627,4486.48,959.021,4488.36,958.1,4487.89Zm-15.744-17.14a42.419,42.419,0,0,0,6.724.43c0.411,0.5.835,1.01,1.276,1.51a1.946,1.946,0,0,0-.346,1.12,1.966,1.966,0,0,0,1.973,1.97,2,2,0,0,0,1.058-.31c0.436,0.42.875,0.82,1.32,1.22a41.649,41.649,0,0,0-.184,6.02c-3.542.23-6.543-.37-8.414-1.81-0.46-.47-0.906-0.96-1.329-1.47l0.007-.01C942.675,4477.27,942.018,4474.2,942.358,4470.75Zm-2.09,1.55c-0.282-.73-0.531-1.48-0.745-2.24,0.309,0.11.641,0.21,0.987,0.3A18.547,18.547,0,0,0,940.268,4472.3Zm5.5-26.91c0.08-.08.157-0.17,0.238-0.25,3.476-3.48,9.831-3.49,16.556-.58a0.158,0.158,0,0,1-.017.04,44.655,44.655,0,0,0-8.962,5.76c-0.2.16-.384,0.33-0.576,0.49a2,2,0,0,0-1.134-.36,1.963,1.963,0,0,0-1.69,2.98,41.382,41.382,0,0,0-5.789,7.27C942.306,4454.52,942.729,4448.69,945.771,4445.39Zm39.045,2.8c1.065,1.88,1.287,4.52.73,7.52-1.113-.13-2.324-0.21-3.593-0.24a3.363,3.363,0,0,0-3.351-3.13,3.456,3.456,0,0,0-1.12.2c-0.431-.47-0.856-0.93-1.314-1.39-0.952-.94-1.938-1.8-2.936-2.63a42.759,42.759,0,0,0-.066-5.38c4.312-.17,7.979.94,10.222,3.26C983.89,4446.97,984.367,4447.57,984.816,4448.19Zm3.247,6.06c0.256,0.69.479,1.39,0.676,2.11-0.281-.09-0.576-0.18-0.888-0.25Q988,4455.165,988.063,4454.25ZM976.7,4471.67a3.637,3.637,0,0,0-5.425,3.19,3.568,3.568,0,0,0,.248,1.29,37.5,37.5,0,0,1-5.666,3.32,88.887,88.887,0,0,0,3.7-10.43,110.4,110.4,0,0,0,11.594-2.95A36.9,36.9,0,0,1,976.7,4471.67Zm-20.087,6.9a41.04,41.04,0,0,0,4.178,2.87,31.34,31.34,0,0,1-4.279,1C956.484,4481.27,956.523,4479.97,956.617,4478.57Zm-4.632-6.74a1.907,1.907,0,0,0-.976.27c-0.268-.31-0.515-0.63-0.769-0.94,1.636-.03,3.285-0.12,4.872-0.23-0.269,1.66-.488,3.22-0.646,4.65-0.271-.24-0.537-0.49-0.8-0.74A1.972,1.972,0,0,0,951.985,4471.83Zm-6.886-9.2a70.256,70.256,0,0,1,10.445-3.35,4.243,4.243,0,0,0,1.522,1.79c-0.02.09-.04,0.17-0.06,0.26-0.6,2.66-1.1,5.1-1.508,7.37-2.583.22-4.88,0.31-6.879,0.31A33.513,33.513,0,0,1,945.1,4462.63Zm5.649-8.55a1.928,1.928,0,0,0,1.128.36,1.966,1.966,0,0,0,1.973-1.97,1.991,1.991,0,0,0-.3-1.05c0.155-.13.3-0.27,0.455-0.4a36.674,36.674,0,0,1,7.877-4.96,71.145,71.145,0,0,0-2.727,7.31,4.176,4.176,0,0,0-3.888,5.08c-3.038.67-6.525,1.54-9.661,2.58A34.75,34.75,0,0,1,950.748,4454.08Zm21.166-6.64a41.706,41.706,0,0,0-5.026-3.27,27.513,27.513,0,0,1,4.936-.92C971.915,4444.48,971.944,4445.9,971.914,4447.44Zm-5.432,19.83a3.075,3.075,0,0,0-5.836.88c-0.927.12-1.825,0.22-2.695,0.31,0.419-2.28.907-4.55,1.435-6.7a4.193,4.193,0,0,0,4.185-4.07q1.261-.195,2.474-0.36a1.551,1.551,0,0,0,2.947-.34c0.742-.08,1.464-0.14,2.173-0.19q-0.187,1.395-.419,2.79a1.964,1.964,0,0,0-.716,3.72c-0.12.55-.243,1.09-0.373,1.61-0.152.61-.318,1.24-0.494,1.86C968.294,4466.95,967.4,4467.11,966.482,4467.27Zm4.249-2.59c0.1-.39.19-0.78,0.282-1.17a1.964,1.964,0,0,0,.8-3.71q0.308-1.575.552-3.09c1.036-.06,2.036-0.11,2.991-0.13a3.371,3.371,0,0,0,3.25,2.51,3.111,3.111,0,0,0,.967-0.16,36.366,36.366,0,0,1,2.59,4.43,86.925,86.925,0,0,1-11.916,3.21C970.409,4465.95,970.573,4465.32,970.731,4464.68Zm4.5-9.05c-0.931.06-1.849,0.12-2.739,0.2,0.227-1.52.4-2.98,0.532-4.37,0.466,0.42.932,0.84,1.387,1.29,0.437,0.43.844,0.88,1.255,1.32A3.318,3.318,0,0,0,975.234,4455.63Zm-3.958.31c-0.821.08-1.611,0.16-2.351,0.24a1.547,1.547,0,0,0-3,.36c-1.107.15-1.941,0.27-2.408,0.34a4.177,4.177,0,0,0-1.894-2.87,88.6,88.6,0,0,1,3.186-8.36,40.051,40.051,0,0,1,6.986,4.73C971.685,4452.17,971.511,4454.05,971.276,4455.94Zm-13.719,14.79c1.3-.12,2.52-0.25,3.6-0.38a3.076,3.076,0,0,0,5.443-.75c0.514-.09,1.124-0.2,1.814-0.34a85.478,85.478,0,0,1-4.4,11.03c-0.563.23-1.126,0.44-1.687,0.64a35.466,35.466,0,0,1-5.63-3.5C956.883,4475.33,957.178,4473.05,957.557,4470.73Zm23.9-13.23a3.394,3.394,0,0,0,.343-0.75,33.02,33.02,0,0,1,3.429.45,27.553,27.553,0,0,1-1.48,4.16A38.346,38.346,0,0,0,981.456,4457.5Zm-6.033-16.2a22.935,22.935,0,0,0-2.45.14,15.159,15.159,0,0,0-.553-2.45,25.627,25.627,0,0,1,5.156,2.45A18.778,18.778,0,0,0,975.423,4441.3Zm-5.218-2.83h0.065c0.667,0.17,1.121,1.33,1.383,3.15a31.422,31.422,0,0,0-5.631,1.5C967.575,4440.14,969.068,4438.27,970.205,4438.47ZM947.428,4469a34.323,34.323,0,0,1-4.746-.38,25.427,25.427,0,0,1,1.572-4.87A39.546,39.546,0,0,0,947.428,4469Zm7,16.05a10.935,10.935,0,0,0,.511,1.94,25.251,25.251,0,0,1-4.177-2.07A20.076,20.076,0,0,0,954.432,4485.05Zm33.08-27.26a2.733,2.733,0,0,1,1.8,1.21c0.01,0.06.024,0.13,0.035,0.19-0.049.61-1.129,1.49-3.135,2.49A26.712,26.712,0,0,0,987.512,4457.79Zm-20.561-20.03a21.8,21.8,0,0,0-3.357,4.79,25.586,25.586,0,0,0-10.836-2.28,25.311,25.311,0,0,1,11.352-2.67A26.646,26.646,0,0,1,966.951,4437.76Zm-25.776,14.15a24.622,24.622,0,0,0,2.186,9.93,21.729,21.729,0,0,0-4.766,2.4c-0.015-.37-0.027-0.73-0.027-1.09A25.451,25.451,0,0,1,941.175,4451.91Zm-2.319,15.08c-0.01-.07-0.016-0.14-0.025-0.2,0.045-.72,1.438-1.85,3.93-3.1a27.811,27.811,0,0,0-1.766,4.57,3.466,3.466,0,0,1-2.055-1.12l-0.057.01h0l0.057-.01A0.6,0.6,0,0,1,938.856,4466.99Zm21.684,21.45a22.708,22.708,0,0,0,3.544-5.23,26.508,26.508,0,0,0,10.659,2.79c0.273,0,.537-0.01.8-0.02a25.279,25.279,0,0,1-11.438,2.72A24.744,24.744,0,0,1,960.54,4488.44Zm26.6-14.25a24.716,24.716,0,0,0-1.9-9.59,20.654,20.654,0,0,0,4.391-2.38c0.011,0.31.023,0.62,0.023,0.93A25.373,25.373,0,0,1,987.139,4474.19Z" transform="translate(-928 -4419)"/>
    </symbol>

    <symbol id="icon-luisai" viewBox="0 0 57 59">
        <path fill="#ffffff" fill-rule="evenodd" d="M808.518,4472.92l-0.791-.33a25.671,25.671,0,0,1-9.506-6.54,19.7,19.7,0,0,1-4.97-9.93,18.613,18.613,0,0,1,3.787-15.01,25.435,25.435,0,0,1,14.294-9.14,28.116,28.116,0,0,1,6.762-.96,28.981,28.981,0,0,1,17.3,4.88,21.751,21.751,0,0,1,8.544,10.76,18.009,18.009,0,0,1,1.045,5.57,28.022,28.022,0,0,1-6.523,18.92,45.167,45.167,0,0,1-11.442,9.79,60.748,60.748,0,0,1-14.853,6.87,53.423,53.423,0,0,1-8.482,1.81,49.112,49.112,0,0,1-9.772.26c-1.674-.13-3.349-0.33-5-0.62-1.124-.19-0.918-0.13-0.848-1.09,0.085-1.19.121-2.37,0.2-3.56a10.366,10.366,0,0,1,.211-1.72,1.165,1.165,0,0,1,.546-0.65,11.384,11.384,0,0,1,1.607-.69c2.894-.99,5.806-1.93,8.69-2.95a23.817,23.817,0,0,0,7.222-3.86C807.206,4474.19,807.811,4473.57,808.518,4472.92Zm11.221-5.77c0.713-.08,2.04-0.16,3.332-0.41a17.125,17.125,0,0,0,10.287-5.88,12.168,12.168,0,0,0,2.721-10.76,13.619,13.619,0,0,0-6.007-8.53,18.894,18.894,0,0,0-13.262-3.08,17.945,17.945,0,0,0-10.335,4.63,12.721,12.721,0,0,0,.129,19.33C810.118,4465.69,814.38,4467.07,819.739,4467.15Zm8.027-14.97c0,0.35.019,0.71-.013,1.06a0.406,0.406,0,0,1-.271.25,1.364,1.364,0,0,0-1.331,1.55c-0.019.96,0,1.93-.052,2.89-0.089,1.68-1.188,2.34-2.644,2.51a0.277,0.277,0,0,0-.09.01c-1.06.07-1.131,0-.981-1.07a0.435,0.435,0,0,1,.294-0.28,1.419,1.419,0,0,0,1.383-1.6c0.01-.72.025-1.43,0-2.14a2.31,2.31,0,0,1,1.48-2.55,2.384,2.384,0,0,1-1.481-2.57,24,24,0,0,0-.054-2.49,1.157,1.157,0,0,0-1.179-1.18,0.416,0.416,0,0,1-.432-0.52c0.048-1.03-.25-1.03,1.03-0.87a3.336,3.336,0,0,1,1.9.75,2.95,2.95,0,0,1,.82,2.32c0.031,0.73,0,1.46.011,2.18a1.434,1.434,0,0,0,1.4,1.69C827.6,4452.13,827.658,4452.15,827.766,4452.18Zm-17.039,1.26a9.647,9.647,0,0,1,.014-1.05,0.452,0.452,0,0,1,.295-0.29,1.409,1.409,0,0,0,1.3-1.59c0.019-.71,0-1.43.009-2.14,0.012-2.11.961-3.11,3.089-3.26,0.19-.01.382,0,0.632,0,0,0.43.015,0.83-.012,1.22a0.384,0.384,0,0,1-.265.22,1.387,1.387,0,0,0-1.361,1.56c-0.023.69-.023,1.37,0,2.05a2.4,2.4,0,0,1-1.479,2.63,2.365,2.365,0,0,1,1.48,2.65c-0.026.7-.008,1.4,0,2.09a1.363,1.363,0,0,0,1.324,1.55,0.352,0.352,0,0,1,.365.43c-0.049,1.03.282,1.09-1.088,0.93a2.589,2.589,0,0,1-2.407-1.52,5.325,5.325,0,0,1-.262-1.57c-0.043-.76,0-1.52-0.016-2.27a1.375,1.375,0,0,0-1.392-1.58C810.892,4453.49,810.836,4453.47,810.727,4453.44Z" transform="translate(-788 -4431)"/>
    </symbol>

    <symbol id="icon-amazonlex" viewBox="0 0 50 60">
        <path fill="#ffffff" fill-rule="evenodd" d="M1119,4430l-25,12.27v35.46l25,12.27,25-12.27v-35.46Zm20,29.5v8.62l-20,3.98-20-3.98v-16.24l20-3.98,20,3.98v7.62Zm-7.79.43-12.09,12.02-12.09-12.02,12.09-12.02Z" transform="translate(-1094 -4430)"/>
    </symbol>

    <symbol id="facebook-integration-icon" viewBox="0 0 25 25">

        <path fill="#494949" fill-rule="evenodd" d="M967.62,1283H945.377a1.375,1.375,0,0,0-1.38,1.38v22.24a1.381,1.381,0,0,0,1.38,1.38h11.975v-9.68h-3.259v-3.78h3.259v-2.78c0-3.23,1.972-4.99,4.853-4.99a28.311,28.311,0,0,1,2.912.15v3.38h-2c-1.566,0-1.87.74-1.87,1.83v2.41h3.737l-0.487,3.78h-3.25V1308h6.372a1.381,1.381,0,0,0,1.38-1.38v-22.24A1.375,1.375,0,0,0,967.62,1283Z" transform="translate(-944 -1283)"/>
    </symbol>
    <symbol id="stripe-integration-icon" viewBox="0 0 54 22">

        <path fill="#494949" fill-rule="evenodd" d="M1041.2,1292.08c-1.09,0-.98,1.33-1.02,2.75h1.81c0-1.6,0-2.75-.79-2.75h0Zm-1.02,5.07c0,1.29.63,1.54,1.7,1.54a22.194,22.194,0,0,0,3.51-.47v3.11a11.786,11.786,0,0,1-3.51.61c-2.7,0-5.99-.43-5.99-6.16,0-5.06,2.59-6.25,5.31-6.25,2.78,0,4.8,1.42,4.8,6.2v1.42h-5.82Zm-10.63-4.46a2.725,2.725,0,0,0-1.02.36v5.77a2.92,2.92,0,0,0,.72.12c0.75,0,1.21-.63,1.21-3.27-0.01-2.69-.21-2.98-0.91-2.98h0Zm0.5,9.25a7.088,7.088,0,0,1-1.52-.25V1306h-4.31v-16.25h3.49l0.64,0.75a3.859,3.859,0,0,1,2.56-.97c1.77,0,3.85.49,3.85,6.14,0,6.18-3.13,6.27-4.71,6.27h0Zm-9.79-13.65a2.145,2.145,0,1,1,2.13-2.15,2.13,2.13,0,0,1-2.13,2.15h0Zm-2.15,13.42v-11.96h4.3v11.96h-4.3Zm-2.61-8.59a2.912,2.912,0,0,0-1.43.4v8.19h-4.3v-11.96h3.42l0.63,1.15a1.989,1.989,0,0,1,1.93-1.37,2.815,2.815,0,0,1,1.33.25v3.56A6.47,6.47,0,0,0,1015.5,1293.12Zm-8.18,5.57c0.27,0,1.22-.14,1.54-0.18v3.05a17.13,17.13,0,0,1-3.06.38c-1.22,0-3.51-.14-3.51-3.45v-6.01h-1.59v-2.73h1.59l0.54-2.7,3.76-.91v3.61h2.27l-0.57,2.73h-1.7v5.24c0,0.81.25,0.97,0.73,0.97h0Zm-11.128-5.48c0,0.47.317,0.63,1.065,0.97l0.453,0.2a3.564,3.564,0,0,1,2.54,3.5c0,3.61-2.7,4.06-4.625,4.06a12.122,12.122,0,0,1-3.444-.57v-3.09a14.623,14.623,0,0,0,2.7.52c0.657,0,1.155-.09,1.155-0.67,0-.46-0.317-0.66-1.019-0.97l-0.544-.25a3.62,3.62,0,0,1-2.47-3.48c0-3.2,2.515-3.9,4.622-3.9a8.728,8.728,0,0,1,3.172.56v3a11.352,11.352,0,0,0-2.7-.47c-0.521,0-.906.13-0.906,0.59h0Z" transform="translate(-992 -1284)"/>
    </symbol>
    <symbol id="liveperson-integration-icon" viewBox="0 0 31 31">

        <path fill="#494949" fill-rule="evenodd" d="M1092.47,1297.34l3.53,0.24v-4.17l-3.53.24c-0.04-.26-0.08-0.52-0.14-0.78l3.37-1.13-1.6-3.85-3.11,1.54q-0.255-.42-0.54-0.84l2.69-2.34-2.95-2.95-2.29,2.62c-0.3-.24-0.61-0.45-0.93-0.66l1.58-3.18-3.86-1.59-1.11,3.3c-0.41-.11-0.82-0.19-1.24-0.26l0.24-3.53h-4.18l0.25,3.53c-0.43.07-.85,0.16-1.26,0.26l-1.11-3.28-3.86,1.6,1.58,3.17c-0.32.2-.63,0.42-0.93,0.65l-2.26-2.58-2.95,2.95,2.66,2.32c-0.18.27-.36,0.54-0.52,0.82l-3.11-1.54-1.6,3.85,3.37,1.13c-0.06.26-.1,0.51-0.14,0.77l-3.52-.24v4.17l3.52-.24c0.05,0.33.11,0.66,0.19,0.98l-3.39,1.13,1.59,3.86,3.19-1.58c0.17,0.27.34,0.53,0.53,0.79l-2.7,2.35,2.95,2.95,2.32-2.66c0.29,0.22.6,0.43,0.91,0.63l-1.58,3.16,3.86,1.6,1.12-3.32a10.452,10.452,0,0,0,1.14.23l-0.24,3.54h4.17l-0.24-3.54a11.2,11.2,0,0,0,1.18-.24l1.12,3.33,3.86-1.6-1.59-3.18c0.31-.2.61-0.4,0.9-0.62l2.31,2.64,2.95-2.95-2.69-2.34c0.19-.27.37-0.54,0.53-0.81l3.17,1.57,1.6-3.86-3.38-1.13C1092.37,1297.96,1092.43,1297.65,1092.47,1297.34Zm-4.7-1.84a7.275,7.275,0,1,1-7.27-7.27A7.268,7.268,0,0,1,1087.77,1295.5Z" transform="translate(-1065 -1280)"/>
    </symbol>
    <symbol id="salesforce-integration-icon" viewBox="0 0 64 34">
        <path fill="#494949" fill-rule="evenodd" d="M1140.95,1295.11a1.3,1.3,0,0,0-1.15.58,2.364,2.364,0,0,0-.33.94h2.89a2,2,0,0,0-.27-0.94A1.266,1.266,0,0,0,1140.95,1295.11Zm16.26,0.03a1.291,1.291,0,0,0-1.16.55,2.851,2.851,0,0,0-.38,1.59,2.911,2.911,0,0,0,.38,1.6,1.276,1.276,0,0,0,1.16.56,1.3,1.3,0,0,0,1.16-.56,2.911,2.911,0,0,0,.38-1.6h0a2.851,2.851,0,0,0-.38-1.59A1.291,1.291,0,0,0,1157.21,1295.14Zm8.99-9.53a17.4,17.4,0,0,0-5.58.9,12.232,12.232,0,0,0-9.87-4.45,13.167,13.167,0,0,0-8.12,2.65,14.044,14.044,0,0,0-9.88-3.71c-6.87,0-12.43,4.22-12.43,9.42a7.487,7.487,0,0,0,1.02,3.75c-3.19,1.42-5.34,4.06-5.34,7.09,0,4.53,4.78,8.2,10.68,8.2a13.153,13.153,0,0,0,2.2-.18c1.62,3.34,5.84,5.72,10.8,5.72,4.75,0,8.84-2.19,10.59-5.32a12.8,12.8,0,0,0,4.41.77,10.9,10.9,0,0,0,8.8-3.92,19.041,19.041,0,0,0,2.72.2c7.62,0,13.8-4.73,13.8-10.56S1173.82,1285.61,1166.2,1285.61Zm-37.85,12.95c0,1.21-.89,1.96-2.32,1.96a4.3,4.3,0,0,1-2.08-.48c-0.14-.08-0.27-0.15-0.4-0.24a0.126,0.126,0,0,1-.03-0.16h0l0.28-.77a0.114,0.114,0,0,1,.19-0.06,2.55,2.55,0,0,0,.24.14,3.425,3.425,0,0,0,1.84.53,0.868,0.868,0,0,0,1.01-.76v-0.03c0-.47-0.6-0.65-1.29-0.86l-0.15-.05c-0.94-.26-1.95-0.65-1.95-1.82v-0.03a1.984,1.984,0,0,1,2.22-1.89h0.15a4.091,4.091,0,0,1,2.04.54,0.131,0.131,0,0,1,.07.16c-0.02.07-.26,0.7-0.29,0.77-0.05.13-.19,0.04-0.19,0.04a4.243,4.243,0,0,0-1.81-.45,0.786,0.786,0,0,0-.92.68v0.02c0,0.46.62,0.66,1.33,0.89l0.12,0.03c0.94,0.3,1.94.7,1.94,1.82v0.02Zm5.86,1.57c-0.1.02-.19,0.05-0.29,0.07-0.13.03-.62,0.13-1.01,0.19a7.205,7.205,0,0,1-1.23.1,5.056,5.056,0,0,1-1.07-.1,2.2,2.2,0,0,1-.82-0.36,1.587,1.587,0,0,1-.53-0.62,1.944,1.944,0,0,1-.19-0.91,1.913,1.913,0,0,1,.22-0.91,1.938,1.938,0,0,1,.58-0.66,2.629,2.629,0,0,1,.85-0.38,3.585,3.585,0,0,1,.99-0.13c0.26,0,.47.01,0.64,0.02h0s0.31,0.03.66,0.08v-0.17a1.059,1.059,0,0,0-.33-0.95,1.657,1.657,0,0,0-1-.26,4.156,4.156,0,0,0-1.76.41,0.6,0.6,0,0,1-.07.03,0.1,0.1,0,0,1-.13-0.07l-0.29-.75a0.129,0.129,0,0,1,.04-0.16,3.938,3.938,0,0,1,1.25-.45,6.475,6.475,0,0,1,1.08-.1,2.827,2.827,0,0,1,1.86.55,2.238,2.238,0,0,1,.64,1.76V1300A0.125,0.125,0,0,1,1134.21,1300.13Zm2.71,0.11a0.116,0.116,0,0,1-.12.12h-1.07a0.113,0.113,0,0,1-.11-0.12v-8.49a0.113,0.113,0,0,1,.11-0.12h1.07a0.116,0.116,0,0,1,.12.12v8.49Zm6.69-2.73a0.11,0.11,0,0,1-.11.1h-4.05a1.656,1.656,0,0,0,1.86,1.79,4.112,4.112,0,0,0,1.66-.29,0.115,0.115,0,0,1,.15.07l0.26,0.73a0.125,0.125,0,0,1-.03.19,4.372,4.372,0,0,1-2.04.39,4.22,4.22,0,0,1-1.46-.23,2.813,2.813,0,0,1-1.02-.66,2.774,2.774,0,0,1-.59-1.01,4.332,4.332,0,0,1-.18-1.27,4.284,4.284,0,0,1,.18-1.27,2.8,2.8,0,0,1,.55-1.04,2.655,2.655,0,0,1,.93-0.7,3.222,3.222,0,0,1,1.33-.25,3,3,0,0,1,1.16.23,2.624,2.624,0,0,1,.77.57,2.575,2.575,0,0,1,.51.94h0A4.049,4.049,0,0,1,1143.61,1297.51Zm1.28,2.53c-0.14-.08-0.27-0.15-0.4-0.24-0.02-.02-0.07-0.04-0.03-0.16h0l0.28-.77a0.124,0.124,0,0,1,.19-0.06,2.321,2.321,0,0,0,.23.14,3.472,3.472,0,0,0,1.85.53,0.868,0.868,0,0,0,1.01-.76v-0.03c0-.47-0.6-0.65-1.29-0.86l-0.15-.05c-0.94-.26-1.95-0.65-1.95-1.82v-0.03a1.984,1.984,0,0,1,2.22-1.89h0.14a4.1,4.1,0,0,1,2.05.54,0.131,0.131,0,0,1,.07.16c-0.02.07-.26,0.7-0.29,0.77-0.05.13-.19,0.04-0.19,0.04a4.243,4.243,0,0,0-1.81-.45,0.786,0.786,0,0,0-.92.68v0.02c0,0.46.62,0.66,1.32,0.89l0.13,0.03c0.94,0.3,1.94.7,1.94,1.82v0.02c0,1.21-.89,1.96-2.32,1.96A4.3,4.3,0,0,1,1144.89,1300.04Zm9.29-5.73-0.15.83a0.122,0.122,0,0,1-.13.11h-1.33l-0.92,5.07a6.97,6.97,0,0,1-.35,1.34,2.452,2.452,0,0,1-.53.89,1.766,1.766,0,0,1-.74.51,3,3,0,0,1-1,.16,2.675,2.675,0,0,1-.59-0.06,2.36,2.36,0,0,1-.37-0.11,0.107,0.107,0,0,1-.06-0.15l0.3-.81a0.115,0.115,0,0,1,.15-0.07,0.951,0.951,0,0,0,.22.07,1.648,1.648,0,0,0,.32.04,1.367,1.367,0,0,0,.47-0.07,0.75,0.75,0,0,0,.37-0.28,2,2,0,0,0,.29-0.57,6.1,6.1,0,0,0,.24-0.98l0.9-4.98h-0.89c-0.11,0-.14-0.05-0.13-0.13l0.15-.82a0.143,0.143,0,0,1,.14-0.12h0.91l0.05-.27a3.219,3.219,0,0,1,.82-1.8,2.334,2.334,0,0,1,1.71-.61,4.286,4.286,0,0,1,.55.04,3.893,3.893,0,0,1,.4.1h0a0.112,0.112,0,0,1,.07.14l-0.31.83c-0.02.06-.04,0.1-0.17,0.06-0.04-.01-0.09-0.02-0.21-0.05a1.615,1.615,0,0,0-.33-0.03,1.51,1.51,0,0,0-.44.06,0.876,0.876,0,0,0-.34.21,1.1,1.1,0,0,0-.28.42,4.41,4.41,0,0,0-.21.9h1.29C1154.16,1294.18,1154.19,1294.23,1154.18,1294.31Zm5.77,4.24a2.8,2.8,0,0,1-.55,1.02,2.718,2.718,0,0,1-.91.68,3.211,3.211,0,0,1-1.28.24,3.144,3.144,0,0,1-1.28-.24,2.662,2.662,0,0,1-.92-0.68,2.857,2.857,0,0,1-.54-1.02,4.332,4.332,0,0,1-.18-1.27,4.264,4.264,0,0,1,.18-1.26,2.7,2.7,0,0,1,.54-1.02,2.565,2.565,0,0,1,.92-0.69,2.984,2.984,0,0,1,1.28-.25,3.047,3.047,0,0,1,1.28.25,2.617,2.617,0,0,1,.91.69,2.716,2.716,0,0,1,.55,1.02,4.623,4.623,0,0,1,.17,1.26A4.7,4.7,0,0,1,1159.95,1298.55Zm4.99-4.16h0c-0.04.11-.23,0.65-0.3,0.83a0.14,0.14,0,0,1-.15.11,2.418,2.418,0,0,0-.44-0.05,2.165,2.165,0,0,0-.54.07,1.219,1.219,0,0,0-.5.3,1.512,1.512,0,0,0-.36.58,3.451,3.451,0,0,0-.13,1.05v2.96a0.122,0.122,0,0,1-.12.12h-1.07a0.122,0.122,0,0,1-.12-0.12v-5.93a0.116,0.116,0,0,1,.12-0.12h1.03a0.116,0.116,0,0,1,.12.12v0.48a1.8,1.8,0,0,1,.68-0.49,1.953,1.953,0,0,1,1.04-.17,4.73,4.73,0,0,1,.68.11A0.114,0.114,0,0,1,1164.94,1294.39Zm5.06,5.8a4.853,4.853,0,0,1-1.69.3,3.043,3.043,0,0,1-2.36-.87,3.355,3.355,0,0,1-.8-2.34,4.024,4.024,0,0,1,.2-1.27,2.855,2.855,0,0,1,.58-1.02,2.812,2.812,0,0,1,.96-0.69,3.428,3.428,0,0,1,1.33-.25,5.98,5.98,0,0,1,.9.06,4.494,4.494,0,0,1,.79.2,0.109,0.109,0,0,1,.08.14c-0.11.31-.19,0.52-0.3,0.8a0.1,0.1,0,0,1-.13.08,4.144,4.144,0,0,0-1.27-.18,1.561,1.561,0,0,0-1.32.58,2.466,2.466,0,0,0-.46,1.55,2.207,2.207,0,0,0,.51,1.6,1.826,1.826,0,0,0,1.37.51,4.294,4.294,0,0,0,.65-0.05,2.428,2.428,0,0,0,.56-0.16,0.114,0.114,0,0,1,.15.08h0l0.29,0.79A0.1,0.1,0,0,1,1170,1300.19Zm5.98-2.68a0.118,0.118,0,0,1-.12.1h-4.04a1.874,1.874,0,0,0,.47,1.32,1.919,1.919,0,0,0,1.39.47,4.091,4.091,0,0,0,1.65-.29,0.125,0.125,0,0,1,.16.07l0.26,0.73a0.132,0.132,0,0,1-.03.19,4.409,4.409,0,0,1-2.04.39,4.28,4.28,0,0,1-1.47-.23,2.689,2.689,0,0,1-1.01-.66,2.774,2.774,0,0,1-.59-1.01,4.332,4.332,0,0,1-.18-1.27,4.284,4.284,0,0,1,.18-1.27,2.786,2.786,0,0,1,.54-1.04,2.851,2.851,0,0,1,.93-0.7,3.27,3.27,0,0,1,1.34-.25,3,3,0,0,1,1.16.23,2.472,2.472,0,0,1,.76.57,2.44,2.44,0,0,1,.52.94A4.247,4.247,0,0,1,1175.98,1297.51Zm-42.97,0a8.9,8.9,0,0,0-1.09-.09,1.849,1.849,0,0,0-1.18.29,0.873,0.873,0,0,0-.36.77,0.953,0.953,0,0,0,.12.52,0.876,0.876,0,0,0,.24.23h0a1.756,1.756,0,0,0,1.18.24,8.641,8.641,0,0,0,1.09-.15h0v-1.81Zm40.31-2.4a1.283,1.283,0,0,0-1.15.58,2.22,2.22,0,0,0-.33.94h2.88a1.9,1.9,0,0,0-.27-0.94A1.26,1.26,0,0,0,1173.32,1295.11Z" transform="translate(-1116 -1281)"/>
    </symbol>
    <symbol id="zendesk-integration-icon" viewBox="0 0 32 24">

        <path fill="#494949" fill-rule="evenodd" d="M1214.27,1301.52V1284h14.69Zm7.35-.84a7.343,7.343,0,0,0-7.38,7.32H1229A7.343,7.343,0,0,0,1221.62,1300.68Zm-9.89-10.2V1308h-14.69Zm-7.35.84a7.343,7.343,0,0,0,7.38-7.32H1197A7.343,7.343,0,0,0,1204.38,1291.32Z" transform="translate(-1197 -1284)"/>
    </symbol>
    <symbol id="uber-integration-icon" viewBox="0 0 28 28">

        <path fill="#494949" fill-rule="evenodd" d="M1273.45,1282h-22.91a2.537,2.537,0,0,0-2.54,2.54v22.91a2.544,2.544,0,0,0,2.54,2.54h22.91a2.544,2.544,0,0,0,2.54-2.54v-22.91A2.537,2.537,0,0,0,1273.45,1282Zm-14.64,17.81h6.37a0.63,0.63,0,0,0,.63-0.64v-6.36a0.627,0.627,0,0,0-.63-0.63h-6.37a0.627,0.627,0,0,0-.63.63v1.91h-6.28a10.174,10.174,0,1,1,0,2.55h6.28v1.9A0.63,0.63,0,0,0,1258.81,1299.81Z" transform="translate(-1248 -1282)"/>
    </symbol>



</svg>