<?xml version="1.0" encoding="utf-8"?>
<svg version="1.1" xmlns="http://www.w3.org/2000/svg" xmlns:xlink="http://www.w3.org/1999/xlink" x="0px" y="0px"
	 viewBox="0 0 500 340.8" style="enable-background:new 0 0 500 340.8;" xml:space="preserve">
<style type="text/css">
	.st0{fill:#F1563C;}
	.st1{fill:#727272;}
	.st2{fill:#231F20;}
	.st3{fill:url(#SVGID_1_);}
	.st4{fill:#E0E0E0;}
	.st5{fill:#FFFFFF;}
</style>
<g>
	<path class="st0" d="M169.7,340.8c-5.3,0-10.3-1.1-14.2-3.3L15.7,256.5c-4.1-2.4-6.3-5.8-6.3-9.6c0-4.4,3.1-8.7,8.5-11.8
		L311.3,66.3c9.6-5.5,23.7-6,32.1-1.2l139.8,80.9c4.1,2.4,6.3,5.8,6.3,9.6c0,4.4-3.1,8.7-8.5,11.8L187.6,336.3
		C182.4,339.3,175.9,340.8,169.7,340.8z M329.2,66.7c-5.4,0-11.2,1.3-15.5,3.8L20.3,239.4c-3.8,2.2-6,5-6,7.6c0,2.5,2.1,4.3,3.9,5.3
		L158,333.2c6.8,3.9,19.2,3.4,27.2-1.2l293.4-168.8c3.8-2.2,6-5,6-7.6c0-2.5-2.1-4.3-3.9-5.3L340.9,69.4
		C337.9,67.6,333.7,66.7,329.2,66.7z"/>
	<g>
		<g>
			<path class="st1" d="M152.7,298.6L7.2,214.4c-4.8-2.8-7-6.5-6.8-10.4l0,0l0-13l8.1,1.4c0.5-0.3,1.1-0.7,1.6-1L307.7,20.1
				c11.8-6.8,29.7-7.5,39.9-1.6L491,101.6c2.9-3.2,8.9-4.4,8.9-4.4l0,15.2l0,0c0.2,4.7-3.1,9.6-9.8,13.5L192.6,297
				C180.8,303.8,162.9,304.5,152.7,298.6z"/>
			<path class="st2" d="M74.8,250.2l8.4,4.8c1.1,0.6,2,0,2-1.5l0,0c0-1.5-0.9-3.2-2-3.8l-8.4-4.8c-1.1-0.6-2,0-2,1.5l0,0
				C72.8,247.8,73.7,249.5,74.8,250.2z"/>
			<linearGradient id="SVGID_1_" gradientUnits="userSpaceOnUse" x1="171.0963" y1="158.467" x2="519.0664" y2="158.467">
				<stop  offset="0" style="stop-color:#DEDEDE"/>
				<stop  offset="8.887106e-02" style="stop-color:#D7D7D7"/>
				<stop  offset="0.3781" style="stop-color:#C4C5C5"/>
				<stop  offset="0.6774" style="stop-color:#B9BABA"/>
				<stop  offset="1" style="stop-color:#B5B6B7"/>
			</linearGradient>
			<path class="st3" d="M307.7,20c11.8-6.8,29.7-7.5,39.9-1.6L491,101.5c2.9-3.2,8.9-4.3,8.9-4.3l0,15.1l0,0
				c0.2,4.7-3.1,9.6-9.8,13.5L192.6,296.9c-6.2,3.5-14,5.4-21.5,5.6l0.3-204.1L307.7,20z"/>
			<path class="st4" d="M493.1,88.2L347.6,4c-10.2-5.9-28.1-5.2-39.9,1.6L10.2,176.9c-11.8,6.8-13.1,17.1-2.9,23l145.5,84.2
				c10.2,5.9,28.1,5.2,39.9-1.6l297.6-171.3C502,104.5,503.3,94.2,493.1,88.2z"/>
			<path class="st5" d="M152.6,286.4L7.2,202.1c-5.3-3.1-7.5-7.3-6.7-11.6c0.3,3.5,2.5,6.8,6.8,9.3l145.5,84.2
				c10.2,5.9,28.1,5.2,39.9-1.6l297.6-171.3c5.7-3.3,9-7.4,9.6-11.4c0.3,4.7-2.9,9.8-9.7,13.7L192.5,284.8
				C180.7,291.6,162.9,292.3,152.6,286.4z"/>
			<path class="st5" d="M481.9,91.6L342.1,10.6c-7.6-4.4-20.9-3.9-29.6,1.2L19.1,180.6c-8.8,5.1-9.7,12.7-2.2,17.1l139.8,80.9
				c7.6,4.4,20.9,3.9,29.6-1.2l293.4-168.8C488.5,103.6,489.5,96,481.9,91.6z"/>
		</g>
	</g>
</g>
</svg>
