<svg xmlns="http://www.w3.org/2000/svg" xmlns:xlink="http://www.w3.org/1999/xlink" width="16" height="16">
    <defs>
        <path id="bpa1" d="M0 .074h15.729v15.721H0z"/>
    </defs>
    <g fill="none" fill-rule="evenodd">
        <path fill="#F1563C"
              d="M7.869 9.778a1.714 1.714 0 01-1.713-1.713c0-.943.768-1.713 1.713-1.713a1.714 1.714 0 010 3.426m0-4.291a2.583 2.583 0 00-2.587 2.578 2.583 2.583 0 005.165 0 2.582 2.582 0 00-2.578-2.578"/>
        <mask id="bpa" fill="#ffffff">
            <use xlink:href="#bpa1"/>
        </mask>
        <path fill="#F1563C"
              d="M5.79 12.34c.23 0 .371.103.45.19a.532.532 0 01.13.272l.324 2.07c0 .005.01.006.015.006l.031.006a5.7 5.7 0 001.12.088c.346 0 .75-.01 1.126-.088l.033-.006.339-2.077a.53.53 0 01.148-.29.592.592 0 01.141-.105.529.529 0 01.592.018l1.697 1.224.017.013a.04.04 0 00.028-.004 7.314 7.314 0 001.607-1.624c.002-.003.002-.02-.009-.035l-1.222-1.684a.529.529 0 01-.044-.548l.035-.067a.526.526 0 01.378-.265l2.061-.332a.042.042 0 00.027-.033c.06-.38.092-.764.092-1.135 0-.367-.03-.749-.092-1.134-.004-.016-.015-.03-.02-.032l-2.067-.33a.528.528 0 01-.39-.288l-.012-.023a.534.534 0 01.032-.57l1.226-1.69a.04.04 0 00.005-.03 6.841 6.841 0 00-1.616-1.614l-.022-.014-1.71 1.238a.534.534 0 01-.508.062.533.533 0 01-.374-.424L9.022.99a7.169 7.169 0 00-2.302 0c-.019.004-.024.011-.027.027L6.37 3.083a.528.528 0 01-.375.426.526.526 0 01-.505-.062L3.793 2.22l-.017-.013-.02.014c-.637.456-1.18 1-1.614 1.615l-.014.019.019.01 1.223 1.69a.534.534 0 01.07.49.53.53 0 01-.43.391l-2.07.33c-.01.003-.022.016-.025.035a6.74 6.74 0 00-.092 1.132c0 .394.031.777.092 1.138a.053.053 0 00.018.029l2.078.332a.53.53 0 01.428.391.527.527 0 01-.069.49l-1.236 1.713a7.463 7.463 0 001.613 1.63c.02.011.031.002.038-.003l1.698-1.216a.53.53 0 01.308-.099zm2.07 3.455c-.379 0-.827-.013-1.28-.103-.44-.07-.787-.41-.865-.852l-.195-1.248-1.011.724c-.355.267-.837.28-1.218.026l-.021-.015a8.282 8.282 0 01-1.799-1.816c-.268-.348-.266-.862.015-1.235l.723-.998-1.23-.198c-.43-.057-.795-.414-.874-.867A7.613 7.613 0 010 7.934c0-.44.035-.87.104-1.274.081-.46.436-.81.884-.873l1.221-.195-.729-1.007a1.03 1.03 0 01-.006-1.23 7.687 7.687 0 011.802-1.802 1.032 1.032 0 011.242.006l1.004.725.192-1.23c.077-.465.433-.817.887-.878a7.9 7.9 0 012.54.002c.448.06.803.417.867.886l.196 1.223 1.007-.728c.365-.28.877-.28 1.25 0a7.721 7.721 0 011.8 1.803c.253.349.251.853-.01 1.22L13.52 5.59l1.232.197c.432.062.795.42.873.87l.002.007c.068.43.103.856.103 1.27 0 .414-.035.841-.103 1.27-.08.46-.445.818-.888.877l-1.219.197.73 1.004c.266.376.269.868.009 1.229a8.13 8.13 0 01-1.8 1.816l-.02.014c-.38.253-.871.24-1.227-.032l-1.005-.725-.2 1.248a1.02 1.02 0 01-.86.859c-.45.09-.902.103-1.286.103z"
              mask="url(#bpa)"/>
    </g>
</svg>