<svg xmlns="http://www.w3.org/2000/svg" xmlns:xlink="http://www.w3.org/1999/xlink" width="18" height="16">
    <defs>
        <path id="cha2" d="M0 0h17.362v16H0z"/>
    </defs>
    <g fill="none" fill-rule="evenodd">
        <mask id="chb2" fill="#ffffff">
            <use xlink:href="#cha2"/>
        </mask>
        <path fill="#f1563c"
              d="M13.128 4.982a.835.835 0 00.847-.823.836.836 0 00-.847-.824.837.837 0 00-.848.824c0 .454.38.823.848.823zm-8.903 0a.835.835 0 00.847-.823.836.836 0 00-.847-.824.836.836 0 00-.847.824c0 .454.38.823.847.823zm12.115 7.103h-4.642l-.218.114-4.16 2.17v-2.284h-6.3V1.021h15.32v11.064zM16.407 0H.955A.941.941 0 000 .928v11.25c0 .513.427.928.955.928h5.343V16l5.608-2.894h4.501c.527 0 .955-.415.955-.927V.928A.942.942 0 0016.407 0z"
              mask="url(#chb2)"/>
    </g>
</svg>