<svg class="svg" xmlns="http://www.w3.org/2000/svg" xmlns:xlink="http://www.w3.org/1999/xlink"
     width="12" height="18"
     viewBox="0 0 12 18">
    <defs>
        <path id="moba3" d="M0 0h10.957v18H0z"/>
    </defs>
    <g fill="none" fill-rule="evenodd">
        <mask id="mobb3" fill="#ffffff">
            <use xlink:href="#moba3"/>
        </mask>
        <path fill="#f1563c"
              d="M10.08 0H.877A.876.876 0 000 .876v16.248c0 .484.392.876.876.876h9.205a.876.876 0 00.876-.876V.876A.876.876 0 0010.081 0zM.94 17.06h9.077V.94H.94v16.12z"
              mask="url(#mobb3"/>
        <path fill="#f1563c"
              d="M6.26 15.652a.783.783 0 11-1.567 0 .783.783 0 011.568 0M6.38 2.66H4.576a.35.35 0 01-.35-.349v-.083a.35.35 0 01.35-.35H6.38a.35.35 0 01.35.35v.083a.35.35 0 01-.35.35"/>
    </g>
</svg>