<svg width="18px" height="18px" viewBox="0 0 18 18" version="1.1" xmlns="http://www.w3.org/2000/svg" xmlns:xlink="http://www.w3.org/1999/xlink">
    <defs>
        <polygon id="path-1dez" points="1.66666667e-05 -0.000154285714 18 -0.000154285714 18 18 1.66666667e-05 18"></polygon>
        <polygon id="path-3dez" points="0 18.0001714 18 18.0001714 18 0 0 0"></polygon>
    </defs>
    <g id="Design-IconM" stroke="none" stroke-width="1" fill="none" fill-rule="evenodd">
        <g id="Group-13dez">
            <g id="Group-3dez" transform="translate(0.000000, 0.000171)">
                <mask id="mask-2dez" fill="white">
                    <use xlink:href="#path-1dez"></use>
                </mask>
                <g id="Clip-2dez"></g>
                <path d="M17.0000167,5.31413143 L17.0000167,10.1141314 L17.0000167,12.4057886 C17.0000167,12.4656171 16.9526833,12.5141314 16.8946833,12.5141314 L1.10535,12.5141314 C1.04735,12.5141314 1.00001667,12.4656171 1.00001667,12.4057886 L1.00001667,10.1141314 L1.00001667,5.31413143 L1.00001667,3.02247429 C1.00001667,2.96264571 1.04735,2.91413143 1.10535,2.91413143 L16.8946833,2.91413143 C16.9526833,2.91413143 17.0000167,2.96264571 17.0000167,3.02247429 L17.0000167,5.31413143 Z M16.8946833,1.88556 L9.50001667,1.88556 L9.50001667,0.514131429 C9.50001667,0.230074286 9.27618333,-0.000154285714 9.00001667,-0.000154285714 C8.72385,-0.000154285714 8.50001667,0.230074286 8.50001667,0.514131429 L8.50001667,1.88556 L1.10535,1.88556 C0.49485,1.88556 1.66666667e-05,2.39453143 1.66666667e-05,3.02247429 L1.66666667e-05,5.31413143 L1.66666667e-05,10.1141314 L1.66666667e-05,12.4057886 C1.66666667e-05,13.03356 0.49485,13.5427029 1.10535,13.5427029 L5.31735,13.5427029 L4.51135,17.3768743 C4.45301667,17.6544171 4.62451667,17.9281886 4.89435,17.98836 C5.16401667,18.0478457 5.43051667,17.87196 5.48868333,17.5942457 L6.34035,13.5427029 L11.6596833,13.5427029 L12.51135,17.5942457 C12.5620167,17.8352743 12.7691833,18.0000171 12.9995167,18.0000171 C13.0345167,18.0000171 13.0700167,17.9962457 13.1056833,17.98836 C13.3755167,17.9281886 13.5470167,17.6544171 13.4886833,17.3768743 L12.6826833,13.5427029 L16.8946833,13.5427029 C17.5051833,13.5427029 18.0000167,13.03356 18.0000167,12.4057886 L18.0000167,10.1141314 L18.0000167,5.31413143 L18.0000167,3.02247429 C18.0000167,2.39453143 17.5051833,1.88556 16.8946833,1.88556 L16.8946833,1.88556 Z" id="Fill-1d" fill="#f1563c" mask="url(#mask-2dez)"></path>
            </g>
            <path d="M10.5800167,4.99856571 L7.29151667,8.38085143 C7.26435,8.40896571 7.26435,8.45405143 7.29151667,8.48182286 L7.84785,9.05405143 C7.87501667,9.08199429 7.91885,9.08199429 7.94601667,9.05405143 L11.2345167,5.67176571 C11.4151833,5.48576571 11.4151833,5.18439429 11.2345167,4.99856571 C11.0536833,4.81256571 10.7606833,4.81256571 10.5800167,4.99856571" id="Fill-4" fill="#f1563c"></path>
            <polygon id="Fill-6dez" fill="#f1563c" points="6.26083333 10.6352743 8.06083333 9.7826808 7.11354111 8.83527429"></polygon>
            <mask id="mask-4dez" fill="white">
                <use xlink:href="#path-3dez"></use>
            </mask>
            <g id="Clip-9dez"></g>
            <path d="M17.0000167,5.31430286 L17.0000167,10.1143029 L17.0000167,12.40596 C17.0000167,12.4657886 16.9526833,12.5143029 16.8946833,12.5143029 L1.10535,12.5143029 C1.04735,12.5143029 1.00001667,12.4657886 1.00001667,12.40596 L1.00001667,10.1143029 L1.00001667,5.31430286 L1.00001667,3.02264571 C1.00001667,2.96281714 1.04735,2.91430286 1.10535,2.91430286 L16.8946833,2.91430286 C16.9526833,2.91430286 17.0000167,2.96281714 17.0000167,3.02264571 L17.0000167,5.31430286 Z M16.8946833,1.88573143 L9.50001667,1.88573143 L9.50001667,0.514302857 C9.50001667,0.230245714 9.27618333,1.71428571e-05 9.00001667,1.71428571e-05 C8.72385,1.71428571e-05 8.50001667,0.230245714 8.50001667,0.514302857 L8.50001667,1.88573143 L1.10535,1.88573143 C0.49485,1.88573143 1.66666667e-05,2.39470286 1.66666667e-05,3.02264571 L1.66666667e-05,5.31430286 L1.66666667e-05,10.1143029 L1.66666667e-05,12.40596 C1.66666667e-05,13.0337314 0.49485,13.5428743 1.10535,13.5428743 L5.31735,13.5428743 L4.51135,17.3770457 C4.45301667,17.6545886 4.62451667,17.92836 4.89435,17.9885314 C5.16401667,18.0480171 5.43051667,17.8721314 5.48868333,17.5944171 L6.34035,13.5428743 L11.6596833,13.5428743 L12.51135,17.5944171 C12.5620167,17.8354457 12.7691833,18.0001886 12.9995167,18.0001886 C13.0345167,18.0001886 13.0700167,17.9964171 13.1056833,17.9885314 C13.3755167,17.92836 13.5470167,17.6545886 13.4886833,17.3770457 L12.6826833,13.5428743 L16.8946833,13.5428743 C17.5051833,13.5428743 18.0000167,13.0337314 18.0000167,12.40596 L18.0000167,10.1143029 L18.0000167,5.31430286 L18.0000167,3.02264571 C18.0000167,2.39470286 17.5051833,1.88573143 16.8946833,1.88573143 L16.8946833,1.88573143 Z" id="Fill-1d0" fill="#f1563c" mask="url(#mask-4dez)"></path>
            <path d="M10.5800167,4.99856571 L7.29151667,8.38085143 C7.26435,8.40896571 7.26435,8.45405143 7.29151667,8.48182286 L7.84785,9.05405143 C7.87501667,9.08199429 7.91885,9.08199429 7.94601667,9.05405143 L11.2345167,5.67176571 C11.4151833,5.48576571 11.4151833,5.18439429 11.2345167,4.99856571 C11.0536833,4.81256571 10.7606833,4.81256571 10.5800167,4.99856571" id="Fill-1d1" fill="#f1563c" mask="url(#mask-4dez)"></path>
            <polygon id="Fill-1d2d" fill="#f1563c" mask="url(#mask-4dez)" points="6.26083333 10.6352743 8.06083333 9.7826808 7.11354111 8.83527429"></polygon>
        </g>
    </g>
</svg>