<svg version="1.1" id="Layer_1" xmlns="http://www.w3.org/2000/svg" xmlns:xlink="http://www.w3.org/1999/xlink" x="0" y="0" viewBox="0 0 165 109" xml:space="preserve"><style>.st37{fill:#ff9200}</style><defs><path id="SVGID_3_" d="M99.8 27.7l-16.3-9.4c-1.1-.6-2.4-.6-3.4 0l-16.3 9.4c-1.1.6-1.7 1.7-1.7 3v18.8c0 1.2.6 2.3 1.7 2.9l8.1 4.7v9.6c0 .6.5 1 1 1 .2 0 .4 0 .5-.1l26.3-15.2c1.1-.6 1.7-1.7 1.7-2.9V30.6c.1-1.2-.6-2.3-1.6-2.9z"/></defs><clipPath id="SVGID_2_"><use xlink:href="#SVGID_3_" overflow="visible"/></clipPath><g clip-path="url(#SVGID_2_)"><path d="M101.5 28.7L81.8 40 62.1 28.7v22.7l9.8 5.7v11.4l29.5-17V28.7z" fill="#f96200"/><path class="st37" d="M81.8 40L62.1 28.7l19.7-11.4 19.7 11.4L81.8 40z"/><path class="st37" d="M81.5 39.7L62.3 28.6l-.1.1L81.8 40l19.7-11.4-.5-.3-19.5 11.4z"/><path class="st37" d="M81.8 40.2V40L62.3 28.7l-.1.1 19.6 11.4z"/></g><path d="M117 86.8h-1.6l-2-6.2-2 6.2h-1.5l-2.6-8.1h1.6l1.8 6.1 2-6.1h1.6l2 6.1 1.8-6.1h1.6l-2.7 8.1zm-17.1-7.2c.8-.8 1.8-1.2 3-1.2s2.2.4 3 1.2c.8.8 1.2 1.8 1.2 3.1s-.4 2.3-1.2 3.1c-.8.8-1.8 1.2-3 1.2s-2.2-.4-3-1.2c-.8-.8-1.2-1.8-1.2-3.1s.4-2.3 1.2-3.1zm1.1 5.2c1 1 2.6 1.1 3.6.1l.1-.1c.5-.5.8-1.2.8-2.1 0-.9-.3-1.6-.8-2.1-1-1-2.6-1.1-3.6-.1l-.1.1c-.5.5-.8 1.2-.8 2.1 0 .9.3 1.6.8 2.1zm-3.4 2H96V74.9h1.5l.1 11.9zm-3.9-12c.4 0 .8.1 1.2.2l-.5 1.3c-.2-.1-.5-.1-.7-.1-.4 0-.7.1-1 .4-.3.2-.4.6-.4 1v1h2.1V80h-2.1v6.7h-1.5V80h-1.5v-1.4h1.5v-1.1c0-.8.3-1.5.8-2 .5-.4 1.2-.7 2.1-.7zm-9.8 15.8c-1 0-1.7-.2-2.3-.7-.6-.4-1-1-1.3-1.6l1.4-.6c.2.5.5.8.9 1.1.4.3.9.4 1.4.4.8 0 1.5-.3 2-.8s.7-1.2.7-2v-.8h-.1c-.3.4-.7.8-1.1 1-.5.3-1.1.4-1.6.4-1 0-2-.4-2.7-1.2s-1.1-1.9-1.1-3.1c0-1.2.4-2.3 1.1-3.1.8-.8 1.7-1.2 2.7-1.2.6 0 1.1.1 1.6.4.5.2.8.6 1.1 1h.1v-1.1h1.5v7.7c0 1.4-.4 2.4-1.2 3.2-.9.6-2 1-3.1 1zm.1-5c.7 0 1.4-.3 1.8-.8.5-.5.8-1.2.8-2.1 0-.9-.3-1.6-.8-2.1-.9-1-2.5-1.1-3.5-.1l-.1.1c-.5.5-.8 1.2-.8 2.1 0 .9.3 1.6.8 2.1s1.2.8 1.8.8zm-12.3-6c.8-.8 1.8-1.2 3-1.2s2.2.4 3 1.2c.8.8 1.2 1.8 1.2 3.1 0 1.2-.4 2.3-1.2 3.1-.8.8-1.8 1.2-3 1.2s-2.2-.4-3-1.2c-.8-.8-1.2-1.8-1.2-3.1s.4-2.3 1.2-3.1zm1.1 5.2c1 1 2.6 1.1 3.6.1l.1-.1c.5-.5.8-1.2.8-2.1 0-.9-.3-1.6-.8-2.1-1-1-2.6-1.1-3.6-.1l-.1.1c-.5.5-.8 1.2-.8 2.1 0 .9.3 1.6.8 2.1zm-3.6 1.9h-1.5V74.9h1.5v11.8zm-7 .3c-.8 0-1.6-.2-2.2-.7-.6-.5-.9-1.2-.9-2s.4-1.6 1-2.1c.7-.5 1.5-.8 2.5-.8.9 0 1.6.2 2.2.5v-.2c0-.5-.2-1.1-.6-1.4-.4-.4-1-.6-1.5-.5-.4 0-.8.1-1.2.3-.3.2-.6.5-.7.9l-1.4-.6c.2-.5.6-.9 1.1-1.3.6-.4 1.3-.6 2.2-.6 1 0 1.9.3 2.6.9.7.6 1 1.5 1 2.6v4.9H65v-1.1h-.1c-.6.7-1.5 1.2-2.7 1.2zm.3-1.4c.6 0 1.3-.3 1.7-.7.5-.4.8-1 .8-1.7-.4-.4-1.1-.5-1.9-.5-.7 0-1.3.2-1.7.5-.3.3-.6.7-.6 1.1 0 .4.2.7.5.9.3.3.8.4 1.2.4zm-4.7-9c-.4.4-1.1.4-1.5 0-.4-.4-.4-1.1 0-1.5.4-.4 1.1-.4 1.5 0 .2.2.3.5.3.8 0 .2-.1.5-.3.7zm0 10.1h-1.5v-8.1h1.5v8.1zm-12.4 0V74.9H49c1.8 0 3.3.5 4.4 1.6 1.1 1.1 1.6 2.5 1.6 4.3 0 1.8-.5 3.2-1.6 4.3s-2.5 1.6-4.4 1.6h-3.6zm1.5-1.4H49c1.4 0 2.5-.4 3.3-1.2.8-.8 1.2-1.9 1.2-3.3s-.4-2.5-1.2-3.3-1.9-1.2-3.3-1.2h-2.1v9z" fill="#4c4c4c"/></svg>