<svg version="1.1" id="Layer_1" xmlns="http://www.w3.org/2000/svg" x="0" y="0" viewBox="0 0 165 109" xml:space="preserve"><style>.st26{fill:#4c4c4c}</style><path class="st26" d="M76.7 86.7c-.5 0-.9-.1-1.3-.2s-.8-.3-1.2-.6c-.4-.3-.7-.6-1-1-.3-.4-.5-.8-.6-1.4l1.7-.7c.1.3.2.6.3.8.1.3.3.5.5.7.2.2.4.3.7.5.3.1.5.2.9.2.3 0 .5 0 .8-.1.2-.1.5-.2.6-.3.2-.1.3-.3.4-.5.1-.2.2-.4.2-.7 0-.2 0-.4-.1-.6-.1-.2-.2-.4-.4-.5-.2-.2-.4-.3-.7-.5-.3-.1-.7-.3-1.1-.4l-.7-.3c-.3-.1-.6-.2-.9-.4l-.9-.6c-.3-.2-.5-.5-.6-.9-.2-.3-.2-.7-.2-1.2 0-.4.1-.8.3-1.2.2-.4.4-.7.7-1 .3-.3.7-.5 1.1-.7.4-.2.9-.2 1.5-.2s1 .1 1.5.2c.4.2.8.3 1.1.6.3.2.5.5.7.8.2.3.3.5.4.8l-1.6.7c-.1-.2-.1-.3-.2-.5s-.2-.3-.4-.4c-.2-.1-.3-.2-.6-.3-.2-.1-.5-.1-.8-.1-.3 0-.5 0-.7.1l-.6.3c-.2.1-.3.3-.4.4-.1.2-.1.4-.1.6 0 .4.2.7.5 1 .3.2.8.5 1.5.7l.7.3c.4.1.9.3 1.2.5.4.2.7.4 1 .7.3.3.5.6.6 1 .2.4.2.8.2 1.3 0 .6-.1 1.1-.4 1.5-.2.4-.5.8-.9 1-.4.3-.8.5-1.2.6h-1.5zM86.9 85.4c-.3.4-.7.7-1.1.9-.4.2-.9.4-1.5.4-1 0-1.7-.3-2.2-.9-.5-.6-.7-1.4-.7-2.3v-4.8h1.8v4.6c0 .7.2 1.2.5 1.4.3.3.7.4 1.2.4.3 0 .6-.1.8-.2.2-.1.4-.3.6-.5.2-.2.3-.5.4-.7.1-.3.1-.6.1-.9v-4.1h1.8v7.8h-1.7v-1.1zM91 77.3c-.3 0-.6-.1-.9-.4-.2-.2-.3-.5-.3-.8 0-.3.1-.6.3-.8.2-.2.5-.4.9-.4.3 0 .6.1.8.4.2.2.3.5.3.8 0 .3-.1.6-.3.8-.2.3-.5.4-.8.4zm-.9 9.2v-7.8h1.8v7.8h-1.8zM94.2 80.2h-1.4v-1.6h1.4v-2.4H96v2.4h1.9v1.6H96v3.6c0 .2 0 .4.1.5 0 .2.1.3.2.4.2.2.4.3.7.3h.4c.1 0 .2-.1.3-.1l.5 1.6c-.2.1-.5.2-.7.2-.2 0-.5.1-.8.1-.4 0-.7-.1-1-.2-.3-.1-.5-.3-.7-.5-.5-.5-.7-1.1-.7-1.9v-4zM106.1 84.6c-.3.6-.8 1.1-1.4 1.5-.6.4-1.3.6-2.2.6-.6 0-1.1-.1-1.6-.3-.5-.2-.9-.5-1.3-.9s-.6-.8-.8-1.3c-.2-.5-.3-1.1-.3-1.7 0-.6.1-1.1.3-1.6.2-.5.5-.9.8-1.3.3-.4.8-.7 1.2-.9.5-.2 1-.3 1.6-.3.6 0 1.1.1 1.6.3.5.2.9.5 1.2.8.3.4.6.8.8 1.3.2.5.3 1.1.3 1.7V82.8h-6c0 .4.1.7.3 1 .1.3.3.5.5.7.2.2.5.3.7.4.3.1.5.1.8.1.5 0 .9-.1 1.3-.4.3-.2.6-.5.8-.9l1.4.9zm-1.6-3c0-.2-.1-.3-.2-.5s-.2-.4-.4-.5c-.2-.2-.4-.3-.6-.4-.3-.1-.6-.2-.9-.2-.5 0-.9.2-1.3.5s-.6.7-.7 1.2h4.1z"/><g><path d="M104.5 41.4c0-1.9-.2-3.2-.5-4.6H82.8v8.4h12.4c-.3 2.1-1.6 5.2-4.6 7.3v.3l6.7 5.2h.5c4.2-4 6.7-9.8 6.7-16.6" fill="#3d81fb"/><path d="M82.8 63.4c6.1 0 11.2-2 14.9-5.5l-7.1-5.5c-1.9 1.3-4.5 2.3-7.8 2.3-6 0-11-3.9-12.8-9.4h-.3l-7 5.4v.3c3.7 7.3 11.3 12.4 20.1 12.4" fill="#00ac47"/><path d="M70 45.3c-.5-1.4-.8-2.9-.8-4.5s.3-3.1.7-4.5V36l-7-5.5-.2.1c-1.5 3.1-2.4 6.5-2.4 10.1 0 3.6.9 7.1 2.4 10.1l7.3-5.5" fill="#ffba00"/><path d="M82.8 27c4.2 0 7.1 1.8 8.7 3.4l6.4-6.2c-3.9-3.6-9-5.9-15.1-5.9-8.8 0-16.4 5.1-20.1 12.4l7.3 5.7C71.8 31 76.9 27 82.8 27" fill="#f7292a"/></g><g><path class="st26" d="M64.5 79.8V82h3.2c-.1.5-.4 1.3-1.2 1.9-.5.3-1.1.6-2 .6-1.5 0-2.8-1-3.3-2.4-.1-.4-.2-.7-.2-1.1 0-.4.1-.8.2-1.1.5-1.4 1.8-2.4 3.3-2.4 1.1 0 1.8.5 2.2.9l1.6-1.6c-1-.9-2.3-1.5-3.9-1.5-2.3 0-4.2 1.3-5.1 3.2-.4.8-.6 1.7-.6 2.6s.2 1.8.6 2.6c.9 1.9 2.9 3.2 5.1 3.2 1.6 0 2.9-.5 3.8-1.4 1.1-1 1.7-2.5 1.7-4.2 0-.5 0-.8-.1-1.2h-5.3z"/></g></svg>