<svg width="79" height="47" viewBox="0 0 79 47" fill="none" xmlns="http://www.w3.org/2000/svg">
<g clip-path="url(#clip0_3389_21745)">
<path d="M58.8401 22.9605C59.7701 23.4699 60.7805 23.8163 61.8275 23.9847C63.1407 24.2997 64.4891 24.4431 65.8392 24.4115C67.0774 24.4258 68.3106 24.2532 69.4973 23.8994C70.5354 23.5725 71.515 23.0827 72.3994 22.4483C73.2024 21.8433 73.8467 21.0524 74.2771 20.1437C74.7291 19.1912 74.9624 18.1497 74.96 17.0953C74.9468 15.7783 74.5203 14.4988 73.7406 13.4373C72.9724 12.413 71.6068 11.5595 69.729 10.962L66.0709 9.74261C65.0096 9.4754 64.0193 8.98026 63.1688 8.29159C62.8915 8.00325 62.6803 7.65797 62.5498 7.27978C62.4194 6.90158 62.3729 6.49953 62.4135 6.10154C62.4541 5.70355 62.5809 5.31915 62.785 4.9751C62.9891 4.63104 63.2657 4.33556 63.5956 4.10918C64.6699 3.53785 65.8803 3.27213 67.0951 3.34098C68.8278 3.31699 70.5454 3.66633 72.1311 4.36525C72.453 4.53082 72.7985 4.64596 73.1554 4.70667C73.5821 4.70667 73.765 4.45061 73.765 3.85312V2.82885C73.7852 2.52278 73.6942 2.21972 73.5089 1.9753C73.3161 1.6852 73.0515 1.44996 72.7408 1.29246C72.3993 1.08513 72.0235 0.940585 71.6312 0.865679C71.2044 0.694969 70.6922 0.609625 70.1801 0.438915C69.6193 0.305677 69.0482 0.220009 68.473 0.182842C67.8866 0.0416145 67.2831 -0.0158587 66.6806 0.0121321C65.5857 0.0167679 64.4958 0.160177 63.4371 0.438915C62.4562 0.737082 61.5327 1.1988 60.7057 1.80459C59.9497 2.38999 59.3124 3.11423 58.8279 3.93847C58.3332 4.82286 58.0966 5.82835 58.145 6.84055C58.1383 8.20063 58.5892 9.52344 59.4254 10.5962C60.2789 11.8155 61.6446 12.6447 63.6078 13.2422L67.3634 14.4615C68.3354 14.7158 69.239 15.1822 70.0094 15.8272C70.2414 16.0622 70.422 16.3429 70.5396 16.6515C70.6571 16.9601 70.7091 17.2899 70.6922 17.6197C70.7067 18.1167 70.5877 18.6085 70.3475 19.0439C70.1073 19.4792 69.7547 19.8422 69.3265 20.095C68.3876 20.7046 67.1927 20.9485 65.4856 20.9485C64.4593 20.9596 63.4356 20.845 62.4372 20.6071C61.4325 20.4239 60.4567 20.1082 59.5351 19.6682C59.3024 19.597 59.0744 19.5115 58.8523 19.4121C58.691 19.3427 58.5153 19.3134 58.3401 19.3268C57.9134 19.3268 57.7305 19.5828 57.7305 20.1803V21.4606C57.7464 21.7241 57.804 21.9834 57.9012 22.2288C58.1552 22.5495 58.4754 22.8116 58.8401 22.997V22.9605Z" fill="#252F3E"/>
<path d="M14.7115 10.3279C13.808 10.1887 12.8939 10.1316 11.9801 10.1572C9.3341 10.1572 7.20023 10.8401 5.57848 12.2057C4.14798 13.5295 3.29322 15.3612 3.19748 17.3079C3.10174 19.2546 3.77267 21.1613 5.06637 22.6191C6.3467 23.8994 8.05378 24.4969 10.273 24.4969C11.7412 24.5193 13.1954 24.2084 14.5261 23.5874C15.8567 22.9664 17.0291 22.0517 17.955 20.912C18.1764 21.4407 18.4331 21.9539 18.7232 22.4484C18.9863 22.8909 19.3015 23.3002 19.6621 23.6677C19.7594 23.7748 19.878 23.8605 20.0102 23.9193C20.1425 23.978 20.2855 24.0087 20.4303 24.0091C20.6769 23.9876 20.913 23.899 21.1131 23.7531L22.7349 22.6434C22.8741 22.564 22.9929 22.4533 23.0818 22.3199C23.1707 22.1866 23.2272 22.0343 23.247 21.8753C23.2202 21.6648 23.1627 21.4594 23.0763 21.2656C22.7375 20.6658 22.4519 20.0374 22.2227 19.3878C22.0336 18.6347 21.9475 17.8594 21.9667 17.0832V8.54766C21.9667 5.73094 21.2838 3.59706 19.8328 2.14603C18.3817 0.694991 16.1747 0.0121507 13.0044 0.0121507C11.6222 0.00350858 10.2449 0.175677 8.90734 0.524279C7.7853 0.812374 6.69779 1.22121 5.66384 1.74364C5.39307 1.84758 5.15661 2.02492 4.98101 2.25577C4.8103 2.42648 4.81028 2.7679 4.81028 3.19468V4.47501C4.81028 4.98714 4.981 5.32855 5.32242 5.32855C5.46944 5.33439 5.61574 5.30514 5.74921 5.24321C5.91992 5.15785 6.26133 5.07248 6.6881 4.90177C7.60165 4.53947 8.54382 4.25396 9.50482 4.04822C10.4242 3.80873 11.3716 3.6939 12.3215 3.70681C14.3701 3.70681 15.7357 4.13358 16.5893 4.92616C17.4428 5.71875 17.8086 7.14541 17.8086 9.10857V10.9864C16.699 10.7303 15.7601 10.5596 14.7602 10.3767L14.7115 10.3279ZM17.6989 14.9371C17.7134 15.685 17.6273 16.4314 17.4429 17.1563C17.2983 17.7597 17.0048 18.3173 16.5893 18.7781C15.9372 19.5454 15.0778 20.1084 14.114 20.3998C13.2399 20.7267 12.3158 20.8999 11.3826 20.912C10.8881 20.9708 10.3866 20.9166 9.91604 20.7536C9.44545 20.5906 9.01797 20.3229 8.6658 19.9707C8.31363 19.6186 8.04594 19.1911 7.8829 18.7205C7.71986 18.2499 7.66574 17.7484 7.72456 17.2539C7.69332 16.6909 7.79261 16.1284 8.0147 15.6102C8.2368 15.0919 8.57567 14.6321 9.00487 14.2665C9.85842 13.5836 11.1387 13.2422 12.8458 13.2422C13.614 13.2422 14.4676 13.3276 15.3211 13.4129C16.1258 13.5063 16.9239 13.6488 17.7111 13.8397V14.9493L17.6989 14.9371Z" fill="#252F3E"/>
<path d="M30.8436 22.5337C30.9414 22.907 31.1158 23.2558 31.3557 23.558C31.6541 23.7662 32.0187 23.8574 32.38 23.8141H34.5992C34.9605 23.8574 35.3251 23.7662 35.6235 23.558C35.8634 23.2558 36.0378 22.907 36.1356 22.5337L40.1473 5.74926L44.2443 22.5642C44.2561 22.7607 44.3075 22.9527 44.3955 23.1288C44.4836 23.3048 44.6063 23.4612 44.7565 23.5885C45.0603 23.7844 45.4204 23.8744 45.7807 23.8445H48C48.3591 23.8617 48.7154 23.7727 49.0242 23.5885C49.2964 23.308 49.4753 22.9502 49.5364 22.5642L55.8526 2.44479C55.9279 2.24717 55.9851 2.0431 56.0233 1.83511C56.0233 1.6644 56.1087 1.57905 56.1087 1.40834C56.1087 0.981568 55.938 0.798664 55.499 0.798664H53.1091C52.7478 0.755341 52.3832 0.846478 52.0848 1.05472C51.8449 1.3569 51.6705 1.70573 51.5727 2.07899L47.0489 19.5768L42.8665 1.99363C42.8547 1.79717 42.8033 1.60513 42.7152 1.42909C42.6272 1.25305 42.5044 1.09666 42.3543 0.969374C42.0505 0.773452 41.6904 0.683422 41.3301 0.7133H39.1962C38.8349 0.669977 38.4703 0.761133 38.1719 0.969374C37.932 1.27156 37.7576 1.62037 37.6598 1.99363L33.5628 19.2354L29.2096 1.99363C29.1119 1.62037 28.9374 1.27156 28.6975 0.969374C28.3991 0.761133 28.0345 0.669977 27.6732 0.7133H25.1126C24.6858 0.7133 24.5029 0.88401 24.5029 1.32298C24.5447 1.67383 24.6308 2.018 24.759 2.34725L30.8192 22.5764L30.8436 22.5337Z" fill="#252F3E"/>
<path d="M69.5096 35.1663C58.5755 39.795 46.7151 41.8189 34.8647 41.0782C23.0144 40.3376 11.4983 36.8527 1.22556 30.8985C0.286649 30.2889 -0.481524 31.3253 0.372027 32.1179C11.0014 41.6909 24.8187 46.9561 39.1232 46.8843C49.7926 46.8843 62.2545 43.5555 70.8753 37.1295C72.1557 36.1052 70.9607 34.5688 69.5096 35.1663Z" fill="#FF9900"/>
<path d="M64.1323 31.5813C63.3641 32.0935 63.5226 32.8617 64.303 32.8007C67.0343 32.4593 73.2652 31.6911 74.2895 33.1421C75.3138 34.5931 73.0701 40.3119 72.0703 42.9579C71.7288 43.7261 72.4117 44.0676 73.1799 43.4701C77.7891 39.6291 78.984 31.5204 78.0573 30.4108C77.1184 29.1304 69.0097 28.1915 64.1444 31.6301L64.1323 31.5813Z" fill="#FF9900"/>
</g>
<defs>
<clipPath id="clip0_3389_21745">
<rect width="78.3377" height="46.8599" fill="white"/>
</clipPath>
</defs>
</svg>
