<svg width="362" height="348" viewBox="0 0 362 348" fill="none" xmlns="http://www.w3.org/2000/svg">
<g clip-path="url(#clip0_3464_21544)">
<rect width="362" height="348" fill="white"/>
<rect width="362" height="364.896" fill="#111447"/>
<path d="M116.07 105.527C110.549 105.527 106.124 103.708 102.793 100.07C99.481 96.4316 97.8249 91.6984 97.8249 85.8702C97.8249 79.6076 99.5172 74.612 102.902 70.8834C106.287 67.1548 110.893 65.2905 116.721 65.2905C122.097 65.2905 126.423 67.1005 129.699 70.7205C132.993 74.3405 134.64 79.0737 134.64 84.92C134.64 91.2731 132.957 96.2958 129.59 99.9882C126.224 103.681 121.717 105.527 116.07 105.527ZM116.395 69.4173C112.305 69.4173 108.984 70.8925 106.431 73.8428C103.879 76.7931 102.603 80.6665 102.603 85.463C102.603 90.2595 103.843 94.1238 106.323 97.056C108.821 99.9701 112.07 101.427 116.07 101.427C120.341 101.427 123.708 100.033 126.169 97.2461C128.631 94.4587 129.862 90.5581 129.862 85.5444C129.862 80.404 128.667 76.4311 126.278 73.6256C123.889 70.8201 120.595 69.4173 116.395 69.4173ZM155.437 67.6254C154.568 67.1367 153.582 66.8924 152.478 66.8924C149.365 66.8924 147.808 68.8562 147.808 72.7839V77.0736H154.324V80.8746H147.808V104.875H143.383V80.8746H138.631V77.0736H143.383V72.5667C143.383 69.6526 144.224 67.3539 145.908 65.6706C147.591 63.9692 149.69 63.1185 152.206 63.1185C153.564 63.1185 154.641 63.2814 155.437 63.6072V67.6254ZM172.867 67.6254C171.999 67.1367 171.012 66.8924 169.908 66.8924C166.795 66.8924 165.238 68.8562 165.238 72.7839V77.0736H171.754V80.8746H165.238V104.875H160.813V80.8746H156.062V77.0736H160.813V72.5667C160.813 69.6526 161.655 67.3539 163.338 65.6706C165.021 63.9692 167.121 63.1185 169.637 63.1185C170.994 63.1185 172.071 63.2814 172.867 63.6072V67.6254ZM178.84 70.0146C178.044 70.0146 177.365 69.7431 176.804 69.2001C176.243 68.6571 175.963 67.9693 175.963 67.1367C175.963 66.3041 176.243 65.6163 176.804 65.0733C177.365 64.5122 178.044 64.2317 178.84 64.2317C179.655 64.2317 180.343 64.5122 180.904 65.0733C181.483 65.6163 181.773 66.3041 181.773 67.1367C181.773 67.9331 181.483 68.6119 180.904 69.173C180.343 69.7341 179.655 70.0146 178.84 70.0146ZM181.012 104.875H176.56V77.0736H181.012V104.875ZM208.977 103.599C206.841 104.884 204.307 105.527 201.375 105.527C197.411 105.527 194.207 104.242 191.764 101.672C189.338 99.0832 188.126 95.7347 188.126 91.626C188.126 87.0467 189.438 83.3724 192.063 80.6031C194.687 77.8157 198.189 76.422 202.57 76.422C205.013 76.422 207.167 76.8745 209.031 77.7795V82.3407C206.968 80.8927 204.76 80.1687 202.407 80.1687C199.565 80.1687 197.23 81.1914 195.402 83.2367C193.592 85.2639 192.687 87.9336 192.687 91.2459C192.687 94.5039 193.538 97.0741 195.239 98.9565C196.959 100.839 199.257 101.78 202.135 101.78C204.561 101.78 206.841 100.975 208.977 99.3638V103.599ZM217.991 70.0146C217.194 70.0146 216.516 69.7431 215.955 69.2001C215.393 68.6571 215.113 67.9693 215.113 67.1367C215.113 66.3041 215.393 65.6163 215.955 65.0733C216.516 64.5122 217.194 64.2317 217.991 64.2317C218.805 64.2317 219.493 64.5122 220.054 65.0733C220.633 65.6163 220.923 66.3041 220.923 67.1367C220.923 67.9331 220.633 68.6119 220.054 69.173C219.493 69.7341 218.805 70.0146 217.991 70.0146ZM220.163 104.875H215.71V77.0736H220.163V104.875ZM249.078 104.875H244.625V100.531H244.516C242.58 103.862 239.729 105.527 235.964 105.527C233.195 105.527 231.023 104.794 229.448 103.328C227.892 101.862 227.113 99.9158 227.113 97.4904C227.113 92.2957 230.172 89.273 236.29 88.4223L244.625 87.2549C244.625 82.5308 242.715 80.1687 238.896 80.1687C235.548 80.1687 232.525 81.309 229.828 83.5896V79.0284C232.561 77.2908 235.711 76.422 239.276 76.422C245.811 76.422 249.078 79.8791 249.078 86.7933V104.875ZM244.625 90.8115L237.919 91.7346C235.856 92.0242 234.299 92.5401 233.249 93.2822C232.199 94.0062 231.674 95.3003 231.674 97.1646C231.674 98.5221 232.154 99.6353 233.113 100.504C234.091 101.355 235.385 101.78 236.996 101.78C239.204 101.78 241.023 101.011 242.453 99.4724C243.901 97.9158 244.625 95.9519 244.625 93.5808V90.8115ZM261.919 104.875H257.467V63.7158H261.919V104.875ZM101.816 141.16V155.875H97.2547V116.942H107.952C112.115 116.942 115.337 117.956 117.617 119.983C119.916 122.01 121.065 124.87 121.065 128.562C121.065 132.255 119.789 135.277 117.237 137.63C114.703 139.983 111.273 141.16 106.947 141.16H101.816ZM101.816 121.069V137.033H106.594C109.744 137.033 112.142 136.318 113.789 134.888C115.454 133.44 116.287 131.404 116.287 128.78C116.287 123.639 113.246 121.069 107.164 121.069H101.816ZM145.935 155.875H141.482V151.531H141.373C139.437 154.862 136.586 156.527 132.821 156.527C130.052 156.527 127.88 155.794 126.305 154.328C124.749 152.862 123.97 150.916 123.97 148.49C123.97 143.296 127.029 140.273 133.147 139.422L141.482 138.255C141.482 133.531 139.573 131.169 135.753 131.169C132.405 131.169 129.382 132.309 126.685 134.59V130.028C129.418 128.291 132.568 127.422 136.134 127.422C142.668 127.422 145.935 130.879 145.935 137.793V155.875ZM141.482 141.812L134.776 142.735C132.713 143.024 131.156 143.54 130.106 144.282C129.056 145.006 128.532 146.3 128.532 148.165C128.532 149.522 129.011 150.635 129.97 151.504C130.948 152.355 132.242 152.78 133.853 152.78C136.061 152.78 137.88 152.011 139.31 150.472C140.758 148.916 141.482 146.952 141.482 144.581V141.812ZM168.822 132.581C168.044 131.983 166.922 131.685 165.456 131.685C163.555 131.685 161.962 132.581 160.677 134.372C159.41 136.164 158.777 138.608 158.777 141.703V155.875H154.324V128.074H158.777V133.802H158.885C159.519 131.847 160.487 130.327 161.79 129.241C163.093 128.137 164.551 127.585 166.161 127.585C167.32 127.585 168.207 127.712 168.822 127.965V132.581ZM188.18 155.604C187.13 156.183 185.746 156.473 184.026 156.473C179.157 156.473 176.723 153.758 176.723 148.328V131.875H171.944V128.074H176.723V121.286L181.175 119.847V128.074H188.18V131.875H181.175V147.54C181.175 149.404 181.492 150.735 182.126 151.531C182.759 152.328 183.809 152.726 185.275 152.726C186.397 152.726 187.366 152.418 188.18 151.803V155.604ZM217.203 155.875H212.751V140.02C212.751 134.119 210.597 131.169 206.289 131.169C204.063 131.169 202.217 132.01 200.751 133.694C199.303 135.359 198.579 137.468 198.579 140.02V155.875H194.126V128.074H198.579V132.689H198.687C200.787 129.178 203.828 127.422 207.81 127.422C210.85 127.422 213.176 128.408 214.787 130.381C216.398 132.336 217.203 135.169 217.203 138.879V155.875ZM247.964 143.088H228.335C228.407 146.183 229.24 148.572 230.833 150.255C232.426 151.938 234.616 152.78 237.403 152.78C240.534 152.78 243.412 151.748 246.037 149.685V153.866C243.593 155.64 240.362 156.527 236.344 156.527C232.417 156.527 229.33 155.269 227.086 152.753C224.842 150.219 223.719 146.662 223.719 142.083C223.719 137.757 224.941 134.237 227.385 131.522C229.846 128.789 232.896 127.422 236.534 127.422C240.172 127.422 242.987 128.599 244.978 130.952C246.969 133.305 247.964 136.572 247.964 140.753V143.088ZM243.403 139.314C243.385 136.744 242.761 134.743 241.53 133.314C240.317 131.884 238.625 131.169 236.453 131.169C234.353 131.169 232.57 131.92 231.104 133.422C229.638 134.924 228.733 136.888 228.389 139.314H243.403ZM269.223 132.581C268.445 131.983 267.322 131.685 265.856 131.685C263.956 131.685 262.363 132.581 261.078 134.372C259.811 136.164 259.177 138.608 259.177 141.703V155.875H254.725V128.074H259.177V133.802H259.286C259.919 131.847 260.888 130.327 262.191 129.241C263.494 128.137 264.951 127.585 266.562 127.585C267.721 127.585 268.607 127.712 269.223 127.965V132.581Z" fill="white"/>
<path d="M137.413 189.91C136.453 190.417 135.259 190.67 133.829 190.67C131.983 190.67 130.505 190.076 129.394 188.887C128.284 187.699 127.729 186.139 127.729 184.208C127.729 182.133 128.354 180.456 129.603 179.177C130.851 177.898 132.435 177.258 134.354 177.258C135.585 177.258 136.604 177.436 137.413 177.792V179.412C136.484 178.893 135.458 178.634 134.336 178.634C132.846 178.634 131.636 179.131 130.707 180.127C129.784 181.122 129.322 182.453 129.322 184.118C129.322 185.699 129.753 186.96 130.616 187.901C131.485 188.836 132.622 189.304 134.028 189.304C135.331 189.304 136.459 189.014 137.413 188.435V189.91ZM143.73 190.67C142.36 190.67 141.265 190.239 140.444 189.376C139.63 188.507 139.223 187.358 139.223 185.928C139.223 184.371 139.648 183.156 140.499 182.281C141.349 181.406 142.499 180.968 143.947 180.968C145.328 180.968 146.405 181.394 147.178 182.245C147.956 183.095 148.345 184.275 148.345 185.783C148.345 187.261 147.926 188.447 147.087 189.34C146.255 190.227 145.135 190.67 143.73 190.67ZM143.838 182.217C142.885 182.217 142.131 182.543 141.576 183.195C141.021 183.84 140.743 184.733 140.743 185.874C140.743 186.972 141.024 187.837 141.585 188.471C142.146 189.104 142.897 189.421 143.838 189.421C144.798 189.421 145.534 189.11 146.046 188.489C146.565 187.868 146.825 186.984 146.825 185.837C146.825 184.679 146.565 183.786 146.046 183.159C145.534 182.531 144.798 182.217 143.838 182.217ZM158.409 190.453H156.925V185.168C156.925 183.201 156.207 182.217 154.771 182.217C154.029 182.217 153.413 182.498 152.924 183.059C152.442 183.614 152.2 184.317 152.2 185.168V190.453H150.716V181.186H152.2V182.724H152.237C152.937 181.554 153.95 180.968 155.277 180.968C156.291 180.968 157.066 181.297 157.603 181.955C158.14 182.607 158.409 183.551 158.409 184.788V190.453ZM168.499 181.186L164.807 190.453H163.35L159.839 181.186H161.468L163.821 187.919C163.996 188.414 164.104 188.845 164.146 189.213H164.183C164.243 188.748 164.34 188.329 164.472 187.955L166.934 181.186H168.499ZM177.441 186.19H170.898C170.922 187.222 171.199 188.018 171.73 188.58C172.261 189.141 172.991 189.421 173.92 189.421C174.964 189.421 175.924 189.077 176.798 188.389V189.783C175.984 190.374 174.907 190.67 173.567 190.67C172.258 190.67 171.23 190.251 170.481 189.412C169.733 188.567 169.359 187.382 169.359 185.855C169.359 184.414 169.766 183.24 170.581 182.335C171.402 181.424 172.418 180.968 173.631 180.968C174.844 180.968 175.782 181.361 176.445 182.145C177.109 182.929 177.441 184.018 177.441 185.412V186.19ZM175.92 184.932C175.914 184.076 175.706 183.409 175.296 182.932C174.892 182.456 174.328 182.217 173.604 182.217C172.904 182.217 172.31 182.468 171.821 182.969C171.332 183.469 171.03 184.124 170.916 184.932H175.92ZM184.527 182.688C184.268 182.489 183.894 182.389 183.405 182.389C182.771 182.389 182.24 182.688 181.812 183.285C181.39 183.883 181.179 184.697 181.179 185.729V190.453H179.694V181.186H181.179V183.095H181.215C181.426 182.444 181.749 181.937 182.183 181.575C182.617 181.207 183.103 181.023 183.64 181.023C184.026 181.023 184.322 181.065 184.527 181.149V182.688ZM185.704 190.118V188.525C186.512 189.123 187.402 189.421 188.373 189.421C189.676 189.421 190.328 188.987 190.328 188.118C190.328 187.871 190.271 187.662 190.156 187.494C190.048 187.319 189.897 187.165 189.704 187.032C189.517 186.899 189.293 186.782 189.034 186.679C188.781 186.57 188.506 186.459 188.21 186.344C187.8 186.181 187.438 186.018 187.124 185.855C186.817 185.687 186.557 185.5 186.346 185.294C186.141 185.083 185.984 184.845 185.875 184.579C185.773 184.314 185.722 184.003 185.722 183.647C185.722 183.213 185.821 182.83 186.02 182.498C186.219 182.16 186.485 181.88 186.817 181.656C187.149 181.427 187.526 181.255 187.948 181.14C188.376 181.026 188.817 180.968 189.269 180.968C190.072 180.968 190.79 181.107 191.423 181.385V182.887C190.741 182.441 189.957 182.217 189.07 182.217C188.793 182.217 188.542 182.251 188.319 182.317C188.096 182.377 187.903 182.465 187.74 182.579C187.583 182.694 187.459 182.833 187.369 182.996C187.284 183.153 187.242 183.328 187.242 183.521C187.242 183.762 187.284 183.964 187.369 184.127C187.459 184.29 187.589 184.435 187.758 184.561C187.927 184.688 188.132 184.803 188.373 184.905C188.615 185.008 188.889 185.119 189.197 185.24C189.607 185.397 189.975 185.56 190.301 185.729C190.627 185.892 190.904 186.079 191.134 186.29C191.363 186.495 191.538 186.733 191.658 187.005C191.785 187.276 191.848 187.599 191.848 187.973C191.848 188.432 191.746 188.83 191.541 189.168C191.342 189.506 191.073 189.786 190.735 190.009C190.397 190.233 190.008 190.399 189.568 190.507C189.127 190.616 188.666 190.67 188.183 190.67C187.23 190.67 186.403 190.486 185.704 190.118ZM200.772 190.453H199.288V189.005H199.251C198.606 190.115 197.656 190.67 196.401 190.67C195.478 190.67 194.754 190.426 194.229 189.937C193.71 189.448 193.45 188.8 193.45 187.991C193.45 186.26 194.47 185.252 196.509 184.969L199.288 184.579C199.288 183.005 198.651 182.217 197.378 182.217C196.262 182.217 195.254 182.597 194.355 183.358V181.837C195.266 181.258 196.316 180.968 197.505 180.968C199.683 180.968 200.772 182.121 200.772 184.426V190.453ZM199.288 185.765L197.052 186.073C196.364 186.169 195.846 186.341 195.496 186.589C195.146 186.83 194.971 187.261 194.971 187.883C194.971 188.335 195.131 188.706 195.45 188.996C195.776 189.279 196.208 189.421 196.745 189.421C197.481 189.421 198.087 189.165 198.564 188.652C199.046 188.133 199.288 187.478 199.288 186.688V185.765ZM207.867 190.362C207.517 190.555 207.056 190.652 206.482 190.652C204.859 190.652 204.048 189.747 204.048 187.937V182.453H202.455V181.186H204.048V178.923L205.532 178.444V181.186H207.867V182.453H205.532V187.675C205.532 188.296 205.638 188.739 205.849 189.005C206.06 189.27 206.41 189.403 206.899 189.403C207.273 189.403 207.595 189.301 207.867 189.095V190.362ZM210.609 178.833C210.344 178.833 210.117 178.742 209.93 178.561C209.743 178.38 209.65 178.151 209.65 177.873C209.65 177.596 209.743 177.367 209.93 177.186C210.117 176.999 210.344 176.905 210.609 176.905C210.881 176.905 211.11 176.999 211.297 177.186C211.49 177.367 211.587 177.596 211.587 177.873C211.587 178.139 211.49 178.365 211.297 178.552C211.11 178.739 210.881 178.833 210.609 178.833ZM211.333 190.453H209.849V181.186H211.333V190.453ZM218.211 190.67C216.842 190.67 215.747 190.239 214.926 189.376C214.111 188.507 213.704 187.358 213.704 185.928C213.704 184.371 214.13 183.156 214.98 182.281C215.831 181.406 216.98 180.968 218.428 180.968C219.81 180.968 220.887 181.394 221.659 182.245C222.437 183.095 222.827 184.275 222.827 185.783C222.827 187.261 222.407 188.447 221.569 189.34C220.736 190.227 219.617 190.67 218.211 190.67ZM218.32 182.217C217.366 182.217 216.612 182.543 216.057 183.195C215.502 183.84 215.225 184.733 215.225 185.874C215.225 186.972 215.505 187.837 216.066 188.471C216.627 189.104 217.379 189.421 218.32 189.421C219.279 189.421 220.015 189.11 220.528 188.489C221.047 187.868 221.306 186.984 221.306 185.837C221.306 184.679 221.047 183.786 220.528 183.159C220.015 182.531 219.279 182.217 218.32 182.217ZM232.89 190.453H231.406V185.168C231.406 183.201 230.688 182.217 229.252 182.217C228.51 182.217 227.895 182.498 227.406 183.059C226.923 183.614 226.682 184.317 226.682 185.168V190.453H225.198V181.186H226.682V182.724H226.718C227.418 181.554 228.432 180.968 229.759 180.968C230.773 180.968 231.548 181.297 232.085 181.955C232.622 182.607 232.89 183.551 232.89 184.788V190.453ZM121.53 209.453V196.475H125.114C129.687 196.475 131.974 198.584 131.974 202.801C131.974 204.804 131.337 206.415 130.064 207.634C128.797 208.847 127.099 209.453 124.969 209.453H121.53ZM123.05 197.851V208.077H124.987C126.689 208.077 128.013 207.622 128.96 206.711C129.907 205.8 130.381 204.509 130.381 202.837C130.381 199.513 128.613 197.851 125.078 197.851H123.05ZM141.775 205.19H135.232C135.256 206.222 135.533 207.018 136.064 207.58C136.595 208.141 137.325 208.421 138.254 208.421C139.298 208.421 140.257 208.077 141.132 207.389V208.783C140.318 209.374 139.241 209.67 137.901 209.67C136.592 209.67 135.564 209.251 134.815 208.412C134.067 207.567 133.693 206.382 133.693 204.855C133.693 203.414 134.1 202.24 134.915 201.335C135.735 200.424 136.752 199.968 137.965 199.968C139.178 199.968 140.116 200.361 140.779 201.145C141.443 201.929 141.775 203.018 141.775 204.412V205.19ZM140.254 203.932C140.248 203.076 140.04 202.409 139.63 201.932C139.226 201.456 138.662 201.217 137.938 201.217C137.238 201.217 136.644 201.468 136.155 201.969C135.666 202.469 135.364 203.124 135.25 203.932H140.254ZM143.467 209.118V207.525C144.276 208.123 145.166 208.421 146.137 208.421C147.44 208.421 148.092 207.987 148.092 207.118C148.092 206.871 148.034 206.662 147.92 206.494C147.811 206.319 147.66 206.165 147.467 206.032C147.28 205.899 147.057 205.782 146.798 205.679C146.544 205.57 146.27 205.459 145.974 205.344C145.564 205.181 145.202 205.018 144.888 204.855C144.58 204.687 144.321 204.5 144.11 204.294C143.905 204.083 143.748 203.845 143.639 203.579C143.537 203.314 143.485 203.003 143.485 202.647C143.485 202.213 143.585 201.83 143.784 201.498C143.983 201.16 144.249 200.88 144.58 200.656C144.912 200.427 145.289 200.255 145.712 200.14C146.14 200.026 146.58 199.968 147.033 199.968C147.835 199.968 148.553 200.107 149.187 200.385V201.887C148.505 201.441 147.721 201.217 146.834 201.217C146.556 201.217 146.306 201.251 146.083 201.317C145.859 201.377 145.666 201.465 145.503 201.579C145.347 201.694 145.223 201.833 145.132 201.996C145.048 202.153 145.006 202.328 145.006 202.521C145.006 202.762 145.048 202.964 145.132 203.127C145.223 203.29 145.353 203.435 145.522 203.561C145.69 203.688 145.896 203.803 146.137 203.905C146.378 204.008 146.653 204.119 146.961 204.24C147.371 204.397 147.739 204.56 148.065 204.729C148.39 204.892 148.668 205.079 148.897 205.29C149.126 205.495 149.301 205.733 149.422 206.005C149.549 206.276 149.612 206.599 149.612 206.973C149.612 207.432 149.51 207.83 149.304 208.168C149.105 208.506 148.837 208.786 148.499 209.009C148.161 209.233 147.772 209.399 147.332 209.507C146.891 209.616 146.43 209.67 145.947 209.67C144.994 209.67 144.167 209.486 143.467 209.118ZM152.662 197.833C152.397 197.833 152.17 197.742 151.983 197.561C151.796 197.38 151.703 197.151 151.703 196.873C151.703 196.596 151.796 196.367 151.983 196.186C152.17 195.999 152.397 195.905 152.662 195.905C152.933 195.905 153.163 195.999 153.35 196.186C153.543 196.367 153.639 196.596 153.639 196.873C153.639 197.139 153.543 197.365 153.35 197.552C153.163 197.739 152.933 197.833 152.662 197.833ZM153.386 209.453H151.902V200.186H153.386V209.453ZM164.3 208.711C164.3 212.114 162.671 213.815 159.413 213.815C158.267 213.815 157.265 213.598 156.409 213.163V211.679C157.452 212.258 158.448 212.548 159.395 212.548C161.676 212.548 162.816 211.335 162.816 208.91V207.896H162.78C162.074 209.079 161.012 209.67 159.594 209.67C158.442 209.67 157.513 209.26 156.807 208.439C156.107 207.613 155.757 206.506 155.757 205.118C155.757 203.543 156.134 202.291 156.888 201.362C157.649 200.433 158.686 199.968 160.002 199.968C161.25 199.968 162.177 200.469 162.78 201.471H162.816V200.186H164.3V208.711ZM162.816 205.263V203.896C162.816 203.16 162.566 202.53 162.065 202.005C161.57 201.48 160.952 201.217 160.21 201.217C159.293 201.217 158.575 201.552 158.056 202.222C157.537 202.886 157.277 203.818 157.277 205.018C157.277 206.05 157.525 206.877 158.02 207.498C158.52 208.113 159.181 208.421 160.002 208.421C160.834 208.421 161.51 208.126 162.029 207.534C162.554 206.943 162.816 206.186 162.816 205.263ZM174.997 209.453H173.513V204.168C173.513 202.201 172.795 201.217 171.359 201.217C170.617 201.217 170.002 201.498 169.513 202.059C169.03 202.614 168.789 203.317 168.789 204.168V209.453H167.305V200.186H168.789V201.724H168.825C169.525 200.554 170.539 199.968 171.866 199.968C172.88 199.968 173.655 200.297 174.192 200.955C174.729 201.607 174.997 202.551 174.997 203.788V209.453ZM189.676 197.851H184.608V202.34H189.296V203.706H184.608V209.453H183.088V196.475H189.676V197.851ZM199.387 205.19H192.844C192.868 206.222 193.146 207.018 193.677 207.58C194.208 208.141 194.938 208.421 195.867 208.421C196.91 208.421 197.87 208.077 198.745 207.389V208.783C197.93 209.374 196.853 209.67 195.514 209.67C194.205 209.67 193.176 209.251 192.428 208.412C191.68 207.567 191.305 206.382 191.305 204.855C191.305 203.414 191.713 202.24 192.527 201.335C193.348 200.424 194.364 199.968 195.577 199.968C196.79 199.968 197.728 200.361 198.392 201.145C199.055 201.929 199.387 203.018 199.387 204.412V205.19ZM197.867 203.932C197.861 203.076 197.653 202.409 197.242 201.932C196.838 201.456 196.274 201.217 195.55 201.217C194.85 201.217 194.256 201.468 193.767 201.969C193.278 202.469 192.977 203.124 192.862 203.932H197.867ZM201.079 209.118V207.525C201.888 208.123 202.778 208.421 203.749 208.421C205.052 208.421 205.704 207.987 205.704 207.118C205.704 206.871 205.647 206.662 205.532 206.494C205.423 206.319 205.273 206.165 205.08 206.032C204.893 205.899 204.669 205.782 204.41 205.679C204.156 205.57 203.882 205.459 203.586 205.344C203.176 205.181 202.814 205.018 202.5 204.855C202.193 204.687 201.933 204.5 201.722 204.294C201.517 204.083 201.36 203.845 201.251 203.579C201.149 203.314 201.098 203.003 201.098 202.647C201.098 202.213 201.197 201.83 201.396 201.498C201.595 201.16 201.861 200.88 202.193 200.656C202.524 200.427 202.902 200.255 203.324 200.14C203.752 200.026 204.193 199.968 204.645 199.968C205.448 199.968 206.166 200.107 206.799 200.385V201.887C206.117 201.441 205.333 201.217 204.446 201.217C204.169 201.217 203.918 201.251 203.695 201.317C203.472 201.377 203.279 201.465 203.116 201.579C202.959 201.694 202.835 201.833 202.745 201.996C202.66 202.153 202.618 202.328 202.618 202.521C202.618 202.762 202.66 202.964 202.745 203.127C202.835 203.29 202.965 203.435 203.134 203.561C203.303 203.688 203.508 203.803 203.749 203.905C203.991 204.008 204.265 204.119 204.573 204.24C204.983 204.397 205.351 204.56 205.677 204.729C206.003 204.892 206.28 205.079 206.509 205.29C206.739 205.495 206.914 205.733 207.034 206.005C207.161 206.276 207.224 206.599 207.224 206.973C207.224 207.432 207.122 207.83 206.917 208.168C206.718 208.506 206.449 208.786 206.111 209.009C205.773 209.233 205.384 209.399 204.944 209.507C204.503 209.616 204.042 209.67 203.559 209.67C202.606 209.67 201.779 209.486 201.079 209.118ZM213.813 209.362C213.463 209.555 213.001 209.652 212.428 209.652C210.805 209.652 209.994 208.747 209.994 206.937V201.453H208.401V200.186H209.994V197.923L211.478 197.444V200.186H213.813V201.453H211.478V206.675C211.478 207.296 211.584 207.739 211.795 208.005C212.006 208.27 212.356 208.403 212.844 208.403C213.219 208.403 213.541 208.301 213.813 208.095V209.362ZM216.555 197.833C216.29 197.833 216.063 197.742 215.876 197.561C215.689 197.38 215.596 197.151 215.596 196.873C215.596 196.596 215.689 196.367 215.876 196.186C216.063 195.999 216.29 195.905 216.555 195.905C216.826 195.905 217.056 195.999 217.243 196.186C217.436 196.367 217.532 196.596 217.532 196.873C217.532 197.139 217.436 197.365 217.243 197.552C217.056 197.739 216.826 197.833 216.555 197.833ZM217.279 209.453H215.795V200.186H217.279V209.453ZM227.569 200.186L223.876 209.453H222.419L218.908 200.186H220.537L222.89 206.919C223.065 207.414 223.174 207.845 223.216 208.213H223.252C223.312 207.748 223.409 207.329 223.542 206.955L226.003 200.186H227.569ZM235.46 209.453H233.976V208.005H233.94C233.294 209.115 232.344 209.67 231.089 209.67C230.166 209.67 229.442 209.426 228.917 208.937C228.398 208.448 228.139 207.8 228.139 206.991C228.139 205.26 229.159 204.252 231.198 203.969L233.976 203.579C233.976 202.005 233.34 201.217 232.067 201.217C230.951 201.217 229.943 201.597 229.044 202.358V200.837C229.955 200.258 231.005 199.968 232.193 199.968C234.371 199.968 235.46 201.121 235.46 203.426V209.453ZM233.976 204.765L231.741 205.073C231.053 205.169 230.534 205.341 230.184 205.589C229.834 205.83 229.659 206.261 229.659 206.883C229.659 207.335 229.819 207.706 230.139 207.996C230.465 208.279 230.896 208.421 231.433 208.421C232.169 208.421 232.776 208.165 233.252 207.652C233.735 207.133 233.976 206.478 233.976 205.688V204.765ZM239.741 209.453H238.257V195.733H239.741V209.453Z" fill="white"/>
<path fill-rule="evenodd" clip-rule="evenodd" d="M125.11 265.6V285.4C130.56 285.4 134.989 280.961 134.989 275.5C134.989 270.038 130.56 265.6 125.11 265.6Z" fill="white"/>
<path d="M141.904 265.6H136.636V285.4H141.904V265.6Z" fill="white"/>
<path fill-rule="evenodd" clip-rule="evenodd" d="M157.767 271.062L157.43 270.905C156.969 271.763 156.244 272.192 155.248 272.192C153.462 272.192 152.309 270.905 152.309 268.917C152.309 267.093 153.231 266.021 154.779 266.021C156.006 266.021 156.763 266.681 157.076 268.042H157.471V265.839C156.936 265.534 156.014 265.336 155.108 265.336C152.672 265.336 151.124 266.953 151.124 269.486C151.124 271.804 152.614 273.413 154.771 273.413C156.261 273.405 157.356 272.547 157.767 271.062Z" fill="white"/>
<path fill-rule="evenodd" clip-rule="evenodd" d="M161.307 273.347C162.912 273.347 164.048 272.151 164.048 270.501C164.048 268.859 162.904 267.654 161.307 267.654C159.718 267.654 158.565 268.867 158.565 270.501C158.565 272.151 159.718 273.347 161.307 273.347ZM161.307 268.158C162.253 268.158 162.764 268.884 162.764 270.501C162.764 272.126 162.245 272.844 161.307 272.844C160.36 272.844 159.85 272.126 159.85 270.501C159.85 268.884 160.368 268.158 161.307 268.158Z" fill="white"/>
<path fill-rule="evenodd" clip-rule="evenodd" d="M165.72 268.925V272.126C165.72 272.711 165.547 272.843 164.831 272.893V273.215H167.539V272.893C166.987 272.827 166.823 272.703 166.823 272.126V269.23C167.061 268.694 167.522 268.463 168.082 268.463C168.782 268.463 169.177 268.867 169.177 269.741V272.241C169.177 272.662 169.021 272.827 168.486 272.901V273.223H171.177V272.901C170.494 272.835 170.288 272.736 170.288 272.117V269.552C170.288 268.166 169.572 267.646 168.609 267.646C167.654 267.646 166.971 268.182 166.666 269.123L166.609 269.098C166.674 268.793 166.707 268.595 166.707 268.397V267.778H166.378L164.765 268.265V268.586C164.987 268.562 165.127 268.553 165.217 268.553C165.514 268.553 165.72 268.677 165.72 268.925Z" fill="white"/>
<path fill-rule="evenodd" clip-rule="evenodd" d="M176.355 268.644C176.52 268.257 176.685 268.116 176.956 268.116V267.786H174.849V268.116C175.442 268.116 175.746 268.207 175.746 268.512C175.746 268.62 175.722 268.743 175.647 268.917L174.536 271.284C174.404 271.557 174.347 271.771 174.33 272.035H174.273C174.248 271.672 174.182 271.408 174.075 271.111L173.12 268.908C173.054 268.752 173.021 268.62 173.021 268.512C173.021 268.215 173.285 268.116 173.853 268.116V267.786H171.087V268.116C171.449 268.125 171.548 268.207 171.745 268.644L173.878 273.273H174.24L176.355 268.644Z" fill="white"/>
<path fill-rule="evenodd" clip-rule="evenodd" d="M179.713 273.347C180.932 273.347 181.648 272.53 181.854 271.721L181.557 271.565C181.286 272.027 180.833 272.266 180.133 272.266C178.981 272.266 178.289 271.433 178.223 270.047H181.854C181.854 268.595 181.096 267.646 179.713 267.646C178.157 267.646 177.252 268.908 177.252 270.591C177.252 272.208 178.166 273.347 179.713 273.347ZM179.491 268.124C180.257 268.124 180.545 268.76 180.545 269.634H178.207C178.264 268.694 178.717 268.124 179.491 268.124Z" fill="white"/>
<path fill-rule="evenodd" clip-rule="evenodd" d="M183.558 269.057V272.126C183.558 272.711 183.386 272.819 182.669 272.893V273.215H185.798V272.893C184.941 272.827 184.67 272.736 184.67 272.109V270.104C184.67 269.139 185.271 268.826 185.863 268.826C186.061 268.826 186.234 268.883 186.349 268.933H186.555V267.679C186.464 267.646 186.349 267.638 186.226 267.638C185.559 267.638 184.851 268.108 184.678 269.222L184.579 269.857H184.505C184.53 269.601 184.546 269.131 184.546 268.661V267.77H184.217L182.604 268.256V268.578C182.768 268.57 182.941 268.553 183.04 268.553C183.427 268.562 183.558 268.718 183.558 269.057Z" fill="white"/>
<path fill-rule="evenodd" clip-rule="evenodd" d="M191.198 271.614C191.198 270.888 190.811 270.393 190.053 270.121L188.893 269.7C188.407 269.527 188.226 269.263 188.226 268.85C188.226 268.421 188.596 268.133 189.173 268.133C189.922 268.133 190.416 268.619 190.564 269.23H190.959V268.001C190.564 267.811 189.913 267.646 189.345 267.646C188.16 267.646 187.304 268.281 187.304 269.296C187.304 270.03 187.773 270.55 188.58 270.814L189.592 271.169C190.078 271.334 190.292 271.565 190.292 272.002C190.292 272.522 189.889 272.827 189.271 272.827C188.522 272.827 187.888 272.39 187.683 271.441H187.263V272.786C187.814 273.215 188.506 273.347 189.074 273.347C190.35 273.347 191.198 272.678 191.198 271.614Z" fill="white"/>
<path fill-rule="evenodd" clip-rule="evenodd" d="M196.664 272.555C196.375 272.555 196.244 272.348 196.244 272.002V269.692C196.244 268.298 195.495 267.646 194.334 267.646C193.017 267.646 192.399 268.43 192.218 269.238L192.547 269.345C192.778 268.784 193.231 268.463 193.955 268.463C194.77 268.463 195.141 268.925 195.141 269.708V270.03L194.046 270.253C192.704 270.517 192.095 271.07 192.095 271.936C192.095 272.868 192.712 273.347 193.618 273.347C194.433 273.347 194.968 272.852 195.108 272.324H195.182C195.206 272.992 195.602 273.322 196.17 273.322C196.688 273.322 197.116 273.05 197.297 272.439L197.075 272.299C196.993 272.456 196.861 272.555 196.664 272.555ZM195.132 271.829C194.959 272.398 194.605 272.678 194.136 272.678C193.585 272.678 193.28 272.315 193.28 271.754C193.28 271.053 193.774 270.707 194.573 270.542L195.132 270.443V271.829Z" fill="white"/>
<path fill-rule="evenodd" clip-rule="evenodd" d="M200.384 272.571C199.948 272.571 199.537 272.307 199.537 271.54V268.364H201.01V267.794H199.537V266.433H199.248C198.845 267.192 198.326 267.778 197.479 268.075V268.364H198.425V271.928C198.425 272.819 198.829 273.355 199.734 273.355C200.327 273.355 200.887 273.033 201.306 272.563L201.109 272.299C200.895 272.447 200.681 272.571 200.384 272.571Z" fill="white"/>
<path fill-rule="evenodd" clip-rule="evenodd" d="M203.752 272.118V267.786H203.398L201.71 268.257V268.578C201.875 268.57 202.015 268.554 202.13 268.554C202.492 268.554 202.648 268.694 202.648 269.082V272.126C202.648 272.712 202.476 272.844 201.759 272.893V273.215H204.649V272.893C203.957 272.835 203.752 272.736 203.752 272.118Z" fill="white"/>
<path fill-rule="evenodd" clip-rule="evenodd" d="M203.134 267.003C203.587 267.003 203.924 266.648 203.924 266.211C203.924 265.773 203.587 265.427 203.134 265.427C202.681 265.427 202.344 265.765 202.344 266.211C202.344 266.656 202.689 267.003 203.134 267.003Z" fill="white"/>
<path fill-rule="evenodd" clip-rule="evenodd" d="M208.04 267.654C206.451 267.654 205.299 268.867 205.299 270.501C205.299 272.151 206.451 273.347 208.04 273.347C209.645 273.347 210.781 272.151 210.781 270.501C210.79 268.859 209.645 267.654 208.04 267.654ZM208.04 272.844C207.093 272.844 206.583 272.126 206.583 270.501C206.583 268.884 207.102 268.158 208.04 268.158C208.987 268.158 209.497 268.884 209.497 270.501C209.505 272.126 208.987 272.844 208.04 272.844Z" fill="white"/>
<path fill-rule="evenodd" clip-rule="evenodd" d="M217.03 272.117V269.552C217.03 268.166 216.322 267.646 215.35 267.646C214.395 267.646 213.712 268.182 213.407 269.123L213.35 269.098C213.416 268.793 213.449 268.595 213.449 268.397V267.778H213.119L211.506 268.265V268.586C211.728 268.562 211.868 268.553 211.95 268.553C212.239 268.553 212.444 268.677 212.444 268.925V272.126C212.444 272.711 212.271 272.843 211.555 272.893V273.215H214.264V272.893C213.712 272.827 213.547 272.703 213.547 272.126V269.23C213.786 268.694 214.247 268.463 214.807 268.463C215.507 268.463 215.902 268.867 215.902 269.741V272.241C215.902 272.662 215.745 272.827 215.21 272.901V273.223H217.902V272.901C217.235 272.835 217.03 272.736 217.03 272.117Z" fill="white"/>
<path fill-rule="evenodd" clip-rule="evenodd" d="M224.463 265.517H221.179V265.847C222.01 265.889 222.241 266.12 222.241 267.068V271.664C222.241 272.588 222.035 272.843 221.179 272.885V273.215H224.529C227.262 273.215 228.653 271.763 228.653 269.362C228.653 266.969 227.163 265.517 224.463 265.517ZM224.579 272.711H224.142C223.615 272.711 223.459 272.456 223.459 272.027V266.021H224.348C226.381 266.021 227.303 267.209 227.303 269.362C227.303 271.482 226.381 272.711 224.579 272.711Z" fill="white"/>
<path fill-rule="evenodd" clip-rule="evenodd" d="M232.119 267.654C230.563 267.654 229.657 268.917 229.657 270.6C229.657 272.208 230.571 273.347 232.119 273.347C233.337 273.347 234.053 272.53 234.259 271.722L233.963 271.565C233.691 272.027 233.238 272.266 232.538 272.266C231.386 272.266 230.694 271.433 230.629 270.047H234.259C234.259 268.595 233.502 267.654 232.119 267.654ZM230.62 269.634C230.678 268.702 231.123 268.125 231.905 268.125C232.67 268.125 232.958 268.76 232.958 269.634H230.62Z" fill="white"/>
<path fill-rule="evenodd" clip-rule="evenodd" d="M238.038 270.113L236.877 269.692C236.391 269.519 236.21 269.255 236.21 268.842C236.21 268.413 236.581 268.124 237.157 268.124C237.906 268.124 238.4 268.611 238.548 269.222H238.943V267.992C238.548 267.803 237.898 267.638 237.33 267.638C236.145 267.638 235.288 268.273 235.288 269.288C235.288 270.022 235.758 270.542 236.564 270.806L237.577 271.16C238.063 271.325 238.277 271.556 238.277 271.994C238.277 272.513 237.873 272.819 237.256 272.819C236.507 272.819 235.873 272.381 235.667 271.433H235.264V272.777C235.815 273.206 236.507 273.338 237.075 273.338C238.351 273.338 239.19 272.67 239.19 271.598C239.182 270.888 238.795 270.393 238.038 270.113Z" fill="white"/>
<path fill-rule="evenodd" clip-rule="evenodd" d="M241.948 272.118V267.786H241.594L239.906 268.257V268.578C240.071 268.57 240.211 268.554 240.326 268.554C240.688 268.554 240.845 268.694 240.845 269.082V272.126C240.845 272.712 240.672 272.844 239.956 272.893V273.215H242.845V272.893C242.154 272.835 241.948 272.736 241.948 272.118Z" fill="white"/>
<path fill-rule="evenodd" clip-rule="evenodd" d="M241.33 267.003C241.783 267.003 242.121 266.648 242.121 266.211C242.121 265.773 241.783 265.427 241.33 265.427C240.878 265.427 240.54 265.765 240.54 266.211C240.54 266.656 240.878 267.003 241.33 267.003Z" fill="white"/>
<path fill-rule="evenodd" clip-rule="evenodd" d="M245.974 267.654C244.657 267.654 243.71 268.413 243.71 269.527C243.71 270.212 244.072 270.756 244.657 271.07V271.144C244.023 271.367 243.71 271.812 243.71 272.258C243.71 272.761 244.031 273.157 244.566 273.322V273.388C243.71 273.611 243.422 274.007 243.422 274.535C243.422 275.269 244.319 275.83 245.817 275.83C248.015 275.83 248.839 274.749 248.839 273.759C248.839 272.844 248.188 272.448 247.118 272.398L245.348 272.299C244.854 272.266 244.55 272.093 244.55 271.779C244.55 271.54 244.714 271.309 245.134 271.26C245.389 271.326 245.669 271.367 245.982 271.367C247.299 271.367 248.246 270.633 248.246 269.527C248.246 269.007 248.057 268.438 247.381 268.207L247.423 268.141C247.793 268.314 248.106 268.397 248.435 268.397H248.855V267.778H246.904C246.608 267.696 246.311 267.654 245.974 267.654ZM244.928 273.38C244.961 273.388 244.994 273.388 245.027 273.388L246.879 273.479C247.571 273.504 248.073 273.702 248.073 274.304C248.073 274.898 247.472 275.286 246.352 275.286C245.109 275.286 244.401 274.857 244.401 274.197C244.401 273.875 244.533 273.578 244.928 273.38ZM245.974 270.971C245.34 270.971 244.879 270.542 244.879 269.519C244.879 268.496 245.34 268.042 245.974 268.042C246.624 268.042 247.069 268.504 247.069 269.519C247.069 270.542 246.608 270.971 245.974 270.971Z" fill="white"/>
<path fill-rule="evenodd" clip-rule="evenodd" d="M255.036 272.117V269.552C255.036 268.166 254.32 267.646 253.357 267.646C252.402 267.646 251.719 268.182 251.414 269.123L251.357 269.098C251.423 268.793 251.455 268.595 251.455 268.397V267.778H251.126L249.513 268.265V268.586C249.735 268.562 249.875 268.553 249.965 268.553C250.254 268.553 250.459 268.677 250.459 268.925V272.126C250.459 272.711 250.287 272.843 249.57 272.893V273.215H252.287V272.893C251.735 272.827 251.571 272.703 251.571 272.126V269.23C251.809 268.694 252.27 268.463 252.83 268.463C253.53 268.463 253.925 268.867 253.925 269.741V272.241C253.925 272.662 253.769 272.827 253.234 272.901V273.223H255.925V272.901C255.25 272.835 255.036 272.736 255.036 272.117Z" fill="white"/>
<path fill-rule="evenodd" clip-rule="evenodd" d="M151.058 277.158C151.889 277.224 152.12 277.43 152.12 278.379V282.974C152.12 283.898 151.914 284.129 151.058 284.195V284.525H154.408V284.195C153.585 284.129 153.346 283.923 153.346 282.974V278.379C153.346 277.414 153.535 277.249 154.408 277.158V276.828H151.058V277.158Z" fill="white"/>
<path fill-rule="evenodd" clip-rule="evenodd" d="M160.706 283.428V280.863C160.706 279.477 159.99 278.957 159.027 278.957C158.072 278.957 157.389 279.493 157.084 280.434L157.027 280.409C157.092 280.104 157.125 279.906 157.125 279.708V279.089H156.796L155.183 279.576V279.897C155.405 279.873 155.545 279.864 155.635 279.864C155.924 279.864 156.129 279.988 156.129 280.236V283.437C156.129 284.022 155.956 284.154 155.24 284.204V284.526H157.949V284.204C157.397 284.138 157.232 284.014 157.232 283.437V280.541C157.471 280.005 157.932 279.774 158.492 279.774C159.192 279.774 159.587 280.178 159.587 281.052V283.552C159.587 283.973 159.43 284.138 158.895 284.212V284.534H161.587V284.212C160.912 284.138 160.706 284.039 160.706 283.428Z" fill="white"/>
<path fill-rule="evenodd" clip-rule="evenodd" d="M165.053 281.423L163.892 281.003C163.406 280.829 163.225 280.565 163.225 280.153C163.225 279.724 163.595 279.435 164.172 279.435C164.921 279.435 165.415 279.922 165.563 280.532H165.958V279.303C165.563 279.113 164.913 278.948 164.345 278.948C163.159 278.948 162.303 279.584 162.303 280.598C162.303 281.333 162.772 281.852 163.579 282.116L164.592 282.471C165.077 282.636 165.291 282.867 165.291 283.304C165.291 283.824 164.888 284.129 164.27 284.129C163.521 284.129 162.887 283.692 162.682 282.743H162.278V284.088C162.83 284.517 163.521 284.649 164.089 284.649C165.365 284.649 166.205 283.981 166.205 282.908C166.189 282.191 165.81 281.696 165.053 281.423Z" fill="white"/>
<path fill-rule="evenodd" clip-rule="evenodd" d="M169.572 283.874C169.136 283.874 168.724 283.61 168.724 282.843V279.666H170.198V279.097H168.724V277.744H168.436C168.033 278.503 167.514 279.089 166.666 279.386V279.675H167.613V283.239C167.613 284.13 168.016 284.666 168.922 284.666C169.514 284.666 170.074 284.344 170.494 283.874L170.296 283.61C170.091 283.758 169.868 283.874 169.572 283.874Z" fill="white"/>
<path fill-rule="evenodd" clip-rule="evenodd" d="M173.12 277.521C173.12 277.084 172.782 276.738 172.329 276.738C171.877 276.738 171.539 277.076 171.539 277.521C171.539 277.959 171.877 278.313 172.329 278.313C172.774 278.313 173.12 277.959 173.12 277.521Z" fill="white"/>
<path fill-rule="evenodd" clip-rule="evenodd" d="M172.939 283.428V279.097H172.585L170.897 279.567V279.889C171.062 279.881 171.202 279.864 171.317 279.864C171.68 279.864 171.836 280.005 171.836 280.392V283.437C171.836 284.022 171.663 284.154 170.947 284.204V284.526H173.836V284.204C173.153 284.138 172.939 284.039 172.939 283.428Z" fill="white"/>
<path fill-rule="evenodd" clip-rule="evenodd" d="M177.047 283.874C176.61 283.874 176.199 283.61 176.199 282.843V279.666H177.672V279.097H176.199V277.744H175.911C175.507 278.503 174.989 279.089 174.141 279.386V279.675H175.087V283.239C175.087 284.13 175.491 284.666 176.396 284.666C176.989 284.666 177.549 284.344 177.969 283.874L177.771 283.61C177.565 283.758 177.343 283.874 177.047 283.874Z" fill="white"/>
<path fill-rule="evenodd" clip-rule="evenodd" d="M183.542 283.577V279.089H183.287L181.566 279.377V279.716C182.217 279.716 182.431 279.749 182.431 280.244V283.073C182.258 283.535 181.764 283.832 181.27 283.832C180.438 283.832 180.192 283.296 180.192 282.636V279.097H179.936L178.216 279.386V279.716C178.866 279.716 179.08 279.757 179.08 280.252V282.892C179.08 284.072 179.78 284.666 180.76 284.666C181.525 284.666 182.307 284.162 182.579 283.222L182.645 283.247C182.546 283.544 182.513 283.766 182.513 284.113V284.534H184.357V284.212C183.764 284.138 183.542 284.022 183.542 283.577Z" fill="white"/>
<path fill-rule="evenodd" clip-rule="evenodd" d="M187.591 283.874C187.155 283.874 186.744 283.61 186.744 282.843V279.666H188.217V279.097H186.744V277.744H186.455C186.052 278.503 185.533 279.089 184.686 279.386V279.675H185.632V283.239C185.632 284.13 186.036 284.666 186.941 284.666C187.534 284.666 188.094 284.344 188.513 283.874L188.316 283.61C188.11 283.758 187.888 283.874 187.591 283.874Z" fill="white"/>
<path fill-rule="evenodd" clip-rule="evenodd" d="M191.46 278.957C189.905 278.957 188.999 280.219 188.999 281.902C188.999 283.511 189.913 284.649 191.46 284.649C192.679 284.649 193.395 283.833 193.601 283.024L193.304 282.867C193.033 283.329 192.58 283.569 191.88 283.569C190.728 283.569 190.036 282.735 189.97 281.349H193.601C193.601 279.906 192.843 278.957 191.46 278.957ZM189.954 280.937C190.012 280.005 190.456 279.427 191.238 279.427C192.004 279.427 192.292 280.062 192.292 280.937H189.954Z" fill="white"/>
<path fill-rule="evenodd" clip-rule="evenodd" d="M107 275.5C107 284.6 114.384 292 123.464 292V285.4C118.014 285.4 113.586 280.962 113.586 275.5C113.586 270.038 118.014 265.6 123.464 265.6V259C114.384 259 107 266.4 107 275.5Z" fill="white"/>
</g>
<defs>
<clipPath id="clip0_3464_21544">
<rect width="362" height="348" fill="white"/>
</clipPath>
</defs>
</svg>
