<svg width="166" height="26" viewBox="0 0 166 26" fill="none" xmlns="http://www.w3.org/2000/svg">
<path d="M4.88052 6.66709L2.80913 4.85849L4.98267 2.74659L6.82705 4.76301C7.2037 4.48719 7.598 4.23578 8.00745 4.01036L6.80435 1.57269L9.64186 0.449335L10.5612 2.99934C11.0185 2.8809 11.4829 2.79086 11.9516 2.72974L11.7927 0.0336914H14.8629L14.6926 2.72974C15.1631 2.79141 15.6293 2.88144 16.0887 2.99934L17.0024 0.449335L19.8399 1.57269L18.6595 4.01036C19.0676 4.24124 19.46 4.49829 19.8342 4.77986L21.7069 2.74659L23.8748 4.85849L21.8034 6.66709C22.0925 7.02419 22.3578 7.39943 22.5979 7.79044L25.0949 6.61654L26.247 9.40246L23.6194 10.2955C23.738 10.7408 23.829 11.1929 23.8918 11.6492L26.6612 11.5031V14.4912L23.8918 14.3396C23.8301 14.7979 23.7391 15.2519 23.6194 15.6988L26.247 16.5919L25.0722 19.3554L22.5752 18.1815C22.338 18.5819 22.0745 18.9665 21.7864 19.3329L23.8521 21.1359L21.6842 23.2478L19.8342 21.2314C19.4558 21.5076 19.0596 21.759 18.6481 21.984L19.8512 24.4217L17.0137 25.545L16.0944 22.9894C15.637 23.1078 15.1727 23.1979 14.704 23.259L14.8572 25.9551H11.7927L11.9459 23.259C11.4772 23.1979 11.0129 23.1078 10.5555 22.9894L9.63618 25.545L6.79867 24.4217L8.01313 21.984C7.60502 21.7531 7.21261 21.4961 6.8384 21.2145L4.98834 23.2309L2.82048 21.119L4.88619 19.316C4.60459 18.9546 4.34679 18.5757 4.11439 18.1815L1.61738 19.3554L0.425626 16.5919L3.04181 15.6988C2.91946 15.2525 2.82844 14.7983 2.76941 14.3396L0 14.4912V11.4975L2.76941 11.6492C2.82895 11.1923 2.91996 10.7401 3.04181 10.2955L0.425626 9.40246L1.60036 6.639L4.11439 7.81291C4.344 7.4147 4.59993 7.03192 4.88052 6.66709ZM6.86677 12.9972C6.85174 14.1042 7.12748 15.1961 7.66697 16.1659C8.20646 17.1357 8.99122 17.9502 9.94437 18.5296C10.8975 19.1091 11.9864 19.4335 13.1043 19.4712C14.2223 19.509 15.3309 19.2587 16.3217 18.7448C17.3125 18.231 18.1515 17.4713 18.7565 16.5401C19.3615 15.6089 19.7117 14.5381 19.7729 13.4327C19.834 12.3272 19.6041 11.225 19.1055 10.234C18.6069 9.24293 17.8568 8.39707 16.9286 7.77921C15.8614 7.0746 14.6078 6.69748 13.3249 6.69517C12.4829 6.68953 11.6479 6.84793 10.8677 7.16137C10.0904 7.47102 9.38117 7.9269 8.77925 8.50377C8.17643 9.09062 7.69705 9.78986 7.36879 10.5611C7.04054 11.3323 6.86991 12.1603 6.86677 12.9972ZM154.281 6.25707L164.53 16.2998V6.75134H165.994V19.5969L155.745 9.57095V19.0464H154.281V6.25707ZM136.382 12.9185C136.333 13.9817 136.607 15.035 137.169 15.9428C137.73 16.8505 138.553 17.5712 139.532 18.0119C140.511 18.4526 141.6 18.5932 142.661 18.4157C143.721 18.2381 144.703 17.7504 145.481 17.0155C146.259 16.2806 146.797 15.332 147.025 14.292C147.253 13.252 147.162 12.1681 146.762 11.18C146.363 10.1919 145.674 9.3447 144.784 8.74761C143.893 8.15053 142.843 7.83086 141.768 7.82976C140.374 7.80256 139.026 8.32154 138.017 9.27365C137.008 10.2258 136.421 11.5339 136.382 12.9129V12.9185ZM148.617 12.9185C148.617 16.4571 145.513 19.2655 141.768 19.2655C138.022 19.2655 134.918 16.4571 134.918 12.9185C134.918 9.37999 138.022 6.54352 141.768 6.54352C145.513 6.54352 148.617 9.40245 148.617 12.9242V12.9185ZM128.795 9.15532C128.587 8.73903 128.263 8.39117 127.86 8.15389C127.457 7.91661 126.993 7.80012 126.525 7.81853C126.254 7.7995 125.983 7.83408 125.726 7.92022C125.469 8.00636 125.232 8.14233 125.03 8.32018C124.827 8.49803 124.662 8.71417 124.544 8.95595C124.427 9.19773 124.359 9.46028 124.345 9.72822C124.345 10.7898 125.48 11.2728 126.4 11.6492L127.274 12.0086C128.976 12.7107 130.429 13.5083 130.429 15.4686C130.345 16.4472 129.912 17.3644 129.208 18.0559C128.503 18.7474 127.573 19.168 126.583 19.2423C125.594 19.3167 124.61 19.0399 123.808 18.4616C123.006 17.8834 122.438 17.0413 122.206 16.0864L123.636 15.7101C123.714 16.3474 124.027 16.9337 124.515 17.3565C125.003 17.7794 125.632 18.0092 126.281 18.0017C126.959 18.034 127.623 17.8003 128.129 17.3514C128.634 16.9025 128.941 16.2744 128.982 15.6034C128.982 14.2216 127.779 13.6768 126.553 13.1601L125.758 12.8343C124.221 12.1771 122.921 11.447 122.921 9.68891C122.921 7.77921 124.623 6.55475 126.598 6.55475C127.288 6.53643 127.969 6.70457 128.569 7.04108C129.169 7.37759 129.665 7.86971 130.003 8.46445L128.795 9.15532ZM111.77 12.4524H112.218C113.869 12.4524 115.543 12.1603 115.543 10.2506C115.543 8.22855 113.954 8.03197 112.201 8.03197H111.764L111.77 12.4524ZM111.77 19.0577H110.305V6.77381H112.218C114.709 6.77381 117.025 7.39165 117.025 10.1439C117.025 12.0367 115.753 13.3735 113.716 13.5139L117.904 19.0296H116.111L112.138 13.6319H111.77V19.0577ZM97.8146 6.76257H104.625V8.03197H99.2845V11.6885H104.477V12.9972H99.2845V17.8276H104.625V19.097H97.8146V6.76257ZM87.2534 12.4355H88.2466C89.8639 12.4355 91.243 11.9805 91.243 10.1888C91.243 8.18362 89.5405 8.03758 87.8096 8.03758H87.2705L87.2534 12.4355ZM87.2534 19.0914H85.7836V6.77381H87.9458C89.0808 6.77381 90.2612 6.80751 91.2032 7.42535C91.6648 7.73682 92.0419 8.15591 92.3012 8.64567C92.5605 9.13544 92.6941 9.68082 92.6901 10.2337C92.6913 10.7381 92.5809 11.2365 92.3666 11.6941C92.146 12.1491 91.8285 12.5515 91.4359 12.8736C90.5171 13.4835 89.4179 13.7704 88.3147 13.688H87.2534V19.0914ZM75.2054 8.88009V11.5874H79.1211V13.6768H75.2054V17.0076H79.2744V19.0914H72.7424V6.77381H79.2744V8.85763L75.2054 8.88009ZM62.5217 14.1205L65.5238 6.81874H68.1683L62.5671 19.7373L57.0169 6.75696H59.6615L62.5217 14.1205ZM52.4542 19.0914H49.9912V6.77381H52.4542V19.0914ZM41.8079 16.9851H45.2867V19.0689H39.3336V6.77381H41.8079V16.9851Z" fill="white"/>
</svg>
