<svg width="109" height="24" viewBox="0 0 109 24" fill="none" xmlns="http://www.w3.org/2000/svg">
<g clip-path="url(#clip0_3389_21724)">
<path d="M45.2848 4.63369V18.5345H42.8657V7.62623H42.8335L38.5115 18.5345H36.8988L32.4799 7.62623H32.4477V18.5345H30.2222V4.63369H33.7056L37.7051 14.9306H37.7696L41.9949 4.63369H45.2848ZM47.2845 5.69556C47.2845 5.30943 47.4136 4.98765 47.7038 4.73023C47.9941 4.4728 48.3167 4.34409 48.7037 4.34409C49.123 4.34409 49.4778 4.4728 49.7359 4.73023C49.9939 4.98765 50.1552 5.30943 50.1552 5.69556C50.1552 6.08169 50.0261 6.40347 49.7359 6.66089C49.4456 6.91832 49.123 7.04703 48.7037 7.04703C48.2844 7.04703 47.9619 6.91832 47.7038 6.66089C47.4458 6.37129 47.2845 6.04952 47.2845 5.69556ZM49.8971 8.55938V18.5345H47.5426V8.55938H49.8971ZM57.0253 16.8291C57.3801 16.8291 57.7671 16.7647 58.1864 16.5716C58.6057 16.4108 58.9928 16.1855 59.3476 15.9281V18.1162C58.9605 18.3414 58.5412 18.5023 58.0574 18.5988C57.5736 18.6954 57.0575 18.7597 56.4769 18.7597C54.9933 18.7597 53.7999 18.3092 52.8967 17.3761C51.9614 16.4429 51.5098 15.2524 51.5098 13.8365C51.5098 12.2276 51.9936 10.9084 52.929 9.87867C53.8644 8.84898 55.1868 8.33414 56.9285 8.33414C57.3801 8.33414 57.8316 8.39849 58.2509 8.49503C58.7025 8.59156 59.0573 8.75245 59.3153 8.88116V11.1336C58.9605 10.8762 58.5735 10.6509 58.2187 10.5222C57.8316 10.3935 57.4446 10.297 57.0575 10.297C56.1221 10.297 55.3803 10.5866 54.7997 11.198C54.2192 11.8093 53.9611 12.6138 53.9611 13.6435C53.9611 14.641 54.2514 15.4454 54.7997 15.9924C55.3481 16.5395 56.0899 16.8291 57.0253 16.8291ZM66.0241 8.39849C66.2177 8.39849 66.3789 8.39849 66.5402 8.43067C66.7015 8.46285 66.8305 8.49503 66.9272 8.5272V10.9084C66.7982 10.8118 66.637 10.7153 66.3789 10.6509C66.1209 10.5866 65.8629 10.5222 65.5081 10.5222C64.9275 10.5222 64.4437 10.7796 64.0566 11.2623C63.6696 11.745 63.4438 12.4851 63.4438 13.5148V18.5345H61.0893V8.55938H63.4438V10.1361H63.4761C63.7018 9.58907 64.0244 9.17076 64.4437 8.84898C64.8952 8.55938 65.4113 8.39849 66.0241 8.39849ZM67.0563 13.7078C67.0563 12.0668 67.5401 10.7475 68.4432 9.78214C69.3786 8.8168 70.6687 8.33414 72.3137 8.33414C73.8619 8.33414 75.0875 8.78463 75.9584 9.71778C76.8292 10.6509 77.2808 11.9059 77.2808 13.4826C77.2808 15.0915 76.797 16.3786 75.8939 17.3439C74.9585 18.3092 73.7006 18.7919 72.0879 18.7919C70.5397 18.7919 69.314 18.3414 68.4109 17.4404C67.5078 16.5073 67.0563 15.2524 67.0563 13.7078ZM69.5076 13.6113C69.5076 14.641 69.7333 15.4454 70.2172 15.9924C70.701 16.5395 71.3783 16.8291 72.2492 16.8291C73.0878 16.8291 73.7651 16.5716 74.2167 15.9924C74.6682 15.4454 74.894 14.641 74.894 13.5469C74.894 12.4851 74.6682 11.6806 74.2167 11.1014C73.7651 10.5544 73.0878 10.2648 72.2814 10.2648C71.4106 10.2648 70.7655 10.5544 70.2817 11.1336C69.7333 11.745 69.5076 12.5494 69.5076 13.6113ZM80.7965 11.198C80.7965 11.5197 80.8932 11.8093 81.119 12.0024C81.3448 12.1955 81.7963 12.4207 82.5382 12.7103C83.4736 13.0964 84.1509 13.5148 84.5057 13.9652C84.8927 14.4479 85.0863 14.9949 85.0863 15.6707C85.0863 16.6038 84.7315 17.3439 83.9896 17.9231C83.28 18.5023 82.2802 18.7597 81.0545 18.7597C80.6352 18.7597 80.1837 18.6954 79.6676 18.5988C79.1515 18.5023 78.7322 18.3736 78.3774 18.2127V15.8959C78.7967 16.1855 79.2805 16.4429 79.7643 16.6038C80.2482 16.7647 80.6997 16.8612 81.119 16.8612C81.6351 16.8612 82.0544 16.7969 82.2802 16.636C82.5382 16.4751 82.6672 16.2499 82.6672 15.8959C82.6672 15.5741 82.5382 15.3167 82.2802 15.0593C82.0221 14.834 81.5061 14.5766 80.7965 14.287C79.9256 13.9331 79.3128 13.5148 78.958 13.0643C78.6032 12.6138 78.4097 12.0346 78.4097 11.3267C78.4097 10.4257 78.7645 9.6856 79.4741 9.1064C80.1836 8.5272 81.119 8.2376 82.2479 8.2376C82.6027 8.2376 82.9897 8.26978 83.4091 8.36632C83.8284 8.46285 84.2154 8.55938 84.5057 8.65592V10.9405C84.1831 10.7475 83.8284 10.5544 83.4091 10.3935C82.9897 10.2326 82.5704 10.1683 82.1834 10.1683C81.7318 10.1683 81.377 10.2648 81.1513 10.4257C80.9255 10.6509 80.7965 10.8762 80.7965 11.198ZM86.0861 13.7078C86.0861 12.0668 86.57 10.7475 87.4731 9.78214C88.4084 8.8168 89.6986 8.33414 91.3435 8.33414C92.8917 8.33414 94.1174 8.78463 94.9882 9.71778C95.8591 10.6509 96.3107 11.9059 96.3107 13.4826C96.3107 15.0915 95.8268 16.3786 94.9237 17.3439C93.9884 18.3092 92.7305 18.7919 91.1178 18.7919C89.5696 18.7919 88.3439 18.3414 87.4408 17.4404C86.5699 16.5073 86.0861 15.2524 86.0861 13.7078ZM88.5374 13.6113C88.5374 14.641 88.7632 15.4454 89.247 15.9924C89.7308 16.5395 90.4082 16.8291 91.279 16.8291C92.1176 16.8291 92.795 16.5716 93.2465 15.9924C93.6981 15.4454 93.9239 14.641 93.9239 13.5469C93.9239 12.4851 93.6981 11.6806 93.2465 11.1014C92.795 10.5544 92.1176 10.2648 91.3113 10.2648C90.4404 10.2648 89.7953 10.5544 89.3115 11.1336C88.7955 11.745 88.5374 12.5494 88.5374 13.6113ZM104.148 10.49H100.633V18.5345H98.2459V10.49H96.5687V8.55938H98.2459V7.17574C98.2459 6.14605 98.6007 5.27725 99.278 4.60152C99.9554 3.92578 100.826 3.604 101.891 3.604C102.181 3.604 102.439 3.63618 102.665 3.63618C102.89 3.63618 103.084 3.70054 103.245 3.76489V5.79209C103.181 5.75992 103.019 5.69556 102.826 5.6312C102.632 5.56685 102.407 5.53467 102.149 5.53467C101.665 5.53467 101.278 5.69556 101.02 5.98516C100.762 6.27476 100.633 6.75743 100.633 7.33663V8.5272H104.148V6.27476L106.503 5.56685V8.5272H108.89V10.4579H106.503V15.1236C106.503 15.735 106.632 16.1533 106.825 16.4108C107.051 16.6682 107.406 16.7969 107.89 16.7969C108.019 16.7969 108.18 16.7647 108.374 16.7004C108.567 16.636 108.728 16.5716 108.857 16.4751V18.4058C108.696 18.5023 108.47 18.5667 108.116 18.631C107.761 18.6954 107.438 18.7276 107.084 18.7276C106.084 18.7276 105.342 18.4701 104.858 17.9553C104.374 17.4404 104.116 16.636 104.116 15.5741L104.148 10.49Z" fill="white"/>
<path d="M11.0304 0.00012207H-0.000488281V11.0049H11.0304V0.00012207Z" fill="#F25022"/>
<path d="M23.2228 0.00012207H12.1919V11.0049H23.2228V0.00012207Z" fill="#7FBA00"/>
<path d="M11.0304 12.1633H-0.000488281V23.1681H11.0304V12.1633Z" fill="#00A4EF"/>
<path d="M23.2228 12.1633H12.1919V23.1681H23.2228V12.1633Z" fill="#FFB900"/>
</g>
<defs>
<clipPath id="clip0_3389_21724">
<rect width="108.89" height="23.168" fill="white"/>
</clipPath>
</defs>
</svg>
