<svg width="362" height="348" viewBox="0 0 362 348" fill="none" xmlns="http://www.w3.org/2000/svg">
<g clip-path="url(#clip0_3389_21720)">
<rect width="362" height="348" fill="white"/>
<rect width="362" height="364.896" fill="#2F2F2F"/>
<path d="M109.282 104.875H104.748V78.7569C104.748 76.6935 104.875 74.1686 105.128 71.1821H105.02C104.585 72.9378 104.196 74.1957 103.852 74.9559L90.5487 104.875H88.3224L75.046 75.1731C74.6659 74.3043 74.2768 72.974 73.8786 71.1821H73.77C73.9148 72.7387 73.9872 75.2817 73.9872 78.8112V104.875H69.5889V65.9421H75.6162L87.5622 93.0921C88.4853 95.1736 89.0826 96.7302 89.3541 97.7619H89.517C90.2953 95.6261 90.9197 94.0333 91.3903 92.9835L103.581 65.9421H109.282V104.875ZM121.228 70.0146C120.432 70.0146 119.753 69.7431 119.192 69.2001C118.631 68.6571 118.35 67.9693 118.35 67.1367C118.35 66.3041 118.631 65.6163 119.192 65.0733C119.753 64.5122 120.432 64.2317 121.228 64.2317C122.043 64.2317 122.73 64.5122 123.292 65.0733C123.871 65.6163 124.16 66.3041 124.16 67.1367C124.16 67.9331 123.871 68.6119 123.292 69.173C122.73 69.7341 122.043 70.0146 121.228 70.0146ZM123.4 104.875H118.948V77.0736H123.4V104.875ZM151.365 103.599C149.229 104.884 146.695 105.527 143.763 105.527C139.799 105.527 136.595 104.242 134.152 101.672C131.726 99.0832 130.513 95.7347 130.513 91.626C130.513 87.0467 131.826 83.3724 134.45 80.6031C137.075 77.8157 140.577 76.422 144.957 76.422C147.401 76.422 149.555 76.8745 151.419 77.7795V82.3407C149.356 80.8927 147.147 80.1687 144.794 80.1687C141.953 80.1687 139.618 81.1914 137.79 83.2367C135.98 85.2639 135.075 87.9336 135.075 91.2459C135.075 94.5039 135.925 97.0741 137.627 98.9565C139.346 100.839 141.645 101.78 144.523 101.78C146.948 101.78 149.229 100.975 151.365 99.3638V103.599ZM172.596 81.5805C171.818 80.9832 170.695 80.6846 169.229 80.6846C167.329 80.6846 165.736 81.5805 164.451 83.3724C163.184 85.1643 162.55 87.6078 162.55 90.7029V104.875H158.098V77.0736H162.55V82.8023H162.659C163.293 80.8475 164.261 79.3271 165.564 78.2411C166.867 77.137 168.324 76.5849 169.935 76.5849C171.094 76.5849 171.981 76.7116 172.596 76.965V81.5805ZM188.289 105.527C184.18 105.527 180.895 104.233 178.433 101.644C175.99 99.038 174.768 95.5899 174.768 91.3002C174.768 86.6304 176.044 82.9833 178.596 80.3588C181.148 77.7343 184.596 76.422 188.94 76.422C193.085 76.422 196.316 77.6981 198.633 80.2502C200.968 82.8023 202.135 86.3408 202.135 90.8658C202.135 95.3003 200.877 98.857 198.361 101.536C195.864 104.196 192.506 105.527 188.289 105.527ZM188.614 80.1687C185.755 80.1687 183.492 81.1461 181.827 83.1009C180.162 85.0376 179.329 87.7164 179.329 91.1373C179.329 94.4315 180.171 97.0289 181.854 98.9294C183.537 100.83 185.791 101.78 188.614 101.78C191.492 101.78 193.701 100.848 195.239 98.9837C196.796 97.1194 197.574 94.4677 197.574 91.0287C197.574 87.5535 196.796 84.8747 195.239 82.9923C193.701 81.1099 191.492 80.1687 188.614 80.1687ZM207.565 103.871V99.0923C209.991 100.884 212.66 101.78 215.574 101.78C219.484 101.78 221.439 100.477 221.439 97.8705C221.439 97.1284 221.267 96.504 220.923 95.9972C220.597 95.4723 220.145 95.0107 219.566 94.6125C219.004 94.2143 218.335 93.8614 217.556 93.5537C216.796 93.2279 215.973 92.893 215.086 92.5491C213.855 92.0604 212.769 91.5717 211.828 91.083C210.905 90.5762 210.126 90.0151 209.493 89.3997C208.877 88.7662 208.407 88.0513 208.081 87.2549C207.773 86.4585 207.62 85.5263 207.62 84.4584C207.62 83.1552 207.918 82.0059 208.515 81.0104C209.113 79.9968 209.909 79.1551 210.905 78.4854C211.9 77.7976 213.031 77.2818 214.298 76.9379C215.584 76.594 216.905 76.422 218.262 76.422C220.67 76.422 222.824 76.8383 224.724 77.6709V82.1778C222.679 80.8384 220.326 80.1687 217.665 80.1687C216.832 80.1687 216.081 80.2683 215.412 80.4674C214.742 80.6484 214.163 80.9108 213.674 81.2547C213.203 81.5986 212.832 82.0149 212.561 82.5036C212.307 82.9742 212.181 83.4991 212.181 84.0783C212.181 84.8023 212.307 85.4087 212.561 85.8974C212.832 86.3861 213.221 86.8205 213.728 87.2006C214.235 87.5807 214.85 87.9246 215.574 88.2323C216.298 88.54 217.122 88.8748 218.045 89.2368C219.276 89.7074 220.38 90.1961 221.357 90.7029C222.335 91.1916 223.167 91.7527 223.855 92.3862C224.543 93.0016 225.068 93.7166 225.43 94.5311C225.81 95.3456 226 96.3139 226 97.4361C226 98.8117 225.692 100.006 225.077 101.02C224.48 102.034 223.674 102.875 222.661 103.545C221.647 104.215 220.48 104.712 219.158 105.038C217.837 105.364 216.452 105.527 215.004 105.527C212.145 105.527 209.665 104.975 207.565 103.871ZM244.489 105.527C240.38 105.527 237.095 104.233 234.634 101.644C232.19 99.038 230.968 95.5899 230.968 91.3002C230.968 86.6304 232.245 82.9833 234.797 80.3588C237.349 77.7343 240.797 76.422 245.141 76.422C249.286 76.422 252.517 77.6981 254.833 80.2502C257.168 82.8023 258.336 86.3408 258.336 90.8658C258.336 95.3003 257.078 98.857 254.562 101.536C252.064 104.196 248.706 105.527 244.489 105.527ZM244.815 80.1687C241.955 80.1687 239.693 81.1461 238.027 83.1009C236.362 85.0376 235.53 87.7164 235.53 91.1373C235.53 94.4315 236.371 97.0289 238.055 98.9294C239.738 100.83 241.991 101.78 244.815 101.78C247.693 101.78 249.901 100.848 251.44 98.9837C252.996 97.1194 253.774 94.4677 253.774 91.0287C253.774 87.5535 252.996 84.8747 251.44 82.9923C249.901 81.1099 247.693 80.1687 244.815 80.1687ZM278.155 67.6254C277.286 67.1367 276.3 66.8924 275.196 66.8924C272.083 66.8924 270.526 68.8562 270.526 72.7839V77.0736H277.042V80.8746H270.526V104.875H266.101V80.8746H261.349V77.0736H266.101V72.5667C266.101 69.6526 266.942 67.3539 268.626 65.6706C270.309 63.9692 272.408 63.1185 274.924 63.1185C276.282 63.1185 277.359 63.2814 278.155 63.6072V67.6254ZM295.776 104.604C294.726 105.183 293.341 105.473 291.622 105.473C286.753 105.473 284.318 102.758 284.318 97.3275V80.8746H279.54V77.0736H284.318V70.2861L288.771 68.8472V77.0736H295.776V80.8746H288.771V96.5402C288.771 98.4045 289.088 99.7348 289.721 100.531C290.355 101.328 291.404 101.726 292.871 101.726C293.993 101.726 294.961 101.418 295.776 100.803V104.604ZM101.816 141.16V155.875H97.2547V116.942H107.952C112.115 116.942 115.337 117.956 117.617 119.983C119.916 122.01 121.065 124.87 121.065 128.562C121.065 132.255 119.789 135.277 117.237 137.63C114.703 139.983 111.273 141.16 106.947 141.16H101.816ZM101.816 121.069V137.033H106.594C109.744 137.033 112.142 136.318 113.789 134.888C115.454 133.44 116.287 131.404 116.287 128.78C116.287 123.639 113.246 121.069 107.164 121.069H101.816ZM145.935 155.875H141.482V151.531H141.373C139.437 154.862 136.586 156.527 132.821 156.527C130.052 156.527 127.88 155.794 126.305 154.328C124.749 152.862 123.97 150.916 123.97 148.49C123.97 143.296 127.029 140.273 133.147 139.422L141.482 138.255C141.482 133.531 139.573 131.169 135.753 131.169C132.405 131.169 129.382 132.309 126.685 134.59V130.028C129.418 128.291 132.568 127.422 136.134 127.422C142.668 127.422 145.935 130.879 145.935 137.793V155.875ZM141.482 141.812L134.776 142.735C132.713 143.024 131.156 143.54 130.106 144.282C129.056 145.006 128.532 146.3 128.532 148.165C128.532 149.522 129.011 150.635 129.97 151.504C130.948 152.355 132.242 152.78 133.853 152.78C136.061 152.78 137.88 152.011 139.31 150.472C140.758 148.916 141.482 146.952 141.482 144.581V141.812ZM168.822 132.581C168.044 131.983 166.922 131.685 165.456 131.685C163.555 131.685 161.962 132.581 160.677 134.372C159.41 136.164 158.777 138.608 158.777 141.703V155.875H154.324V128.074H158.777V133.802H158.885C159.519 131.847 160.487 130.327 161.79 129.241C163.093 128.137 164.551 127.585 166.161 127.585C167.32 127.585 168.207 127.712 168.822 127.965V132.581ZM188.18 155.604C187.13 156.183 185.746 156.473 184.026 156.473C179.157 156.473 176.723 153.758 176.723 148.328V131.875H171.944V128.074H176.723V121.286L181.175 119.847V128.074H188.18V131.875H181.175V147.54C181.175 149.404 181.492 150.735 182.126 151.531C182.759 152.328 183.809 152.726 185.275 152.726C186.397 152.726 187.366 152.418 188.18 151.803V155.604ZM217.203 155.875H212.751V140.02C212.751 134.119 210.597 131.169 206.289 131.169C204.063 131.169 202.217 132.01 200.751 133.694C199.303 135.359 198.579 137.468 198.579 140.02V155.875H194.126V128.074H198.579V132.689H198.687C200.787 129.178 203.828 127.422 207.81 127.422C210.85 127.422 213.176 128.408 214.787 130.381C216.398 132.336 217.203 135.169 217.203 138.879V155.875ZM247.964 143.088H228.335C228.407 146.183 229.24 148.572 230.833 150.255C232.426 151.938 234.616 152.78 237.403 152.78C240.534 152.78 243.412 151.748 246.037 149.685V153.866C243.593 155.64 240.362 156.527 236.344 156.527C232.417 156.527 229.33 155.269 227.086 152.753C224.842 150.219 223.719 146.662 223.719 142.083C223.719 137.757 224.941 134.237 227.385 131.522C229.846 128.789 232.896 127.422 236.534 127.422C240.172 127.422 242.987 128.599 244.978 130.952C246.969 133.305 247.964 136.572 247.964 140.753V143.088ZM243.403 139.314C243.385 136.744 242.761 134.743 241.53 133.314C240.317 131.884 238.625 131.169 236.453 131.169C234.353 131.169 232.57 131.92 231.104 133.422C229.638 134.924 228.733 136.888 228.389 139.314H243.403ZM269.223 132.581C268.445 131.983 267.322 131.685 265.856 131.685C263.956 131.685 262.363 132.581 261.078 134.372C259.811 136.164 259.177 138.608 259.177 141.703V155.875H254.725V128.074H259.177V133.802H259.286C259.919 131.847 260.888 130.327 262.191 129.241C263.494 128.137 264.951 127.585 266.562 127.585C267.721 127.585 268.607 127.712 269.223 127.965V132.581Z" fill="white"/>
<path d="M99.2942 189.928V188.136C99.4993 188.317 99.7436 188.48 100.027 188.625C100.317 188.77 100.618 188.893 100.932 188.996C101.252 189.092 101.572 189.168 101.892 189.222C102.211 189.276 102.507 189.304 102.778 189.304C103.714 189.304 104.41 189.132 104.869 188.788C105.334 188.438 105.566 187.937 105.566 187.285C105.566 186.935 105.487 186.631 105.331 186.371C105.18 186.112 104.969 185.877 104.697 185.665C104.426 185.448 104.103 185.243 103.729 185.05C103.361 184.851 102.962 184.643 102.534 184.426C102.082 184.196 101.659 183.964 101.267 183.729C100.875 183.493 100.534 183.234 100.244 182.95C99.9548 182.667 99.7255 182.347 99.5566 181.991C99.3937 181.629 99.3123 181.207 99.3123 180.724C99.3123 180.133 99.442 179.62 99.7014 179.186C99.9608 178.745 100.302 178.383 100.724 178.1C101.146 177.816 101.626 177.605 102.163 177.466C102.706 177.327 103.258 177.258 103.819 177.258C105.098 177.258 106.03 177.412 106.616 177.72V179.43C105.849 178.899 104.866 178.634 103.665 178.634C103.333 178.634 103.002 178.67 102.67 178.742C102.338 178.809 102.042 178.92 101.783 179.077C101.523 179.234 101.312 179.436 101.149 179.683C100.987 179.931 100.905 180.232 100.905 180.588C100.905 180.92 100.965 181.207 101.086 181.448C101.213 181.689 101.397 181.91 101.638 182.109C101.879 182.308 102.172 182.501 102.516 182.688C102.866 182.875 103.267 183.08 103.72 183.303C104.184 183.533 104.625 183.774 105.041 184.027C105.457 184.281 105.822 184.561 106.136 184.869C106.45 185.177 106.697 185.518 106.878 185.892C107.065 186.266 107.159 186.694 107.159 187.177C107.159 187.816 107.032 188.359 106.779 188.806C106.531 189.246 106.193 189.605 105.765 189.883C105.343 190.16 104.854 190.359 104.299 190.48C103.744 190.607 103.159 190.67 102.543 190.67C102.338 190.67 102.085 190.652 101.783 190.616C101.481 190.586 101.174 190.537 100.86 190.471C100.546 190.411 100.247 190.335 99.9639 190.245C99.6863 190.148 99.4631 190.043 99.2942 189.928ZM110.308 178.833C110.043 178.833 109.816 178.742 109.629 178.561C109.442 178.38 109.349 178.151 109.349 177.873C109.349 177.596 109.442 177.367 109.629 177.186C109.816 176.999 110.043 176.905 110.308 176.905C110.58 176.905 110.809 176.999 110.996 177.186C111.189 177.367 111.285 177.596 111.285 177.873C111.285 178.139 111.189 178.365 110.996 178.552C110.809 178.739 110.58 178.833 110.308 178.833ZM111.032 190.453H109.548V181.186H111.032V190.453ZM115.521 190.453H114.037V176.733H115.521V190.453ZM125.811 181.186L122.118 190.453H120.661L117.15 181.186H118.779L121.132 187.919C121.307 188.414 121.415 188.845 121.458 189.213H121.494C121.554 188.748 121.651 188.329 121.783 187.955L124.245 181.186H125.811ZM134.752 186.19H128.209C128.233 187.222 128.511 188.018 129.042 188.58C129.572 189.141 130.302 189.421 131.232 189.421C132.275 189.421 133.235 189.077 134.11 188.389V189.783C133.295 190.374 132.218 190.67 130.879 190.67C129.569 190.67 128.541 190.251 127.793 189.412C127.044 188.567 126.67 187.382 126.67 185.855C126.67 184.414 127.078 183.24 127.892 182.335C128.713 181.424 129.729 180.968 130.942 180.968C132.155 180.968 133.093 181.361 133.757 182.145C134.42 182.929 134.752 184.018 134.752 185.412V186.19ZM133.232 184.932C133.226 184.076 133.017 183.409 132.607 182.932C132.203 182.456 131.639 182.217 130.915 182.217C130.215 182.217 129.621 182.468 129.132 182.969C128.643 183.469 128.342 184.124 128.227 184.932H133.232ZM141.838 182.688C141.579 182.489 141.205 182.389 140.716 182.389C140.083 182.389 139.552 182.688 139.123 183.285C138.701 183.883 138.49 184.697 138.49 185.729V190.453H137.006V181.186H138.49V183.095H138.526C138.737 182.444 139.06 181.937 139.494 181.575C139.929 181.207 140.414 181.023 140.951 181.023C141.337 181.023 141.633 181.065 141.838 181.149V182.688ZM148.734 190.453V177.475H152.318C156.891 177.475 159.178 179.584 159.178 183.801C159.178 185.804 158.541 187.415 157.268 188.634C156.001 189.847 154.303 190.453 152.173 190.453H148.734ZM150.255 178.851V189.077H152.191C153.893 189.077 155.217 188.622 156.164 187.711C157.112 186.8 157.585 185.509 157.585 183.837C157.585 180.513 155.817 178.851 152.282 178.851H150.255ZM168.165 190.453H166.68V189.005H166.644C165.999 190.115 165.048 190.67 163.794 190.67C162.87 190.67 162.146 190.426 161.622 189.937C161.103 189.448 160.843 188.8 160.843 187.991C160.843 186.26 161.863 185.252 163.902 184.969L166.68 184.579C166.68 183.005 166.044 182.217 164.771 182.217C163.655 182.217 162.647 182.597 161.748 183.358V181.837C162.659 181.258 163.709 180.968 164.898 180.968C167.076 180.968 168.165 182.121 168.165 184.426V190.453ZM166.68 185.765L164.445 186.073C163.757 186.169 163.238 186.341 162.889 186.589C162.539 186.83 162.364 187.261 162.364 187.883C162.364 188.335 162.523 188.706 162.843 188.996C163.169 189.279 163.6 189.421 164.137 189.421C164.873 189.421 165.48 189.165 165.956 188.652C166.439 188.133 166.68 187.478 166.68 186.688V185.765ZM175.26 190.362C174.91 190.555 174.448 190.652 173.875 190.652C172.252 190.652 171.441 189.747 171.441 187.937V182.453H169.848V181.186H171.441V178.923L172.925 178.444V181.186H175.26V182.453H172.925V187.675C172.925 188.296 173.031 188.739 173.242 189.005C173.453 189.27 173.803 189.403 174.292 189.403C174.666 189.403 174.988 189.301 175.26 189.095V190.362ZM183.875 190.453H182.391V189.005H182.355C181.709 190.115 180.759 190.67 179.504 190.67C178.581 190.67 177.857 190.426 177.332 189.937C176.813 189.448 176.554 188.8 176.554 187.991C176.554 186.26 177.574 185.252 179.613 184.969L182.391 184.579C182.391 183.005 181.755 182.217 180.482 182.217C179.366 182.217 178.358 182.597 177.459 183.358V181.837C178.37 181.258 179.42 180.968 180.608 180.968C182.786 180.968 183.875 182.121 183.875 184.426V190.453ZM182.391 185.765L180.156 186.073C179.468 186.169 178.949 186.341 178.599 186.589C178.249 186.83 178.074 187.261 178.074 187.883C178.074 188.335 178.234 188.706 178.554 188.996C178.88 189.279 179.311 189.421 179.848 189.421C180.584 189.421 181.191 189.165 181.667 188.652C182.15 188.133 182.391 187.478 182.391 186.688V185.765ZM202.003 190.453H200.319L198.944 186.815H193.441L192.147 190.453H190.455L195.432 177.475H197.007L202.003 190.453ZM198.446 185.448L196.41 179.919C196.343 179.738 196.277 179.448 196.211 179.05H196.174C196.114 179.418 196.045 179.708 195.966 179.919L193.948 185.448H198.446ZM211.415 190.453H209.93V185.168C209.93 183.201 209.212 182.217 207.776 182.217C207.034 182.217 206.419 182.498 205.93 183.059C205.448 183.614 205.206 184.317 205.206 185.168V190.453H203.722V181.186H205.206V182.724H205.242C205.942 181.554 206.956 180.968 208.283 180.968C209.297 180.968 210.072 181.297 210.609 181.955C211.146 182.607 211.415 183.551 211.415 184.788V190.453ZM220.854 190.453H219.37V189.005H219.333C218.688 190.115 217.738 190.67 216.483 190.67C215.559 190.67 214.835 190.426 214.311 189.937C213.792 189.448 213.532 188.8 213.532 187.991C213.532 186.26 214.552 185.252 216.591 184.969L219.37 184.579C219.37 183.005 218.733 182.217 217.46 182.217C216.344 182.217 215.336 182.597 214.437 183.358V181.837C215.348 181.258 216.398 180.968 217.587 180.968C219.765 180.968 220.854 182.121 220.854 184.426V190.453ZM219.37 185.765L217.134 186.073C216.446 186.169 215.928 186.341 215.578 186.589C215.228 186.83 215.053 187.261 215.053 187.883C215.053 188.335 215.213 188.706 215.532 188.996C215.858 189.279 216.29 189.421 216.826 189.421C217.563 189.421 218.169 189.165 218.646 188.652C219.128 188.133 219.37 187.478 219.37 186.688V185.765ZM225.134 190.453H223.65V176.733H225.134V190.453ZM235.515 181.186L231.252 191.937C230.492 193.856 229.424 194.815 228.048 194.815C227.662 194.815 227.34 194.776 227.08 194.697V193.367C227.4 193.476 227.693 193.53 227.958 193.53C228.706 193.53 229.267 193.083 229.641 192.19L230.383 190.435L226.763 181.186H228.41L230.917 188.317C230.948 188.408 231.011 188.643 231.107 189.023H231.162C231.192 188.878 231.252 188.649 231.343 188.335L233.976 181.186H235.515ZM241.47 190.362C241.12 190.555 240.658 190.652 240.085 190.652C238.462 190.652 237.651 189.747 237.651 187.937V182.453H236.058V181.186H237.651V178.923L239.135 178.444V181.186H241.47V182.453H239.135V187.675C239.135 188.296 239.24 188.739 239.452 189.005C239.663 189.27 240.013 189.403 240.501 189.403C240.875 189.403 241.198 189.301 241.47 189.095V190.362ZM244.212 178.833C243.946 178.833 243.72 178.742 243.533 178.561C243.346 178.38 243.252 178.151 243.252 177.873C243.252 177.596 243.346 177.367 243.533 177.186C243.72 176.999 243.946 176.905 244.212 176.905C244.483 176.905 244.713 176.999 244.9 177.186C245.093 177.367 245.189 177.596 245.189 177.873C245.189 178.139 245.093 178.365 244.9 178.552C244.713 178.739 244.483 178.833 244.212 178.833ZM244.936 190.453H243.452V181.186H244.936V190.453ZM254.257 190.028C253.545 190.456 252.701 190.67 251.723 190.67C250.402 190.67 249.334 190.242 248.52 189.385C247.711 188.522 247.307 187.406 247.307 186.036C247.307 184.51 247.744 183.285 248.619 182.362C249.494 181.433 250.661 180.968 252.121 180.968C252.936 180.968 253.654 181.119 254.275 181.421V182.941C253.588 182.459 252.852 182.217 252.067 182.217C251.12 182.217 250.342 182.558 249.732 183.24C249.129 183.916 248.827 184.806 248.827 185.91C248.827 186.996 249.111 187.853 249.678 188.48C250.251 189.107 251.017 189.421 251.977 189.421C252.785 189.421 253.545 189.153 254.257 188.616V190.028ZM255.941 190.118V188.525C256.749 189.123 257.639 189.421 258.61 189.421C259.914 189.421 260.565 188.987 260.565 188.118C260.565 187.871 260.508 187.662 260.393 187.494C260.285 187.319 260.134 187.165 259.941 187.032C259.754 186.899 259.53 186.782 259.271 186.679C259.018 186.57 258.743 186.459 258.447 186.344C258.037 186.181 257.675 186.018 257.361 185.855C257.054 185.687 256.794 185.5 256.583 185.294C256.378 185.083 256.221 184.845 256.113 184.579C256.01 184.314 255.959 184.003 255.959 183.647C255.959 183.213 256.058 182.83 256.257 182.498C256.456 182.16 256.722 181.88 257.054 181.656C257.386 181.427 257.763 181.255 258.185 181.14C258.613 181.026 259.054 180.968 259.506 180.968C260.309 180.968 261.027 181.107 261.66 181.385V182.887C260.978 182.441 260.194 182.217 259.307 182.217C259.03 182.217 258.779 182.251 258.556 182.317C258.333 182.377 258.14 182.465 257.977 182.579C257.82 182.694 257.696 182.833 257.606 182.996C257.521 183.153 257.479 183.328 257.479 183.521C257.479 183.762 257.521 183.964 257.606 184.127C257.696 184.29 257.826 184.435 257.995 184.561C258.164 184.688 258.369 184.803 258.61 184.905C258.852 185.008 259.126 185.119 259.434 185.24C259.844 185.397 260.212 185.56 260.538 185.729C260.864 185.892 261.141 186.079 261.371 186.29C261.6 186.495 261.775 186.733 261.895 187.005C262.022 187.276 262.086 187.599 262.086 187.973C262.086 188.432 261.983 188.83 261.778 189.168C261.579 189.506 261.31 189.786 260.972 190.009C260.635 190.233 260.245 190.399 259.805 190.507C259.365 190.616 258.903 190.67 258.42 190.67C257.467 190.67 256.64 190.486 255.941 190.118Z" fill="white"/>
<g clip-path="url(#clip1_3389_21720)">
<path d="M172.285 267.634V281.534H169.866V270.626H169.833L165.511 281.534H163.899L159.48 270.626H159.448V281.534H157.222V267.634H160.706L164.705 277.931H164.77L168.995 267.634H172.285V267.634ZM174.285 268.696C174.285 268.309 174.414 267.988 174.704 267.73C174.994 267.473 175.317 267.344 175.704 267.344C176.123 267.344 176.478 267.473 176.736 267.73C176.994 267.988 177.155 268.309 177.155 268.696C177.155 269.082 177.026 269.403 176.736 269.661C176.446 269.918 176.123 270.047 175.704 270.047C175.284 270.047 174.962 269.918 174.704 269.661C174.446 269.371 174.285 269.05 174.285 268.696ZM176.897 271.559V281.534H174.543V271.559H176.897ZM184.025 279.829C184.38 279.829 184.767 279.765 185.186 279.572C185.606 279.411 185.993 279.186 186.348 278.928V281.116C185.961 281.341 185.541 281.502 185.057 281.599C184.574 281.695 184.058 281.76 183.477 281.76C181.993 281.76 180.8 281.309 179.897 280.376C178.961 279.443 178.51 278.252 178.51 276.837C178.51 275.228 178.994 273.908 179.929 272.879C180.864 271.849 182.187 271.334 183.928 271.334C184.38 271.334 184.832 271.398 185.251 271.495C185.702 271.592 186.057 271.752 186.315 271.881V274.134C185.961 273.876 185.573 273.651 185.219 273.522C184.832 273.394 184.445 273.297 184.058 273.297C183.122 273.297 182.38 273.587 181.8 274.198C181.219 274.809 180.961 275.614 180.961 276.643C180.961 277.641 181.251 278.445 181.8 278.992C182.348 279.539 183.09 279.829 184.025 279.829ZM193.024 271.398C193.218 271.398 193.379 271.398 193.54 271.431C193.701 271.463 193.83 271.495 193.927 271.527V273.908C193.798 273.812 193.637 273.715 193.379 273.651C193.121 273.587 192.863 273.522 192.508 273.522C191.927 273.522 191.444 273.78 191.057 274.262C190.67 274.745 190.444 275.485 190.444 276.515V281.534H188.089V271.559H190.444V273.136H190.476C190.702 272.589 191.024 272.171 191.444 271.849C191.895 271.559 192.411 271.398 193.024 271.398ZM194.056 276.708C194.056 275.067 194.54 273.747 195.443 272.782C196.379 271.817 197.669 271.334 199.314 271.334C200.862 271.334 202.088 271.785 202.958 272.718C203.829 273.651 204.281 274.906 204.281 276.483C204.281 278.091 203.797 279.379 202.894 280.344C201.958 281.309 200.701 281.792 199.088 281.792C197.54 281.792 196.314 281.341 195.411 280.44C194.508 279.507 194.056 278.252 194.056 276.708ZM196.508 276.611C196.508 277.641 196.733 278.445 197.217 278.992C197.701 279.539 198.378 279.829 199.249 279.829C200.088 279.829 200.765 279.572 201.217 278.992C201.668 278.445 201.894 277.641 201.894 276.547C201.894 275.485 201.668 274.681 201.217 274.101C200.765 273.554 200.088 273.265 199.281 273.265C198.411 273.265 197.765 273.554 197.282 274.134C196.733 274.745 196.508 275.549 196.508 276.611ZM207.796 274.198C207.796 274.52 207.893 274.809 208.119 275.002C208.345 275.195 208.796 275.421 209.538 275.71C210.474 276.096 211.151 276.515 211.506 276.965C211.893 277.448 212.086 277.995 212.086 278.671C212.086 279.604 211.731 280.344 210.99 280.923C210.28 281.502 209.28 281.76 208.055 281.76C207.635 281.76 207.184 281.695 206.668 281.599C206.152 281.502 205.732 281.374 205.377 281.213V278.896C205.797 279.186 206.281 279.443 206.764 279.604C207.248 279.765 207.7 279.861 208.119 279.861C208.635 279.861 209.054 279.797 209.28 279.636C209.538 279.475 209.667 279.25 209.667 278.896C209.667 278.574 209.538 278.317 209.28 278.059C209.022 277.834 208.506 277.577 207.796 277.287C206.926 276.933 206.313 276.515 205.958 276.064C205.603 275.614 205.41 275.035 205.41 274.327C205.41 273.426 205.764 272.686 206.474 272.106C207.184 271.527 208.119 271.238 209.248 271.238C209.603 271.238 209.99 271.27 210.409 271.366C210.828 271.463 211.215 271.559 211.506 271.656V273.941C211.183 273.747 210.828 273.554 210.409 273.394C209.99 273.233 209.57 273.168 209.183 273.168C208.732 273.168 208.377 273.265 208.151 273.426C207.925 273.651 207.796 273.876 207.796 274.198ZM213.086 276.708C213.086 275.067 213.57 273.747 214.473 272.782C215.408 271.817 216.699 271.334 218.344 271.334C219.892 271.334 221.117 271.785 221.988 272.718C222.859 273.651 223.311 274.906 223.311 276.483C223.311 278.091 222.827 279.379 221.924 280.344C220.988 281.309 219.73 281.792 218.118 281.792C216.57 281.792 215.344 281.341 214.441 280.44C213.57 279.507 213.086 278.252 213.086 276.708ZM215.537 276.611C215.537 277.641 215.763 278.445 216.247 278.992C216.731 279.539 217.408 279.829 218.279 279.829C219.118 279.829 219.795 279.572 220.247 278.992C220.698 278.445 220.924 277.641 220.924 276.547C220.924 275.485 220.698 274.681 220.247 274.101C219.795 273.554 219.118 273.265 218.311 273.265C217.44 273.265 216.795 273.554 216.312 274.134C215.795 274.745 215.537 275.549 215.537 276.611ZM231.148 273.49H227.633V281.534H225.246V273.49H223.569V271.559H225.246V270.176C225.246 269.146 225.601 268.277 226.278 267.602C226.955 266.926 227.826 266.604 228.891 266.604C229.181 266.604 229.439 266.636 229.665 266.636C229.89 266.636 230.084 266.701 230.245 266.765V268.792C230.181 268.76 230.019 268.696 229.826 268.631C229.632 268.567 229.407 268.535 229.149 268.535C228.665 268.535 228.278 268.696 228.02 268.985C227.762 269.275 227.633 269.757 227.633 270.337V271.527H231.148V269.275L233.503 268.567V271.527H235.89V273.458H233.503V278.124C233.503 278.735 233.632 279.153 233.825 279.411C234.051 279.668 234.406 279.797 234.89 279.797C235.019 279.797 235.18 279.765 235.374 279.7C235.567 279.636 235.728 279.572 235.857 279.475V281.406C235.696 281.502 235.47 281.567 235.116 281.631C234.761 281.695 234.438 281.728 234.084 281.728C233.084 281.728 232.342 281.47 231.858 280.955C231.374 280.44 231.116 279.636 231.116 278.574L231.148 273.49Z" fill="white"/>
<path d="M138.03 263H127V274.005H138.03V263Z" fill="#F25022"/>
<path d="M150.223 263H139.192V274.005H150.223V263Z" fill="#7FBA00"/>
<path d="M138.03 275.163H127V286.168H138.03V275.163Z" fill="#00A4EF"/>
<path d="M150.223 275.163H139.192V286.168H150.223V275.163Z" fill="#FFB900"/>
</g>
</g>
<defs>
<clipPath id="clip0_3389_21720">
<rect width="362" height="348" fill="white"/>
</clipPath>
<clipPath id="clip1_3389_21720">
<rect width="108.89" height="23.168" fill="white" transform="translate(127 263)"/>
</clipPath>
</defs>
</svg>
