<svg width="362" height="348" viewBox="0 0 362 348" fill="none" xmlns="http://www.w3.org/2000/svg">
<g clip-path="url(#clip0_3437_21517)">
<rect width="362" height="348" fill="white"/>
<rect width="362" height="348" fill="white"/>
<path d="M80.6389 103.246C77.761 104.767 74.1772 105.527 69.8875 105.527C64.3489 105.527 59.9144 103.744 56.584 100.178C53.2536 96.6126 51.5884 91.9337 51.5884 86.1417C51.5884 79.9153 53.4618 74.8835 57.2085 71.0463C60.9552 67.2091 65.7064 65.2905 71.4622 65.2905C75.1546 65.2905 78.2135 65.8245 80.6389 66.8924V71.7522C77.8515 70.1956 74.7745 69.4173 71.4079 69.4173C66.9372 69.4173 63.3082 70.9106 60.5208 73.8971C57.7515 76.8836 56.3668 80.8746 56.3668 85.8702C56.3668 90.6124 57.661 94.3953 60.2493 97.2189C62.8557 100.024 66.2675 101.427 70.4848 101.427C74.3944 101.427 77.7791 100.558 80.6389 98.8208V103.246ZM99.5896 105.527C95.4809 105.527 92.1958 104.233 89.7342 101.644C87.2907 99.038 86.0689 95.5899 86.0689 91.3002C86.0689 86.6304 87.345 82.9833 89.8971 80.3588C92.4492 77.7343 95.8972 76.422 100.241 76.422C104.386 76.422 107.617 77.6981 109.934 80.2502C112.269 82.8023 113.436 86.3408 113.436 90.8658C113.436 95.3003 112.178 98.857 109.662 101.536C107.164 104.196 103.807 105.527 99.5896 105.527ZM99.9154 80.1687C97.0556 80.1687 94.7931 81.1461 93.1279 83.1009C91.4627 85.0376 90.6301 87.7164 90.6301 91.1373C90.6301 94.4315 91.4718 97.0289 93.1551 98.9294C94.8384 100.83 97.0918 101.78 99.9154 101.78C102.793 101.78 105.002 100.848 106.54 98.9837C108.097 97.1194 108.875 94.4677 108.875 91.0287C108.875 87.5535 108.097 84.8747 106.54 82.9923C105.002 81.1099 102.793 80.1687 99.9154 80.1687ZM143.627 104.875H139.174V89.0196C139.174 83.119 137.02 80.1687 132.713 80.1687C130.486 80.1687 128.64 81.0104 127.174 82.6937C125.726 84.3589 125.002 86.4675 125.002 89.0196V104.875H120.549V77.0736H125.002V81.6891H125.111C127.21 78.1777 130.251 76.422 134.233 76.422C137.274 76.422 139.6 77.4085 141.211 79.3814C142.821 81.3362 143.627 84.1688 143.627 87.8793V104.875ZM150.36 103.871V99.0923C152.786 100.884 155.455 101.78 158.369 101.78C162.279 101.78 164.234 100.477 164.234 97.8705C164.234 97.1284 164.062 96.504 163.718 95.9972C163.392 95.4723 162.94 95.0107 162.36 94.6125C161.799 94.2143 161.13 93.8614 160.351 93.5537C159.591 93.2279 158.768 92.893 157.881 92.5491C156.65 92.0604 155.564 91.5717 154.623 91.083C153.7 90.5762 152.921 90.0151 152.288 89.3997C151.672 88.7662 151.202 88.0513 150.876 87.2549C150.568 86.4585 150.414 85.5263 150.414 84.4584C150.414 83.1552 150.713 82.0059 151.31 81.0104C151.908 79.9968 152.704 79.1551 153.7 78.4854C154.695 77.7976 155.826 77.2818 157.093 76.9379C158.378 76.594 159.7 76.422 161.057 76.422C163.465 76.422 165.618 76.8383 167.519 77.6709V82.1778C165.474 80.8384 163.121 80.1687 160.46 80.1687C159.627 80.1687 158.876 80.2683 158.206 80.4674C157.537 80.6484 156.958 80.9108 156.469 81.2547C155.998 81.5986 155.627 82.0149 155.356 82.5036C155.102 82.9742 154.976 83.4991 154.976 84.0783C154.976 84.8023 155.102 85.4087 155.356 85.8974C155.627 86.3861 156.016 86.8205 156.523 87.2006C157.03 87.5807 157.645 87.9246 158.369 88.2323C159.093 88.54 159.917 88.8748 160.84 89.2368C162.071 89.7074 163.175 90.1961 164.152 90.7029C165.13 91.1916 165.962 91.7527 166.65 92.3862C167.338 93.0016 167.863 93.7166 168.225 94.5311C168.605 95.3456 168.795 96.3139 168.795 97.4361C168.795 98.8117 168.487 100.006 167.872 101.02C167.275 102.034 166.469 102.875 165.456 103.545C164.442 104.215 163.274 104.712 161.953 105.038C160.632 105.364 159.247 105.527 157.799 105.527C154.939 105.527 152.46 104.975 150.36 103.871ZM198.144 104.875H193.692V100.477H193.583C191.737 103.844 188.877 105.527 185.004 105.527C178.379 105.527 175.067 101.581 175.067 93.6894V77.0736H179.492V92.9835C179.492 98.8479 181.736 101.78 186.225 101.78C188.397 101.78 190.18 100.984 191.574 99.3909C192.986 97.78 193.692 95.6804 193.692 93.0921V77.0736H198.144V104.875ZM211.611 104.875H207.158V63.7158H211.611V104.875ZM233.521 104.604C232.471 105.183 231.086 105.473 229.367 105.473C224.498 105.473 222.063 102.758 222.063 97.3275V80.8746H217.285V77.0736H222.063V70.2861L226.516 68.8472V77.0736H233.521V80.8746H226.516V96.5402C226.516 98.4045 226.833 99.7348 227.466 100.531C228.1 101.328 229.149 101.726 230.616 101.726C231.738 101.726 232.706 101.418 233.521 100.803V104.604ZM241.747 70.0146C240.951 70.0146 240.272 69.7431 239.711 69.2001C239.15 68.6571 238.869 67.9693 238.869 67.1367C238.869 66.3041 239.15 65.6163 239.711 65.0733C240.272 64.5122 240.951 64.2317 241.747 64.2317C242.562 64.2317 243.249 64.5122 243.81 65.0733C244.39 65.6163 244.679 66.3041 244.679 67.1367C244.679 67.9331 244.39 68.6119 243.81 69.173C243.249 69.7341 242.562 70.0146 241.747 70.0146ZM243.919 104.875H239.466V77.0736H243.919V104.875ZM276.01 104.875H271.558V89.0196C271.558 83.119 269.404 80.1687 265.096 80.1687C262.87 80.1687 261.024 81.0104 259.557 82.6937C258.109 84.3589 257.385 86.4675 257.385 89.0196V104.875H252.933V77.0736H257.385V81.6891H257.494C259.594 78.1777 262.634 76.422 266.616 76.422C269.657 76.422 271.983 77.4085 273.594 79.3814C275.205 81.3362 276.01 84.1688 276.01 87.8793V104.875ZM308.156 102.649C308.156 112.857 303.269 117.962 293.495 117.962C290.056 117.962 287.051 117.31 284.481 116.007V111.554C287.612 113.292 290.599 114.161 293.441 114.161C300.282 114.161 303.703 110.522 303.703 103.246V100.205H303.595C301.477 103.753 298.291 105.527 294.038 105.527C290.581 105.527 287.793 104.296 285.676 101.834C283.576 99.3547 282.526 96.0334 282.526 91.8704C282.526 87.1463 283.658 83.3905 285.92 80.6031C288.201 77.8157 291.314 76.422 295.26 76.422C299.006 76.422 301.785 77.9243 303.595 80.9289H303.703V77.0736H308.156V102.649ZM303.703 92.3048V88.2051C303.703 85.9969 302.952 84.1055 301.45 82.5308C299.966 80.9561 298.11 80.1687 295.884 80.1687C293.133 80.1687 290.979 81.1733 289.422 83.1824C287.866 85.1734 287.088 87.9698 287.088 91.5717C287.088 94.6668 287.83 97.1465 289.314 99.0108C290.816 100.857 292.798 101.78 295.26 101.78C297.757 101.78 299.785 100.893 301.341 99.1194C302.916 97.3456 303.703 95.0741 303.703 92.3048ZM101.816 141.16V155.875H97.2547V116.942H107.952C112.115 116.942 115.337 117.956 117.617 119.983C119.916 122.01 121.065 124.87 121.065 128.562C121.065 132.255 119.789 135.277 117.237 137.63C114.703 139.983 111.273 141.16 106.947 141.16H101.816ZM101.816 121.069V137.033H106.594C109.744 137.033 112.142 136.318 113.789 134.888C115.454 133.44 116.287 131.404 116.287 128.78C116.287 123.639 113.246 121.069 107.164 121.069H101.816ZM145.935 155.875H141.482V151.531H141.373C139.437 154.862 136.586 156.527 132.821 156.527C130.052 156.527 127.88 155.794 126.305 154.328C124.749 152.862 123.97 150.916 123.97 148.49C123.97 143.296 127.029 140.273 133.147 139.422L141.482 138.255C141.482 133.531 139.573 131.169 135.753 131.169C132.405 131.169 129.382 132.309 126.685 134.59V130.028C129.418 128.291 132.568 127.422 136.134 127.422C142.668 127.422 145.935 130.879 145.935 137.793V155.875ZM141.482 141.812L134.776 142.735C132.713 143.024 131.156 143.54 130.106 144.282C129.056 145.006 128.532 146.3 128.532 148.165C128.532 149.522 129.011 150.635 129.97 151.504C130.948 152.355 132.242 152.78 133.853 152.78C136.061 152.78 137.88 152.011 139.31 150.472C140.758 148.916 141.482 146.952 141.482 144.581V141.812ZM168.822 132.581C168.044 131.983 166.922 131.685 165.456 131.685C163.555 131.685 161.962 132.581 160.677 134.372C159.41 136.164 158.777 138.608 158.777 141.703V155.875H154.324V128.074H158.777V133.802H158.885C159.519 131.847 160.487 130.327 161.79 129.241C163.093 128.137 164.551 127.585 166.161 127.585C167.32 127.585 168.207 127.712 168.822 127.965V132.581ZM188.18 155.604C187.13 156.183 185.746 156.473 184.026 156.473C179.157 156.473 176.723 153.758 176.723 148.328V131.875H171.944V128.074H176.723V121.286L181.175 119.847V128.074H188.18V131.875H181.175V147.54C181.175 149.404 181.492 150.735 182.126 151.531C182.759 152.328 183.809 152.726 185.275 152.726C186.397 152.726 187.366 152.418 188.18 151.803V155.604ZM217.203 155.875H212.751V140.02C212.751 134.119 210.597 131.169 206.289 131.169C204.063 131.169 202.217 132.01 200.751 133.694C199.303 135.359 198.579 137.468 198.579 140.02V155.875H194.126V128.074H198.579V132.689H198.687C200.787 129.178 203.828 127.422 207.81 127.422C210.85 127.422 213.176 128.408 214.787 130.381C216.398 132.336 217.203 135.169 217.203 138.879V155.875ZM247.964 143.088H228.335C228.407 146.183 229.24 148.572 230.833 150.255C232.426 151.938 234.616 152.78 237.403 152.78C240.534 152.78 243.412 151.748 246.037 149.685V153.866C243.593 155.64 240.362 156.527 236.344 156.527C232.417 156.527 229.33 155.269 227.086 152.753C224.842 150.219 223.719 146.662 223.719 142.083C223.719 137.757 224.941 134.237 227.385 131.522C229.846 128.789 232.896 127.422 236.534 127.422C240.172 127.422 242.987 128.599 244.978 130.952C246.969 133.305 247.964 136.572 247.964 140.753V143.088ZM243.403 139.314C243.385 136.744 242.761 134.743 241.53 133.314C240.317 131.884 238.625 131.169 236.453 131.169C234.353 131.169 232.57 131.92 231.104 133.422C229.638 134.924 228.733 136.888 228.389 139.314H243.403ZM269.223 132.581C268.445 131.983 267.322 131.685 265.856 131.685C263.956 131.685 262.363 132.581 261.078 134.372C259.811 136.164 259.177 138.608 259.177 141.703V155.875H254.725V128.074H259.177V133.802H259.286C259.919 131.847 260.888 130.327 262.191 129.241C263.494 128.137 264.951 127.585 266.562 127.585C267.721 127.585 268.607 127.712 269.223 127.965V132.581Z" fill="#333333"/>
<path d="M116.797 185.548V190.453H115.276V177.475H118.842C120.23 177.475 121.304 177.813 122.064 178.489C122.83 179.165 123.213 180.118 123.213 181.349C123.213 182.579 122.788 183.587 121.937 184.371C121.093 185.156 119.949 185.548 118.507 185.548H116.797ZM116.797 178.851V184.172H118.39C119.439 184.172 120.239 183.934 120.788 183.457C121.343 182.975 121.62 182.296 121.62 181.421C121.62 179.708 120.607 178.851 118.58 178.851H116.797ZM131.503 190.453H130.019V189.005H129.983C129.337 190.115 128.387 190.67 127.132 190.67C126.209 190.67 125.485 190.426 124.96 189.937C124.441 189.448 124.182 188.8 124.182 187.991C124.182 186.26 125.201 185.252 127.241 184.969L130.019 184.579C130.019 183.005 129.382 182.217 128.109 182.217C126.993 182.217 125.986 182.597 125.087 183.358V181.837C125.998 181.258 127.047 180.968 128.236 180.968C130.414 180.968 131.503 182.121 131.503 184.426V190.453ZM130.019 185.765L127.784 186.073C127.096 186.169 126.577 186.341 126.227 186.589C125.877 186.83 125.702 187.261 125.702 187.883C125.702 188.335 125.862 188.706 126.182 188.996C126.507 189.279 126.939 189.421 127.476 189.421C128.212 189.421 128.818 189.165 129.295 188.652C129.778 188.133 130.019 187.478 130.019 186.688V185.765ZM139.132 182.688C138.873 182.489 138.499 182.389 138.01 182.389C137.377 182.389 136.846 182.688 136.417 183.285C135.995 183.883 135.784 184.697 135.784 185.729V190.453H134.3V181.186H135.784V183.095H135.82C136.031 182.444 136.354 181.937 136.788 181.575C137.223 181.207 137.708 181.023 138.245 181.023C138.631 181.023 138.927 181.065 139.132 181.149V182.688ZM145.585 190.362C145.235 190.555 144.773 190.652 144.2 190.652C142.577 190.652 141.766 189.747 141.766 187.937V182.453H140.173V181.186H141.766V178.923L143.25 178.444V181.186H145.585V182.453H143.25V187.675C143.25 188.296 143.356 188.739 143.567 189.005C143.778 189.27 144.128 189.403 144.617 189.403C144.991 189.403 145.313 189.301 145.585 189.095V190.362ZM155.259 190.453H153.775V185.168C153.775 183.201 153.057 182.217 151.621 182.217C150.879 182.217 150.264 182.498 149.775 183.059C149.292 183.614 149.051 184.317 149.051 185.168V190.453H147.567V181.186H149.051V182.724H149.087C149.787 181.554 150.801 180.968 152.128 180.968C153.142 180.968 153.917 181.297 154.454 181.955C154.991 182.607 155.259 183.551 155.259 184.788V190.453ZM165.513 186.19H158.97C158.994 187.222 159.272 188.018 159.802 188.58C160.333 189.141 161.063 189.421 161.993 189.421C163.036 189.421 163.996 189.077 164.87 188.389V189.783C164.056 190.374 162.979 190.67 161.64 190.67C160.33 190.67 159.302 190.251 158.554 189.412C157.805 188.567 157.431 187.382 157.431 185.855C157.431 184.414 157.839 183.24 158.653 182.335C159.474 181.424 160.49 180.968 161.703 180.968C162.916 180.968 163.854 181.361 164.517 182.145C165.181 182.929 165.513 184.018 165.513 185.412V186.19ZM163.993 184.932C163.987 184.076 163.778 183.409 163.368 182.932C162.964 182.456 162.4 182.217 161.676 182.217C160.976 182.217 160.382 182.468 159.893 182.969C159.404 183.469 159.103 184.124 158.988 184.932H163.993ZM172.599 182.688C172.34 182.489 171.966 182.389 171.477 182.389C170.843 182.389 170.313 182.688 169.884 183.285C169.462 183.883 169.251 184.697 169.251 185.729V190.453H167.766V181.186H169.251V183.095H169.287C169.498 182.444 169.821 181.937 170.255 181.575C170.69 181.207 171.175 181.023 171.712 181.023C172.098 181.023 172.394 181.065 172.599 181.149V182.688ZM189.957 190.453H188.093L181.414 180.109C181.245 179.849 181.106 179.578 180.998 179.294H180.943C180.992 179.572 181.016 180.166 181.016 181.077V190.453H179.495V177.475H181.468L187.966 187.656C188.238 188.079 188.413 188.368 188.491 188.525H188.527C188.467 188.151 188.437 187.515 188.437 186.616V177.475H189.957V190.453ZM200.609 186.19H194.066C194.09 187.222 194.367 188.018 194.898 188.58C195.429 189.141 196.159 189.421 197.088 189.421C198.132 189.421 199.092 189.077 199.966 188.389V189.783C199.152 190.374 198.075 190.67 196.735 190.67C195.426 190.67 194.398 190.251 193.649 189.412C192.901 188.567 192.527 187.382 192.527 185.855C192.527 184.414 192.934 183.24 193.749 182.335C194.57 181.424 195.586 180.968 196.799 180.968C198.012 180.968 198.95 181.361 199.613 182.145C200.277 182.929 200.609 184.018 200.609 185.412V186.19ZM199.088 184.932C199.082 184.076 198.874 183.409 198.464 182.932C198.06 182.456 197.496 182.217 196.772 182.217C196.072 182.217 195.478 182.468 194.989 182.969C194.5 183.469 194.198 184.124 194.084 184.932H199.088ZM207.161 190.362C206.811 190.555 206.35 190.652 205.776 190.652C204.153 190.652 203.342 189.747 203.342 187.937V182.453H201.749V181.186H203.342V178.923L204.826 178.444V181.186H207.161V182.453H204.826V187.675C204.826 188.296 204.932 188.739 205.143 189.005C205.354 189.27 205.704 189.403 206.193 189.403C206.567 189.403 206.89 189.301 207.161 189.095V190.362ZM220.818 181.186L218.039 190.453H216.501L214.591 183.819C214.519 183.566 214.47 183.279 214.446 182.959H214.41C214.392 183.177 214.329 183.457 214.22 183.801L212.148 190.453H210.663L207.858 181.186H209.415L211.333 188.154C211.393 188.365 211.436 188.643 211.46 188.987H211.532C211.55 188.721 211.605 188.438 211.695 188.136L213.831 181.186H215.188L217.107 188.172C217.167 188.396 217.213 188.673 217.243 189.005H217.315C217.327 188.77 217.379 188.492 217.469 188.172L219.351 181.186H220.818ZM226.356 190.67C224.987 190.67 223.892 190.239 223.071 189.376C222.256 188.507 221.849 187.358 221.849 185.928C221.849 184.371 222.275 183.156 223.125 182.281C223.976 181.406 225.125 180.968 226.573 180.968C227.955 180.968 229.032 181.394 229.804 182.245C230.582 183.095 230.972 184.275 230.972 185.783C230.972 187.261 230.552 188.447 229.714 189.34C228.881 190.227 227.762 190.67 226.356 190.67ZM226.465 182.217C225.511 182.217 224.757 182.543 224.202 183.195C223.647 183.84 223.37 184.733 223.37 185.874C223.37 186.972 223.65 187.837 224.211 188.471C224.772 189.104 225.524 189.421 226.465 189.421C227.424 189.421 228.16 189.11 228.673 188.489C229.192 187.868 229.451 186.984 229.451 185.837C229.451 184.679 229.192 183.786 228.673 183.159C228.16 182.531 227.424 182.217 226.465 182.217ZM238.175 182.688C237.916 182.489 237.542 182.389 237.053 182.389C236.42 182.389 235.889 182.688 235.46 183.285C235.038 183.883 234.827 184.697 234.827 185.729V190.453H233.343V181.186H234.827V183.095H234.863C235.074 182.444 235.397 181.937 235.832 181.575C236.266 181.207 236.752 181.023 237.289 181.023C237.675 181.023 237.97 181.065 238.175 181.149V182.688ZM247.479 190.453H245.397L241.307 186H241.271V190.453H239.786V176.733H241.271V185.43H241.307L245.198 181.186H247.144L242.845 185.656L247.479 190.453Z" fill="#666666"/>
<g clip-path="url(#clip1_3437_21517)">
<path d="M200.84 273.96C201.77 274.47 202.781 274.816 203.827 274.985C205.141 275.3 206.489 275.443 207.839 275.411C209.077 275.426 210.311 275.253 211.497 274.899C212.535 274.572 213.515 274.083 214.399 273.448C215.202 272.843 215.847 272.052 216.277 271.144C216.729 270.191 216.962 269.15 216.96 268.095C216.947 266.778 216.52 265.499 215.741 264.437C214.972 263.413 213.607 262.559 211.729 261.962L208.071 260.743C207.01 260.475 206.019 259.98 205.169 259.292C204.891 259.003 204.68 258.658 204.55 258.28C204.419 257.902 204.373 257.5 204.413 257.102C204.454 256.704 204.581 256.319 204.785 255.975C204.989 255.631 205.266 255.336 205.596 255.109C206.67 254.538 207.88 254.272 209.095 254.341C210.828 254.317 212.545 254.666 214.131 255.365C214.453 255.531 214.798 255.646 215.155 255.707C215.582 255.707 215.765 255.451 215.765 254.853V253.829C215.785 253.523 215.694 253.22 215.509 252.975C215.316 252.685 215.051 252.45 214.741 252.292C214.399 252.085 214.024 251.941 213.631 251.866C213.204 251.695 212.692 251.61 212.18 251.439C211.619 251.306 211.048 251.22 210.473 251.183C209.887 251.042 209.283 250.984 208.681 251.012C207.586 251.017 206.496 251.16 205.437 251.439C204.456 251.737 203.533 252.199 202.706 252.805C201.95 253.39 201.312 254.114 200.828 254.938C200.333 255.823 200.097 256.828 200.145 257.841C200.138 259.201 200.589 260.523 201.425 261.596C202.279 262.816 203.645 263.645 205.608 264.242L209.363 265.462C210.335 265.716 211.239 266.182 212.009 266.827C212.241 267.062 212.422 267.343 212.54 267.652C212.657 267.96 212.709 268.29 212.692 268.62C212.707 269.117 212.588 269.609 212.347 270.044C212.107 270.479 211.755 270.842 211.327 271.095C210.388 271.705 209.193 271.949 207.486 271.949C206.459 271.96 205.436 271.845 204.437 271.607C203.433 271.424 202.457 271.108 201.535 270.668C201.302 270.597 201.074 270.512 200.852 270.412C200.691 270.343 200.515 270.313 200.34 270.327C199.913 270.327 199.73 270.583 199.73 271.18V272.461C199.746 272.724 199.804 272.983 199.901 273.229C200.155 273.55 200.475 273.812 200.84 273.997V273.96Z" fill="#252F3E"/>
<path d="M156.711 261.328C155.808 261.189 154.894 261.132 153.98 261.157C151.334 261.157 149.2 261.84 147.578 263.206C146.148 264.53 145.293 266.361 145.197 268.308C145.102 270.255 145.773 272.161 147.066 273.619C148.347 274.899 150.054 275.497 152.273 275.497C153.741 275.519 155.195 275.208 156.526 274.587C157.857 273.966 159.029 273.052 159.955 271.912C160.176 272.441 160.433 272.954 160.723 273.448C160.986 273.891 161.302 274.3 161.662 274.668C161.759 274.775 161.878 274.86 162.01 274.919C162.143 274.978 162.286 275.009 162.43 275.009C162.677 274.988 162.913 274.899 163.113 274.753L164.735 273.643C164.874 273.564 164.993 273.453 165.082 273.32C165.171 273.187 165.227 273.034 165.247 272.875C165.22 272.665 165.163 272.459 165.076 272.266C164.737 271.666 164.452 271.037 164.223 270.388C164.034 269.635 163.947 268.859 163.967 268.083V259.548C163.967 256.731 163.284 254.597 161.833 253.146C160.382 251.695 158.175 251.012 155.004 251.012C153.622 251.004 152.245 251.176 150.907 251.524C149.785 251.812 148.698 252.221 147.664 252.744C147.393 252.848 147.157 253.025 146.981 253.256C146.81 253.426 146.81 253.768 146.81 254.195V255.475C146.81 255.987 146.981 256.329 147.322 256.329C147.469 256.334 147.616 256.305 147.749 256.243C147.92 256.158 148.261 256.072 148.688 255.902C149.602 255.539 150.544 255.254 151.505 255.048C152.424 254.809 153.372 254.694 154.322 254.707C156.37 254.707 157.736 255.134 158.589 255.926C159.443 256.719 159.809 258.145 159.809 260.109V261.986C158.699 261.73 157.76 261.56 156.76 261.377L156.711 261.328ZM159.699 265.937C159.713 266.685 159.627 267.431 159.443 268.156C159.298 268.76 159.005 269.317 158.589 269.778C157.937 270.545 157.078 271.108 156.114 271.4C155.24 271.727 154.316 271.9 153.383 271.912C152.888 271.971 152.387 271.917 151.916 271.754C151.445 271.591 151.018 271.323 150.666 270.971C150.314 270.619 150.046 270.191 149.883 269.72C149.72 269.25 149.666 268.748 149.725 268.254C149.693 267.691 149.793 267.128 150.015 266.61C150.237 266.092 150.576 265.632 151.005 265.266C151.858 264.584 153.139 264.242 154.846 264.242C155.614 264.242 156.468 264.328 157.321 264.413C158.126 264.506 158.924 264.649 159.711 264.84V265.949L159.699 265.937Z" fill="#252F3E"/>
<path d="M172.844 273.534C172.941 273.907 173.116 274.256 173.356 274.558C173.654 274.766 174.019 274.857 174.38 274.814H176.599C176.961 274.857 177.325 274.766 177.623 274.558C177.863 274.256 178.038 273.907 178.136 273.534L182.147 256.749L186.244 273.564C186.256 273.761 186.308 273.953 186.396 274.129C186.484 274.305 186.606 274.461 186.756 274.588C187.06 274.784 187.42 274.874 187.781 274.845H190C190.359 274.862 190.715 274.773 191.024 274.588C191.296 274.308 191.475 273.95 191.536 273.564L197.853 253.445C197.928 253.247 197.985 253.043 198.023 252.835C198.023 252.664 198.109 252.579 198.109 252.408C198.109 251.982 197.938 251.799 197.499 251.799H195.109C194.748 251.755 194.383 251.846 194.085 252.055C193.845 252.357 193.67 252.706 193.573 253.079L189.049 270.577L184.866 252.994C184.855 252.797 184.803 252.605 184.715 252.429C184.627 252.253 184.504 252.097 184.354 251.969C184.05 251.773 183.69 251.683 183.33 251.713H181.196C180.835 251.67 180.47 251.761 180.172 251.969C179.932 252.272 179.758 252.62 179.66 252.994L175.563 270.235L171.21 252.994C171.112 252.62 170.937 252.272 170.697 251.969C170.399 251.761 170.035 251.67 169.673 251.713H167.113C166.686 251.713 166.503 251.884 166.503 252.323C166.545 252.674 166.631 253.018 166.759 253.347L172.819 273.576L172.844 273.534Z" fill="#252F3E"/>
<path d="M211.51 286.166C200.575 290.795 188.715 292.819 176.865 292.078C165.014 291.338 153.498 287.853 143.226 281.899C142.287 281.289 141.518 282.325 142.372 283.118C153.001 292.691 166.819 297.956 181.123 297.884C191.793 297.884 204.254 294.555 212.875 288.129C214.156 287.105 212.961 285.569 211.51 286.166Z" fill="#FF9900"/>
<path d="M206.132 282.581C205.364 283.093 205.523 283.862 206.303 283.801C209.034 283.459 215.265 282.691 216.29 284.142C217.314 285.593 215.07 291.312 214.07 293.958C213.729 294.726 214.412 295.068 215.18 294.47C219.789 290.629 220.984 282.52 220.057 281.411C219.118 280.13 211.01 279.192 206.144 282.63L206.132 282.581Z" fill="#FF9900"/>
</g>
</g>
<defs>
<clipPath id="clip0_3437_21517">
<rect width="362" height="348" fill="white"/>
</clipPath>
<clipPath id="clip1_3437_21517">
<rect width="78.3377" height="46.8599" fill="white" transform="translate(142 251)"/>
</clipPath>
</defs>
</svg>
