<svg width="362" height="348" viewBox="0 0 362 348" fill="none" xmlns="http://www.w3.org/2000/svg">
<g clip-path="url(#clip0_3437_21515)">
<rect width="362" height="348" fill="white"/>
<rect width="362" height="364.896" fill="#2F2F2F"/>
<rect x="-51" y="-14" width="494" height="374" fill="url(#paint0_linear_3437_21515)"/>
<path d="M111.106 100.323C108.363 101.772 104.947 102.496 100.858 102.496C95.5786 102.496 91.3517 100.797 88.1772 97.3982C85.0028 93.9994 83.4155 89.5396 83.4155 84.0188C83.4155 78.0839 85.2012 73.2877 88.7724 69.6301C92.3437 65.9726 96.8725 64.1438 102.359 64.1438C105.878 64.1438 108.794 64.6528 111.106 65.6707V70.303C108.449 68.8193 105.516 68.0774 102.307 68.0774C98.0457 68.0774 94.5866 69.5007 91.9297 72.3474C89.29 75.1941 87.9702 78.9983 87.9702 83.76C87.9702 88.2802 89.2038 91.886 91.6709 94.5774C94.1553 97.2515 97.4074 98.5886 101.427 98.5886C105.154 98.5886 108.38 97.7605 111.106 96.1042V100.323ZM139.392 89.6863H120.681C120.75 92.6365 121.544 94.9138 123.062 96.5183C124.58 98.1228 126.668 98.925 129.325 98.925C132.309 98.925 135.053 97.9417 137.554 95.9749V99.9602C135.225 101.651 132.145 102.496 128.315 102.496C124.572 102.496 121.63 101.297 119.491 98.8992C117.351 96.4838 116.282 93.0937 116.282 88.7288C116.282 84.6054 117.446 81.2498 119.775 78.6619C122.122 76.0567 125.029 74.7542 128.497 74.7542C131.964 74.7542 134.647 75.8756 136.545 78.1184C138.443 80.3612 139.392 83.4753 139.392 87.4607V89.6863ZM135.044 86.0891C135.027 83.6392 134.431 81.7328 133.258 80.3699C132.102 79.0069 130.489 78.3254 128.419 78.3254C126.418 78.3254 124.718 79.0414 123.321 80.4734C121.923 81.9054 121.061 83.7773 120.733 86.0891H135.044ZM159.655 79.6711C158.913 79.1018 157.843 78.8171 156.446 78.8171C154.634 78.8171 153.116 79.6711 151.891 81.3792C150.683 83.0872 150.08 85.4163 150.08 88.3665V101.875H145.835V75.3752H150.08V80.8357H150.183C150.787 78.9724 151.71 77.5232 152.952 76.488C154.194 75.4356 155.583 74.9094 157.119 74.9094C158.223 74.9094 159.068 75.0302 159.655 75.2717V79.6711ZM178.106 101.616C177.106 102.169 175.786 102.445 174.147 102.445C169.506 102.445 167.186 99.8567 167.186 94.6809V78.9983H162.631V75.3752H167.186V68.9055L171.43 67.5339V75.3752H178.106V78.9983H171.43V93.9304C171.43 95.7074 171.732 96.9755 172.335 97.7346C172.939 98.4937 173.94 98.8733 175.337 98.8733C176.407 98.8733 177.33 98.58 178.106 97.9934V101.616ZM185.948 68.6467C185.189 68.6467 184.542 68.3879 184.007 67.8704C183.472 67.3528 183.205 66.6972 183.205 65.9036C183.205 65.1099 183.472 64.4543 184.007 63.9368C184.542 63.4019 185.189 63.1345 185.948 63.1345C186.724 63.1345 187.38 63.4019 187.915 63.9368C188.467 64.4543 188.743 65.1099 188.743 65.9036C188.743 66.6627 188.467 67.3097 187.915 67.8445C187.38 68.3793 186.724 68.6467 185.948 68.6467ZM188.018 101.875H183.774V75.3752H188.018V101.875ZM209.705 66.3694C208.876 65.9036 207.936 65.6707 206.884 65.6707C203.916 65.6707 202.433 67.5426 202.433 71.2864V75.3752H208.644V78.9983H202.433V101.875H198.214V78.9983H193.686V75.3752H198.214V71.0793C198.214 68.3017 199.017 66.1106 200.621 64.5061C202.226 62.8844 204.227 62.0735 206.625 62.0735C207.919 62.0735 208.945 62.2288 209.705 62.5393V66.3694ZM215.398 68.6467C214.639 68.6467 213.992 68.3879 213.457 67.8704C212.922 67.3528 212.655 66.6972 212.655 65.9036C212.655 65.1099 212.922 64.4543 213.457 63.9368C213.992 63.4019 214.639 63.1345 215.398 63.1345C216.174 63.1345 216.83 63.4019 217.365 63.9368C217.917 64.4543 218.193 65.1099 218.193 65.9036C218.193 66.6627 217.917 67.3097 217.365 67.8445C216.83 68.3793 216.174 68.6467 215.398 68.6467ZM217.468 101.875H213.224V75.3752H217.468V101.875ZM247.358 89.6863H228.648C228.717 92.6365 229.511 94.9138 231.029 96.5183C232.547 98.1228 234.635 98.925 237.291 98.925C240.276 98.925 243.019 97.9417 245.521 95.9749V99.9602C243.192 101.651 240.112 102.496 236.282 102.496C232.538 102.496 229.597 101.297 227.458 98.8992C225.318 96.4838 224.249 93.0937 224.249 88.7288C224.249 84.6054 225.413 81.2498 227.742 78.6619C230.089 76.0567 232.996 74.7542 236.463 74.7542C239.931 74.7542 242.614 75.8756 244.512 78.1184C246.409 80.3612 247.358 83.4753 247.358 87.4607V89.6863ZM243.011 86.0891C242.993 83.6392 242.398 81.7328 241.225 80.3699C240.069 79.0069 238.456 78.3254 236.386 78.3254C234.384 78.3254 232.685 79.0414 231.288 80.4734C229.89 81.9054 229.027 83.7773 228.7 86.0891H243.011ZM276.42 101.875H272.176V97.3723H272.073C270.106 100.788 267.069 102.496 262.963 102.496C259.634 102.496 256.968 101.315 254.967 98.9509C252.983 96.5701 251.991 93.3352 251.991 89.2463C251.991 84.8642 253.095 81.3533 255.303 78.7136C257.512 76.074 260.453 74.7542 264.128 74.7542C267.768 74.7542 270.416 76.1861 272.073 79.05H272.176V62.6428H276.42V101.875ZM272.176 89.8933V85.9856C272.176 83.8463 271.469 82.0347 270.054 80.551C268.639 79.0673 266.845 78.3254 264.671 78.3254C262.083 78.3254 260.048 79.2743 258.564 81.1721C257.08 83.0699 256.338 85.6923 256.338 89.0393C256.338 92.093 257.046 94.5084 258.46 96.2854C259.892 98.0452 261.807 98.925 264.206 98.925C266.569 98.925 268.484 98.071 269.951 96.363C271.434 94.655 272.176 92.4985 272.176 89.8933ZM90.8945 150.875V113.765H101.143C114.22 113.765 120.759 119.795 120.759 131.854C120.759 137.582 118.939 142.189 115.298 145.674C111.675 149.141 106.819 150.875 100.729 150.875H90.8945ZM95.2422 117.698V146.942H100.78C105.645 146.942 109.432 145.639 112.141 143.034C114.85 140.429 116.204 136.737 116.204 131.958C116.204 122.452 111.149 117.698 101.039 117.698H95.2422ZM148.786 138.686H130.075C130.144 141.636 130.938 143.914 132.456 145.518C133.974 147.123 136.062 147.925 138.719 147.925C141.703 147.925 144.447 146.942 146.948 144.975V148.96C144.619 150.651 141.54 151.496 137.709 151.496C133.966 151.496 131.024 150.297 128.885 147.899C126.745 145.484 125.676 142.094 125.676 137.729C125.676 133.605 126.84 130.25 129.169 127.662C131.516 125.057 134.423 123.754 137.891 123.754C141.358 123.754 144.041 124.876 145.939 127.118C147.837 129.361 148.786 132.475 148.786 136.461V138.686ZM144.438 135.089C144.421 132.639 143.826 130.733 142.652 129.37C141.496 128.007 139.883 127.325 137.813 127.325C135.812 127.325 134.112 128.041 132.715 129.473C131.317 130.905 130.455 132.777 130.127 135.089H144.438ZM159.474 150.875H155.229V111.643H159.474V150.875ZM170.239 117.647C169.48 117.647 168.833 117.388 168.298 116.87C167.763 116.353 167.496 115.697 167.496 114.904C167.496 114.11 167.763 113.454 168.298 112.937C168.833 112.402 169.48 112.135 170.239 112.135C171.016 112.135 171.671 112.402 172.206 112.937C172.758 113.454 173.034 114.11 173.034 114.904C173.034 115.663 172.758 116.31 172.206 116.844C171.671 117.379 171.016 117.647 170.239 117.647ZM172.31 150.875H168.065V124.375H172.31V150.875ZM201.734 124.375L191.175 150.875H187.009L176.968 124.375H181.626L188.354 143.629C188.855 145.044 189.165 146.277 189.286 147.33H189.39C189.562 146.001 189.838 144.802 190.218 143.733L197.257 124.375H201.734ZM227.302 138.686H208.592C208.661 141.636 209.454 143.914 210.973 145.518C212.491 147.123 214.578 147.925 217.235 147.925C220.22 147.925 222.963 146.942 225.465 144.975V148.96C223.136 150.651 220.056 151.496 216.226 151.496C212.482 151.496 209.541 150.297 207.401 147.899C205.262 145.484 204.192 142.094 204.192 137.729C204.192 133.605 205.357 130.25 207.686 127.662C210.032 125.057 212.939 123.754 216.407 123.754C219.875 123.754 222.558 124.876 224.456 127.118C226.353 129.361 227.302 132.475 227.302 136.461V138.686ZM222.955 135.089C222.937 132.639 222.342 130.733 221.169 129.37C220.013 128.007 218.4 127.325 216.33 127.325C214.328 127.325 212.629 128.041 211.231 129.473C209.834 130.905 208.971 132.777 208.644 135.089H222.955ZM247.565 128.671C246.824 128.102 245.754 127.817 244.356 127.817C242.545 127.817 241.027 128.671 239.802 130.379C238.594 132.087 237.99 134.416 237.99 137.366V150.875H233.746V124.375H237.99V129.836H238.094C238.698 127.972 239.621 126.523 240.863 125.488C242.105 124.436 243.494 123.909 245.029 123.909C246.133 123.909 246.979 124.03 247.565 124.272V128.671ZM275.385 124.375L263.196 155.119C261.022 160.606 257.969 163.349 254.035 163.349C252.931 163.349 252.008 163.237 251.266 163.012V159.208C252.18 159.519 253.017 159.674 253.776 159.674C255.916 159.674 257.52 158.397 258.59 155.844L260.712 150.823L250.36 124.375H255.07L262.239 144.768C262.325 145.027 262.506 145.699 262.782 146.786H262.937C263.024 146.372 263.196 145.717 263.455 144.82L270.986 124.375H275.385ZM105.516 185.849V199.875H101.168V162.765H111.365C115.333 162.765 118.404 163.731 120.578 165.663C122.769 167.596 123.864 170.322 123.864 173.841C123.864 177.361 122.648 180.242 120.215 182.485C117.8 184.727 114.531 185.849 110.407 185.849H105.516ZM105.516 166.698V181.915H110.071C113.073 181.915 115.359 181.234 116.929 179.871C118.516 178.491 119.31 176.55 119.31 174.048C119.31 169.148 116.411 166.698 110.614 166.698H105.516ZM147.569 199.875H143.325V195.735H143.222C141.376 198.909 138.658 200.496 135.07 200.496C132.43 200.496 130.36 199.798 128.859 198.4C127.375 197.003 126.633 195.148 126.633 192.836C126.633 187.885 129.549 185.003 135.38 184.193L143.325 183.08C143.325 178.577 141.505 176.325 137.865 176.325C134.673 176.325 131.792 177.412 129.221 179.586V175.239C131.826 173.582 134.828 172.754 138.227 172.754C144.455 172.754 147.569 176.049 147.569 182.64V199.875ZM143.325 186.47L136.933 187.35C134.966 187.626 133.483 188.118 132.482 188.825C131.481 189.515 130.981 190.749 130.981 192.526C130.981 193.82 131.438 194.881 132.353 195.709C133.284 196.52 134.518 196.925 136.053 196.925C138.158 196.925 139.892 196.192 141.255 194.725C142.635 193.242 143.325 191.37 143.325 189.11V186.47ZM169.385 177.671C168.643 177.102 167.574 176.817 166.176 176.817C164.365 176.817 162.847 177.671 161.622 179.379C160.414 181.087 159.81 183.416 159.81 186.366V199.875H155.566V173.375H159.81V178.836H159.914C160.517 176.972 161.44 175.523 162.683 174.488C163.925 173.436 165.314 172.909 166.849 172.909C167.953 172.909 168.799 173.03 169.385 173.272V177.671ZM187.837 199.616C186.836 200.169 185.516 200.445 183.877 200.445C179.236 200.445 176.916 197.857 176.916 192.681V176.998H172.361V173.375H176.916V166.906L181.16 165.534V173.375H187.837V176.998H181.16V191.93C181.16 193.707 181.462 194.976 182.066 195.735C182.67 196.494 183.67 196.873 185.068 196.873C186.138 196.873 187.061 196.58 187.837 195.993V199.616ZM215.501 199.875H211.257V184.762C211.257 179.138 209.204 176.325 205.098 176.325C202.976 176.325 201.216 177.128 199.819 178.732C198.439 180.319 197.749 182.329 197.749 184.762V199.875H193.504V173.375H197.749V177.775H197.852C199.853 174.428 202.752 172.754 206.547 172.754C209.446 172.754 211.663 173.694 213.198 175.575C214.734 177.438 215.501 180.138 215.501 183.675V199.875ZM244.822 187.686H226.112C226.181 190.636 226.974 192.914 228.493 194.518C230.011 196.123 232.098 196.925 234.755 196.925C237.74 196.925 240.483 195.942 242.985 193.975V197.96C240.656 199.651 237.576 200.496 233.746 200.496C230.002 200.496 227.061 199.297 224.921 196.899C222.782 194.484 221.712 191.094 221.712 186.729C221.712 182.605 222.877 179.25 225.206 176.662C227.552 174.057 230.459 172.754 233.927 172.754C237.395 172.754 240.078 173.876 241.976 176.118C243.873 178.361 244.822 181.475 244.822 185.461V187.686ZM240.475 184.089C240.457 181.639 239.862 179.733 238.689 178.37C237.533 177.007 235.92 176.325 233.85 176.325C231.848 176.325 230.149 177.041 228.751 178.473C227.354 179.905 226.491 181.777 226.164 184.089H240.475ZM265.085 177.671C264.344 177.102 263.274 176.817 261.876 176.817C260.065 176.817 258.547 177.671 257.322 179.379C256.114 181.087 255.51 183.416 255.51 186.366V199.875H251.266V173.375H255.51V178.836H255.614C256.218 176.972 257.141 175.523 258.383 174.488C259.625 173.436 261.014 172.909 262.549 172.909C263.653 172.909 264.499 173.03 265.085 173.272V177.671Z" fill="white"/>
<path d="M102.881 269.667L100.809 267.858L102.983 265.747L104.827 267.763C105.204 267.487 105.598 267.236 106.007 267.01L104.804 264.573L107.642 263.449L108.561 265.999C109.019 265.881 109.483 265.791 109.952 265.73L109.793 263.034H112.863L112.693 265.73C113.163 265.791 113.629 265.881 114.089 265.999L115.002 263.449L117.84 264.573L116.659 267.01C117.068 267.241 117.46 267.498 117.834 267.78L119.707 265.747L121.875 267.858L119.803 269.667C120.092 270.024 120.358 270.399 120.598 270.79L123.095 269.617L124.247 272.402L121.619 273.296C121.738 273.741 121.829 274.193 121.892 274.649L124.661 274.503V277.491L121.892 277.34C121.83 277.798 121.739 278.252 121.619 278.699L124.247 279.592L123.072 282.355L120.575 281.181C120.338 281.582 120.074 281.967 119.786 282.333L121.852 284.136L119.684 286.248L117.834 284.231C117.456 284.508 117.06 284.759 116.648 284.984L117.851 287.422L115.014 288.545L114.094 285.989C113.637 286.108 113.173 286.198 112.704 286.259L112.857 288.955H109.793L109.946 286.259C109.477 286.198 109.013 286.108 108.556 285.989L107.636 288.545L104.799 287.422L106.013 284.984C105.605 284.753 105.213 284.496 104.838 284.215L102.988 286.231L100.82 284.119L102.886 282.316C102.605 281.955 102.347 281.576 102.114 281.181L99.6174 282.355L98.4256 279.592L101.042 278.699C100.919 278.253 100.828 277.798 100.769 277.34L98 277.491V274.498L100.769 274.649C100.829 274.192 100.92 273.74 101.042 273.296L98.4256 272.402L99.6004 269.639L102.114 270.813C102.344 270.415 102.6 270.032 102.881 269.667ZM104.867 275.997C104.852 277.104 105.127 278.196 105.667 279.166C106.206 280.136 106.991 280.95 107.944 281.53C108.898 282.109 109.986 282.434 111.104 282.471C112.222 282.509 113.331 282.259 114.322 281.745C115.313 281.231 116.152 280.471 116.756 279.54C117.361 278.609 117.712 277.538 117.773 276.433C117.834 275.327 117.604 274.225 117.105 273.234C116.607 272.243 115.857 271.397 114.929 270.779C113.861 270.075 112.608 269.697 111.325 269.695C110.483 269.69 109.648 269.848 108.868 270.161C108.09 270.471 107.381 270.927 106.779 271.504C106.176 272.091 105.697 272.79 105.369 273.561C105.041 274.332 104.87 275.16 104.867 275.997ZM252.281 269.257L262.53 279.3V269.751H263.994V282.597L253.745 272.571V282.046H252.281V269.257ZM234.382 275.919C234.333 276.982 234.607 278.035 235.169 278.943C235.73 279.851 236.553 280.571 237.532 281.012C238.511 281.453 239.6 281.593 240.661 281.416C241.721 281.238 242.703 280.75 243.481 280.015C244.259 279.281 244.797 278.332 245.025 277.292C245.253 276.252 245.162 275.168 244.762 274.18C244.363 273.192 243.674 272.345 242.784 271.748C241.893 271.151 240.843 270.831 239.768 270.83C238.374 270.803 237.026 271.322 236.017 272.274C235.008 273.226 234.421 274.534 234.382 275.913V275.919ZM246.617 275.919C246.617 279.457 243.513 282.265 239.768 282.265C236.022 282.265 232.918 279.457 232.918 275.919C232.918 272.38 236.022 269.544 239.768 269.544C243.513 269.544 246.617 272.402 246.617 275.924V275.919ZM226.795 272.155C226.587 271.739 226.263 271.391 225.86 271.154C225.457 270.917 224.993 270.8 224.525 270.819C224.254 270.8 223.983 270.834 223.726 270.92C223.469 271.006 223.232 271.142 223.03 271.32C222.827 271.498 222.662 271.714 222.544 271.956C222.427 272.198 222.359 272.46 222.345 272.728C222.345 273.79 223.48 274.273 224.4 274.649L225.274 275.009C226.976 275.711 228.429 276.508 228.429 278.469C228.345 279.447 227.912 280.364 227.208 281.056C226.503 281.747 225.573 282.168 224.583 282.242C223.594 282.317 222.61 282.04 221.808 281.462C221.006 280.883 220.438 280.041 220.206 279.086L221.636 278.71C221.714 279.347 222.027 279.934 222.515 280.357C223.003 280.779 223.632 281.009 224.281 281.002C224.959 281.034 225.623 280.8 226.129 280.351C226.634 279.902 226.941 279.274 226.982 278.603C226.982 277.222 225.779 276.677 224.553 276.16L223.758 275.834C222.221 275.177 220.921 274.447 220.921 272.689C220.921 270.779 222.623 269.555 224.598 269.555C225.288 269.536 225.969 269.705 226.569 270.041C227.169 270.378 227.665 270.87 228.003 271.464L226.795 272.155ZM209.77 275.452H210.218C211.869 275.452 213.543 275.16 213.543 273.251C213.543 271.229 211.954 271.032 210.201 271.032H209.764L209.77 275.452ZM209.77 282.058H208.305V269.774H210.218C212.709 269.774 215.025 270.392 215.025 273.144C215.025 275.037 213.753 276.374 211.716 276.514L215.904 282.03H214.111L210.138 276.632H209.77V282.058ZM195.815 269.763H202.625V271.032H197.284V274.688H202.477V275.997H197.284V280.828H202.625V282.097H195.815V269.763ZM185.253 275.436H186.247C187.864 275.436 189.243 274.981 189.243 273.189C189.243 271.184 187.54 271.038 185.81 271.038H185.27L185.253 275.436ZM185.253 282.091H183.784V269.774H185.946C187.081 269.774 188.261 269.808 189.203 270.425C189.665 270.737 190.042 271.156 190.301 271.646C190.561 272.135 190.694 272.681 190.69 273.234C190.691 273.738 190.581 274.237 190.367 274.694C190.146 275.149 189.828 275.551 189.436 275.874C188.517 276.484 187.418 276.77 186.315 276.688H185.253V282.091ZM173.205 271.88V274.587H177.121V276.677H173.205V280.008H177.274V282.091H170.742V269.774H177.274V271.858L173.205 271.88ZM160.522 277.121L163.524 269.819H166.168L160.567 282.737L155.017 269.757H157.661L160.522 277.121ZM150.454 282.091H147.991V269.774H150.454V282.091ZM139.808 279.985H143.287V282.069H137.334V269.774H139.808V279.985Z" fill="white"/>
</g>
<defs>
<linearGradient id="paint0_linear_3437_21515" x1="2.99999" y1="-31" x2="388" y2="377" gradientUnits="userSpaceOnUse">
<stop stop-color="#E8620F"/>
<stop offset="1" stop-color="#F4A021"/>
</linearGradient>
<clipPath id="clip0_3437_21515">
<rect width="362" height="348" fill="white"/>
</clipPath>
</defs>
</svg>
