<svg width="382" height="368" viewBox="0 0 382 368" fill="none" xmlns="http://www.w3.org/2000/svg">
<g clip-path="url(#clip0_3429_21515)" filter="url(#filter0_d_3429_21515)">
<rect width="362" height="348" transform="translate(9 9)" fill="white"/>
<rect x="9" y="9" width="362" height="364.896" fill="#2F2F2F"/>
<rect x="-42" y="-5" width="494" height="374" fill="url(#paint0_linear_3429_21515)"/>
<path d="M120.106 109.323C117.363 110.772 113.947 111.496 109.858 111.496C104.579 111.496 100.352 109.797 97.1772 106.398C94.0028 102.999 92.4155 98.5396 92.4155 93.0188C92.4155 87.0839 94.2012 82.2877 97.7724 78.6301C101.344 74.9726 105.873 73.1438 111.359 73.1438C114.878 73.1438 117.794 73.6528 120.106 74.6707V79.303C117.449 77.8193 114.516 77.0774 111.307 77.0774C107.046 77.0774 103.587 78.5007 100.93 81.3474C98.29 84.1941 96.9702 87.9983 96.9702 92.76C96.9702 97.2802 98.2038 100.886 100.671 103.577C103.155 106.252 106.407 107.589 110.427 107.589C114.154 107.589 117.38 106.76 120.106 105.104V109.323ZM148.392 98.6863H129.681C129.75 101.636 130.544 103.914 132.062 105.518C133.58 107.123 135.668 107.925 138.325 107.925C141.309 107.925 144.053 106.942 146.554 104.975V108.96C144.225 110.651 141.145 111.496 137.315 111.496C133.572 111.496 130.63 110.297 128.491 107.899C126.351 105.484 125.282 102.094 125.282 97.7288C125.282 93.6054 126.446 90.2498 128.775 87.6619C131.122 85.0567 134.029 83.7542 137.497 83.7542C140.964 83.7542 143.647 84.8756 145.545 87.1184C147.443 89.3612 148.392 92.4753 148.392 96.4607V98.6863ZM144.044 95.0891C144.027 92.6392 143.431 90.7328 142.258 89.3699C141.102 88.0069 139.489 87.3254 137.419 87.3254C135.418 87.3254 133.718 88.0414 132.321 89.4734C130.923 90.9054 130.061 92.7773 129.733 95.0891H144.044ZM168.655 88.6711C167.913 88.1018 166.843 87.8171 165.446 87.8171C163.634 87.8171 162.116 88.6711 160.891 90.3792C159.683 92.0872 159.08 94.4163 159.08 97.3665V110.875H154.835V84.3752H159.08V89.8357H159.183C159.787 87.9724 160.71 86.5232 161.952 85.488C163.194 84.4356 164.583 83.9094 166.119 83.9094C167.223 83.9094 168.068 84.0302 168.655 84.2717V88.6711ZM187.106 110.616C186.106 111.169 184.786 111.445 183.147 111.445C178.506 111.445 176.186 108.857 176.186 103.681V87.9983H171.631V84.3752H176.186V77.9055L180.43 76.5339V84.3752H187.106V87.9983H180.43V102.93C180.43 104.707 180.732 105.976 181.335 106.735C181.939 107.494 182.94 107.873 184.337 107.873C185.407 107.873 186.33 107.58 187.106 106.993V110.616ZM194.948 77.6467C194.189 77.6467 193.542 77.3879 193.007 76.8704C192.472 76.3528 192.205 75.6972 192.205 74.9036C192.205 74.1099 192.472 73.4543 193.007 72.9368C193.542 72.4019 194.189 72.1345 194.948 72.1345C195.724 72.1345 196.38 72.4019 196.915 72.9368C197.467 73.4543 197.743 74.1099 197.743 74.9036C197.743 75.6627 197.467 76.3097 196.915 76.8445C196.38 77.3793 195.724 77.6467 194.948 77.6467ZM197.018 110.875H192.774V84.3752H197.018V110.875ZM218.705 75.3694C217.876 74.9036 216.936 74.6707 215.884 74.6707C212.916 74.6707 211.433 76.5426 211.433 80.2864V84.3752H217.644V87.9983H211.433V110.875H207.214V87.9983H202.686V84.3752H207.214V80.0793C207.214 77.3017 208.017 75.1106 209.621 73.5061C211.226 71.8844 213.227 71.0735 215.625 71.0735C216.919 71.0735 217.945 71.2288 218.705 71.5393V75.3694ZM224.398 77.6467C223.639 77.6467 222.992 77.3879 222.457 76.8704C221.922 76.3528 221.655 75.6972 221.655 74.9036C221.655 74.1099 221.922 73.4543 222.457 72.9368C222.992 72.4019 223.639 72.1345 224.398 72.1345C225.174 72.1345 225.83 72.4019 226.365 72.9368C226.917 73.4543 227.193 74.1099 227.193 74.9036C227.193 75.6627 226.917 76.3097 226.365 76.8445C225.83 77.3793 225.174 77.6467 224.398 77.6467ZM226.468 110.875H222.224V84.3752H226.468V110.875ZM256.358 98.6863H237.648C237.717 101.636 238.511 103.914 240.029 105.518C241.547 107.123 243.635 107.925 246.291 107.925C249.276 107.925 252.019 106.942 254.521 104.975V108.96C252.192 110.651 249.112 111.496 245.282 111.496C241.538 111.496 238.597 110.297 236.458 107.899C234.318 105.484 233.249 102.094 233.249 97.7288C233.249 93.6054 234.413 90.2498 236.742 87.6619C239.089 85.0567 241.996 83.7542 245.463 83.7542C248.931 83.7542 251.614 84.8756 253.512 87.1184C255.409 89.3612 256.358 92.4753 256.358 96.4607V98.6863ZM252.011 95.0891C251.993 92.6392 251.398 90.7328 250.225 89.3699C249.069 88.0069 247.456 87.3254 245.386 87.3254C243.384 87.3254 241.685 88.0414 240.288 89.4734C238.89 90.9054 238.027 92.7773 237.7 95.0891H252.011ZM285.42 110.875H281.176V106.372H281.073C279.106 109.788 276.069 111.496 271.963 111.496C268.634 111.496 265.968 110.315 263.967 107.951C261.983 105.57 260.991 102.335 260.991 98.2463C260.991 93.8642 262.095 90.3533 264.303 87.7136C266.512 85.074 269.453 83.7542 273.128 83.7542C276.768 83.7542 279.416 85.1861 281.073 88.05H281.176V71.6428H285.42V110.875ZM281.176 98.8933V94.9856C281.176 92.8463 280.469 91.0347 279.054 89.551C277.639 88.0673 275.845 87.3254 273.671 87.3254C271.083 87.3254 269.048 88.2743 267.564 90.1721C266.08 92.0699 265.338 94.6923 265.338 98.0393C265.338 101.093 266.046 103.508 267.46 105.285C268.892 107.045 270.807 107.925 273.206 107.925C275.569 107.925 277.484 107.071 278.951 105.363C280.434 103.655 281.176 101.498 281.176 98.8933ZM99.8945 159.875V122.765H110.143C123.22 122.765 129.759 128.795 129.759 140.854C129.759 146.582 127.939 151.189 124.298 154.674C120.675 158.141 115.819 159.875 109.729 159.875H99.8945ZM104.242 126.698V155.942H109.78C114.645 155.942 118.432 154.639 121.141 152.034C123.85 149.429 125.204 145.737 125.204 140.958C125.204 131.452 120.149 126.698 110.039 126.698H104.242ZM157.786 147.686H139.075C139.144 150.636 139.938 152.914 141.456 154.518C142.974 156.123 145.062 156.925 147.719 156.925C150.703 156.925 153.447 155.942 155.948 153.975V157.96C153.619 159.651 150.54 160.496 146.709 160.496C142.966 160.496 140.024 159.297 137.885 156.899C135.745 154.484 134.676 151.094 134.676 146.729C134.676 142.605 135.84 139.25 138.169 136.662C140.516 134.057 143.423 132.754 146.891 132.754C150.358 132.754 153.041 133.876 154.939 136.118C156.837 138.361 157.786 141.475 157.786 145.461V147.686ZM153.438 144.089C153.421 141.639 152.826 139.733 151.652 138.37C150.496 137.007 148.883 136.325 146.813 136.325C144.812 136.325 143.112 137.041 141.715 138.473C140.317 139.905 139.455 141.777 139.127 144.089H153.438ZM168.474 159.875H164.229V120.643H168.474V159.875ZM179.239 126.647C178.48 126.647 177.833 126.388 177.298 125.87C176.763 125.353 176.496 124.697 176.496 123.904C176.496 123.11 176.763 122.454 177.298 121.937C177.833 121.402 178.48 121.135 179.239 121.135C180.016 121.135 180.671 121.402 181.206 121.937C181.758 122.454 182.034 123.11 182.034 123.904C182.034 124.663 181.758 125.31 181.206 125.844C180.671 126.379 180.016 126.647 179.239 126.647ZM181.31 159.875H177.065V133.375H181.31V159.875ZM210.734 133.375L200.175 159.875H196.009L185.968 133.375H190.626L197.354 152.629C197.855 154.044 198.165 155.277 198.286 156.33H198.39C198.562 155.001 198.838 153.802 199.218 152.733L206.257 133.375H210.734ZM236.302 147.686H217.592C217.661 150.636 218.454 152.914 219.973 154.518C221.491 156.123 223.578 156.925 226.235 156.925C229.22 156.925 231.963 155.942 234.465 153.975V157.96C232.136 159.651 229.056 160.496 225.226 160.496C221.482 160.496 218.541 159.297 216.401 156.899C214.262 154.484 213.192 151.094 213.192 146.729C213.192 142.605 214.357 139.25 216.686 136.662C219.032 134.057 221.939 132.754 225.407 132.754C228.875 132.754 231.558 133.876 233.456 136.118C235.353 138.361 236.302 141.475 236.302 145.461V147.686ZM231.955 144.089C231.937 141.639 231.342 139.733 230.169 138.37C229.013 137.007 227.4 136.325 225.33 136.325C223.328 136.325 221.629 137.041 220.231 138.473C218.834 139.905 217.971 141.777 217.644 144.089H231.955ZM256.565 137.671C255.824 137.102 254.754 136.817 253.356 136.817C251.545 136.817 250.027 137.671 248.802 139.379C247.594 141.087 246.99 143.416 246.99 146.366V159.875H242.746V133.375H246.99V138.836H247.094C247.698 136.972 248.621 135.523 249.863 134.488C251.105 133.436 252.494 132.909 254.029 132.909C255.133 132.909 255.979 133.03 256.565 133.272V137.671ZM284.385 133.375L272.196 164.119C270.022 169.606 266.969 172.349 263.035 172.349C261.931 172.349 261.008 172.237 260.266 172.012V168.208C261.18 168.519 262.017 168.674 262.776 168.674C264.916 168.674 266.52 167.397 267.59 164.844L269.712 159.823L259.36 133.375H264.07L271.239 153.768C271.325 154.027 271.506 154.699 271.782 155.786H271.937C272.024 155.372 272.196 154.717 272.455 153.82L279.986 133.375H284.385ZM114.516 194.849V208.875H110.168V171.765H120.365C124.333 171.765 127.404 172.731 129.578 174.663C131.769 176.596 132.864 179.322 132.864 182.841C132.864 186.361 131.648 189.242 129.215 191.485C126.8 193.727 123.531 194.849 119.407 194.849H114.516ZM114.516 175.698V190.915H119.071C122.073 190.915 124.359 190.234 125.929 188.871C127.516 187.491 128.31 185.55 128.31 183.048C128.31 178.148 125.411 175.698 119.614 175.698H114.516ZM156.569 208.875H152.325V204.735H152.222C150.376 207.909 147.658 209.496 144.07 209.496C141.43 209.496 139.36 208.798 137.859 207.4C136.375 206.003 135.633 204.148 135.633 201.836C135.633 196.885 138.549 194.003 144.38 193.193L152.325 192.08C152.325 187.577 150.505 185.325 146.865 185.325C143.673 185.325 140.792 186.412 138.221 188.586V184.239C140.826 182.582 143.828 181.754 147.227 181.754C153.455 181.754 156.569 185.049 156.569 191.64V208.875ZM152.325 195.47L145.933 196.35C143.966 196.626 142.483 197.118 141.482 197.825C140.481 198.515 139.981 199.749 139.981 201.526C139.981 202.82 140.438 203.881 141.353 204.709C142.284 205.52 143.518 205.925 145.053 205.925C147.158 205.925 148.892 205.192 150.255 203.725C151.635 202.242 152.325 200.37 152.325 198.11V195.47ZM178.385 186.671C177.643 186.102 176.574 185.817 175.176 185.817C173.365 185.817 171.847 186.671 170.622 188.379C169.414 190.087 168.81 192.416 168.81 195.366V208.875H164.566V182.375H168.81V187.836H168.914C169.517 185.972 170.44 184.523 171.683 183.488C172.925 182.436 174.314 181.909 175.849 181.909C176.953 181.909 177.799 182.03 178.385 182.272V186.671ZM196.837 208.616C195.836 209.169 194.516 209.445 192.877 209.445C188.236 209.445 185.916 206.857 185.916 201.681V185.998H181.361V182.375H185.916V175.906L190.16 174.534V182.375H196.837V185.998H190.16V200.93C190.16 202.707 190.462 203.976 191.066 204.735C191.67 205.494 192.67 205.873 194.068 205.873C195.138 205.873 196.061 205.58 196.837 204.993V208.616ZM224.501 208.875H220.257V193.762C220.257 188.138 218.204 185.325 214.098 185.325C211.976 185.325 210.216 186.128 208.819 187.732C207.439 189.319 206.749 191.329 206.749 193.762V208.875H202.504V182.375H206.749V186.775H206.852C208.853 183.428 211.752 181.754 215.547 181.754C218.446 181.754 220.663 182.694 222.198 184.575C223.734 186.438 224.501 189.138 224.501 192.675V208.875ZM253.822 196.686H235.112C235.181 199.636 235.974 201.914 237.493 203.518C239.011 205.123 241.098 205.925 243.755 205.925C246.74 205.925 249.483 204.942 251.985 202.975V206.96C249.656 208.651 246.576 209.496 242.746 209.496C239.002 209.496 236.061 208.297 233.921 205.899C231.782 203.484 230.712 200.094 230.712 195.729C230.712 191.605 231.877 188.25 234.206 185.662C236.552 183.057 239.459 181.754 242.927 181.754C246.395 181.754 249.078 182.876 250.976 185.118C252.873 187.361 253.822 190.475 253.822 194.461V196.686ZM249.475 193.089C249.457 190.639 248.862 188.733 247.689 187.37C246.533 186.007 244.92 185.325 242.85 185.325C240.848 185.325 239.149 186.041 237.751 187.473C236.354 188.905 235.491 190.777 235.164 193.089H249.475ZM274.085 186.671C273.344 186.102 272.274 185.817 270.876 185.817C269.065 185.817 267.547 186.671 266.322 188.379C265.114 190.087 264.51 192.416 264.51 195.366V208.875H260.266V182.375H264.51V187.836H264.614C265.218 185.972 266.141 184.523 267.383 183.488C268.625 182.436 270.014 181.909 271.549 181.909C272.653 181.909 273.499 182.03 274.085 182.272V186.671Z" fill="white"/>
<path d="M111.881 278.667L109.809 276.858L111.983 274.747L113.827 276.763C114.204 276.487 114.598 276.236 115.007 276.01L113.804 273.573L116.642 272.449L117.561 274.999C118.019 274.881 118.483 274.791 118.952 274.73L118.793 272.034H121.863L121.693 274.73C122.163 274.791 122.629 274.881 123.089 274.999L124.002 272.449L126.84 273.573L125.659 276.01C126.068 276.241 126.46 276.498 126.834 276.78L128.707 274.747L130.875 276.858L128.803 278.667C129.092 279.024 129.358 279.399 129.598 279.79L132.095 278.617L133.247 281.402L130.619 282.296C130.738 282.741 130.829 283.193 130.892 283.649L133.661 283.503V286.491L130.892 286.34C130.83 286.798 130.739 287.252 130.619 287.699L133.247 288.592L132.072 291.355L129.575 290.181C129.338 290.582 129.074 290.967 128.786 291.333L130.852 293.136L128.684 295.248L126.834 293.231C126.456 293.508 126.06 293.759 125.648 293.984L126.851 296.422L124.014 297.545L123.094 294.989C122.637 295.108 122.173 295.198 121.704 295.259L121.857 297.955H118.793L118.946 295.259C118.477 295.198 118.013 295.108 117.556 294.989L116.636 297.545L113.799 296.422L115.013 293.984C114.605 293.753 114.213 293.496 113.838 293.215L111.988 295.231L109.82 293.119L111.886 291.316C111.605 290.955 111.347 290.576 111.114 290.181L108.617 291.355L107.426 288.592L110.042 287.699C109.919 287.253 109.828 286.798 109.769 286.34L107 286.491V283.498L109.769 283.649C109.829 283.192 109.92 282.74 110.042 282.296L107.426 281.402L108.6 278.639L111.114 279.813C111.344 279.415 111.6 279.032 111.881 278.667ZM113.867 284.997C113.852 286.104 114.127 287.196 114.667 288.166C115.206 289.136 115.991 289.95 116.944 290.53C117.898 291.109 118.986 291.434 120.104 291.471C121.222 291.509 122.331 291.259 123.322 290.745C124.313 290.231 125.152 289.471 125.756 288.54C126.361 287.609 126.712 286.538 126.773 285.433C126.834 284.327 126.604 283.225 126.105 282.234C125.607 281.243 124.857 280.397 123.929 279.779C122.861 279.075 121.608 278.697 120.325 278.695C119.483 278.69 118.648 278.848 117.868 279.161C117.09 279.471 116.381 279.927 115.779 280.504C115.176 281.091 114.697 281.79 114.369 282.561C114.041 283.332 113.87 284.16 113.867 284.997ZM261.281 278.257L271.53 288.3V278.751H272.994V291.597L262.745 281.571V291.046H261.281V278.257ZM243.382 284.919C243.333 285.982 243.607 287.035 244.169 287.943C244.73 288.851 245.553 289.571 246.532 290.012C247.511 290.453 248.6 290.593 249.661 290.416C250.721 290.238 251.703 289.75 252.481 289.015C253.259 288.281 253.797 287.332 254.025 286.292C254.253 285.252 254.162 284.168 253.762 283.18C253.363 282.192 252.674 281.345 251.784 280.748C250.893 280.151 249.843 279.831 248.768 279.83C247.374 279.803 246.026 280.322 245.017 281.274C244.008 282.226 243.421 283.534 243.382 284.913V284.919ZM255.617 284.919C255.617 288.457 252.513 291.265 248.768 291.265C245.022 291.265 241.918 288.457 241.918 284.919C241.918 281.38 245.022 278.544 248.768 278.544C252.513 278.544 255.617 281.402 255.617 284.924V284.919ZM235.795 281.155C235.587 280.739 235.263 280.391 234.86 280.154C234.457 279.917 233.993 279.8 233.525 279.819C233.254 279.8 232.983 279.834 232.726 279.92C232.469 280.006 232.232 280.142 232.03 280.32C231.827 280.498 231.662 280.714 231.544 280.956C231.427 281.198 231.359 281.46 231.345 281.728C231.345 282.79 232.48 283.273 233.4 283.649L234.274 284.009C235.976 284.711 237.429 285.508 237.429 287.469C237.345 288.447 236.912 289.364 236.208 290.056C235.503 290.747 234.573 291.168 233.583 291.242C232.594 291.317 231.61 291.04 230.808 290.462C230.006 289.883 229.438 289.041 229.206 288.086L230.636 287.71C230.714 288.347 231.027 288.934 231.515 289.357C232.003 289.779 232.632 290.009 233.281 290.002C233.959 290.034 234.623 289.8 235.129 289.351C235.634 288.902 235.941 288.274 235.982 287.603C235.982 286.222 234.779 285.677 233.553 285.16L232.758 284.834C231.221 284.177 229.921 283.447 229.921 281.689C229.921 279.779 231.623 278.555 233.598 278.555C234.288 278.536 234.969 278.705 235.569 279.041C236.169 279.378 236.665 279.87 237.003 280.464L235.795 281.155ZM218.77 284.452H219.218C220.869 284.452 222.543 284.16 222.543 282.251C222.543 280.229 220.954 280.032 219.201 280.032H218.764L218.77 284.452ZM218.77 291.058H217.305V278.774H219.218C221.709 278.774 224.025 279.392 224.025 282.144C224.025 284.037 222.753 285.374 220.716 285.514L224.904 291.03H223.111L219.138 285.632H218.77V291.058ZM204.815 278.763H211.625V280.032H206.284V283.688H211.477V284.997H206.284V289.828H211.625V291.097H204.815V278.763ZM194.253 284.436H195.247C196.864 284.436 198.243 283.981 198.243 282.189C198.243 280.184 196.54 280.038 194.81 280.038H194.27L194.253 284.436ZM194.253 291.091H192.784V278.774H194.946C196.081 278.774 197.261 278.808 198.203 279.425C198.665 279.737 199.042 280.156 199.301 280.646C199.561 281.135 199.694 281.681 199.69 282.234C199.691 282.738 199.581 283.237 199.367 283.694C199.146 284.149 198.828 284.551 198.436 284.874C197.517 285.484 196.418 285.77 195.315 285.688H194.253V291.091ZM182.205 280.88V283.587H186.121V285.677H182.205V289.008H186.274V291.091H179.742V278.774H186.274V280.858L182.205 280.88ZM169.522 286.121L172.524 278.819H175.168L169.567 291.737L164.017 278.757H166.661L169.522 286.121ZM159.454 291.091H156.991V278.774H159.454V291.091ZM148.808 288.985H152.287V291.069H146.334V278.774H148.808V288.985Z" fill="white"/>
</g>
<defs>
<filter id="filter0_d_3429_21515" x="0" y="0" width="382" height="368" filterUnits="userSpaceOnUse" color-interpolation-filters="sRGB">
<feFlood flood-opacity="0" result="BackgroundImageFix"/>
<feColorMatrix in="SourceAlpha" type="matrix" values="0 0 0 0 0 0 0 0 0 0 0 0 0 0 0 0 0 0 127 0" result="hardAlpha"/>
<feOffset dx="1" dy="1"/>
<feGaussianBlur stdDeviation="5"/>
<feComposite in2="hardAlpha" operator="out"/>
<feColorMatrix type="matrix" values="0 0 0 0 0 0 0 0 0 0 0 0 0 0 0 0 0 0 0.2 0"/>
<feBlend mode="normal" in2="BackgroundImageFix" result="effect1_dropShadow_3429_21515"/>
<feBlend mode="normal" in="SourceGraphic" in2="effect1_dropShadow_3429_21515" result="shape"/>
</filter>
<linearGradient id="paint0_linear_3429_21515" x1="12" y1="-22" x2="397" y2="386" gradientUnits="userSpaceOnUse">
<stop stop-color="#E8620F"/>
<stop offset="1" stop-color="#F4A021"/>
</linearGradient>
<clipPath id="clip0_3429_21515">
<rect width="362" height="348" fill="white" transform="translate(9 9)"/>
</clipPath>
</defs>
</svg>
