<svg width="382" height="368" viewBox="0 0 382 368" fill="none" xmlns="http://www.w3.org/2000/svg">
<g clip-path="url(#clip0_3431_21516)" filter="url(#filter0_d_3431_21516)">
<rect width="362" height="348" transform="translate(9 9)" fill="white"/>
<rect x="9" y="9" width="362" height="348" fill="white"/>
<path d="M89.6389 112.246C86.761 113.767 83.1772 114.527 78.8875 114.527C73.3489 114.527 68.9144 112.744 65.584 109.178C62.2536 105.613 60.5884 100.934 60.5884 95.1417C60.5884 88.9153 62.4618 83.8835 66.2085 80.0463C69.9552 76.2091 74.7064 74.2905 80.4622 74.2905C84.1546 74.2905 87.2135 74.8245 89.6389 75.8924V80.7522C86.8515 79.1956 83.7745 78.4173 80.4079 78.4173C75.9372 78.4173 72.3082 79.9106 69.5208 82.8971C66.7515 85.8836 65.3668 89.8746 65.3668 94.8702C65.3668 99.6124 66.661 103.395 69.2493 106.219C71.8557 109.024 75.2675 110.427 79.4848 110.427C83.3944 110.427 86.7791 109.558 89.6389 107.821V112.246ZM108.59 114.527C104.481 114.527 101.196 113.233 98.7342 110.644C96.2907 108.038 95.0689 104.59 95.0689 100.3C95.0689 95.6304 96.345 91.9833 98.8971 89.3588C101.449 86.7343 104.897 85.422 109.241 85.422C113.386 85.422 116.617 86.6981 118.934 89.2502C121.269 91.8023 122.436 95.3408 122.436 99.8658C122.436 104.3 121.178 107.857 118.662 110.536C116.164 113.196 112.807 114.527 108.59 114.527ZM108.915 89.1687C106.056 89.1687 103.793 90.1461 102.128 92.1009C100.463 94.0376 99.6301 96.7164 99.6301 100.137C99.6301 103.432 100.472 106.029 102.155 107.929C103.838 109.83 106.092 110.78 108.915 110.78C111.793 110.78 114.002 109.848 115.54 107.984C117.097 106.119 117.875 103.468 117.875 100.029C117.875 96.5535 117.097 93.8747 115.54 91.9923C114.002 90.1099 111.793 89.1687 108.915 89.1687ZM152.627 113.875H148.174V98.0196C148.174 92.119 146.02 89.1687 141.713 89.1687C139.486 89.1687 137.64 90.0104 136.174 91.6937C134.726 93.3589 134.002 95.4675 134.002 98.0196V113.875H129.549V86.0736H134.002V90.6891H134.111C136.21 87.1777 139.251 85.422 143.233 85.422C146.274 85.422 148.6 86.4085 150.211 88.3814C151.821 90.3362 152.627 93.1688 152.627 96.8793V113.875ZM159.36 112.871V108.092C161.786 109.884 164.455 110.78 167.369 110.78C171.279 110.78 173.234 109.477 173.234 106.871C173.234 106.128 173.062 105.504 172.718 104.997C172.392 104.472 171.94 104.011 171.36 103.613C170.799 103.214 170.13 102.861 169.351 102.554C168.591 102.228 167.768 101.893 166.881 101.549C165.65 101.06 164.564 100.572 163.623 100.083C162.7 99.5762 161.921 99.0151 161.288 98.3997C160.672 97.7662 160.202 97.0513 159.876 96.2549C159.568 95.4585 159.414 94.5263 159.414 93.4584C159.414 92.1552 159.713 91.0059 160.31 90.0104C160.908 88.9968 161.704 88.1551 162.7 87.4854C163.695 86.7976 164.826 86.2818 166.093 85.9379C167.378 85.594 168.7 85.422 170.057 85.422C172.465 85.422 174.618 85.8383 176.519 86.6709V91.1778C174.474 89.8384 172.121 89.1687 169.46 89.1687C168.627 89.1687 167.876 89.2683 167.206 89.4674C166.537 89.6484 165.958 89.9108 165.469 90.2547C164.998 90.5986 164.627 91.0149 164.356 91.5036C164.102 91.9742 163.976 92.4991 163.976 93.0783C163.976 93.8023 164.102 94.4087 164.356 94.8974C164.627 95.3861 165.016 95.8205 165.523 96.2006C166.03 96.5807 166.645 96.9246 167.369 97.2323C168.093 97.54 168.917 97.8748 169.84 98.2368C171.071 98.7074 172.175 99.1961 173.152 99.7029C174.13 100.192 174.962 100.753 175.65 101.386C176.338 102.002 176.863 102.717 177.225 103.531C177.605 104.346 177.795 105.314 177.795 106.436C177.795 107.812 177.487 109.006 176.872 110.02C176.275 111.034 175.469 111.875 174.456 112.545C173.442 113.215 172.274 113.712 170.953 114.038C169.632 114.364 168.247 114.527 166.799 114.527C163.939 114.527 161.46 113.975 159.36 112.871ZM207.144 113.875H202.692V109.477H202.583C200.737 112.844 197.877 114.527 194.004 114.527C187.379 114.527 184.067 110.581 184.067 102.689V86.0736H188.492V101.984C188.492 107.848 190.736 110.78 195.225 110.78C197.397 110.78 199.18 109.984 200.574 108.391C201.986 106.78 202.692 104.68 202.692 102.092V86.0736H207.144V113.875ZM220.611 113.875H216.158V72.7158H220.611V113.875ZM242.521 113.604C241.471 114.183 240.086 114.473 238.367 114.473C233.498 114.473 231.063 111.758 231.063 106.328V89.8746H226.285V86.0736H231.063V79.2861L235.516 77.8472V86.0736H242.521V89.8746H235.516V105.54C235.516 107.404 235.833 108.735 236.466 109.531C237.1 110.328 238.149 110.726 239.616 110.726C240.738 110.726 241.706 110.418 242.521 109.803V113.604ZM250.747 79.0146C249.951 79.0146 249.272 78.7431 248.711 78.2001C248.15 77.6571 247.869 76.9693 247.869 76.1367C247.869 75.3041 248.15 74.6163 248.711 74.0733C249.272 73.5122 249.951 73.2317 250.747 73.2317C251.562 73.2317 252.249 73.5122 252.81 74.0733C253.39 74.6163 253.679 75.3041 253.679 76.1367C253.679 76.9331 253.39 77.6119 252.81 78.173C252.249 78.7341 251.562 79.0146 250.747 79.0146ZM252.919 113.875H248.466V86.0736H252.919V113.875ZM285.01 113.875H280.558V98.0196C280.558 92.119 278.404 89.1687 274.096 89.1687C271.87 89.1687 270.024 90.0104 268.557 91.6937C267.109 93.3589 266.385 95.4675 266.385 98.0196V113.875H261.933V86.0736H266.385V90.6891H266.494C268.594 87.1777 271.634 85.422 275.616 85.422C278.657 85.422 280.983 86.4085 282.594 88.3814C284.205 90.3362 285.01 93.1688 285.01 96.8793V113.875ZM317.156 111.649C317.156 121.857 312.269 126.962 302.495 126.962C299.056 126.962 296.051 126.31 293.481 125.007V120.554C296.612 122.292 299.599 123.161 302.441 123.161C309.282 123.161 312.703 119.522 312.703 112.246V109.205H312.595C310.477 112.753 307.291 114.527 303.038 114.527C299.581 114.527 296.793 113.296 294.676 110.834C292.576 108.355 291.526 105.033 291.526 100.87C291.526 96.1463 292.658 92.3905 294.92 89.6031C297.201 86.8157 300.314 85.422 304.26 85.422C308.006 85.422 310.785 86.9243 312.595 89.9289H312.703V86.0736H317.156V111.649ZM312.703 101.305V97.2051C312.703 94.9969 311.952 93.1055 310.45 91.5308C308.966 89.9561 307.11 89.1687 304.884 89.1687C302.133 89.1687 299.979 90.1733 298.422 92.1824C296.866 94.1734 296.088 96.9698 296.088 100.572C296.088 103.667 296.83 106.147 298.314 108.011C299.816 109.857 301.798 110.78 304.26 110.78C306.757 110.78 308.785 109.893 310.341 108.119C311.916 106.346 312.703 104.074 312.703 101.305ZM110.816 150.16V164.875H106.255V125.942H116.952C121.115 125.942 124.337 126.956 126.617 128.983C128.916 131.01 130.065 133.87 130.065 137.562C130.065 141.255 128.789 144.277 126.237 146.63C123.703 148.983 120.273 150.16 115.947 150.16H110.816ZM110.816 130.069V146.033H115.594C118.744 146.033 121.142 145.318 122.789 143.888C124.454 142.44 125.287 140.404 125.287 137.78C125.287 132.639 122.246 130.069 116.164 130.069H110.816ZM154.935 164.875H150.482V160.531H150.373C148.437 163.862 145.586 165.527 141.821 165.527C139.052 165.527 136.88 164.794 135.305 163.328C133.749 161.862 132.97 159.916 132.97 157.49C132.97 152.296 136.029 149.273 142.147 148.422L150.482 147.255C150.482 142.531 148.573 140.169 144.753 140.169C141.405 140.169 138.382 141.309 135.685 143.59V139.028C138.418 137.291 141.568 136.422 145.134 136.422C151.668 136.422 154.935 139.879 154.935 146.793V164.875ZM150.482 150.812L143.776 151.735C141.713 152.024 140.156 152.54 139.106 153.282C138.056 154.006 137.532 155.3 137.532 157.165C137.532 158.522 138.011 159.635 138.97 160.504C139.948 161.355 141.242 161.78 142.853 161.78C145.061 161.78 146.88 161.011 148.31 159.472C149.758 157.916 150.482 155.952 150.482 153.581V150.812ZM177.822 141.581C177.044 140.983 175.922 140.685 174.456 140.685C172.555 140.685 170.962 141.581 169.677 143.372C168.41 145.164 167.777 147.608 167.777 150.703V164.875H163.324V137.074H167.777V142.802H167.885C168.519 140.847 169.487 139.327 170.79 138.241C172.093 137.137 173.551 136.585 175.161 136.585C176.32 136.585 177.207 136.712 177.822 136.965V141.581ZM197.18 164.604C196.13 165.183 194.746 165.473 193.026 165.473C188.157 165.473 185.723 162.758 185.723 157.328V140.875H180.944V137.074H185.723V130.286L190.175 128.847V137.074H197.18V140.875H190.175V156.54C190.175 158.404 190.492 159.735 191.126 160.531C191.759 161.328 192.809 161.726 194.275 161.726C195.397 161.726 196.366 161.418 197.18 160.803V164.604ZM226.203 164.875H221.751V149.02C221.751 143.119 219.597 140.169 215.289 140.169C213.063 140.169 211.217 141.01 209.751 142.694C208.303 144.359 207.579 146.468 207.579 149.02V164.875H203.126V137.074H207.579V141.689H207.687C209.787 138.178 212.828 136.422 216.81 136.422C219.85 136.422 222.176 137.408 223.787 139.381C225.398 141.336 226.203 144.169 226.203 147.879V164.875ZM256.964 152.088H237.335C237.407 155.183 238.24 157.572 239.833 159.255C241.426 160.938 243.616 161.78 246.403 161.78C249.534 161.78 252.412 160.748 255.037 158.685V162.866C252.593 164.64 249.362 165.527 245.344 165.527C241.417 165.527 238.33 164.269 236.086 161.753C233.842 159.219 232.719 155.662 232.719 151.083C232.719 146.757 233.941 143.237 236.385 140.522C238.846 137.789 241.896 136.422 245.534 136.422C249.172 136.422 251.987 137.599 253.978 139.952C255.969 142.305 256.964 145.572 256.964 149.753V152.088ZM252.403 148.314C252.385 145.744 251.761 143.743 250.53 142.314C249.317 140.884 247.625 140.169 245.453 140.169C243.353 140.169 241.57 140.92 240.104 142.422C238.638 143.924 237.733 145.888 237.389 148.314H252.403ZM278.223 141.581C277.445 140.983 276.322 140.685 274.856 140.685C272.956 140.685 271.363 141.581 270.078 143.372C268.811 145.164 268.177 147.608 268.177 150.703V164.875H263.725V137.074H268.177V142.802H268.286C268.919 140.847 269.888 139.327 271.191 138.241C272.494 137.137 273.951 136.585 275.562 136.585C276.721 136.585 277.607 136.712 278.223 136.965V141.581Z" fill="#333333"/>
<path d="M125.797 194.548V199.453H124.276V186.475H127.842C129.23 186.475 130.304 186.813 131.064 187.489C131.83 188.165 132.213 189.118 132.213 190.349C132.213 191.579 131.788 192.587 130.937 193.371C130.093 194.156 128.949 194.548 127.507 194.548H125.797ZM125.797 187.851V193.172H127.39C128.439 193.172 129.239 192.934 129.788 192.457C130.343 191.975 130.62 191.296 130.62 190.421C130.62 188.708 129.607 187.851 127.58 187.851H125.797ZM140.503 199.453H139.019V198.005H138.983C138.337 199.115 137.387 199.67 136.132 199.67C135.209 199.67 134.485 199.426 133.96 198.937C133.441 198.448 133.182 197.8 133.182 196.991C133.182 195.26 134.201 194.252 136.241 193.969L139.019 193.579C139.019 192.005 138.382 191.217 137.109 191.217C135.993 191.217 134.986 191.597 134.087 192.358V190.837C134.998 190.258 136.047 189.968 137.236 189.968C139.414 189.968 140.503 191.121 140.503 193.426V199.453ZM139.019 194.765L136.784 195.073C136.096 195.169 135.577 195.341 135.227 195.589C134.877 195.83 134.702 196.261 134.702 196.883C134.702 197.335 134.862 197.706 135.182 197.996C135.507 198.279 135.939 198.421 136.476 198.421C137.212 198.421 137.818 198.165 138.295 197.652C138.778 197.133 139.019 196.478 139.019 195.688V194.765ZM148.132 191.688C147.873 191.489 147.499 191.389 147.01 191.389C146.377 191.389 145.846 191.688 145.417 192.285C144.995 192.883 144.784 193.697 144.784 194.729V199.453H143.3V190.186H144.784V192.095H144.82C145.031 191.444 145.354 190.937 145.788 190.575C146.223 190.207 146.708 190.023 147.245 190.023C147.631 190.023 147.927 190.065 148.132 190.149V191.688ZM154.585 199.362C154.235 199.555 153.773 199.652 153.2 199.652C151.577 199.652 150.766 198.747 150.766 196.937V191.453H149.173V190.186H150.766V187.923L152.25 187.444V190.186H154.585V191.453H152.25V196.675C152.25 197.296 152.356 197.739 152.567 198.005C152.778 198.27 153.128 198.403 153.617 198.403C153.991 198.403 154.313 198.301 154.585 198.095V199.362ZM164.259 199.453H162.775V194.168C162.775 192.201 162.057 191.217 160.621 191.217C159.879 191.217 159.264 191.498 158.775 192.059C158.292 192.614 158.051 193.317 158.051 194.168V199.453H156.567V190.186H158.051V191.724H158.087C158.787 190.554 159.801 189.968 161.128 189.968C162.142 189.968 162.917 190.297 163.454 190.955C163.991 191.607 164.259 192.551 164.259 193.788V199.453ZM174.513 195.19H167.97C167.994 196.222 168.272 197.018 168.802 197.58C169.333 198.141 170.063 198.421 170.993 198.421C172.036 198.421 172.996 198.077 173.87 197.389V198.783C173.056 199.374 171.979 199.67 170.64 199.67C169.33 199.67 168.302 199.251 167.554 198.412C166.805 197.567 166.431 196.382 166.431 194.855C166.431 193.414 166.839 192.24 167.653 191.335C168.474 190.424 169.49 189.968 170.703 189.968C171.916 189.968 172.854 190.361 173.517 191.145C174.181 191.929 174.513 193.018 174.513 194.412V195.19ZM172.993 193.932C172.987 193.076 172.778 192.409 172.368 191.932C171.964 191.456 171.4 191.217 170.676 191.217C169.976 191.217 169.382 191.468 168.893 191.969C168.404 192.469 168.103 193.124 167.988 193.932H172.993ZM181.599 191.688C181.34 191.489 180.966 191.389 180.477 191.389C179.843 191.389 179.313 191.688 178.884 192.285C178.462 192.883 178.251 193.697 178.251 194.729V199.453H176.766V190.186H178.251V192.095H178.287C178.498 191.444 178.821 190.937 179.255 190.575C179.69 190.207 180.175 190.023 180.712 190.023C181.098 190.023 181.394 190.065 181.599 190.149V191.688ZM198.957 199.453H197.093L190.414 189.109C190.245 188.849 190.106 188.578 189.998 188.294H189.943C189.992 188.572 190.016 189.166 190.016 190.077V199.453H188.495V186.475H190.468L196.966 196.656C197.238 197.079 197.413 197.368 197.491 197.525H197.527C197.467 197.151 197.437 196.515 197.437 195.616V186.475H198.957V199.453ZM209.609 195.19H203.066C203.09 196.222 203.367 197.018 203.898 197.58C204.429 198.141 205.159 198.421 206.088 198.421C207.132 198.421 208.092 198.077 208.966 197.389V198.783C208.152 199.374 207.075 199.67 205.735 199.67C204.426 199.67 203.398 199.251 202.649 198.412C201.901 197.567 201.527 196.382 201.527 194.855C201.527 193.414 201.934 192.24 202.749 191.335C203.57 190.424 204.586 189.968 205.799 189.968C207.012 189.968 207.95 190.361 208.613 191.145C209.277 191.929 209.609 193.018 209.609 194.412V195.19ZM208.088 193.932C208.082 193.076 207.874 192.409 207.464 191.932C207.06 191.456 206.496 191.217 205.772 191.217C205.072 191.217 204.478 191.468 203.989 191.969C203.5 192.469 203.198 193.124 203.084 193.932H208.088ZM216.161 199.362C215.811 199.555 215.35 199.652 214.776 199.652C213.153 199.652 212.342 198.747 212.342 196.937V191.453H210.749V190.186H212.342V187.923L213.826 187.444V190.186H216.161V191.453H213.826V196.675C213.826 197.296 213.932 197.739 214.143 198.005C214.354 198.27 214.704 198.403 215.193 198.403C215.567 198.403 215.89 198.301 216.161 198.095V199.362ZM229.818 190.186L227.039 199.453H225.501L223.591 192.819C223.519 192.566 223.47 192.279 223.446 191.959H223.41C223.392 192.177 223.329 192.457 223.22 192.801L221.148 199.453H219.663L216.858 190.186H218.415L220.333 197.154C220.393 197.365 220.436 197.643 220.46 197.987H220.532C220.55 197.721 220.605 197.438 220.695 197.136L222.831 190.186H224.188L226.107 197.172C226.167 197.396 226.213 197.673 226.243 198.005H226.315C226.327 197.77 226.379 197.492 226.469 197.172L228.351 190.186H229.818ZM235.356 199.67C233.987 199.67 232.892 199.239 232.071 198.376C231.256 197.507 230.849 196.358 230.849 194.928C230.849 193.371 231.275 192.156 232.125 191.281C232.976 190.406 234.125 189.968 235.573 189.968C236.955 189.968 238.032 190.394 238.804 191.245C239.582 192.095 239.972 193.275 239.972 194.783C239.972 196.261 239.552 197.447 238.714 198.34C237.881 199.227 236.762 199.67 235.356 199.67ZM235.465 191.217C234.511 191.217 233.757 191.543 233.202 192.195C232.647 192.84 232.37 193.733 232.37 194.874C232.37 195.972 232.65 196.837 233.211 197.471C233.772 198.104 234.524 198.421 235.465 198.421C236.424 198.421 237.16 198.11 237.673 197.489C238.192 196.868 238.451 195.984 238.451 194.837C238.451 193.679 238.192 192.786 237.673 192.159C237.16 191.531 236.424 191.217 235.465 191.217ZM247.175 191.688C246.916 191.489 246.542 191.389 246.053 191.389C245.42 191.389 244.889 191.688 244.46 192.285C244.038 192.883 243.827 193.697 243.827 194.729V199.453H242.343V190.186H243.827V192.095H243.863C244.074 191.444 244.397 190.937 244.832 190.575C245.266 190.207 245.752 190.023 246.289 190.023C246.675 190.023 246.97 190.065 247.175 190.149V191.688ZM256.479 199.453H254.397L250.307 195H250.271V199.453H248.786V185.733H250.271V194.43H250.307L254.198 190.186H256.144L251.845 194.656L256.479 199.453Z" fill="#666666"/>
<g clip-path="url(#clip1_3431_21516)">
<path d="M209.84 282.96C210.77 283.47 211.781 283.816 212.827 283.985C214.141 284.3 215.489 284.443 216.839 284.411C218.077 284.426 219.311 284.253 220.497 283.899C221.535 283.572 222.515 283.083 223.399 282.448C224.202 281.843 224.847 281.052 225.277 280.144C225.729 279.191 225.962 278.15 225.96 277.095C225.947 275.778 225.52 274.499 224.741 273.437C223.972 272.413 222.607 271.559 220.729 270.962L217.071 269.743C216.01 269.475 215.019 268.98 214.169 268.292C213.891 268.003 213.68 267.658 213.55 267.28C213.419 266.902 213.373 266.5 213.413 266.102C213.454 265.704 213.581 265.319 213.785 264.975C213.989 264.631 214.266 264.336 214.596 264.109C215.67 263.538 216.88 263.272 218.095 263.341C219.828 263.317 221.545 263.666 223.131 264.365C223.453 264.531 223.798 264.646 224.155 264.707C224.582 264.707 224.765 264.451 224.765 263.853V262.829C224.785 262.523 224.694 262.22 224.509 261.975C224.316 261.685 224.051 261.45 223.741 261.292C223.399 261.085 223.024 260.941 222.631 260.866C222.204 260.695 221.692 260.61 221.18 260.439C220.619 260.306 220.048 260.22 219.473 260.183C218.887 260.042 218.283 259.984 217.681 260.012C216.586 260.017 215.496 260.16 214.437 260.439C213.456 260.737 212.533 261.199 211.706 261.805C210.95 262.39 210.312 263.114 209.828 263.938C209.333 264.823 209.097 265.828 209.145 266.841C209.138 268.201 209.589 269.523 210.425 270.596C211.279 271.816 212.645 272.645 214.608 273.242L218.363 274.462C219.335 274.716 220.239 275.182 221.009 275.827C221.241 276.062 221.422 276.343 221.54 276.652C221.657 276.96 221.709 277.29 221.692 277.62C221.707 278.117 221.588 278.609 221.347 279.044C221.107 279.479 220.755 279.842 220.327 280.095C219.388 280.705 218.193 280.949 216.486 280.949C215.459 280.96 214.436 280.845 213.437 280.607C212.433 280.424 211.457 280.108 210.535 279.668C210.302 279.597 210.074 279.512 209.852 279.412C209.691 279.343 209.515 279.313 209.34 279.327C208.913 279.327 208.73 279.583 208.73 280.18V281.461C208.746 281.724 208.804 281.983 208.901 282.229C209.155 282.55 209.475 282.812 209.84 282.997V282.96Z" fill="#252F3E"/>
<path d="M165.711 270.328C164.808 270.189 163.894 270.132 162.98 270.157C160.334 270.157 158.2 270.84 156.578 272.206C155.148 273.53 154.293 275.361 154.197 277.308C154.102 279.255 154.773 281.161 156.066 282.619C157.347 283.899 159.054 284.497 161.273 284.497C162.741 284.519 164.195 284.208 165.526 283.587C166.857 282.966 168.029 282.052 168.955 280.912C169.176 281.441 169.433 281.954 169.723 282.448C169.986 282.891 170.302 283.3 170.662 283.668C170.759 283.775 170.878 283.86 171.01 283.919C171.143 283.978 171.286 284.009 171.43 284.009C171.677 283.988 171.913 283.899 172.113 283.753L173.735 282.643C173.874 282.564 173.993 282.453 174.082 282.32C174.171 282.187 174.227 282.034 174.247 281.875C174.22 281.665 174.163 281.459 174.076 281.266C173.737 280.666 173.452 280.037 173.223 279.388C173.034 278.635 172.947 277.859 172.967 277.083V268.548C172.967 265.731 172.284 263.597 170.833 262.146C169.382 260.695 167.175 260.012 164.004 260.012C162.622 260.004 161.245 260.176 159.907 260.524C158.785 260.812 157.698 261.221 156.664 261.744C156.393 261.848 156.157 262.025 155.981 262.256C155.81 262.426 155.81 262.768 155.81 263.195V264.475C155.81 264.987 155.981 265.329 156.322 265.329C156.469 265.334 156.616 265.305 156.749 265.243C156.92 265.158 157.261 265.072 157.688 264.902C158.602 264.539 159.544 264.254 160.505 264.048C161.424 263.809 162.372 263.694 163.322 263.707C165.37 263.707 166.736 264.134 167.589 264.926C168.443 265.719 168.809 267.145 168.809 269.109V270.986C167.699 270.73 166.76 270.56 165.76 270.377L165.711 270.328ZM168.699 274.937C168.713 275.685 168.627 276.431 168.443 277.156C168.298 277.76 168.005 278.317 167.589 278.778C166.937 279.545 166.078 280.108 165.114 280.4C164.24 280.727 163.316 280.9 162.383 280.912C161.888 280.971 161.387 280.917 160.916 280.754C160.445 280.591 160.018 280.323 159.666 279.971C159.314 279.619 159.046 279.191 158.883 278.72C158.72 278.25 158.666 277.748 158.725 277.254C158.693 276.691 158.793 276.128 159.015 275.61C159.237 275.092 159.576 274.632 160.005 274.266C160.858 273.584 162.139 273.242 163.846 273.242C164.614 273.242 165.468 273.328 166.321 273.413C167.126 273.506 167.924 273.649 168.711 273.84V274.949L168.699 274.937Z" fill="#252F3E"/>
<path d="M181.844 282.534C181.941 282.907 182.116 283.256 182.356 283.558C182.654 283.766 183.019 283.857 183.38 283.814H185.599C185.961 283.857 186.325 283.766 186.623 283.558C186.863 283.256 187.038 282.907 187.136 282.534L191.147 265.749L195.244 282.564C195.256 282.761 195.308 282.953 195.396 283.129C195.484 283.305 195.606 283.461 195.756 283.588C196.06 283.784 196.42 283.874 196.781 283.845H199C199.359 283.862 199.715 283.773 200.024 283.588C200.296 283.308 200.475 282.95 200.536 282.564L206.853 262.445C206.928 262.247 206.985 262.043 207.023 261.835C207.023 261.664 207.109 261.579 207.109 261.408C207.109 260.982 206.938 260.799 206.499 260.799H204.109C203.748 260.755 203.383 260.846 203.085 261.055C202.845 261.357 202.67 261.706 202.573 262.079L198.049 279.577L193.866 261.994C193.855 261.797 193.803 261.605 193.715 261.429C193.627 261.253 193.504 261.097 193.354 260.969C193.05 260.773 192.69 260.683 192.33 260.713H190.196C189.835 260.67 189.47 260.761 189.172 260.969C188.932 261.272 188.758 261.62 188.66 261.994L184.563 279.235L180.21 261.994C180.112 261.62 179.937 261.272 179.697 260.969C179.399 260.761 179.035 260.67 178.673 260.713H176.113C175.686 260.713 175.503 260.884 175.503 261.323C175.545 261.674 175.631 262.018 175.759 262.347L181.819 282.576L181.844 282.534Z" fill="#252F3E"/>
<path d="M220.51 295.166C209.575 299.795 197.715 301.819 185.865 301.078C174.014 300.338 162.498 296.853 152.226 290.899C151.287 290.289 150.518 291.325 151.372 292.118C162.001 301.691 175.819 306.956 190.123 306.884C200.793 306.884 213.254 303.555 221.875 297.129C223.156 296.105 221.961 294.569 220.51 295.166Z" fill="#FF9900"/>
<path d="M215.132 291.581C214.364 292.093 214.523 292.862 215.303 292.801C218.034 292.459 224.265 291.691 225.29 293.142C226.314 294.593 224.07 300.312 223.07 302.958C222.729 303.726 223.412 304.068 224.18 303.47C228.789 299.629 229.984 291.52 229.057 290.411C228.118 289.13 220.01 288.192 215.144 291.63L215.132 291.581Z" fill="#FF9900"/>
</g>
</g>
<defs>
<filter id="filter0_d_3431_21516" x="0" y="0" width="382" height="368" filterUnits="userSpaceOnUse" color-interpolation-filters="sRGB">
<feFlood flood-opacity="0" result="BackgroundImageFix"/>
<feColorMatrix in="SourceAlpha" type="matrix" values="0 0 0 0 0 0 0 0 0 0 0 0 0 0 0 0 0 0 127 0" result="hardAlpha"/>
<feOffset dx="1" dy="1"/>
<feGaussianBlur stdDeviation="5"/>
<feComposite in2="hardAlpha" operator="out"/>
<feColorMatrix type="matrix" values="0 0 0 0 0 0 0 0 0 0 0 0 0 0 0 0 0 0 0.2 0"/>
<feBlend mode="normal" in2="BackgroundImageFix" result="effect1_dropShadow_3431_21516"/>
<feBlend mode="normal" in="SourceGraphic" in2="effect1_dropShadow_3431_21516" result="shape"/>
</filter>
<clipPath id="clip0_3431_21516">
<rect width="362" height="348" fill="white" transform="translate(9 9)"/>
</clipPath>
<clipPath id="clip1_3431_21516">
<rect width="78.3377" height="46.8599" fill="white" transform="translate(151 260)"/>
</clipPath>
</defs>
</svg>
