<svg width="382" height="368" viewBox="0 0 382 368" fill="none" xmlns="http://www.w3.org/2000/svg">
<g clip-path="url(#clip0_3431_21515)" filter="url(#filter0_d_3431_21515)">
<rect width="362" height="348" transform="translate(9 9)" fill="white"/>
<rect x="9" y="9" width="362" height="364.896" fill="#2F2F2F"/>
<path d="M118.282 113.875H113.748V87.7569C113.748 85.6935 113.875 83.1686 114.128 80.1821H114.02C113.585 81.9378 113.196 83.1957 112.852 83.9559L99.5487 113.875H97.3224L84.046 84.1731C83.6659 83.3043 83.2768 81.974 82.8786 80.1821H82.77C82.9148 81.7387 82.9872 84.2817 82.9872 87.8112V113.875H78.5889V74.9421H84.6162L96.5622 102.092C97.4853 104.174 98.0826 105.73 98.3541 106.762H98.517C99.2953 104.626 99.9197 103.033 100.39 101.984L112.581 74.9421H118.282V113.875ZM130.228 79.0146C129.432 79.0146 128.753 78.7431 128.192 78.2001C127.631 77.6571 127.35 76.9693 127.35 76.1367C127.35 75.3041 127.631 74.6163 128.192 74.0733C128.753 73.5122 129.432 73.2317 130.228 73.2317C131.043 73.2317 131.73 73.5122 132.292 74.0733C132.871 74.6163 133.16 75.3041 133.16 76.1367C133.16 76.9331 132.871 77.6119 132.292 78.173C131.73 78.7341 131.043 79.0146 130.228 79.0146ZM132.4 113.875H127.948V86.0736H132.4V113.875ZM160.365 112.599C158.229 113.884 155.695 114.527 152.763 114.527C148.799 114.527 145.595 113.242 143.152 110.672C140.726 108.083 139.513 104.735 139.513 100.626C139.513 96.0467 140.826 92.3724 143.45 89.6031C146.075 86.8157 149.577 85.422 153.957 85.422C156.401 85.422 158.555 85.8745 160.419 86.7795V91.3407C158.356 89.8927 156.147 89.1687 153.794 89.1687C150.953 89.1687 148.618 90.1914 146.79 92.2367C144.98 94.2639 144.075 96.9336 144.075 100.246C144.075 103.504 144.925 106.074 146.627 107.957C148.346 109.839 150.645 110.78 153.523 110.78C155.948 110.78 158.229 109.975 160.365 108.364V112.599ZM181.596 90.5805C180.818 89.9832 179.695 89.6846 178.229 89.6846C176.329 89.6846 174.736 90.5805 173.451 92.3724C172.184 94.1643 171.55 96.6078 171.55 99.7029V113.875H167.098V86.0736H171.55V91.8023H171.659C172.293 89.8475 173.261 88.3271 174.564 87.2411C175.867 86.137 177.324 85.5849 178.935 85.5849C180.094 85.5849 180.981 85.7116 181.596 85.965V90.5805ZM197.289 114.527C193.18 114.527 189.895 113.233 187.433 110.644C184.99 108.038 183.768 104.59 183.768 100.3C183.768 95.6304 185.044 91.9833 187.596 89.3588C190.148 86.7343 193.596 85.422 197.94 85.422C202.085 85.422 205.316 86.6981 207.633 89.2502C209.968 91.8023 211.135 95.3408 211.135 99.8658C211.135 104.3 209.877 107.857 207.361 110.536C204.864 113.196 201.506 114.527 197.289 114.527ZM197.614 89.1687C194.755 89.1687 192.492 90.1461 190.827 92.1009C189.162 94.0376 188.329 96.7164 188.329 100.137C188.329 103.432 189.171 106.029 190.854 107.929C192.537 109.83 194.791 110.78 197.614 110.78C200.492 110.78 202.701 109.848 204.239 107.984C205.796 106.119 206.574 103.468 206.574 100.029C206.574 96.5535 205.796 93.8747 204.239 91.9923C202.701 90.1099 200.492 89.1687 197.614 89.1687ZM216.565 112.871V108.092C218.991 109.884 221.66 110.78 224.574 110.78C228.484 110.78 230.439 109.477 230.439 106.871C230.439 106.128 230.267 105.504 229.923 104.997C229.597 104.472 229.145 104.011 228.566 103.613C228.004 103.214 227.335 102.861 226.556 102.554C225.796 102.228 224.973 101.893 224.086 101.549C222.855 101.06 221.769 100.572 220.828 100.083C219.905 99.5762 219.126 99.0151 218.493 98.3997C217.877 97.7662 217.407 97.0513 217.081 96.2549C216.773 95.4585 216.62 94.5263 216.62 93.4584C216.62 92.1552 216.918 91.0059 217.515 90.0104C218.113 88.9968 218.909 88.1551 219.905 87.4854C220.9 86.7976 222.031 86.2818 223.298 85.9379C224.584 85.594 225.905 85.422 227.262 85.422C229.67 85.422 231.824 85.8383 233.724 86.6709V91.1778C231.679 89.8384 229.326 89.1687 226.665 89.1687C225.832 89.1687 225.081 89.2683 224.412 89.4674C223.742 89.6484 223.163 89.9108 222.674 90.2547C222.203 90.5986 221.832 91.0149 221.561 91.5036C221.307 91.9742 221.181 92.4991 221.181 93.0783C221.181 93.8023 221.307 94.4087 221.561 94.8974C221.832 95.3861 222.221 95.8205 222.728 96.2006C223.235 96.5807 223.85 96.9246 224.574 97.2323C225.298 97.54 226.122 97.8748 227.045 98.2368C228.276 98.7074 229.38 99.1961 230.357 99.7029C231.335 100.192 232.167 100.753 232.855 101.386C233.543 102.002 234.068 102.717 234.43 103.531C234.81 104.346 235 105.314 235 106.436C235 107.812 234.692 109.006 234.077 110.02C233.48 111.034 232.674 111.875 231.661 112.545C230.647 113.215 229.48 113.712 228.158 114.038C226.837 114.364 225.452 114.527 224.004 114.527C221.145 114.527 218.665 113.975 216.565 112.871ZM253.489 114.527C249.38 114.527 246.095 113.233 243.634 110.644C241.19 108.038 239.968 104.59 239.968 100.3C239.968 95.6304 241.245 91.9833 243.797 89.3588C246.349 86.7343 249.797 85.422 254.141 85.422C258.286 85.422 261.517 86.6981 263.833 89.2502C266.168 91.8023 267.336 95.3408 267.336 99.8658C267.336 104.3 266.078 107.857 263.562 110.536C261.064 113.196 257.706 114.527 253.489 114.527ZM253.815 89.1687C250.955 89.1687 248.693 90.1461 247.027 92.1009C245.362 94.0376 244.53 96.7164 244.53 100.137C244.53 103.432 245.371 106.029 247.055 107.929C248.738 109.83 250.991 110.78 253.815 110.78C256.693 110.78 258.901 109.848 260.44 107.984C261.996 106.119 262.774 103.468 262.774 100.029C262.774 96.5535 261.996 93.8747 260.44 91.9923C258.901 90.1099 256.693 89.1687 253.815 89.1687ZM287.155 76.6254C286.286 76.1367 285.3 75.8924 284.196 75.8924C281.083 75.8924 279.526 77.8562 279.526 81.7839V86.0736H286.042V89.8746H279.526V113.875H275.101V89.8746H270.349V86.0736H275.101V81.5667C275.101 78.6526 275.942 76.3539 277.626 74.6706C279.309 72.9692 281.408 72.1185 283.924 72.1185C285.282 72.1185 286.359 72.2814 287.155 72.6072V76.6254ZM304.776 113.604C303.726 114.183 302.341 114.473 300.622 114.473C295.753 114.473 293.318 111.758 293.318 106.328V89.8746H288.54V86.0736H293.318V79.2861L297.771 77.8472V86.0736H304.776V89.8746H297.771V105.54C297.771 107.404 298.088 108.735 298.721 109.531C299.355 110.328 300.404 110.726 301.871 110.726C302.993 110.726 303.961 110.418 304.776 109.803V113.604ZM110.816 150.16V164.875H106.255V125.942H116.952C121.115 125.942 124.337 126.956 126.617 128.983C128.916 131.01 130.065 133.87 130.065 137.562C130.065 141.255 128.789 144.277 126.237 146.63C123.703 148.983 120.273 150.16 115.947 150.16H110.816ZM110.816 130.069V146.033H115.594C118.744 146.033 121.142 145.318 122.789 143.888C124.454 142.44 125.287 140.404 125.287 137.78C125.287 132.639 122.246 130.069 116.164 130.069H110.816ZM154.935 164.875H150.482V160.531H150.373C148.437 163.862 145.586 165.527 141.821 165.527C139.052 165.527 136.88 164.794 135.305 163.328C133.749 161.862 132.97 159.916 132.97 157.49C132.97 152.296 136.029 149.273 142.147 148.422L150.482 147.255C150.482 142.531 148.573 140.169 144.753 140.169C141.405 140.169 138.382 141.309 135.685 143.59V139.028C138.418 137.291 141.568 136.422 145.134 136.422C151.668 136.422 154.935 139.879 154.935 146.793V164.875ZM150.482 150.812L143.776 151.735C141.713 152.024 140.156 152.54 139.106 153.282C138.056 154.006 137.532 155.3 137.532 157.165C137.532 158.522 138.011 159.635 138.97 160.504C139.948 161.355 141.242 161.78 142.853 161.78C145.061 161.78 146.88 161.011 148.31 159.472C149.758 157.916 150.482 155.952 150.482 153.581V150.812ZM177.822 141.581C177.044 140.983 175.922 140.685 174.456 140.685C172.555 140.685 170.962 141.581 169.677 143.372C168.41 145.164 167.777 147.608 167.777 150.703V164.875H163.324V137.074H167.777V142.802H167.885C168.519 140.847 169.487 139.327 170.79 138.241C172.093 137.137 173.551 136.585 175.161 136.585C176.32 136.585 177.207 136.712 177.822 136.965V141.581ZM197.18 164.604C196.13 165.183 194.746 165.473 193.026 165.473C188.157 165.473 185.723 162.758 185.723 157.328V140.875H180.944V137.074H185.723V130.286L190.175 128.847V137.074H197.18V140.875H190.175V156.54C190.175 158.404 190.492 159.735 191.126 160.531C191.759 161.328 192.809 161.726 194.275 161.726C195.397 161.726 196.366 161.418 197.18 160.803V164.604ZM226.203 164.875H221.751V149.02C221.751 143.119 219.597 140.169 215.289 140.169C213.063 140.169 211.217 141.01 209.751 142.694C208.303 144.359 207.579 146.468 207.579 149.02V164.875H203.126V137.074H207.579V141.689H207.687C209.787 138.178 212.828 136.422 216.81 136.422C219.85 136.422 222.176 137.408 223.787 139.381C225.398 141.336 226.203 144.169 226.203 147.879V164.875ZM256.964 152.088H237.335C237.407 155.183 238.24 157.572 239.833 159.255C241.426 160.938 243.616 161.78 246.403 161.78C249.534 161.78 252.412 160.748 255.037 158.685V162.866C252.593 164.64 249.362 165.527 245.344 165.527C241.417 165.527 238.33 164.269 236.086 161.753C233.842 159.219 232.719 155.662 232.719 151.083C232.719 146.757 233.941 143.237 236.385 140.522C238.846 137.789 241.896 136.422 245.534 136.422C249.172 136.422 251.987 137.599 253.978 139.952C255.969 142.305 256.964 145.572 256.964 149.753V152.088ZM252.403 148.314C252.385 145.744 251.761 143.743 250.53 142.314C249.317 140.884 247.625 140.169 245.453 140.169C243.353 140.169 241.57 140.92 240.104 142.422C238.638 143.924 237.733 145.888 237.389 148.314H252.403ZM278.223 141.581C277.445 140.983 276.322 140.685 274.856 140.685C272.956 140.685 271.363 141.581 270.078 143.372C268.811 145.164 268.177 147.608 268.177 150.703V164.875H263.725V137.074H268.177V142.802H268.286C268.919 140.847 269.888 139.327 271.191 138.241C272.494 137.137 273.951 136.585 275.562 136.585C276.721 136.585 277.607 136.712 278.223 136.965V141.581Z" fill="white"/>
<path d="M108.294 198.928V197.136C108.499 197.317 108.744 197.48 109.027 197.625C109.317 197.77 109.618 197.893 109.932 197.996C110.252 198.092 110.572 198.168 110.892 198.222C111.211 198.276 111.507 198.304 111.778 198.304C112.714 198.304 113.41 198.132 113.869 197.788C114.334 197.438 114.566 196.937 114.566 196.285C114.566 195.935 114.487 195.631 114.331 195.371C114.18 195.112 113.969 194.877 113.697 194.665C113.426 194.448 113.103 194.243 112.729 194.05C112.361 193.851 111.962 193.643 111.534 193.426C111.082 193.196 110.659 192.964 110.267 192.729C109.875 192.493 109.534 192.234 109.244 191.95C108.955 191.667 108.726 191.347 108.557 190.991C108.394 190.629 108.312 190.207 108.312 189.724C108.312 189.133 108.442 188.62 108.701 188.186C108.961 187.745 109.302 187.383 109.724 187.1C110.146 186.816 110.626 186.605 111.163 186.466C111.706 186.327 112.258 186.258 112.819 186.258C114.098 186.258 115.03 186.412 115.616 186.72V188.43C114.849 187.899 113.866 187.634 112.665 187.634C112.333 187.634 112.002 187.67 111.67 187.742C111.338 187.809 111.042 187.92 110.783 188.077C110.523 188.234 110.312 188.436 110.149 188.683C109.987 188.931 109.905 189.232 109.905 189.588C109.905 189.92 109.965 190.207 110.086 190.448C110.213 190.689 110.397 190.91 110.638 191.109C110.879 191.308 111.172 191.501 111.516 191.688C111.866 191.875 112.267 192.08 112.72 192.303C113.184 192.533 113.625 192.774 114.041 193.027C114.457 193.281 114.822 193.561 115.136 193.869C115.45 194.177 115.697 194.518 115.878 194.892C116.065 195.266 116.159 195.694 116.159 196.177C116.159 196.816 116.032 197.359 115.779 197.806C115.531 198.246 115.193 198.605 114.765 198.883C114.343 199.16 113.854 199.359 113.299 199.48C112.744 199.607 112.159 199.67 111.543 199.67C111.338 199.67 111.085 199.652 110.783 199.616C110.481 199.586 110.174 199.537 109.86 199.471C109.546 199.411 109.247 199.335 108.964 199.245C108.686 199.148 108.463 199.043 108.294 198.928ZM119.308 187.833C119.043 187.833 118.816 187.742 118.629 187.561C118.442 187.38 118.349 187.151 118.349 186.873C118.349 186.596 118.442 186.367 118.629 186.186C118.816 185.999 119.043 185.905 119.308 185.905C119.58 185.905 119.809 185.999 119.996 186.186C120.189 186.367 120.285 186.596 120.285 186.873C120.285 187.139 120.189 187.365 119.996 187.552C119.809 187.739 119.58 187.833 119.308 187.833ZM120.032 199.453H118.548V190.186H120.032V199.453ZM124.521 199.453H123.037V185.733H124.521V199.453ZM134.811 190.186L131.118 199.453H129.661L126.15 190.186H127.779L130.132 196.919C130.307 197.414 130.415 197.845 130.458 198.213H130.494C130.554 197.748 130.651 197.329 130.783 196.955L133.245 190.186H134.811ZM143.752 195.19H137.209C137.233 196.222 137.511 197.018 138.042 197.58C138.572 198.141 139.302 198.421 140.232 198.421C141.275 198.421 142.235 198.077 143.11 197.389V198.783C142.295 199.374 141.218 199.67 139.879 199.67C138.569 199.67 137.541 199.251 136.793 198.412C136.044 197.567 135.67 196.382 135.67 194.855C135.67 193.414 136.078 192.24 136.892 191.335C137.713 190.424 138.729 189.968 139.942 189.968C141.155 189.968 142.093 190.361 142.757 191.145C143.42 191.929 143.752 193.018 143.752 194.412V195.19ZM142.232 193.932C142.226 193.076 142.017 192.409 141.607 191.932C141.203 191.456 140.639 191.217 139.915 191.217C139.215 191.217 138.621 191.468 138.132 191.969C137.643 192.469 137.342 193.124 137.227 193.932H142.232ZM150.838 191.688C150.579 191.489 150.205 191.389 149.716 191.389C149.083 191.389 148.552 191.688 148.123 192.285C147.701 192.883 147.49 193.697 147.49 194.729V199.453H146.006V190.186H147.49V192.095H147.526C147.737 191.444 148.06 190.937 148.494 190.575C148.929 190.207 149.414 190.023 149.951 190.023C150.337 190.023 150.633 190.065 150.838 190.149V191.688ZM157.734 199.453V186.475H161.318C165.891 186.475 168.178 188.584 168.178 192.801C168.178 194.804 167.541 196.415 166.268 197.634C165.001 198.847 163.303 199.453 161.173 199.453H157.734ZM159.255 187.851V198.077H161.191C162.893 198.077 164.217 197.622 165.164 196.711C166.112 195.8 166.585 194.509 166.585 192.837C166.585 189.513 164.817 187.851 161.282 187.851H159.255ZM177.165 199.453H175.68V198.005H175.644C174.999 199.115 174.048 199.67 172.794 199.67C171.87 199.67 171.146 199.426 170.622 198.937C170.103 198.448 169.843 197.8 169.843 196.991C169.843 195.26 170.863 194.252 172.902 193.969L175.68 193.579C175.68 192.005 175.044 191.217 173.771 191.217C172.655 191.217 171.647 191.597 170.748 192.358V190.837C171.659 190.258 172.709 189.968 173.898 189.968C176.076 189.968 177.165 191.121 177.165 193.426V199.453ZM175.68 194.765L173.445 195.073C172.757 195.169 172.238 195.341 171.889 195.589C171.539 195.83 171.364 196.261 171.364 196.883C171.364 197.335 171.523 197.706 171.843 197.996C172.169 198.279 172.6 198.421 173.137 198.421C173.873 198.421 174.48 198.165 174.956 197.652C175.439 197.133 175.68 196.478 175.68 195.688V194.765ZM184.26 199.362C183.91 199.555 183.448 199.652 182.875 199.652C181.252 199.652 180.441 198.747 180.441 196.937V191.453H178.848V190.186H180.441V187.923L181.925 187.444V190.186H184.26V191.453H181.925V196.675C181.925 197.296 182.031 197.739 182.242 198.005C182.453 198.27 182.803 198.403 183.292 198.403C183.666 198.403 183.988 198.301 184.26 198.095V199.362ZM192.875 199.453H191.391V198.005H191.355C190.709 199.115 189.759 199.67 188.504 199.67C187.581 199.67 186.857 199.426 186.332 198.937C185.813 198.448 185.554 197.8 185.554 196.991C185.554 195.26 186.574 194.252 188.613 193.969L191.391 193.579C191.391 192.005 190.755 191.217 189.482 191.217C188.366 191.217 187.358 191.597 186.459 192.358V190.837C187.37 190.258 188.42 189.968 189.608 189.968C191.786 189.968 192.875 191.121 192.875 193.426V199.453ZM191.391 194.765L189.156 195.073C188.468 195.169 187.949 195.341 187.599 195.589C187.249 195.83 187.074 196.261 187.074 196.883C187.074 197.335 187.234 197.706 187.554 197.996C187.88 198.279 188.311 198.421 188.848 198.421C189.584 198.421 190.191 198.165 190.667 197.652C191.15 197.133 191.391 196.478 191.391 195.688V194.765ZM211.003 199.453H209.319L207.944 195.815H202.441L201.147 199.453H199.455L204.432 186.475H206.007L211.003 199.453ZM207.446 194.448L205.41 188.919C205.343 188.738 205.277 188.448 205.211 188.05H205.174C205.114 188.418 205.045 188.708 204.966 188.919L202.948 194.448H207.446ZM220.415 199.453H218.93V194.168C218.93 192.201 218.212 191.217 216.776 191.217C216.034 191.217 215.419 191.498 214.93 192.059C214.448 192.614 214.206 193.317 214.206 194.168V199.453H212.722V190.186H214.206V191.724H214.242C214.942 190.554 215.956 189.968 217.283 189.968C218.297 189.968 219.072 190.297 219.609 190.955C220.146 191.607 220.415 192.551 220.415 193.788V199.453ZM229.854 199.453H228.37V198.005H228.333C227.688 199.115 226.738 199.67 225.483 199.67C224.559 199.67 223.835 199.426 223.311 198.937C222.792 198.448 222.532 197.8 222.532 196.991C222.532 195.26 223.552 194.252 225.591 193.969L228.37 193.579C228.37 192.005 227.733 191.217 226.46 191.217C225.344 191.217 224.336 191.597 223.437 192.358V190.837C224.348 190.258 225.398 189.968 226.587 189.968C228.765 189.968 229.854 191.121 229.854 193.426V199.453ZM228.37 194.765L226.134 195.073C225.446 195.169 224.928 195.341 224.578 195.589C224.228 195.83 224.053 196.261 224.053 196.883C224.053 197.335 224.213 197.706 224.532 197.996C224.858 198.279 225.29 198.421 225.826 198.421C226.563 198.421 227.169 198.165 227.646 197.652C228.128 197.133 228.37 196.478 228.37 195.688V194.765ZM234.134 199.453H232.65V185.733H234.134V199.453ZM244.515 190.186L240.252 200.937C239.492 202.856 238.424 203.815 237.048 203.815C236.662 203.815 236.34 203.776 236.08 203.697V202.367C236.4 202.476 236.693 202.53 236.958 202.53C237.706 202.53 238.267 202.083 238.641 201.19L239.383 199.435L235.763 190.186H237.41L239.917 197.317C239.948 197.408 240.011 197.643 240.107 198.023H240.162C240.192 197.878 240.252 197.649 240.343 197.335L242.976 190.186H244.515ZM250.47 199.362C250.12 199.555 249.658 199.652 249.085 199.652C247.462 199.652 246.651 198.747 246.651 196.937V191.453H245.058V190.186H246.651V187.923L248.135 187.444V190.186H250.47V191.453H248.135V196.675C248.135 197.296 248.24 197.739 248.452 198.005C248.663 198.27 249.013 198.403 249.501 198.403C249.875 198.403 250.198 198.301 250.47 198.095V199.362ZM253.212 187.833C252.946 187.833 252.72 187.742 252.533 187.561C252.346 187.38 252.252 187.151 252.252 186.873C252.252 186.596 252.346 186.367 252.533 186.186C252.72 185.999 252.946 185.905 253.212 185.905C253.483 185.905 253.713 185.999 253.9 186.186C254.093 186.367 254.189 186.596 254.189 186.873C254.189 187.139 254.093 187.365 253.9 187.552C253.713 187.739 253.483 187.833 253.212 187.833ZM253.936 199.453H252.452V190.186H253.936V199.453ZM263.257 199.028C262.545 199.456 261.701 199.67 260.723 199.67C259.402 199.67 258.334 199.242 257.52 198.385C256.711 197.522 256.307 196.406 256.307 195.036C256.307 193.51 256.744 192.285 257.619 191.362C258.494 190.433 259.661 189.968 261.121 189.968C261.936 189.968 262.654 190.119 263.275 190.421V191.941C262.588 191.459 261.852 191.217 261.067 191.217C260.12 191.217 259.342 191.558 258.732 192.24C258.129 192.916 257.827 193.806 257.827 194.91C257.827 195.996 258.111 196.853 258.678 197.48C259.251 198.107 260.017 198.421 260.977 198.421C261.785 198.421 262.545 198.153 263.257 197.616V199.028ZM264.941 199.118V197.525C265.749 198.123 266.639 198.421 267.61 198.421C268.914 198.421 269.565 197.987 269.565 197.118C269.565 196.871 269.508 196.662 269.393 196.494C269.285 196.319 269.134 196.165 268.941 196.032C268.754 195.899 268.53 195.782 268.271 195.679C268.018 195.57 267.743 195.459 267.447 195.344C267.037 195.181 266.675 195.018 266.361 194.855C266.054 194.687 265.794 194.5 265.583 194.294C265.378 194.083 265.221 193.845 265.113 193.579C265.01 193.314 264.959 193.003 264.959 192.647C264.959 192.213 265.058 191.83 265.257 191.498C265.456 191.16 265.722 190.88 266.054 190.656C266.386 190.427 266.763 190.255 267.185 190.14C267.613 190.026 268.054 189.968 268.506 189.968C269.309 189.968 270.027 190.107 270.66 190.385V191.887C269.978 191.441 269.194 191.217 268.307 191.217C268.03 191.217 267.779 191.251 267.556 191.317C267.333 191.377 267.14 191.465 266.977 191.579C266.82 191.694 266.696 191.833 266.606 191.996C266.521 192.153 266.479 192.328 266.479 192.521C266.479 192.762 266.521 192.964 266.606 193.127C266.696 193.29 266.826 193.435 266.995 193.561C267.164 193.688 267.369 193.803 267.61 193.905C267.852 194.008 268.126 194.119 268.434 194.24C268.844 194.397 269.212 194.56 269.538 194.729C269.864 194.892 270.141 195.079 270.371 195.29C270.6 195.495 270.775 195.733 270.895 196.005C271.022 196.276 271.086 196.599 271.086 196.973C271.086 197.432 270.983 197.83 270.778 198.168C270.579 198.506 270.31 198.786 269.972 199.009C269.635 199.233 269.245 199.399 268.805 199.507C268.365 199.616 267.903 199.67 267.42 199.67C266.467 199.67 265.64 199.486 264.941 199.118Z" fill="white"/>
<g clip-path="url(#clip1_3431_21515)">
<path d="M181.285 276.634V290.534H178.866V279.626H178.833L174.511 290.534H172.899L168.48 279.626H168.448V290.534H166.222V276.634H169.706L173.705 286.931H173.77L177.995 276.634H181.285ZM183.285 277.696C183.285 277.309 183.414 276.988 183.704 276.73C183.994 276.473 184.317 276.344 184.704 276.344C185.123 276.344 185.478 276.473 185.736 276.73C185.994 276.988 186.155 277.309 186.155 277.696C186.155 278.082 186.026 278.403 185.736 278.661C185.446 278.918 185.123 279.047 184.704 279.047C184.284 279.047 183.962 278.918 183.704 278.661C183.446 278.371 183.285 278.05 183.285 277.696ZM185.897 280.559V290.534H183.543V280.559H185.897ZM193.025 288.829C193.38 288.829 193.767 288.765 194.186 288.572C194.606 288.411 194.993 288.186 195.348 287.928V290.116C194.961 290.341 194.541 290.502 194.057 290.599C193.574 290.695 193.058 290.76 192.477 290.76C190.993 290.76 189.8 290.309 188.897 289.376C187.961 288.443 187.51 287.252 187.51 285.837C187.51 284.228 187.994 282.908 188.929 281.879C189.864 280.849 191.187 280.334 192.928 280.334C193.38 280.334 193.832 280.398 194.251 280.495C194.702 280.592 195.057 280.752 195.315 280.881V283.134C194.961 282.876 194.573 282.651 194.219 282.522C193.832 282.394 193.445 282.297 193.058 282.297C192.122 282.297 191.38 282.587 190.8 283.198C190.219 283.809 189.961 284.614 189.961 285.643C189.961 286.641 190.251 287.445 190.8 287.992C191.348 288.539 192.09 288.829 193.025 288.829ZM202.024 280.398C202.218 280.398 202.379 280.398 202.54 280.431C202.701 280.463 202.83 280.495 202.927 280.527V282.908C202.798 282.812 202.637 282.715 202.379 282.651C202.121 282.587 201.863 282.522 201.508 282.522C200.927 282.522 200.444 282.78 200.057 283.262C199.67 283.745 199.444 284.485 199.444 285.515V290.534H197.089V280.559H199.444V282.136H199.476C199.702 281.589 200.024 281.171 200.444 280.849C200.895 280.559 201.411 280.398 202.024 280.398ZM203.056 285.708C203.056 284.067 203.54 282.747 204.443 281.782C205.379 280.817 206.669 280.334 208.314 280.334C209.862 280.334 211.088 280.785 211.958 281.718C212.829 282.651 213.281 283.906 213.281 285.483C213.281 287.091 212.797 288.379 211.894 289.344C210.958 290.309 209.701 290.792 208.088 290.792C206.54 290.792 205.314 290.341 204.411 289.44C203.508 288.507 203.056 287.252 203.056 285.708ZM205.508 285.611C205.508 286.641 205.733 287.445 206.217 287.992C206.701 288.539 207.378 288.829 208.249 288.829C209.088 288.829 209.765 288.572 210.217 287.992C210.668 287.445 210.894 286.641 210.894 285.547C210.894 284.485 210.668 283.681 210.217 283.101C209.765 282.554 209.088 282.265 208.281 282.265C207.411 282.265 206.765 282.554 206.282 283.134C205.733 283.745 205.508 284.549 205.508 285.611ZM216.796 283.198C216.796 283.52 216.893 283.809 217.119 284.002C217.345 284.195 217.796 284.421 218.538 284.71C219.474 285.096 220.151 285.515 220.506 285.965C220.893 286.448 221.086 286.995 221.086 287.671C221.086 288.604 220.731 289.344 219.99 289.923C219.28 290.502 218.28 290.76 217.055 290.76C216.635 290.76 216.184 290.695 215.668 290.599C215.152 290.502 214.732 290.374 214.377 290.213V287.896C214.797 288.186 215.281 288.443 215.764 288.604C216.248 288.765 216.7 288.861 217.119 288.861C217.635 288.861 218.054 288.797 218.28 288.636C218.538 288.475 218.667 288.25 218.667 287.896C218.667 287.574 218.538 287.317 218.28 287.059C218.022 286.834 217.506 286.577 216.796 286.287C215.926 285.933 215.313 285.515 214.958 285.064C214.603 284.614 214.41 284.035 214.41 283.327C214.41 282.426 214.764 281.686 215.474 281.106C216.184 280.527 217.119 280.238 218.248 280.238C218.603 280.238 218.99 280.27 219.409 280.366C219.828 280.463 220.215 280.559 220.506 280.656V282.941C220.183 282.747 219.828 282.554 219.409 282.394C218.99 282.233 218.57 282.168 218.183 282.168C217.732 282.168 217.377 282.265 217.151 282.426C216.925 282.651 216.796 282.876 216.796 283.198ZM222.086 285.708C222.086 284.067 222.57 282.747 223.473 281.782C224.408 280.817 225.699 280.334 227.344 280.334C228.892 280.334 230.117 280.785 230.988 281.718C231.859 282.651 232.311 283.906 232.311 285.483C232.311 287.091 231.827 288.379 230.924 289.344C229.988 290.309 228.73 290.792 227.118 290.792C225.57 290.792 224.344 290.341 223.441 289.44C222.57 288.507 222.086 287.252 222.086 285.708ZM224.537 285.611C224.537 286.641 224.763 287.445 225.247 287.992C225.731 288.539 226.408 288.829 227.279 288.829C228.118 288.829 228.795 288.572 229.247 287.992C229.698 287.445 229.924 286.641 229.924 285.547C229.924 284.485 229.698 283.681 229.247 283.101C228.795 282.554 228.118 282.265 227.311 282.265C226.44 282.265 225.795 282.554 225.312 283.134C224.795 283.745 224.537 284.549 224.537 285.611ZM240.148 282.49H236.633V290.534H234.246V282.49H232.569V280.559H234.246V279.176C234.246 278.146 234.601 277.277 235.278 276.602C235.955 275.926 236.826 275.604 237.891 275.604C238.181 275.604 238.439 275.636 238.665 275.636C238.89 275.636 239.084 275.701 239.245 275.765V277.792C239.181 277.76 239.019 277.696 238.826 277.631C238.632 277.567 238.407 277.535 238.149 277.535C237.665 277.535 237.278 277.696 237.02 277.985C236.762 278.275 236.633 278.757 236.633 279.337V280.527H240.148V278.275L242.503 277.567V280.527H244.89V282.458H242.503V287.124C242.503 287.735 242.632 288.153 242.825 288.411C243.051 288.668 243.406 288.797 243.89 288.797C244.019 288.797 244.18 288.765 244.374 288.7C244.567 288.636 244.728 288.572 244.857 288.475V290.406C244.696 290.502 244.47 290.567 244.116 290.631C243.761 290.695 243.438 290.728 243.084 290.728C242.084 290.728 241.342 290.47 240.858 289.955C240.374 289.44 240.116 288.636 240.116 287.574L240.148 282.49Z" fill="white"/>
<path d="M147.03 272H136V283.005H147.03V272Z" fill="#F25022"/>
<path d="M159.223 272H148.192V283.005H159.223V272Z" fill="#7FBA00"/>
<path d="M147.03 284.163H136V295.168H147.03V284.163Z" fill="#00A4EF"/>
<path d="M159.223 284.163H148.192V295.168H159.223V284.163Z" fill="#FFB900"/>
</g>
</g>
<defs>
<filter id="filter0_d_3431_21515" x="0" y="0" width="382" height="368" filterUnits="userSpaceOnUse" color-interpolation-filters="sRGB">
<feFlood flood-opacity="0" result="BackgroundImageFix"/>
<feColorMatrix in="SourceAlpha" type="matrix" values="0 0 0 0 0 0 0 0 0 0 0 0 0 0 0 0 0 0 127 0" result="hardAlpha"/>
<feOffset dx="1" dy="1"/>
<feGaussianBlur stdDeviation="5"/>
<feComposite in2="hardAlpha" operator="out"/>
<feColorMatrix type="matrix" values="0 0 0 0 0 0 0 0 0 0 0 0 0 0 0 0 0 0 0.2 0"/>
<feBlend mode="normal" in2="BackgroundImageFix" result="effect1_dropShadow_3431_21515"/>
<feBlend mode="normal" in="SourceGraphic" in2="effect1_dropShadow_3431_21515" result="shape"/>
</filter>
<clipPath id="clip0_3431_21515">
<rect width="362" height="348" fill="white" transform="translate(9 9)"/>
</clipPath>
<clipPath id="clip1_3431_21515">
<rect width="108.89" height="23.168" fill="white" transform="translate(136 272)"/>
</clipPath>
</defs>
</svg>
