<svg width="208" height="159" viewBox="0 0 208 159" fill="none" xmlns="http://www.w3.org/2000/svg">
<g clip-path="url(#clip0_3317_21792)">
<path d="M193.36 137.064L193.714 129.071C197.41 127.091 201.532 126.044 205.722 126.023C199.955 130.751 200.676 139.865 196.766 146.224C195.531 148.197 193.869 149.867 191.904 151.109C189.938 152.351 187.719 153.134 185.411 153.399L180.584 156.362C179.922 152.66 180.068 148.858 181.012 145.218C181.957 141.578 183.676 138.187 186.054 135.278C187.403 133.659 188.951 132.217 190.66 130.986C191.816 134.042 193.36 137.064 193.36 137.064Z" fill="#F2F2F2"/>
<path d="M120.176 158.352C117.717 158.177 117.076 158.663 113.357 158.352H106.539L107.426 141.99L118.16 146.303L171.502 147.616L171.47 147.707C171.446 147.777 169.078 154.723 170.929 157.354L171.006 157.463L170.856 157.464L121.923 157.914C121.389 157.919 120.706 158.39 120.176 158.352Z" fill="#F2F2F2"/>
<path d="M122.942 158.565C118.193 158.227 113.276 160.078 109.173 157.988L105.892 158.187L105.883 158.16C105.858 158.084 104.308 145.857 107.441 141.117L107.579 140.908L107.686 142.031L106.654 157.261L108.942 156.495C114.502 159.119 121.113 157.386 127.476 157.362L170.776 157.202C171.683 157.199 172.439 157.82 172.463 158.587L172.465 158.662L125.557 158.659C124.682 158.659 123.811 158.628 122.942 158.565Z" fill="#CCCCCC"/>
<path d="M168.494 150.916L119.766 149.945L119.716 149.926L108.203 145.6L108.421 145.018L119.884 149.326L168.506 150.294L168.494 150.916Z" fill="#E6E6E6"/>
<path d="M168.234 153.532L119.506 152.561L119.456 152.542L107.943 148.216L108.161 147.634L119.624 151.942L168.246 152.911L168.234 153.532Z" fill="#E6E6E6"/>
<path d="M167.974 156.149L119.246 155.178L119.197 155.159L107.684 150.832L107.901 150.25L119.365 154.559L167.986 155.528L167.974 156.149Z" fill="#E6E6E6"/>
<path d="M123.279 147.785C118.761 147.479 114.356 146.233 110.345 144.126L106.968 142.329L107.056 141.441C107.081 141.311 107.152 141.194 107.258 141.114C107.363 141.034 107.494 140.995 107.626 141.006L107.924 141.009L153.367 141.68C156.341 141.717 159.288 142.253 162.086 143.267L171.987 146.871L171.982 146.924C171.899 147.76 171.058 148.407 170.067 148.395L125.304 147.869C124.627 147.861 123.952 147.833 123.279 147.785Z" fill="#E6E6E6"/>
<path d="M171.891 147.063L171.881 147.063L117.386 145.811L117.349 145.793L107.523 141.231L107.623 141.078L107.922 141.082L117.477 145.522L171.467 146.761L171.9 146.771L171.891 147.063Z" fill="#CCCCCC"/>
<path d="M129.527 141.401L128.835 141.391L113.218 141.16L112.478 141.149C116.046 144.959 123.936 145.912 135.501 144.436L129.527 141.401Z" fill="#CCCCCC"/>
<path d="M173.436 50.2876L174.388 52.5099L172.831 60.402L156.946 58.1874L157.073 48.5637L157.392 46.4561L173.436 50.2876Z" fill="#FFB6B6"/>
<path d="M181.642 152.571H178.138L176.47 139.017H181.642V152.571Z" fill="#FFB6B6"/>
<path d="M171.218 157.159C171.218 157.557 171.376 157.939 171.657 158.22C171.937 158.502 172.318 158.66 172.715 158.66H179.382L180.532 156.281L180.978 158.66H183.491L182.785 150.163L181.642 150.096L177.804 149.867L177.186 149.828V152.235L171.864 155.922C171.665 156.06 171.502 156.245 171.389 156.46C171.277 156.676 171.218 156.915 171.218 157.159Z" fill="#2F2E41"/>
<path d="M149.251 137.033H145.746L143.685 117.077L150.269 116.683L149.251 137.033Z" fill="#FFB6B6"/>
<path d="M138.825 141.621C138.826 142.019 138.983 142.4 139.264 142.682C139.545 142.963 139.925 143.122 140.322 143.122H146.99L148.139 140.743L148.586 143.122H151.099L150.392 134.625L149.373 134.565L145.468 134.329L144.793 134.29V136.697L139.472 140.384C139.272 140.522 139.109 140.707 138.997 140.922C138.884 141.138 138.825 141.377 138.825 141.621Z" fill="#2F2E41"/>
<path d="M183.131 140.882H183.117L182.443 118.843C182.879 117.999 183.101 117.06 183.088 116.11C183.074 115.16 182.827 114.228 182.368 113.397L182.271 113.222L182.521 112.059C182.843 110.564 182.695 109.007 182.099 107.6L181.471 87.0415C183.717 72.4433 173.011 62.9229 173.011 62.9229L173.995 55.2715L156.68 55.6661L156.975 62.9229L153.532 74.7845C151.72 92.486 139.525 103.612 141.378 120.54C141.382 120.589 141.375 120.637 141.357 120.683C141.169 121.256 141.103 121.863 141.163 122.464C141.223 123.064 141.408 123.646 141.705 124.17C141.783 124.304 141.836 124.451 141.862 124.603C142.244 127.57 142.294 123.817 142.8 126.758L142.701 126.808C142.347 126.931 142.195 127.423 142.362 127.908C142.529 128.393 142.951 128.686 143.306 128.564L152.562 128.663C152.917 128.54 153.069 128.048 152.902 127.563C152.735 127.078 152.312 126.784 151.958 126.907L151.382 127.199L152.345 124.038L152.683 123.722C152.845 123.571 152.97 123.385 153.05 123.178C153.13 122.971 153.162 122.748 153.144 122.527C153.127 122.306 153.059 122.091 152.947 121.9C152.834 121.709 152.681 121.545 152.496 121.422L153.456 116.286L153.32 112.401L153.601 107.994L165.746 90.3468L170.66 114.723L175.679 141.128C175.562 141.233 175.474 141.368 175.424 141.518C175.373 141.667 175.362 141.828 175.391 141.983C175.437 142.2 175.558 142.394 175.731 142.532C175.904 142.67 176.12 142.744 176.341 142.74H183.155C183.298 142.74 183.439 142.706 183.567 142.643C183.695 142.579 183.806 142.487 183.893 142.372C183.979 142.258 184.039 142.126 184.066 141.985C184.093 141.845 184.087 141.7 184.049 141.562C183.991 141.363 183.87 141.189 183.705 141.066C183.539 140.943 183.337 140.879 183.131 140.882Z" fill="#2F2E41"/>
<path d="M177.071 12.7851C177.071 14.1923 176.727 15.578 176.069 16.8208C175.411 18.0635 174.458 19.1252 173.295 19.9126C172.132 20.7001 170.794 21.1893 169.399 21.3372C168.003 21.4851 166.593 21.2872 165.291 20.761C163.99 20.2347 162.837 19.3961 161.935 18.3188C161.032 17.2416 160.406 15.9586 160.114 14.5824C159.821 13.2063 159.869 11.7791 160.255 10.4261C160.64 9.07311 161.351 7.83575 162.325 6.82261L162.366 6.78139C162.435 6.70915 162.504 6.63695 162.576 6.56816C162.576 6.56817 162.576 6.56808 162.577 6.56791C162.577 6.56774 162.578 6.56748 162.578 6.56716C162.578 6.56684 162.579 6.56646 162.579 6.56604C162.579 6.56562 162.579 6.56517 162.579 6.56472C162.677 6.49274 162.768 6.41094 162.85 6.32059C164.007 4.69896 165.319 3.3392 168.498 4.18869C173.074 5.4117 177.071 8.03644 177.071 12.7851Z" fill="#2F2E41"/>
<path d="M129.978 9.10513C129.959 9.56506 130.04 10.0237 130.217 10.4486C130.393 10.8736 130.66 11.2547 131 11.5649C131.339 11.8751 131.742 12.107 132.18 12.2442C132.618 12.3814 133.081 12.4206 133.536 12.359L155.645 30.5536L159.022 24.6017L136.228 8.58849C136.074 7.82896 135.647 7.1524 135.029 6.68701C134.411 6.22163 133.645 5.99976 132.874 6.06345C132.104 6.12713 131.384 6.47194 130.85 7.03255C130.316 7.59315 130.006 8.33059 129.978 9.10514V9.10513Z" fill="#FFB6B6"/>
<path d="M164.98 35.9196C164.98 35.9196 164.973 35.2643 161.458 35.2895C157.096 35.3208 145.08 29.0401 146.131 23.1251C145.632 23.3512 145.073 23.4044 144.54 23.2763C144.008 23.1483 143.533 22.8462 143.19 22.4177L149.04 16.7705C150.875 16.8948 150.894 18.1264 150.737 18.8336L155.438 20.7067L167.682 27.7604L165.52 34.8456L164.98 35.9196Z" fill="#F1563C"/>
<path d="M166.386 21.9824C170.356 21.9824 173.575 18.7551 173.575 14.7739C173.575 10.7928 170.356 7.56543 166.386 7.56543C162.416 7.56543 159.197 10.7928 159.197 14.7739C159.197 18.7551 162.416 21.9824 166.386 21.9824Z" fill="#FFB7B7"/>
<path d="M156.506 50.6288C156.109 51.1602 155.906 51.8124 155.932 52.4759C155.957 53.1394 156.21 53.774 156.646 54.273C156.65 54.4845 156.682 54.6889 156.98 55.4466C157.019 55.5201 157.065 55.5897 157.117 55.6546C157.127 55.6704 157.138 55.6857 157.149 55.7004C157.464 56.1085 157.901 56.4039 158.397 56.5427L171.556 60.2257L173.295 60.712L173.601 60.7966L173.77 58.4141C174.161 58.0889 174.423 57.634 174.509 57.1317C174.595 56.6294 174.498 56.1129 174.237 55.6757L173.995 55.2739L175.408 51.4641L175.545 51.087L179.147 41.3633L179.151 40.7148L179.158 40.0452L179.193 35.3719C179.195 33.8991 178.856 32.4458 178.204 31.1262C177.551 29.8067 176.603 28.6566 175.432 27.7664C174.367 26.9497 173.138 26.3728 171.83 26.0747L171.802 26.0712L170.378 24.1504L164.604 24.7284L164.126 25.7117L163.546 26.8959L159.36 29.3946L157.929 32.7287L156.963 34.9843C155.465 36.0627 154.573 37.4478 154.316 39.0972C153.768 42.6004 156.214 46.1071 156.506 46.5089L156.58 50.5302L156.506 50.6288Z" fill="#F1563C"/>
<path d="M173.91 16.6638C173.844 16.6535 173.779 16.6397 173.714 16.6294C172.593 16.43 171.471 16.234 170.354 16.0311L170.251 13.49L168.896 15.7663C165.806 16.7944 162.916 16.2133 160.196 14.9307C159.299 14.5038 158.429 14.0226 157.59 13.49C157.314 9.19244 159.047 6.44119 162.271 6.72972C162.389 6.74027 162.473 6.61971 162.576 6.56808C162.577 6.56809 162.577 6.56801 162.578 6.56784C162.578 6.56767 162.578 6.56741 162.579 6.56709C162.579 6.56677 162.579 6.56638 162.579 6.56596C162.58 6.56554 162.58 6.56509 162.58 6.56464C162.755 6.48212 162.933 6.40304 163.111 6.33084C164.507 5.78377 166.029 5.64523 167.501 5.93131C168.972 6.2174 170.332 6.91636 171.423 7.94696C173.618 10.048 174.606 13.5175 173.91 16.6638Z" fill="#2F2E41"/>
<path d="M173.714 16.6292C173.714 16.6292 171.584 8.65862 162.456 6.81895C162.445 6.81555 162.411 6.80178 162.367 6.78117C162.339 6.76396 162.305 6.74675 162.271 6.72958C162.373 6.67111 162.473 6.61957 162.576 6.56794C162.576 6.56794 162.577 6.56786 162.577 6.56769C162.577 6.56752 162.578 6.56726 162.578 6.56694C162.578 6.56662 162.579 6.56624 162.579 6.56582C162.579 6.5654 162.579 6.56495 162.579 6.56449C162.668 6.48197 162.757 6.39945 162.85 6.32037L163.111 6.33069C163.111 6.33069 172.27 4.87618 173.714 16.6292Z" fill="#FD6584"/>
<path d="M177.226 66.8743C177.057 67.0192 176.852 67.1147 176.632 67.1503C176.413 67.186 176.187 67.1604 175.982 67.0763C175.572 66.902 175.208 66.635 174.918 66.2962C173.735 65.0524 172.891 63.5255 172.464 61.8612L172.858 61.1578C172.703 60.2903 172.849 59.3958 173.271 58.6227C173.693 57.8496 174.366 57.2445 175.178 56.9078C175.64 56.7113 176.153 56.6666 176.642 56.7802C176.884 56.8406 177.106 56.9656 177.283 57.1419C177.461 57.3182 177.588 57.5393 177.65 57.7819C177.802 58.5344 177.177 59.2139 176.544 59.6459C175.441 60.3965 174.166 60.854 172.838 60.9754C174.462 61.8931 175.866 63.1563 176.951 64.6761C177.202 64.9931 177.387 65.3573 177.495 65.7471C177.547 65.9426 177.55 66.148 177.503 66.3448C177.456 66.5416 177.361 66.7236 177.226 66.8743Z" fill="#2F2E41"/>
<path d="M86.3582 158.917H207.004C207.107 158.917 207.205 158.876 207.278 158.803C207.35 158.731 207.391 158.632 207.391 158.529C207.391 158.426 207.35 158.328 207.278 158.255C207.205 158.182 207.107 158.142 207.004 158.142H86.3582C86.2557 158.142 86.1574 158.182 86.0849 158.255C86.0124 158.328 85.9717 158.426 85.9717 158.529C85.9717 158.632 86.0124 158.731 86.0849 158.803C86.1574 158.876 86.2557 158.917 86.3582 158.917Z" fill="#CCCCCC"/>
<path d="M118.4 59.2857V59.4882C117.965 58.9776 117.522 58.4714 117.083 57.9652C116.899 57.7539 116.714 57.5426 116.53 57.3313C115.748 56.4421 114.963 55.5559 114.173 54.6726C113.378 53.7922 112.583 52.9119 111.78 52.0359C111.587 51.8247 111.394 51.6134 111.196 51.4021C111.038 51.2245 110.866 51.0597 110.683 50.909C110.497 50.7543 110.284 50.6363 110.055 50.5613C109.791 50.488 109.513 50.4849 109.247 50.5525C108.944 50.623 108.655 50.733 108.361 50.8254C108.058 50.9267 107.759 51.0235 107.456 51.1203C106.85 51.3184 106.249 51.5166 105.643 51.7146C105.636 51.7176 105.628 51.7191 105.62 51.719C105.612 51.719 105.605 51.7174 105.597 51.7143C105.59 51.7112 105.583 51.7067 105.578 51.7011C105.572 51.6955 105.568 51.6888 105.565 51.6815L105.564 51.6794C105.561 51.671 105.559 51.662 105.56 51.653C105.56 51.644 105.562 51.6352 105.567 51.6272C105.571 51.6192 105.577 51.6123 105.584 51.6068C105.591 51.6014 105.599 51.5976 105.608 51.5958C105.757 51.5473 105.911 51.4989 106.065 51.4505C106.675 51.248 107.281 51.0499 107.891 50.8519C108.194 50.7506 108.497 50.6538 108.8 50.5569C109.08 50.4499 109.377 50.3904 109.678 50.3809C110.168 50.4162 110.628 50.6327 110.968 50.9883C111.157 51.1644 111.328 51.3492 111.499 51.5385C111.701 51.7586 111.903 51.9787 112.105 52.1988C112.917 53.088 113.723 53.9801 114.524 54.8751C115.327 55.7731 116.123 56.6725 116.912 57.5734C116.969 57.6395 117.026 57.7055 117.083 57.7715C117.526 58.2733 117.961 58.7795 118.4 59.2857Z" fill="white"/>
<path d="M110.614 51.7205C110.449 51.5063 110.228 51.3415 109.975 51.2441L109.726 51.2529C111.685 54.31 114.252 56.9292 117.266 58.9469C115.049 56.5381 112.831 54.1293 110.614 51.7205Z" fill="white"/>
<path d="M151.502 83.4899L141.557 30.0962C141.387 29.2161 140.923 28.42 140.243 27.8385C139.562 27.257 138.705 26.9246 137.811 26.8959C137.731 26.8941 137.65 26.8941 137.57 26.8959L130.795 27.1396L130.066 27.1664L126.685 27.2883L125.956 27.3134L123.781 27.3922L79.9284 28.9709C79.8623 28.9745 79.7944 28.9745 79.7283 28.9727L69.9015 28.7666L66.265 28.6914L66.1488 28.6896L63.4647 28.6322L40.0764 28.1448L33.8755 28.014L30.8179 27.9513L30.0853 27.9352L26.5988 27.8635L25.8679 27.8473L22.3011 27.7739L21.5702 27.7578L17.6513 27.6753L17.0365 27.6628L13.5412 27.5893L12.989 27.5786H12.9086C11.9806 27.5823 11.0839 27.915 10.3769 28.5177C9.66988 29.1204 9.19815 29.9543 9.04507 30.8721L0.0510694 86.2781C-0.040264 86.8394 -0.00881902 87.4138 0.143219 87.9617C0.295257 88.5096 0.564248 89.0177 0.931574 89.451C1.2989 89.8843 1.75577 90.2323 2.27054 90.471C2.7853 90.7096 3.34566 90.8332 3.91278 90.8332H55.5644C56.3246 90.8353 57.0644 91.08 57.6766 91.532L58.6559 92.2595C59.3308 92.7577 60.1463 93.0275 60.9843 93.03C70.9602 90.3899 81.4484 90.3899 91.4242 93.03C91.9385 93.0314 92.448 92.9304 92.9232 92.7329C93.3983 92.5354 93.8297 92.2454 94.1923 91.8796C94.8123 91.2581 95.6398 90.8885 96.5154 90.8421L147.86 88.1292C148.416 88.1 148.961 87.9519 149.456 87.6946C149.951 87.4374 150.385 87.0771 150.73 86.6378C151.075 86.1986 151.322 85.6904 151.455 85.1475C151.588 84.6046 151.604 84.0395 151.502 83.4899V83.4899Z" fill="#CCCCCC"/>
<path d="M137.431 75.1647C137.366 76.9741 136.586 78.6832 135.264 79.9163C133.942 81.1494 132.185 81.8056 130.381 81.7407C127.399 81.635 123.841 81.5822 119.98 81.663C107.369 81.9334 91.5259 83.6737 81.9959 89.9327C80.7981 90.721 79.3827 91.1104 77.9514 91.0452C77.846 91.039 77.7438 91.0328 77.6384 91.0235C76.1545 90.8874 74.7563 90.2661 73.659 89.2552C68.409 84.4382 56.3685 78.605 28.8073 78.1948C28.6926 78.1948 28.581 78.1886 28.4694 78.1824C27.5768 78.126 26.7039 77.8938 25.9008 77.4991C25.0976 77.1043 24.38 76.5547 23.7888 75.8816C23.1976 75.2086 22.7444 74.4253 22.4553 73.5765C22.1662 72.7278 22.0467 71.8302 22.1037 70.9351L24.8124 27.8279L25.2184 21.3669L25.9312 10.0641C26.0031 8.92585 26.5044 7.85771 27.3333 7.07672C28.1623 6.29573 29.2566 5.86047 30.3941 5.85938H30.422L46.8416 5.95571C53.759 6.26959 59.4884 7.15322 64.0298 8.6066C65.581 9.08897 67.0902 9.69805 68.5422 10.4277C70.5254 11.3919 72.3072 12.7261 73.7923 14.359C74.7173 15.4022 75.9791 16.0854 77.3564 16.2889C77.57 16.3209 77.7852 16.3406 78.001 16.348C79.2712 16.4007 80.5244 16.041 81.5744 15.3224C92.3008 8.1156 114.159 7.56864 126.231 7.87941C127.919 7.91889 129.532 8.58711 130.756 9.7539C131.98 10.9207 132.726 12.5025 132.851 14.1912L133.34 20.6211L133.827 27.0323L136.635 64.0857L137.416 74.3941C137.435 74.6505 137.44 74.9078 137.431 75.1647Z" fill="#F2F2F2"/>
<path d="M32.8928 21.0271C42.7877 17.8615 53.8268 18.6996 63.2008 23.1593C65.8754 24.4251 68.4014 25.9852 70.7323 27.8108C71.3917 28.3297 72.3299 27.4015 71.6635 26.877C63.0536 20.1806 52.2355 16.9995 41.3827 17.9729C38.3802 18.2423 35.416 18.8394 32.5427 19.7537C31.7384 20.011 32.0821 21.2865 32.8928 21.0271H32.8928Z" fill="#3F3D56"/>
<path d="M87.3399 28.3234C96.5395 23.4746 107.556 22.4173 117.558 25.1696C120.41 25.9524 123.166 27.0512 125.775 28.4455C126.522 28.8455 127.188 27.7059 126.44 27.3053C116.907 22.2045 105.463 21.0303 95.0527 23.8737C92.1486 24.6683 89.3395 25.778 86.6752 27.1831C85.9247 27.5787 86.5896 28.7188 87.3399 28.3234Z" fill="#3F3D56"/>
<path d="M87.3399 37.1271C96.5396 32.2783 107.556 31.221 117.558 33.9733C120.41 34.7561 123.166 35.8549 125.775 37.2493C126.522 37.6492 127.189 36.5097 126.44 36.109C116.907 31.0082 105.463 29.834 95.0527 32.6774C92.1486 33.472 89.3395 34.5817 86.6752 35.9868C85.9247 36.3824 86.5896 37.5225 87.3399 37.1271L87.3399 37.1271Z" fill="#3F3D56"/>
<path d="M126.762 45.4585C126.769 45.3451 126.742 45.2323 126.684 45.1347C126.626 45.0371 126.541 44.9592 126.438 44.9111C118.801 40.9012 110.142 39.2748 101.576 40.2413C101.522 40.2456 101.472 40.2542 101.414 40.2585H101.412C101.359 40.2633 101.307 40.2712 101.255 40.2822C96.1601 40.8702 91.2172 42.3979 86.6761 44.7883C86.5771 44.8474 86.4951 44.9313 86.4382 45.0318C86.3813 45.1323 86.3514 45.2459 86.3516 45.3615V61.7845C86.3532 61.8856 86.3777 61.9849 86.4233 62.0751C86.4689 62.1652 86.5343 62.2438 86.6147 62.3048C86.695 62.3659 86.7881 62.4078 86.887 62.4274C86.9859 62.447 87.0879 62.4438 87.1854 62.4181C87.3874 62.3599 87.5894 62.3038 87.7957 62.25C92.3866 61.0039 97.0995 60.2646 101.851 60.0454C101.952 60.0411 102.053 60.0368 102.158 60.0325C106.028 59.8658 109.904 60.0056 113.752 60.4505C113.833 60.4551 113.913 60.4637 113.993 60.4764C114.19 60.4979 114.392 60.5216 114.59 60.5475C114.67 60.5561 114.745 60.5647 114.818 60.5777C115.587 60.6746 116.35 60.7845 117.115 60.9031C118.22 61.0798 119.325 61.2766 120.429 61.4935C120.498 61.5065 120.569 61.5237 120.64 61.5367C122.413 61.8901 124.177 62.2995 125.933 62.752C126.031 62.7773 126.133 62.78 126.232 62.76C126.331 62.7399 126.424 62.6976 126.504 62.6361C126.585 62.5747 126.65 62.4958 126.695 62.4054C126.741 62.315 126.765 62.2154 126.767 62.1142V45.4843C126.767 45.4755 126.766 45.4666 126.762 45.4585Z" fill="#3F3D56"/>
<path d="M102.608 41.1374C102.125 40.9005 101.572 40.8517 101.056 41.0007C100.828 41.0865 100.619 41.2168 100.442 41.3841C100.264 41.5514 100.122 41.7524 100.023 41.9754C99.8437 42.403 99.729 42.8548 99.6824 43.3161C99.6551 43.4976 99.6534 43.7265 99.8353 43.8113C99.9013 43.8353 99.9726 43.8408 100.042 43.8271C100.11 43.8134 100.174 43.7811 100.226 43.7336C100.32 43.6408 100.398 43.5325 100.455 43.4134C100.771 42.9207 101.205 42.5158 101.719 42.236C102.232 41.9562 102.807 41.8106 103.391 41.8127L103.877 42.007C103.495 41.6616 103.068 41.3691 102.608 41.1374Z" fill="#FF6582"/>
<path d="M107.87 44.9221C107.493 44.3651 107.046 43.7704 106.346 43.5886C105.535 43.3779 104.702 43.7963 103.995 44.2092C101.894 45.4361 99.8599 46.7741 97.9004 48.2175L97.9025 48.2391L102.451 47.9591C103.546 47.8917 104.679 47.815 105.647 47.3525C105.995 47.134 106.383 46.9889 106.789 46.9262C107.04 46.9399 107.287 47.0034 107.514 47.113C107.741 47.2227 107.944 47.3763 108.111 47.5651C110.207 49.5573 110.814 52.604 113.165 54.3543C111.669 51.066 109.898 47.9107 107.87 44.9221Z" fill="white"/>
<path d="M102.158 60.033C102.053 60.0374 101.952 60.0418 101.851 60.0462C101.118 59.7821 100.367 59.5488 99.6078 59.3463C99.1161 59.2142 98.6157 59.0954 98.1152 58.9942C97.5489 58.871 96.9784 58.7741 96.4077 58.6904C95.3212 58.532 94.2261 58.4394 93.1285 58.4131C93.1202 58.4141 93.1118 58.4132 93.1038 58.4106C93.0958 58.408 93.0885 58.4038 93.0823 58.3982C93.0761 58.3926 93.0711 58.3857 93.0677 58.3781C93.0643 58.3704 93.0625 58.3621 93.0625 58.3537C93.0625 58.3453 93.0643 58.337 93.0677 58.3294C93.0711 58.3217 93.0761 58.3148 93.0823 58.3092C93.0885 58.3036 93.0958 58.2994 93.1038 58.2968C93.1118 58.2943 93.1202 58.2934 93.1285 58.2943C93.2689 58.2943 93.4094 58.2987 93.5455 58.3075C94.6455 58.3483 95.742 58.4556 96.829 58.6289C97.3953 58.7213 97.9616 58.8313 98.5235 58.9546C99.0327 59.069 99.5419 59.1967 100.042 59.3375C100.758 59.54 101.463 59.7718 102.158 60.033Z" fill="white"/>
<path d="M114.819 60.5781C114.744 60.5649 114.669 60.5561 114.59 60.5473C114.288 60.2964 113.98 60.0587 113.66 59.8254C113.26 59.5349 112.848 59.262 112.426 59.0067C111.493 58.4386 110.519 57.9412 109.511 57.5188C107.919 56.8539 106.271 56.3324 104.586 55.9606C102.664 55.5384 100.719 55.2327 98.761 55.045C96.8031 54.8425 94.8364 54.7193 92.8699 54.596C92.7865 54.5916 92.7821 54.4684 92.8699 54.4728C93.1157 54.4904 93.3616 54.5036 93.6117 54.5212C95.6003 54.6444 97.5888 54.7853 99.5642 55.0098C101.523 55.2203 103.466 55.5585 105.381 56.0222C107.015 56.4262 108.611 56.9756 110.148 57.6641C111.032 58.0624 111.889 58.5198 112.712 59.033C113.234 59.3632 113.739 59.7153 114.222 60.0895C114.424 60.2479 114.626 60.4064 114.819 60.5781Z" fill="white"/>
<path d="M113.993 60.4767C113.913 60.4637 113.832 60.4549 113.752 60.4502C113.659 60.3754 113.563 60.305 113.466 60.2345C112.79 59.7495 112.085 59.307 111.355 58.9096C110.691 58.548 110.01 58.2204 109.313 57.928C107.722 57.2611 106.073 56.7396 104.388 56.3698C102.467 55.9476 100.521 55.6419 98.5629 55.4542C96.6051 55.2517 94.6385 55.1285 92.6719 55.0052C92.5885 54.9964 92.5885 54.8775 92.6719 54.882C92.9221 54.8996 93.1679 54.9127 93.4138 54.9304C95.4023 55.0536 97.3909 55.1945 99.3663 55.419C101.325 55.6295 103.268 55.9677 105.183 56.4314C106.818 56.8346 108.413 57.3841 109.95 58.0733C110.529 58.3374 111.096 58.6235 111.649 58.936C112.469 59.3876 113.253 59.9027 113.993 60.4767Z" fill="white"/>
<path d="M120.64 61.538C120.569 61.5248 120.499 61.5072 120.429 61.494C120.35 61.4103 120.275 61.3223 120.201 61.2342C119.823 60.7984 119.45 60.3583 119.081 59.9137C117.628 58.1794 116.25 56.3922 114.951 54.5699C113.836 53.0117 112.778 51.4226 111.777 49.8027C111.298 49.0368 110.837 48.2621 110.385 47.4785C110.034 46.8711 109.692 46.2622 109.358 45.6518C109.261 45.4757 109.169 45.2997 109.077 45.1236C108.862 44.7098 108.647 44.2916 108.419 43.8823C108.17 43.3807 107.806 42.9461 107.356 42.6146C107.131 42.4636 106.871 42.3741 106.601 42.3549C106.221 42.3563 105.846 42.4531 105.513 42.6365C103.057 43.7834 100.74 45.2086 98.6075 46.8843C96.5249 48.5086 94.6417 50.3748 92.9974 52.4438C92.9447 52.5054 92.8305 52.4482 92.8788 52.3822C93.0764 52.1357 93.2783 51.8892 93.4802 51.647C95.0606 49.7726 96.8402 48.0767 98.7874 46.5894C98.7918 46.585 98.8006 46.5806 98.805 46.5762C98.9762 46.4397 99.1474 46.3077 99.323 46.18C100.41 45.3773 101.542 44.6366 102.712 43.9615C103.309 43.6138 103.919 43.2836 104.542 42.9711C104.696 42.8919 104.854 42.8127 105.012 42.7378C105.17 42.6586 105.328 42.5838 105.486 42.5089C105.799 42.3489 106.141 42.2546 106.491 42.2316C107.712 42.214 108.34 43.4465 108.774 44.2784C108.91 44.5382 109.051 44.7979 109.187 45.0576C109.714 46.0392 110.262 47.0164 110.833 47.9804C111.18 48.579 111.54 49.1733 111.904 49.7631C112.426 50.6039 112.962 51.4358 113.519 52.2634C113.519 52.264 113.52 52.2645 113.52 52.2651C113.52 52.2656 113.52 52.2661 113.521 52.2665C113.521 52.2669 113.522 52.2672 113.522 52.2674C113.523 52.2677 113.523 52.2678 113.524 52.2678H113.524C114.169 53.245 114.841 54.2046 115.534 55.1598C116.724 56.7928 117.971 58.3892 119.275 59.9489C119.722 60.4859 120.177 61.0156 120.64 61.538Z" fill="white"/>
<path d="M104.978 42.0973L104.856 42.1505C104.578 41.6795 104.188 41.2848 103.721 41.0013C103.254 40.7178 102.725 40.5544 102.18 40.5256C100.382 40.3976 98.8038 41.5986 98.6602 43.2026C98.602 43.8631 98.7926 44.5215 99.1947 45.048L99.0819 45.1148C98.6633 44.5665 98.4647 43.8809 98.5254 43.193C98.6747 41.5226 100.319 40.2719 102.19 40.4052C102.758 40.4352 103.31 40.6054 103.796 40.9006C104.282 41.1958 104.688 41.6068 104.978 42.0973Z" fill="#FF6582"/>
<path d="M96.0975 45.3429C95.6258 45.1372 95.1121 45.047 94.5988 45.0798C94.0855 45.1126 93.5874 45.2674 93.1455 45.5314C94.7586 45.7795 96.3575 46.1126 97.9357 46.5293C97.2823 46.1875 96.7711 45.652 96.0975 45.3429Z" fill="white"/>
<path d="M93.1366 45.5293L92.959 45.6582C93.0191 45.613 93.0815 45.5708 93.1457 45.5307L93.1366 45.5293Z" fill="white"/>
<path d="M98.4857 46.2769C98.4149 46.2065 98.3445 46.1361 98.2733 46.0656C97.7268 45.4693 97.0688 44.9865 96.3367 44.6447C95.964 44.4872 95.5641 44.4045 95.1596 44.4011C94.7418 44.4109 94.3286 44.4913 93.9375 44.639C93.7535 44.7046 93.5735 44.7791 93.3963 44.8584C93.1938 44.9494 92.9949 45.0464 92.7969 45.1442C92.4253 45.3278 92.0585 45.5194 91.6965 45.719C90.9762 46.1163 90.2785 46.544 89.6034 47.0019C89.2534 47.2394 88.9107 47.4847 88.5751 47.7378C88.2631 47.9728 87.9573 48.2142 87.6578 48.4619C87.5938 48.5147 87.4982 48.4293 87.5622 48.3766C87.6411 48.311 87.721 48.2458 87.8008 48.1814C88.0263 47.9994 88.2554 47.821 88.4881 47.646C88.9125 47.3264 89.3478 47.0191 89.7942 46.7242C90.4882 46.2653 91.2062 45.8375 91.9481 45.4409C92.3188 45.2428 92.6947 45.0531 93.0756 44.8717C93.1906 44.817 93.307 44.7634 93.4247 44.7127C93.6935 44.5918 93.9709 44.491 94.2545 44.4112C94.6614 44.2943 95.0869 44.257 95.5078 44.3013C95.9109 44.3529 96.302 44.4737 96.6642 44.6584C97.3819 45.0617 98.0294 45.5794 98.5814 46.1912C98.6391 46.2492 98.5439 46.3349 98.4857 46.2769Z" fill="white"/>
<path d="M32.8928 29.8308C42.7877 26.6652 53.8268 27.5033 63.2008 31.963C65.8754 33.2288 68.4014 34.7889 70.7323 36.6145C71.3917 37.1334 72.3299 36.2052 71.6635 35.6807C63.0536 28.9843 52.2355 25.8032 41.3827 26.7766C38.3802 27.046 35.416 27.6431 32.5427 28.5574C31.7384 28.8148 32.0821 30.0902 32.8928 29.8308L32.8928 29.8308Z" fill="#3F3D56"/>
<path d="M32.8928 38.6345C42.7877 35.4689 53.8268 36.307 63.2008 40.7667C65.8754 42.0326 68.4014 43.5927 70.7323 45.4182C71.3917 45.9371 72.3299 45.0089 71.6635 44.4845C63.0536 37.788 52.2355 34.6069 41.3827 35.5803C38.3802 35.8497 35.416 36.4469 32.5427 37.3612C31.7384 37.6185 32.0821 38.8939 32.8928 38.6345L32.8928 38.6345Z" fill="#3F3D56"/>
<path d="M32.8928 47.4382C42.7877 44.2726 53.8268 45.1107 63.2008 49.5704C65.8754 50.8363 68.4014 52.3964 70.7323 54.2219C71.3917 54.7408 72.3299 53.8126 71.6635 53.2882C63.0536 46.5917 52.2355 43.4106 41.3827 44.384C38.3802 44.6534 35.416 45.2506 32.5427 46.1649C31.7384 46.4222 32.0821 47.6976 32.8928 47.4382L32.8928 47.4382Z" fill="#3F3D56"/>
<path d="M32.8928 56.242C42.7877 53.0763 53.8268 53.9144 63.2008 58.3741C65.8754 59.64 68.4014 61.2001 70.7323 63.0256C71.3917 63.5445 72.3299 62.6163 71.6635 62.0919C63.0536 55.3955 52.2355 52.2144 41.3827 53.1877C38.3802 53.4571 35.416 54.0543 32.5427 54.9686C31.7384 55.2259 32.0821 56.5013 32.8928 56.2419L32.8928 56.242Z" fill="#3F3D56"/>
<path d="M32.8928 65.0457C42.7877 61.88 53.8268 62.7181 63.2008 67.1778C65.8754 68.4437 68.4014 70.0038 70.7323 71.8294C71.3917 72.3483 72.3299 71.4201 71.6635 70.8956C63.0536 64.1992 52.2355 61.0181 41.3827 61.9914C38.3802 62.2608 35.416 62.858 32.5427 63.7723C31.7384 64.0296 32.0821 65.305 32.8928 65.0457H32.8928Z" fill="#3F3D56"/>
<path d="M68.5427 10.4276V31.5383C68.5427 31.9579 67.8113 32.3091 66.8258 32.4054C66.8174 32.4049 66.809 32.4059 66.801 32.4085C66.6367 32.4209 66.4632 32.4303 66.2865 32.4303C65.7431 32.4403 65.2024 32.3518 64.6904 32.1692C64.6439 32.1506 64.5974 32.1288 64.5509 32.1102C64.5075 32.0853 64.4611 32.0635 64.4177 32.0387C64.1728 31.8926 64.0303 31.7217 64.0303 31.5383V8.60645C65.5815 9.08881 67.0907 9.69789 68.5427 10.4276Z" fill="#F1563C"/>
<path d="M78.0002 15.3232H77.3555V90.6031H78.0002V15.3232Z" fill="#E6E6E6"/>
<path d="M148.112 66.8571C148.569 66.8152 149.011 66.6733 149.408 66.4413C149.804 66.2094 150.145 65.8931 150.407 65.5147C150.668 65.1363 150.844 64.705 150.921 64.2512C150.998 63.7975 150.975 63.3322 150.854 62.8883L164.236 56.6245L172.292 43.5568L165.959 40.9932L160.525 51.5235L146.769 60.7152C146.039 60.9693 145.427 61.4831 145.049 62.1593C144.671 62.8355 144.554 63.6271 144.72 64.3842C144.885 65.1413 145.322 65.8112 145.947 66.2669C146.572 66.7227 147.342 66.9327 148.112 66.8571V66.8571Z" fill="#FFB6B6"/>
<path d="M177.262 31.0389C177.262 31.0389 178.839 31.5551 177.108 34.6225C175.722 37.0782 168.972 51.2233 166.217 54.0006C166.506 54.4664 166.634 55.0157 166.578 55.5619C166.522 56.1081 166.287 56.6202 165.909 57.0176L159.549 51.9564C159.427 50.1156 160.642 49.933 161.362 49.9951L162.825 44.7948L167.929 31.9665L176.128 30.6455L177.262 31.0389Z" fill="#F1563C"/>
<path d="M177.398 6.99492C177.699 5.77569 179.88 4.87545 176.143 3.17326C175.236 2.76015 175.274 1.3375 174.507 0.700388C173.74 0.0632739 172.616 -0.2321 171.724 0.213218C170.928 0.610885 170.479 1.51082 170.384 2.39767C170.338 3.29026 170.441 4.18427 170.688 5.04299L170.615 5.14913C172.096 6.28504 173.576 7.42092 175.056 8.55679C175.6 8.9742 176.312 9.41126 176.921 9.09807C177.611 8.74351 177.212 7.74977 177.398 6.99492Z" fill="#2F2E41"/>
</g>
<defs>
<clipPath id="clip0_3317_21792">
<rect width="207.391" height="159" fill="white"/>
</clipPath>
</defs>
</svg>
