<svg xmlns="http://www.w3.org/2000/svg" viewBox="0 0 35 35"><defs><style>.a{fill:#a2a2a2;}</style></defs><title>ui</title><path class="a" d="M3.5,0A3.5,3.5,0,1,0,7,3.5,3.5,3.5,0,0,0,3.5,0Zm0,14A3.5,3.5,0,1,0,7,17.5,3.5,3.5,0,0,0,3.5,14Zm0,14A3.5,3.5,0,1,0,7,31.5,3.5,3.5,0,0,0,3.5,28Zm14-28A3.5,3.5,0,1,0,21,3.5,3.5,3.5,0,0,0,17.5,0Zm0,14A3.5,3.5,0,1,0,21,17.5,3.5,3.5,0,0,0,17.5,14Zm0,14A3.5,3.5,0,1,0,21,31.5,3.5,3.5,0,0,0,17.5,28Zm14-21A3.5,3.5,0,1,0,28,3.5,3.5,3.5,0,0,0,31.5,7Zm0,7A3.5,3.5,0,1,0,35,17.5,3.5,3.5,0,0,0,31.5,14Zm0,14A3.5,3.5,0,1,0,35,31.5,3.5,3.5,0,0,0,31.5,28Z"/></svg>