<svg version="1.1" id="Layer_1" xmlns="http://www.w3.org/2000/svg" x="0" y="0" viewBox="0 0 165 109" xml:space="preserve"><style>.st2{fill:#303035}.st14{fill:#2495e2}</style><path class="st2" d="M25.5 82.3h1.7l2.5 7.4 2.5-7.4h1.7V91h-1.1v-5.2-.9-1.3L30.3 91h-1.2l-2.5-7.4V91h-1.1v-8.7zM35.5 82.3h1.1v1.2h-1.1v-1.2zm0 2.4h1.1V91h-1.1v-6.3zM43.3 86.8h-1c-.1-.4-.2-.7-.4-1-.2-.3-.6-.4-1.1-.4-.7 0-1.2.3-1.5 1-.2.4-.3 1-.3 1.6 0 .6.1 1.2.4 1.6.3.4.7.7 1.3.7.4 0 .8-.1 1.1-.4.3-.3.4-.6.5-1.1h1c-.1.8-.4 1.5-.9 1.9-.5.4-1.1.6-1.8.6-.8 0-1.5-.3-2-.9-.5-.6-.7-1.4-.7-2.3 0-1.1.3-2 .8-2.6.5-.6 1.2-.9 2.1-.9.7 0 1.3.2 1.8.5.3.2.6.8.7 1.7zM44.4 84.7h1v1.1c.1-.2.3-.5.6-.8.3-.3.7-.5 1.1-.5H47.4v1.1H47c-.5 0-1 .2-1.2.5-.3.3-.4.7-.4 1.2V91h-1.1v-6.3zM54 87.7c0 1-.3 1.9-.8 2.6-.5.7-1.3 1-2.3 1-.9 0-1.6-.3-2.1-.9-.5-.6-.8-1.4-.8-2.4 0-1.1.3-1.9.8-2.6.5-.6 1.3-1 2.2-1 .8 0 1.5.3 2.1.8.6.6.9 1.5.9 2.5zm-1.2 0c0-.6-.1-1.1-.3-1.5-.3-.6-.8-.9-1.6-.9-.7 0-1.1.3-1.4.8s-.4 1.1-.4 1.8.1 1.2.4 1.7.8.7 1.4.7c.7 0 1.2-.3 1.5-.8.3-.5.4-1.1.4-1.8zM55.9 89c0 .4.1.6.3.8.3.3.7.5 1.4.5.4 0 .7-.1 1.1-.3.3-.2.5-.4.5-.8 0-.3-.1-.5-.4-.6-.2-.1-.5-.2-.9-.3l-.9-.2c-.5-.1-.9-.3-1.2-.5-.5-.2-.8-.6-.8-1.1 0-.6.2-1.1.7-1.5.4-.4 1-.6 1.8-.6 1 0 1.7.3 2.1.8.3.3.4.7.4 1.1h-1c0-.2-.1-.5-.3-.7-.2-.3-.7-.4-1.3-.4-.4 0-.7.1-.9.2-.2.2-.3.4-.3.6 0 .3.1.5.4.7.2.1.4.2.7.3l.7.2c.8.2 1.3.4 1.6.5.4.3.6.7.6 1.3 0 .6-.2 1.1-.6 1.5-.4.4-1.1.6-2 .6-1 0-1.6-.2-2-.6-.4-.4-.6-1-.6-1.6h.9zM66.9 87.7c0 1-.3 1.9-.8 2.6-.5.7-1.3 1-2.3 1-.9 0-1.6-.3-2.1-.9-.5-.6-.8-1.4-.8-2.4 0-1.1.3-1.9.8-2.6.5-.6 1.3-1 2.2-1 .8 0 1.5.3 2.1.8.6.6.9 1.5.9 2.5zm-1.1 0c0-.6-.1-1.1-.3-1.5-.3-.6-.8-.9-1.6-.9-.7 0-1.1.3-1.4.8S62 87.3 62 88s.1 1.2.4 1.7.8.7 1.4.7c.7 0 1.2-.3 1.5-.8.3-.6.5-1.2.5-1.9zM68.7 82.7c.3-.4.7-.5 1.5-.5h.4v1H70.3c-.3 0-.5.1-.6.3-.1.2-.1.6-.1 1.3h1.1v.8h-1.1V91h-1.1v-5.5h-.9v-.8h.9v-1c-.1-.5 0-.8.2-1zM71.8 82.9h1.1v1.8h1v.9h-1v4.2c0 .2.1.4.2.4s.2.1.4.1h.4v.7c-.1 0-.3.1-.4.1h-.4c-.5 0-.8-.1-1-.4-.2-.3-.3-.6-.3-1v-4.2h-.9v-.9h.9v-1.7zM78.5 82.3h3.8c1 0 1.8.3 2.2.9.3.4.4.8.4 1.3 0 .6-.2 1-.5 1.4-.2.2-.4.4-.7.5.4.2.8.4 1 .6.4.4.6.9.6 1.6 0 .6-.2 1.1-.5 1.5-.5.7-1.4 1-2.5 1h-3.7v-8.8zm3.3 3.7c.5 0 .9-.1 1.2-.2.4-.2.7-.6.7-1.2s-.2-1-.7-1.2c-.3-.1-.7-.2-1.2-.2h-2.1V86h2.1zm.4 4c.7 0 1.2-.2 1.6-.6.2-.3.3-.6.3-1 0-.6-.3-1.1-.9-1.3-.3-.1-.7-.2-1.2-.2h-2.4V90h2.6zM92 87.7c0 1-.3 1.9-.8 2.6-.5.7-1.3 1-2.3 1-.9 0-1.6-.3-2.1-.9-.5-.6-.8-1.4-.8-2.4 0-1.1.3-1.9.8-2.6.5-.6 1.3-1 2.2-1 .8 0 1.5.3 2.1.8.6.6.9 1.5.9 2.5zm-1.1 0c0-.6-.1-1.1-.3-1.5-.3-.6-.8-.9-1.6-.9-.7 0-1.1.3-1.4.8s-.4 1.1-.4 1.8.1 1.2.4 1.7.8.7 1.4.7c.7 0 1.2-.3 1.5-.8.3-.5.4-1.1.4-1.8zM93.5 82.9h1.1v1.8h1v.9h-1v4.2c0 .2.1.4.2.4s.2.1.4.1h.4v.7c-.1 0-.3.1-.4.1h-.4c-.5 0-.8-.1-1-.4-.2-.3-.3-.6-.3-1v-4.2h-.9v-.9h.9v-1.7zM101 88.2c0 .5.1.9.4 1.2.4.6 1.1.9 2.1.9.4 0 .9-.1 1.2-.2.7-.2 1.1-.7 1.1-1.3 0-.5-.2-.8-.5-1-.3-.2-.8-.4-1.4-.5l-1.2-.3c-.8-.2-1.3-.4-1.6-.6-.6-.4-.8-.9-.8-1.6 0-.8.3-1.4.8-1.9s1.3-.8 2.3-.8c.9 0 1.7.2 2.3.7.6.4 1 1.2 1 2.1h-1.1c-.1-.5-.2-.8-.4-1.1-.4-.5-1-.7-1.8-.7-.7 0-1.2.1-1.5.4-.3.3-.5.6-.5 1s.2.7.5.9c.2.1.8.3 1.6.5l1.2.3c.6.1 1.1.3 1.4.6.6.4.8 1 .8 1.8 0 1-.4 1.7-1.1 2.1-.7.4-1.5.6-2.5.6-1.1 0-1.9-.3-2.6-.8-.6-.5-.9-1.3-.9-2.2v-.1h1.2zM113.2 85.7c.2.3.4.7.4 1.1.1.3.1.8.1 1.4H109c0 .6.2 1.2.5 1.6.3.4.7.6 1.3.6.6 0 1-.2 1.3-.6.2-.2.3-.5.4-.7h1.1c0 .2-.1.5-.3.8-.2.3-.3.5-.5.7-.3.3-.7.5-1.2.6-.3.1-.6.1-.9.1-.8 0-1.5-.3-2-.9-.6-.6-.8-1.4-.8-2.4s.3-1.9.8-2.5c.6-.6 1.3-1 2.2-1 .5 0 .9.1 1.3.3.4.2.8.5 1 .9zm-.6 1.6c0-.5-.1-.8-.3-1.1-.3-.5-.8-.8-1.5-.8-.5 0-.9.2-1.2.5-.3.4-.5.8-.5 1.4h3.5zM115.1 84.7h1v1.1c.1-.2.3-.5.6-.8.3-.3.7-.5 1.1-.5H118.1v1.1h-.4c-.5 0-1 .2-1.2.5-.3.3-.4.7-.4 1.2V91H115v-6.3zM119.6 84.7l1.7 5.2 1.8-5.2h1.2l-2.4 6.4h-1.1l-2.4-6.4h1.2zM125.2 82.3h1.1v1.2h-1.1v-1.2zm0 2.4h1.1V91h-1.1v-6.3zM133 86.8h-1c-.1-.4-.2-.7-.4-1-.2-.3-.6-.4-1.1-.4-.7 0-1.2.3-1.5 1-.2.4-.3 1-.3 1.6 0 .6.1 1.2.4 1.6.3.4.7.7 1.3.7.4 0 .8-.1 1.1-.4.3-.3.4-.6.5-1.1h1c-.1.8-.4 1.5-.9 1.9-.5.4-1.1.6-1.8.6-.8 0-1.5-.3-2-.9-.5-.6-.7-1.4-.7-2.3 0-1.1.3-2 .8-2.6.5-.6 1.2-.9 2.1-.9.7 0 1.3.2 1.8.5.3.2.6.8.7 1.7zM139 85.7c.2.3.4.7.4 1.1.1.3.1.8.1 1.4h-4.7c0 .6.2 1.2.5 1.6.3.4.7.6 1.3.6.6 0 1-.2 1.3-.6.2-.2.3-.5.4-.7h1.1c0 .2-.1.5-.3.8-.2.3-.3.5-.5.7-.3.3-.7.5-1.2.6-.3.1-.6.1-.9.1-.8 0-1.5-.3-2-.9-.6-.6-.8-1.4-.8-2.4s.3-1.9.8-2.5c.6-.6 1.3-1 2.2-1 .5 0 .9.1 1.3.3.5.2.8.5 1 .9zm-.6 1.6c0-.5-.1-.8-.3-1.1-.3-.5-.8-.8-1.5-.8-.5 0-.9.2-1.2.5-.3.4-.5.8-.5 1.4h3.5z"/><g><path class="st14" d="M80.9 66.1c-13.4 0-24.2-10.9-24.2-24.2 0-13.4 10.9-24.2 24.2-24.2 13.4 0 24.2 10.9 24.2 24.2 0 13.4-10.8 24.2-24.2 24.2zm0-45.3c-11.7 0-21.1 9.5-21.1 21.1 0 11.7 9.5 21.1 21.1 21.1 11.7 0 21.1-9.5 21.1-21.1 0-11.6-9.4-21.1-21.1-21.1z"/><circle class="st14" cx="77.1" cy="42" r="2.3"/><circle class="st14" cx="84.6" cy="42" r="2.3"/><path class="st14" d="M75.2 31.9h15.6v15.7h3.1V28.9H75.2zM86.5 52H70.8V36.4h-3.1v18.7h18.8z"/></g></svg>