<svg version="1.1" id="Layer_1" xmlns="http://www.w3.org/2000/svg" x="0" y="0" viewBox="0 0 165 109" xml:space="preserve"><style>.st13{fill:#22317a}</style><path class="st13" d="M29.4 60.2c3.4-.2 6.8 0 10.2.6.4.1.4-.1.4-.4V53c0-.4.1-.6.4-.8 1.5-1.1 3-2.3 4.1-3.9.2-.2.4-.2.7-.2.2 0 .1.3.1.4v14.3c0 .4-.1.4-.4.3C40 61.7 35 61 30 61.2c-2.9.1-5.8.6-8.6 1.7-.1 0-.2.1-.3.1H21v-1.8c0-.3.2-.4.3-.5 2.9-3.1 5.3-6.5 7.3-10.2 1.6-3.1 2.9-6.3 3.5-9.7.1-.3.2-.4.5-.4s.2.3.2.4V58c0 .4-.2.4-.5.5-1.8.1-3.7.5-5.4 1.2-.4.1-.6.2-1.1.4-.3.1-.5.3-.8.4.2-.1.4-.2.7-.3.7-.3.8-.3 1.4-.5 1.6-.5 3.3-.8 5-.9h.5c.7 0 .7 0 .7-.7v-4.6c0-.3.1-.5.3-.7 2.4-2.4 4.2-5 5.2-8.2.1-.3.3-.3.5-.3.3 0 .2.2.2.4V60c0 .3 0 .4-.4.4-2-.3-4.1-.4-6.2-.4-1.3 0-2.7.1-4 .3-.7.1-1.5.2-2.2.4-.2 0-.3.1-.5.2 1.1-.5 2.1-.6 3.2-.7zM56.5 49.2c.8-1.8 1.6-3.5 2.4-5.3.4-.9.8-1.9 1.2-2.8.1-.3.3-.4.7-.4 1.1 0 1.1 0 1.1 1.1v8.9c0 .4-.1.6-.5.5h-.2c-.4.1-.6-.1-.6-.6 0-2.7 0-5.4.1-8.1-1.2 2.7-2.4 5.5-3.7 8.3-.1.2-.1.5-.5.5-.3 0-.4-.2-.5-.4-1.1-2.5-2.2-4.9-3.3-7.4-.1-.2-.2-.5-.4-.9V50.8c0 .4-.1.6-.5.5-.7 0-.7 0-.7-.7v-9.4c0-.4.1-.5.5-.5 1.2 0 1.2 0 1.7 1.1 1 2.4 2.1 4.9 3.2 7.4zM138.8 63.8c.9-2.1 1.9-4.2 2.8-6.2.3-.6.5-1.1.8-1.7.1-.3.3-.4.6-.4 1.1 0 1.1 0 1.1 1.1v8.8c0 .5-.2.5-.6.5-.3 0-.7.1-.7-.5.1-2.7-.1-5.4.1-8.1l-3.6 8.1c-.1.2-.1.5-.5.5s-.4-.3-.5-.5c-1.2-2.6-2.3-5.2-3.5-7.8l-.1-.1c-.1.2-.1.3-.1.5v7.3c0 .5-.2.5-.6.5-.4 0-.6 0-.6-.5v-9.4c0-.4.1-.5.5-.5.9-.1 1.3.2 1.6 1 1.1 2.5 2.2 4.9 3.3 7.4zM84.9 59.1c1.4-1.9 3.8-1.6 4.5.1.1-.2.3-.3.4-.5.8-.9 2.2-1.2 3.3-.7 1 .4 1.3 1.3 1.3 2.3.1 1.6 0 3.3 0 5 0 .2-.1.3-.3.3-.9 0-.9 0-.9-.9v-4.1c0-1.4-1-2-2.1-1.7-.8.3-1.3 1.2-1.4 2.2V65c0 .7-.4.5-.8.5-.4.1-.5-.1-.5-.5v-3.9c0-.3 0-.6-.1-1-.1-.7-.5-1.1-1.2-1.3-.7-.1-1.3.1-1.7.7-.4.5-.5 1.2-.5 1.8v3.6c0 .5-.1.6-.6.6s-.6-.1-.6-.7v-4.1-2.3c0-.4.1-.5.5-.4h.3c.4-.1.5.1.5.5-.1.2-.1.3-.1.6zM122.5 57c-.8-.4-1.7-.7-2.5-.6-2.2.1-3.7 1.5-3.9 3.8-.1 1.7.2 3.2 1.8 4.1 1.3.8 2.7.6 4.1.1.2-.1.3-.2.6-.3v1c0 .1-.1.2-.2.3-1.6.7-4.7.9-6.4-1.1-2-2.4-1.7-8.1 3.1-9 1-.2 2.1-.1 3.1.2.3.1.4.2.4.5-.1.3-.1.6-.1 1zM63.5 64.3c.6-1.7 1.2-3.4 1.9-5 .1-.3.2-.6.3-1 .1-.2.2-.3.4-.3 1.1-.1 1.1-.1.7.9-1 2.6-2.1 5.2-3.1 7.9-.2.5-.4.9-.7 1.3-.6.8-1.4 1.1-2.4 1-.6-.1-.3-.6-.3-.9-.1-.4.3-.2.4-.2.6.1 1.1-.1 1.4-.7.3-.5.5-1.1.7-1.6.1-.2 0-.4-.1-.6-.9-2.2-1.7-4.5-2.6-6.7-.1-.4-.2-.5.3-.5.9 0 .9 0 1.2.8.6 1.9 1.2 3.7 1.9 5.6zM69.4 59.1c.6-.9 1.4-1.3 2.4-1.3 1.4 0 2.3.7 2.5 2.1.1.3.1.7.1 1.1v4.2c0 .3-.1.5-.4.4h-.4c-.4.1-.5-.1-.5-.4 0-1.5.1-3 0-4.4-.1-1.3-.7-1.8-1.7-1.8s-1.9.8-2 1.9V65.3c0 .3-.1.4-.4.4-.8 0-.8 0-.8-.8v-6.2c0-.4.1-.5.5-.5.9 0 .7-.1.7.7v.2zM103.6 48v2.8c0 .3-.1.5-.4.5-.8 0-.8 0-.8-.8v-5.3c0-.3-.1-.5-.4-.4h-.3c-.6 0-.8-.3-.6-.9.1-.2.3-.2.4-.2.9 0 .9 0 .9-.9 0-1 .2-1.9 1-2.5.6-.4 1.3-.5 2.1-.3.5.1.2.6.2.9 0 .4-.3.1-.4.1-1-.2-1.6.2-1.7 1.2-.2 1.5-.2 1.5 1.3 1.5.5 0 .4.3.5.6 0 .4-.1.5-.5.5s-1-.2-1.2.1c-.3.3-.1.8-.1 1.2V48zM105.9 64c.8.5 1.5.8 2.4.7.2 0 .4 0 .6-.1.4-.1.7-.3.8-.8.1-.5-.1-.8-.5-1.1-.7-.4-1.4-.6-2.1-.9-1.5-.8-1.5-2.6-.1-3.5.4-.3.9-.4 1.3-.4.6-.1 1.2 0 1.8.1.4.1.6.2.5.7v.7c-.7-.3-1.3-.5-2-.5-.3 0-.6.1-.8.2-.7.4-.8 1.2-.2 1.6.3.2.7.4 1 .5.5.2 1.1.4 1.6.8 1.1.8 1.1 2.3 0 3.1-.9.7-3.1.9-4.1.3-.2-.1-.2-.2-.2-.4v-1zM91.6 45.1c-.6-.3-1.2-.5-1.9-.5-.2 0-.5 0-.7.1-.4.1-.8.4-.8.9-.1.5.2.9.6 1.1.6.3 1.2.5 1.8.8.7.3 1.3.8 1.3 1.7.1 1.1-.5 1.8-1.5 2.2-1 .3-1.9.3-2.9 0-.4-.1-.6-.3-.6-.8v-.8c.5.3 1.1.6 1.7.7.5.1.9.1 1.4-.1.4-.1.7-.3.7-.8.1-.4-.1-.7-.4-1-.3-.3-.7-.4-1.1-.6-.4-.2-.8-.3-1.1-.5-.7-.4-1.1-1-1.1-1.8s.5-1.4 1.2-1.8c1-.5 2.1-.5 3.2-.2.2.1.3.2.3.4-.1.3-.1.6-.1 1zM110.4 50.2c.1 1.1 0 1.2-1.1 1.3-1.2 0-1.8-.5-2-1.7-.2-1.4 0-2.9-.1-4.3 0-.7 0-.7-.7-.7-.5 0-.8-.4-.6-.9.1-.2.3-.1.4-.1.8 0 .8 0 .8-.9v-.2c0-.8.2-1 1-1.2.3 0 .2.1.2.3v1.4c0 .4.1.5.5.5h1c.3 0 .4.1.4.4 0 .8.1.7-.7.7h-.9c-.3 0-.3.1-.3.4V49c0 1 .3 1.4 1 1.4.5 0 .8-.1 1.1-.2zM104.8 64.1c.1 1.2 0 1.3-1 1.5-3 .6-5-1.5-4.6-4.6.4-2.6 2.6-3.7 5.1-3.1.4.1.6.3.5.7v.7c-1.9-.8-3-.6-3.9.5-.8 1.1-.8 3 .1 4 .9 1.1 2.1 1.1 3.8.3zM72.6 45.1c-1.7-.8-3-.7-3.8.5-.8 1.1-.8 3 0 4s2.1 1.1 3.8.2v.9c0 .2-.1.3-.3.4-2.2 1-5.2.1-5.4-3.1-.1-1.4.2-2.7 1.4-3.6 1.2-1 2.6-1 4-.6.2.1.3.2.3.4-.1.3 0 .5 0 .9zM75.1 44.9c.3-.3.5-.7.8-.9.2-.2.5-.3.7-.4 1-.3 1.2-.1 1.2.9v.3c-.1 0-.1.1-.1 0-1.5-.7-2.5.7-2.6 1.9-.1 1.3 0 2.7-.1 4 0 .2.1.5-.1.5-.3.1-.7.1-1 0-.1 0-.1-.2-.1-.4v-6.7c0-.3.1-.5.4-.4h.3c.4-.1.6.1.5.5.1.2.1.5.1.7zM64.1 47.5v-3.3c0-.4.1-.5.5-.5h.4c.3 0 .4.1.4.3v6.9c0 .3-.1.3-.4.3-.9 0-.9 0-.9-.8v-2.9zM97.6 61.8V65c0 .4-.1.6-.5.5h-.3c-.4.1-.5-.1-.5-.4v-6.7c0-.4.1-.5.5-.4.8 0 .8 0 .8.8v3zM64.7 41.8c-.4 0-.8-.4-.8-.8s.4-.8.8-.8.8.4.8.8c.1.4-.3.8-.8.8zM97.8 55.3c0 .4-.4.8-.8.8-.5 0-.8-.4-.8-.8s.4-.7.8-.7c.4-.1.8.3.8.7zM59.2 59.4c-.2-2.4-1.4-3.7-3.8-4.2-1.4-.3-2.9-.2-4.3-.2-.4 0-.4.1-.4.5v9.7c0 .3.1.4.4.4h2.5c2 0 3.7-.7 4.8-2.5.8-1.2.9-2.4.8-3.7zm-1.5 2.2c-.5 1.6-1.8 2.7-3.5 2.8h-1.9c-.3 0-.4-.1-.4-.4v-3.8-3.7c0-.3.1-.4.4-.4.8 0 1.5 0 2.3.1 1.9.3 3 1.3 3.2 3.2.1.8.1 1.5-.1 2.2zM128.7 61c.1 0 .1 0 .2-.1 1.4-.5 2.1-1.7 1.9-3-.2-1.5-1-2.2-2.6-2.4-1-.1-2.1 0-3.1-.1-.4 0-.5.1-.5.5v9.4c0 .4.1.6.5.5.3 0 .8.2.7-.5v-3.6c0-.3.1-.3.3-.3 1.3-.2 2.1.4 2.7 1.4.5.9 1 1.8 1.6 2.6.1.1.1.3.4.3h1.4c-1.3-1.5-2-3.4-3.5-4.7zm-2.6-.7c-.2 0-.2-.2-.2-.3v-1.6-1.5c0-.2 0-.3.3-.3.6 0 1.3 0 1.9.1 1 .2 1.5.7 1.6 1.5.1 1-.4 1.8-1.3 2-.9.2-1.6.1-2.3.1zM100.4 46.8c-.1-1.5-1-2.7-2.3-3.1-.5-.2-1.1-.2-1.7-.2-1.6 0-2.8 1-3.3 2.5-.1.5-.1 1.1-.1 1.7 0 2.5 1.9 4.1 4.4 3.7 1.9-.3 3-1.8 3-3.9v-.7zm-1.3 1.6c-.2 1.2-1 2-2.2 2-1.2 0-2.2-.7-2.5-1.8-.1-.3-.1-.7-.1-1.1 0-.5.1-.9.2-1.4.4-1.1 1.3-1.7 2.6-1.6 1 .1 1.8.8 2 1.9.1.7.1 1.4 0 2zM84.2 44c-2.5-1.4-5.5.1-5.7 3-.3 3.1 1.8 5 4.7 4.3 1.7-.4 2.7-1.8 2.7-3.9-.1-1.7-.6-2.8-1.7-3.4zm.2 4.7c-.3 1.1-1.1 1.6-2.2 1.7-1.1 0-2-.6-2.4-1.5-.2-.5-.2-.9-.2-1.4 0-.5.1-.9.2-1.3.4-1.1 1.3-1.6 2.6-1.5 1 .1 1.8.8 2 1.9.2.6.2 1.4 0 2.1zM81.8 60.3c0-1.2-.6-2.1-1.6-2.3-1.2-.3-2.3-.1-3.4.4-.2.1-.3.2-.3.4v1c.2-.1.3-.2.4-.3.6-.4 1.3-.7 2.1-.6.8 0 1.3.4 1.5 1.2.1.7.1.7-.5.8-.2 0-.4.1-.7.1-.7.1-1.5.1-2.2.5-1 .5-1.5 1.5-1.3 2.6.2 1 1 1.7 2.1 1.8 1.1.1 1.9-.3 2.6-1.2v.3c0 .9-.1.7.7.7h.2c.3 0 .3-.1.3-.4.1-1.7.1-3.4.1-5zm-1.3 2c0 1.5-.9 2.4-2.2 2.4-.7 0-1.2-.5-1.3-1.1-.1-.7.2-1.2.9-1.4.8-.3 1.6-.3 2.4-.4.4 0 .1.4.2.5z"/></svg>