<svg version="1.1" id="Layer_1" xmlns="http://www.w3.org/2000/svg" x="0" y="0" viewBox="0 0 165 109" xml:space="preserve"><style></style><path d="M60.3 59.1V27.3l28.1-10.4 15.3 4.9v42.8l-15.3 4.6-28.1-10.1 28.1 3.4v-37L70 29.8v25.1l-9.7 4.2zm6.6 36c-1.8 0-3.3-.6-4.4-1.8-1.1-1.2-1.7-2.8-1.7-4.7 0-2.1.6-3.8 1.7-5 1.1-1.2 2.7-1.9 4.6-1.9 1.8 0 3.2.6 4.3 1.8 1.1 1.2 1.6 2.8 1.6 4.7 0 2.1-.6 3.8-1.7 5-1 1.3-2.5 1.9-4.4 1.9zm.1-12c-1.4 0-2.5.5-3.3 1.5-.9 1-1.3 2.3-1.3 3.9s.4 2.9 1.2 3.9c.8 1 1.9 1.5 3.2 1.5 1.4 0 2.5-.5 3.4-1.4.8-.9 1.2-2.2 1.2-3.9 0-1.7-.4-3-1.2-4-.7-1.1-1.8-1.5-3.2-1.5zM78.5 81c-.8 0-1.5.3-2.1.8-.6.6-.8 1.3-.8 2.3v1.5H74v1.3h1.6v8H77v-8h3.6v8h1.5v-8h2.2v-1.3h-2.2v-1.4c0-1.3.5-2 1.6-2 .4 0 .7.1 1 .2v-1.3c-.3-.1-.6-.1-1.1-.1-.8 0-1.5.3-2.1.8-.6.6-.8 1.3-.8 2.3v1.5H77v-1.4c0-1.3.5-2 1.6-2 .4 0 .7.1 1 .2v-1.3c-.3-.1-.6-.1-1.1-.1zm8 2.3c-.3 0-.5-.1-.7-.3-.2-.2-.3-.4-.3-.7 0-.3.1-.5.3-.7.2-.2.4-.3.7-.3.3 0 .5.1.7.3.2.2.3.4.3.7 0 .3-.1.5-.3.7-.2.2-.5.3-.7.3zm.7 11.6h-1.5v-9.3h1.5v9.3zm8.4-.5c-.7.4-1.6.6-2.5.6-1.3 0-2.4-.4-3.2-1.3-.8-.9-1.2-2-1.2-3.3 0-1.5.4-2.8 1.3-3.7.9-.9 2-1.4 3.5-1.4.8 0 1.5.2 2.2.5v1.5c-.7-.5-1.4-.7-2.2-.7-.9 0-1.7.3-2.3 1-.6.7-.9 1.6-.9 2.7s.3 1.9.9 2.6c.6.6 1.3.9 2.3.9.8 0 1.6-.3 2.3-.8v1.4h-.2zm9.1-3.8h-6.5c0 1 .3 1.8.8 2.4.5.6 1.3.8 2.2.8 1 0 2-.3 2.9-1v1.4c-.8.6-1.9.9-3.2.9-1.3 0-2.3-.4-3.1-1.3-.7-.8-1.1-2-1.1-3.6 0-1.4.4-2.6 1.2-3.5.8-.9 1.8-1.4 3-1.4s2.2.4 2.8 1.2 1 1.9 1 3.3v.8zm-1.5-1.2c0-.9-.2-1.5-.6-2-.4-.5-1-.7-1.7-.7s-1.3.3-1.8.8-.8 1.2-.9 2h5v-.1z" fill="#f71c00"/></svg>