<svg version="1.1" id="Layer_1" xmlns="http://www.w3.org/2000/svg" x="0" y="0" viewBox="0 0 165 109" xml:space="preserve"><style>.st2{fill:#303035}.st3{fill:#0069f0}</style><path class="st3" d="M98.2 33.9h-14c-.3 0-.5.2-.5.5v5.3l-3.8.1c-1.3 0-2.6.9-3.1 2.1L70 58.3h-2.9V53c0-.3-.2-.5-.5-.5h-14c-.3 0-.5.2-.5.5v14c0 .3.2.5.5.5h14c.3 0 .5-.2.5-.5v-5h3c1.4 0 2.6-.8 3.2-2.1l6.9-16.4 3.5-.1v5c0 .3.2.5.5.5h14c.3 0 .5-.2.5-.5v-14c0-.2-.2-.5-.5-.5z"/><path class="st3" d="M104.5 22.8h-45c-4.1 0-7.5 3.3-7.5 7.5V47h2.5V30.2c0-2.7 2.2-5 5-5h45c2.7 0 5 2.2 5 5v24.3c0 2.7-2.2 5-5 5H85.3V62h19.2c4.1 0 7.5-3.3 7.5-7.5V30.2c0-4.1-3.4-7.4-7.5-7.4z"/><path fill="#ffffff" d="M55.5 56h8.1v8.1h-8.1z"/><g><path class="st2" d="M27.5 84.7h4.2c.8 0 1.5.2 2 .7.5.5.8 1.1.8 2 0 .7-.2 1.4-.7 1.9-.5.5-1.1.8-2.1.8h-2.9V94h-1.3v-9.3zm4.9 1.2c-.3-.1-.7-.2-1.1-.2h-2.5V89h2.5c.6 0 1-.1 1.4-.4.4-.2.5-.7.5-1.3-.1-.6-.3-1.1-.8-1.4zM41.7 90.4c0 1.1-.3 2-.8 2.7-.5.7-1.4 1.1-2.5 1.1-.9 0-1.7-.3-2.2-.9-.5-.6-.8-1.5-.8-2.5 0-1.1.3-2 .9-2.7.6-.7 1.4-1 2.3-1 .9 0 1.6.3 2.2.9.6.4.9 1.3.9 2.4zm-1.2.1c0-.6-.1-1.1-.3-1.5-.3-.6-.9-.9-1.7-.9-.7 0-1.2.3-1.5.8-.3.5-.5 1.2-.5 1.9s.2 1.3.5 1.8.8.7 1.5.7c.8 0 1.3-.3 1.6-.9s.4-1.2.4-1.9zM43.6 87.2l1.3 5.3 1.3-5.3h1.3l1.3 5.3 1.4-5.3h1.1l-2 6.8h-1.2l-1.4-5.2-1.2 5.2h-1.2l-2-6.8h1.3zM57.7 88.3c.2.3.4.7.5 1.2.1.3.1.8.1 1.5h-5c0 .7.2 1.2.5 1.7.3.4.8.6 1.4.6.6 0 1.1-.2 1.4-.6.2-.2.3-.5.4-.8h1.1c0 .2-.1.5-.3.8s-.4.6-.6.7c-.3.3-.8.6-1.3.7-.3.1-.6.1-.9.1-.8 0-1.6-.3-2.1-.9-.6-.6-.9-1.5-.9-2.6s.3-2 .9-2.7c.6-.7 1.4-1 2.3-1 .5 0 .9.1 1.4.3.5.3.8.6 1.1 1zM57 90c0-.5-.2-.9-.3-1.2-.3-.5-.8-.8-1.6-.8-.5 0-1 .2-1.3.6-.4.4-.5.9-.6 1.4H57zM59.6 87.2h1.1v1.2c.1-.2.3-.5.7-.8.3-.3.7-.5 1.2-.5h.4v1.2h-.4c-.6 0-1 .2-1.3.6-.3.4-.5.8-.5 1.3V94h-1.1v-6.8zM69.7 84.7h1.4l3.4 9.3h-1.4l-.9-2.8h-3.7l-1 2.8h-1.3l3.5-9.3zm2 5.5L70.3 86l-1.5 4.1h2.9zM76.6 87.2v4.5c0 .3.1.6.2.8.2.4.6.6 1.1.6.8 0 1.3-.4 1.6-1.1.2-.4.2-.9.2-1.6v-3.3h1.1V94h-1.1v-1c-.1.3-.3.5-.6.7-.4.4-1 .5-1.6.5-1 0-1.6-.3-2-1-.2-.3-.3-.8-.3-1.4v-4.6h1.4zM82.9 85.3H84v1.9h1.1v.9H84v4.4c0 .2.1.4.2.5.1 0 .2.1.4.1h.4v.9h-.8c-.5 0-.9-.1-1.1-.4-.2-.3-.3-.6-.3-1.1V88H82v-.9h.9v-1.8zM92.1 90.4c0 1.1-.3 2-.8 2.7-.5.7-1.4 1.1-2.5 1.1-.9 0-1.7-.3-2.2-.9-.5-.6-.8-1.5-.8-2.5 0-1.1.3-2 .9-2.7.6-.7 1.4-1 2.3-1 .9 0 1.6.3 2.2.9s.9 1.3.9 2.4zm-1.2.1c0-.6-.1-1.1-.3-1.5-.3-.7-.9-1-1.6-1-.7 0-1.2.3-1.5.8-.4.5-.5 1.2-.5 1.9s.2 1.3.5 1.8.8.7 1.5.7c.8 0 1.3-.3 1.6-.9s.3-1.1.3-1.8zM93.5 87.2h1.1v1c.3-.3.5-.6.7-.7.4-.3.8-.4 1.3-.4s1 .1 1.3.4c.2.2.4.4.5.7.3-.4.6-.6.9-.8.3-.2.7-.3 1.2-.3.9 0 1.5.3 1.9 1 .2.4.3.8.3 1.4V94h-1.2v-4.7c0-.5-.1-.8-.3-.9-.2-.2-.5-.3-.8-.3-.4 0-.8.1-1.2.4-.3.3-.5.8-.5 1.5v4h-1.2v-4.4c0-.5-.1-.8-.2-1-.2-.3-.5-.5-1-.5-.4 0-.8.2-1.2.5-.4.3-.5.9-.5 1.8V94h-1.1v-6.8zM107.9 89.9c.3 0 .4-.1.5-.3.1-.1.1-.2.1-.4 0-.4-.1-.7-.4-.8-.3-.2-.7-.3-1.2-.3-.6 0-1 .2-1.3.5-.1.2-.2.4-.3.8h-1.1c0-.8.3-1.4.8-1.7.5-.3 1.1-.5 1.8-.5.8 0 1.4.2 1.9.5s.7.8.7 1.4V93c0 .1 0 .2.1.3 0 .1.2.1.3.1h.4v.6c-.2.1-.3.1-.4.1h-.4c-.4 0-.7-.1-.9-.4-.1-.1-.2-.4-.2-.6-.2.3-.6.6-1 .8-.4.2-.9.3-1.4.3-.6 0-1.1-.2-1.5-.6-.4-.4-.6-.9-.6-1.4 0-.6.2-1.1.6-1.5.4-.3.9-.6 1.5-.6l2-.2zm-1.6 3.3c.4 0 .8-.1 1.2-.3.6-.3.9-.8.9-1.5v-.9c-.1.1-.3.2-.5.2-.2.1-.4.1-.6.1l-.7.1c-.4.1-.7.1-.9.3-.4.2-.5.5-.5.9 0 .3.1.6.4.8s.4.3.7.3zM111.7 85.3h1.2v1.9h1.1v.9h-1.1v4.4c0 .2.1.4.2.5.1 0 .2.1.4.1h.4v.9c-.1 0-.3.1-.4.1h-.5c-.5 0-.9-.1-1.1-.4-.2-.3-.3-.6-.3-1.1v-4.5h-.9v-.9h.9v-1.9zM115.1 84.7h1.2V86h-1.2v-1.3zm0 2.5h1.2V94h-1.2v-6.8zM123.8 90.4c0 1.1-.3 2-.8 2.7-.5.7-1.4 1.1-2.5 1.1-.9 0-1.7-.3-2.2-.9-.5-.6-.8-1.5-.8-2.5 0-1.1.3-2 .9-2.7.6-.7 1.4-1 2.3-1 .9 0 1.6.3 2.2.9s.9 1.3.9 2.4zm-1.2.1c0-.6-.1-1.1-.3-1.5-.3-.6-.9-.9-1.7-.9-.7 0-1.2.3-1.5.8-.3.5-.5 1.2-.5 1.9s.2 1.3.5 1.8.8.7 1.5.7c.8 0 1.3-.3 1.6-.9s.4-1.2.4-1.9zM125.1 87.2h1.1v1c.3-.4.7-.7 1-.9.4-.2.8-.3 1.2-.3 1 0 1.6.3 1.9 1 .2.4.3.9.3 1.6V94h-1.2v-4.3c0-.4-.1-.7-.2-1-.2-.4-.6-.6-1.1-.6-.3 0-.5 0-.7.1-.3.1-.6.3-.8.6-.2.2-.3.5-.4.7s-.1.6-.1 1V94H125v-6.8zM133 91.8c0 .4.1.7.3.9.3.4.8.6 1.5.6.4 0 .8-.1 1.1-.3.3-.2.5-.5.5-.9 0-.3-.1-.5-.4-.7-.2-.1-.5-.2-1-.3l-.9-.2c-.6-.1-1-.3-1.3-.5-.5-.3-.7-.7-.7-1.3 0-.6.2-1.2.7-1.6.5-.4 1.1-.6 1.9-.6 1 0 1.8.3 2.2.9.3.4.4.8.4 1.2h-1.1c0-.3-.1-.5-.3-.7-.3-.3-.7-.4-1.4-.4-.4 0-.8.1-1 .2-.2.2-.3.4-.3.7 0 .3.1.5.4.7.2.1.4.2.7.3l.8.2c.8.2 1.4.4 1.6.6.4.3.7.7.7 1.4 0 .6-.2 1.1-.7 1.6-.5.4-1.2.7-2.1.7-1 0-1.7-.2-2.1-.7-.4-.5-.6-1-.7-1.7h1.2z"/></g></svg>