<svg version="1.1" id="Layer_1" xmlns="http://www.w3.org/2000/svg" x="0" y="0" viewBox="0 0 165 109" xml:space="preserve"><style>.st2{fill:#303035}.st15{fill:#020202}</style><path class="st2" d="M57.4 84.6h4.2c.8 0 1.5.2 2 .7.5.5.8 1.1.8 2 0 .7-.2 1.4-.7 1.9-.5.5-1.1.8-2.1.8h-2.9v3.9h-1.3v-9.3zm4.9 1.3c-.3-.1-.7-.2-1.1-.2h-2.5v3.2h2.5c.6 0 1-.1 1.4-.4.4-.2.5-.7.5-1.3-.1-.6-.3-1.1-.8-1.3zM71.6 90.4c0 1.1-.3 2-.8 2.7-.5.7-1.4 1.1-2.5 1.1-.9 0-1.7-.3-2.2-.9-.5-.6-.8-1.5-.8-2.5 0-1.1.3-2 .9-2.7.6-.7 1.4-1 2.3-1 .9 0 1.6.3 2.2.9.6.4.9 1.2.9 2.4zm-1.2 0c0-.6-.1-1.1-.3-1.5-.3-.6-.9-.9-1.7-.9-.7 0-1.2.3-1.5.8s-.5 1.2-.5 1.9.2 1.3.5 1.8.8.7 1.5.7c.8 0 1.3-.3 1.6-.9.3-.6.4-1.2.4-1.9zM73.5 87.1l1.3 5.3 1.3-5.3h1.3l1.3 5.3 1.4-5.3h1.1l-2 6.8H78l-1.4-5.2-1.3 5.2h-1.2l-2-6.8h1.4zM87.6 88.2c.2.3.4.7.5 1.2.1.3.1.8.1 1.5h-5c0 .7.2 1.2.5 1.7.3.4.8.6 1.4.6.6 0 1.1-.2 1.4-.6.2-.2.3-.5.4-.8H88c0 .2-.1.5-.3.8-.2.3-.4.6-.6.7-.3.3-.8.6-1.3.7-.3.1-.6.1-.9.1-.8 0-1.6-.3-2.1-.9-.6-.6-.9-1.5-.9-2.6s.3-2 .9-2.7c.6-.7 1.4-1 2.3-1 .5 0 .9.1 1.4.3.5.3.8.6 1.1 1zm-.7 1.8c0-.5-.2-.9-.3-1.2-.3-.5-.8-.8-1.6-.8-.5 0-1 .2-1.3.6-.4.4-.5.9-.6 1.4h3.8zM89.5 87.1h1.1v1.2c.1-.2.3-.5.7-.8.3-.3.7-.5 1.2-.5h.4v1.2h-.4c-.6 0-1 .2-1.3.6-.3.4-.5.8-.5 1.3V94h-1.1v-6.9zM97.5 84.6h4c1.1 0 1.9.3 2.3 1 .3.4.4.8.4 1.3 0 .6-.2 1.1-.5 1.4-.2.2-.4.4-.7.5.5.2.8.4 1.1.6.4.4.6 1 .6 1.7 0 .6-.2 1.1-.6 1.6-.6.7-1.5 1.1-2.7 1.1h-3.9v-9.2zm3.6 3.9c.5 0 .9-.1 1.2-.2.5-.2.7-.6.7-1.3 0-.6-.2-1-.7-1.2-.3-.1-.7-.2-1.2-.2h-2.2v2.9h2.2zm.4 4.3c.8 0 1.3-.2 1.7-.7.2-.3.3-.6.3-1 0-.7-.3-1.1-.9-1.4-.3-.1-.7-.2-1.3-.2h-2.5v3.3h2.7zM106.5 84.6h1.3v9.3h-1.3v-9.3z"/><g><path class="st15" d="M67 67.2c-1.8 0-3.3-1.5-3.3-3.3v-7.6c0-1.8 1.5-3.3 3.3-3.3 1.8 0 3.3 1.5 3.3 3.3v7.6c0 1.9-1.5 3.3-3.3 3.3zM77.3 67.2c-1.8 0-3.3-1.5-3.3-3.3V45c0-1.8 1.5-3.3 3.3-3.3 1.8 0 3.3 1.5 3.3 3.3v18.9c0 1.9-1.4 3.3-3.3 3.3zM87.7 67.2c-1.8 0-3.3-1.5-3.3-3.3v-14c0-1.8 1.5-3.3 3.3-3.3 1.8 0 3.3 1.5 3.3 3.3v14c0 1.9-1.5 3.3-3.3 3.3zM98.1 67.2c-1.8 0-3.3-1.5-3.3-3.3V36.8c0-1.8 1.5-3.3 3.3-3.3 1.8 0 3.3 1.5 3.3 3.3v27.1c-.1 1.9-1.5 3.3-3.3 3.3z"/><path class="st15" d="M104.9 22.9H60.1c-4 0-7.2 3.2-7.2 7.2v24c0 4 3.2 7.2 7.2 7.2h.8v-2.4h-.8c-2.7 0-4.8-2.2-4.8-4.8V30c0-2.7 2.2-4.8 4.8-4.8H105c2.7 0 4.8 2.2 4.8 4.8v24c0 2.7-2.2 4.8-4.8 4.8h-.8v2.4h.8c4 0 7.2-3.2 7.2-7.2V30c-.1-3.9-3.3-7.1-7.3-7.1z"/></g></svg>