<svg version="1.1" id="Layer_1" xmlns="http://www.w3.org/2000/svg" x="0" y="0" viewBox="0 0 165 109" xml:space="preserve"><style>.st2{fill:#303035}.st5{fill:#7e7ff1}.st6,.st7{opacity:.1;enable-background:new}.st7{opacity:.2}.st8{fill:#5453cf}</style><path class="st2" d="M36.1 84h1.8l2.7 7.9 2.7-7.9H45v9.3h-1.2v-5.5-.9-1.4l-2.7 7.8h-1.2l-2.7-7.8v7.8H36V84zM46.7 84h1.2v1.3h-1.2V84zm0 2.5h1.2v6.7h-1.2v-6.7zM55 88.8h-1.1c-.1-.4-.2-.8-.5-1-.2-.3-.6-.4-1.2-.4-.7 0-1.2.4-1.6 1.1-.2.5-.3 1-.3 1.7s.1 1.3.4 1.7c.3.5.7.7 1.4.7.5 0 .8-.1 1.1-.4.3-.3.5-.7.6-1.2H55c-.1.9-.4 1.6-.9 2s-1.2.6-1.9.6c-.9 0-1.6-.3-2.1-1-.5-.6-.8-1.5-.8-2.4 0-1.2.3-2.1.9-2.8.6-.7 1.3-1 2.2-1 .8 0 1.4.2 1.9.6.3.2.6.9.7 1.8zM56.1 86.5h1.1v1.2c.1-.2.3-.5.7-.8.3-.3.7-.5 1.2-.5h.4v1.2h-.4c-.6 0-1 .2-1.3.6-.3.4-.5.8-.5 1.3v3.9h-1.1v-6.9zM66.3 89.7c0 1.1-.3 2-.8 2.7s-1.4 1.1-2.5 1.1c-.9 0-1.7-.3-2.2-.9-.6-.7-.8-1.5-.8-2.6s.3-2 .9-2.7c.6-.7 1.4-1 2.3-1 .9 0 1.6.3 2.2.9.6.6.9 1.4.9 2.5zm-1.2.1c0-.6-.1-1.1-.3-1.5-.3-.6-.9-.9-1.7-.9-.7 0-1.2.3-1.5.8-.3.5-.5 1.2-.5 1.9s.2 1.3.5 1.8.8.7 1.5.7c.8 0 1.3-.3 1.6-.9.2-.6.4-1.2.4-1.9zM68.3 91.2c0 .4.1.7.3.9.3.4.8.6 1.5.6.4 0 .8-.1 1.1-.3.3-.2.5-.5.5-.9 0-.3-.1-.5-.4-.7-.2-.1-.5-.2-1-.3l-.9-.2c-.6-.1-1-.3-1.3-.5-.5-.3-.7-.7-.7-1.3 0-.6.2-1.2.7-1.6.5-.4 1.1-.6 1.9-.6 1 0 1.8.3 2.2.9.3.4.4.8.4 1.2h-1.1c0-.3-.1-.5-.3-.7-.3-.3-.7-.4-1.4-.4-.4 0-.8.1-1 .2-.2.2-.3.4-.3.7 0 .3.1.5.4.7.2.1.4.2.7.3l.8.2c.8.2 1.4.4 1.6.6.4.3.7.7.7 1.4 0 .6-.2 1.1-.7 1.6-.5.4-1.2.7-2.1.7-1 0-1.7-.2-2.1-.7-.4-.5-.6-1-.7-1.7h1.2zM80 89.7c0 1.1-.3 2-.8 2.7s-1.4 1.1-2.5 1.1c-.9 0-1.7-.3-2.2-.9-.5-.6-.8-1.5-.8-2.5 0-1.1.3-2 .9-2.7.6-.7 1.4-1 2.3-1 .9 0 1.6.3 2.2.9.5.5.9 1.3.9 2.4zm-1.2.1c0-.6-.1-1.1-.3-1.5-.3-.6-.9-.9-1.7-.9-.7 0-1.2.3-1.5.8s-.5 1.2-.5 1.9.2 1.3.5 1.8.8.7 1.5.7c.8 0 1.3-.3 1.6-.9.2-.6.4-1.2.4-1.9zM81.8 84.4c.3-.4.8-.6 1.5-.6h.5v1h-.5c-.3 0-.6.1-.6.3-.1.2-.1.6-.1 1.4h1.1v.9h-1.1v5.8h-1.1v-5.8h-.9v-.9h.9v-1.1c.1-.4.2-.7.3-1zM85.1 84.6h1.2v1.9h1.1v.9h-1.1v4.4c0 .2.1.4.2.5.1 0 .2.1.4.1h.4v.9c-.1 0-.3.1-.4.1h-.5c-.5 0-.9-.1-1.1-.4-.2-.3-.3-.6-.3-1.1v-4.5h-.9v-.9h.9v-1.9zM98.8 84v1.1h-3.1v8.2h-1.3v-8.2h-3.1V84h7.5zM103.6 87.6c.2.3.4.7.5 1.2.1.3.1.8.1 1.5h-5c0 .7.2 1.2.5 1.7s.8.6 1.4.6c.6 0 1.1-.2 1.4-.6.2-.2.3-.5.4-.8h1.1c0 .2-.1.5-.3.8-.2.3-.4.6-.6.7-.3.3-.8.6-1.3.7-.3.1-.6.1-.9.1-.8 0-1.6-.3-2.1-.9-.5-.6-.8-1.5-.8-2.6s.3-2 .9-2.7c.6-.7 1.4-1 2.3-1 .5 0 .9.1 1.4.3.4.3.8.6 1 1zm-.6 1.8c0-.5-.2-.9-.3-1.2-.3-.5-.8-.8-1.6-.8-.5 0-1 .2-1.3.6s-.5.9-.6 1.4h3.8zM109.2 89.2c.3 0 .4-.1.5-.3.1-.1.1-.2.1-.4 0-.4-.1-.7-.4-.8-.3-.2-.7-.3-1.2-.3-.6 0-1 .2-1.3.5-.1.2-.2.4-.3.8h-1.1c0-.8.3-1.4.8-1.7.5-.3 1.1-.5 1.8-.5.8 0 1.4.2 1.9.5s.7.8.7 1.4v3.9c0 .1 0 .2.1.3 0 .1.2.1.3.1h.4v.8c-.2.1-.3.1-.4.1h-.4c-.4 0-.7-.1-.9-.4-.1-.1-.2-.4-.2-.6-.2.3-.6.6-1 .8-.4.2-.9.3-1.4.3-.6 0-1.1-.2-1.5-.6-.4-.4-.6-.9-.6-1.4 0-.6.2-1.1.6-1.5.4-.3.9-.6 1.5-.6l2-.4zm-1.6 3.3c.4 0 .8-.1 1.2-.3.6-.3.9-.8.9-1.5v-.9c-.1.1-.3.2-.5.2-.2.1-.4.1-.6.1l-.7.1c-.4.1-.7.1-.9.3-.4.2-.5.5-.5.9 0 .3.1.6.4.8.1.2.4.3.7.3zM112.8 86.5h1.1v1c.3-.3.5-.6.7-.7.4-.3.8-.4 1.3-.4s1 .1 1.3.4c.2.2.4.4.5.7.3-.4.6-.6.9-.8.3-.2.7-.3 1.2-.3.9 0 1.5.3 1.9 1 .2.4.3.8.3 1.4v4.5h-1.2v-4.7c0-.5-.1-.8-.3-.9-.2-.2-.5-.3-.8-.3-.4 0-.8.1-1.2.4-.3.3-.5.8-.5 1.5v3.9h-1.2v-4.4c0-.5-.1-.8-.2-1-.2-.3-.5-.5-1-.5-.4 0-.8.2-1.2.5-.4.3-.5.9-.5 1.8v3.6h-1.1v-6.7zM124.2 91.2c0 .4.1.7.3.9.3.4.8.6 1.5.6.4 0 .8-.1 1.1-.3.3-.2.5-.5.5-.9 0-.3-.1-.5-.4-.7-.2-.1-.5-.2-1-.3l-.9-.2c-.6-.1-1-.3-1.3-.5-.5-.3-.7-.7-.7-1.3 0-.6.2-1.2.7-1.6.5-.4 1.1-.6 1.9-.6 1 0 1.8.3 2.2.9.3.4.4.8.4 1.2h-1.1c0-.3-.1-.5-.3-.7-.3-.3-.7-.4-1.4-.4-.4 0-.8.1-1 .2-.2.2-.3.4-.3.7 0 .3.1.5.4.7.2.1.4.2.7.3l.8.2c.8.2 1.4.4 1.6.6.4.3.7.7.7 1.4 0 .6-.2 1.1-.7 1.6-.5.4-1.2.7-2.1.7-1 0-1.7-.2-2.1-.7-.4-.5-.6-1-.7-1.7h1.2z"/><g><circle class="st5" cx="83.9" cy="24.8" r="8.3"/><path class="st6" d="M83.3 26.6h-7.5v.4c1.1 4.3 5.5 7 9.8 6v-4c.1-1.4-.9-2.4-2.3-2.4z"/><path class="st7" d="M81.6 28.4h-5.1c1.4 2.9 4.3 4.8 7.5 4.8v-2.4c-.1-1.4-1.1-2.4-2.4-2.4z"/><circle class="st8" cx="102.6" cy="27.5" r="6.2"/><path class="st8" d="M108 35.5H94c-.6 0-1.1.5-1.1 1.1V51c-.1 4.3 2.9 8.1 7.1 9.1 4.8 1 9.5-2.1 10.6-6.9.1-.6.2-1.2.2-1.8V38.2c-.1-1.5-1.3-2.7-2.8-2.7z"/><path class="st5" d="M98.2 38.2v16.9c0 7.9-6.4 14.2-14.2 14.3-5.1 0-9.8-2.7-12.3-7.1l-.9-1.8-.6-1.8c-.3-1.2-.4-2.4-.4-3.6V38.2c0-1.5 1.2-2.7 2.7-2.7h23.2c1.3 0 2.5 1.2 2.5 2.7z"/><path class="st7" d="M81.6 28.4h-5.1c1.4 2.9 4.3 4.8 7.5 4.8v-2.4c-.1-1.4-1.1-2.4-2.4-2.4z"/><path class="st6" d="M85.7 35.5v22.6c0 1.1-.8 2.1-1.9 2.3-.2 0-.3.1-.5.1H70.7l-.6-1.8c-.3-1.2-.4-2.4-.4-3.6V38.2c0-1.5 1.2-2.7 2.7-2.7h13.3z"/><path class="st7" d="M83.9 35.5v24.4c0 .2 0 .3-.1.5-.2 1.1-1.2 1.9-2.3 1.9h-10l-.9-1.8-.6-1.8c-.3-1.2-.4-2.4-.4-3.6V38.2c0-1.5 1.2-2.7 2.7-2.7h11.6z"/><path class="st7" d="M83.9 35.5v20.8c0 1.3-1.1 2.4-2.4 2.4H70.1c-.3-1.2-.4-2.4-.4-3.6V38.2c0-1.5 1.2-2.7 2.7-2.7h11.5z"/><path class="st7" d="M72.4 35.5c-1.5 0-2.7 1.2-2.7 2.7v16.9c0 1.2.2 2.4.4 3.6h9.7c1.3 0 2.4-1.1 2.4-2.4V35.5h-9.8z"/><path d="M56 28.4h23.8c1.3 0 2.4 1.1 2.4 2.4v23.8c0 1.3-1.1 2.4-2.4 2.4H56c-1.3 0-2.4-1.1-2.4-2.4V30.7c.1-1.3 1.1-2.3 2.4-2.3z" fill="#4f4ec1"/><path d="M75 37.2h-5.3v14.3h-3.5V37.2h-5.4v-3.5H75v3.5z" fill="#ffffff"/><path d="M53.7 14.1h57v57h-57v-57z" fill="none"/></g></svg>