<?xml version="1.0" encoding="UTF-8"?>
<svg width="45px" height="45px" viewBox="0 0 45 45" version="1.1" xmlns="http://www.w3.org/2000/svg" xmlns:xlink="http://www.w3.org/1999/xlink">
    <!-- Generator: sketchtool 60 (101010) - https://sketch.com -->
    <title>970F374E-CF1E-48C6-B12E-EC7E84691D7B</title>
    <desc>Created with sketchtool.</desc>
    <defs>
        <polygon id="path-1" points="7.62711864e-05 0.0983898305 44.1388983 0.0983898305 44.1388983 44.2372881 7.62711864e-05 44.2372881"></polygon>
    </defs>
    <g id="Final" stroke="none" stroke-width="1" fill="none" fill-rule="evenodd">
        <g id="LE_use_case-414_Final" transform="translate(-31.000000, -1453.000000)">
            <g id="Group-5" transform="translate(0.000000, 1351.000000)">
                <g id="Group-68" transform="translate(31.000000, 102.000000)">
                    <g id="Group-3" transform="translate(0.000000, 0.664322)">
                        <mask id="mask-2" fill="white">
                            <use xlink:href="#path-1"></use>
                        </mask>
                        <g id="Clip-2-goal"></g>
                        <path d="M44.1389746,22.1679915 C44.1389746,34.3561271 34.2580424,44.237822 22.0691441,44.237822 C9.88100847,44.237822 7.62711864e-05,34.3561271 7.62711864e-05,22.1679915 C7.62711864e-05,9.97909322 9.88100847,0.0981610169 22.0691441,0.0981610169 C34.2580424,0.0981610169 44.1389746,9.97909322 44.1389746,22.1679915" id="Fill-1" fill="#39B2BA" mask="url(#mask-2)"></path>
                    </g>
                    <path d="M11.4421271,35.0066441 C11.1263644,35.0066441 10.8700932,34.7503729 10.8700932,34.4346102 L10.8700932,31.5019831 C10.8700932,31.1862203 11.1263644,30.9299492 11.4421271,30.9299492 C11.7578898,30.9299492 12.014161,31.1862203 12.014161,31.5019831 L12.014161,34.4346102 C12.014161,34.7503729 11.7578898,35.0066441 11.4421271,35.0066441" id="Fill-4" fill="#FFFFFF"></path>
                    <path d="M14.1898729,35.0066441 C13.8741102,35.0066441 13.617839,34.7503729 13.617839,34.4346102 L13.617839,29.5265593 C13.617839,29.2107966 13.8741102,28.9545254 14.1898729,28.9545254 C14.5056356,28.9545254 14.7619068,29.2107966 14.7619068,29.5265593 L14.7619068,34.4346102 C14.7619068,34.7503729 14.5056356,35.0066441 14.1898729,35.0066441" id="Fill-6" fill="#FFFFFF"></path>
                    <path d="M19.6837627,35.0066441 C19.368,35.0066441 19.1117288,34.7503729 19.1117288,34.4346102 L19.1117288,29.5265593 C19.1117288,29.2107966 19.368,28.9545254 19.6837627,28.9545254 C19.9995254,28.9545254 20.2557966,29.2107966 20.2557966,29.5265593 L20.2557966,34.4346102 C20.2557966,34.7503729 19.9995254,35.0066441 19.6837627,35.0066441" id="Fill-8" fill="#FFFFFF"></path>
                    <path d="M22.4344068,35.0066441 C22.1186441,35.0066441 21.8623729,34.7503729 21.8623729,34.4346102 L21.8623729,28.4396949 C21.8623729,28.1239322 22.1186441,27.867661 22.4344068,27.867661 C22.7501695,27.867661 23.0064407,28.1239322 23.0064407,28.4396949 L23.0064407,34.4346102 C23.0064407,34.7503729 22.7501695,35.0066441 22.4344068,35.0066441" id="Fill-10" fill="#FFFFFF"></path>
                    <path d="M27.9253983,35.0066441 C27.6096356,35.0066441 27.3533644,34.7503729 27.3533644,34.4346102 L27.3533644,25.3888475 C27.3533644,25.0730847 27.6096356,24.8168136 27.9253983,24.8168136 C28.241161,24.8168136 28.4974322,25.0730847 28.4974322,25.3888475 L28.4974322,34.4346102 C28.4974322,34.7503729 28.241161,35.0066441 27.9253983,35.0066441" id="Fill-12" fill="#FFFFFF"></path>
                    <path d="M33.4244746,35.0066441 C33.1087119,35.0066441 32.8524407,34.7503729 32.8524407,34.4346102 L32.8524407,27.3154576 C32.8524407,26.9996949 33.1087119,26.7434237 33.4244746,26.7434237 C33.7402373,26.7434237 33.9965085,26.9996949 33.9965085,27.3154576 L33.9965085,34.4346102 C33.9965085,34.7503729 33.7402373,35.0066441 33.4244746,35.0066441" id="Fill-14" fill="#FFFFFF"></path>
                    <path d="M25.1784153,35.0066441 C24.8626525,35.0066441 24.6063814,34.7503729 24.6063814,34.4346102 L24.6063814,26.4177458 C24.6063814,26.1019831 24.8626525,25.8457119 25.1784153,25.8457119 C25.494178,25.8457119 25.7504492,26.1019831 25.7504492,26.4177458 L25.7504492,34.4346102 C25.7504492,34.7503729 25.494178,35.0066441 25.1784153,35.0066441" id="Fill-16" fill="#FFFFFF"></path>
                    <path d="M30.6730678,35.0066441 C30.3573051,35.0066441 30.1010339,34.7503729 30.1010339,34.4346102 L30.1010339,26.0714746 C30.1010339,25.7557119 30.3573051,25.4994407 30.6730678,25.4994407 C30.9888305,25.4994407 31.2451017,25.7557119 31.2451017,26.0714746 L31.2451017,34.4346102 C31.2451017,34.7503729 30.9888305,35.0066441 30.6730678,35.0066441" id="Fill-18" fill="#FFFFFF"></path>
                    <path d="M16.9390678,35.0066441 C16.6233051,35.0066441 16.3670339,34.7503729 16.3670339,34.4346102 L16.3670339,28.1407119 C16.3670339,27.8249492 16.6233051,27.568678 16.9390678,27.568678 C17.2548305,27.568678 17.5111017,27.8249492 17.5111017,28.1407119 L17.5111017,34.4346102 C17.5111017,34.7503729 17.2548305,35.0066441 16.9390678,35.0066441" id="Fill-20" fill="#FFFFFF"></path>
                    <path d="M19.8356949,24.7755508 C19.4162034,24.7755508 19.0752712,25.1164831 19.0752712,25.5367373 C19.0752712,25.9562288 19.4162034,26.297161 19.8356949,26.297161 C20.2559492,26.297161 20.5968814,25.9562288 20.5968814,25.5367373 C20.5968814,25.1164831 20.2559492,24.7755508 19.8356949,24.7755508 M19.8356949,27.4412288 C18.7854407,27.4412288 17.9312034,26.5869915 17.9312034,25.5367373 C17.9312034,24.4864831 18.7854407,23.6314831 19.8356949,23.6314831 C20.8859492,23.6314831 21.7409492,24.4864831 21.7409492,25.5367373 C21.7409492,26.5869915 20.8859492,27.4412288 19.8356949,27.4412288" id="Fill-22" fill="#FFFFFF"></path>
                    <path d="M26.3857881,21.4882627 C25.9655339,21.4882627 25.6246017,21.8291949 25.6246017,22.2486864 C25.6246017,22.668178 25.9655339,23.0098729 26.3857881,23.0098729 C26.8052797,23.0098729 27.1462119,22.668178 27.1462119,22.2486864 C27.1462119,21.8291949 26.8052797,21.4882627 26.3857881,21.4882627 M26.3857881,24.1539407 C25.3355339,24.1539407 24.4805339,23.2989407 24.4805339,22.2486864 C24.4805339,21.1984322 25.3355339,20.3441949 26.3857881,20.3441949 C27.4360424,20.3441949 28.2902797,21.1984322 28.2902797,22.2486864 C28.2902797,23.2989407 27.4360424,24.1539407 26.3857881,24.1539407" id="Fill-24" fill="#FFFFFF"></path>
                    <path d="M14.9637203,23.6568814 C14.5442288,23.6568814 14.2032966,23.9978136 14.2032966,24.4173051 C14.2032966,24.8367966 14.5442288,25.1777288 14.9637203,25.1777288 C15.3832119,25.1777288 15.7241441,24.8367966 15.7241441,24.4173051 C15.7241441,23.9978136 15.3832119,23.6568814 14.9637203,23.6568814 M14.9637203,26.3225593 C13.9134661,26.3225593 13.0592288,25.4675593 13.0592288,24.4173051 C13.0592288,23.3670508 13.9134661,22.5128136 14.9637203,22.5128136 C16.0139746,22.5128136 16.8682119,23.3670508 16.8682119,24.4173051 C16.8682119,25.4675593 16.0139746,26.3225593 14.9637203,26.3225593" id="Fill-26" fill="#FFFFFF"></path>
                    <path d="M10.622822,28.4618136 C10.4618898,28.4618136 10.3017203,28.3939322 10.188839,28.2619831 C9.98290678,28.0224915 10.0103644,27.6609661 10.2506186,27.4557966 L13.4677373,24.6963051 C13.7079915,24.4918983 14.0687542,24.5185932 14.2746864,24.7588475 C14.4806186,24.998339 14.4523983,25.3598644 14.2129068,25.5650339 L10.9950254,28.3237627 C10.8874831,28.4160508 10.7547712,28.4618136 10.622822,28.4618136" id="Fill-28" fill="#FFFFFF"></path>
                    <path d="M18.503161,26.1088475 C18.4406186,26.1088475 18.3773136,26.0981695 18.3147712,26.0768136 L16.6009576,25.4803729 C16.3027373,25.3758814 16.1448559,25.0494407 16.2493475,24.7519831 C16.3530763,24.453 16.6779915,24.2966441 16.9777373,24.3996102 L18.6915508,24.9960508 C18.9897712,25.1005424 19.1476525,25.4262203 19.043161,25.7244407 C18.9615508,25.9608814 18.7403644,26.1088475 18.503161,26.1088475" id="Fill-30" fill="#FFFFFF"></path>
                    <path d="M21.169678,26.1088475 C20.9782373,26.1088475 20.7913729,26.0127458 20.6830678,25.8388475 C20.5167966,25.5703729 20.5991695,25.2172373 20.8676441,25.0502034 L24.9740847,22.5012203 C25.243322,22.3334237 25.5956949,22.4165593 25.7619661,22.6850339 C25.9282373,22.9535085 25.8458644,23.3058814 25.5773898,23.4729153 L21.4709492,26.022661 C21.3763729,26.0813898 21.2726441,26.1088475 21.169678,26.1088475" id="Fill-32" fill="#FFFFFF"></path>
                    <path d="M33.5160763,25.1442458 C33.4481949,25.1442458 33.3787881,25.1320424 33.3109068,25.1061102 L27.7202288,22.9659407 C27.425822,22.8530593 27.2778559,22.5220424 27.3915,22.2276356 C27.5036186,21.9324661 27.8315847,21.7822119 28.1298051,21.8981441 L33.7212458,24.0383136 C34.0156525,24.1504322 34.1636186,24.4814492 34.0499746,24.7766186 C33.9630254,25.0039068 33.7464153,25.1442458 33.5160763,25.1442458" id="Fill-34" fill="#FFFFFF"></path>
                    <path d="M11.4421271,24.8336695 C11.1263644,24.8336695 10.8700932,24.5773983 10.8700932,24.2616356 L10.8700932,20.5197712 C10.8700932,20.2040085 11.1263644,19.9477373 11.4421271,19.9477373 C11.7578898,19.9477373 12.014161,20.2040085 12.014161,20.5197712 L12.014161,24.2616356 C12.014161,24.5773983 11.7578898,24.8336695 11.4421271,24.8336695" id="Fill-36" fill="#FFFFFF"></path>
                    <path d="M14.1898729,21.4722458 C13.8741102,21.4722458 13.617839,21.2159746 13.617839,20.9002119 L13.617839,19.1375847 C13.617839,18.821822 13.8741102,18.5655508 14.1898729,18.5655508 C14.5056356,18.5655508 14.7619068,18.821822 14.7619068,19.1375847 L14.7619068,20.9002119 C14.7619068,21.2159746 14.5056356,21.4722458 14.1898729,21.4722458" id="Fill-38" fill="#FFFFFF"></path>
                    <path d="M19.6837627,22.3857458 C19.368,22.3857458 19.1117288,22.1294746 19.1117288,21.8137119 L19.1117288,19.6781186 C19.1117288,19.3623559 19.368,19.1060847 19.6837627,19.1060847 C19.9995254,19.1060847 20.2557966,19.3623559 20.2557966,19.6781186 L20.2557966,21.8137119 C20.2557966,22.1294746 19.9995254,22.3857458 19.6837627,22.3857458" id="Fill-40" fill="#FFFFFF"></path>
                    <path d="M22.4344068,22.5488898 C22.1186441,22.5488898 21.8623729,22.2926186 21.8623729,21.9768559 L21.8623729,18.7528729 C21.8623729,18.4371102 22.1186441,18.180839 22.4344068,18.180839 C22.7501695,18.180839 23.0064407,18.4371102 23.0064407,18.7528729 L23.0064407,21.9768559 C23.0064407,22.2926186 22.7501695,22.5488898 22.4344068,22.5488898" id="Fill-42" fill="#FFFFFF"></path>
                    <path d="M27.9253983,19.4276441 C27.6096356,19.4276441 27.3533644,19.1713729 27.3533644,18.8556102 L27.3533644,15.7025593 C27.3533644,15.3867966 27.6096356,15.1305254 27.9253983,15.1305254 C28.241161,15.1305254 28.4974322,15.3867966 28.4974322,15.7025593 L28.4974322,18.8556102 C28.4974322,19.1713729 28.241161,19.4276441 27.9253983,19.4276441" id="Fill-44" fill="#FFFFFF"></path>
                    <path d="M33.4244746,22.6479661 C33.1087119,22.6479661 32.8524407,22.3916949 32.8524407,22.0759322 L32.8524407,17.629322 C32.8524407,17.3135593 33.1087119,17.0572881 33.4244746,17.0572881 C33.7402373,17.0572881 33.9965085,17.3135593 33.9965085,17.629322 L33.9965085,22.0759322 C33.9965085,22.3916949 33.7402373,22.6479661 33.4244746,22.6479661" id="Fill-46" fill="#FFFFFF"></path>
                    <path d="M25.1784153,19.5922373 C24.8626525,19.5922373 24.6063814,19.3359661 24.6063814,19.0202034 L24.6063814,16.7320678 C24.6063814,16.4163051 24.8626525,16.1600339 25.1784153,16.1600339 C25.494178,16.1600339 25.7504492,16.4163051 25.7504492,16.7320678 L25.7504492,19.0202034 C25.7504492,19.3359661 25.494178,19.5922373 25.1784153,19.5922373" id="Fill-48" fill="#FFFFFF"></path>
                    <path d="M30.6730678,21.4882627 C30.3573051,21.4882627 30.1010339,21.2319915 30.1010339,20.9162288 L30.1010339,16.3857203 C30.1010339,16.0691949 30.3573051,15.8136864 30.6730678,15.8136864 C30.9888305,15.8136864 31.2451017,16.0691949 31.2451017,16.3857203 L31.2451017,20.9162288 C31.2451017,21.2319915 30.9888305,21.4882627 30.6730678,21.4882627" id="Fill-50" fill="#FFFFFF"></path>
                    <path d="M16.9390678,21.9198814 C16.6233051,21.9198814 16.3670339,21.6636102 16.3670339,21.3478475 L16.3670339,18.2664915 C16.3670339,17.9507288 16.6233051,17.6944576 16.9390678,17.6944576 C17.2548305,17.6944576 17.5111017,17.9507288 17.5111017,18.2664915 L17.5111017,21.3478475 C17.5111017,21.6636102 17.2548305,21.9198814 16.9390678,21.9198814" id="Fill-52" fill="#FFFFFF"></path>
                    <path d="M19.8356949,15.0901017 C19.4162034,15.0901017 19.0752712,15.4310339 19.0752712,15.8505254 C19.0752712,16.2700169 19.4162034,16.6117119 19.8356949,16.6117119 C20.2559492,16.6117119 20.5968814,16.2700169 20.5968814,15.8505254 C20.5968814,15.4310339 20.2559492,15.0901017 19.8356949,15.0901017 M19.8356949,17.7557797 C18.7854407,17.7557797 17.9312034,16.9007797 17.9312034,15.8505254 C17.9312034,14.8002712 18.7854407,13.9460339 19.8356949,13.9460339 C20.8859492,13.9460339 21.7409492,14.8002712 21.7409492,15.8505254 C21.7409492,16.9007797 20.8859492,17.7557797 19.8356949,17.7557797" id="Fill-54" fill="#FFFFFF"></path>
                    <path d="M26.3857881,11.8020508 C25.9655339,11.8020508 25.6246017,12.1429831 25.6246017,12.5632373 C25.6246017,12.9819661 25.9655339,13.323661 26.3857881,13.323661 C26.8052797,13.323661 27.1462119,12.9819661 27.1462119,12.5632373 C27.1462119,12.1429831 26.8052797,11.8020508 26.3857881,11.8020508 M26.3857881,14.4677288 C25.3355339,14.4677288 24.4805339,13.6134915 24.4805339,12.5632373 C24.4805339,11.5129831 25.3355339,10.6579831 26.3857881,10.6579831 C27.4360424,10.6579831 28.2902797,11.5129831 28.2902797,12.5632373 C28.2902797,13.6134915 27.4360424,14.4677288 26.3857881,14.4677288" id="Fill-56" fill="#FFFFFF"></path>
                    <path d="M14.9637203,13.9705932 C14.5442288,13.9705932 14.2032966,14.3115254 14.2032966,14.7317797 C14.2032966,15.1505085 14.5442288,15.4922034 14.9637203,15.4922034 C15.3832119,15.4922034 15.7241441,15.1505085 15.7241441,14.7317797 C15.7241441,14.3115254 15.3832119,13.9705932 14.9637203,13.9705932 M14.9637203,16.6362712 C13.9134661,16.6362712 13.0592288,15.7820339 13.0592288,14.7317797 C13.0592288,13.6815254 13.9134661,12.8265254 14.9637203,12.8265254 C16.0139746,12.8265254 16.8682119,13.6815254 16.8682119,14.7317797 C16.8682119,15.7820339 16.0139746,16.6362712 14.9637203,16.6362712" id="Fill-58" fill="#FFFFFF"></path>
                    <path d="M10.622822,18.7755254 C10.4618898,18.7755254 10.3017203,18.7076441 10.188839,18.5756949 C9.98290678,18.3362034 10.0103644,17.974678 10.2506186,17.7695085 L13.4677373,15.0107797 C13.7079915,14.8056102 14.0687542,14.8330678 14.2746864,15.073322 C14.4806186,15.3128136 14.4523983,15.674339 14.2129068,15.8795085 L10.9950254,18.6374746 C10.8874831,18.7297627 10.7547712,18.7755254 10.622822,18.7755254" id="Fill-60" fill="#FFFFFF"></path>
                    <path d="M18.503161,16.4226356 C18.4406186,16.4226356 18.3773136,16.4127203 18.3155339,16.3906017 L16.6017203,15.794161 C16.3027373,15.6904322 16.1448559,15.3639915 16.2493475,15.0657712 C16.3530763,14.7675508 16.6810424,14.6096695 16.9769746,14.7133983 L18.6907881,15.3106017 C18.9897712,15.4143305 19.1476525,15.7400085 19.043161,16.0389915 C18.9615508,16.2746695 18.7403644,16.4226356 18.503161,16.4226356" id="Fill-62" fill="#FFFFFF"></path>
                    <path d="M21.169678,16.4226356 C20.9782373,16.4226356 20.7913729,16.3272966 20.6823051,16.1526356 C20.5167966,15.8833983 20.5991695,15.5310254 20.8676441,15.3647542 L24.9740847,12.8150085 C25.243322,12.6479746 25.5949322,12.7311102 25.7619661,12.9995847 C25.9282373,13.2680593 25.8458644,13.6204322 25.5773898,13.7867034 L21.4709492,16.3364492 C21.3763729,16.395178 21.2726441,16.4226356 21.169678,16.4226356" id="Fill-64" fill="#FFFFFF"></path>
                    <path d="M33.5160763,15.4584153 C33.4481949,15.4584153 33.3787881,15.4462119 33.3109068,15.4202797 L27.7202288,13.2801102 C27.425822,13.1672288 27.2778559,12.8362119 27.3915,12.5418051 C27.5036186,12.2466356 27.8315847,12.0979068 28.1298051,12.2123136 L33.7212458,14.3524831 C34.0156525,14.4653644 34.1636186,14.7956186 34.0499746,15.0907881 C33.9630254,15.318839 33.7464153,15.4584153 33.5160763,15.4584153" id="Fill-66" fill="#FFFFFF"></path>
                </g>
            </g>
        </g>
    </g>
</svg>