<?xml version="1.0" encoding="UTF-8"?>
<svg width="44px" height="45px" viewBox="0 0 44 45" version="1.1" xmlns="http://www.w3.org/2000/svg" xmlns:xlink="http://www.w3.org/1999/xlink">
    <!-- Generator: sketchtool 60 (101010) - https://sketch.com -->
    <title>58E6EA35-B99B-4516-83B3-D30FA20486A8</title>
    <desc>Created with sketchtool.</desc>
    <defs>
        <polygon id="path-1" points="3.08771941e-05 0.0983176689 43.9021193 0.0983176689 43.9021193 44.196382 3.08771941e-05 44.196382"></polygon>
        <polygon id="path-3" points="8.24229573e-13 44.2531861 43.9021193 44.2531861 43.9021193 0.155075187 8.24229573e-13 0.155075187"></polygon>
    </defs>
    <g id="Final" stroke="none" stroke-width="1" fill="none" fill-rule="evenodd">
        <g id="LE_use_case-414_Final" transform="translate(-29.000000, -2478.000000)">
            <g id="Group-5" transform="translate(0.000000, 1351.000000)">
                <g id="Group-22-Copy" transform="translate(29.000000, 1127.000000)">
                    <g id="Group-3" transform="translate(0.000000, 0.056758)">
                        <mask id="mask-2" fill="white">
                            <use xlink:href="#path-1"></use>
                        </mask>
                        <g id="Clip-2-solution"></g>
                        <path d="M43.9021502,22.1473266 C43.9021502,34.3247608 34.0742484,44.196382 21.9510905,44.196382 C9.82793263,44.196382 3.08771932e-05,34.3247608 3.08771932e-05,22.1473266 C3.08771932e-05,9.97004746 9.82793263,0.0982711463 21.9510905,0.0982711463 C34.0742484,0.0982711463 43.9021502,9.97004746 43.9021502,22.1473266" id="Fill-1" fill="#39B2BA" mask="url(#mask-2)"></path>
                    </g>
                    <path d="M13.2662625,11.6678416 C12.1468098,11.6678416 11.236087,12.5826302 11.236087,13.7070804 L11.236087,26.3959525 C11.236087,27.5205578 12.1468098,28.4353463 13.2662625,28.4353463 L30.6359186,28.4353463 C31.7553712,28.4353463 32.666094,27.5205578 32.666094,26.3959525 L32.666094,13.7070804 C32.666094,12.5826302 31.7553712,11.6678416 30.6359186,11.6678416 L13.2662625,11.6678416 Z M30.6359186,29.7948905 L13.2662625,29.7948905 C11.4003537,29.7948905 9.88258526,28.2701913 9.88258526,26.3959525 L9.88258526,13.7070804 C9.88258526,11.8328416 11.4003537,10.3082975 13.2662625,10.3082975 L30.6359186,10.3082975 C32.5018274,10.3082975 34.0195958,11.8328416 34.0195958,13.7070804 L34.0195958,26.3959525 C34.0195958,28.2701913 32.5018274,29.7948905 30.6359186,29.7948905 L30.6359186,29.7948905 Z" id="Fill-4" fill="#FFFFFF"></path>
                    <path d="M20.2592519,15.066609 L14.1685712,15.066609 C13.7963467,15.066609 13.4918975,14.7606457 13.4918975,14.3869145 C13.4918975,14.0130282 13.7963467,13.7070648 14.1685712,13.7070648 L20.2592519,13.7070648 C20.6314765,13.7070648 20.9359256,14.0130282 20.9359256,14.3869145 C20.9359256,14.7606457 20.6314765,15.066609 20.2592519,15.066609" id="Fill-6" fill="#FFFFFF"></path>
                    <path d="M24.3196337,15.066609 L22.740574,15.066609 C22.3683495,15.066609 22.0639004,14.7606457 22.0639004,14.3869145 C22.0639004,14.0130282 22.3683495,13.7070648 22.740574,13.7070648 L24.3196337,13.7070648 C24.6918582,13.7070648 24.9963074,14.0130282 24.9963074,14.3869145 C24.9963074,14.7606457 24.6918582,15.066609 24.3196337,15.066609" id="Fill-8" fill="#FFFFFF"></path>
                    <path d="M22.063854,17.1059098 L18.2290611,17.1059098 C17.8568365,17.1059098 17.552233,16.7999464 17.552233,16.4262152 C17.552233,16.0523289 17.8568365,15.7463656 18.2290611,15.7463656 L22.063854,15.7463656 C22.4360786,15.7463656 22.7405277,16.0523289 22.7405277,16.4262152 C22.7405277,16.7999464 22.4360786,17.1059098 22.063854,17.1059098" id="Fill-10" fill="#FFFFFF"></path>
                    <path d="M15.7476,17.1059098 L14.1685404,17.1059098 C13.7963158,17.1059098 13.4918667,16.7999464 13.4918667,16.4262152 C13.4918667,16.0523289 13.7963158,15.7463656 14.1685404,15.7463656 L15.7476,15.7463656 C16.1198246,15.7463656 16.4244281,16.0523289 16.4244281,16.4262152 C16.4244281,16.7999464 16.1198246,17.1059098 15.7476,17.1059098" id="Fill-12" fill="#FFFFFF"></path>
                    <path d="M19.5824547,19.1452105 L14.1686021,19.1452105 C13.7963775,19.1452105 13.491774,18.8392472 13.491774,18.465516 L13.491774,18.4653609 C13.491774,18.0916297 13.7963775,17.7856664 14.1686021,17.7856664 L19.5824547,17.7856664 C19.9546793,17.7856664 20.2592828,18.0916297 20.2592828,18.4653609 L20.2592828,18.465516 C20.2592828,18.8392472 19.9546793,19.1452105 19.5824547,19.1452105" id="Fill-14" fill="#FFFFFF"></path>
                    <mask id="mask-4" fill="white">
                        <use xlink:href="#path-3"></use>
                    </mask>
                    <g id="Clip-17"></g>
                    <polygon id="Fill-16" fill="#FFFFFF" mask="url(#mask-4)" points="10.5593825 26.5091729 33.3428912 26.5091729 33.3428912 25.1496288 10.5593825 25.1496288"></polygon>
                    <polygon id="Fill-18" fill="#FFFFFF" mask="url(#mask-4)" points="21.1615298 33.4200987 22.5150316 33.4200987 22.5150316 29.5681861 21.1615298 29.5681861"></polygon>
                    <path d="M27.4777684,34.0999793 L16.198793,34.0999793 C15.8248702,34.0999793 15.5221193,33.7957218 15.5221193,33.4201297 C15.5221193,33.0446927 15.8248702,32.7404352 16.198793,32.7404352 L27.4777684,32.7404352 C27.8515368,32.7404352 28.1544421,33.0446927 28.1544421,33.4201297 C28.1544421,33.7957218 27.8515368,34.0999793 27.4777684,34.0999793" id="Fill-19" fill="#FFFFFF" mask="url(#mask-4)"></path>
                    <path d="M19.5735158,23.6096856 C19.3874807,23.6096856 19.2014456,23.5608369 19.0334737,23.4625193 L16.8367158,22.1753952 L14.6973895,23.1523689 C14.3994246,23.2883698 14.0344561,23.2108322 13.8453333,22.9425522 C13.5905965,22.5816922 13.7338667,22.0989431 14.1141193,21.9251039 L16.4092211,20.8771057 C16.7258667,20.7328858 17.0940772,20.7516499 17.3937404,20.9278153 L19.5670316,22.2011377 L23.0915088,19.836086 C23.8685333,19.145226 24.0940912,19.145226 24.9963228,19.5983557 L26.9625825,20.6412364 L29.1079298,15.9392016 C29.2440982,15.6403717 29.5703158,15.4589337 29.8880421,15.5370916 C30.316,15.6422326 30.5228772,16.1014102 30.3488842,16.4827401 L28.0846596,21.4451461 C27.9647018,21.7075334 27.7585965,21.9291358 27.4910456,22.0350522 C27.1628211,22.1650052 26.802793,22.1277871 26.5139368,21.942007 L24.4164491,20.863304 C24.2518737,20.7787881 24.0547228,20.7907289 23.9015719,20.8946292 L20.1490667,23.4406537 C19.9730667,23.5532383 19.7734456,23.6096856 19.5735158,23.6096856 L19.5735158,23.6096856 Z" id="Fill-20" fill="#FFFFFF" mask="url(#mask-4)"></path>
                    <polygon id="Fill-21" fill="#FFFFFF" mask="url(#mask-4)" points="28.9147312 18.7921353 30.0618189 16.3490808 31.1196716 16.8501288 30.8660154 13.7607209 28.3316154 15.5293534 29.3893137 16.0304013 28.2423804 18.4736109"></polygon>
                </g>
            </g>
        </g>
    </g>
</svg>