<?xml version="1.0" encoding="UTF-8"?>
<svg width="44px" height="44px" viewBox="0 0 44 44" version="1.1" xmlns="http://www.w3.org/2000/svg" xmlns:xlink="http://www.w3.org/1999/xlink">
    <!-- Generator: sketchtool 60 (101010) - https://sketch.com -->
    <title>57E29AD9-B3C9-433A-9A9F-FAAF111C7072</title>
    <desc>Created with sketchtool.</desc>
    <defs>
        <polygon id="path-1" points="0 0.0470179012 43.5910897 0.0470179012 43.5910897 43.8858025 0 43.8858025"></polygon>
    </defs>
    <g id="Final" stroke="none" stroke-width="1" fill="none" fill-rule="evenodd">
        <g id="LE_use_case-414_Final" transform="translate(-29.000000, -2057.000000)">
            <g id="Group-5" transform="translate(0.000000, 1351.000000)">
                <g id="Group-14" transform="translate(29.000000, 706.000000)">
                    <g id="Group-3" transform="translate(0.000000, 0.135117)">
                        <mask id="mask-2" fill="white">
                            <use xlink:href="#path-1"></use>
                        </mask>
                        <g id="Clip-2-story"></g>
                        <path d="M21.7955177,-0.135117284 C9.7581679,-0.135117284 -5.4320988e-05,9.67854938 -5.4320988e-05,21.7842932 C-5.4320988e-05,33.890037 9.7581679,43.7037037 21.7955177,43.7037037 C33.8328675,43.7037037 43.5910897,33.890037 43.5910897,21.7842932 C43.5910897,9.67854938 33.8328675,-0.135117284 21.7955177,-0.135117284 Z" id="Fill-1" fill="#39B2BA" mask="url(#mask-2)"></path>
                    </g>
                    <polygon id="Fill-4" fill="#FFFFFF" points="20.1715374 20.0030395 22.0229778 19.0242586 23.874237 20.0030395 23.5206074 17.9298451 25.0184181 16.4615827 22.9484263 16.1591167 22.0229778 14.2729377 21.0971671 16.1591167 19.0273564 16.4615827 20.5251671 17.9298451"></polygon>
                    <path d="M27.1680988,24.1275583 L16.8777119,24.1275583 C16.577679,24.1275583 16.3345021,24.372117 16.3345021,24.6738546 C16.3345021,24.9755923 16.577679,25.2201509 16.8777119,25.2201509 L27.1680988,25.2201509 C27.4681317,25.2201509 27.7113086,24.9755923 27.7113086,24.6738546 C27.7113086,24.372117 27.4681317,24.1275583 27.1680988,24.1275583" id="Fill-6" fill="#FFFFFF"></path>
                    <path d="M27.1680988,26.7760028 L16.8777119,26.7760028 C16.577679,26.7760028 16.3345021,27.0205614 16.3345021,27.3222991 C16.3345021,27.6240367 16.577679,27.8685954 16.8777119,27.8685954 L27.1680988,27.8685954 C27.4681317,27.8685954 27.7113086,27.6240367 27.7113086,27.3222991 C27.7113086,27.0205614 27.4681317,26.7760028 27.1680988,26.7760028" id="Fill-8" fill="#FFFFFF"></path>
                    <path d="M27.1680988,29.424429 L16.8777119,29.424429 C16.577679,29.424429 16.3345021,29.6689877 16.3345021,29.9707253 C16.3345021,30.272463 16.577679,30.5170216 16.8777119,30.5170216 L27.1680988,30.5170216 C27.4681317,30.5170216 27.7113086,30.272463 27.7113086,29.9707253 C27.7113086,29.6689877 27.4681317,29.424429 27.1680988,29.424429" id="Fill-10" fill="#FFFFFF"></path>
                    <path d="M29.9652313,31.4830009 C29.9652313,32.3867571 29.2340708,33.1218898 28.3356016,33.1218898 L15.7101366,33.1218898 C14.8116675,33.1218898 14.080507,32.3867571 14.080507,31.4830009 L14.080507,12.7200904 C14.080507,11.8163343 14.8116675,11.0812015 15.7101366,11.0812015 L28.3356016,11.0812015 C29.2340708,11.0812015 29.9652313,11.8163343 29.9652313,12.7200904 L29.9652313,31.4830009 Z M28.3356016,9.98860895 L15.7101366,9.98860895 C14.212507,9.98860895 12.9940872,11.2137694 12.9940872,12.7200904 L12.9940872,14.6494269 L11.7944988,14.6494269 C11.4946469,14.6494269 11.2512889,14.8939855 11.2512889,15.1957231 C11.2512889,15.4972787 11.4946469,15.7420194 11.7944988,15.7420194 L12.9940872,15.7420194 L12.9940872,19.4732231 L11.7944988,19.4732231 C11.4946469,19.4732231 11.2512889,19.7179639 11.2512889,20.0195194 C11.2512889,20.3212571 11.4946469,20.5658157 11.7944988,20.5658157 L12.9940872,20.5658157 L12.9940872,24.2972015 L11.7944988,24.2972015 C11.4946469,24.2972015 11.2512889,24.5417602 11.2512889,24.8434978 C11.2512889,25.1452355 11.4946469,25.3897941 11.7944988,25.3897941 L12.9940872,25.3897941 L12.9940872,29.1211799 L11.7944988,29.1211799 C11.4946469,29.1211799 11.2512889,29.3657386 11.2512889,29.6674762 C11.2512889,29.9692139 11.4946469,30.2137725 11.7944988,30.2137725 L12.9940872,30.2137725 L12.9940872,31.4830009 C12.9940872,32.9891398 14.212507,34.2144824 15.7101366,34.2144824 L28.3356016,34.2144824 C29.8332313,34.2144824 31.051651,32.9891398 31.051651,31.4830009 L31.051651,12.7200904 C31.051651,11.2137694 29.8332313,9.98860895 28.3356016,9.98860895 L28.3356016,9.98860895 Z" id="Fill-12" fill="#FFFFFF"></path>
                </g>
            </g>
        </g>
    </g>
</svg>