<svg width="100" height="56" viewBox="0 0 100 56" fill="none" xmlns="http://www.w3.org/2000/svg">
<g clip-path="url(#clip0)">
<path d="M21.6672 49.7075C24.5394 49.7075 26.8678 47.4382 26.8678 44.6389C26.8678 41.8396 24.5394 39.5703 21.6672 39.5703C18.795 39.5703 16.4666 41.8396 16.4666 44.6389C16.4666 47.4382 18.795 49.7075 21.6672 49.7075Z" fill="#F2F2F2"/>
<path d="M22.5129 48.9654C25.3851 48.9654 27.7134 46.6961 27.7134 43.8967C27.7134 41.0974 25.3851 38.8281 22.5129 38.8281C19.6407 38.8281 17.3123 41.0974 17.3123 43.8967C17.3123 46.6961 19.6407 48.9654 22.5129 48.9654Z" fill="#F1563C"/>
<path d="M91.0461 38.2891H26.7011V38.4619H91.0461V38.2891Z" fill="#3F3D56"/>
<path d="M60.0255 1.5955H37.187V1.13672H26.8311V1.5955H3.89848C3.6956 1.5955 3.49472 1.63444 3.30729 1.71011C3.11986 1.78577 2.94955 1.89668 2.8061 2.03649C2.66265 2.17631 2.54885 2.34229 2.47122 2.52496C2.39358 2.70764 2.35362 2.90343 2.35362 3.10115V33.5806C2.35362 33.9799 2.51638 34.3629 2.8061 34.6453C3.09581 34.9276 3.48875 35.0863 3.89848 35.0863H60.0255C60.4352 35.0863 60.8281 34.9276 61.1179 34.6453C61.4076 34.3629 61.5703 33.9799 61.5703 33.5806V3.10115C61.5703 2.90343 61.5304 2.70764 61.4527 2.52496C61.3751 2.34229 61.2613 2.17631 61.1179 2.03649C60.9744 1.89668 60.8041 1.78577 60.6167 1.71011C60.4292 1.63444 60.2284 1.5955 60.0255 1.5955V1.5955Z" fill="#3F3D56"/>
<path d="M59.4992 4.25781H4.42484V34.5371H59.4992V4.25781Z" fill="white"/>
<path d="M31.9149 3.43351C32.2269 3.43351 32.4798 3.18694 32.4798 2.88277C32.4798 2.57861 32.2269 2.33203 31.9149 2.33203C31.603 2.33203 31.3501 2.57861 31.3501 2.88277C31.3501 3.18694 31.603 3.43351 31.9149 3.43351Z" fill="#F1563C"/>
<path opacity="0.05" d="M43.7489 34.5371H4.42482V4.25781L43.7489 34.5371Z" fill="black"/>
<path d="M13.0423 32.2723C15.966 32.2723 18.3362 29.9623 18.3362 27.1127C18.3362 24.2632 15.966 21.9531 13.0423 21.9531C10.1185 21.9531 7.74837 24.2632 7.74837 27.1127C7.74837 29.9623 10.1185 32.2723 13.0423 32.2723Z" fill="#F2F2F2"/>
<path d="M49.9098 20.5859H44.7652V21.634H49.9098V20.5859Z" fill="#F1563C"/>
<path d="M56.1293 12.4297H38.5457V12.8802H56.1293V12.4297Z" fill="#3F3D56"/>
<path d="M56.1293 13.8516H38.5457V14.3021H56.1293V13.8516Z" fill="#3F3D56"/>
<path d="M56.1293 15.2734H38.5457V15.724H56.1293V15.2734Z" fill="#3F3D56"/>
<path d="M56.1293 16.6953H38.5457V17.1459H56.1293V16.6953Z" fill="#3F3D56"/>
<path d="M56.1293 18.1172H38.5457V18.5677H56.1293V18.1172Z" fill="#3F3D56"/>
<path d="M56.1294 4.87109H53.9794V6.96729H56.1294V4.87109Z" fill="#F2F2F2"/>
<path d="M57.1276 7.93992H54.5169V5.39453H57.1276V7.93992ZM54.6304 7.82925H57.014V5.5052H54.6304V7.82925Z" fill="#3F3D56"/>
<path d="M63.1167 33.9874H57.7418V33.61C57.7418 33.6002 57.7398 33.5904 57.736 33.5814C57.7321 33.5723 57.7264 33.564 57.7193 33.5571C57.7122 33.5501 57.7037 33.5446 57.6944 33.5409C57.6851 33.5371 57.6751 33.5352 57.665 33.5352H55.8222C55.8121 33.5352 55.8021 33.5371 55.7928 33.5409C55.7835 33.5446 55.775 33.5501 55.7679 33.5571C55.7608 33.564 55.7551 33.5723 55.7512 33.5814C55.7474 33.5904 55.7454 33.6002 55.7454 33.61V33.9874H54.5936V33.61C54.5936 33.6002 54.5917 33.5904 54.5878 33.5814C54.5839 33.5723 54.5783 33.564 54.5711 33.5571C54.564 33.5501 54.5556 33.5446 54.5462 33.5409C54.5369 33.5371 54.5269 33.5352 54.5169 33.5352H52.674C52.664 33.5352 52.654 33.5371 52.6446 33.5409C52.6353 33.5446 52.6269 33.5501 52.6197 33.5571C52.6126 33.564 52.6069 33.5723 52.6031 33.5814C52.5992 33.5904 52.5972 33.6002 52.5973 33.61V33.9874H51.4455V33.61C51.4455 33.6002 51.4435 33.5904 51.4396 33.5814C51.4358 33.5723 51.4301 33.564 51.423 33.5571C51.4159 33.5501 51.4074 33.5446 51.3981 33.5409C51.3888 33.5371 51.3788 33.5352 51.3687 33.5352H49.5259C49.5158 33.5352 49.5058 33.5371 49.4965 33.5409C49.4872 33.5446 49.4787 33.5501 49.4716 33.5571C49.4645 33.564 49.4588 33.5723 49.4549 33.5814C49.4511 33.5904 49.4491 33.6002 49.4491 33.61V33.9874H48.2973V33.61C48.2973 33.6002 48.2953 33.5904 48.2915 33.5814C48.2876 33.5723 48.282 33.564 48.2748 33.5571C48.2677 33.5501 48.2592 33.5446 48.2499 33.5409C48.2406 33.5371 48.2306 33.5352 48.2205 33.5352H46.3777C46.3676 33.5352 46.3576 33.5371 46.3483 33.5409C46.339 33.5446 46.3306 33.5501 46.3234 33.5571C46.3163 33.564 46.3106 33.5723 46.3068 33.5814C46.3029 33.5904 46.3009 33.6002 46.3009 33.61V33.9874H45.1492V33.61C45.1492 33.6002 45.1472 33.5904 45.1433 33.5814C45.1395 33.5723 45.1338 33.564 45.1267 33.5571C45.1196 33.5501 45.1111 33.5446 45.1018 33.5409C45.0925 33.5371 45.0825 33.5352 45.0724 33.5352H43.2296C43.2195 33.5352 43.2095 33.5371 43.2002 33.5409C43.1909 33.5446 43.1824 33.5501 43.1753 33.5571C43.1681 33.564 43.1625 33.5723 43.1586 33.5814C43.1548 33.5904 43.1528 33.6002 43.1528 33.61V33.9874H42.001V33.61C42.001 33.6002 41.999 33.5904 41.9952 33.5814C41.9913 33.5723 41.9857 33.564 41.9785 33.5571C41.9714 33.5501 41.9629 33.5446 41.9536 33.5409C41.9443 33.5371 41.9343 33.5352 41.9242 33.5352H40.0814C40.0713 33.5352 40.0613 33.5371 40.052 33.5409C40.0427 33.5446 40.0342 33.5501 40.0271 33.5571C40.02 33.564 40.0143 33.5723 40.0105 33.5814C40.0066 33.5904 40.0046 33.6002 40.0046 33.61V33.9874H38.8529V33.61C38.8529 33.6002 38.8509 33.5904 38.847 33.5814C38.8432 33.5723 38.8375 33.564 38.8304 33.5571C38.8232 33.5501 38.8148 33.5446 38.8055 33.5409C38.7961 33.5371 38.7862 33.5352 38.7761 33.5352H24.3406C24.3305 33.5352 24.3206 33.5371 24.3112 33.5409C24.3019 33.5446 24.2935 33.5501 24.2863 33.5571C24.2792 33.564 24.2735 33.5723 24.2697 33.5814C24.2658 33.5904 24.2638 33.6002 24.2638 33.61V33.9874H23.1121V33.61C23.1121 33.6002 23.1101 33.5904 23.1062 33.5814C23.1024 33.5723 23.0967 33.564 23.0896 33.5571C23.0825 33.5501 23.074 33.5446 23.0647 33.5409C23.0554 33.5371 23.0454 33.5352 23.0353 33.5352H21.1925C21.1824 33.5352 21.1724 33.5371 21.1631 33.5409C21.1538 33.5446 21.1453 33.5501 21.1382 33.5571C21.131 33.564 21.1254 33.5723 21.1215 33.5814C21.1177 33.5904 21.1157 33.6002 21.1157 33.61V33.9874H19.9639V33.61C19.9639 33.6002 19.9619 33.5904 19.9581 33.5814C19.9542 33.5723 19.9486 33.564 19.9414 33.5571C19.9343 33.5501 19.9258 33.5446 19.9165 33.5409C19.9072 33.5371 19.8972 33.5352 19.8871 33.5352H18.0443C18.0342 33.5352 18.0242 33.5371 18.0149 33.5409C18.0056 33.5446 17.9971 33.5501 17.99 33.5571C17.9829 33.564 17.9772 33.5723 17.9734 33.5814C17.9695 33.5904 17.9675 33.6002 17.9675 33.61V33.9874H16.8158V33.61C16.8158 33.6002 16.8138 33.5904 16.8099 33.5814C16.8061 33.5723 16.8004 33.564 16.7933 33.5571C16.7861 33.5501 16.7777 33.5446 16.7684 33.5409C16.759 33.5371 16.7491 33.5352 16.739 33.5352H14.8962C14.8861 33.5352 14.8761 33.5371 14.8668 33.5409C14.8575 33.5446 14.849 33.5501 14.8419 33.5571C14.8347 33.564 14.8291 33.5723 14.8252 33.5814C14.8214 33.5904 14.8194 33.6002 14.8194 33.61V33.9874H13.6676V33.61C13.6676 33.6002 13.6656 33.5904 13.6618 33.5814C13.6579 33.5723 13.6523 33.564 13.6451 33.5571C13.638 33.5501 13.6295 33.5446 13.6202 33.5409C13.6109 33.5371 13.6009 33.5352 13.5908 33.5352H11.748C11.7379 33.5352 11.7279 33.5371 11.7186 33.5409C11.7093 33.5446 11.7008 33.5501 11.6937 33.5571C11.6866 33.564 11.6809 33.5723 11.6771 33.5814C11.6732 33.5904 11.6712 33.6002 11.6712 33.61V33.9874H10.5195V33.61C10.5195 33.6002 10.5175 33.5904 10.5136 33.5814C10.5097 33.5723 10.5041 33.564 10.497 33.5571C10.4898 33.5501 10.4814 33.5446 10.472 33.5409C10.4627 33.5371 10.4527 33.5352 10.4427 33.5352H8.59984C8.58976 33.5352 8.57977 33.5371 8.57046 33.5409C8.56114 33.5446 8.55268 33.5501 8.54555 33.5571C8.53842 33.564 8.53276 33.5723 8.5289 33.5814C8.52504 33.5904 8.52306 33.6002 8.52306 33.61V33.9874H7.37129V33.61C7.37129 33.6002 7.36931 33.5904 7.36545 33.5814C7.36159 33.5723 7.35593 33.564 7.3488 33.5571C7.34167 33.5501 7.33321 33.5446 7.32389 33.5409C7.31458 33.5371 7.30459 33.5352 7.29451 33.5352H5.45169C5.4416 33.5352 5.43162 33.5371 5.4223 33.5409C5.41298 33.5446 5.40452 33.5501 5.39739 33.5571C5.39026 33.564 5.3846 33.5723 5.38075 33.5814C5.37689 33.5904 5.3749 33.6002 5.3749 33.61V33.9874H1.84282C1.35408 33.9874 0.885347 34.1767 0.539751 34.5135C0.194155 34.8503 4.6563e-07 35.3071 0 35.7835V36.5956C1.39689e-06 37.072 0.194156 37.5288 0.539752 37.8656C0.885349 38.2025 1.35408 38.3917 1.84282 38.3917H63.1167C63.6054 38.3917 64.0742 38.2025 64.4198 37.8656C64.7654 37.5288 64.9595 37.072 64.9595 36.5956V35.7835C64.9595 35.3071 64.7654 34.8503 64.4198 34.5135C64.0742 34.1767 63.6054 33.9874 63.1167 33.9874Z" fill="#3F3D56"/>
<path d="M14.3237 30.3326C13.0041 30.3326 11.7143 29.9513 10.6172 29.2368C9.52003 28.5223 8.66492 27.5068 8.15997 26.3187C7.65502 25.1305 7.5229 23.8232 7.78032 22.5618C8.03775 21.3005 8.67315 20.1419 9.60617 19.2326C10.5392 18.3232 11.728 17.704 13.0221 17.4531C14.3162 17.2022 15.6577 17.3309 16.8767 17.8231C18.0958 18.3152 19.1377 19.1486 19.8708 20.2179C20.6039 21.2872 20.9952 22.5443 20.9952 23.8304C20.9932 25.5543 20.2896 27.207 19.0389 28.426C17.7882 29.645 16.0924 30.3307 14.3237 30.3326ZM14.3237 17.4992C13.0389 17.4992 11.7829 17.8706 10.7147 18.5662C9.64644 19.2619 8.81384 20.2507 8.32217 21.4076C7.83051 22.5644 7.70187 23.8374 7.95252 25.0655C8.20316 26.2936 8.82184 27.4217 9.73032 28.3072C10.6388 29.1926 11.7963 29.7956 13.0564 30.0399C14.3164 30.2841 15.6226 30.1588 16.8095 29.6796C17.9965 29.2004 19.0111 28.3889 19.7248 27.3478C20.4386 26.3066 20.8196 25.0826 20.8196 23.8304C20.8177 22.1518 20.1326 20.5426 18.9148 19.3557C17.697 18.1688 16.0459 17.5011 14.3237 17.4992V17.4992Z" fill="#3F3D56"/>
<path d="M73.8407 2.78516H51.456V2.95797H73.8407V2.78516Z" fill="#3F3D56"/>
<path d="M100 47.957H35.655V48.1298H100V47.957Z" fill="#3F3D56"/>
<path d="M39.298 55.8281H16.9134V56.0009H39.298V55.8281Z" fill="#3F3D56"/>
<path d="M43.8038 47.0547H41.3459V49.4512H43.8038V47.0547Z" fill="#F1563C"/>
<path d="M45.2961 48.0808H42.3115V45.1719H45.2961V48.0808ZM42.4412 47.9543H45.1663V45.2984H42.4412V47.9543Z" fill="#3F3D56"/>
<path d="M72.3333 1.88281H69.8753V4.27928H72.3333V1.88281Z" fill="#F1563C"/>
<path d="M73.8256 2.9089H70.841V0H73.8256V2.9089ZM70.9707 2.78243H73.6958V0.126474H70.9707V2.78243Z" fill="#3F3D56"/>
<path d="M97.0881 47.0547H94.6302V49.4512H97.0881V47.0547Z" fill="#F1563C"/>
<path d="M98.5805 48.0808H95.5958V45.1719H98.5805V48.0808ZM95.7256 47.9543H98.4507V45.2984H95.7256V47.9543Z" fill="#3F3D56"/>
<path d="M92.8018 19.8446H92.593V14.2696C92.593 13.8459 92.5074 13.4263 92.341 13.0348C92.1746 12.6433 91.9308 12.2876 91.6233 11.988C91.3159 11.6884 90.951 11.4507 90.5493 11.2886C90.1476 11.1264 89.7171 11.043 89.2824 11.043H77.1636C76.7289 11.043 76.2984 11.1264 75.8967 11.2886C75.495 11.4507 75.1301 11.6884 74.8227 11.988C74.5152 12.2876 74.2714 12.6433 74.105 13.0348C73.9386 13.4263 73.853 13.8459 73.853 14.2696V44.8542C73.853 45.278 73.9386 45.6975 74.105 46.089C74.2714 46.4805 74.5152 46.8362 74.8227 47.1358C75.1301 47.4354 75.495 47.6731 75.8967 47.8352C76.2984 47.9974 76.7289 48.0809 77.1636 48.0809H89.2824C89.7171 48.0809 90.1476 47.9974 90.5493 47.8352C90.951 47.6731 91.3159 47.4354 91.6234 47.1358C91.9308 46.8362 92.1746 46.4805 92.341 46.089C92.5074 45.6975 92.593 45.278 92.593 44.8542V23.8129H92.8018V19.8446Z" fill="#3F3D56"/>
<path d="M91.888 14.46V45C91.8881 45.6391 91.6277 46.2521 91.1641 46.7041C90.7005 47.156 90.0717 47.41 89.416 47.4101H77.2387C76.583 47.41 75.9542 47.156 75.4906 46.7041C75.027 46.2521 74.7666 45.6391 74.7667 45V14.46C74.7668 13.8211 75.0273 13.2083 75.4908 12.7565C75.9544 12.3047 76.5831 12.0508 77.2387 12.0508H78.7161C78.6434 12.2246 78.6156 12.4132 78.6353 12.5999C78.655 12.7866 78.7215 12.9658 78.829 13.1215C78.9364 13.2773 79.0815 13.4049 79.2515 13.4932C79.4215 13.5814 79.6111 13.6276 79.8037 13.6276H86.7465C86.9391 13.6276 87.1287 13.5814 87.2987 13.4932C87.4687 13.4049 87.6138 13.2773 87.7213 13.1215C87.8287 12.9658 87.8952 12.7866 87.9149 12.5999C87.9346 12.4132 87.9068 12.2246 87.8341 12.0508H89.416C90.0716 12.0508 90.7003 12.3047 91.1639 12.7565C91.6274 13.2083 91.8879 13.8211 91.888 14.46V14.46Z" fill="white"/>
<path d="M85.1411 32.1875H81.5136V33.2356H85.1411V32.1875Z" fill="#F1563C"/>
<path d="M89.5267 24.0312H77.1282V24.4818H89.5267V24.0312Z" fill="#3F3D56"/>
<path d="M89.5267 25.4531H77.1282V25.9037H89.5267V25.4531Z" fill="#3F3D56"/>
<path d="M89.5267 26.875H77.1282V27.3255H89.5267V26.875Z" fill="#3F3D56"/>
<path d="M89.5267 28.2969H77.1282V28.7474H89.5267V28.2969Z" fill="#3F3D56"/>
<path d="M89.5267 29.7188H77.1282V30.1693H89.5267V29.7188Z" fill="#3F3D56"/>
<path d="M83.7605 18.0664H81.6105V20.1626H83.7605V18.0664Z" fill="#F2F2F2"/>
<path d="M82.4336 18.5938V21.1391H85.0443V18.5938H82.4336ZM84.931 21.0287H82.5468V18.7042H84.931V21.0287Z" fill="#3F3D56"/>
<path opacity="0.1" d="M91.888 41.738V44.9994C91.8881 45.6385 91.6277 46.2514 91.1641 46.7034C90.7005 47.1554 90.0717 47.4094 89.416 47.4095H77.2387C76.583 47.4094 75.9542 47.1554 75.4906 46.7034C75.027 46.2514 74.7666 45.6385 74.7667 44.9994V28.5547L85.0259 36.4541L85.2015 36.5892L87.1099 38.0582L87.2881 38.196L91.888 41.738Z" fill="black"/>
<path d="M82.274 46.4204C84.4008 46.4204 86.1249 44.74 86.1249 42.6672C86.1249 40.5944 84.4008 38.9141 82.274 38.9141C80.1472 38.9141 78.4232 40.5944 78.4232 42.6672C78.4232 44.74 80.1472 46.4204 82.274 46.4204Z" fill="#F2F2F2"/>
<path d="M28.1056 56C26.5951 56 25.1186 55.5634 23.8627 54.7456C22.6067 53.9277 21.6279 52.7652 21.0498 51.4051C20.4718 50.045 20.3206 48.5484 20.6152 47.1045C20.9099 45.6606 21.6373 44.3344 22.7054 43.2934C23.7734 42.2524 25.1342 41.5435 26.6157 41.2563C28.0972 40.9691 29.6327 41.1165 31.0282 41.6799C32.4237 42.2432 33.6165 43.1973 34.4557 44.4213C35.2949 45.6454 35.7428 47.0845 35.7428 48.5566C35.7405 50.53 34.9351 52.422 33.5034 53.8174C32.0716 55.2128 30.1304 55.9978 28.1056 56ZM28.1056 41.2844C26.6299 41.2844 25.1873 41.7109 23.9602 42.51C22.7332 43.3091 21.7768 44.4448 21.212 45.7737C20.6473 47.1025 20.4995 48.5647 20.7874 49.9754C21.0753 51.3861 21.786 52.6818 22.8295 53.6989C23.873 54.7159 25.2025 55.4085 26.65 55.6891C28.0974 55.9697 29.5976 55.8257 30.961 55.2753C32.3245 54.7249 33.4898 53.7928 34.3097 52.5969C35.1296 51.401 35.5672 49.9949 35.5672 48.5566C35.565 46.6286 34.7781 44.7801 33.3793 43.4168C31.9805 42.0535 30.0839 41.2866 28.1056 41.2844V41.2844Z" fill="#3F3D56"/>
<path d="M83.409 45.5635C82.4541 45.5635 81.5207 45.2875 80.7267 44.7705C79.9327 44.2534 79.3139 43.5185 78.9485 42.6587C78.5831 41.7988 78.4875 40.8527 78.6738 39.9399C78.86 39.0271 79.3199 38.1887 79.9951 37.5306C80.6703 36.8725 81.5306 36.4243 82.4671 36.2428C83.4037 36.0612 84.3745 36.1544 85.2567 36.5105C86.1389 36.8667 86.8929 37.4698 87.4234 38.2436C87.954 39.0175 88.2371 39.9272 88.2371 40.8579C88.2357 42.1055 87.7265 43.3015 86.8214 44.1837C85.9163 45.0659 84.6891 45.5621 83.409 45.5635V45.5635ZM83.409 36.3235C82.4889 36.3235 81.5894 36.5894 80.8243 37.0877C80.0592 37.5859 79.4628 38.2941 79.1107 39.1227C78.7586 39.9512 78.6664 40.863 78.8459 41.7426C79.0255 42.6222 79.4686 43.4301 80.1192 44.0643C80.7699 44.6984 81.5989 45.1303 82.5014 45.3053C83.4039 45.4802 84.3393 45.3904 85.1895 45.0472C86.0396 44.704 86.7662 44.1228 87.2775 43.3771C87.7887 42.6314 88.0615 41.7548 88.0615 40.8579C88.0602 39.6557 87.5695 38.5031 86.6973 37.6531C85.8251 36.803 84.6425 36.3248 83.409 36.3235Z" fill="#3F3D56"/>
</g>
<defs>
<clipPath id="clip0">
<rect width="100" height="56" fill="white"/>
</clipPath>
</defs>
</svg>
