<svg width="120" height="82" viewBox="0 0 120 82" fill="none" xmlns="http://www.w3.org/2000/svg">
<path d="M13.3459 21.6942C14.728 21.6942 15.8484 20.5743 15.8484 19.1928C15.8484 17.8113 14.728 16.6914 13.3459 16.6914C11.9638 16.6914 10.8434 17.8113 10.8434 19.1928C10.8434 20.5743 11.9638 21.6942 13.3459 21.6942Z" fill="#CCCCCC"/>
<path d="M13.3459 31.1434C14.728 31.1434 15.8484 30.0235 15.8484 28.642C15.8484 27.2605 14.728 26.1406 13.3459 26.1406C11.9638 26.1406 10.8434 27.2605 10.8434 28.642C10.8434 30.0235 11.9638 31.1434 13.3459 31.1434Z" fill="#CCCCCC"/>
<path d="M13.3459 40.5927C14.728 40.5927 15.8484 39.4727 15.8484 38.0913C15.8484 36.7098 14.728 35.5898 13.3459 35.5898C11.9638 35.5898 10.8434 36.7098 10.8434 38.0913C10.8434 39.4727 11.9638 40.5927 13.3459 40.5927Z" fill="#CCCCCC"/>
<path d="M13.3459 50.0419C14.728 50.0419 15.8484 48.922 15.8484 47.5405C15.8484 46.159 14.728 45.0391 13.3459 45.0391C11.9638 45.0391 10.8434 46.159 10.8434 47.5405C10.8434 48.922 11.9638 50.0419 13.3459 50.0419Z" fill="#CCCCCC"/>
<path d="M55.4682 68.9403C56.8503 68.9403 57.9707 67.8204 57.9707 66.4389C57.9707 65.0574 56.8503 63.9375 55.4682 63.9375C54.0861 63.9375 52.9657 65.0574 52.9657 66.4389C52.9657 67.8204 54.0861 68.9403 55.4682 68.9403Z" fill="#CCCCCC"/>
<path d="M37.3959 68.9403C38.778 68.9403 39.8984 67.8204 39.8984 66.4389C39.8984 65.0574 38.778 63.9375 37.3959 63.9375C36.0138 63.9375 34.8934 65.0574 34.8934 66.4389C34.8934 67.8204 36.0138 68.9403 37.3959 68.9403Z" fill="#CCCCCC"/>
<path d="M92.7249 68.9403C94.107 68.9403 95.2274 67.8204 95.2274 66.4389C95.2274 65.0574 94.107 63.9375 92.7249 63.9375C91.3429 63.9375 90.2224 65.0574 90.2224 66.4389C90.2224 67.8204 91.3429 68.9403 92.7249 68.9403Z" fill="#CCCCCC"/>
<path d="M73.8185 68.9403C75.2006 68.9403 76.321 67.8204 76.321 66.4389C76.321 65.0574 75.2006 63.9375 73.8185 63.9375C72.4364 63.9375 71.316 65.0574 71.316 66.4389C71.316 67.8204 72.4364 68.9403 73.8185 68.9403Z" fill="#CCCCCC"/>
<path d="M108.156 19.4699H25.8573C25.7835 19.4699 25.7128 19.4406 25.6607 19.3885C25.6085 19.3364 25.5792 19.2657 25.5792 19.192C25.5792 19.1183 25.6085 19.0476 25.6607 18.9955C25.7128 18.9433 25.7835 18.9141 25.8573 18.9141H108.156C108.229 18.9141 108.3 18.9433 108.352 18.9955C108.404 19.0476 108.434 19.1183 108.434 19.192C108.434 19.2657 108.404 19.3364 108.352 19.3885C108.3 19.4406 108.229 19.4699 108.156 19.4699Z" fill="#CCCCCC"/>
<path d="M108.156 28.9191H25.8573C25.7835 28.9191 25.7128 28.8898 25.6607 28.8377C25.6085 28.7856 25.5792 28.7149 25.5792 28.6412C25.5792 28.5675 25.6085 28.4968 25.6607 28.4447C25.7128 28.3926 25.7835 28.3633 25.8573 28.3633H108.156C108.229 28.3633 108.3 28.3926 108.352 28.4447C108.404 28.4968 108.434 28.5675 108.434 28.6412C108.434 28.7149 108.404 28.7856 108.352 28.8377C108.3 28.8898 108.229 28.9191 108.156 28.9191Z" fill="#CCCCCC"/>
<path d="M108.156 38.3683H25.8573C25.7835 38.3683 25.7128 38.339 25.6607 38.2869C25.6085 38.2348 25.5792 38.1641 25.5792 38.0904C25.5792 38.0167 25.6085 37.946 25.6607 37.8939C25.7128 37.8418 25.7835 37.8125 25.8573 37.8125H108.156C108.229 37.8125 108.3 37.8418 108.352 37.8939C108.404 37.946 108.434 38.0167 108.434 38.0904C108.434 38.1641 108.404 38.2348 108.352 38.2869C108.3 38.339 108.229 38.3683 108.156 38.3683Z" fill="#CCCCCC"/>
<path d="M108.156 47.8175H25.8573C25.7835 47.8175 25.7128 47.7883 25.6607 47.7361C25.6085 47.684 25.5792 47.6133 25.5792 47.5396C25.5792 47.4659 25.6085 47.3952 25.6607 47.3431C25.7128 47.291 25.7835 47.2617 25.8573 47.2617H108.156C108.229 47.2617 108.3 47.291 108.352 47.3431C108.404 47.3952 108.434 47.4659 108.434 47.5396C108.434 47.6133 108.404 47.684 108.352 47.7361C108.3 47.7883 108.229 47.8175 108.156 47.8175Z" fill="#CCCCCC"/>
<path d="M41.428 57.268H33.3643C32.9957 57.2675 32.6424 57.121 32.3817 56.8605C32.1211 56.5999 31.9745 56.2467 31.9741 55.8783V48.374C31.9745 48.0056 32.1211 47.6524 32.3817 47.3919C32.6424 47.1313 32.9957 46.9848 33.3643 46.9844H41.428C41.7966 46.9848 42.1499 47.1313 42.4106 47.3919C42.6712 47.6524 42.8178 48.0056 42.8182 48.374V55.8783C42.8178 56.2467 42.6712 56.5999 42.4106 56.8605C42.1499 57.121 41.7966 57.2675 41.428 57.268Z" fill="#F1563C"/>
<path d="M59.4995 57.267H51.4365C51.0679 57.2666 50.7146 57.1201 50.454 56.8596C50.1934 56.5991 50.0468 56.2459 50.0463 55.8775V38.9247C50.0468 38.5563 50.1934 38.2031 50.454 37.9426C50.7146 37.6821 51.0679 37.5356 51.4365 37.5352H59.4995C59.8681 37.5356 60.2215 37.6821 60.4821 37.9426C60.7427 38.2031 60.8893 38.5563 60.8897 38.9247V55.8775C60.8893 56.2459 60.7427 56.5991 60.4821 56.8596C60.2215 57.1201 59.8681 57.2666 59.4995 57.267Z" fill="#F1563C"/>
<path d="M77.8499 57.2669H69.7868C69.4183 57.2665 69.0649 57.1199 68.8043 56.8594C68.5437 56.5989 68.3971 56.2457 68.3967 55.8773V29.4755C68.3971 29.1071 68.5437 28.7539 68.8043 28.4934C69.0649 28.2329 69.4183 28.0864 69.7868 28.0859H77.8499C78.2184 28.0864 78.5718 28.2329 78.8324 28.4934C79.093 28.7539 79.2396 29.1071 79.24 29.4755V55.8773C79.2396 56.2457 79.093 56.5989 78.8324 56.8594C78.5718 57.1199 78.2184 57.2665 77.8499 57.2669Z" fill="#F1563C"/>
<path d="M96.7563 57.2662H88.6932C88.3247 57.2658 87.9713 57.1192 87.7107 56.8587C87.4501 56.5982 87.3035 56.245 87.3031 55.8766V20.3036C87.3035 19.9352 87.4501 19.582 87.7107 19.3215C87.9713 19.061 88.3247 18.9145 88.6932 18.9141H96.7563C97.1248 18.9145 97.4782 19.061 97.7388 19.3215C97.9994 19.582 98.146 19.9352 98.1464 20.3036V55.8766C98.146 56.245 97.9994 56.5982 97.7388 56.8587C97.4782 57.1192 97.1248 57.2658 96.7563 57.2662Z" fill="#F1563C"/>
<path d="M108.156 57.2668H25.8573C25.7835 57.2668 25.7128 57.2375 25.6607 57.1854C25.6085 57.1332 25.5792 57.0626 25.5792 56.9889C25.5792 56.9151 25.6085 56.8445 25.6607 56.7923C25.7128 56.7402 25.7835 56.7109 25.8573 56.7109H108.156C108.229 56.7109 108.3 56.7402 108.352 56.7923C108.404 56.8445 108.434 56.9151 108.434 56.9889C108.434 57.0626 108.404 57.1332 108.352 57.1854C108.3 57.2375 108.229 57.2668 108.156 57.2668Z" fill="#3F3D56"/>
</svg>
