<svg width="166" height="113" viewBox="0 0 166 113" fill="none" xmlns="http://www.w3.org/2000/svg">
<path d="M91.3336 83.4778C90.6404 82.3531 89.702 81.5302 88.5223 81.2222C87.4936 80.9537 86.4357 80.9994 85.39 81.0088L72.1674 81.1269C71.035 81.137 69.9492 82.2737 70.0018 83.636C70.054 84.9867 70.9536 86.1559 72.1674 86.1451C76.0407 86.1105 79.914 86.0759 83.7873 86.0413C84.7005 86.0331 85.6141 86.014 86.5273 86.0175C86.7324 86.0183 86.9366 86.0308 87.1415 86.0335C87.1911 86.0341 87.227 86.0336 87.2523 86.0324C87.2586 86.0346 87.264 86.0367 87.2722 86.0393C87.3791 86.0733 87.4887 86.0967 87.5962 86.129C87.5586 86.1303 87.666 86.208 87.7199 86.2342C87.7273 86.2512 87.7431 86.2812 87.7695 86.3276C87.8063 86.4076 87.9153 86.6504 87.9197 86.6428C88.0835 87.1224 88.2186 87.6146 88.324 88.1157C88.5757 89.2209 88.631 89.4519 88.6672 90.4887C88.713 91.7984 89.6305 93.0602 90.8328 92.9978C91.9669 92.9389 93.0475 91.8934 92.9984 90.4887C92.9157 88.1217 92.5571 85.4627 91.3336 83.4778Z" fill="#E6E6E6"/>
<path d="M68.9472 88.7776C68.6525 87.0812 68.3634 85.3837 68.0629 83.6883C67.758 81.9684 67.1353 80.3934 65.726 79.2646C65.3494 78.963 64.959 78.6814 64.5669 78.4007C64.429 78.302 64.2914 78.2032 64.1551 78.1023C64.147 78.0963 64.1418 78.0925 64.1347 78.0873C64.1197 78.0751 64.1018 78.0605 64.0776 78.0411C63.4902 77.569 62.9227 77.0759 62.382 76.5517C61.9019 76.0862 61.4428 75.6008 61.0046 75.0955C60.8951 74.9693 60.7871 74.842 60.6804 74.7136C60.662 74.6915 60.5632 74.5702 60.4981 74.491C60.4375 74.4118 60.3269 74.2688 60.3083 74.2438C60.1837 74.0764 60.0613 73.9075 59.9411 73.737C59.1225 72.5722 58.4136 71.3411 57.8228 70.058C57.7642 69.9308 57.707 69.8028 57.6512 69.674C57.6362 69.6347 57.6168 69.5843 57.5911 69.5171C57.472 69.2061 57.3532 68.8955 57.2443 68.5809C57.013 67.9126 56.8142 67.2344 56.6478 66.5464C56.5655 66.2066 56.4914 65.8651 56.4256 65.522C56.3916 65.3455 56.3598 65.1686 56.3303 64.9914C56.3254 64.962 56.2965 64.7708 56.2795 64.6627C56.267 64.5542 56.2436 64.362 56.2404 64.3323C56.2216 64.1536 56.2049 63.9748 56.1903 63.7958C56.1575 63.3931 56.1352 62.9896 56.1237 62.5855C56.1039 61.8674 56.1174 61.1492 56.1643 60.4312C56.191 60.0277 56.2289 59.6253 56.2757 59.2236C56.2785 59.1989 56.2807 59.1793 56.2827 59.1616C56.2856 59.1437 56.2889 59.1233 56.2928 59.098C56.3274 58.876 56.3638 58.6543 56.4045 58.4334C56.5586 57.5944 56.7591 56.7636 57.0051 55.9446C57.1216 55.5573 57.2481 55.1731 57.3847 54.792C57.4455 54.6228 57.5083 54.4543 57.5731 54.2865C57.5688 54.2973 57.763 53.8264 57.7655 53.8106C58.5358 52.0822 59.7956 50.5066 59.7973 48.5433C59.7985 47.2141 58.6144 45.9407 57.2272 46.0021C56.5355 46.0269 55.881 46.3056 55.4016 46.7797C54.9221 47.2537 54.6552 47.886 54.657 48.5433C54.657 48.5732 54.6569 48.5986 54.6568 48.6234C54.6438 48.6648 54.633 48.6993 54.6233 48.7298C54.4731 49.0398 54.2891 49.3344 54.1242 49.6367C53.6727 50.4641 53.2874 51.3186 52.9213 52.1857C52.3221 53.5976 51.8634 55.0598 51.5512 56.5531C50.8728 59.8249 50.8201 63.1859 51.3958 66.4754C52.3923 72.244 55.6786 77.766 60.2472 81.4777C60.6437 81.7998 61.0498 82.1111 61.4598 82.4161C61.6295 82.5423 61.8005 82.6661 61.9725 82.7892C62.0537 82.8474 62.3904 83.0995 62.2423 82.9774C62.5607 83.2355 62.6948 83.3653 62.7766 83.5555C62.7884 83.5993 62.8046 83.6588 62.8264 83.7402C62.8841 83.9546 62.9388 84.1685 62.9843 84.3859C63.382 86.2854 63.6584 88.2168 63.9906 90.1287C64.2189 91.4423 65.9217 92.2972 67.1522 91.9035C68.5844 91.4453 69.1919 90.1851 68.9472 88.7776Z" fill="#E6E6E6"/>
<path d="M91.0519 94.9258C89.9723 94.9286 88.9357 94.5052 88.1694 93.7485C87.4032 92.9917 86.9699 91.9634 86.9646 90.8892V87.9713C83.8945 88.3133 73.3815 88.2341 70.3679 87.7523V90.7724C70.3598 91.8458 69.9256 92.8725 69.16 93.6287C68.3944 94.3848 67.3593 94.8092 66.2806 94.8092C65.2018 94.8092 64.1668 94.3848 63.4012 93.6287C62.6355 92.8725 62.2013 91.8458 62.1932 90.7724V84.8426C58.1117 82.5864 54.7091 79.2872 52.3367 75.2857C49.9643 71.2841 48.7079 66.7251 48.6974 62.0791C48.6974 54.1128 52.3257 46.6814 58.652 41.6904C62.7653 38.4343 67.7629 36.4761 73.003 36.0673C73.7142 36.0118 74.4298 35.9837 75.13 35.9837C77.5966 35.9837 88.7252 36.3628 91.5174 37.1622L97.8843 30.8758C97.9779 30.7821 98.0974 30.7183 98.2276 30.6925C98.3578 30.6667 98.4927 30.68 98.6153 30.7309C98.7388 30.7797 98.8445 30.8646 98.9186 30.9744C98.9927 31.0841 99.0317 31.2136 99.0305 31.3458V32.3453L100.27 31.1236C100.364 31.0298 100.483 30.9659 100.613 30.94C100.743 30.9142 100.878 30.9275 101.001 30.9784C101.124 31.0272 101.23 31.1121 101.304 31.2219C101.378 31.3317 101.418 31.4613 101.416 31.5936V42.7628C104.611 45.6287 107.046 49.2345 108.506 53.2607C109.965 57.2869 110.404 61.6091 109.783 65.8444C109.162 70.0796 107.501 74.0971 104.946 77.5408C102.392 80.9844 99.0235 83.7479 95.1392 85.5864V90.8892C95.1339 91.9634 94.7006 92.9917 93.9344 93.7485C93.1681 94.5052 92.1315 94.9286 91.0519 94.9258ZM87.2859 87.6087V90.8892C87.294 91.8777 87.6944 92.823 88.3997 93.5192C89.1051 94.2154 90.0584 94.606 91.0519 94.606C92.0454 94.606 92.9987 94.2154 93.704 93.5192C94.4094 92.823 94.8097 91.8777 94.8179 90.8892V85.3844L94.9096 85.3411C99.2681 83.2832 102.968 80.0635 105.599 76.0397C108.951 70.9049 110.345 64.7456 109.529 58.6767C108.713 52.6077 105.74 47.03 101.148 42.9531L101.095 42.9054V31.5936C101.096 31.5249 101.076 31.4574 101.038 31.4004C100.999 31.3433 100.944 31.2994 100.88 31.2745C100.815 31.2473 100.745 31.24 100.676 31.2535C100.608 31.267 100.546 31.3007 100.497 31.3502L98.7092 33.112V31.3458C98.7103 31.2771 98.6903 31.2097 98.6517 31.1526C98.6132 31.0956 98.558 31.0517 98.4936 31.0268C98.4294 30.9996 98.3585 30.9923 98.2901 31.0059C98.2218 31.0195 98.1591 31.0533 98.1104 31.103L91.6073 37.5239L91.5148 37.4951C88.9191 36.6867 77.6153 36.3034 75.13 36.3034C74.4382 36.3034 73.731 36.3312 73.0282 36.3861C67.8518 36.7899 62.9149 38.7243 58.8516 41.9409C52.6027 46.8709 49.0187 54.211 49.0187 62.0791C49.0294 66.684 50.279 71.202 52.6377 75.1639C54.9964 79.1258 58.3781 82.3869 62.4317 84.6087L62.5146 84.6543V90.7725C62.5228 91.7609 62.9233 92.7061 63.6286 93.4021C64.334 94.0982 65.2872 94.4887 66.2806 94.4887C67.274 94.4887 68.2272 94.0982 68.9325 93.4021C69.6379 92.7061 70.0383 91.7609 70.0466 90.7725V87.3695L70.237 87.4051C72.9451 87.9121 84.3484 87.9921 87.1043 87.6324L87.2859 87.6087Z" fill="#3F3D56"/>
<path d="M80.8388 12C77.9162 12.0011 75.1086 13.1338 73.0104 15.1583C70.9123 17.1829 69.6881 19.9403 69.5971 22.8471C69.5939 22.9606 69.5923 23.0757 69.5923 23.1908C69.5923 25.4042 70.2519 27.5678 71.4877 29.4081C72.7234 31.2485 74.4799 32.6828 76.535 33.5298C78.59 34.3768 80.8513 34.5985 83.0329 34.1667C85.2145 33.7349 87.2185 32.669 88.7913 31.104C90.3642 29.5389 91.4353 27.5449 91.8693 25.3741C92.3032 23.2033 92.0805 20.9532 91.2293 18.9083C90.378 16.8634 88.9366 15.1157 87.0871 13.886C85.2376 12.6563 83.0632 12 80.8388 12ZM80.8388 34.062C77.9422 34.059 75.1651 32.9126 73.1169 30.8746C71.0686 28.8365 69.9166 26.0731 69.9136 23.1908C69.9136 23.0422 69.9168 22.8951 69.9233 22.7496C70.0103 20.6201 70.7244 18.5631 71.9769 16.8342C73.2294 15.1053 74.965 13.781 76.9679 13.0258C78.9708 12.2705 81.1526 12.1178 83.242 12.5866C85.3314 13.0553 87.2362 14.1249 88.7196 15.6622C90.2031 17.1995 91.1996 19.1369 91.5854 21.2333C91.9711 23.3297 91.7291 25.4926 90.8893 27.4533C90.0496 29.4139 88.6492 31.0856 86.8622 32.2606C85.0753 33.4356 82.9807 34.062 80.8388 34.062Z" fill="#3F3D56"/>
<path d="M90.3181 23.1901C90.3181 25.6917 89.3194 28.0908 87.5417 29.8597C85.764 31.6286 83.3529 32.6223 80.8388 32.6223C78.3248 32.6223 75.9137 31.6286 74.136 29.8597C72.3583 28.0908 71.3596 25.6917 71.3596 23.1901C71.3596 22.8911 71.3741 22.5969 71.4014 22.306C71.6298 19.8917 72.7839 17.6577 74.6241 16.0678C76.4643 14.478 78.8492 13.6544 81.2836 13.7682C83.7179 13.882 86.0147 14.9243 87.6971 16.6788C89.3794 18.4333 90.3181 20.7651 90.3181 23.1901Z" fill="#E6E6E6"/>
<path d="M83.6617 23.8183C83.4319 23.5177 83.1297 23.2797 82.7829 23.1261C82.3552 22.9467 81.9135 22.8024 81.4622 22.6945V20.127C82.1559 20.231 82.8065 20.5262 83.3404 20.9791L83.8642 19.868C83.5629 19.6009 83.2171 19.3883 82.8423 19.2397C82.4269 19.0723 81.9908 18.961 81.5457 18.9088V17.6074H80.3328V18.9215C79.8644 18.9739 79.4125 19.1249 79.0073 19.3644C78.6412 19.58 78.333 19.8806 78.1091 20.2405C77.8954 20.5917 77.7847 20.9954 77.7894 21.4059C77.7686 21.8508 77.8981 22.2898 78.1573 22.6529C78.396 22.9672 78.7111 23.2159 79.0731 23.3755C79.5076 23.5602 79.9569 23.7083 80.4163 23.8183V26.2787C79.5977 26.2173 78.8177 25.9076 78.1814 25.3915L77.6577 26.5041C78.0135 26.7968 78.418 27.0252 78.853 27.1788C79.3297 27.3485 79.8277 27.4518 80.3328 27.4857V28.7759H81.5458V27.4618C82.2195 27.3885 82.8513 27.1002 83.3468 26.64C83.565 26.4318 83.7373 26.1808 83.853 25.9028C83.9686 25.6249 84.0249 25.3261 84.0184 25.0254C84.0385 24.5946 83.9129 24.1696 83.6617 23.8183ZM80.4163 22.4227C80.1208 22.3335 79.8461 22.1868 79.6081 21.991C79.5138 21.9076 79.4393 21.8044 79.3899 21.6888C79.3404 21.5733 79.3173 21.4483 79.3222 21.3228C79.3134 21.038 79.4186 20.7615 79.6146 20.5538C79.8319 20.3359 80.1122 20.1912 80.4163 20.1398V22.4227ZM82.2238 25.8247C82.0188 26.0339 81.7519 26.1722 81.4622 26.2196V24.1029C81.7391 24.1768 81.9982 24.3057 82.2238 24.4818C82.3093 24.5545 82.3773 24.6454 82.4226 24.7478C82.4679 24.8502 82.4895 24.9615 82.4857 25.0733C82.4968 25.3477 82.4033 25.6161 82.2238 25.8247Z" fill="#F1563C"/>
<path d="M49.8061 54.0863C47.5644 53.7567 45.4205 52.9501 43.5205 51.7214C42.5792 51.1132 41.7078 50.404 40.9219 49.6066C40.1463 48.8194 39.4042 47.9246 39.02 46.8762C38.6504 45.9062 38.6694 44.832 39.0732 43.8756C39.4716 42.925 40.2324 42.1704 41.189 41.7772C42.1513 41.3953 43.314 41.3545 44.2505 41.7727C44.6968 41.9673 45.083 42.2767 45.3695 42.6689C45.5026 42.8497 45.6012 43.0534 45.6603 43.2697C45.7152 43.4657 45.7202 43.6723 45.6748 43.8707C45.6199 44.0688 45.5231 44.2529 45.3908 44.4107C45.2585 44.5685 45.0938 44.6963 44.9078 44.7856C44.4985 44.9946 44.055 45.1292 43.5981 45.1831C43.1386 45.2454 42.4785 45.3022 42.109 44.9351C42.033 44.8625 41.9732 44.7748 41.9335 44.6776C41.9057 44.6032 41.8962 44.5233 41.9058 44.4445C41.9004 44.4792 41.9281 44.369 41.9265 44.3734C41.9207 44.3897 41.8954 44.4294 41.9313 44.3684C41.9426 44.3483 41.9551 44.3289 41.9688 44.3103C41.9566 44.3261 41.9298 44.3523 41.9776 44.3073C42.0172 44.2642 42.0681 44.2329 42.1245 44.2171C42.1468 44.2106 42.1693 44.2055 42.1916 44.1994C42.2483 44.184 42.1351 44.2003 42.1931 44.1984C42.2155 44.1977 42.2381 44.1982 42.2604 44.1972C42.3173 44.1947 42.2043 44.1818 42.2588 44.1954C42.28 44.2007 42.301 44.2059 42.3218 44.2124C42.3671 44.2267 42.2897 44.1794 42.3204 44.2148C42.3564 44.2562 42.2827 44.1744 42.3236 44.2146C42.3439 44.2345 42.3631 44.2555 42.381 44.2776C42.452 44.3473 42.5476 44.3864 42.6473 44.3864C42.747 44.3864 42.8427 44.3473 42.9136 44.2776C42.9822 44.2062 43.0204 44.1113 43.0204 44.0126C43.0204 43.9139 42.9822 43.819 42.9136 43.7476C42.5423 43.2896 41.8087 43.4027 41.4331 43.7899C40.954 44.2837 41.1437 45.0662 41.6097 45.497C42.1373 45.9847 42.8845 46.0186 43.5631 45.9368C44.1367 45.8821 44.6956 45.725 45.213 45.4729C45.7272 45.2215 46.1293 44.7892 46.3415 44.2598C46.4374 43.9772 46.4718 43.6776 46.4425 43.3808C46.4133 43.084 46.321 42.7968 46.1718 42.5381C45.5726 41.4173 44.332 40.8426 43.1056 40.7431C42.4742 40.6939 41.8393 40.7697 41.2376 40.9663C40.6359 41.1628 40.0793 41.4762 39.6001 41.8882C38.6764 42.7156 38.1077 43.8646 38.0114 45.0976C37.9044 46.3759 38.4028 47.6173 39.1295 48.6489C39.8903 49.6971 40.7982 50.6314 41.8254 51.4232C43.8336 53.0185 46.1892 54.124 48.7038 54.6511C49.0029 54.7126 49.3036 54.7652 49.6059 54.809C49.7021 54.8322 49.8035 54.818 49.8896 54.7694C49.9757 54.7207 50.0399 54.6413 50.0691 54.5472C50.095 54.4514 50.0818 54.3493 50.0326 54.2631C49.9834 54.1768 49.902 54.1133 49.8061 54.0863L49.8061 54.0863Z" fill="#3F3D56"/>
<path d="M85.6962 37.7995C82.4119 37.7533 79.1379 37.8363 75.8743 38.0483C74.7588 38.1208 73.7936 38.5131 73.7936 39.1725C73.7936 39.7238 74.7511 40.3697 75.8743 40.2967C79.1363 40.0847 82.4102 40.0018 85.6962 40.0479C88.3751 40.0855 88.3736 37.8371 85.6962 37.7995Z" fill="#CCCCCC"/>
<path d="M80.8419 39.9375C80.487 39.9375 72.149 39.9243 72.149 38.7783C72.149 37.6323 80.487 37.6191 80.8419 37.6191C81.1969 37.6191 89.5348 37.6323 89.5348 38.7783C89.5348 39.9243 81.1969 39.9375 80.8419 39.9375ZM72.4751 38.7783C72.7033 39.1257 75.7681 39.6177 80.8419 39.6177C85.9158 39.6177 88.9806 39.1257 89.2088 38.7783C88.9806 38.4309 85.9158 37.9389 80.8419 37.9389C75.7681 37.9389 72.7033 38.4309 72.4751 38.7783V38.7783Z" fill="#3F3D56"/>
<path d="M107.296 70.0632C109.142 70.0122 111.439 69.9485 113.209 68.6621C113.736 68.2634 114.169 67.7548 114.477 67.172C114.786 66.5892 114.963 65.9463 114.995 65.2883C115.031 64.2724 114.663 63.3856 113.957 62.7921C113.032 62.0149 111.683 61.8326 110.228 62.258L111.735 51.2993L110.629 51.1484L108.857 64.0318L109.781 63.61C110.852 63.1212 112.322 62.8724 113.236 63.6406C113.46 63.8415 113.635 64.0911 113.747 64.3701C113.858 64.6491 113.904 64.9499 113.879 65.2493C113.852 65.739 113.72 66.2171 113.49 66.6512C113.261 67.0852 112.94 67.465 112.55 67.7647C111.173 68.7657 109.342 68.8948 107.265 68.9526L107.296 70.0632Z" fill="#3F3D56"/>
<path d="M104.237 52.2461H98.2233V53.3572H104.237V52.2461Z" fill="#3F3D56"/>
<path d="M141.809 94.9999H23.1907C23.1401 94.9997 23.0916 94.9796 23.0558 94.9439C23.0201 94.9082 23 94.8599 23 94.8095C23 94.7591 23.0201 94.7108 23.0558 94.6751C23.0916 94.6394 23.1401 94.6193 23.1907 94.6191H141.809C141.859 94.6191 141.908 94.6392 141.944 94.6749C141.98 94.7106 142 94.759 142 94.8095C142 94.86 141.98 94.9084 141.944 94.9441C141.908 94.9798 141.859 94.9999 141.809 94.9999Z" fill="#3F3D56"/>
</svg>
