<svg width="120" height="82" viewBox="0 0 120 82" fill="none" xmlns="http://www.w3.org/2000/svg">
<rect x="13.7384" y="15.9648" width="76.2728" height="52.9734" rx="9" fill="white"/>
<path d="M109.16 42.6971C107.836 41.4474 106.278 40.2951 104.097 40.4038C102.172 40.4992 100.049 41.5929 98.2287 43.0638L109.16 42.6971ZM109.16 42.6971C109.204 42.7381 109.247 42.7791 109.289 42.8201L109.16 42.6971ZM98.7717 67.6822L98.7708 67.6822C95.9217 67.657 93.0771 67.4489 90.2542 67.0593L90.403 40.1659C90.4385 40.1385 90.474 40.1115 90.5096 40.0848L90.5096 40.0848L90.5111 40.0838C90.8406 39.8352 91.1779 39.6034 91.5253 39.3915C92.357 38.8853 93.254 38.5203 94.1004 38.3394C94.9471 38.1585 95.7095 38.1686 96.3007 38.37L96.3114 38.3743L96.3232 38.379L96.3352 38.3831C96.5812 38.4669 96.8087 38.5989 97.0046 38.7719C97.4789 39.1985 97.7141 39.8744 97.6943 40.7424C97.6746 41.6098 97.3982 42.6118 96.9207 43.586L97.7088 44.1735C99.659 42.3737 102.056 41.0056 104.121 40.9032L104.122 40.9032C106.089 40.8052 107.516 41.8325 108.817 43.0607L108.819 43.062C108.859 43.1002 108.899 43.1388 108.942 43.1802L108.948 43.1852L108.953 43.1901C108.958 43.1944 108.963 43.1995 108.975 43.2107C108.983 43.219 108.996 43.2317 109.011 43.2453C110.015 44.2159 110.841 45.2066 110.739 46.6016C110.681 47.3865 110.321 48.254 109.741 49.1129C109.164 49.9672 108.39 50.7821 107.552 51.4565L107.552 51.4566C105.956 52.742 104.151 53.6231 102.315 54.5191C102.208 54.5716 102.1 54.6242 101.993 54.6768L101.992 54.677C100.063 55.6226 98.0227 56.6733 96.3136 58.2459L96.9642 59.0046C99.5046 56.9756 102.364 55.3664 105.11 54.7761C107.875 54.1817 110.355 54.7424 111.527 56.3388C111.874 56.8296 112.101 57.3976 112.187 57.9955L112.187 57.9955L112.189 58.0051C112.2 58.0737 112.209 58.1454 112.218 58.2217C112.392 59.7695 111.863 61.6643 110.548 63.2967L110.547 63.2967C109.095 65.1006 106.922 66.3684 104.845 67.0005C102.77 67.6322 100.761 67.7032 98.7717 67.6822ZM102.432 55.5751C102.547 55.5189 102.662 55.4626 102.778 55.4062C103.509 55.0492 104.255 54.6855 104.994 54.2895C104.998 54.2888 105.002 54.288 105.005 54.2873C107.854 53.6748 110.59 54.2138 111.932 56.0464C112.327 56.6028 112.584 57.2466 112.682 57.924L102.432 55.5751ZM110.937 63.6104C109.408 65.5083 107.142 66.8242 104.991 67.4789C102.84 68.1335 100.768 68.2033 98.7664 68.1822C95.8522 68.1564 92.9427 67.9407 90.0559 67.5366C90.0039 67.5293 89.9519 67.5217 89.8999 67.5142C89.8505 67.507 89.8012 67.4998 89.7518 67.4928L110.937 63.6104Z" fill="#F2F2F2" stroke="white"/>
<path d="M89.8477 50.1442L89.8507 49.617C89.9543 49.4496 90.0566 49.2814 90.1578 49.1124C90.2232 49.0078 90.2861 48.902 90.3502 48.7961C91.4075 47.0474 92.4216 45.2878 93.3925 43.5172C94.3643 41.7482 95.2913 39.9703 96.1735 38.1835C96.1939 38.1362 96.2301 38.0975 96.2758 38.0743C96.3215 38.0511 96.3738 38.0448 96.4236 38.0565C96.4301 38.0584 96.4363 38.0614 96.4419 38.0653C96.4882 38.0902 96.5074 38.1459 96.4679 38.2272C96.3591 38.4464 96.2503 38.6668 96.1391 38.886C95.2417 40.6776 94.2996 42.4616 93.3127 44.2378C92.3263 46.0129 91.2963 47.7778 90.2227 49.5326C90.2005 49.5695 90.1771 49.6065 90.1549 49.6434C90.0525 49.8107 89.9501 49.9769 89.8477 50.1442Z" fill="white"/>
<path d="M89.8101 56.9449L89.8119 56.6189C89.9138 56.5454 90.0156 56.4731 90.1175 56.3996C92.5155 54.6721 94.9135 52.9449 97.3115 51.2181C101.237 48.3903 105.163 45.5633 109.089 42.7371C109.11 42.7204 109.134 42.7079 109.16 42.7004C109.247 42.6763 109.298 42.7408 109.289 42.8235C109.284 42.8583 109.272 42.8917 109.253 42.9214C109.235 42.9511 109.21 42.9764 109.181 42.9957C106.979 44.5811 104.778 46.1662 102.578 47.7508C98.6719 50.5639 94.7661 53.3767 90.8606 56.189C90.6127 56.3679 90.3636 56.5467 90.1157 56.7256C90.0138 56.7991 89.912 56.8727 89.8101 56.9449Z" fill="white"/>
<path d="M91.6841 64.2071C91.1403 64.1905 90.6051 64.1542 90.0749 64.1067C89.9735 64.0975 89.8721 64.0882 89.7707 64.079L89.7726 63.737C89.874 63.7474 89.9754 63.7579 90.0768 63.7671C90.8428 63.8394 91.6174 63.8906 92.4132 63.8976C94.6192 63.9067 96.8205 63.6895 98.9832 63.2494C101.312 62.7815 103.596 62.1098 105.809 61.2418C108.143 60.3307 110.401 59.2323 112.562 57.957C112.597 57.933 112.64 57.9223 112.682 57.9268C112.779 57.9409 112.807 58.0707 112.715 58.1677C112.697 58.1869 112.676 58.2034 112.654 58.2168C112.385 58.3746 112.116 58.5295 111.845 58.6815C109.673 59.9097 107.407 60.961 105.069 61.8254C102.848 62.6487 100.561 63.275 98.2326 63.6971C96.0727 64.0924 93.8785 64.2634 91.6841 64.2071Z" fill="white"/>
<path d="M88.9957 15.9648H14.8008C14.5182 15.9651 14.2472 16.0786 14.0474 16.2805C13.8476 16.4824 13.7352 16.7561 13.7349 17.0416V67.8319C13.7352 68.1174 13.8476 68.3911 14.0474 68.593C14.2472 68.7949 14.5182 68.9084 14.8008 68.9087H88.9957C89.1498 68.9087 89.302 68.8749 89.442 68.8097C89.5819 68.7444 89.7061 68.6493 89.8061 68.5308C89.8146 68.5215 89.8223 68.5116 89.8293 68.5012C89.8929 68.4226 89.9445 68.3347 89.9821 68.2406C90.0357 68.1112 90.0632 67.9722 90.0627 67.8319V17.0416C90.0624 16.7559 89.9499 16.482 89.7498 16.2801C89.5497 16.0782 89.2785 15.9648 88.9957 15.9648ZM89.7584 67.8319C89.7585 67.9821 89.7147 68.129 89.6325 68.2542C89.5594 68.3644 89.4603 68.4544 89.344 68.516C89.2364 68.5722 89.1169 68.6014 88.9957 68.6012H14.8008C14.5989 68.6009 14.4053 68.5198 14.2626 68.3756C14.1198 68.2314 14.0395 68.0359 14.0393 67.8319V17.0416C14.0395 16.8377 14.1198 16.6421 14.2626 16.4979C14.4053 16.3537 14.5989 16.2726 14.8008 16.2723H88.9957C89.1977 16.2723 89.3916 16.3533 89.5346 16.4975C89.6776 16.6418 89.7581 16.8375 89.7584 17.0416V67.8319Z" fill="#3F3D56"/>
<path d="M89.9099 20.2812H13.8868V20.5891H89.9099V20.2812Z" fill="#3F3D56"/>
<path d="M16.4768 19.1985C16.9817 19.1985 17.3909 18.785 17.3909 18.275C17.3909 17.765 16.9817 17.3516 16.4768 17.3516C15.972 17.3516 15.5627 17.765 15.5627 18.275C15.5627 18.785 15.972 19.1985 16.4768 19.1985Z" fill="#3F3D56"/>
<path d="M19.1049 19.1985C19.6097 19.1985 20.019 18.785 20.019 18.275C20.019 17.765 19.6097 17.3516 19.1049 17.3516C18.6 17.3516 18.1908 17.765 18.1908 18.275C18.1908 18.785 18.6 19.1985 19.1049 19.1985Z" fill="#3F3D56"/>
<path d="M21.7329 19.1985C22.2378 19.1985 22.647 18.785 22.647 18.275C22.647 17.765 22.2378 17.3516 21.7329 17.3516C21.2281 17.3516 20.8188 17.765 20.8188 18.275C20.8188 18.785 21.2281 19.1985 21.7329 19.1985Z" fill="#3F3D56"/>
<path d="M70.9786 27.4058H32.8422C32.4208 27.4058 32.0166 27.2367 31.7186 26.9357C31.4206 26.6346 31.2532 26.2263 31.2532 25.8006C31.2532 25.3748 31.4206 24.9665 31.7186 24.6655C32.0166 24.3644 32.4208 24.1953 32.8422 24.1953H70.9786C71.4 24.1953 71.8042 24.3644 72.1022 24.6655C72.4002 24.9665 72.5676 25.3748 72.5676 25.8006C72.5676 26.2263 72.4002 26.6346 72.1022 26.9357C71.8042 27.2367 71.4 27.4058 70.9786 27.4058ZM32.8422 24.4423C32.4856 24.4423 32.1436 24.5854 31.8914 24.8401C31.6393 25.0948 31.4976 25.4403 31.4976 25.8006C31.4976 26.1608 31.6393 26.5063 31.8914 26.761C32.1436 27.0158 32.4856 27.1589 32.8422 27.1589H70.9786C71.3352 27.1589 71.6772 27.0158 71.9294 26.761C72.1815 26.5063 72.3232 26.1608 72.3232 25.8006C72.3232 25.4403 72.1815 25.0948 71.9294 24.8401C71.6772 24.5854 71.3352 24.4423 70.9786 24.4423H32.8422Z" fill="#3F3D56"/>
<path d="M33.1607 37.2218H29.7382C29.4789 37.2218 29.2302 37.1177 29.0468 36.9325C28.8634 36.7472 28.7604 36.4959 28.7604 36.2339C28.7604 35.9719 28.8634 35.7207 29.0468 35.5354C29.2302 35.3502 29.4789 35.2461 29.7382 35.2461H33.1607C33.4201 35.2461 33.6688 35.3502 33.8522 35.5354C34.0356 35.7207 34.1386 35.9719 34.1386 36.2339C34.1386 36.4959 34.0356 36.7472 33.8522 36.9325C33.6688 37.1177 33.4201 37.2218 33.1607 37.2218Z" fill="#CCCCCC"/>
<path d="M37.1944 40.5577H29.7382C29.4789 40.5577 29.2302 40.4537 29.0468 40.2684C28.8634 40.0831 28.7604 39.8319 28.7604 39.5699C28.7604 39.3079 28.8634 39.0566 29.0468 38.8714C29.2302 38.6861 29.4789 38.582 29.7382 38.582H37.1944C37.4537 38.582 37.7025 38.6861 37.8858 38.8714C38.0692 39.0566 38.1722 39.3079 38.1722 39.5699C38.1722 39.8319 38.0692 40.0831 37.8858 40.2684C37.7025 40.4537 37.4537 40.5577 37.1944 40.5577Z" fill="#CCCCCC"/>
<path d="M33.7719 51.7921H30.3494C30.0901 51.7921 29.8413 51.688 29.658 51.5028C29.4746 51.3175 29.3716 51.0662 29.3716 50.8043C29.3716 50.5423 29.4746 50.291 29.658 50.1057C29.8413 49.9205 30.0901 49.8164 30.3494 49.8164H33.7719C34.0313 49.8164 34.28 49.9205 34.4634 50.1057C34.6467 50.291 34.7498 50.5423 34.7498 50.8043C34.7498 51.0662 34.6467 51.3175 34.4634 51.5028C34.28 51.688 34.0313 51.7921 33.7719 51.7921Z" fill="#CCCCCC"/>
<path d="M37.8056 55.128H30.3494C30.0901 55.128 29.8413 55.024 29.658 54.8387C29.4746 54.6535 29.3716 54.4022 29.3716 54.1402C29.3716 53.8782 29.4746 53.6269 29.658 53.4417C29.8413 53.2564 30.0901 53.1523 30.3494 53.1523H37.8056C38.0649 53.1523 38.3136 53.2564 38.497 53.4417C38.6804 53.6269 38.7834 53.8782 38.7834 54.1402C38.7834 54.4022 38.6804 54.6535 38.497 54.8387C38.3136 55.024 38.0649 55.128 37.8056 55.128Z" fill="#CCCCCC"/>
<path d="M56.2626 51.421H52.8401C52.5808 51.421 52.3321 51.3169 52.1487 51.1317C51.9653 50.9464 51.8623 50.6952 51.8623 50.4332C51.8623 50.1712 51.9653 49.9199 52.1487 49.7346C52.3321 49.5494 52.5808 49.4453 52.8401 49.4453H56.2626C56.522 49.4453 56.7707 49.5494 56.9541 49.7346C57.1375 49.9199 57.2405 50.1712 57.2405 50.4332C57.2405 50.6952 57.1375 50.9464 56.9541 51.1317C56.7707 51.3169 56.522 51.421 56.2626 51.421Z" fill="#CCCCCC"/>
<path d="M60.2963 54.7569H52.8401C52.5808 54.7569 52.3321 54.6529 52.1487 54.4676C51.9653 54.2824 51.8623 54.0311 51.8623 53.7691C51.8623 53.5071 51.9653 53.2558 52.1487 53.0706C52.3321 52.8853 52.5808 52.7812 52.8401 52.7812H60.2963C60.5556 52.7812 60.8043 52.8853 60.9877 53.0706C61.1711 53.2558 61.2741 53.5071 61.2741 53.7691C61.2741 54.0311 61.1711 54.2824 60.9877 54.4676C60.8043 54.6529 60.5556 54.7569 60.2963 54.7569Z" fill="#CCCCCC"/>
<path d="M55.896 37.839H52.4735C52.2141 37.839 51.9654 37.7349 51.782 37.5496C51.5986 37.3644 51.4956 37.1131 51.4956 36.8511C51.4956 36.5891 51.5986 36.3379 51.782 36.1526C51.9654 35.9674 52.2141 35.8633 52.4735 35.8633H55.896C56.1553 35.8633 56.404 35.9674 56.5874 36.1526C56.7708 36.3379 56.8738 36.5891 56.8738 36.8511C56.8738 37.1131 56.7708 37.3644 56.5874 37.5496C56.404 37.7349 56.1553 37.839 55.896 37.839Z" fill="#CCCCCC"/>
<path d="M59.9296 41.1749H52.4735C52.2141 41.1749 51.9654 41.0708 51.782 40.8856C51.5986 40.7003 51.4956 40.4491 51.4956 40.1871C51.4956 39.9251 51.5986 39.6738 51.782 39.4886C51.9654 39.3033 52.2141 39.1992 52.4735 39.1992H59.9296C60.189 39.1992 60.4377 39.3033 60.6211 39.4886C60.8044 39.6738 60.9075 39.9251 60.9075 40.1871C60.9075 40.4491 60.8044 40.7003 60.6211 40.8856C60.4377 41.0708 60.189 41.1749 59.9296 41.1749Z" fill="#CCCCCC"/>
<path d="M78.7533 37.0968H75.3308C75.0715 37.0968 74.8228 36.9927 74.6394 36.8075C74.456 36.6222 74.353 36.3709 74.353 36.1089C74.353 35.8469 74.456 35.5957 74.6394 35.4104C74.8228 35.2252 75.0715 35.1211 75.3308 35.1211H78.7533C79.0127 35.1211 79.2614 35.2252 79.4448 35.4104C79.6282 35.5957 79.7312 35.8469 79.7312 36.1089C79.7312 36.3709 79.6282 36.6222 79.4448 36.8075C79.2614 36.9927 79.0127 37.0968 78.7533 37.0968Z" fill="#CCCCCC"/>
<path d="M82.787 40.4327H75.3308C75.0715 40.4327 74.8228 40.3287 74.6394 40.1434C74.456 39.9581 74.353 39.7069 74.353 39.4449C74.353 39.1829 74.456 38.9316 74.6394 38.7464C74.8228 38.5611 75.0715 38.457 75.3308 38.457H82.787C83.0463 38.457 83.2951 38.5611 83.4784 38.7464C83.6618 38.9316 83.7649 39.1829 83.7649 39.4449C83.7649 39.7069 83.6618 39.9581 83.4784 40.1434C83.2951 40.3287 83.0463 40.4327 82.787 40.4327Z" fill="#CCCCCC"/>
<path d="M23.6998 41.6042C25.725 41.6042 27.3668 39.9457 27.3668 37.8997C27.3668 35.8538 25.725 34.1953 23.6998 34.1953C21.6746 34.1953 20.0328 35.8538 20.0328 37.8997C20.0328 39.9457 21.6746 41.6042 23.6998 41.6042Z" fill="#F1563C"/>
<path d="M25.411 39.5684H21.9885C21.8913 39.5683 21.7981 39.5292 21.7293 39.4598C21.6606 39.3903 21.6219 39.2961 21.6218 39.1979V36.6048C21.6219 36.5066 21.6606 36.4124 21.7293 36.343C21.7981 36.2735 21.8913 36.2345 21.9885 36.2344H22.952C23.0146 36.2341 23.0763 36.2502 23.131 36.2811C23.1857 36.312 23.2316 36.3566 23.2643 36.4106L23.533 36.8518H25.411C25.5082 36.8519 25.6014 36.891 25.6702 36.9604C25.7389 37.0299 25.7776 37.124 25.7777 37.2222V39.1979C25.7776 39.2961 25.7389 39.3903 25.6702 39.4598C25.6014 39.5292 25.5082 39.5683 25.411 39.5684ZM21.9885 36.4813C21.9561 36.4814 21.925 36.4944 21.9021 36.5176C21.8792 36.5407 21.8663 36.5721 21.8663 36.6048V39.1979C21.8663 39.2307 21.8792 39.262 21.9021 39.2852C21.925 39.3083 21.9561 39.3214 21.9885 39.3214H25.411C25.4434 39.3214 25.4745 39.3083 25.4974 39.2852C25.5203 39.262 25.5332 39.2307 25.5332 39.1979V37.2222C25.5332 37.1895 25.5203 37.1581 25.4974 37.135C25.4745 37.1118 25.4434 37.0988 25.411 37.0987H23.3964L23.0561 36.5401C23.0452 36.5221 23.0299 36.5072 23.0117 36.4969C22.9934 36.4866 22.9729 36.4813 22.952 36.4813H21.9885Z" fill="white"/>
<path d="M46.1905 42.2214C48.2157 42.2214 49.8575 40.5628 49.8575 38.5169C49.8575 36.471 48.2157 34.8125 46.1905 34.8125C44.1653 34.8125 42.5235 36.471 42.5235 38.5169C42.5235 40.5628 44.1653 42.2214 46.1905 42.2214Z" fill="#F1563C"/>
<path d="M47.7795 40.8642H44.6015C44.5042 40.8641 44.411 40.825 44.3423 40.7555C44.2735 40.6861 44.2349 40.5919 44.2348 40.4937V36.5423C44.2349 36.4441 44.2735 36.3499 44.3423 36.2805C44.411 36.211 44.5042 36.172 44.6015 36.1719H46.9042C46.9878 36.1719 47.0688 36.2008 47.134 36.2536L48.0092 36.9641C48.052 36.9987 48.0866 37.0426 48.1103 37.0926C48.1341 37.1426 48.1463 37.1974 48.1462 37.2528V40.4937C48.1461 40.5919 48.1074 40.6861 48.0387 40.7555C47.9699 40.825 47.8767 40.8641 47.7795 40.8642ZM44.6015 36.4188C44.569 36.4189 44.538 36.4319 44.5151 36.4551C44.4922 36.4782 44.4793 36.5096 44.4792 36.5423V40.4937C44.4793 40.5265 44.4922 40.5578 44.5151 40.581C44.538 40.6041 44.569 40.6172 44.6015 40.6172H47.7795C47.8119 40.6172 47.843 40.6041 47.8659 40.581C47.8888 40.5578 47.9017 40.5265 47.9017 40.4937V37.2528C47.9018 37.2343 47.8977 37.2161 47.8898 37.1994C47.8819 37.1828 47.8703 37.1681 47.8561 37.1566L46.9807 36.446C46.959 36.4284 46.9321 36.4189 46.9042 36.4188H44.6015Z" fill="white"/>
<path d="M47.1684 37.9032H45.2126C45.1802 37.9032 45.1491 37.8902 45.1262 37.867C45.1033 37.8439 45.0904 37.8125 45.0904 37.7797C45.0904 37.747 45.1033 37.7156 45.1262 37.6924C45.1491 37.6693 45.1802 37.6562 45.2126 37.6562H47.1684C47.2008 37.6562 47.2319 37.6693 47.2548 37.6924C47.2777 37.7156 47.2906 37.747 47.2906 37.7797C47.2906 37.8125 47.2777 37.8439 47.2548 37.867C47.2319 37.8902 47.2008 37.9032 47.1684 37.9032Z" fill="white"/>
<path d="M47.1684 38.6415H45.2126C45.1802 38.6415 45.1491 38.6285 45.1262 38.6053C45.1033 38.5822 45.0904 38.5508 45.0904 38.518C45.0904 38.4853 45.1033 38.4539 45.1262 38.4307C45.1491 38.4075 45.1802 38.3945 45.2126 38.3945H47.1684C47.2008 38.3945 47.2319 38.4075 47.2548 38.4307C47.2777 38.4539 47.2906 38.4853 47.2906 38.518C47.2906 38.5508 47.2777 38.5822 47.2548 38.6053C47.2319 38.6285 47.2008 38.6415 47.1684 38.6415Z" fill="white"/>
<path d="M47.1684 39.3837H45.2126C45.1802 39.3837 45.1491 39.3707 45.1262 39.3475C45.1033 39.3244 45.0904 39.2929 45.0904 39.2602C45.0904 39.2275 45.1033 39.196 45.1262 39.1729C45.1491 39.1497 45.1802 39.1367 45.2126 39.1367H47.1684C47.2008 39.1367 47.2319 39.1497 47.2548 39.1729C47.2777 39.196 47.2906 39.2275 47.2906 39.2602C47.2906 39.2929 47.2777 39.3244 47.2548 39.3475C47.2319 39.3707 47.2008 39.3837 47.1684 39.3837Z" fill="white"/>
<path d="M68.8034 41.4831C70.8287 41.4831 72.4704 39.8246 72.4704 37.7787C72.4704 35.7328 70.8287 34.0742 68.8034 34.0742C66.7782 34.0742 65.1365 35.7328 65.1365 37.7787C65.1365 39.8246 66.7782 41.4831 68.8034 41.4831Z" fill="#F1563C"/>
<path d="M70.5146 39.1385H67.0921C66.9949 39.1384 66.9017 39.0993 66.8329 39.0298C66.7642 38.9604 66.7255 38.8662 66.7254 38.768V36.7923C66.7255 36.6941 66.7642 36.5999 66.8329 36.5305C66.9017 36.461 66.9949 36.422 67.0921 36.4219H70.5146C70.6118 36.422 70.705 36.461 70.7738 36.5305C70.8425 36.5999 70.8812 36.6941 70.8813 36.7923V38.768C70.8812 38.8662 70.8425 38.9604 70.7738 39.0298C70.705 39.0993 70.6118 39.1384 70.5146 39.1385ZM67.0921 36.6688C67.0597 36.6689 67.0286 36.6819 67.0057 36.705C66.9828 36.7282 66.9699 36.7596 66.9699 36.7923V38.768C66.9699 38.8008 66.9828 38.8321 67.0057 38.8553C67.0286 38.8784 67.0597 38.8915 67.0921 38.8915H70.5146C70.547 38.8915 70.5781 38.8784 70.601 38.8553C70.6239 38.8321 70.6368 38.8008 70.6368 38.768V36.7923C70.6368 36.7596 70.6239 36.7282 70.601 36.705C70.5781 36.6819 70.547 36.6689 70.5146 36.6688H67.0921Z" fill="white"/>
<path d="M68.8034 38.105C68.7347 38.1051 68.6674 38.0857 68.609 38.0491L66.7828 36.8961C66.7554 36.8787 66.7359 36.851 66.7287 36.8191C66.7215 36.7872 66.727 36.7537 66.7442 36.726C66.7614 36.6983 66.7887 36.6785 66.8203 36.6712C66.8518 36.6638 66.885 36.6693 66.9125 36.6866L68.7387 37.8396C68.7581 37.8518 68.7806 37.8582 68.8034 37.8582C68.8263 37.8582 68.8487 37.8518 68.8682 37.8396L70.6943 36.6866C70.7218 36.6693 70.7549 36.6638 70.7865 36.6712C70.818 36.6785 70.8454 36.6983 70.8625 36.726C70.8797 36.7537 70.8853 36.7872 70.878 36.8191C70.8708 36.851 70.8513 36.8787 70.8239 36.8961L68.9978 38.0491C68.9395 38.0857 68.8721 38.1051 68.8034 38.105Z" fill="white"/>
<path d="M23.6998 56.1784C25.725 56.1784 27.3668 54.5199 27.3668 52.474C27.3668 50.4281 25.725 48.7695 23.6998 48.7695C21.6746 48.7695 20.0328 50.4281 20.0328 52.474C20.0328 54.5199 21.6746 56.1784 23.6998 56.1784Z" fill="#F1563C"/>
<path d="M25.411 53.8299H21.9885C21.8913 53.8298 21.7981 53.7907 21.7293 53.7212C21.6606 53.6518 21.6219 53.5576 21.6218 53.4594V51.4837C21.6219 51.3855 21.6606 51.2913 21.7293 51.2219C21.7981 51.1525 21.8913 51.1134 21.9885 51.1133H25.411C25.5082 51.1134 25.6014 51.1525 25.6702 51.2219C25.7389 51.2913 25.7776 51.3855 25.7777 51.4837V53.4594C25.7776 53.5576 25.7389 53.6518 25.6702 53.7212C25.6014 53.7907 25.5082 53.8298 25.411 53.8299ZM21.9885 51.3602C21.9561 51.3603 21.925 51.3733 21.9021 51.3964C21.8792 51.4196 21.8663 51.451 21.8663 51.4837V53.4594C21.8663 53.4922 21.8792 53.5235 21.9021 53.5467C21.925 53.5698 21.9561 53.5829 21.9885 53.5829H25.411C25.4434 53.5829 25.4745 53.5698 25.4974 53.5467C25.5203 53.5235 25.5332 53.4922 25.5332 53.4594V51.4837C25.5332 51.451 25.5203 51.4196 25.4974 51.3964C25.4745 51.3733 25.4434 51.3603 25.411 51.3602H21.9885Z" fill="white"/>
<path d="M24.8686 53.8295H22.4088C22.3659 53.8296 22.3237 53.8181 22.2865 53.7965C22.2494 53.7748 22.2185 53.7436 22.1971 53.7061C22.1756 53.6685 22.1643 53.6259 22.1643 53.5826C22.1643 53.5392 22.1756 53.4966 22.1971 53.4591L22.938 52.1625C22.9595 52.125 22.9903 52.0938 23.0275 52.0721C23.0647 52.0505 23.1068 52.0391 23.1497 52.0391C23.1927 52.0391 23.2348 52.0505 23.272 52.0721C23.3091 52.0938 23.34 52.125 23.3615 52.1625L23.84 52.9999L24.1172 52.5148C24.1387 52.4772 24.1696 52.4461 24.2067 52.4244C24.2439 52.4027 24.286 52.3913 24.329 52.3913C24.3719 52.3913 24.414 52.4027 24.4512 52.4244C24.4884 52.4461 24.5192 52.4772 24.5407 52.5148L25.0803 53.4591C25.1018 53.4966 25.1131 53.5392 25.1131 53.5826C25.1131 53.6259 25.1018 53.6685 25.0803 53.7061C25.0589 53.7436 25.028 53.7748 24.9908 53.7965C24.9537 53.8181 24.9115 53.8295 24.8686 53.8295H24.8686ZM24.8686 53.5826L24.3289 52.6383L23.9459 53.3086C23.9352 53.3274 23.9197 53.343 23.9011 53.3538C23.8826 53.3646 23.8615 53.3704 23.84 53.3703C23.8186 53.3704 23.7975 53.3646 23.7789 53.3538C23.7603 53.343 23.7449 53.3274 23.7341 53.3086L23.1498 52.286L22.4088 53.5826H24.8686Z" fill="white"/>
<path d="M25.0443 52.1033C25.1793 52.1033 25.2888 51.9927 25.2888 51.8563C25.2888 51.7199 25.1793 51.6094 25.0443 51.6094C24.9093 51.6094 24.7999 51.7199 24.7999 51.8563C24.7999 51.9927 24.9093 52.1033 25.0443 52.1033Z" fill="white"/>
<path d="M46.435 55.8073C48.4602 55.8073 50.1019 54.1488 50.1019 52.1029C50.1019 50.057 48.4602 48.3984 46.435 48.3984C44.4098 48.3984 42.768 50.057 42.768 52.1029C42.768 54.1488 44.4098 55.8073 46.435 55.8073Z" fill="#F1563C"/>
<path d="M46.435 52.1641C46.2174 52.1641 46.0047 52.0989 45.8238 51.9768C45.6429 51.8547 45.5019 51.6811 45.4186 51.478C45.3353 51.275 45.3136 51.0515 45.356 50.8359C45.3985 50.6203 45.5032 50.4223 45.6571 50.2669C45.8109 50.1115 46.0069 50.0056 46.2203 49.9628C46.4337 49.9199 46.6549 49.9419 46.8559 50.026C47.057 50.1101 47.2288 50.2526 47.3496 50.4353C47.4705 50.6181 47.535 50.8329 47.535 51.0527C47.5347 51.3474 47.4187 51.6299 47.2125 51.8382C47.0062 52.0465 46.7266 52.1637 46.435 52.1641ZM46.435 50.1884C46.2657 50.1884 46.1003 50.2391 45.9596 50.334C45.8189 50.429 45.7092 50.564 45.6445 50.722C45.5797 50.8799 45.5628 51.0537 45.5958 51.2214C45.6288 51.389 45.7103 51.5431 45.8299 51.6639C45.9496 51.7848 46.1021 51.8671 46.268 51.9005C46.434 51.9339 46.606 51.9167 46.7624 51.8513C46.9187 51.7859 47.0524 51.6751 47.1464 51.533C47.2404 51.3908 47.2906 51.2237 47.2906 51.0527C47.2903 50.8236 47.2001 50.6039 47.0397 50.4418C46.8793 50.2798 46.6618 50.1886 46.435 50.1884Z" fill="white"/>
<path d="M47.4128 54.2624H45.4571C45.3437 54.2622 45.2349 54.2167 45.1547 54.1356C45.0745 54.0546 45.0294 53.9448 45.0293 53.8302C45.0293 53.4536 45.1774 53.0924 45.441 52.8261C45.7046 52.5598 46.0621 52.4102 46.4349 52.4102C46.8078 52.4102 47.1653 52.5598 47.4289 52.8261C47.6925 53.0924 47.8406 53.4536 47.8406 53.8302C47.8405 53.9448 47.7954 54.0546 47.7152 54.1356C47.635 54.2167 47.5262 54.2622 47.4128 54.2624ZM46.4349 52.6571C46.1271 52.6575 45.8319 52.7812 45.6142 53.0011C45.3965 53.221 45.2741 53.5192 45.2737 53.8302C45.2738 53.8793 45.2931 53.9264 45.3275 53.9611C45.3619 53.9958 45.4085 54.0154 45.4571 54.0154H47.4128C47.4614 54.0154 47.508 53.9958 47.5424 53.9611C47.5768 53.9264 47.5961 53.8793 47.5962 53.8302C47.5958 53.5192 47.4734 53.221 47.2557 53.0011C47.038 52.7812 46.7428 52.6575 46.4349 52.6571Z" fill="white"/>
</svg>
