<svg width="135" height="72" viewBox="0 0 135 72" fill="none" xmlns="http://www.w3.org/2000/svg">
<path d="M3.46154 6.89362C5.37329 6.89362 6.92308 5.35043 6.92308 3.44681C6.92308 1.54319 5.37329 0 3.46154 0C1.54978 0 0 1.54319 0 3.44681C0 5.35043 1.54978 6.89362 3.46154 6.89362Z" fill="#CCCCCC"/>
<path d="M3.46154 19.9151C5.37329 19.9151 6.92308 18.3719 6.92308 16.4683C6.92308 14.5647 5.37329 13.0215 3.46154 13.0215C1.54978 13.0215 0 14.5647 0 16.4683C0 18.3719 1.54978 19.9151 3.46154 19.9151Z" fill="#CCCCCC"/>
<path d="M3.46154 32.9366C5.37329 32.9366 6.92308 31.3934 6.92308 29.4898C6.92308 27.5862 5.37329 26.043 3.46154 26.043C1.54978 26.043 0 27.5862 0 29.4898C0 31.3934 1.54978 32.9366 3.46154 32.9366Z" fill="#CCCCCC"/>
<path d="M3.46154 45.9581C5.37329 45.9581 6.92308 44.4149 6.92308 42.5113C6.92308 40.6076 5.37329 39.0645 3.46154 39.0645C1.54978 39.0645 0 40.6076 0 42.5113C0 44.4149 1.54978 45.9581 3.46154 45.9581Z" fill="#CCCCCC"/>
<path d="M61.7308 72.001C63.6426 72.001 65.1924 70.4578 65.1924 68.5542C65.1924 66.6506 63.6426 65.1074 61.7308 65.1074C59.8191 65.1074 58.2693 66.6506 58.2693 68.5542C58.2693 70.4578 59.8191 72.001 61.7308 72.001Z" fill="#CCCCCC"/>
<path d="M36.7308 72.001C38.6426 72.001 40.1924 70.4578 40.1924 68.5542C40.1924 66.6506 38.6426 65.1074 36.7308 65.1074C34.8191 65.1074 33.2693 66.6506 33.2693 68.5542C33.2693 70.4578 34.8191 72.001 36.7308 72.001Z" fill="#CCCCCC"/>
<path d="M113.269 72.001C115.181 72.001 116.731 70.4578 116.731 68.5542C116.731 66.6506 115.181 65.1074 113.269 65.1074C111.358 65.1074 109.808 66.6506 109.808 68.5542C109.808 70.4578 111.358 72.001 113.269 72.001Z" fill="#CCCCCC"/>
<path d="M87.1153 72.001C89.0271 72.001 90.5769 70.4578 90.5769 68.5542C90.5769 66.6506 89.0271 65.1074 87.1153 65.1074C85.2036 65.1074 83.6538 66.6506 83.6538 68.5542C83.6538 70.4578 85.2036 72.001 87.1153 72.001Z" fill="#CCCCCC"/>
<path d="M134.615 3.83041H20.7693C20.6673 3.83041 20.5694 3.79006 20.4973 3.71823C20.4252 3.64641 20.3846 3.549 20.3846 3.44743C20.3846 3.34586 20.4252 3.24845 20.4973 3.17663C20.5694 3.10481 20.6673 3.06445 20.7693 3.06445H134.615C134.717 3.06445 134.815 3.10481 134.887 3.17663C134.96 3.24845 135 3.34586 135 3.44743C135 3.549 134.96 3.64641 134.887 3.71823C134.815 3.79006 134.717 3.83041 134.615 3.83041Z" fill="#CCCCCC"/>
<path d="M134.615 16.8519H20.7693C20.6673 16.8519 20.5694 16.8115 20.4973 16.7397C20.4252 16.6679 20.3846 16.5705 20.3846 16.4689C20.3846 16.3673 20.4252 16.2699 20.4973 16.1981C20.5694 16.1263 20.6673 16.0859 20.7693 16.0859H134.615C134.717 16.0859 134.815 16.1263 134.887 16.1981C134.96 16.2699 135 16.3673 135 16.4689C135 16.5705 134.96 16.6679 134.887 16.7397C134.815 16.8115 134.717 16.8519 134.615 16.8519Z" fill="#CCCCCC"/>
<path d="M134.615 29.8734H20.7693C20.6673 29.8734 20.5694 29.833 20.4973 29.7612C20.4252 29.6894 20.3846 29.592 20.3846 29.4904C20.3846 29.3888 20.4252 29.2914 20.4973 29.2196C20.5694 29.1478 20.6673 29.1074 20.7693 29.1074H134.615C134.717 29.1074 134.815 29.1478 134.887 29.2196C134.96 29.2914 135 29.3888 135 29.4904C135 29.592 134.96 29.6894 134.887 29.7612C134.815 29.833 134.717 29.8734 134.615 29.8734Z" fill="#CCCCCC"/>
<path d="M134.615 42.8929H20.7693C20.6673 42.8929 20.5694 42.8526 20.4973 42.7807C20.4252 42.7089 20.3846 42.6115 20.3846 42.5099C20.3846 42.4084 20.4252 42.311 20.4973 42.2391C20.5694 42.1673 20.6673 42.127 20.7693 42.127H134.615C134.717 42.127 134.815 42.1673 134.887 42.2391C134.96 42.311 135 42.4084 135 42.5099C135 42.6115 134.96 42.7089 134.887 42.7807C134.815 42.8526 134.717 42.8929 134.615 42.8929Z" fill="#CCCCCC"/>
<path d="M42.3078 55.9144H31.1539C30.6441 55.9138 30.1553 55.7118 29.7947 55.3528C29.4342 54.9939 29.2314 54.5071 29.2308 53.9995V43.659C29.2314 43.1514 29.4342 42.6646 29.7947 42.3056C30.1553 41.9467 30.6441 41.7447 31.1539 41.7441H42.3078C42.8176 41.7447 43.3064 41.9467 43.6669 42.3056C44.0274 42.6646 44.2302 43.1514 44.2308 43.659V53.9995C44.2302 54.5071 44.0274 54.9939 43.6669 55.3528C43.3064 55.7118 42.8176 55.9138 42.3078 55.9144Z" fill="#F1563C"/>
<path d="M67.3078 55.9142H56.1539C55.6441 55.9136 55.1553 55.7116 54.7947 55.3526C54.4342 54.9937 54.2314 54.5069 54.2308 53.9993V30.6376C54.2314 30.1299 54.4342 29.6431 54.7947 29.2842C55.1553 28.9252 55.6441 28.7232 56.1539 28.7227H67.3078C67.8176 28.7232 68.3064 28.9252 68.6669 29.2842C69.0275 29.6431 69.2303 30.1299 69.2308 30.6376V53.9993C69.2303 54.5069 69.0275 54.9937 68.6669 55.3526C68.3064 55.7116 67.8176 55.9136 67.3078 55.9142Z" fill="#F1563C"/>
<path d="M92.6923 55.9139H81.5384C81.0286 55.9134 80.5398 55.7114 80.1793 55.3524C79.8187 54.9934 79.6159 54.5067 79.6154 53.999V17.6161C79.6159 17.1084 79.8187 16.6217 80.1793 16.2627C80.5398 15.9037 81.0286 15.7018 81.5384 15.7012H92.6923C93.2021 15.7018 93.6909 15.9037 94.0514 16.2627C94.412 16.6217 94.6147 17.1084 94.6153 17.6161V53.999C94.6147 54.5067 94.412 54.9934 94.0514 55.3524C93.6909 55.7114 93.2021 55.9134 92.6923 55.9139Z" fill="#F1563C"/>
<path d="M118.846 55.9155H107.692C107.183 55.9149 106.694 55.713 106.333 55.354C105.973 54.995 105.77 54.5083 105.769 54.0006V4.97935C105.77 4.47166 105.973 3.98495 106.333 3.62596C106.694 3.26697 107.183 3.06503 107.692 3.06445H118.846C119.356 3.06503 119.845 3.26697 120.205 3.62596C120.566 3.98495 120.769 4.47166 120.769 4.97935V54.0006C120.769 54.5083 120.566 54.995 120.205 55.354C119.845 55.713 119.356 55.9149 118.846 55.9155Z" fill="#F1563C"/>
<path d="M134.615 55.9144H20.7693C20.6673 55.9144 20.5694 55.874 20.4973 55.8022C20.4252 55.7304 20.3846 55.633 20.3846 55.5314C20.3846 55.4298 20.4252 55.3324 20.4973 55.2606C20.5694 55.1888 20.6673 55.1484 20.7693 55.1484H134.615C134.717 55.1484 134.815 55.1888 134.887 55.2606C134.96 55.3324 135 55.4298 135 55.5314C135 55.633 134.96 55.7304 134.887 55.8022C134.815 55.874 134.717 55.9144 134.615 55.9144Z" fill="#3F3D56"/>
</svg>
