<svg width="120" height="82" viewBox="0 0 120 82" fill="none" xmlns="http://www.w3.org/2000/svg">
<path d="M66.0243 60.5754C65.5232 59.7592 64.8449 59.1621 63.992 58.9386C63.2484 58.7437 62.4837 58.7769 61.7277 58.7837L52.1692 58.8694C51.3506 58.8768 50.5657 59.7016 50.6037 60.6902C50.6415 61.6704 51.2918 62.5188 52.1692 62.5109C54.9692 62.4858 57.7692 62.4607 60.5691 62.4356C61.2293 62.4297 61.8897 62.4158 62.5499 62.4184C62.6981 62.4189 62.8458 62.428 62.9939 62.43C63.0297 62.4304 63.0556 62.4301 63.0739 62.4292C63.0785 62.4308 63.0824 62.4323 63.0884 62.4342C63.1656 62.4589 63.2449 62.4759 63.3226 62.4993C63.2954 62.5002 63.373 62.5566 63.412 62.5756C63.4173 62.5879 63.4288 62.6097 63.4478 62.6434C63.4744 62.7014 63.5532 62.8776 63.5565 62.8721C63.6748 63.2202 63.7725 63.5773 63.8487 63.941C64.0306 64.7429 64.0706 64.9106 64.0968 65.6629C64.1299 66.6134 64.7932 67.529 65.6623 67.4837C66.4821 67.441 67.2633 66.6823 67.2278 65.6629C67.1679 63.9453 66.9087 62.0158 66.0243 60.5754Z" fill="#E6E6E6"/>
<path d="M49.8414 64.421C49.6283 63.19 49.4193 61.9583 49.2021 60.728C48.9817 59.4799 48.5316 58.337 47.5128 57.5178C47.2406 57.299 46.9583 57.0946 46.6749 56.8909C46.5752 56.8193 46.4757 56.7476 46.3772 56.6744C46.3713 56.67 46.3676 56.6673 46.3625 56.6635C46.3516 56.6546 46.3386 56.6441 46.3212 56.63C45.8966 56.2874 45.4863 55.9295 45.0954 55.5492C44.7484 55.2113 44.4165 54.8591 44.0997 54.4925C44.0206 54.4009 43.9425 54.3085 43.8653 54.2153C43.8521 54.1993 43.7806 54.1112 43.7336 54.0538C43.6898 53.9963 43.6098 53.8925 43.5964 53.8744C43.5063 53.7529 43.4178 53.6304 43.3309 53.5066C42.7391 52.6614 42.2267 51.768 41.7996 50.8369C41.7573 50.7446 41.7159 50.6517 41.6756 50.5583C41.6647 50.5298 41.6507 50.4931 41.6321 50.4444C41.5461 50.2187 41.4601 49.9934 41.3815 49.765C41.2142 49.2801 41.0705 48.7879 40.9502 48.2887C40.8907 48.0421 40.8372 47.7943 40.7896 47.5453C40.765 47.4172 40.742 47.2889 40.7207 47.1603C40.7172 47.1389 40.6963 47.0002 40.684 46.9218C40.6749 46.843 40.658 46.7035 40.6558 46.682C40.6421 46.5523 40.6301 46.4226 40.6195 46.2927C40.5958 46.0004 40.5797 45.7077 40.5713 45.4144C40.557 44.8933 40.5668 44.3721 40.6007 43.8511C40.62 43.5583 40.6474 43.2663 40.6812 42.9748C40.6833 42.9569 40.6848 42.9427 40.6863 42.9298C40.6884 42.9168 40.6907 42.902 40.6936 42.8836C40.7186 42.7225 40.7449 42.5617 40.7743 42.4013C40.8858 41.7925 41.0307 41.1897 41.2085 40.5954C41.2927 40.3143 41.3842 40.0355 41.4829 39.7589C41.5269 39.6362 41.5723 39.5139 41.6191 39.3921C41.616 39.4 41.7564 39.0582 41.7582 39.0468C42.315 37.7926 43.2257 36.6492 43.227 35.2245C43.2278 34.2599 42.3718 33.3359 41.369 33.3805C40.8691 33.3984 40.3959 33.6007 40.0494 33.9447C39.7028 34.2887 39.5098 34.7475 39.5111 35.2245C39.5111 35.2462 39.511 35.2647 39.5109 35.2826C39.5016 35.3126 39.4938 35.3377 39.4867 35.3598C39.3781 35.5848 39.2451 35.7985 39.1259 36.0179C38.7996 36.6183 38.521 37.2384 38.2564 37.8676C37.8232 38.8922 37.4916 39.9533 37.266 41.0369C36.7755 43.4111 36.7375 45.8501 37.1536 48.2372C37.874 52.4232 40.2496 56.4303 43.5522 59.1238C43.8388 59.3575 44.1324 59.5834 44.4288 59.8047C44.5514 59.8963 44.6751 59.9862 44.7994 60.0755C44.8581 60.1177 45.1015 60.3007 44.9944 60.212C45.2246 60.3993 45.3215 60.4936 45.3807 60.6315C45.3892 60.6634 45.4009 60.7066 45.4167 60.7656C45.4584 60.9212 45.498 61.0764 45.5309 61.2342C45.8183 62.6126 46.0181 64.0141 46.2583 65.4015C46.4233 66.3547 47.6543 66.9751 48.5438 66.6894C49.5791 66.3569 50.0182 65.4424 49.8414 64.421Z" fill="#E6E6E6"/>
<path d="M65.8207 68.8828C65.0402 68.8849 64.2909 68.5776 63.7369 68.0284C63.183 67.4793 62.8698 66.7331 62.866 65.9535V63.8362C60.6466 64.0843 53.0469 64.0268 50.8684 63.6772V65.8689C50.8626 66.6478 50.5487 67.3928 49.9952 67.9415C49.4417 68.4902 48.6935 68.7982 47.9137 68.7982C47.1339 68.7982 46.3857 68.4902 45.8322 67.9415C45.2787 67.3928 44.9648 66.6478 44.959 65.8689V61.5658C42.0085 59.9285 39.5488 57.5345 37.8338 54.6307C36.1188 51.7269 35.2106 48.4186 35.203 45.0471C35.203 39.2663 37.8258 33.8736 42.399 30.2518C45.3725 27.889 48.9852 26.468 52.7733 26.1713C53.2874 26.131 53.8047 26.1106 54.3109 26.1106C56.0939 26.1106 64.1387 26.3858 66.1572 26.9658L70.7597 22.404C70.8274 22.3361 70.9138 22.2898 71.0079 22.271C71.102 22.2523 71.1996 22.262 71.2882 22.2988C71.3774 22.3343 71.4539 22.3959 71.5074 22.4756C71.561 22.5552 71.5892 22.6492 71.5884 22.7451V23.4704L72.4846 22.5838C72.5521 22.5158 72.6384 22.4694 72.7325 22.4507C72.8265 22.4319 72.9241 22.4416 73.0126 22.4785C73.1019 22.5139 73.1784 22.5755 73.2321 22.6552C73.2857 22.7349 73.3139 22.8289 73.3131 22.9249V31.03C75.6226 33.1097 77.3828 35.7263 78.4378 38.6479C79.4927 41.5696 79.8099 44.7061 79.3611 47.7795C78.9123 50.8528 77.7114 53.7682 75.8649 56.2671C74.0184 58.766 71.5833 60.7714 68.7753 62.1055V65.9535C68.7715 66.7331 68.4583 67.4793 67.9044 68.0284C67.3505 68.5776 66.6011 68.8849 65.8207 68.8828ZM63.0983 63.573V65.9535C63.1041 66.6709 63.3935 67.3569 63.9034 67.8621C64.4134 68.3673 65.1025 68.6507 65.8207 68.6507C66.5389 68.6507 67.228 68.3673 67.7379 67.8621C68.2478 67.3569 68.5372 66.6709 68.543 65.9535V61.959L68.6094 61.9275C71.7601 60.4341 74.4348 58.0978 76.3365 55.1778C78.7598 51.4517 79.7676 46.9821 79.1775 42.5781C78.5874 38.1741 76.4384 34.1265 73.1194 31.1681L73.0808 31.1335V22.9249C73.0816 22.875 73.0671 22.8261 73.0393 22.7847C73.0114 22.7433 72.9715 22.7114 72.925 22.6934C72.8787 22.6736 72.8275 22.6683 72.7782 22.6781C72.7288 22.6879 72.6836 22.7123 72.6484 22.7483L71.3561 24.0268V22.7451C71.3569 22.6952 71.3424 22.6463 71.3145 22.6049C71.2867 22.5635 71.2468 22.5316 71.2002 22.5136C71.1538 22.4939 71.1026 22.4886 71.0531 22.4984C71.0037 22.5083 70.9584 22.5329 70.9232 22.5689L66.2221 27.2283L66.1553 27.2074C64.2789 26.6208 56.1075 26.3426 54.3108 26.3426C53.8107 26.3426 53.2995 26.3628 52.7915 26.4026C49.0495 26.6957 45.4807 28.0994 42.5434 30.4336C38.026 34.0111 35.4352 39.3376 35.4352 45.0471C35.4429 48.3887 36.3463 51.6673 38.0514 54.5423C39.7564 57.4173 42.2011 59.7838 45.1314 61.396L45.1913 61.4292V65.8689C45.1973 66.5861 45.4867 67.272 45.9966 67.7771C46.5065 68.2822 47.1956 68.5656 47.9137 68.5656C48.6318 68.5656 49.3209 68.2822 49.8308 67.7771C50.3407 67.272 50.6301 66.5861 50.6361 65.8689V63.3995L50.7737 63.4253C52.7314 63.7932 60.9748 63.8512 62.967 63.5902L63.0983 63.573Z" fill="#3F3D56"/>
<path d="M58.4377 8.70703C56.325 8.70785 54.2954 9.52981 52.7787 10.9989C51.2619 12.4681 50.377 14.4691 50.3112 16.5784C50.3088 16.6608 50.3077 16.7443 50.3077 16.8278C50.3077 18.434 50.7845 20.004 51.6779 21.3395C52.5712 22.6749 53.8409 23.7158 55.3265 24.3305C56.8121 24.9451 58.4468 25.1059 60.0238 24.7926C61.6009 24.4792 63.0495 23.7058 64.1865 22.5701C65.3235 21.4344 66.0978 19.9874 66.4115 18.4121C66.7252 16.8368 66.5642 15.204 65.9489 13.7201C65.3336 12.2363 64.2915 10.968 62.9545 10.0756C61.6176 9.18331 60.0457 8.70703 58.4377 8.70703ZM58.4377 24.7166C56.3438 24.7144 54.3362 23.8826 52.8556 22.4036C51.375 20.9247 50.5422 18.9194 50.54 16.8278C50.54 16.7199 50.5423 16.6132 50.547 16.5076C50.6099 14.9623 51.1261 13.4696 52.0315 12.215C52.937 10.9605 54.1916 9.99941 55.6395 9.45138C57.0873 8.90336 58.6645 8.79253 60.1749 9.13268C61.6854 9.47284 63.0624 10.249 64.1347 11.3646C65.2071 12.4802 65.9275 13.886 66.2063 15.4073C66.4852 16.9286 66.3102 18.4981 65.7032 19.9209C65.0961 21.3436 64.0838 22.5568 62.792 23.4094C61.5003 24.2621 59.9861 24.7166 58.4377 24.7166Z" fill="#3F3D56"/>
<path d="M65.2901 16.829C65.2901 18.6443 64.5682 20.3853 63.2831 21.6689C61.998 22.9525 60.2551 23.6737 58.4377 23.6737C56.6203 23.6737 54.8774 22.9525 53.5923 21.6689C52.3072 20.3853 51.5852 18.6443 51.5852 16.829C51.5852 16.6121 51.5957 16.3986 51.6154 16.1875C51.7805 14.4355 52.6149 12.8144 53.9451 11.6607C55.2754 10.507 56.9994 9.90936 58.7592 9.99192C60.519 10.0745 62.1793 10.8309 63.3955 12.104C64.6116 13.3772 65.2901 15.0693 65.2901 16.829Z" fill="#E6E6E6"/>
<path d="M60.4783 17.2844C60.3122 17.0662 60.0937 16.8935 59.843 16.7821C59.5338 16.6519 59.2145 16.5471 58.8883 16.4688V14.6057C59.3898 14.6812 59.8601 14.8954 60.246 15.224L60.6247 14.4177C60.4069 14.224 60.1569 14.0697 59.886 13.9618C59.5857 13.8404 59.2704 13.7596 58.9487 13.7217V12.7773H58.0718V13.731C57.7332 13.7689 57.4066 13.8785 57.1137 14.0523C56.849 14.2088 56.6263 14.4269 56.4644 14.6881C56.3099 14.9429 56.2299 15.2359 56.2333 15.5338C56.2182 15.8566 56.3118 16.1752 56.4993 16.4387C56.6718 16.6668 56.8996 16.8472 57.1612 16.963C57.4754 17.097 57.8002 17.2045 58.1322 17.2844V19.0698C57.5405 19.0252 56.9766 18.8005 56.5167 18.4259L56.1381 19.2334C56.3953 19.4458 56.6877 19.6114 57.0022 19.7229C57.3467 19.8461 57.7067 19.9211 58.0719 19.9457V20.8819H58.9487V19.9283C59.4358 19.8751 59.8925 19.6659 60.2507 19.332C60.4084 19.1809 60.533 18.9987 60.6166 18.797C60.7001 18.5953 60.7409 18.3785 60.7362 18.1603C60.7507 17.8477 60.6599 17.5393 60.4783 17.2844ZM58.1322 16.2716C57.9186 16.2069 57.72 16.1004 57.548 15.9584C57.4799 15.8978 57.426 15.8229 57.3902 15.7391C57.3545 15.6552 57.3378 15.5645 57.3413 15.4734C57.335 15.2668 57.411 15.0661 57.5527 14.9154C57.7097 14.7573 57.9124 14.6523 58.1322 14.615V16.2716ZM59.4389 18.7403C59.2907 18.8921 59.0977 18.9925 58.8883 19.0269V17.4909C59.0885 17.5445 59.2758 17.6381 59.4389 17.7658C59.5007 17.8186 59.5498 17.8846 59.5826 17.9589C59.6153 18.0332 59.6309 18.1139 59.6281 18.1951C59.6362 18.3942 59.5686 18.589 59.4389 18.7403Z" fill="#F1563C"/>
<path d="M36.0044 39.2479C34.3839 39.0088 32.8341 38.4235 31.4606 37.5319C30.7801 37.0905 30.1502 36.5758 29.5821 35.9972C29.0214 35.4259 28.4849 34.7766 28.2072 34.0158C27.94 33.312 27.9538 32.5324 28.2457 31.8384C28.5336 31.1486 29.0836 30.601 29.7751 30.3157C30.4708 30.0386 31.3113 30.0089 31.9883 30.3124C32.3109 30.4537 32.5901 30.6781 32.7972 30.9627C32.8934 31.094 32.9647 31.2418 33.0074 31.3987C33.0471 31.541 33.0507 31.6909 33.0179 31.8348C32.9782 31.9786 32.9082 32.1122 32.8126 32.2267C32.717 32.3412 32.5979 32.434 32.4635 32.4988C32.1675 32.6504 31.8469 32.7481 31.5166 32.7872C31.1845 32.8324 30.7073 32.8736 30.4402 32.6073C30.3853 32.5546 30.342 32.4909 30.3133 32.4204C30.2933 32.3664 30.2864 32.3084 30.2933 32.2512C30.2894 32.2764 30.3094 32.1964 30.3083 32.1996C30.3041 32.2115 30.2858 32.2403 30.3118 32.196C30.3199 32.1814 30.3289 32.1673 30.3388 32.1539C30.33 32.1653 30.3106 32.1843 30.3452 32.1517C30.3739 32.1204 30.4106 32.0977 30.4514 32.0862C30.4675 32.0815 30.4838 32.0778 30.4999 32.0734C30.5409 32.0622 30.4591 32.074 30.501 32.0727C30.5172 32.0721 30.5336 32.0725 30.5497 32.0718C30.5908 32.07 30.5091 32.0606 30.5485 32.0705C30.5638 32.0744 30.579 32.0781 30.5941 32.0829C30.6268 32.0932 30.5709 32.0588 30.5931 32.0845C30.6191 32.1146 30.5657 32.0553 30.5953 32.0844C30.61 32.0988 30.6239 32.1141 30.6368 32.1301C30.6881 32.1807 30.7573 32.2091 30.8294 32.2091C30.9014 32.2091 30.9706 32.1807 31.0219 32.1301C31.0714 32.0783 31.099 32.0095 31.099 31.9378C31.099 31.8662 31.0714 31.7973 31.0219 31.7456C30.7534 31.4131 30.2231 31.4953 29.9516 31.7762C29.6052 32.1345 29.7424 32.7024 30.0793 33.015C30.4607 33.3689 31.0008 33.3935 31.4914 33.3342C31.906 33.2945 32.31 33.1804 32.6841 32.9975C33.0558 32.8151 33.3464 32.5014 33.4999 32.1172C33.5691 31.9121 33.594 31.6947 33.5729 31.4794C33.5517 31.264 33.485 31.0556 33.3772 30.8679C32.944 30.0545 32.0472 29.6375 31.1607 29.5652C30.7042 29.5295 30.2453 29.5846 29.8103 29.7272C29.3753 29.8699 28.973 30.0972 28.6265 30.3962C27.9588 30.9966 27.5477 31.8304 27.4781 32.7251C27.4007 33.6528 27.761 34.5536 28.2864 35.3023C28.8363 36.0629 29.4926 36.7408 30.2352 37.3154C31.6869 38.4731 33.3898 39.2753 35.2075 39.6578C35.4237 39.7024 35.6411 39.7406 35.8596 39.7724C35.9292 39.7892 36.0025 39.7789 36.0647 39.7436C36.1269 39.7083 36.1734 39.6507 36.1945 39.5824C36.2132 39.5129 36.2037 39.4388 36.1681 39.3762C36.1325 39.3136 36.0737 39.2675 36.0044 39.2479L36.0044 39.2479Z" fill="#3F3D56"/>
<path d="M61.9491 27.4308C59.5749 27.3974 57.2081 27.4576 54.8489 27.6114C54.0425 27.664 53.3448 27.9487 53.3448 28.4272C53.3448 28.8273 54.0369 29.2959 54.8489 29.243C57.2069 29.0892 59.5737 29.029 61.9491 29.0624C63.8856 29.0897 63.8845 27.4581 61.9491 27.4308Z" fill="#CCCCCC"/>
<path d="M58.44 28.9792C58.1834 28.9792 52.156 28.9696 52.156 28.138C52.156 27.3064 58.1834 27.2969 58.44 27.2969C58.6966 27.2969 64.724 27.3064 64.724 28.138C64.724 28.9696 58.6966 28.9792 58.44 28.9792ZM52.3916 28.138C52.5566 28.3901 54.7722 28.7472 58.44 28.7472C62.1078 28.7472 64.3233 28.3901 64.4883 28.138C64.3234 27.8859 62.1078 27.5289 58.44 27.5289C54.7722 27.5289 52.5566 27.8859 52.3916 28.138V28.138Z" fill="#3F3D56"/>
<path d="M77.5634 50.8429C78.8977 50.8059 80.5583 50.7597 81.8376 49.8262C82.2185 49.5369 82.5315 49.1678 82.7547 48.7449C82.9778 48.322 83.1056 47.8554 83.1292 47.378C83.1553 46.6408 82.8886 45.9973 82.3783 45.5666C81.7101 45.0026 80.7344 44.8703 79.6829 45.179L80.7724 37.2266L79.9726 37.1172L78.6919 46.4662L79.3597 46.1601C80.134 45.8054 81.1968 45.6248 81.8573 46.1823C82.0194 46.3281 82.1458 46.5092 82.2265 46.7117C82.3072 46.9141 82.34 47.1324 82.3225 47.3496C82.3029 47.705 82.207 48.052 82.0411 48.3669C81.8753 48.6819 81.6434 48.9576 81.3614 49.175C80.3658 49.9014 79.0422 49.9951 77.5409 50.037L77.5634 50.8429Z" fill="#3F3D56"/>
<path d="M75.3523 37.9102H71.0048V38.7164H75.3523V37.9102Z" fill="#3F3D56"/>
<path d="M102.512 68.9364H16.7644C16.7278 68.9363 16.6927 68.9217 16.6669 68.8958C16.641 68.8699 16.6265 68.8349 16.6265 68.7983C16.6265 68.7617 16.641 68.7267 16.6669 68.7008C16.6927 68.6749 16.7278 68.6603 16.7644 68.6602H102.512C102.549 68.6602 102.584 68.6747 102.61 68.7006C102.636 68.7265 102.651 68.7617 102.651 68.7983C102.651 68.8349 102.636 68.8701 102.61 68.896C102.584 68.9219 102.549 68.9364 102.512 68.9364Z" fill="#3F3D56"/>
</svg>
