<svg width="120" height="82" viewBox="0 0 120 82" fill="none" xmlns="http://www.w3.org/2000/svg">
<path d="M98.9079 15.8928H67.2715V15.2383H52.9263V15.8928H21.1596C20.8785 15.8928 20.6003 15.9484 20.3406 16.0564C20.081 16.1643 19.8451 16.3225 19.6464 16.522C19.4477 16.7215 19.29 16.9583 19.1825 17.2189C19.0749 17.4796 19.0196 17.7589 19.0196 18.041V61.5271C19.0196 62.0968 19.245 62.6432 19.6464 63.0461C20.0477 63.4489 20.592 63.6752 21.1596 63.6752H98.9079C99.4755 63.6752 100.02 63.4489 100.421 63.0461C100.822 62.6432 101.048 62.0968 101.048 61.5271V18.041C101.048 17.7589 100.993 17.4796 100.885 17.2189C100.777 16.9583 100.62 16.7215 100.421 16.522C100.222 16.3225 99.9865 16.1643 99.7268 16.0564C99.4672 15.9484 99.1889 15.8928 98.9079 15.8928Z" fill="#DEDEDE"/>
<path d="M98.1782 19.6875H21.8892V62.8892H98.1782V19.6875Z" fill="white"/>
<path d="M59.9685 18.5123C60.4006 18.5123 60.7509 18.1607 60.7509 17.7269C60.7509 17.2931 60.4006 16.9414 59.9685 16.9414C59.5363 16.9414 59.186 17.2931 59.186 17.7269C59.186 18.1607 59.5363 18.5123 59.9685 18.5123Z" fill="#F1563C"/>
<path d="M115.032 68.9375H4.33736V69.2407H115.032V68.9375Z" fill="#3F3D56"/>
<path d="M70.4569 41.7748V38.5786C70.4569 38.0636 70.3559 37.5537 70.1596 37.0779C69.9632 36.6021 69.6755 36.1698 69.3127 35.8056C68.9499 35.4415 68.5193 35.1526 68.0453 34.9555C67.5713 34.7584 67.0633 34.657 66.5503 34.657H63.3663C63.3663 34.2256 61.9851 33.8721 60.23 33.8386V29.9841C60.7807 29.9145 61.2842 29.6368 61.638 29.2076C61.9919 28.7785 62.1695 28.2301 62.1348 27.674C62.1 27.118 61.8555 26.5962 61.451 26.2148C61.0464 25.8334 60.5123 25.6211 59.9573 25.6211C59.4023 25.6211 58.8682 25.8334 58.4637 26.2148C58.0592 26.5962 57.8146 27.118 57.7799 27.674C57.7451 28.2301 57.9227 28.7785 58.2766 29.2076C58.6305 29.6368 59.134 29.9145 59.6846 29.9841V33.8386C57.9295 33.8721 56.5484 34.2256 56.5484 34.657H52.8189C52.3059 34.657 51.7979 34.7584 51.3239 34.9555C50.8499 35.1526 50.4193 35.4415 50.0565 35.8056C49.6937 36.1698 49.406 36.6021 49.2097 37.0779C49.0133 37.5537 48.9123 38.0636 48.9123 38.5786V41.7748C48.4604 41.7748 48.0941 43.3069 48.0941 45.1969C48.0941 47.0868 48.4604 48.6189 48.9123 48.6189V52.3626C48.9123 52.8776 49.0133 53.3876 49.2097 53.8634C49.406 54.3392 49.6937 54.7715 50.0565 55.1356C50.4193 55.4998 50.8499 55.7887 51.3239 55.9857C51.7979 56.1828 52.3059 56.2843 52.8189 56.2843H66.5503C67.0633 56.2843 67.5713 56.1828 68.0453 55.9857C68.5193 55.7887 68.9499 55.4998 69.3127 55.1356C69.6755 54.7715 69.9632 54.3392 70.1596 53.8634C70.3559 53.3876 70.4569 52.8776 70.4569 52.3626V48.6189C70.9088 48.6189 71.2751 47.0868 71.2751 45.1969C71.2751 43.3069 70.9088 41.7748 70.4569 41.7748Z" fill="#F1563C"/>
<path d="M53.6011 35.8867H65.7681C66.6862 35.8867 67.5667 36.2528 68.2158 36.9045C68.865 37.5561 69.2297 38.44 69.2297 39.3616V51.5753C69.2297 52.4969 68.865 53.3807 68.2158 54.0324C67.5667 54.684 66.6862 55.0501 65.7681 55.0501H53.6011C52.683 55.0501 51.8026 54.684 51.1534 54.0324C50.5042 53.3807 50.1395 52.4969 50.1395 51.5753V39.3616C50.1395 38.44 50.5042 37.5561 51.1534 36.9045C51.8026 36.2528 52.683 35.8867 53.6011 35.8867Z" fill="white"/>
<path d="M55.3211 44.9875C54.6704 44.9867 54.0465 44.7269 53.5863 44.265C53.1262 43.8031 52.8674 43.1768 52.8666 42.5236C52.8666 42.4873 52.881 42.4525 52.9066 42.4268C52.9321 42.4011 52.9668 42.3867 53.003 42.3867C53.0392 42.3867 53.0738 42.4011 53.0994 42.4268C53.125 42.4525 53.1394 42.4873 53.1394 42.5236C53.1394 43.1044 53.3692 43.6615 53.7784 44.0722C54.1875 44.483 54.7425 44.7137 55.3211 44.7137C55.8997 44.7137 56.4547 44.483 56.8638 44.0722C57.273 43.6615 57.5028 43.1044 57.5028 42.5236C57.5028 42.4873 57.5172 42.4525 57.5428 42.4268C57.5683 42.4011 57.603 42.3867 57.6392 42.3867C57.6754 42.3867 57.71 42.4011 57.7356 42.4268C57.7612 42.4525 57.7755 42.4873 57.7755 42.5236C57.7748 43.1768 57.516 43.8031 57.0558 44.265C56.5957 44.7269 55.9718 44.9867 55.3211 44.9875Z" fill="#F1563C"/>
<path d="M59.6846 49.6392C59.1785 49.6386 58.6932 49.4365 58.3353 49.0772C57.9775 48.718 57.7761 48.2309 57.7756 47.7228C57.7756 47.6865 57.7899 47.6517 57.8155 47.626C57.8411 47.6004 57.8758 47.5859 57.9119 47.5859C57.9481 47.5859 57.9828 47.6004 58.0083 47.626C58.0339 47.6517 58.0483 47.6865 58.0483 47.7228C58.0483 48.1585 58.2207 48.5763 58.5275 48.8843C58.8344 49.1923 59.2506 49.3654 59.6846 49.3654C60.1186 49.3654 60.5348 49.1923 60.8416 48.8843C61.1485 48.5763 61.3209 48.1585 61.3209 47.7228C61.3209 47.6865 61.3353 47.6517 61.3608 47.626C61.3864 47.6004 61.4211 47.5859 61.4573 47.5859C61.4934 47.5859 61.5281 47.6004 61.5537 47.626C61.5792 47.6517 61.5936 47.6865 61.5936 47.7228C61.593 48.2309 61.3917 48.718 61.0338 49.0772C60.676 49.4365 60.1907 49.6386 59.6846 49.6392Z" fill="#F1563C"/>
<path d="M64.0481 44.9875C63.3973 44.9867 62.7734 44.7269 62.3133 44.265C61.8532 43.8031 61.5943 43.1768 61.5936 42.5236C61.5936 42.4873 61.608 42.4525 61.6335 42.4268C61.6591 42.4011 61.6938 42.3867 61.73 42.3867C61.7661 42.3867 61.8008 42.4011 61.8264 42.4268C61.852 42.4525 61.8663 42.4873 61.8663 42.5236C61.8663 43.1044 62.0962 43.6615 62.5053 44.0722C62.9145 44.483 63.4694 44.7137 64.0481 44.7137C64.6267 44.7137 65.1816 44.483 65.5908 44.0722C65.9999 43.6615 66.2298 43.1044 66.2298 42.5236C66.2298 42.4873 66.2442 42.4525 66.2697 42.4268C66.2953 42.4011 66.33 42.3867 66.3661 42.3867C66.4023 42.3867 66.437 42.4011 66.4626 42.4268C66.4881 42.4525 66.5025 42.4873 66.5025 42.5236C66.5018 43.1768 66.2429 43.8031 65.7828 44.265C65.3227 44.7269 64.6988 44.9867 64.0481 44.9875Z" fill="#F1563C"/>
<path d="M55.3211 43.8936C55.9988 43.8936 56.5483 43.342 56.5483 42.6616C56.5483 41.9812 55.9988 41.4297 55.3211 41.4297C54.6433 41.4297 54.0938 41.9812 54.0938 42.6616C54.0938 43.342 54.6433 43.8936 55.3211 43.8936Z" fill="#F1563C"/>
<path d="M64.048 43.8936C64.7258 43.8936 65.2753 43.342 65.2753 42.6616C65.2753 41.9812 64.7258 41.4297 64.048 41.4297C63.3702 41.4297 62.8208 41.9812 62.8208 42.6616C62.8208 43.342 63.3702 43.8936 64.048 43.8936Z" fill="#F1563C"/>
<path d="M59.6846 48.9583C60.2871 48.9583 60.7755 48.7132 60.7755 48.4108C60.7755 48.1084 60.2871 47.8633 59.6846 47.8633C59.0821 47.8633 58.5937 48.1084 58.5937 48.4108C58.5937 48.7132 59.0821 48.9583 59.6846 48.9583Z" fill="#F1563C"/>
<path d="M102.611 62.3555H95.1659V61.7915C95.1659 61.7768 95.1632 61.7623 95.1578 61.7487C95.1525 61.7352 95.1446 61.7228 95.1348 61.7124C95.1249 61.7021 95.1132 61.6938 95.1002 61.6882C95.0873 61.6826 95.0735 61.6797 95.0595 61.6797H92.5068C92.4929 61.6797 92.479 61.6826 92.4661 61.6882C92.4532 61.6938 92.4415 61.7021 92.4316 61.7124C92.4217 61.7228 92.4139 61.7352 92.4086 61.7487C92.4032 61.7623 92.4005 61.7768 92.4005 61.7915V62.3555H90.805V61.7915C90.805 61.7768 90.8023 61.7623 90.7969 61.7487C90.7916 61.7352 90.7837 61.7228 90.7739 61.7124C90.764 61.7021 90.7523 61.6938 90.7393 61.6882C90.7264 61.6826 90.7126 61.6797 90.6986 61.6797H88.1459C88.132 61.6797 88.1181 61.6826 88.1052 61.6882C88.0923 61.6938 88.0806 61.7021 88.0707 61.7124C88.0608 61.7228 88.053 61.7352 88.0477 61.7487C88.0423 61.7623 88.0396 61.7768 88.0396 61.7915V62.3555H86.4441V61.7915C86.4441 61.7768 86.4414 61.7623 86.436 61.7487C86.4307 61.7352 86.4228 61.7228 86.413 61.7124C86.4031 61.7021 86.3914 61.6938 86.3785 61.6882C86.3656 61.6826 86.3517 61.6797 86.3378 61.6797H83.785C83.7711 61.6797 83.7572 61.6826 83.7443 61.6882C83.7314 61.6938 83.7197 61.7021 83.7098 61.7124C83.7 61.7228 83.6921 61.7352 83.6868 61.7487C83.6814 61.7623 83.6787 61.7768 83.6787 61.7915V62.3555H82.0832V61.7915C82.0832 61.7768 82.0805 61.7623 82.0751 61.7487C82.0698 61.7352 82.062 61.7228 82.0521 61.7124C82.0422 61.7021 82.0305 61.6938 82.0176 61.6882C82.0047 61.6826 81.9908 61.6797 81.9769 61.6797H79.4241C79.4102 61.6797 79.3963 61.6826 79.3834 61.6882C79.3705 61.6938 79.3588 61.7021 79.3489 61.7124C79.3391 61.7228 79.3312 61.7352 79.3259 61.7487C79.3205 61.7623 79.3178 61.7768 79.3178 61.7915V62.3555H77.7223V61.7915C77.7223 61.7768 77.7196 61.7623 77.7142 61.7487C77.7089 61.7352 77.7011 61.7228 77.6912 61.7124C77.6813 61.7021 77.6696 61.6938 77.6567 61.6882C77.6438 61.6826 77.6299 61.6797 77.616 61.6797H75.0633C75.0493 61.6797 75.0354 61.6826 75.0225 61.6882C75.0096 61.6938 74.9979 61.7021 74.988 61.7124C74.9782 61.7228 74.9703 61.7352 74.965 61.7487C74.9596 61.7623 74.9569 61.7768 74.9569 61.7915V62.3555H73.3614V61.7915C73.3614 61.7768 73.3587 61.7623 73.3533 61.7487C73.348 61.7352 73.3402 61.7228 73.3303 61.7124C73.3204 61.7021 73.3087 61.6938 73.2958 61.6882C73.2829 61.6826 73.269 61.6797 73.2551 61.6797H70.7024C70.6884 61.6797 70.6746 61.6826 70.6617 61.6882C70.6487 61.6938 70.637 61.7021 70.6271 61.7124C70.6173 61.7228 70.6094 61.7352 70.6041 61.7487C70.5987 61.7623 70.596 61.7768 70.596 61.7915V62.3555H69.0005V61.7915C69.0005 61.7768 68.9978 61.7623 68.9924 61.7487C68.9871 61.7352 68.9793 61.7228 68.9694 61.7124C68.9595 61.7021 68.9478 61.6938 68.9349 61.6882C68.922 61.6826 68.9081 61.6797 68.8942 61.6797H48.8979C48.8839 61.6797 48.8701 61.6826 48.8572 61.6882C48.8443 61.6938 48.8325 61.7021 48.8227 61.7124C48.8128 61.7228 48.805 61.7352 48.7996 61.7487C48.7943 61.7623 48.7915 61.7768 48.7915 61.7915V62.3555H47.1961V61.7915C47.1961 61.7768 47.1933 61.7623 47.188 61.7487C47.1826 61.7352 47.1748 61.7228 47.1649 61.7124C47.155 61.7021 47.1433 61.6938 47.1304 61.6882C47.1175 61.6826 47.1037 61.6797 47.0897 61.6797H44.537C44.523 61.6797 44.5092 61.6826 44.4963 61.6882C44.4834 61.6938 44.4717 61.7021 44.4618 61.7124C44.4519 61.7228 44.4441 61.7352 44.4387 61.7487C44.4334 61.7623 44.4306 61.7768 44.4306 61.7915V62.3555H42.8352V61.7915C42.8352 61.7768 42.8324 61.7623 42.8271 61.7487C42.8217 61.7352 42.8139 61.7228 42.804 61.7124C42.7941 61.7021 42.7824 61.6938 42.7695 61.6882C42.7566 61.6826 42.7428 61.6797 42.7288 61.6797H40.1761C40.1621 61.6797 40.1483 61.6826 40.1354 61.6882C40.1225 61.6938 40.1108 61.7021 40.1009 61.7124C40.091 61.7228 40.0832 61.7352 40.0778 61.7487C40.0725 61.7623 40.0697 61.7768 40.0697 61.7915V62.3555H38.4743V61.7915C38.4743 61.7768 38.4715 61.7623 38.4662 61.7487C38.4608 61.7352 38.453 61.7228 38.4431 61.7124C38.4333 61.7021 38.4215 61.6938 38.4086 61.6882C38.3957 61.6826 38.3819 61.6797 38.3679 61.6797H35.8152C35.8012 61.6797 35.7874 61.6826 35.7745 61.6882C35.7616 61.6938 35.7499 61.7021 35.74 61.7124C35.7301 61.7228 35.7223 61.7352 35.7169 61.7487C35.7116 61.7623 35.7088 61.7768 35.7088 61.7915V62.3555H34.1134V61.7915C34.1134 61.7768 34.1106 61.7623 34.1053 61.7487C34.0999 61.7352 34.0921 61.7228 34.0822 61.7124C34.0724 61.7021 34.0606 61.6938 34.0477 61.6882C34.0348 61.6826 34.021 61.6797 34.007 61.6797H31.4543C31.4403 61.6797 31.4265 61.6826 31.4136 61.6882C31.4007 61.6938 31.389 61.7021 31.3791 61.7124C31.3692 61.7228 31.3614 61.7352 31.356 61.7487C31.3507 61.7623 31.3479 61.7768 31.3479 61.7915V62.3555H29.7525V61.7915C29.7525 61.7768 29.7497 61.7623 29.7444 61.7487C29.7391 61.7352 29.7312 61.7228 29.7213 61.7124C29.7115 61.7021 29.6997 61.6938 29.6868 61.6882C29.6739 61.6826 29.6601 61.6797 29.6461 61.6797H27.0934C27.0794 61.6797 27.0656 61.6826 27.0527 61.6882C27.0398 61.6938 27.0281 61.7021 27.0182 61.7124C27.0083 61.7228 27.0005 61.7352 26.9951 61.7487C26.9898 61.7623 26.987 61.7768 26.987 61.7915V62.3555H25.3916V61.7915C25.3916 61.7768 25.3888 61.7623 25.3835 61.7487C25.3782 61.7352 25.3703 61.7228 25.3604 61.7124C25.3506 61.7021 25.3388 61.6938 25.3259 61.6882C25.313 61.6826 25.2992 61.6797 25.2852 61.6797H22.7325C22.7186 61.6797 22.7047 61.6826 22.6918 61.6882C22.6789 61.6938 22.6672 61.7021 22.6573 61.7124C22.6474 61.7228 22.6396 61.7352 22.6343 61.7487C22.6289 61.7623 22.6262 61.7768 22.6262 61.7915V62.3555H17.7334C17.3982 62.3555 17.0663 62.4249 16.7566 62.5597C16.4469 62.6946 16.1654 62.8923 15.9284 63.1415C15.6914 63.3907 15.5033 63.6866 15.375 64.0122C15.2468 64.3378 15.1807 64.6867 15.1807 65.0392V66.2526C15.1807 66.9644 15.4497 67.647 15.9284 68.1503C16.4071 68.6536 17.0564 68.9363 17.7334 68.9363H102.611C103.288 68.9363 103.938 68.6536 104.416 68.1503C104.895 67.647 105.164 66.9644 105.164 66.2526V65.0392C105.164 64.6867 105.098 64.3378 104.97 64.0122C104.841 63.6866 104.653 63.3907 104.416 63.1415C104.179 62.8923 103.898 62.6946 103.588 62.5597C103.279 62.4249 102.947 62.3555 102.611 62.3555Z" fill="#DEDEDE"/>
<path d="M84.4512 57.6055H33.5587V57.9087H84.4512V57.6055Z" fill="#F1563C"/>
</svg>
