<svg width="166" height="113" viewBox="0 0 166 113" fill="none" xmlns="http://www.w3.org/2000/svg">
<path d="M136.823 21.902H93.0589V21H73.2148V21.902H29.2707C28.882 21.902 28.497 21.9786 28.1379 22.1273C27.7787 22.2761 27.4524 22.4942 27.1775 22.7691C26.9026 23.0439 26.6845 23.3703 26.5358 23.7294C26.387 24.0886 26.3104 24.4735 26.3104 24.8623V84.7882C26.3104 85.5733 26.6223 86.3263 27.1775 86.8814C27.7326 87.4366 28.4856 87.7485 29.2707 87.7485H136.823C137.608 87.7485 138.361 87.4366 138.916 86.8814C139.471 86.3263 139.783 85.5733 139.783 84.7882V24.8623C139.783 24.4735 139.706 24.0886 139.558 23.7294C139.409 23.3703 139.191 23.0439 138.916 22.7691C138.641 22.4942 138.315 22.2761 137.955 22.1273C137.596 21.9786 137.211 21.902 136.823 21.902Z" fill="#DEDEDE"/>
<path d="M135.813 27.1328H30.2802V86.6669H135.813V27.1328Z" fill="white"/>
<path d="M82.9564 25.5105C83.5542 25.5105 84.0388 25.0259 84.0388 24.4281C84.0388 23.8303 83.5542 23.3457 82.9564 23.3457C82.3586 23.3457 81.874 23.8303 81.874 24.4281C81.874 25.0259 82.3586 25.5105 82.9564 25.5105Z" fill="#F1563C"/>
<path d="M159.128 95H6V95.4178H159.128V95Z" fill="#3F3D56"/>
<path d="M97.4655 57.5634V53.1588C97.4655 52.4491 97.3257 51.7464 97.0541 51.0907C96.7825 50.4351 96.3845 49.8393 95.8826 49.3375C95.3808 48.8357 94.785 48.4376 94.1294 48.166C93.4737 47.8944 92.771 47.7547 92.0613 47.7547H87.6568C87.6568 47.1601 85.7461 46.673 83.3183 46.6268V41.3152C84.08 41.2192 84.7765 40.8366 85.266 40.2452C85.7555 39.6538 86.0012 38.898 85.9532 38.1318C85.9051 37.3656 85.5668 36.6465 85.0072 36.1209C84.4476 35.5953 83.7087 35.3027 82.941 35.3027C82.1733 35.3027 81.4344 35.5953 80.8748 36.1209C80.3152 36.6465 79.9769 37.3656 79.9289 38.1318C79.8808 38.898 80.1265 39.6538 80.616 40.2452C81.1056 40.8366 81.8021 41.2192 82.5638 41.3152V46.6268C80.1359 46.673 78.2253 47.1601 78.2253 47.7547H73.0662C72.3565 47.7547 71.6538 47.8944 70.9981 48.166C70.3425 48.4376 69.7467 48.8357 69.2449 49.3375C68.7431 49.8393 68.345 50.4351 68.0734 51.0907C67.8018 51.7464 67.662 52.4491 67.662 53.1588V57.5634C67.037 57.5634 66.5303 59.6747 66.5303 62.2791C66.5303 64.8835 67.037 66.9948 67.662 66.9948V72.1539C67.662 72.8636 67.8018 73.5663 68.0734 74.222C68.345 74.8777 68.7431 75.4734 69.2449 75.9752C69.7467 76.477 70.3425 76.8751 70.9981 77.1467C71.6538 77.4183 72.3565 77.5581 73.0662 77.5581H92.0613C92.771 77.5581 93.4737 77.4183 94.1294 77.1467C94.785 76.8751 95.3808 76.477 95.8826 75.9752C96.3845 75.4734 96.7825 74.8777 97.0541 74.222C97.3257 73.5663 97.4655 72.8636 97.4655 72.1539V66.9948C98.0905 66.9948 98.5972 64.8835 98.5972 62.2791C98.5972 59.6747 98.0905 57.5634 97.4655 57.5634Z" fill="#F1563C"/>
<path d="M74.1481 49.4531H90.9792C92.2492 49.4531 93.4672 49.9576 94.3652 50.8556C95.2632 51.7537 95.7677 52.9716 95.7677 54.2416V71.0727C95.7677 72.3427 95.2632 73.5607 94.3652 74.4587C93.4672 75.3567 92.2492 75.8612 90.9792 75.8612H74.1481C72.8781 75.8612 71.6602 75.3567 70.7621 74.4587C69.8641 73.5607 69.3596 72.3427 69.3596 71.0727V54.2416C69.3596 52.9716 69.8641 51.7537 70.7621 50.8556C71.6602 49.9576 72.8781 49.4531 74.1481 49.4531Z" fill="white"/>
<path d="M76.5275 61.9961C75.6273 61.9951 74.7643 61.637 74.1278 61.0005C73.4913 60.3639 73.1332 59.5009 73.1322 58.6007C73.1322 58.5507 73.1521 58.5027 73.1875 58.4674C73.2228 58.432 73.2708 58.4121 73.3208 58.4121C73.3709 58.4121 73.4188 58.432 73.4542 58.4674C73.4896 58.5027 73.5095 58.5507 73.5095 58.6007C73.5095 59.4012 73.8274 60.1688 74.3934 60.7348C74.9594 61.3008 75.7271 61.6188 76.5275 61.6188C77.328 61.6188 78.0956 61.3008 78.6616 60.7348C79.2276 60.1688 79.5456 59.4012 79.5456 58.6007C79.5456 58.5507 79.5655 58.5027 79.6008 58.4674C79.6362 58.432 79.6842 58.4121 79.7342 58.4121C79.7843 58.4121 79.8322 58.432 79.8676 58.4674C79.903 58.5027 79.9228 58.5507 79.9228 58.6007C79.9218 59.5009 79.5638 60.3639 78.9273 61.0005C78.2907 61.637 77.4277 61.995 76.5275 61.9961Z" fill="#F1563C"/>
<path d="M82.5637 68.4095C81.8635 68.4087 81.1923 68.1303 80.6972 67.6352C80.2021 67.1401 79.9236 66.4689 79.9229 65.7687C79.9229 65.7187 79.9427 65.6707 79.9781 65.6353C80.0135 65.6 80.0614 65.5801 80.1115 65.5801C80.1615 65.5801 80.2095 65.6 80.2449 65.6353C80.2802 65.6707 80.3001 65.7187 80.3001 65.7687C80.3001 66.369 80.5386 66.9448 80.9631 67.3693C81.3876 67.7938 81.9633 68.0323 82.5637 68.0323C83.164 68.0323 83.7397 67.7938 84.1642 67.3693C84.5887 66.9448 84.8272 66.369 84.8272 65.7687C84.8272 65.7187 84.8471 65.6707 84.8825 65.6353C84.9178 65.6 84.9658 65.5801 85.0158 65.5801C85.0659 65.5801 85.1138 65.6 85.1492 65.6353C85.1846 65.6707 85.2045 65.7187 85.2045 65.7687C85.2037 66.4689 84.9252 67.1401 84.4301 67.6352C83.9351 68.1303 83.2638 68.4087 82.5637 68.4095Z" fill="#F1563C"/>
<path d="M88.5998 61.9961C87.6996 61.9951 86.8366 61.637 86.2001 61.0005C85.5635 60.3639 85.2055 59.5009 85.2045 58.6007C85.2045 58.5507 85.2243 58.5027 85.2597 58.4674C85.2951 58.432 85.3431 58.4121 85.3931 58.4121C85.4431 58.4121 85.4911 58.432 85.5265 58.4674C85.5619 58.5027 85.5817 58.5507 85.5817 58.6007C85.5817 59.4012 85.8997 60.1688 86.4657 60.7348C87.0317 61.3008 87.7994 61.6188 88.5998 61.6188C89.4002 61.6188 90.1679 61.3008 90.7339 60.7348C91.2999 60.1688 91.6179 59.4012 91.6179 58.6007C91.6179 58.5507 91.6377 58.5027 91.6731 58.4674C91.7085 58.432 91.7565 58.4121 91.8065 58.4121C91.8565 58.4121 91.9045 58.432 91.9399 58.4674C91.9753 58.5027 91.9951 58.5507 91.9951 58.6007C91.9941 59.5009 91.636 60.3639 90.9995 61.0005C90.363 61.637 89.5 61.995 88.5998 61.9961Z" fill="#F1563C"/>
<path d="M76.5275 60.4891C77.4651 60.4891 78.2252 59.729 78.2252 58.7914C78.2252 57.8538 77.4651 57.0938 76.5275 57.0938C75.5899 57.0938 74.8298 57.8538 74.8298 58.7914C74.8298 59.729 75.5899 60.4891 76.5275 60.4891Z" fill="#F1563C"/>
<path d="M88.5998 60.4891C89.5374 60.4891 90.2974 59.729 90.2974 58.7914C90.2974 57.8538 89.5374 57.0938 88.5998 57.0938C87.6622 57.0938 86.9021 57.8538 86.9021 58.7914C86.9021 59.729 87.6622 60.4891 88.5998 60.4891Z" fill="#F1563C"/>
<path d="M82.5637 67.468C83.3971 67.468 84.0728 67.1302 84.0728 66.7135C84.0728 66.2968 83.3971 65.959 82.5637 65.959C81.7303 65.959 81.0547 66.2968 81.0547 66.7135C81.0547 67.1302 81.7303 67.468 82.5637 67.468Z" fill="#F1563C"/>
<path d="M141.946 85.9313H131.646V85.1541C131.646 85.1339 131.642 85.1138 131.635 85.0951C131.628 85.0764 131.617 85.0594 131.603 85.0451C131.589 85.0308 131.573 85.0195 131.555 85.0117C131.537 85.004 131.518 85 131.499 85H127.968C127.948 85 127.929 85.004 127.911 85.0117C127.894 85.0195 127.877 85.0308 127.864 85.0451C127.85 85.0594 127.839 85.0764 127.832 85.0951C127.824 85.1138 127.821 85.1339 127.821 85.1541V85.9313H125.614V85.1541C125.614 85.1339 125.61 85.1138 125.602 85.0951C125.595 85.0764 125.584 85.0594 125.571 85.0451C125.557 85.0308 125.541 85.0195 125.523 85.0117C125.505 85.004 125.486 85 125.466 85H121.935C121.916 85 121.897 85.004 121.879 85.0117C121.861 85.0195 121.845 85.0308 121.831 85.0451C121.817 85.0594 121.807 85.0764 121.799 85.0951C121.792 85.1138 121.788 85.1339 121.788 85.1541V85.9313H119.581V85.1541C119.581 85.1339 119.577 85.1138 119.57 85.0951C119.562 85.0764 119.552 85.0594 119.538 85.0451C119.524 85.0308 119.508 85.0195 119.49 85.0117C119.472 85.004 119.453 85 119.434 85H115.903C115.883 85 115.864 85.004 115.846 85.0117C115.828 85.0195 115.812 85.0308 115.799 85.0451C115.785 85.0594 115.774 85.0764 115.767 85.0951C115.759 85.1138 115.755 85.1339 115.755 85.1541V85.9313H113.548V85.1541C113.548 85.1339 113.545 85.1138 113.537 85.0951C113.53 85.0764 113.519 85.0594 113.505 85.0451C113.492 85.0308 113.475 85.0195 113.458 85.0117C113.44 85.004 113.421 85 113.401 85H109.87C109.851 85 109.832 85.004 109.814 85.0117C109.796 85.0195 109.78 85.0308 109.766 85.0451C109.752 85.0594 109.742 85.0764 109.734 85.0951C109.727 85.1138 109.723 85.1339 109.723 85.1541V85.9313H107.516V85.1541C107.516 85.1339 107.512 85.1138 107.505 85.0951C107.497 85.0764 107.486 85.0594 107.473 85.0451C107.459 85.0308 107.443 85.0195 107.425 85.0117C107.407 85.004 107.388 85 107.369 85H103.837C103.818 85 103.799 85.004 103.781 85.0117C103.763 85.0195 103.747 85.0308 103.733 85.0451C103.72 85.0594 103.709 85.0764 103.702 85.0951C103.694 85.1138 103.69 85.1339 103.69 85.1541V85.9313H101.483V85.1541C101.483 85.1339 101.48 85.1138 101.472 85.0951C101.465 85.0764 101.454 85.0594 101.44 85.0451C101.427 85.0308 101.41 85.0195 101.392 85.0117C101.375 85.004 101.355 85 101.336 85H97.8049C97.7856 85 97.7665 85.004 97.7486 85.0117C97.7308 85.0195 97.7145 85.0308 97.7009 85.0451C97.6872 85.0594 97.6764 85.0764 97.669 85.0951C97.6616 85.1138 97.6578 85.1339 97.6578 85.1541V85.9313H95.4507V85.1541C95.4507 85.1339 95.4469 85.1138 95.4395 85.0951C95.4322 85.0764 95.4213 85.0594 95.4077 85.0451C95.394 85.0308 95.3778 85.0195 95.3599 85.0117C95.3421 85.004 95.3229 85 95.3036 85H67.6421C67.6227 85 67.6036 85.004 67.5858 85.0117C67.5679 85.0195 67.5517 85.0308 67.538 85.0451C67.5244 85.0594 67.5135 85.0764 67.5061 85.0951C67.4987 85.1138 67.4949 85.1339 67.4949 85.1541V85.9313H65.2879V85.1541C65.2879 85.1339 65.2841 85.1138 65.2767 85.0951C65.2693 85.0764 65.2585 85.0594 65.2448 85.0451C65.2311 85.0308 65.2149 85.0195 65.1971 85.0117C65.1792 85.004 65.1601 85 65.1408 85H61.6095C61.5902 85 61.571 85.004 61.5532 85.0117C61.5353 85.0195 61.5191 85.0308 61.5055 85.0451C61.4918 85.0594 61.4809 85.0764 61.4736 85.0951C61.4662 85.1138 61.4624 85.1339 61.4624 85.1541V85.9313H59.2553V85.1541C59.2553 85.1339 59.2515 85.1138 59.2441 85.0951C59.2367 85.0764 59.2259 85.0594 59.2122 85.0451C59.1986 85.0308 59.1824 85.0195 59.1645 85.0117C59.1466 85.004 59.1275 85 59.1082 85H55.5769C55.5576 85 55.5385 85.004 55.5206 85.0117C55.5028 85.0195 55.4865 85.0308 55.4729 85.0451C55.4592 85.0594 55.4484 85.0764 55.441 85.0951C55.4336 85.1138 55.4298 85.1339 55.4298 85.1541V85.9313H53.2227V85.1541C53.2228 85.1339 53.2189 85.1138 53.2116 85.0951C53.2042 85.0764 53.1933 85.0594 53.1797 85.0451C53.166 85.0308 53.1498 85.0195 53.1319 85.0117C53.1141 85.004 53.0949 85 53.0756 85H49.5444C49.525 85 49.5059 85.004 49.4881 85.0117C49.4702 85.0195 49.454 85.0308 49.4403 85.0451C49.4267 85.0594 49.4158 85.0764 49.4084 85.0951C49.401 85.1138 49.3972 85.1339 49.3972 85.1541V85.9313H47.1902V85.1541C47.1902 85.1339 47.1864 85.1138 47.179 85.0951C47.1716 85.0764 47.1608 85.0594 47.1471 85.0451C47.1334 85.0308 47.1172 85.0195 47.0994 85.0117C47.0815 85.004 47.0624 85 47.0431 85H43.5118C43.4925 85 43.4733 85.004 43.4555 85.0117C43.4376 85.0195 43.4214 85.0308 43.4077 85.0451C43.3941 85.0594 43.3832 85.0764 43.3759 85.0951C43.3685 85.1138 43.3647 85.1339 43.3647 85.1541V85.9313H41.1576V85.1541C41.1576 85.1339 41.1538 85.1138 41.1464 85.0951C41.139 85.0764 41.1282 85.0594 41.1145 85.0451C41.1009 85.0308 41.0846 85.0195 41.0668 85.0117C41.0489 85.004 41.0298 85 41.0105 85H37.4792C37.4599 85 37.4408 85.004 37.4229 85.0117C37.4051 85.0195 37.3888 85.0308 37.3752 85.0451C37.3615 85.0594 37.3507 85.0764 37.3433 85.0951C37.3359 85.1138 37.3321 85.1339 37.3321 85.1541V85.9313H35.125V85.1541C35.125 85.1339 35.1212 85.1138 35.1138 85.0951C35.1065 85.0764 35.0956 85.0594 35.0819 85.0451C35.0683 85.0308 35.0521 85.0195 35.0342 85.0117C35.0164 85.004 34.9972 85 34.9779 85H31.4466C31.4273 85 31.4082 85.004 31.3903 85.0117C31.3725 85.0195 31.3563 85.0308 31.3426 85.0451C31.3289 85.0594 31.3181 85.0764 31.3107 85.0951C31.3033 85.1138 31.2995 85.1339 31.2995 85.1541V85.9313H24.5313C24.0675 85.9313 23.6083 86.0269 23.1799 86.2128C22.7515 86.3986 22.3622 86.671 22.0343 87.0144C21.7064 87.3579 21.4463 87.7656 21.2688 88.2143C21.0913 88.6629 21 89.1439 21 89.6295V91.3018C21 92.2826 21.372 93.2233 22.0343 93.9168C22.6965 94.6104 23.5947 95 24.5313 95H141.946C142.882 95 143.78 94.6104 144.443 93.9168C145.105 93.2233 145.477 92.2826 145.477 91.3018V89.6295C145.477 89.1439 145.386 88.6629 145.208 88.2143C145.031 87.7656 144.771 87.3579 144.443 87.0144C144.115 86.671 143.725 86.3986 143.297 86.2128C142.869 86.0269 142.409 85.9313 141.946 85.9313Z" fill="#DEDEDE"/>
<path d="M116.824 79.3828H46.4229V79.8006H116.824V79.3828Z" fill="#F1563C"/>
</svg>
