<svg width="166" height="113" viewBox="0 0 166 113" fill="none" xmlns="http://www.w3.org/2000/svg">
<rect x="19.0034" y="22" width="105.511" height="73" rx="9" fill="white"/>
<path d="M136.632 93.4596L136.631 93.4596C132.626 93.4243 128.627 93.1293 124.659 92.5765L124.866 55.2595C124.94 55.2018 125.015 55.145 125.089 55.0893L125.089 55.0893L125.091 55.0883C125.551 54.7423 126.023 54.4193 126.51 54.1236C127.677 53.4161 128.937 52.9043 130.132 52.6501C131.326 52.3957 132.421 52.4059 133.283 52.6998L133.302 52.7075L133.314 52.7122L133.326 52.7162C133.691 52.84 134.028 53.035 134.318 53.2903C135.03 53.9274 135.363 54.9211 135.335 56.1505C135.307 57.3795 134.915 58.7871 134.246 60.1474L135.033 60.7362C137.744 58.2437 141.102 56.3234 144.025 56.1791L144.025 56.1791C146.83 56.0399 148.854 57.5036 150.663 59.2042L150.664 59.2055C150.722 59.2592 150.778 59.3133 150.837 59.3701L150.842 59.3751L150.848 59.38C150.857 59.3881 150.866 59.3972 150.882 59.4122L150.883 59.4135C150.896 59.4254 150.913 59.4416 150.931 59.4584C152.322 60.7981 153.528 62.2182 153.38 64.2341C153.297 65.3597 152.781 66.5866 151.968 67.7863C151.158 68.9812 150.073 70.1179 148.901 71.0575L148.901 71.0577C146.675 72.8428 144.161 74.0658 141.626 75.2984C141.476 75.3715 141.325 75.4447 141.175 75.5181L141.174 75.5182C138.505 76.8215 135.706 78.2591 133.364 80.4054L134.013 81.1653C137.541 78.3589 141.523 76.1226 145.362 75.3006C149.22 74.4744 152.749 75.2393 154.434 77.5291C154.933 78.2303 155.258 79.0415 155.382 79.8951L155.382 79.8951L155.383 79.9047C155.4 80.003 155.413 80.105 155.426 80.212C155.673 82.4005 154.921 85.0609 153.074 87.345L153.074 87.3451C151.035 89.8666 147.994 91.6321 145.092 92.512C142.192 93.3912 139.389 93.4886 136.632 93.4596Z" fill="#F2F2F2" stroke="white"/>
<path d="M124.289 69.1028L124.293 68.3763C124.437 68.1456 124.578 67.9139 124.718 67.681C124.809 67.5369 124.896 67.391 124.985 67.2451C126.447 64.8353 127.85 62.4104 129.193 59.9704C130.537 57.5327 131.82 55.0827 133.04 52.6204C133.068 52.5552 133.118 52.5019 133.182 52.47C133.245 52.438 133.317 52.4293 133.386 52.4454C133.395 52.448 133.404 52.4521 133.411 52.4575C133.475 52.4919 133.502 52.5686 133.447 52.6806C133.297 52.9827 133.146 53.2864 132.992 53.5884C131.751 56.0574 130.448 58.5158 129.083 60.9636C127.718 63.4097 126.293 65.8418 124.808 68.2601C124.777 68.3109 124.745 68.3618 124.714 68.4127C124.573 68.6433 124.431 68.8722 124.289 69.1028Z" fill="white"/>
<path d="M124.237 78.4706L124.24 78.0214C124.381 77.9201 124.522 77.8205 124.663 77.7192C127.98 75.3386 131.297 72.9584 134.614 70.5788C140.045 66.6819 145.476 62.7862 150.907 58.8916C150.936 58.8685 150.969 58.8514 151.005 58.8411C151.125 58.8078 151.196 58.8966 151.183 59.0106C151.177 59.0586 151.16 59.1046 151.134 59.1456C151.108 59.1865 151.074 59.2214 151.033 59.2479C147.988 61.4328 144.943 63.617 141.9 65.8007C136.496 69.6773 131.093 73.5534 125.691 77.4289C125.348 77.6754 125.003 77.9219 124.66 78.1684C124.519 78.2697 124.378 78.3711 124.237 78.4706Z" fill="white"/>
<path d="M126.83 88.4783C126.077 88.4554 125.337 88.4053 124.604 88.3398C124.463 88.3272 124.323 88.3145 124.183 88.3017L124.185 87.8304C124.326 87.8448 124.466 87.8592 124.606 87.8719C125.666 87.9715 126.737 88.0421 127.838 88.0517C130.89 88.0643 133.935 87.765 136.927 87.1585C140.148 86.5137 143.307 85.588 146.369 84.3918C149.598 83.1364 152.722 81.6227 155.711 79.8653C155.76 79.8322 155.818 79.8174 155.877 79.8237C156.01 79.8431 156.05 80.022 155.922 80.1557C155.897 80.1821 155.869 80.2048 155.837 80.2233C155.466 80.4407 155.093 80.6542 154.719 80.8636C151.714 82.5562 148.579 84.005 145.345 85.1961C142.273 86.3307 139.109 87.1937 135.888 87.7754C132.901 88.3202 129.865 88.5558 126.83 88.4783Z" fill="white"/>
<path d="M123.111 22H20.4744C20.0835 22.0004 19.7086 22.1568 19.4322 22.435C19.1558 22.7132 19.0003 23.0904 19 23.4838V93.4753C19.0003 93.8688 19.1558 94.246 19.4322 94.5242C19.7086 94.8024 20.0835 94.9588 20.4744 94.9592H123.111C123.324 94.9592 123.534 94.9126 123.728 94.8227C123.922 94.7328 124.093 94.6017 124.232 94.4385C124.243 94.4257 124.254 94.412 124.264 94.3976C124.352 94.2893 124.423 94.1683 124.475 94.0386C124.549 93.8602 124.587 93.6687 124.587 93.4753V23.4838C124.586 23.0901 124.431 22.7127 124.154 22.4345C123.877 22.1563 123.502 22 123.111 22ZM124.166 93.4753C124.166 93.6824 124.105 93.8848 123.992 94.0573C123.891 94.2091 123.753 94.3331 123.593 94.4181C123.444 94.4955 123.278 94.5358 123.111 94.5355H20.4744C20.1951 94.5351 19.9274 94.4233 19.7299 94.2246C19.5324 94.0258 19.4213 93.7564 19.421 93.4753V23.4838C19.4213 23.2028 19.5324 22.9333 19.7299 22.7346C19.9274 22.5359 20.1951 22.4241 20.4744 22.4237H123.111C123.39 22.4237 123.658 22.5353 123.856 22.7341C124.054 22.9328 124.165 23.2025 124.166 23.4838V93.4753Z" fill="#3F3D56"/>
<path d="M124.375 27.9473H19.2101V28.3714H124.375V27.9473Z" fill="#3F3D56"/>
<path d="M22.793 26.4533C23.4913 26.4533 24.0575 25.8836 24.0575 25.1808C24.0575 24.4779 23.4913 23.9082 22.793 23.9082C22.0946 23.9082 21.5284 24.4779 21.5284 25.1808C21.5284 25.8836 22.0946 26.4533 22.793 26.4533Z" fill="#3F3D56"/>
<path d="M26.4283 26.4533C27.1267 26.4533 27.6928 25.8836 27.6928 25.1808C27.6928 24.4779 27.1267 23.9082 26.4283 23.9082C25.73 23.9082 25.1638 24.4779 25.1638 25.1808C25.1638 25.8836 25.73 26.4533 26.4283 26.4533Z" fill="#3F3D56"/>
<path d="M30.0638 26.4533C30.7622 26.4533 31.3283 25.8836 31.3283 25.1808C31.3283 24.4779 30.7622 23.9082 30.0638 23.9082C29.3655 23.9082 28.7993 24.4779 28.7993 25.1808C28.7993 25.8836 29.3655 26.4533 30.0638 26.4533Z" fill="#3F3D56"/>
<path d="M98.187 37.766H45.4317C44.8487 37.766 44.2896 37.533 43.8773 37.1181C43.4651 36.7033 43.2335 36.1406 43.2335 35.5539C43.2335 34.9672 43.4651 34.4046 43.8773 33.9897C44.2896 33.5749 44.8487 33.3418 45.4317 33.3418H98.187C98.77 33.3418 99.3291 33.5749 99.7414 33.9897C100.154 34.4046 100.385 34.9672 100.385 35.5539C100.385 36.1406 100.154 36.7033 99.7414 37.1181C99.3291 37.533 98.77 37.766 98.187 37.766ZM45.4317 33.6821C44.9384 33.6821 44.4653 33.8793 44.1165 34.2304C43.7677 34.5814 43.5717 35.0575 43.5717 35.5539C43.5717 36.0503 43.7677 36.5265 44.1165 36.8775C44.4653 37.2285 44.9384 37.4257 45.4317 37.4257H98.187C98.6803 37.4257 99.1534 37.2285 99.5022 36.8775C99.8511 36.5265 100.047 36.0503 100.047 35.5539C100.047 35.0575 99.8511 34.5814 99.5022 34.2304C99.1534 33.8793 98.6803 33.6821 98.187 33.6821H45.4317Z" fill="#3F3D56"/>
<path d="M45.8723 51.2929H41.1379C40.7791 51.2929 40.435 51.1495 40.1814 50.8942C39.9277 50.6389 39.7852 50.2927 39.7852 49.9316C39.7852 49.5706 39.9277 49.2243 40.1814 48.969C40.435 48.7137 40.7791 48.5703 41.1379 48.5703H45.8723C46.2311 48.5703 46.5751 48.7137 46.8288 48.969C47.0825 49.2243 47.225 49.5706 47.225 49.9316C47.225 50.2927 47.0825 50.6389 46.8288 50.8942C46.5751 51.1495 46.2311 51.2929 45.8723 51.2929Z" fill="#CCCCCC"/>
<path d="M51.4522 55.8886H41.1379C40.7791 55.8886 40.435 55.7452 40.1814 55.4899C39.9277 55.2346 39.7852 54.8884 39.7852 54.5273C39.7852 54.1663 39.9277 53.82 40.1814 53.5647C40.435 53.3094 40.7791 53.166 41.1379 53.166H51.4522C51.811 53.166 52.155 53.3094 52.4087 53.5647C52.6624 53.82 52.8049 54.1663 52.8049 54.5273C52.8049 54.8884 52.6624 55.2346 52.4087 55.4899C52.155 55.7452 51.811 55.8886 51.4522 55.8886Z" fill="#CCCCCC"/>
<path d="M46.7178 71.373H41.9833C41.6246 71.373 41.2805 71.2296 41.0268 70.9743C40.7731 70.719 40.6306 70.3727 40.6306 70.0117C40.6306 69.6507 40.7731 69.3044 41.0268 69.0491C41.2805 68.7938 41.6246 68.6504 41.9833 68.6504H46.7178C47.0765 68.6504 47.4206 68.7938 47.6743 69.0491C47.928 69.3044 48.0705 69.6507 48.0705 70.0117C48.0705 70.3727 47.928 70.719 47.6743 70.9743C47.4206 71.2296 47.0765 71.373 46.7178 71.373Z" fill="#CCCCCC"/>
<path d="M52.2977 75.9668H41.9833C41.6246 75.9668 41.2805 75.8233 41.0268 75.568C40.7731 75.3127 40.6306 74.9665 40.6306 74.6054C40.6306 74.2444 40.7731 73.8982 41.0268 73.6429C41.2805 73.3876 41.6246 73.2441 41.9833 73.2441H52.2977C52.6564 73.2441 53.0005 73.3876 53.2542 73.6429C53.5079 73.8982 53.6504 74.2444 53.6504 74.6054C53.6504 74.9665 53.5079 75.3127 53.2542 75.568C53.0005 75.8233 52.6564 75.9668 52.2977 75.9668Z" fill="#CCCCCC"/>
<path d="M77.83 70.8632H73.0955C72.7367 70.8632 72.3927 70.7198 72.139 70.4645C71.8853 70.2092 71.7428 69.863 71.7428 69.5019C71.7428 69.1409 71.8853 68.7946 72.139 68.5393C72.3927 68.2841 72.7367 68.1406 73.0955 68.1406H77.83C78.1887 68.1406 78.5328 68.2841 78.7865 68.5393C79.0401 68.7946 79.1827 69.1409 79.1827 69.5019C79.1827 69.863 79.0401 70.2092 78.7865 70.4645C78.5328 70.7198 78.1887 70.8632 77.83 70.8632Z" fill="#CCCCCC"/>
<path d="M83.4099 75.457H73.0955C72.7367 75.457 72.3927 75.3136 72.139 75.0583C71.8853 74.803 71.7428 74.4567 71.7428 74.0957C71.7428 73.7346 71.8853 73.3884 72.139 73.1331C72.3927 72.8778 72.7367 72.7344 73.0955 72.7344H83.4099C83.7686 72.7344 84.1127 72.8778 84.3663 73.1331C84.62 73.3884 84.7626 73.7346 84.7626 74.0957C84.7626 74.4567 84.62 74.803 84.3663 75.0583C84.1127 75.3136 83.7686 75.457 83.4099 75.457Z" fill="#CCCCCC"/>
<path d="M77.3228 52.1445H72.5883C72.2295 52.1445 71.8855 52.0011 71.6318 51.7458C71.3781 51.4905 71.2356 51.1442 71.2356 50.7832C71.2356 50.4221 71.3781 50.0759 71.6318 49.8206C71.8855 49.5653 72.2295 49.4219 72.5883 49.4219H77.3228C77.6815 49.4219 78.0256 49.5653 78.2792 49.8206C78.5329 50.0759 78.6755 50.4221 78.6755 50.7832C78.6755 51.1442 78.5329 51.4905 78.2792 51.7458C78.0256 52.0011 77.6815 52.1445 77.3228 52.1445Z" fill="#CCCCCC"/>
<path d="M82.9026 56.7382H72.5883C72.2295 56.7382 71.8855 56.5948 71.6318 56.3395C71.3781 56.0842 71.2356 55.738 71.2356 55.3769C71.2356 55.0159 71.3781 54.6696 71.6318 54.4143C71.8855 54.1591 72.2295 54.0156 72.5883 54.0156H82.9026C83.2614 54.0156 83.6055 54.1591 83.8591 54.4143C84.1128 54.6696 84.2553 55.0159 84.2553 55.3769C84.2553 55.738 84.1128 56.0842 83.8591 56.3395C83.6055 56.5948 83.2614 56.7382 82.9026 56.7382Z" fill="#CCCCCC"/>
<path d="M108.942 51.123H104.208C103.849 51.123 103.505 50.9796 103.251 50.7243C102.997 50.469 102.855 50.1227 102.855 49.7617C102.855 49.4007 102.997 49.0544 103.251 48.7991C103.505 48.5438 103.849 48.4004 104.208 48.4004H108.942C109.301 48.4004 109.645 48.5438 109.899 48.7991C110.152 49.0544 110.295 49.4007 110.295 49.7617C110.295 50.1227 110.152 50.469 109.899 50.7243C109.645 50.9796 109.301 51.123 108.942 51.123Z" fill="#CCCCCC"/>
<path d="M114.522 55.7187H104.208C103.849 55.7187 103.505 55.5753 103.251 55.32C102.997 55.0647 102.855 54.7184 102.855 54.3574C102.855 53.9964 102.997 53.6501 103.251 53.3948C103.505 53.1395 103.849 52.9961 104.208 52.9961H114.522C114.881 52.9961 115.225 53.1395 115.479 53.3948C115.732 53.6501 115.875 53.9964 115.875 54.3574C115.875 54.7184 115.732 55.0647 115.479 55.32C115.225 55.5753 114.881 55.7187 114.522 55.7187Z" fill="#CCCCCC"/>
<path d="M32.7847 57.3348C35.5862 57.3348 37.8573 55.0493 37.8573 52.2299C37.8573 49.4105 35.5862 47.125 32.7847 47.125C29.9831 47.125 27.712 49.4105 27.712 52.2299C27.712 55.0493 29.9831 57.3348 32.7847 57.3348Z" fill="#F1563C"/>
<path d="M35.1519 54.5261H30.4174C30.2829 54.5259 30.154 54.4721 30.0589 54.3764C29.9638 54.2807 29.9103 54.1509 29.9102 54.0156V50.4421C29.9103 50.3068 29.9638 50.177 30.0589 50.0813C30.154 49.9856 30.2829 49.9318 30.4174 49.9316H31.7502C31.8369 49.9313 31.9222 49.9535 31.9979 49.996C32.0736 50.0386 32.1371 50.1001 32.1823 50.1745L32.554 50.7825H35.1519C35.2864 50.7826 35.4153 50.8364 35.5104 50.9321C35.6055 51.0278 35.659 51.1576 35.6591 51.293V54.0156C35.659 54.1509 35.6055 54.2807 35.5104 54.3764C35.4153 54.4721 35.2864 54.5259 35.1519 54.5261ZM30.4174 50.272C30.3726 50.272 30.3296 50.29 30.2979 50.3219C30.2662 50.3538 30.2484 50.397 30.2483 50.4421V54.0156C30.2484 54.0607 30.2662 54.1039 30.2979 54.1358C30.3296 54.1677 30.3726 54.1857 30.4174 54.1857H35.1519C35.1967 54.1857 35.2397 54.1677 35.2714 54.1358C35.3031 54.1039 35.3209 54.0607 35.321 54.0156V51.293C35.3209 51.2478 35.3031 51.2046 35.2714 51.1727C35.2397 51.1408 35.1967 51.1228 35.1519 51.1228H32.3651L31.8943 50.3529C31.8792 50.3281 31.858 50.3076 31.8328 50.2934C31.8076 50.2792 31.7791 50.2719 31.7502 50.272H30.4174Z" fill="white"/>
<path d="M63.8969 58.1864C66.6984 58.1864 68.9695 55.9008 68.9695 53.0815C68.9695 50.2621 66.6984 47.9766 63.8969 47.9766C61.0953 47.9766 58.8242 50.2621 58.8242 53.0815C58.8242 55.9008 61.0953 58.1864 63.8969 58.1864Z" fill="#F1563C"/>
<path d="M66.095 56.3139H61.6987C61.5642 56.3137 61.4352 56.2599 61.3401 56.1642C61.245 56.0685 61.1916 55.9387 61.1914 55.8034V50.3581C61.1916 50.2228 61.245 50.093 61.3401 49.9973C61.4352 49.9016 61.5642 49.8478 61.6987 49.8477H64.8842C64.9997 49.8478 65.1118 49.8875 65.202 49.9602L66.4127 50.9393C66.472 50.987 66.5198 51.0476 66.5526 51.1165C66.5855 51.1854 66.6024 51.2608 66.6022 51.3372V55.8034C66.6021 55.9387 66.5486 56.0685 66.4535 56.1642C66.3584 56.2599 66.2294 56.3137 66.095 56.3139ZM61.6987 50.188C61.6538 50.188 61.6109 50.206 61.5792 50.2379C61.5475 50.2698 61.5296 50.313 61.5296 50.3581V55.8034C61.5296 55.8485 61.5475 55.8917 61.5792 55.9236C61.6109 55.9555 61.6538 55.9735 61.6987 55.9735H66.095C66.1398 55.9735 66.1828 55.9555 66.2145 55.9236C66.2462 55.8917 66.264 55.8485 66.264 55.8034V51.3372C66.2641 51.3118 66.2585 51.2866 66.2475 51.2637C66.2366 51.2407 66.2206 51.2205 66.2009 51.2046L64.99 50.2255C64.96 50.2012 64.9227 50.188 64.8842 50.188H61.6987Z" fill="white"/>
<path d="M65.2495 52.231H62.5441C62.4992 52.231 62.4562 52.213 62.4245 52.1811C62.3928 52.1492 62.375 52.1059 62.375 52.0608C62.375 52.0157 62.3928 51.9724 62.4245 51.9405C62.4562 51.9086 62.4992 51.8906 62.5441 51.8906H65.2495C65.2943 51.8906 65.3373 51.9086 65.3691 51.9405C65.4008 51.9724 65.4186 52.0157 65.4186 52.0608C65.4186 52.1059 65.4008 52.1492 65.3691 52.1811C65.3373 52.213 65.2943 52.231 65.2495 52.231Z" fill="white"/>
<path d="M65.2495 53.2505H62.5441C62.4992 53.2505 62.4562 53.2326 62.4245 53.2006C62.3928 53.1687 62.375 53.1254 62.375 53.0803C62.375 53.0352 62.3928 52.9919 62.4245 52.96C62.4562 52.9281 62.4992 52.9102 62.5441 52.9102H65.2495C65.2943 52.9102 65.3373 52.9281 65.3691 52.96C65.4008 52.9919 65.4186 53.0352 65.4186 53.0803C65.4186 53.1254 65.4008 53.1687 65.3691 53.2006C65.3373 53.2326 65.2943 53.2505 65.2495 53.2505Z" fill="white"/>
<path d="M65.2495 54.272H62.5441C62.4992 54.272 62.4562 54.254 62.4245 54.2221C62.3928 54.1902 62.375 54.1469 62.375 54.1018C62.375 54.0567 62.3928 54.0134 62.4245 53.9815C62.4562 53.9496 62.4992 53.9316 62.5441 53.9316H65.2495C65.2943 53.9316 65.3373 53.9496 65.3691 53.9815C65.4008 54.0134 65.4186 54.0567 65.4186 54.1018C65.4186 54.1469 65.4008 54.1902 65.3691 54.2221C65.3373 54.254 65.2943 54.272 65.2495 54.272Z" fill="white"/>
<path d="M95.1781 57.1649C97.9796 57.1649 100.251 54.8793 100.251 52.06C100.251 49.2406 97.9796 46.9551 95.1781 46.9551C92.3766 46.9551 90.1055 49.2406 90.1055 52.06C90.1055 54.8793 92.3766 57.1649 95.1781 57.1649Z" fill="#F1563C"/>
<path d="M97.5452 53.9311H92.8107C92.6762 53.9309 92.5473 53.8771 92.4522 53.7814C92.3571 53.6857 92.3036 53.5559 92.3035 53.4206V50.698C92.3036 50.5626 92.3571 50.4329 92.4522 50.3372C92.5473 50.2415 92.6762 50.1876 92.8107 50.1875H97.5452C97.6797 50.1876 97.8086 50.2415 97.9037 50.3372C97.9988 50.4329 98.0523 50.5626 98.0524 50.698V53.4206C98.0523 53.5559 97.9988 53.6857 97.9037 53.7814C97.8086 53.8771 97.6797 53.9309 97.5452 53.9311ZM92.8107 50.5278C92.7659 50.5279 92.7229 50.5458 92.6912 50.5777C92.6595 50.6096 92.6417 50.6529 92.6416 50.698V53.4206C92.6417 53.4657 92.6595 53.509 92.6912 53.5409C92.7229 53.5728 92.7659 53.5907 92.8107 53.5908H97.5452C97.59 53.5907 97.633 53.5728 97.6647 53.5409C97.6964 53.509 97.7142 53.4657 97.7143 53.4206V50.698C97.7142 50.6529 97.6964 50.6096 97.6647 50.5777C97.633 50.5458 97.59 50.5279 97.5452 50.5278H92.8107Z" fill="white"/>
<path d="M95.178 52.5096C95.083 52.5097 94.9898 52.483 94.9091 52.4325L92.3829 50.8437C92.345 50.8197 92.318 50.7815 92.308 50.7376C92.298 50.6936 92.3057 50.6475 92.3294 50.6093C92.3532 50.571 92.391 50.5439 92.4347 50.5337C92.4783 50.5235 92.5242 50.5312 92.5622 50.555L95.0885 52.1439C95.1154 52.1607 95.1464 52.1696 95.178 52.1696C95.2097 52.1696 95.2407 52.1607 95.2676 52.1439L97.7937 50.555C97.8317 50.5312 97.8776 50.5235 97.9212 50.5337C97.9649 50.5439 98.0027 50.571 98.0265 50.6093C98.0502 50.6475 98.058 50.6936 98.0479 50.7376C98.0379 50.7815 98.011 50.8197 97.973 50.8437L95.447 52.4325C95.3662 52.483 95.273 52.5097 95.178 52.5096Z" fill="white"/>
<path d="M32.7847 77.4129C35.5862 77.4129 37.8573 75.1274 37.8573 72.308C37.8573 69.4887 35.5862 67.2031 32.7847 67.2031C29.9831 67.2031 27.712 69.4887 27.712 72.308C27.712 75.1274 29.9831 77.4129 32.7847 77.4129Z" fill="#F1563C"/>
<path d="M35.1519 74.1811H30.4174C30.2829 74.1809 30.154 74.1271 30.0589 74.0314C29.9638 73.9357 29.9103 73.8059 29.9102 73.6706V70.948C29.9103 70.8126 29.9638 70.6829 30.0589 70.5872C30.154 70.4915 30.2829 70.4376 30.4174 70.4375H35.1519C35.2864 70.4376 35.4153 70.4915 35.5104 70.5872C35.6055 70.6829 35.659 70.8126 35.6591 70.948V73.6706C35.659 73.8059 35.6055 73.9357 35.5104 74.0314C35.4153 74.1271 35.2864 74.1809 35.1519 74.1811ZM30.4174 70.7778C30.3726 70.7779 30.3296 70.7958 30.2979 70.8277C30.2662 70.8596 30.2484 70.9029 30.2483 70.948V73.6706C30.2484 73.7157 30.2662 73.759 30.2979 73.7909C30.3296 73.8228 30.3726 73.8407 30.4174 73.8408H35.1519C35.1967 73.8407 35.2397 73.8228 35.2714 73.7909C35.3031 73.759 35.3209 73.7157 35.321 73.6706V70.948C35.3209 70.9029 35.3031 70.8596 35.2714 70.8277C35.2397 70.7958 35.1967 70.7779 35.1519 70.7778H30.4174Z" fill="white"/>
<path d="M34.4016 74.1803H30.9989C30.9395 74.1803 30.8812 74.1646 30.8297 74.1347C30.7783 74.1048 30.7356 74.0619 30.7059 74.0101C30.6763 73.9584 30.6606 73.8997 30.6606 73.8399C30.6607 73.7802 30.6763 73.7215 30.706 73.6698L31.7309 71.8831C31.7606 71.8313 31.8033 71.7884 31.8547 71.7585C31.9061 71.7286 31.9645 71.7129 32.0238 71.7129C32.0832 71.7129 32.1415 71.7286 32.1929 71.7585C32.2443 71.7884 32.287 71.8313 32.3167 71.8831L32.9787 73.037L33.3622 72.3685C33.3919 72.3167 33.4346 72.2738 33.486 72.2439C33.5374 72.214 33.5957 72.1983 33.6551 72.1983C33.7144 72.1983 33.7728 72.214 33.8242 72.2439C33.8756 72.2738 33.9183 72.3167 33.948 72.3685L34.6945 73.6698C34.7242 73.7215 34.7398 73.7802 34.7398 73.8399C34.7398 73.8997 34.7242 73.9584 34.6945 74.0101C34.6648 74.0619 34.6221 74.1048 34.5707 74.1347C34.5193 74.1646 34.4609 74.1803 34.4016 74.1803H34.4016ZM34.4016 73.8399L33.6551 72.5386L33.1252 73.4624C33.1103 73.4883 33.089 73.5097 33.0633 73.5247C33.0376 73.5396 33.0084 73.5475 32.9787 73.5475C32.949 73.5475 32.9198 73.5396 32.8941 73.5247C32.8684 73.5097 32.8471 73.4883 32.8322 73.4624L32.0239 72.0532L30.9989 73.8399H34.4016Z" fill="white"/>
<path d="M34.6447 71.7998C34.8315 71.7998 34.9829 71.6474 34.9829 71.4595C34.9829 71.2715 34.8315 71.1191 34.6447 71.1191C34.4579 71.1191 34.3065 71.2715 34.3065 71.4595C34.3065 71.6474 34.4579 71.7998 34.6447 71.7998Z" fill="white"/>
<path d="M64.235 76.9031C67.0365 76.9031 69.3076 74.6176 69.3076 71.7983C69.3076 68.9789 67.0365 66.6934 64.235 66.6934C61.4334 66.6934 59.1624 68.9789 59.1624 71.7983C59.1624 74.6176 61.4334 76.9031 64.235 76.9031Z" fill="#F1563C"/>
<path d="M64.235 71.8833C63.9341 71.8833 63.6398 71.7934 63.3896 71.6252C63.1393 71.4569 62.9443 71.2177 62.8291 70.9378C62.7139 70.658 62.6838 70.3501 62.7425 70.053C62.8012 69.7559 62.9462 69.4831 63.159 69.2689C63.3718 69.0547 63.643 68.9088 63.9382 68.8497C64.2334 68.7906 64.5393 68.821 64.8174 68.9369C65.0955 69.0528 65.3331 69.2491 65.5004 69.5009C65.6676 69.7528 65.7568 70.0489 65.7568 70.3518C65.7564 70.7578 65.5959 71.1471 65.3106 71.4342C65.0253 71.7213 64.6385 71.8828 64.235 71.8833ZM64.235 69.1606C64.0009 69.1606 63.7721 69.2305 63.5775 69.3614C63.3828 69.4923 63.2311 69.6783 63.1415 69.896C63.0519 70.1136 63.0285 70.3531 63.0742 70.5842C63.1198 70.8152 63.2326 71.0275 63.3981 71.194C63.5636 71.3606 63.7745 71.4741 64.0041 71.52C64.2337 71.566 64.4717 71.5424 64.688 71.4523C64.9043 71.3621 65.0891 71.2094 65.2192 71.0135C65.3492 70.8177 65.4187 70.5874 65.4187 70.3518C65.4183 70.036 65.2935 69.7332 65.0716 69.5099C64.8497 69.2866 64.5488 69.161 64.235 69.1606Z" fill="white"/>
<path d="M65.5877 74.7771H62.8823C62.7254 74.7769 62.575 74.7141 62.4641 74.6024C62.3531 74.4908 62.2907 74.3394 62.2905 74.1815C62.2905 73.6625 62.4954 73.1647 62.8601 72.7978C63.2247 72.4308 63.7193 72.2246 64.235 72.2246C64.7508 72.2246 65.2453 72.4308 65.61 72.7978C65.9747 73.1647 66.1795 73.6625 66.1795 74.1815C66.1794 74.3394 66.1169 74.4908 66.006 74.6024C65.8951 74.7141 65.7446 74.7769 65.5877 74.7771ZM64.235 72.5649C63.8092 72.5654 63.4009 72.7359 63.0997 73.0389C62.7986 73.342 62.6292 73.7529 62.6287 74.1815C62.6288 74.2492 62.6555 74.314 62.7031 74.3619C62.7506 74.4097 62.8151 74.4367 62.8823 74.4367H65.5877C65.655 74.4367 65.7194 74.4097 65.767 74.3619C65.8145 74.314 65.8413 74.2492 65.8414 74.1815C65.8409 73.7529 65.6715 73.342 65.3703 73.0389C65.0692 72.7359 64.6609 72.5654 64.235 72.5649Z" fill="white"/>
</svg>
