<svg width="18" height="13" viewBox="0 0 18 13" fill="none" xmlns="http://www.w3.org/2000/svg">
<path d="M18.0001 0C17.4986 2.0517 16.9792 4.28027 16.4419 6.68572C15.9404 9.05578 15.5643 11.1605 15.3136 13H10.2091L9.83296 12.4163C10.2986 10.5769 10.9613 8.52517 11.821 6.26122C12.7165 3.99728 13.6121 1.9102 14.5076 0H18.0001ZM8.05982 0C7.55833 2.0517 7.05684 4.28027 6.55535 6.68572C6.05385 9.05578 5.65982 11.1605 5.37326 13H0.32251L0.00012207 12.4163C0.501615 10.5769 1.1643 8.52517 1.98818 6.26122C2.84788 3.99728 3.7255 1.9102 4.62102 0H8.05982Z" fill="#F1563C"/>
</svg>
