<svg width="131" height="112" viewBox="0 0 131 112" fill="none" xmlns="http://www.w3.org/2000/svg">
<g clip-path="url(#clip0)">
<path d="M38.4984 110.832C40.6013 109.058 41.8787 106.254 41.5437 103.525C41.2087 100.795 39.1339 98.2862 36.4426 97.7066C33.7512 97.127 30.6833 98.7314 29.8658 101.357C29.416 96.2948 28.8975 91.0203 26.2027 86.7092C23.7626 82.8057 19.5363 80.0125 14.9559 79.5128C10.3756 79.0131 5.55305 80.9004 2.69645 84.5111C-0.160157 88.1219 -0.859583 93.3711 1.14111 97.5165C2.61495 100.57 5.33028 102.843 8.17527 104.692C17.3685 110.616 28.3945 113.025 39.2246 111.476" fill="#F2F2F2"/>
<path d="M7.22589 81.0044C11.0052 84.0789 14.4724 87.5175 17.5772 91.2705C22.4363 97.1237 26.3683 103.686 29.2362 110.73C29.4461 111.243 28.6108 111.467 28.4032 110.959C26.5793 106.506 24.323 102.242 21.6663 98.2284C17.5236 91.9588 12.4482 86.3565 6.615 81.6145C6.18371 81.2638 6.79815 80.6565 7.22589 81.0044V81.0044Z" fill="white"/>
<path d="M39.9509 110.832C37.8479 109.058 36.5705 106.254 36.9055 103.525C37.2405 100.795 39.3153 98.2862 42.0067 97.7066C44.698 97.127 47.766 98.7314 48.5834 101.357C49.0333 96.2948 49.5517 91.0203 52.2465 86.7092C54.6866 82.8057 58.9129 80.0125 63.4933 79.5128C68.0736 79.0131 72.8962 80.9004 75.7528 84.5111C78.6094 88.1219 79.3088 93.3711 77.3081 97.5165C75.8343 100.57 73.1189 102.843 70.274 104.692C61.0808 110.616 50.0547 113.025 39.2246 111.476" fill="#F2F2F2"/>
<path d="M71.2233 81.0044C67.444 84.0789 63.9768 87.5175 60.872 91.2705C56.0129 97.1237 52.081 103.686 49.213 110.73C49.0031 111.243 49.8385 111.467 50.0461 110.959C54.7385 99.5122 62.2296 89.4231 71.8342 81.6145C72.2655 81.2638 71.651 80.6565 71.2233 81.0044V81.0044Z" fill="white"/>
<path d="M46.1913 50.3834C50.0818 50.3834 53.2356 47.2335 53.2356 43.348C53.2356 39.4624 50.0818 36.3125 46.1913 36.3125C42.3009 36.3125 39.1471 39.4624 39.1471 43.348C39.1471 47.2335 42.3009 50.3834 46.1913 50.3834Z" fill="#F2F2F2"/>
<path d="M24.472 19.0957H73.0049V21.7477H30.6676C28.1784 21.7477 25.7135 22.2374 23.4137 23.1888C21.1139 24.1402 19.0243 25.5347 17.2641 27.2927C15.5039 29.0507 14.1076 31.1377 13.155 33.4346C12.2024 35.7315 11.7121 38.1934 11.7121 40.6795V70.8091H6.40157C6.16683 70.8091 5.94171 70.716 5.77572 70.5502C5.60974 70.3844 5.51648 70.1596 5.51648 69.9251V38.0275C5.51648 35.5414 6.00678 33.0795 6.95938 30.7826C7.91198 28.4857 9.30824 26.3987 11.0684 24.6407C12.8286 22.8827 14.9182 21.4882 17.218 20.5368C19.5178 19.5854 21.9827 19.0957 24.472 19.0957Z" fill="#F2F2F2"/>
<path d="M33.8071 110.979V70.6953H45.6233V110.979C45.623 111.25 45.5151 111.509 45.3234 111.701C45.1317 111.892 44.8718 112 44.6007 112H34.8297C34.5586 112 34.2987 111.892 34.107 111.701C33.9153 111.509 33.8074 111.25 33.8071 110.979Z" fill="#3F3D56"/>
<path d="M3.01697 69.9001V37.1434C3.02286 31.9287 5.09958 26.9293 8.7915 23.242C12.4834 19.5546 17.4891 17.4805 22.7102 17.4746H72.7777V71.0349H4.15314C3.85191 71.0346 3.56313 70.9149 3.35013 70.7022C3.13713 70.4894 3.01731 70.201 3.01697 69.9001ZM72.3232 17.9285H22.7102C17.6096 17.9343 12.7194 19.9606 9.11271 23.5628C5.50599 27.165 3.4772 32.0491 3.47144 37.1434V69.9001C3.47163 70.0807 3.54352 70.2537 3.67132 70.3814C3.79912 70.509 3.9724 70.5808 4.15314 70.581H72.3232V17.9285Z" fill="#3F3D56"/>
<path d="M46.1914 46.9787C45.107 46.9775 44.0673 46.5467 43.3005 45.7809C42.5337 45.015 42.1024 43.9767 42.1012 42.8936V13.617C42.101 13.4365 42.0291 13.2634 41.9013 13.1358C41.7735 13.0082 41.6002 12.9364 41.4195 12.9362H25.5131C25.2119 12.9358 24.9231 12.8162 24.7101 12.6034C24.4971 12.3907 24.3773 12.1023 24.377 11.8014V1.13475C24.3773 0.833904 24.4971 0.545476 24.7101 0.332745C24.9231 0.120013 25.2119 0.000348378 25.5131 0H49.1454C49.4467 0.000344182 49.7354 0.120008 49.9484 0.332741C50.1614 0.545474 50.2813 0.833903 50.2816 1.13475V42.8936C50.2804 43.9767 49.8491 45.015 49.0823 45.7809C48.3155 46.5467 47.2758 46.9775 46.1914 46.9787Z" fill="#F1563C"/>
<path d="M74.5955 17.0215C78.0235 17.0143 81.3139 18.3675 83.7429 20.7834C86.1719 23.1992 87.5406 26.4798 87.5478 29.9035V67.1937H112.998C114.02 67.1915 115.002 67.5951 115.726 68.3156C116.451 69.0362 116.859 70.0146 116.861 71.0357H61.6432V29.9035C61.6504 26.4798 63.019 23.1992 65.4481 20.7834C67.8771 18.3675 71.1675 17.0143 74.5955 17.0215Z" fill="#3F3D56"/>
<path d="M71.4874 38.2573L74.1694 49.3225L126.633 36.6379L123.951 25.5727C123.919 25.4374 123.853 25.3125 123.759 25.2095C123.666 25.1065 123.547 25.0289 123.416 24.9837C123.318 24.9496 123.215 24.9341 123.112 24.9382L92.786 9.25547C92.6083 9.16484 92.404 9.14063 92.21 9.18721C92.016 9.23379 91.8451 9.34809 91.728 9.50948L77.1124 29.8655L71.6024 37.5416C71.5924 37.5551 71.5854 37.5705 71.5819 37.5869C71.5784 37.6033 71.5785 37.6202 71.5822 37.6365C71.47 37.8229 71.436 38.046 71.4874 38.2573Z" fill="white"/>
<path d="M71.5822 37.6365C71.5847 37.6509 71.5902 37.6647 71.5981 37.677C71.606 37.6893 71.6163 37.6999 71.6283 37.7082C71.6425 37.718 71.6586 37.7247 71.6755 37.728C71.6925 37.7314 71.7099 37.7312 71.7268 37.7276C71.7542 37.7203 71.7782 37.7037 71.7947 37.6806L71.8136 37.6544L72.1005 37.2537L77.3107 29.9994L91.922 9.64804C92.0054 9.53272 92.1274 9.45106 92.2659 9.41791C92.4044 9.38475 92.5502 9.40229 92.6769 9.46733L122.768 25.0286L123.038 25.1685C123.049 25.1731 123.061 25.177 123.072 25.1803C123.092 25.1766 123.113 25.1746 123.134 25.1744C123.162 25.1649 123.185 25.145 123.199 25.1188C123.207 25.105 123.211 25.0899 123.213 25.0743C123.214 25.0587 123.213 25.043 123.208 25.0281C123.203 25.0132 123.196 24.9993 123.186 24.9872C123.176 24.9752 123.164 24.9653 123.15 24.958L123.112 24.9382L92.786 9.25547C92.6083 9.16484 92.404 9.14063 92.21 9.18721C92.016 9.23379 91.845 9.34809 91.728 9.50948L77.1123 29.8655L71.6024 37.5416C71.5924 37.5551 71.5854 37.5705 71.5819 37.5869C71.5784 37.6033 71.5785 37.6202 71.5822 37.6365Z" fill="#3F3D56"/>
<path d="M87.3388 38.7634L88.5066 38.8928L97.1739 39.8517L102.92 40.487L103.259 40.5247L110.429 34.9316L110.703 34.7173L112.397 33.3964L118.422 28.6971L118.458 28.367L120.601 9.05036C120.63 8.78437 120.552 8.51767 120.385 8.30872C120.218 8.09977 119.974 7.96562 119.708 7.93569L91.1092 4.77161C90.8429 4.74256 90.5759 4.82009 90.3668 4.98723C90.1576 5.15436 90.0232 5.39748 89.9932 5.66334L88.4819 19.2889L87.6437 26.8431L86.8938 33.6013L86.5462 36.7399L86.4448 37.649C86.4158 37.9151 86.4937 38.1818 86.6613 38.3907C86.8288 38.5995 87.0725 38.7336 87.3388 38.7634Z" fill="#E6E6E6"/>
<path d="M95.1977 21.8318L107.586 23.2022L111.979 23.688C112.173 23.7095 112.369 23.6926 112.557 23.6383C112.744 23.5839 112.919 23.4933 113.071 23.3715C113.224 23.2497 113.35 23.0991 113.445 22.9283C113.539 22.7576 113.598 22.57 113.62 22.3762C113.641 22.1825 113.624 21.9865 113.57 21.7993C113.515 21.6121 113.425 21.4374 113.303 21.2853C113.181 21.1331 113.03 21.0065 112.859 20.9125C112.688 20.8186 112.5 20.7591 112.306 20.7377L106.842 20.1333L95.5258 18.8801C95.134 18.8368 94.741 18.9508 94.4333 19.1968C94.1256 19.4429 93.9283 19.8009 93.8848 20.1922C93.8413 20.5835 93.9552 20.976 94.2014 21.2835C94.4476 21.591 94.806 21.7882 95.1977 21.8318Z" fill="white"/>
<path d="M94.4923 27.3046C94.5243 27.3103 94.5562 27.316 94.5888 27.3191L108.969 28.9103L111.37 29.1765C111.762 29.2198 112.155 29.1058 112.463 28.8597C112.771 28.6135 112.968 28.2554 113.011 27.864C113.055 27.4726 112.941 27.08 112.694 26.7726C112.448 26.4653 112.089 26.2683 111.697 26.225L108.225 25.8414L96.8341 24.5807L94.9171 24.3685C94.5338 24.3258 94.1488 24.4337 93.8436 24.6693C93.5384 24.9049 93.3369 25.2499 93.2818 25.6312C93.2266 26.0125 93.322 26.4003 93.548 26.7126C93.7739 27.0249 94.1125 27.2372 94.4923 27.3046V27.3046Z" fill="white"/>
<path d="M92.8649 32.1594C92.9827 32.3548 93.1441 32.5204 93.3364 32.6434C93.5287 32.7665 93.7469 32.8435 93.9739 32.8687L99.868 33.5207L110.366 34.6822L110.368 34.6816L110.704 34.719L112.397 33.3981C112.407 33.2978 112.408 33.1966 112.397 33.0963C112.361 32.7593 112.212 32.4447 111.973 32.2043C111.733 31.964 111.419 31.8123 111.082 31.7745L109.624 31.6127L103.839 30.9734L99.6771 30.5123L94.3007 29.9172C94.0252 29.8868 93.7466 29.9339 93.4965 30.0532C93.2464 30.1726 93.0347 30.3595 92.8853 30.5927C92.7359 30.826 92.6549 31.0963 92.6512 31.3731C92.6476 31.65 92.7216 31.9223 92.8649 32.1594L92.8649 32.1594Z" fill="white"/>
<path d="M101.144 15.1413L104.226 15.4823L105.587 15.6333L107.644 15.8606C108.036 15.9039 108.429 15.79 108.737 15.5438C109.044 15.2977 109.242 14.9395 109.285 14.5481C109.328 14.1567 109.214 13.7642 108.968 13.4568C108.721 13.1494 108.363 12.9524 107.971 12.9091L101.472 12.1907C101.08 12.1472 100.687 12.261 100.379 12.5069C100.072 12.7528 99.8742 13.1108 99.8306 13.5021C99.7871 13.8933 99.901 14.2859 100.147 14.5933C100.393 14.9007 100.752 15.0979 101.144 15.1413V15.1413Z" fill="white"/>
<path d="M75.94 23.3596L79.6978 38.8635L85.9697 40.0546L91.7715 41.1578L97.9962 42.3407L99.9852 42.7187C100.102 42.7407 100.221 42.7377 100.337 42.7098C100.452 42.682 100.56 42.63 100.653 42.5572L102.249 41.3125L103.259 40.5246L110.429 34.9314L105.87 16.1232C105.825 15.9361 105.727 15.7659 105.587 15.6332C105.465 15.5158 105.315 15.431 105.151 15.3867C104.987 15.3424 104.815 15.34 104.65 15.3797L76.6845 22.1411C76.424 22.2043 76.1994 22.3681 76.0598 22.5965C75.9202 22.825 75.8771 23.0995 75.94 23.3596Z" fill="#F1563C"/>
<path d="M84.5568 35.6935C84.6499 36.0759 84.8911 36.4058 85.2275 36.6109C85.5639 36.8159 85.9679 36.8792 86.351 36.7869L102.761 32.8194C103.143 32.7263 103.474 32.4854 103.679 32.1495C103.884 31.8136 103.948 31.4101 103.855 31.0275C103.851 31.0085 103.846 30.9898 103.839 30.9715C103.735 30.6026 103.491 30.2886 103.159 30.0952C102.828 29.9018 102.434 29.844 102.061 29.934L85.6517 33.9015C85.2687 33.9944 84.9384 34.2353 84.7331 34.5713C84.5278 34.9073 84.4645 35.3109 84.5568 35.6935Z" fill="white"/>
<path d="M85.9697 40.0551L91.7715 41.1582L104.061 38.1868C104.444 38.0942 104.775 37.8534 104.98 37.5173C105.186 37.1813 105.249 36.7775 105.156 36.3949C105.063 36.0123 104.822 35.6821 104.486 35.477C104.149 35.272 103.745 35.2088 103.362 35.3014L86.9524 39.2689C86.6095 39.3511 86.3074 39.5533 86.1008 39.8389C86.0511 39.9071 86.0072 39.9794 85.9697 40.0551Z" fill="white"/>
<path d="M97.9961 42.3407L99.9851 42.7187C100.102 42.7407 100.221 42.7377 100.336 42.7098C100.452 42.682 100.56 42.63 100.653 42.5572L102.249 41.3125L97.9961 42.3407Z" fill="white"/>
<path d="M87.8632 27.3817C87.9563 27.7642 88.1975 28.0941 88.5338 28.2991C88.8702 28.5042 89.2743 28.5675 89.6574 28.4752L96.0132 26.9385C96.396 26.8454 96.7262 26.6044 96.9315 26.2685C97.1367 25.9326 97.2002 25.5291 97.108 25.1466C97.0585 24.941 96.9651 24.7485 96.8342 24.5823C96.6584 24.3577 96.4215 24.1883 96.1519 24.0945C95.8823 24.0006 95.5914 23.9863 95.3138 24.0531L88.958 25.5898C88.575 25.6825 88.2444 25.9233 88.0391 26.2594C87.8338 26.5954 87.7705 26.9991 87.8632 27.3817V27.3817Z" fill="white"/>
<path d="M91.771 41.1593L97.9967 42.3425L99.9851 42.7207C100.101 42.7424 100.221 42.7392 100.336 42.7114C100.451 42.6836 100.559 42.6317 100.653 42.5593L102.25 41.3142L101.689 41.4497L100.506 42.3714C100.439 42.4231 100.362 42.4602 100.28 42.4801C100.198 42.4999 100.113 42.5022 100.029 42.4867L98.5571 42.207L92.3313 41.0238L91.771 41.1593ZM110.367 34.6823L110.428 34.9324L110.704 34.7179L110.367 34.6823ZM91.771 41.1593L97.9967 42.3425L99.9851 42.7207C100.101 42.7424 100.221 42.7392 100.336 42.7114C100.451 42.6836 100.559 42.6317 100.653 42.5593L102.25 41.3142L101.689 41.4497L100.506 42.3714C100.439 42.4231 100.362 42.4602 100.28 42.4801C100.198 42.4999 100.113 42.5022 100.029 42.4867L98.5571 42.207L92.3313 41.0238L91.771 41.1593ZM91.771 41.1593L97.9967 42.3425L99.9851 42.7207C100.101 42.7424 100.221 42.7392 100.336 42.7114C100.451 42.6836 100.559 42.6317 100.653 42.5593L102.25 41.3142L101.689 41.4497L100.506 42.3714C100.439 42.4231 100.362 42.4602 100.28 42.4801C100.198 42.4999 100.113 42.5022 100.029 42.4867L98.5571 42.207L92.3313 41.0238L91.771 41.1593ZM71.4874 38.2573L78.5125 67.2412C78.5647 67.4553 78.6998 67.6401 78.8881 67.7549C79.0765 67.8697 79.3028 67.9052 79.5174 67.8535L130.363 55.5601C130.578 55.5081 130.763 55.3732 130.878 55.185C130.993 54.9968 131.028 54.7708 130.977 54.5565L123.951 25.5727C123.919 25.4374 123.853 25.3124 123.759 25.2095C123.666 25.1065 123.547 25.0289 123.416 24.9837C123.318 24.9495 123.216 24.9341 123.112 24.9381C122.992 24.9416 122.875 24.9725 122.768 25.0285C122.719 25.0518 122.673 25.0805 122.63 25.1141L118.458 28.3685L112.397 33.0967L110.367 34.6806L110.367 34.6823L110.366 34.6827L102.92 40.4877L101.689 41.4497L100.506 42.3714C100.439 42.4231 100.362 42.4602 100.28 42.48C100.198 42.4999 100.113 42.5022 100.029 42.4867L98.5571 42.207L92.3313 41.0238L86.1001 39.8401L72.4522 37.2461C72.3358 37.2231 72.2158 37.2256 72.1005 37.2537C71.9453 37.2916 71.8043 37.3732 71.6942 37.4888C71.652 37.5342 71.6145 37.5837 71.5822 37.6365C71.47 37.8229 71.436 38.046 71.4874 38.2573ZM91.771 41.1593L97.9967 42.3425L99.9851 42.7207C100.101 42.7424 100.221 42.7392 100.336 42.7114C100.451 42.6836 100.559 42.6317 100.653 42.5593L102.25 41.3142L101.689 41.4497L100.506 42.3714C100.439 42.4231 100.362 42.4602 100.28 42.4801C100.198 42.4999 100.113 42.5022 100.029 42.4867L98.5571 42.207L92.3313 41.0238L91.771 41.1593ZM91.771 41.1593L97.9967 42.3425L99.9851 42.7207C100.101 42.7424 100.221 42.7392 100.336 42.7114C100.451 42.6836 100.559 42.6317 100.653 42.5593L102.25 41.3142L101.689 41.4497L100.506 42.3714C100.439 42.4231 100.362 42.4602 100.28 42.4801C100.198 42.4999 100.113 42.5022 100.029 42.4867L98.5571 42.207L92.3313 41.0238L91.771 41.1593ZM91.771 41.1593L97.9967 42.3425L99.9851 42.7207C100.101 42.7424 100.221 42.7392 100.336 42.7114C100.451 42.6836 100.559 42.6317 100.653 42.5593L102.25 41.3142L101.689 41.4497L100.506 42.3714C100.439 42.4231 100.362 42.4602 100.28 42.4801C100.198 42.4999 100.113 42.5022 100.029 42.4867L98.5571 42.207L92.3313 41.0238L91.771 41.1593Z" fill="white"/>
<path d="M91.771 41.1592L97.9967 42.3425L99.9851 42.7207C100.101 42.7424 100.221 42.7392 100.336 42.7114C100.451 42.6836 100.559 42.6317 100.653 42.5592L102.25 41.3142L101.689 41.4497L100.506 42.3714C100.439 42.4231 100.362 42.4602 100.28 42.48C100.198 42.4999 100.113 42.5022 100.029 42.4867L98.5571 42.207L92.3313 41.0238L91.771 41.1592ZM110.367 34.6823L110.428 34.9324L110.704 34.7179L110.367 34.6823ZM91.771 41.1592L97.9967 42.3425L99.9851 42.7207C100.101 42.7424 100.221 42.7392 100.336 42.7114C100.451 42.6836 100.559 42.6317 100.653 42.5592L102.25 41.3142L101.689 41.4497L100.506 42.3714C100.439 42.4231 100.362 42.4602 100.28 42.48C100.198 42.4999 100.113 42.5022 100.029 42.4867L98.5571 42.207L92.3313 41.0238L91.771 41.1592ZM91.771 41.1592L97.9967 42.3425L99.9851 42.7207C100.101 42.7424 100.221 42.7392 100.336 42.7114C100.451 42.6836 100.559 42.6317 100.653 42.5592L102.25 41.3142L101.689 41.4497L100.506 42.3714C100.439 42.4231 100.362 42.4602 100.28 42.48C100.198 42.4999 100.113 42.5022 100.029 42.4867L98.5571 42.207L92.3313 41.0238L91.771 41.1592ZM71.8137 37.6544L71.8445 37.6775C71.8497 37.6691 71.8587 37.6615 71.8655 37.6526C71.9344 37.5811 72.0199 37.5277 72.1145 37.4973C72.2091 37.4669 72.3098 37.4604 72.4075 37.4784L85.9701 40.0552L91.771 41.1592L97.9967 42.3425L99.9851 42.7207C100.101 42.7424 100.221 42.7392 100.336 42.7114C100.451 42.6836 100.559 42.6317 100.653 42.5592L102.25 41.3142L101.689 41.4497L100.506 42.3714C100.439 42.4231 100.362 42.4602 100.28 42.48C100.198 42.4999 100.113 42.5022 100.029 42.4867L98.5571 42.207L92.3313 41.0238L86.1001 39.8401L72.4522 37.2461C72.3358 37.2231 72.2158 37.2256 72.1005 37.2537L71.8137 37.6544ZM71.4874 38.2573L78.5125 67.2412C78.5647 67.4553 78.6998 67.6401 78.8881 67.7549C79.0765 67.8697 79.3028 67.9052 79.5174 67.8535L130.363 55.5601C130.578 55.5081 130.763 55.3732 130.878 55.185C130.993 54.9968 131.028 54.7708 130.977 54.5565L123.951 25.5727C123.919 25.4374 123.853 25.3124 123.759 25.2095C123.666 25.1065 123.547 25.0289 123.416 24.9837C123.318 24.9495 123.216 24.9341 123.112 24.9381C122.992 24.9416 122.875 24.9725 122.768 25.0285C122.719 25.0518 122.673 25.0805 122.63 25.1141L118.458 28.3685L112.397 33.0967L110.367 34.6806L110.367 34.6823L110.366 34.6827L102.92 40.4877L101.689 41.4497L100.506 42.3714C100.439 42.4231 100.362 42.4602 100.28 42.48C100.198 42.4999 100.113 42.5022 100.029 42.4867L98.5571 42.207L92.3313 41.0238L86.1001 39.8401L72.4522 37.2461C72.3358 37.2231 72.2158 37.2256 72.1005 37.2537C71.9453 37.2915 71.8043 37.3731 71.6942 37.4888C71.652 37.5342 71.6145 37.5837 71.5822 37.6365C71.47 37.8229 71.436 38.0459 71.4874 38.2573ZM71.7191 38.2013C71.6983 38.1158 71.697 38.0268 71.7151 37.9408C71.7333 37.8548 71.7705 37.7739 71.8239 37.7041C71.8288 37.6939 71.8358 37.6848 71.8445 37.6775C71.8497 37.6691 71.8587 37.6615 71.8655 37.6526C71.9344 37.5811 72.0199 37.5277 72.1145 37.4973C72.2091 37.4669 72.3098 37.4604 72.4075 37.4784L85.9701 40.0552L91.771 41.1592L97.9967 42.3425L99.9851 42.7207C100.101 42.7424 100.221 42.7392 100.336 42.7114C100.451 42.6836 100.559 42.6317 100.653 42.5592L102.25 41.3142L103.259 40.5263L110.428 34.9324L110.704 34.7179L112.396 33.3976L118.422 28.6976L122.778 25.2998C122.845 25.2483 122.921 25.2114 123.003 25.1916C123.025 25.186 123.049 25.1822 123.072 25.1802C123.092 25.1765 123.113 25.1746 123.134 25.1743C123.203 25.1737 123.272 25.1849 123.338 25.2077C123.432 25.2403 123.516 25.2959 123.583 25.3694C123.65 25.4428 123.698 25.5318 123.721 25.6282L130.747 54.6121C130.765 54.6881 130.768 54.7669 130.756 54.8442C130.744 54.9214 130.717 54.9955 130.676 55.0622C130.636 55.1289 130.582 55.187 130.519 55.233C130.456 55.279 130.384 55.3122 130.308 55.3305L79.4617 67.6239C79.3083 67.6607 79.1466 67.6352 79.012 67.5529C78.8774 67.4706 78.7811 67.3383 78.7442 67.1851L71.7191 38.2013ZM91.771 41.1593L97.9967 42.3425L99.9851 42.7207C100.101 42.7424 100.221 42.7392 100.336 42.7114C100.451 42.6836 100.559 42.6317 100.653 42.5593L102.25 41.3142L101.689 41.4497L100.506 42.3714C100.439 42.4231 100.362 42.4602 100.28 42.4801C100.198 42.4999 100.113 42.5022 100.029 42.4867L98.5571 42.207L92.3313 41.0238L91.771 41.1593ZM91.771 41.1593L97.9967 42.3425L99.9851 42.7207C100.101 42.7424 100.221 42.7392 100.336 42.7114C100.451 42.6836 100.559 42.6317 100.653 42.5593L102.25 41.3142L101.689 41.4497L100.506 42.3714C100.439 42.4231 100.362 42.4602 100.28 42.4801C100.198 42.4999 100.113 42.5022 100.029 42.4867L98.5571 42.207L92.3313 41.0238L91.771 41.1593ZM91.771 41.1593L97.9967 42.3425L99.9851 42.7207C100.101 42.7424 100.221 42.7392 100.336 42.7114C100.451 42.6836 100.559 42.6317 100.653 42.5593L102.25 41.3142L101.689 41.4497L100.506 42.3714C100.439 42.4231 100.362 42.4602 100.28 42.4801C100.198 42.4999 100.113 42.5022 100.029 42.4867L98.5571 42.207L92.3313 41.0238L91.771 41.1593Z" fill="#3F3D56"/>
<path d="M117.111 49.8653C116.997 49.3903 117.076 48.8894 117.33 48.4724C117.585 48.0554 117.995 47.7564 118.47 47.6409L124.888 46.0893C125.363 45.9762 125.863 46.0558 126.279 46.3105C126.696 46.5652 126.994 46.9743 127.109 47.4481C127.224 47.922 127.146 48.4221 126.892 48.8387C126.639 49.2554 126.23 49.5546 125.756 49.671L119.338 51.2226C118.863 51.337 118.361 51.2584 117.944 51.0039C117.526 50.7494 117.227 50.34 117.111 49.8653Z" fill="#F1563C"/>
<path d="M46.1913 44.482C47.0698 44.482 47.782 43.7707 47.782 42.8933C47.782 42.016 47.0698 41.3047 46.1913 41.3047C45.3129 41.3047 44.6007 42.016 44.6007 42.8933C44.6007 43.7707 45.3129 44.482 46.1913 44.482Z" fill="white"/>
</g>
<defs>
<clipPath id="clip0">
<rect width="131" height="112" fill="white"/>
</clipPath>
</defs>
</svg>
