<svg width="406" height="285" viewBox="0 0 406 285" fill="none" xmlns="http://www.w3.org/2000/svg">
<g clip-path="url(#clip0)">
<path d="M284.565 54.9698L92.6229 72.246C91.6805 72.3297 90.7434 72.0346 90.0173 71.4253C89.2913 70.8161 88.8354 69.9425 88.7499 68.9962L84.4827 21.1798C84.3993 20.2333 84.6932 19.2922 85.2998 18.563C85.9064 17.8339 86.7763 17.3761 87.7186 17.2902L279.661 0.0139602C280.603 -0.0697467 281.54 0.225386 282.266 0.834615C282.992 1.44385 283.448 2.31743 283.534 3.26373L287.801 51.0802C287.884 52.0267 287.591 52.9677 286.984 53.6969C286.377 54.4261 285.507 54.8839 284.565 54.9698Z" fill="#F1563C" fill-opacity="0.5"/>
<path d="M18.084 109.372C18.4722 133.441 27.4302 136.047 38.4309 133.537C50.998 130.669 61.3127 121.68 66.3964 109.787L69.9024 101.585C72.2332 96.1322 72.3116 89.9728 70.1205 84.4619C67.9293 78.951 63.648 74.5399 58.2185 72.1991H58.2184C55.53 71.0401 52.6405 70.4242 49.715 70.3866C46.7896 70.349 43.8854 70.8905 41.1683 71.9801C38.4512 73.0696 35.9744 74.686 33.8793 76.7369C31.7842 78.7878 30.1119 81.2331 28.9578 83.933C17.676 88.3838 15.4478 97.598 18.084 109.372Z" fill="#2F2E41"/>
<path d="M88.8193 60.9274L92.1958 55.1893C92.6081 54.4886 92.8571 53.7033 92.924 52.8922C92.9909 52.081 92.8741 51.2652 92.5823 50.5059C92.2905 49.7466 91.8312 49.0636 91.239 48.508C90.6468 47.9524 89.937 47.5387 89.1628 47.2979C88.3457 47.0438 87.4799 46.9895 86.6377 47.1395C85.7954 47.2895 85.0011 47.6395 84.3208 48.1603C83.6406 48.6812 83.0941 49.3578 82.727 50.1337C82.3599 50.9096 82.1828 51.7624 82.2105 52.621L82.4089 58.7889L66.541 102.461L75.194 104.275L88.8193 60.9274Z" fill="#9F616A"/>
<path d="M5.33872 168.587L1.18271 173.784C0.675209 174.418 0.317373 175.16 0.136056 175.953C-0.0452609 176.746 -0.045353 177.571 0.135786 178.364C0.316925 179.157 0.674593 179.899 1.18196 180.534C1.68932 181.168 2.3332 181.679 3.0653 182.028C3.83803 182.397 4.68724 182.575 5.54218 182.547C6.39713 182.519 7.23303 182.286 7.98022 181.868C8.72742 181.449 9.36426 180.858 9.83769 180.142C10.3111 179.427 10.6074 178.608 10.7019 177.754L11.3805 171.621L33.2818 130.665L24.9744 127.631L5.33872 168.587Z" fill="#9F616A"/>
<path d="M31.0176 211.817L31.6293 219.197L31.7728 220.919L72.4488 216.99C73.8509 216.831 75.1959 216.343 76.3745 215.564C77.5532 214.785 78.5322 213.737 79.2319 212.507C79.9317 211.277 80.3326 209.898 80.4019 208.482C80.4712 207.067 80.2071 205.655 79.6309 204.362L66.5128 176.079L61.9815 166.31L42.3459 161.76C26.154 174.206 40.7221 187.941 59.0513 201.836C59.7687 202.382 60.4937 202.928 61.2263 203.474L31.0176 211.817Z" fill="#2F2E41"/>
<path d="M17.3119 237.372C17.8075 237.443 18.313 237.386 18.7799 237.204C19.2468 237.023 19.6594 236.724 19.9783 236.336L33.2836 220.161L32.5283 212.576L27.9916 209.843C27.6205 209.619 27.2054 209.479 26.7751 209.433C26.3448 209.387 25.9096 209.435 25.4997 209.575C25.0899 209.715 24.7153 209.942 24.4019 210.242C24.0885 210.542 23.8439 210.906 23.685 211.311L15.0069 233.389C14.8448 233.802 14.7778 234.246 14.811 234.688C14.8442 235.13 14.9767 235.558 15.1985 235.942C15.4203 236.325 15.7257 236.653 16.0917 236.901C16.4577 237.148 16.8749 237.31 17.3119 237.372Z" fill="#2F2E41"/>
<path opacity="0.2" d="M28.752 210.301L29.5072 219.402L31.6293 219.197L70.1832 215.473C71.5852 215.314 72.9303 214.826 74.1089 214.047C75.2875 213.268 76.2665 212.221 76.9663 210.99C77.6661 209.76 78.067 208.381 78.1363 206.965C78.2056 205.55 77.9415 204.138 77.3653 202.845L66.5128 178.446V176.079L61.9815 166.31L42.3459 161.76C26.154 174.206 40.7221 187.941 59.0513 201.836L58.9607 201.958L28.752 210.301Z" fill="black"/>
<path d="M13.5345 234.339C14.0302 234.41 14.5356 234.352 15.0025 234.171C15.4694 233.989 15.8821 233.691 16.2009 233.303L29.5062 217.128L28.751 209.543L24.2143 206.809C23.8432 206.586 23.428 206.446 22.9977 206.4C22.5674 206.354 22.1322 206.402 21.7224 206.542C21.3126 206.681 20.938 206.909 20.6246 207.209C20.3112 207.508 20.0665 207.873 19.9076 208.277L11.2295 230.356C11.0674 230.768 11.0005 231.212 11.0337 231.654C11.0668 232.096 11.1993 232.525 11.4211 232.908C11.6429 233.292 11.9483 233.62 12.3144 233.867C12.6804 234.115 13.0976 234.276 13.5345 234.339Z" fill="#2F2E41"/>
<path d="M27.2402 208.784L27.9954 217.886L68.6715 213.956C70.0735 213.797 71.4184 213.309 72.5971 212.53C73.7758 211.751 74.7549 210.704 75.455 209.474C76.155 208.244 76.5563 206.865 76.6261 205.45C76.6959 204.035 76.4323 202.623 75.8568 201.329L65.0011 176.929V163.277L38.5685 158.727C21.7395 171.661 38.1367 185.99 57.4489 200.441L27.2402 208.784Z" fill="#2F2E41"/>
<path d="M52.9181 101.843C59.1745 101.843 64.2464 96.7498 64.2464 90.4666C64.2464 84.1834 59.1745 79.0898 52.9181 79.0898C46.6617 79.0898 41.5898 84.1834 41.5898 90.4666C41.5898 96.7498 46.6617 101.843 52.9181 101.843Z" fill="#9F616A"/>
<path d="M37.8125 109.426L53.6721 120.045L67.266 117.011L59.7138 109.426V98.0495L47.6303 97.291C47.3766 101.834 44.7845 105.991 37.8125 109.426Z" fill="#9F616A"/>
<path d="M35.5485 162.519L65.002 166.311L71.7989 134.457C74.9566 126.001 73.1449 118.53 67.2988 111.859C67.0752 110.737 66.4796 109.723 65.609 108.984C64.7384 108.245 63.6442 107.823 62.5047 107.789L59.7155 107.911C60.031 117.97 52.6515 115.547 41.5903 107.152L40.2546 107.555C38.528 108.075 37.0456 109.202 36.0787 110.73C35.1118 112.258 34.725 114.085 34.9892 115.875L36.2071 124.131C36.7236 127.405 37.5258 130.626 38.6046 133.758C41.6243 142.821 40.5452 152.416 35.5485 162.519Z" fill="#CACACA"/>
<path d="M21.9551 128.389L35.549 132.94L41.5907 110.945L39.5439 110.01C37.8469 109.236 35.9201 109.138 34.1543 109.738C32.3885 110.338 30.9161 111.59 30.0359 113.24L21.9551 128.389Z" fill="#CACACA"/>
<path d="M61.9824 107.911L69.5348 116.253L78.5971 101.843L67.2688 95.7754L61.9824 107.911Z" fill="#CACACA"/>
<path d="M39.7031 87.0526C46.8218 89.7484 54.4189 89.4689 62.3596 87.0526V77.9512H39.7031V87.0526Z" fill="#2F2E41"/>
<path d="M393.014 243.287L385.203 246.555L333.138 175.312L295.391 247.862L285.629 245.902L314.265 145.9H347.456L393.014 243.287Z" fill="#2F2E41"/>
<path d="M403.492 259.906C403.059 260.024 402.607 260.056 402.162 259.998C401.717 259.941 401.288 259.795 400.899 259.57L384.428 250.047C383.984 249.79 383.604 249.433 383.319 249.005C383.033 248.577 382.85 248.089 382.783 247.578C382.716 247.067 382.766 246.548 382.931 246.06C383.096 245.572 383.37 245.129 383.733 244.765L385.205 243.286L393.015 242.633L404.954 254.143C405.388 254.562 405.704 255.089 405.869 255.67C406.034 256.251 406.043 256.866 405.895 257.452C405.746 258.038 405.445 258.574 405.023 259.005C404.601 259.436 404.073 259.747 403.492 259.906Z" fill="#2F2E41"/>
<path d="M275.803 262.521C276.236 262.64 276.688 262.671 277.133 262.613C277.578 262.556 278.007 262.41 278.396 262.186L294.866 252.662C295.311 252.405 295.691 252.049 295.976 251.621C296.261 251.192 296.445 250.704 296.512 250.193C296.579 249.683 296.529 249.163 296.364 248.675C296.199 248.187 295.925 247.744 295.562 247.38L294.09 245.902L286.28 245.248L274.341 256.758C273.907 257.177 273.591 257.704 273.426 258.285C273.26 258.867 273.252 259.481 273.4 260.067C273.549 260.653 273.849 261.189 274.271 261.62C274.693 262.051 275.222 262.362 275.803 262.521Z" fill="#2F2E41"/>
<path d="M292.137 41.9782L288.883 43.939L282.139 32.934C281.725 32.2581 281.479 31.4921 281.421 30.7006C281.364 29.9091 281.497 29.1153 281.809 28.3862C282.12 27.657 282.602 27.0139 283.214 26.511C283.825 26.0081 284.548 25.6603 285.321 25.4968C286.009 25.3514 286.719 25.3554 287.405 25.5084C288.091 25.6614 288.737 25.96 289.298 26.384C289.86 26.8081 290.325 27.3478 290.662 27.9671C290.998 28.5863 291.2 29.2707 291.251 29.9744L292.137 41.9782Z" fill="#FFB9B9"/>
<path d="M382.279 127.657L383.629 124.096L395.705 128.557C396.447 128.831 397.112 129.28 397.644 129.866C398.177 130.453 398.561 131.159 398.765 131.926C398.969 132.692 398.986 133.497 398.815 134.272C398.645 135.047 398.291 135.769 397.784 136.378C397.333 136.919 396.772 137.357 396.139 137.663C395.505 137.969 394.814 138.135 394.112 138.15C393.409 138.166 392.712 138.03 392.066 137.753C391.42 137.475 390.84 137.062 390.366 136.541L382.279 127.657Z" fill="#FFB9B9"/>
<path d="M331.186 81.194C336.578 81.194 340.948 76.8046 340.948 71.39C340.948 65.9753 336.578 61.5859 331.186 61.5859C325.795 61.5859 321.424 65.9753 321.424 71.39C321.424 76.8046 325.795 81.194 331.186 81.194Z" fill="#FFB9B9"/>
<path d="M339.646 92.3068H325.979V77.2741L337.693 75.9668L339.646 92.3068Z" fill="#FFB9B9"/>
<path d="M349.409 149.822H312.312C313.621 129.036 314.656 108.947 312.312 97.5343L314.47 87.1363C314.768 85.6955 315.596 84.4206 316.788 83.5648C317.981 82.7091 319.45 82.3354 320.904 82.5179L325.98 83.1551C329.417 89.224 333.571 89.1654 338.345 83.8087H344.459C345.274 83.8087 346.081 83.972 346.832 84.289C347.584 84.606 348.265 85.0703 348.836 85.6548C349.406 86.2394 349.855 86.9323 350.156 87.6932C350.456 88.454 350.603 89.2675 350.587 90.0859C352.18 97.4096 352.709 104.926 352.16 112.402L349.409 149.822Z" fill="#3F3D56"/>
<path d="M286.93 41.9775L292.136 39.3633L320.121 85.7691L312.312 97.5337L286.93 41.9775Z" fill="#3F3D56"/>
<path d="M382.351 129.517L386.801 125.747L363.158 92.4758C360.845 89.2208 357.656 86.695 353.966 85.1943C350.275 83.6936 346.235 83.2801 342.318 84.0022L341.572 84.1398L350.512 99.8517L362.287 108.805L382.351 129.517Z" fill="#3F3D56"/>
<path d="M342.476 65.6034C342.476 65.6034 344.3 61.573 339.557 59.741C339.557 59.741 335.544 53.1459 327.517 57.5426C327.517 57.5426 322.045 59.741 322.045 65.6034C322.045 71.4658 320.221 72.565 320.221 72.565C320.221 72.565 322.937 69.7661 323.667 67.5677C324.397 65.3694 330.071 64.8706 332.26 67.069C334.449 69.2674 339.922 68.901 339.922 68.901L339.557 76.9617C339.557 76.9617 341.381 72.1986 342.111 72.1986C342.841 72.1986 343.57 65.6034 342.476 65.6034Z" fill="#2F2E41"/>
<path d="M341.575 285.001C374.564 285.001 401.307 283.602 401.307 281.876C401.307 280.151 374.564 278.752 341.575 278.752C308.585 278.752 281.842 280.151 281.842 281.876C281.842 283.602 308.585 285.001 341.575 285.001Z" fill="#E6E6E6"/>
<path d="M43.3367 283.528C60.774 283.528 74.9098 282.788 74.9098 281.876C74.9098 280.964 60.774 280.225 43.3367 280.225C25.8994 280.225 11.7637 280.964 11.7637 281.876C11.7637 282.788 25.8994 283.528 43.3367 283.528Z" fill="#E6E6E6"/>
<path d="M115.051 57.5822C123.329 57.5822 130.04 50.8428 130.04 42.5294C130.04 34.2159 123.329 27.4766 115.051 27.4766C106.773 27.4766 100.062 34.2159 100.062 42.5294C100.062 50.8428 106.773 57.5822 115.051 57.5822Z" fill="white"/>
<path d="M148.638 29.4313C147.979 29.4919 147.371 29.8125 146.947 30.3229C146.523 30.8333 146.318 31.4917 146.377 32.1536C146.436 32.8155 146.754 33.4268 147.262 33.8534C147.769 34.2799 148.424 34.4869 149.084 34.4288L266.381 23.8712C266.708 23.8422 267.027 23.7488 267.318 23.5962C267.609 23.4436 267.867 23.2349 268.078 22.982C268.289 22.7291 268.448 22.437 268.546 22.1223C268.644 21.8076 268.679 21.4766 268.65 21.1481C268.621 20.8197 268.527 20.5003 268.375 20.2081C268.223 19.916 268.014 19.6569 267.762 19.4457C267.51 19.2344 267.219 19.0752 266.905 18.977C266.592 18.8788 266.262 18.8437 265.935 18.8736L148.638 29.4313Z" fill="white"/>
<path d="M149.975 44.4235C149.648 44.4523 149.33 44.5456 149.038 44.6981C148.747 44.8506 148.489 45.0593 148.278 45.3123C148.067 45.5652 147.908 45.8574 147.81 46.1722C147.711 46.4869 147.676 46.8181 147.705 47.1466C147.735 47.4752 147.828 47.7947 147.981 48.0869C148.133 48.3791 148.341 48.6382 148.594 48.8495C148.846 49.0607 149.137 49.22 149.451 49.318C149.764 49.4161 150.094 49.4511 150.421 49.421L267.719 38.8634C268.046 38.8344 268.364 38.741 268.655 38.5884C268.946 38.4358 269.205 38.2271 269.415 37.9742C269.626 37.7213 269.785 37.4291 269.883 37.1145C269.982 36.7998 270.017 36.4688 269.988 36.1403C269.958 35.8119 269.865 35.4925 269.713 35.2003C269.56 34.9082 269.352 34.6491 269.1 34.4379C268.848 34.2266 268.557 34.0673 268.243 33.9692C267.93 33.871 267.6 33.8359 267.273 33.8658L149.975 44.4235Z" fill="white"/>
</g>
<defs>
<clipPath id="clip0">
<rect width="406" height="285" fill="white"/>
</clipPath>
</defs>
</svg>
