<svg id="fb.svg" xmlns="http://www.w3.org/2000/svg" width="48" height="48" viewBox="0 0 24 24">
  <defs>
    <style>
      .cls-1 {
        fill: #a3a3a3;
        fill-rule: evenodd;
      }
    </style>
  </defs>
  <path class="cls-1" d="M733.675,6584.01H712.322a1.322,1.322,0,0,0-1.325,1.32v21.35a1.324,1.324,0,0,0,1.325,1.33h11.5v-9.3H720.69v-3.62h3.128v-2.67c0-3.1,1.893-4.79,4.659-4.79a27.116,27.116,0,0,1,2.8.14v3.24h-1.918c-1.5,0-1.8.72-1.8,1.77v2.31h3.588l-0.468,3.62h-3.12v9.3h6.117a1.325,1.325,0,0,0,1.325-1.33v-21.35A1.322,1.322,0,0,0,733.675,6584.01Z" transform="translate(-711 -6584)"/>
</svg>
