<svg xmlns="http://www.w3.org/2000/svg" viewBox="0 0 117 117"><defs><style>.a{fill:#fff;}.b{fill:#f1563c;}</style></defs><title>icons-services</title><circle class="a" cx="58.5" cy="58" r="55"/><path class="b" d="M58.5,6A52.5,52.5,0,1,1,6,58.5,52.56,52.56,0,0,1,58.5,6m0-6A58.5,58.5,0,1,0,117,58.5,58.5,58.5,0,0,0,58.5,0h0Z"/><path class="b" d="M58,105V99c22.06,0,40.7-18.55,40.7-40.5S80.06,18,58,18V12A46.44,46.44,0,0,1,90.9,25.69a45.91,45.91,0,0,1,0,65.63A46.44,46.44,0,0,1,58,105Z"/><path class="b" d="M58,92V86c15,0,27.67-12.59,27.67-27.5S73,31,58,31V25c18.25,0,33.67,15.34,33.67,33.5S76.25,92,58,92Z"/></svg>