<svg xmlns="http://www.w3.org/2000/svg" viewBox="0 0 138 84.53"><defs><style>.a{fill:#fff;}.b{fill:#f1563c;}</style></defs><title>icons-services</title><polygon class="a" points="21 11 31 2 112 3 121 15 135 56 133 67 126 78 117 81 107 79 97 71 84 54 56 53 51 59 42 72 30 81 15 80 6 72 3 60 6 46 21 11"/><circle class="b" cx="100" cy="22" r="5"/><circle class="b" cx="100" cy="42" r="5"/><circle class="b" cx="90" cy="32" r="5"/><circle class="b" cx="110" cy="32" r="5"/><path class="b" d="M23.79,84a27,27,0,0,1-4-.31A21.66,21.66,0,0,1,4.49,73.46C1.36,68.32-1.36,59.22,3.46,45l0.05-.14L16.17,12.66A19.66,19.66,0,0,1,34.67,0h69.51a19.66,19.66,0,0,1,18.5,12.66l12.71,32.2c4.81,14.16,2.11,23.3-1,28.42a21.7,21.7,0,0,1-15.3,10.25C101.83,86.11,92.79,72,83.26,57.22A8.91,8.91,0,0,0,78.14,56H60.7a11.47,11.47,0,0,0-5.12,1.25C46.79,70.88,38.41,84,23.79,84ZM9.12,47c-4,11.95-2,19.27.5,23.3a15.67,15.67,0,0,0,11,7.42c12.08,1.81,18.71-6.23,30-23.7,1.81-2.81,6.95-3.45,9.84-3.58H78.34c2.9,0.12,8,.75,9.85,3.56,11.23,17.41,17.86,25.41,30,23.59a15.68,15.68,0,0,0,11.07-7.41c3.51-5.76,3.68-13.8.48-23.24L117.09,14.87A13.77,13.77,0,0,0,104.17,6H34.67a13.77,13.77,0,0,0-12.92,8.86Z"/><path class="b" d="M47,29H41V23a3,3,0,0,0-6,0v6H29a3,3,0,0,0,0,6h6v6a3,3,0,0,0,6,0V35h6A3,3,0,0,0,47,29Z"/></svg>