<svg xmlns="http://www.w3.org/2000/svg" viewBox="0 0 143 84.04"><defs><style>.a{fill:#fff;}.b{fill:#f1563c;}</style></defs><title>icons-services</title><path class="a" d="M5,42.05c5.49,7.57,29.67,37.69,66.47,37.69s61-30.12,66.49-37.69c-5.49-7.57-29.68-37.67-66.49-37.67S10.53,34.49,5,42.05Z"/><path class="b" d="M71.74,84.12C28.4,84.12,3.1,45.37,2,43.72L1,42.09l1-1.63C3.1,38.81,28.4.08,71.74,0.08s68.65,38.74,69.71,40.39l1,1.63-1,1.63C140.39,45.37,115.09,84.12,71.74,84.12Zm-63.47-42c5.24,7.22,28.33,36,63.47,36s58.24-28.76,63.49-36c-5.25-7.22-28.34-36-63.49-36S13.51,34.87,8.26,42.09Z"/><rect class="b" x="51" y="26.08" width="42" height="6"/><rect class="b" x="51.17" y="39.1" width="41.83" height="5.98"/><rect class="b" x="51.17" y="52.1" width="41.83" height="5.98"/></svg>