<svg xmlns="http://www.w3.org/2000/svg" viewBox="0 0 149 88"><defs><style>.a{fill:#fff;}.b{fill:#f1563c;}</style></defs><title>icons-services</title><rect class="a" x="17" y="4" width="113" height="78"/><path class="b" d="M134,80V6.63A6.63,6.63,0,0,0,127.37,0H21.63A6.63,6.63,0,0,0,15,6.63V80H0v2.33A5.67,5.67,0,0,0,5.67,88H143.33A5.67,5.67,0,0,0,149,82.33V80H134ZM21,6.63A0.63,0.63,0,0,1,21.63,6H127.37a0.63,0.63,0,0,1,.63.63V80H21V6.63Z"/><circle class="b" cx="31" cy="16" r="4"/><circle class="b" cx="44" cy="16" r="4"/><circle class="b" cx="57" cy="16" r="4"/></svg>