<svg xmlns="http://www.w3.org/2000/svg" viewBox="0 0 65 65"><defs><style>.a{fill:#f04934;}.b{fill:#fff;}</style></defs><title>Vector Smart Object</title><rect class="a" width="65" height="65"/><path class="b" d="M40.27,17.18H45.7a7.37,7.37,0,0,1,2,.14,1.19,1.19,0,0,1,.83.83,7.37,7.37,0,0,1,.14,2v5.43a7.37,7.37,0,0,1-.14,2,1.24,1.24,0,0,1-.83.83,7.38,7.38,0,0,1-2,.14H40.27a7.38,7.38,0,0,1-2-.14,1.21,1.21,0,0,1-.83-0.83,7.37,7.37,0,0,1-.14-2V20.12a7.37,7.37,0,0,1,.14-2,1.2,1.2,0,0,1,.83-0.83,7.37,7.37,0,0,1,2-.14h0"/><path class="b" d="M41.51,31.75a1,1,0,0,0-.68-0.68,5.47,5.47,0,0,0-1.48-.12h0a11.22,11.22,0,0,1-3-.24,2,2,0,0,1-1.37-1.37,9.73,9.73,0,0,1-.24-2.66V26.44a6,6,0,0,0-.12-1.61,1,1,0,0,0-.68-0.68A6,6,0,0,0,32.31,24H30.22a6,6,0,0,0-1.61.12,1,1,0,0,0-.68.68,6,6,0,0,0-.12,1.61v0.05h0a10.49,10.49,0,0,1-.24,2.85,2,2,0,0,1-1.37,1.37,6.84,6.84,0,0,1-1.79.22,7.21,7.21,0,0,1-1.92-.23,2,2,0,0,1-1.37-1.37,9.66,9.66,0,0,1-.24-2.64V26.44a6,6,0,0,0-.12-1.61,1,1,0,0,0-.68-0.68A6,6,0,0,0,18.48,24H16.39a6,6,0,0,0-1.61.12,1,1,0,0,0-.68.68A6,6,0,0,0,14,26.44v0.05h0a10.49,10.49,0,0,1-.24,2.85,2,2,0,0,1-1.37,1.37,8.33,8.33,0,0,1-2.27.23H9.48a6,6,0,0,0-1.61.12,1,1,0,0,0-.68.68,6,6,0,0,0-.12,1.61v2.09a6,6,0,0,0,.12,1.61,1,1,0,0,0,.68.68,6,6,0,0,0,1.61.12h2.09a6,6,0,0,0,1.61-.12,1,1,0,0,0,.68-0.68A6,6,0,0,0,14,35.45V35.19a9.66,9.66,0,0,1,.24-2.64,2,2,0,0,1,1.37-1.37A7.21,7.21,0,0,1,17.5,31a6.84,6.84,0,0,1,1.79.22,2,2,0,0,1,1.37,1.37,10.49,10.49,0,0,1,.24,2.85h0v0.05A6,6,0,0,0,21,37.05a1,1,0,0,0,.68.68,6,6,0,0,0,1.61.12h2.09A6,6,0,0,0,27,37.73a1,1,0,0,0,.68-0.68,6,6,0,0,0,.12-1.61V35.2A9.72,9.72,0,0,1,28,32.55a2,2,0,0,1,1.37-1.37A7.21,7.21,0,0,1,31.32,31a6.84,6.84,0,0,1,1.79.22,2,2,0,0,1,1.37,1.37,10.49,10.49,0,0,1,.24,2.85h0v0.05a6,6,0,0,0,.12,1.61,1,1,0,0,0,.68.68,6,6,0,0,0,1.61.12h2.09a6,6,0,0,0,1.61-.12,1,1,0,0,0,.68-0.68,6,6,0,0,0,.12-1.61V33.36A6,6,0,0,0,41.51,31.75Z"/><path class="b" d="M57.37,30.82A1,1,0,0,0,58,30.14a6,6,0,0,0,.12-1.61V26.44A6,6,0,0,0,58,24.83a1,1,0,0,0-.68-0.68A6,6,0,0,0,55.76,24H53.67a6,6,0,0,0-1.61.12,1,1,0,0,0-.68.68,5.46,5.46,0,0,0-.12,1.48h0a11.22,11.22,0,0,1-.24,3,2,2,0,0,1-1.37,1.37,9.6,9.6,0,0,1-2.62.24H46.76a6,6,0,0,0-1.61.12,1,1,0,0,0-.68.68,6,6,0,0,0-.12,1.61v2.09A6,6,0,0,0,44.47,37a1,1,0,0,0,.68.68,6,6,0,0,0,1.61.12h0.05a10.49,10.49,0,0,1,2.85.24A2,2,0,0,1,51,39.46a8.34,8.34,0,0,1,.23,2.27v0.63A6,6,0,0,0,51.38,44a1,1,0,0,0,.68.68,6,6,0,0,0,1.61.12h2.09a6,6,0,0,0,1.61-.12A1,1,0,0,0,58,44a6,6,0,0,0,.12-1.61V40.26A6,6,0,0,0,58,38.66,1,1,0,0,0,57.37,38a6,6,0,0,0-1.61-.12H55.49a9.6,9.6,0,0,1-2.62-.24,2,2,0,0,1-1.37-1.37,7.21,7.21,0,0,1-.23-1.92,6.84,6.84,0,0,1,.22-1.79,2,2,0,0,1,1.37-1.37,10.49,10.49,0,0,1,2.85-.24h0.05A6,6,0,0,0,57.37,30.82Z"/><rect class="b" x="7.04" y="40.74" width="41.17" height="3.77" rx="0.62" ry="0.62"/></svg>