<svg id="twi.svg" xmlns="http://www.w3.org/2000/svg" width="60" height="48" viewBox="0 0 30 24">
  <defs>
    <style>
      .cls-1 {
        fill: #a3a3a3;
        fill-rule: evenodd;
      }
    </style>
  </defs>
  <path class="cls-1" d="M835,6587.84a12.656,12.656,0,0,1-3.536.96,6.11,6.11,0,0,0,2.707-3.35,12.768,12.768,0,0,1-3.909,1.47,6.191,6.191,0,0,0-4.493-1.92,6.113,6.113,0,0,0-6.156,6.06,5.99,5.99,0,0,0,.159,1.38,17.542,17.542,0,0,1-12.687-6.33,6,6,0,0,0,1.9,8.09,6.241,6.241,0,0,1-2.788-.76v0.08a6.075,6.075,0,0,0,4.937,5.93,6.182,6.182,0,0,1-1.621.22,6.314,6.314,0,0,1-1.158-.11,6.154,6.154,0,0,0,5.75,4.2,12.444,12.444,0,0,1-7.645,2.59,11.864,11.864,0,0,1-1.468-.08,17.616,17.616,0,0,0,9.436,2.72,17.247,17.247,0,0,0,17.514-17.23q0-.39-0.018-0.78A12.421,12.421,0,0,0,835,6587.84Z" transform="translate(-805 -6585)"/>
</svg>
