<svg xmlns="http://www.w3.org/2000/svg" viewBox="0 0 95.02 190"><title>ui</title><path d="M94.94,90.15a5.17,5.17,0,0,0-3.73-4.72l-16-4a6.89,6.89,0,0,1-4.53-4.62c-0.29-1.15-.62-2.29-1-3.41a6.89,6.89,0,0,1,1.45-6.31L82.72,55.47a5.19,5.19,0,0,0,.73-6l-3.72-6.26A5.18,5.18,0,0,0,74.14,41L58.3,45.58a6.89,6.89,0,0,1-6.24-1.73q-1.23-1.25-2.52-2.45a6.88,6.88,0,0,1-1.9-6.19l4.14-15.88a5.18,5.18,0,0,0-2.36-5.54l-6.36-3.55a5.18,5.18,0,0,0-6,.88L25.7,23a6.9,6.9,0,0,1-6.27,1.63c-0.79-.21-1.58-0.41-2.37-0.6a6.86,6.86,0,0,1-4.68-4.47L8.23,3.68A5.18,5.18,0,0,0,3.48,0H0V38.42A56.57,56.57,0,0,1,56.56,95,56.57,56.57,0,0,1,0,151.57V190l4.49,0a5.19,5.19,0,0,0,4.74-3.71l4-16a6.91,6.91,0,0,1,4.64-4.51q1.72-.43,3.41-0.94a6.85,6.85,0,0,1,6.3,1.48l11.61,11.56a5.18,5.18,0,0,0,6,.75l6.28-3.69a5.18,5.18,0,0,0,2.24-5.59l-4.5-15.86a6.91,6.91,0,0,1,1.75-6.23c0.84-.82,1.66-1.65,2.46-2.51a6.87,6.87,0,0,1,6.19-1.87l15.87,4.2A5.19,5.19,0,0,0,81,144.72l3.58-6.35a5.17,5.17,0,0,0-.87-5.95L71.89,121a6.92,6.92,0,0,1-1.61-6.28c0.31-1.12.6-2.26,0.87-3.41a6.85,6.85,0,0,1,4.41-4.72l15.83-4.32A5.18,5.18,0,0,0,95,97.44Z"/></svg>