<svg xmlns="http://www.w3.org/2000/svg" viewBox="0 0 93.93 190"><defs><style>.a{fill:#231f20;}</style></defs><title>ui</title><path class="a" d="M93.93,160.22c-2.28.05-3.56,0-7.47,0-6.39,0-9.63-4.58-11.33-11.07-6.8-25.85-23.63-29.74-23.63-57.64,0-27.74,20.3-43.59,42.43-43.77h0V160.22Zm-25-160a5.63,5.63,0,0,0-4,6.87l7.26,27.9A5.63,5.63,0,0,0,79,39h0a5.64,5.64,0,0,0,4-6.87L75.8,4.21a5.64,5.64,0,0,0-6.88-4h0ZM25.35,25.29a5.63,5.63,0,0,0-.05,8L45.55,53.76a5.63,5.63,0,0,0,8,.05h0a5.64,5.64,0,0,0,.06-8L33.33,25.33a5.64,5.64,0,0,0-8,0h0ZM0.2,68.82a5.63,5.63,0,0,0,3.94,6.92l27.8,7.63a5.63,5.63,0,0,0,6.92-3.94h0a5.64,5.64,0,0,0-3.94-6.93L7.13,64.87a5.64,5.64,0,0,0-6.92,4h0Zm0,50.28a5.63,5.63,0,0,0,6.87,4L35,115.81a5.63,5.63,0,0,0,4-6.87h0a5.64,5.64,0,0,0-6.88-4l-27.88,7.3a5.64,5.64,0,0,0-4,6.89h0Zm25.17,43.52a5.63,5.63,0,0,0,8,0l20.49-20.28a5.63,5.63,0,0,0,0-8h0a5.64,5.64,0,0,0-8-.05L25.41,154.65a5.64,5.64,0,0,0,0,8h0Zm56.51,4.15a4.28,4.28,0,0,0,0,8.56h12v-8.56h-12Zm-3.77,18.95A4.29,4.29,0,0,0,82.4,190H93.93v-8.56H82.4A4.28,4.28,0,0,0,78.12,185.71Z"/></svg>