<svg xmlns="http://www.w3.org/2000/svg" viewBox="0 0 25.938 30.094">
  <path fill="#ffffff" fill-rule="evenodd" d="M43.583,893.4c0.057-.125.108-0.237,0.146-0.336,0.437-1.1,5.8-2.787,6.245-2.815a1.261,1.261,0,0,1,.358.029c0.734,0.16,1.537.9,3.23,2.5a22.628,22.628,0,0,0,5.749-4.944A21.088,21.088,0,0,0,62.9,881.52c-1.928-1.829-2.733-2.624-2.784-3.507-0.027-.475.894-6.373,1.862-6.971,0.086-.052.184-0.121,0.292-0.2A3.414,3.414,0,0,1,64.856,870a2.141,2.141,0,0,1,.724.312,9.491,9.491,0,0,1,3.175,3.386c0.48,1.029.7,10.421-5.882,18.357-6.5,7.848-14.518,8.188-15.723,7.926l-0.033-.007-0.106-.033a9.3,9.3,0,0,1-3.522-2.966C42.533,895.714,43.216,894.211,43.583,893.4Z" transform="translate(-43 -869.969)"/>
</svg>
