<svg xmlns="http://www.w3.org/2000/svg" viewBox="0 0 133.47 133.47">
  <path fill="#dedddd" fill-rule="evenodd" d="M1087.08,2544.53c-2.39,0-4.75.11-7.1,0.29a86.741,86.741,0,0,0,7.1,173.19A86.74,86.74,0,0,0,1087.08,2544.53Zm0,160.13a73.322,73.322,0,0,1-54.28-122.69,12.075,12.075,0,0,1,1.67,1.04c3.79,3.13,1.42,8.01,3,12.11,1.41,3.68,2.69,5.08.79,8.99-1.83,3.74-3.61,6.24-2.14,10.47,2.67,7.64,8.77,12.62,12.06,19.71,4.11,8.84,12.13,14.34,22.15,14.32a27.687,27.687,0,0,1,14.26,3.74c4.47,2.38,8.56,4.9,13.56,2.54-1.78-1.45-4.89-1.28-6.11-3.38-0.71-1.23-.86-4.05-0.96-5.45-1.2-.06-4.14.03-5.07-0.72-1.53-1.22-.35-2.86-0.97-4.55-0.53-1.44-2.68-3.74-4.24-2.3-0.97.9-.18,4.25-0.67,5.64-5.74-1.63-16.08-7.74-10.43-14.52,1.64-1.98,5.47-3.42,7.69-4.85a7.879,7.879,0,0,1,5.81-1.14c1,0.12,4.55,1.5,5.39.57,0.72-.8-0.4-2.54-0.48-3.46a9.809,9.809,0,0,1,1.08-4.82,44.509,44.509,0,0,0,2.99-9.81c0.75-4.49.53-8.64,3.28-12.46,2.35-3.26,8.99-8.1,4.01-11.39-2.41-1.6-5.33-2.45-7.79-4.04-1.31-.83-2.49-2.12-4.11-2.08-2.75.08-5.12,2.44-8.22,2.29-0.17,3.51,2.01,7.19.5,10.54-1.4-5.04-11.72-6.17-8.37-11.6,1-1.63,3.65-3.09,1.93-4.99-0.95-1.06-3.69-1.16-4.34.06-4.97.38-9.2,2.62-14.55,2.46-2.76-.08-8.14-0.62-9.67-3.61,1.87-1.33,3.81-2.54,5.79-3.68a3.815,3.815,0,0,1,1.58.49c1.34,0.8,1.93,2.26,3.56,2.84,2.53,0.89,7.03-.37,9.52-1.22,3.47-1.19,1.84-4.87,4.55-6.56,0.37-.24,2.76-0.9,3.38-1.13a6.792,6.792,0,0,1,3.7-.52c2.23,0.35,3.23,1.91,4.87,2.94a19.706,19.706,0,0,0,5.86,2.05c3.21,0.83,8.53.19,11.3,1.7,0.8,0.45.12,1.85,1.78,2.11,0.49-3.43-2.08-5.15-2.65-8.16-0.41-2.15-.51-3.06-1.31-3.54a73.312,73.312,0,0,1,61.15,91.77c-0.01-.44-0.02-0.88-0.03-1.31-2.15.57-4.18,0.35-6.35,0.51-2.39.19-4.53,1.58-6.83,1.8-2.69.26-4.03-1.98-6.56-2.34-1.93-.28-3.14.93-5.05,1.16-6.08.73-12.29-1.06-18.51-.16-2.71.39-4,.56-5.83,2.5-1.57,1.67-3.49,3.06-3.92,5.45-0.51,2.82.84,5.16-.64,7.95-1.8,3.4-1.64,6.53-2.42,10.14-0.57,2.6-.27,4.97,1.67,6.84,4.26,4.1,8.85,5.26,14.73,5.08,0.87,4.78-.71,8.08-3.08,10.99a71.921,71.921,0,0,1-11.32,3.77A73.777,73.777,0,0,1,1087.08,2704.66Z" transform="translate(-1000.34 -2544.53)"/>
</svg>
