<svg id="youtube.svg" xmlns="http://www.w3.org/2000/svg" width="62" height="44" viewBox="0 0 31 22">
  <defs>
    <style>
      .cls-1 {
        fill: #a3a3a3;
        fill-rule: evenodd;
      }
    </style>
  </defs>
  <path class="cls-1" d="M1103.5,6584.99h-0.01s-6.5,0-10.84.32a4.384,4.384,0,0,0-3.1,1.32,6.858,6.858,0,0,0-1.24,3.11,47.744,47.744,0,0,0-.31,5.07v2.37a47.994,47.994,0,0,0,.31,5.07,6.835,6.835,0,0,0,1.24,3.1,5.176,5.176,0,0,0,3.41,1.34c2.48,0.24,10.54.31,10.54,0.31h0s6.51-.01,10.84-0.32a4.44,4.44,0,0,0,3.11-1.33,6.776,6.776,0,0,0,1.23-3.1,47.994,47.994,0,0,0,.31-5.07v-2.37a47.744,47.744,0,0,0-.31-5.07,6.8,6.8,0,0,0-1.23-3.11,4.418,4.418,0,0,0-3.11-1.32c-4.33-.32-10.84-0.32-10.84-0.32m-3.2,15.07,8.37-4.38-8.37-4.42v8.8Z" transform="translate(-1088 -6585)"/>
</svg>
