<svg width="186" height="41" viewBox="0 0 186 41" fill="none" xmlns="http://www.w3.org/2000/svg">
<path d="M1.10449 15.1386L17.8669 15.1418L28.0596 15.1435V5.46533L1.10449 15.1386Z" fill="#F1563C"/>
<path d="M28.0591 5.46539V39.6341L40.7896 0.895386L28.0591 5.46539Z" fill="#F1563C"/>
<path d="M28.0594 15.1435L17.8667 15.1418L28.0594 39.6341V15.1435Z" fill="#F1563C"/>
<path d="M1.10449 15.1387L20.4807 21.4263L17.8669 15.1419L1.10449 15.1387Z" fill="#F1563C"/>
<path d="M62.8534 30.6396C62.7056 30.7813 62.4593 30.958 62.115 31.1703C61.77 31.3828 61.3211 31.5951 60.7673 31.8075C60.2136 32.0196 59.5363 32.2021 58.7367 32.356C57.9364 32.509 57.0199 32.5859 55.9861 32.5859C53.9922 32.5859 52.2691 32.279 50.8171 31.666C49.3644 31.053 48.1646 30.1972 47.2172 29.1005C46.2695 28.0034 45.5744 26.7062 45.1313 25.2078C44.6883 23.7098 44.4668 22.0645 44.4668 20.2714C44.4668 18.4789 44.7067 16.8213 45.1867 15.2997C45.6666 13.778 46.3866 12.4633 47.3464 11.354C48.3065 10.2455 49.5064 9.37838 50.9464 8.75301C52.3863 8.12835 54.0783 7.81531 56.023 7.81531C56.983 7.81531 57.8506 7.89814 58.626 8.06298C59.4014 8.22818 60.078 8.42297 60.6567 8.64688C61.2347 8.87138 61.7148 9.10681 62.0966 9.35461C62.4779 9.60228 62.7671 9.80919 62.9644 9.9738C63.1858 10.163 63.3763 10.3869 63.5366 10.6461C63.6965 10.906 63.7766 11.1891 63.7766 11.4955C63.7766 11.9677 63.5919 12.4393 63.2228 12.911C62.8536 13.3831 62.4474 13.8195 62.0042 14.2203C61.7089 13.9372 61.3767 13.6486 61.0075 13.3534C60.6383 13.0586 60.2258 12.7994 59.7706 12.5749C59.3149 12.351 58.798 12.1624 58.2199 12.0087C57.6413 11.8555 56.9953 11.7786 56.2816 11.7786C55.0263 11.7786 53.9741 12.0208 53.1248 12.504C52.2757 12.9879 51.5926 13.6187 51.0757 14.3973C50.5589 15.1758 50.1896 16.0665 49.9681 17.0689C49.7466 18.0719 49.6359 19.0921 49.6359 20.1299C49.6359 21.239 49.7466 22.3005 49.9681 23.3145C50.1895 24.329 50.5708 25.2257 51.1127 26.0039C51.6537 26.7824 52.3616 27.4077 53.2356 27.8793C54.1089 28.3516 55.1981 28.5872 56.5031 28.5872C57.1918 28.5872 57.8259 28.5048 58.4045 28.3396C58.9825 28.1747 59.4936 27.9739 59.9367 27.7377C60.3797 27.5023 60.7675 27.2548 61.0997 26.995C61.432 26.7354 61.7089 26.5116 61.9305 26.3224C62.0781 26.4879 62.25 26.6886 62.4473 26.9242C62.6456 27.1622 62.8305 27.4103 63.0011 27.6673C63.1731 27.9271 63.3207 28.1864 63.4441 28.4455C63.567 28.7055 63.6286 28.9411 63.6286 29.1531C63.6286 29.4602 63.567 29.7195 63.4441 29.9318C63.3206 30.1442 63.1238 30.3803 62.8534 30.6396ZM81.8803 27.9257C81.8803 29.8007 82.1647 31.1654 82.7346 32.0198C82.2889 32.1856 81.874 32.3044 81.4902 32.3756C81.1061 32.4469 80.7039 32.4824 80.2831 32.4824C79.3918 32.4824 78.7167 32.3162 78.2589 31.984C77.8005 31.6521 77.5096 31.1774 77.3861 30.56C76.841 31.1065 76.123 31.569 75.2317 31.9489C74.3403 32.3279 73.2503 32.5183 71.9631 32.5183C71.2944 32.5183 70.626 32.4294 69.9574 32.2525C69.2886 32.0742 68.6818 31.785 68.1372 31.3833C67.5922 30.9807 67.1466 30.4425 66.8001 29.7681C66.453 29.0938 66.28 28.2719 66.28 27.3021C66.28 26.0956 66.5831 25.1134 67.19 24.3567C67.7967 23.5993 68.558 23.0021 69.4745 22.5643C70.3904 22.1269 71.381 21.8259 72.446 21.6598C73.5105 21.4941 74.4889 21.3879 75.3802 21.34C75.6776 21.3166 75.9683 21.3044 76.2532 21.3044H77.0518V20.6564C77.0518 19.7442 76.7976 19.0961 76.2903 18.7123C75.7824 18.3285 74.9589 18.1361 73.8202 18.1361C72.7553 18.1361 71.8081 18.3023 70.9787 18.6344C70.1488 18.967 69.338 19.3464 68.5459 19.7736C68.1988 19.3703 67.92 18.9254 67.7101 18.4386C67.4996 17.9526 67.3944 17.5904 67.3944 17.3529C67.3944 17.0208 67.5859 16.7004 67.9701 16.3916C68.3538 16.0836 68.8802 15.8043 69.5488 15.5551C70.2175 15.3058 70.9847 15.1045 71.8518 14.9499C72.7182 14.7958 73.6346 14.7185 74.6004 14.7185C75.9375 14.7185 77.0704 14.8492 77.9989 15.1101C78.9275 15.3716 79.6827 15.7748 80.2647 16.3204C80.8463 16.8668 81.2612 17.5487 81.5089 18.3674C81.7562 19.1863 81.8805 20.1419 81.8805 21.2332V27.9257H81.8803ZM77.1258 23.7962H76.606C76.4323 23.7962 76.2588 23.8086 76.0859 23.832C75.4666 23.8798 74.8536 23.9508 74.2474 24.0453C73.6403 24.1405 73.1016 24.3067 72.6317 24.5439C72.161 24.7813 71.7773 25.0901 71.4802 25.4693C71.183 25.8493 71.0344 26.3361 71.0344 26.9291C71.0344 27.5937 71.2323 28.1571 71.6286 28.62C72.0244 29.0829 72.693 29.3143 73.6344 29.3143C74.1045 29.3143 74.5504 29.2553 74.9717 29.136C75.3924 29.0179 75.7638 28.8635 76.0859 28.6736C76.4075 28.4837 76.6617 28.2761 76.8474 28.0503C77.033 27.8251 77.1259 27.6176 77.1259 27.4276V23.7962H77.1258ZM91.1285 16.7831C91.5232 16.3326 92.1407 15.8754 92.9798 15.4124C93.819 14.9497 94.8805 14.7183 96.1643 14.7183C97.0779 14.7183 97.9479 14.8667 98.7751 15.1632C99.6014 15.4602 100.336 15.941 100.978 16.6051C101.62 17.2698 102.132 18.1481 102.515 19.2394C102.897 20.3314 103.089 21.6726 103.089 23.2621C103.089 25.1133 102.866 26.6386 102.422 27.8368C101.978 29.0357 101.404 29.985 100.701 30.6849C99.9973 31.3851 99.2132 31.8776 98.3496 32.1622C97.4855 32.4469 96.6213 32.5896 95.7577 32.5896C95.0417 32.5896 94.4181 32.5123 93.8879 32.3582C93.3568 32.2035 92.9064 32.032 92.5361 31.8419C92.1659 31.6522 91.8822 31.4627 91.6849 31.2723C91.4875 31.0826 91.3638 30.9517 91.3146 30.8804V39.6317H86.263V15.2166C86.3872 15.1933 86.537 15.1694 86.7121 15.1455C86.862 15.1222 87.0366 15.1043 87.2363 15.092C87.4358 15.0804 87.6729 15.0743 87.9471 15.0743C88.7701 15.0743 89.4689 15.2051 90.0428 15.4659C90.6165 15.7274 90.9788 16.1662 91.1285 16.7831ZM97.8144 23.3689C97.8144 22.657 97.7528 21.9929 97.6298 21.3754C97.5068 20.7586 97.3037 20.2245 97.0205 19.7735C96.7373 19.3229 96.3552 18.9725 95.8753 18.7232C95.3947 18.4741 94.8104 18.3496 94.1214 18.3496C93.0873 18.3496 92.3671 18.5398 91.9607 18.919C91.5546 19.299 91.3514 19.7146 91.3514 20.1651V27.7123C91.5481 27.9025 91.8985 28.1276 92.4035 28.3887C92.9085 28.65 93.4928 28.7801 94.1579 28.7801C95.4138 28.7801 96.3371 28.3059 96.9281 27.3563C97.5191 26.4072 97.8144 25.0778 97.8144 23.3689ZM106.988 29.4923C106.814 29.0179 106.703 28.5192 106.653 27.997C106.604 27.4751 106.579 26.9532 106.579 26.4303V9.91223C106.752 9.88894 106.938 9.86505 107.136 9.84104C107.309 9.81775 107.495 9.80004 107.693 9.78768C107.891 9.77604 108.089 9.76997 108.287 9.76997C108.683 9.76997 109.08 9.80563 109.476 9.8767C109.872 9.94801 110.231 10.0904 110.554 10.3038C110.875 10.5174 111.135 10.8085 111.333 11.176C111.531 11.5442 111.631 12.025 111.631 12.6178V15.1453H116.831V18.7411H111.631V26.3327C111.631 27.9882 112.336 28.8157 113.748 28.8157C114.094 28.8157 114.422 28.7626 114.732 28.6555C115.042 28.5488 115.32 28.4303 115.568 28.2997C115.815 28.1692 116.032 28.0328 116.218 27.8903C116.404 27.7478 116.534 27.6412 116.608 27.57C116.979 28.0924 117.264 28.5446 117.462 28.9262C117.66 29.3083 117.759 29.6669 117.759 30.0019C117.759 30.3137 117.63 30.6193 117.369 30.9186C117.109 31.2178 116.744 31.4938 116.273 31.7452C115.803 31.9965 115.234 32.2001 114.565 32.3559C113.896 32.5117 113.166 32.5897 112.373 32.5897C110.838 32.5897 109.643 32.3047 108.789 31.7353C107.935 31.1654 107.334 30.4178 106.988 29.4923ZM129.625 29.0294C130.246 29.0294 130.792 28.9644 131.265 28.8335C131.737 28.7035 132.159 28.5432 132.532 28.3533C132.904 28.1636 133.228 27.9559 133.501 27.7303C133.774 27.505 134.023 27.2973 134.247 27.1071C134.545 27.4629 134.855 27.9202 135.179 28.4775C135.501 29.0357 135.663 29.4923 135.663 29.8481C135.663 30.3705 135.353 30.8451 134.735 31.2723C134.215 31.6522 133.477 31.9786 132.525 32.2511C131.571 32.5238 130.45 32.6605 129.163 32.6605C127.999 32.6605 126.854 32.5183 125.727 32.2334C124.6 31.9487 123.597 31.4502 122.719 30.7381C121.839 30.0264 121.127 29.0712 120.583 27.8725C120.038 26.6741 119.766 25.1614 119.766 23.3334C119.766 21.8381 120.007 20.5511 120.49 19.4709C120.973 18.3912 121.616 17.4952 122.422 16.7832C123.226 16.0712 124.136 15.5495 125.151 15.2167C126.167 14.8848 127.207 14.7184 128.272 14.7184C129.658 14.7184 130.834 14.9265 131.8 15.3414C132.766 15.7569 133.552 16.3147 134.159 17.0146C134.765 17.7147 135.205 18.5158 135.477 19.4176C135.749 20.3197 135.886 21.2687 135.886 22.2655V22.7638C135.886 22.9542 135.88 23.1554 135.867 23.369C135.855 23.5828 135.843 23.7908 135.83 23.992C135.817 24.1941 135.799 24.3541 135.775 24.4727H124.817C124.917 25.7781 125.339 26.8638 126.084 27.7303C126.829 28.5968 128.009 29.0294 129.625 29.0294ZM131.317 21.8026C131.317 20.6634 131.087 19.7379 130.626 19.0259C130.165 18.314 129.337 17.9578 128.142 17.9578C127.12 17.9578 126.305 18.2961 125.695 18.9725C125.084 19.649 124.78 20.5923 124.78 21.8025H131.317V21.8026ZM144.677 16.8731C144.825 16.6613 145.023 16.426 145.271 16.1666C145.518 15.9076 145.822 15.6721 146.181 15.4603C146.54 15.2484 146.936 15.0715 147.37 14.9303C147.802 14.789 148.267 14.7184 148.763 14.7184C149.06 14.7184 149.376 14.7423 149.71 14.789C150.044 14.8363 150.353 14.9247 150.638 15.0538C150.923 15.1834 151.152 15.3597 151.325 15.5833C151.498 15.807 151.585 16.0835 151.585 16.4128C151.585 16.9306 151.449 17.5253 151.177 18.1967C150.904 18.8686 150.632 19.4416 150.36 19.916C149.938 19.5838 149.518 19.3287 149.097 19.1506C148.676 18.9727 148.18 18.8836 147.611 18.8836C146.843 18.8836 146.2 19.0979 145.68 19.5261C145.159 19.9544 144.899 20.4662 144.899 21.0612V32.5856H139.848V15.2166C139.972 15.1933 140.12 15.1694 140.294 15.1455C140.442 15.1222 140.616 15.1043 140.814 15.092C141.012 15.0804 141.247 15.0743 141.519 15.0743C142.312 15.0743 142.999 15.2216 143.581 15.5155C144.162 15.809 144.528 16.2618 144.677 16.8731ZM159.039 16.8731C159.187 16.6613 159.385 16.426 159.633 16.1666C159.88 15.9076 160.184 15.6721 160.543 15.4603C160.902 15.2484 161.298 15.0715 161.732 14.9303C162.165 14.789 162.629 14.7184 163.125 14.7184C163.422 14.7184 163.737 14.7423 164.072 14.789C164.406 14.8363 164.715 14.9247 165 15.0538C165.285 15.1834 165.514 15.3597 165.688 15.5833C165.861 15.807 165.948 16.0835 165.948 16.4128C165.948 16.9306 165.811 17.5253 165.539 18.1967C165.266 18.8686 164.994 19.4416 164.722 19.916C164.301 19.5838 163.879 19.3287 163.459 19.1506C163.038 18.9727 162.542 18.8836 161.973 18.8836C161.205 18.8836 160.562 19.0979 160.042 19.5261C159.522 19.9544 159.262 20.4662 159.262 21.0612V32.5856H154.21V15.2166C154.334 15.1933 154.482 15.1694 154.656 15.1455C154.805 15.1222 154.978 15.1043 155.176 15.092C155.374 15.0804 155.609 15.0743 155.882 15.0743C156.674 15.0743 157.361 15.2216 157.943 15.5155C158.524 15.809 158.89 16.2618 159.039 16.8731ZM183.145 27.9257C183.145 29.8007 183.43 31.1654 184 32.0198C183.554 32.1856 183.139 32.3044 182.755 32.3756C182.371 32.4469 181.969 32.4824 181.548 32.4824C180.656 32.4824 179.982 32.3162 179.524 31.984C179.065 31.6521 178.775 31.1774 178.651 30.56C178.106 31.1065 177.388 31.569 176.497 31.9489C175.605 32.3279 174.515 32.5183 173.228 32.5183C172.559 32.5183 171.891 32.4294 171.222 32.2525C170.554 32.0742 169.946 31.785 169.402 31.3833C168.857 30.9807 168.411 30.4425 168.065 29.7681C167.718 29.0938 167.545 28.2719 167.545 27.3021C167.545 26.0956 167.848 25.1134 168.455 24.3567C169.062 23.5993 169.823 23.0021 170.739 22.5643C171.655 22.1269 172.646 21.8259 173.711 21.6598C174.775 21.4941 175.754 21.3879 176.645 21.34C176.942 21.3166 177.233 21.3044 177.518 21.3044H178.317V20.6564C178.317 19.7442 178.062 19.0961 177.555 18.7123C177.047 18.3285 176.224 18.1361 175.085 18.1361C174.02 18.1361 173.073 18.3023 172.244 18.6344C171.414 18.967 170.603 19.3464 169.811 19.7736C169.464 19.3703 169.185 18.9254 168.975 18.4386C168.765 17.9526 168.659 17.5904 168.659 17.3529C168.659 17.0208 168.851 16.7004 169.235 16.3916C169.619 16.0836 170.145 15.8043 170.814 15.5551C171.482 15.3058 172.25 15.1045 173.116 14.9499C173.983 14.7958 174.899 14.7185 175.865 14.7185C177.202 14.7185 178.335 14.8492 179.264 15.1101C180.192 15.3716 180.947 15.7748 181.529 16.3204C182.111 16.8668 182.526 17.5487 182.774 18.3674C183.021 19.1863 183.145 20.1419 183.145 21.2332V27.9257ZM178.391 23.7962H177.871C177.697 23.7962 177.524 23.8086 177.351 23.832C176.732 23.8798 176.119 23.9508 175.512 24.0453C174.905 24.1405 174.367 24.3067 173.897 24.5439C173.426 24.7813 173.042 25.0901 172.745 25.4693C172.448 25.8493 172.299 26.3361 172.299 26.9291C172.299 27.5937 172.497 28.1571 172.894 28.62C173.289 29.0829 173.958 29.3143 174.899 29.3143C175.37 29.3143 175.815 29.2553 176.237 29.136C176.658 29.0179 177.029 28.8635 177.351 28.6736C177.672 28.4837 177.927 28.2761 178.112 28.0503C178.298 27.8251 178.391 27.6176 178.391 27.4276V23.7962H178.391Z" fill="#F1563C"/>
</svg>
