<svg width="106" height="30" viewBox="0 0 106 30" fill="none" xmlns="http://www.w3.org/2000/svg">
<rect x="27.5371" width="4.81818" height="30" fill="#F1563C"/>
<path d="M49.2187 20.43C49.2187 25.0212 45.3437 25.3872 44.191 25.3872C41.3109 25.3872 40.7869 22.7016 40.7869 21.0816V9.59998H35.9688V21.0576C35.9688 23.9016 36.8649 26.2488 38.4357 27.8136C39.8233 29.1972 41.9023 29.9532 44.1548 29.9532C45.7521 29.9532 48.0142 29.4576 49.2187 28.362V30H54.0369V9.59998H49.2187V20.43Z" fill="#F1563C"/>
<path d="M63.6735 2.40002H58.8553V9.60002H55.2417V14.4H58.8553V30H63.6735V14.4H67.2872V9.60002H63.6735V2.40002Z" fill="#F1563C"/>
<path d="M82.4606 23.9004C81.4114 24.84 80.0262 25.3608 78.506 25.3608C75.155 25.3608 72.6941 22.9092 72.6941 19.5432C72.6941 16.1772 75.0767 13.8288 78.506 13.8288C79.9997 13.8288 81.4114 14.3244 82.4871 15.264L83.2182 15.8904L86.4669 12.6552L85.6538 11.9244C83.7422 10.2048 81.2042 9.23999 78.5048 9.23999C72.4821 9.23999 68.1084 13.5696 68.1084 19.518C68.1084 25.4412 72.5869 29.9256 78.5048 29.9256C81.2548 29.9256 83.8193 28.9608 85.7068 27.2136L86.4922 26.4828L83.1929 23.25L82.4606 23.9004Z" fill="#F1563C"/>
<path d="M103.664 11.3784C102.277 9.996 100.65 9.24 98.3979 9.24C96.8007 9.24 94.9915 9.7356 93.7869 10.83V0H88.9688V30H93.7869V18.762C93.7869 14.1708 97.0609 13.806 98.2136 13.806C101.094 13.806 101.014 16.4928 101.014 18.1104V30H105.832V18.1356C105.832 15.2916 105.236 12.9444 103.664 11.3784Z" fill="#F1563C"/>
<path d="M78.3471 16.1256C80.2719 16.1256 81.8318 17.6772 81.8318 19.596C81.8318 21.5124 80.2719 23.0664 78.3471 23.0664C76.4234 23.0664 74.8647 21.5124 74.8647 19.596C74.866 17.6784 76.4246 16.1256 78.3471 16.1256Z" fill="#F1563C"/>
<path d="M20.7917 22.4652C18.9595 24.3432 16.471 25.3608 13.8523 25.3608C8.48482 25.3608 4.58209 21.1608 4.58209 15.396C4.58209 9.60477 8.48482 5.40477 13.8523 5.40477C16.4457 5.40477 18.9065 6.42117 20.7664 8.27397L21.4987 9.00477L24.7197 5.79597L24.0126 5.06517C21.3421 2.32557 17.7285 0.839966 13.8523 0.839966C5.94443 0.839966 0 7.10037 0 15.4212C0 23.7168 5.97093 29.952 13.8523 29.952C17.755 29.952 21.3686 28.44 24.0391 25.7004L24.7462 24.9696L21.5517 21.7092L20.7917 22.4652Z" fill="#F1563C"/>
</svg>
