<svg width="42" height="44" viewBox="0 0 42 44" fill="none" xmlns="http://www.w3.org/2000/svg">
<mask id="mask0" mask-type="alpha" maskUnits="userSpaceOnUse" x="0" y="0" width="35" height="44">
<path fill-rule="evenodd" clip-rule="evenodd" d="M0.185547 0.0169678H34.2845V43.9699H0.185547V0.0169678Z" fill="white"/>
</mask>
<g mask="url(#mask0)">
<path fill-rule="evenodd" clip-rule="evenodd" d="M0.185547 21.9101C0.190801 18.2495 0.987034 15.0391 2.55577 12.0309C3.79948 9.64596 5.37497 7.51568 7.30986 5.6709C9.00068 4.05885 10.9187 2.79912 13.0409 1.86443C14.4515 1.24314 15.912 0.784091 17.4161 0.467277C18.0312 0.337718 18.6504 0.239243 19.2736 0.159701C20.427 0.0124975 21.5845 -0.00663806 22.743 0.0385653C23.3757 0.0632433 24.0075 0.123752 24.6341 0.225955C24.9331 0.274718 25.2324 0.32104 25.531 0.371633C25.6011 0.383498 25.6711 0.402667 25.7374 0.42843C25.8086 0.456057 25.8403 0.513159 25.8108 0.591328C25.7811 0.67004 25.7509 0.748837 25.7153 0.824887C24.7121 2.97235 23.708 5.11933 22.7046 7.2667C22.4122 7.89257 22.1195 8.51831 21.8318 9.14646C21.7442 9.33768 21.6055 9.42567 21.4026 9.42929C19.8352 9.4574 18.3259 9.78392 16.895 10.4309C13.4707 11.9791 11.1632 14.5786 9.98705 18.217C9.70582 19.087 9.5434 19.9841 9.46136 20.8977C9.05666 25.4041 11.1334 29.9387 14.8926 32.4681C16.0033 33.2153 17.21 33.7403 18.4862 34.1076C19.1074 34.2864 19.7378 34.4195 20.3772 34.5042C21.1232 34.603 21.8737 34.6271 22.6233 34.5723C24.4523 34.4386 26.1488 33.8652 27.7333 32.9299C28.3268 32.5796 28.8924 32.1873 29.4365 31.7617C29.696 31.5587 29.7392 31.5677 29.9016 31.8551C31.3225 34.371 32.7433 36.8869 34.1639 39.4029C34.3469 39.727 34.3348 39.7807 34.0365 39.9942C31.7606 41.6234 29.2666 42.7525 26.5626 43.3979C25.8922 43.5579 25.2148 43.6848 24.5315 43.7695C24.0122 43.8339 23.4898 43.8734 22.9681 43.9153C22.6272 43.9427 22.2852 43.9698 21.9437 43.9699C21.4916 43.9699 21.0392 43.949 20.5874 43.9262C20.2793 43.9106 19.971 43.8855 19.6647 43.8484C19.1399 43.7849 18.6139 43.7248 18.0932 43.6345C16.8918 43.4263 15.7155 43.1134 14.5653 42.6997C11.7437 41.6847 9.22441 40.1516 7.03554 38.0658C4.18305 35.3476 2.2236 32.0637 1.13823 28.2341C0.824698 27.1278 0.582644 26.0054 0.418353 24.866C0.265198 23.8039 0.191961 22.7351 0.185547 21.9101Z" fill="#F1563C"/>
</g>
<path fill-rule="evenodd" clip-rule="evenodd" d="M20.8677 28.2565C20.9063 28.1456 20.9211 28.0676 20.9578 28.0026C21.4155 27.1917 21.8785 26.3839 22.336 25.5729C23.5459 23.4276 24.7543 21.2816 25.9614 19.1347C26.0719 18.9381 26.2272 18.8526 26.4489 18.8532C28.4636 18.8584 30.4782 18.8602 32.4929 18.8606C33.8011 18.8608 35.1092 18.8599 36.4174 18.8528C36.6537 18.8515 36.8098 18.9454 36.9271 19.1537C38.5878 22.101 40.2512 25.0468 41.9166 27.9914C42.0305 28.1926 42.0059 28.3698 41.8965 28.5623C41.1065 29.9523 40.32 31.3444 39.5341 32.7368C38.646 34.3099 37.7596 35.8841 36.8725 37.4578C36.8587 37.4821 36.847 37.5083 36.83 37.5301C36.7785 37.5961 36.7371 37.5978 36.6814 37.535C36.6595 37.5102 36.6418 37.4807 36.6254 37.4516C35.7175 35.8381 34.8096 34.2246 33.9026 32.6106C33.1578 31.2851 32.4145 29.9588 31.6695 28.6334C31.634 28.5702 31.5948 28.5072 31.5473 28.4534C31.4218 28.3113 31.2596 28.2487 31.0744 28.2493C29.9926 28.2528 28.9109 28.2602 27.8291 28.2605C25.5882 28.2611 23.3472 28.2581 21.1062 28.2565C21.0412 28.2565 20.9761 28.2565 20.8677 28.2565Z" fill="#F1563C"/>
<path fill-rule="evenodd" clip-rule="evenodd" d="M29.7423 6.46037C29.6853 6.40513 29.6446 6.36752 29.6059 6.32796C29.0982 5.80925 28.5908 5.29035 28.0834 4.77137C27.9128 4.59691 27.9097 4.54885 28.033 4.33101C28.6253 3.28498 29.4589 2.516 30.5515 2.05076C31.3716 1.70157 32.2259 1.54132 33.117 1.58149C34.1435 1.62774 35.0893 1.93371 35.9531 2.49434C36.9246 3.12486 37.4883 4.03185 37.6272 5.20188C37.7479 6.21952 37.5409 7.16798 36.9865 8.02493C36.8417 8.24873 36.6636 8.45581 36.4743 8.64254C35.9471 9.16249 35.3504 9.58751 34.7039 9.9401C33.9742 10.3381 33.2436 10.7346 32.5185 11.1413C32.0653 11.3953 31.6861 11.7376 31.4394 12.2103C31.3544 12.3732 31.2869 12.5488 31.2349 12.7259C31.1767 12.9245 31.2333 12.9987 31.4368 13.0116C31.6183 13.0231 31.8008 13.0193 31.9828 13.0189C33.7381 13.015 35.4934 13.0104 37.2487 13.0062C37.2818 13.0061 37.3152 13.0052 37.3479 13.0097C37.5247 13.0337 37.5869 13.1026 37.5917 13.2881C37.5947 13.4065 37.5887 13.5252 37.5888 13.6437C37.5892 14.1856 37.5902 14.7275 37.5912 15.2695C37.5912 15.309 37.5924 15.3485 37.5924 15.388C37.5924 15.6649 37.5589 15.7012 37.2881 15.7012C34.8648 15.7015 32.4415 15.701 30.0182 15.7009C29.4331 15.7009 28.848 15.7014 28.2629 15.7016C28.2132 15.7016 28.1635 15.7025 28.1138 15.7007C27.9509 15.695 27.9017 15.6521 27.9019 15.4904C27.9027 14.3503 28.0066 13.2256 28.3958 12.1454C28.7384 11.1942 29.2819 10.3833 30.0301 9.71771C30.7627 9.06591 31.5687 8.52776 32.4419 8.0933C32.7789 7.92562 33.1143 7.75422 33.4448 7.57357C33.7226 7.42169 33.9831 7.24068 34.2158 7.02124C34.4942 6.75859 34.7017 6.45154 34.7686 6.06217C34.8658 5.49622 34.7061 5.02452 34.2601 4.666C33.9789 4.43988 33.6489 4.32361 33.2991 4.29142C32.8082 4.24624 32.3184 4.26524 31.8435 4.42742C31.3131 4.60854 30.8672 4.91974 30.4917 5.3403C30.2674 5.59152 30.0783 5.86881 29.9115 6.16247C29.8592 6.25457 29.8069 6.34666 29.7423 6.46037Z" fill="#F1563C"/>
<path fill-rule="evenodd" clip-rule="evenodd" d="M38.1228 39.8716H38.3168C38.3254 39.912 38.3395 39.9485 38.34 39.9852C38.3423 40.1767 38.3424 40.3682 38.3405 40.5597C38.34 40.6117 38.352 40.6777 38.249 40.6856C38.2052 40.4942 38.2526 40.2971 38.2154 40.0741C38.1855 40.1314 38.1633 40.1606 38.1543 40.1935C38.1218 40.3127 38.095 40.4334 38.0634 40.5527C38.0485 40.6089 38.0552 40.6858 37.9682 40.688C37.8824 40.6901 37.8817 40.618 37.8669 40.5593C37.8382 40.4449 37.8096 40.3305 37.7804 40.2162C37.7723 40.1847 37.7625 40.1536 37.743 40.0859C37.7202 40.1471 37.7028 40.1732 37.7019 40.1999C37.6983 40.3068 37.7002 40.4138 37.6994 40.5208C37.6992 40.5546 37.7048 40.5914 37.6934 40.6211C37.6837 40.6464 37.6535 40.6636 37.6324 40.6843C37.6139 40.6606 37.5798 40.6372 37.5794 40.6132C37.5754 40.3721 37.577 40.131 37.577 39.8779H37.7972C37.842 40.0439 37.8881 40.215 37.9342 40.386C38.0463 40.2331 38.0499 40.0492 38.1228 39.8716Z" fill="#F1563C"/>
<path fill-rule="evenodd" clip-rule="evenodd" d="M37.0573 39.9952C36.9649 39.9861 36.8953 39.9793 36.8286 39.9727C36.8056 39.9171 36.8037 39.8702 36.868 39.8685C37.0331 39.864 37.1984 39.865 37.3637 39.8673C37.425 39.8682 37.4351 39.908 37.4117 39.9698C37.347 39.9772 37.2782 39.9852 37.189 39.9955C37.189 40.134 37.189 40.2676 37.1889 40.4013C37.1889 40.4689 37.1946 40.5374 37.1854 40.6037C37.1814 40.6331 37.1468 40.6581 37.1262 40.6851C37.1042 40.6582 37.0678 40.6336 37.0631 40.6039C37.0527 40.5378 37.0577 40.4692 37.0575 40.4016C37.057 40.2678 37.0573 40.134 37.0573 39.9952Z" fill="#F1563C"/>
</svg>
