<svg width="247" height="26" viewBox="0 0 247 26" fill="none" xmlns="http://www.w3.org/2000/svg">
<g clip-path="url(#clip0)">
<path fill-rule="evenodd" clip-rule="evenodd" d="M224.804 2.25547C224.804 1.03378 225.872 0.0313721 227.174 0.0313721H244.647C245.949 0.0313721 247.017 1.03378 247.017 2.25547V10.3061C247.017 11.5278 245.949 12.5302 244.647 12.5302H242.828C241.526 12.5302 239.54 13.0157 238.389 13.6109L232.047 16.9157C230.912 17.5109 230.428 17.088 230.962 15.9759L231.696 14.4723C232.23 13.3603 231.613 12.4519 230.311 12.4519H227.157C225.855 12.4519 224.787 11.4494 224.787 10.2278V2.25547" fill="#F1563C"/>
<path fill-rule="evenodd" clip-rule="evenodd" d="M224.82 23.1965C224.954 23.1965 225.071 23.1808 225.171 23.1338C225.254 23.0868 225.304 23.0085 225.304 22.8519C225.304 22.7736 225.288 22.7109 225.254 22.6796C225.221 22.6326 225.171 22.6013 225.121 22.5856C225.071 22.5699 225.004 22.5543 224.937 22.5386C224.87 22.5386 224.804 22.523 224.753 22.523H224.336V23.1965H224.82ZM224.82 22.0531C225.187 22.0531 225.471 22.1314 225.655 22.2724C225.838 22.4133 225.938 22.6326 225.938 22.8989C225.938 23.1338 225.872 23.3061 225.738 23.4314C225.605 23.5567 225.438 23.635 225.237 23.6507L225.955 24.7627H225.254L224.57 23.6663H224.336V24.7627H223.702V22.0531H224.82ZM223.018 24.1049C223.118 24.3242 223.235 24.5121 223.402 24.6844C223.569 24.841 223.769 24.982 223.986 25.076C224.219 25.1699 224.47 25.2169 224.737 25.2169C225.004 25.2169 225.254 25.1699 225.488 25.076C225.721 24.982 225.922 24.8567 226.072 24.6844C226.239 24.5278 226.372 24.3242 226.456 24.1049C226.556 23.8856 226.589 23.6507 226.589 23.4157C226.589 23.1651 226.539 22.9459 226.456 22.7266C226.356 22.5073 226.239 22.3193 226.072 22.1471C225.905 21.9904 225.705 21.8495 225.471 21.7555C225.237 21.6615 224.987 21.6145 224.72 21.6145C224.453 21.6145 224.203 21.6615 223.969 21.7555C223.735 21.8495 223.535 21.9748 223.368 22.1471C223.201 22.3037 223.068 22.5073 222.984 22.7266C222.884 22.9459 222.851 23.1808 222.851 23.4157C222.868 23.6663 222.918 23.8856 223.018 24.1049ZM222.267 22.429C222.4 22.1157 222.601 21.8495 222.834 21.6302C223.068 21.3952 223.352 21.223 223.685 21.0977C224.002 20.9724 224.353 20.894 224.737 20.894C225.104 20.894 225.454 20.9567 225.788 21.082C226.105 21.2073 226.406 21.3952 226.639 21.6145C226.89 21.8495 227.073 22.1157 227.207 22.4133C227.34 22.7109 227.424 23.0398 227.424 23.4001C227.424 23.7603 227.357 24.0736 227.223 24.3868C227.09 24.7001 226.89 24.9507 226.656 25.1856C226.406 25.4049 226.122 25.5928 225.805 25.7181C225.488 25.8434 225.137 25.9061 224.753 25.9061C224.386 25.9061 224.036 25.8434 223.702 25.7181C223.368 25.5928 223.085 25.4205 222.851 25.1856C222.601 24.9663 222.417 24.7001 222.267 24.3868C222.133 24.0892 222.05 23.7603 222.05 23.4001C222.066 23.0712 222.133 22.7422 222.267 22.429Z" fill="#F1563C"/>
<path fill-rule="evenodd" clip-rule="evenodd" d="M215.975 15.8819H212.12C211.836 15.8819 211.736 15.7096 211.736 15.5217L211.769 15.0518C211.836 14.0964 212.804 13.3916 214.072 13.3916C215.307 13.3916 216.292 14.0807 216.376 15.0205L216.409 15.4904C216.409 15.7096 216.325 15.8819 215.975 15.8819ZM213.922 9.6012C209.75 9.6012 206.779 12.4205 206.779 15.647V19.9229C206.779 23.5096 209.616 26 213.922 26C216.259 26 217.944 25.2325 219.146 24.1361C219.713 23.6036 220.164 22.9771 220.565 22.3506C220.781 22.0217 220.665 21.6458 220.464 21.5518L216.96 19.8916C216.743 19.7976 216.526 19.8602 216.426 20.1578C215.942 21.3169 215.124 21.8494 213.922 21.8494C212.621 21.8494 211.686 21.0193 211.686 19.9542V19.2181C211.686 18.9831 211.786 18.8578 212.103 18.8578H220.631C220.848 18.8578 220.982 18.7638 220.982 18.5289V15.647C220.998 12.4518 218.061 9.6012 213.922 9.6012Z" fill="#F1563C"/>
<path fill-rule="evenodd" clip-rule="evenodd" d="M198.652 13.6891C199.753 13.6891 200.555 14.347 201.155 15.6783C201.255 15.9132 201.439 15.9759 201.689 15.8819L205.161 14.4253C205.378 14.3313 205.444 14.1277 205.344 13.8614C205.027 13.1723 204.677 12.5301 204.209 11.9976C203.041 10.5409 201.306 9.71082 198.619 9.71082C194.229 9.71082 191.576 12.2012 191.576 15.7879V19.8289C191.576 23.4156 194.229 25.8747 198.619 25.8747C201.089 25.8747 202.724 25.1855 203.892 23.9482C204.493 23.3217 204.96 22.5542 205.344 21.6927C205.444 21.4265 205.378 21.2542 205.161 21.1602L201.689 19.6723C201.439 19.5783 201.272 19.6409 201.155 19.8759C200.555 21.2072 199.737 21.8964 198.652 21.8964C197.35 21.8964 196.499 21.0349 196.499 19.9698V15.6156C196.482 14.5506 197.333 13.6891 198.652 13.6891Z" fill="#F1563C"/>
<path fill-rule="evenodd" clip-rule="evenodd" d="M188.455 10.0712H184.249C183.999 10.0712 183.898 10.1651 183.898 10.4001V25.17C183.898 25.4049 183.999 25.4989 184.249 25.4989H188.455C188.655 25.4989 188.772 25.4049 188.772 25.17V10.4001C188.772 10.1651 188.622 10.0712 188.455 10.0712Z" fill="#F1563C"/>
<path fill-rule="evenodd" clip-rule="evenodd" d="M186.318 3.55542C184.95 3.55542 183.832 4.60482 183.832 5.88916C183.832 7.17349 184.95 8.22289 186.318 8.22289C187.687 8.22289 188.805 7.17349 188.805 5.88916C188.805 4.60482 187.703 3.55542 186.318 3.55542Z" fill="#F1563C"/>
<path fill-rule="evenodd" clip-rule="evenodd" d="M181.679 10.0712H177.19C177.006 10.0712 176.872 10.1651 176.806 10.3374L174.152 17.4796C174.019 17.8398 173.802 18.7013 173.735 19.1398H173.635C173.568 18.7013 173.384 17.9182 173.218 17.4796L170.464 10.3061C170.397 10.1338 170.297 10.0712 170.113 10.0712H165.624C165.307 10.0712 165.207 10.2748 165.307 10.541L171.632 25.2796C171.699 25.4362 171.832 25.5145 171.983 25.5145H175.27C175.454 25.5145 175.587 25.4519 175.654 25.2796L182.013 10.541C182.113 10.2748 182.013 10.0712 181.679 10.0712Z" fill="#F1563C"/>
<path fill-rule="evenodd" clip-rule="evenodd" d="M158.498 19.7663C158.498 20.8627 157.547 21.6929 156.312 21.6929C155.043 21.6929 154.159 20.8627 154.159 19.7663V15.788C154.159 14.723 155.043 13.9242 156.312 13.9242C157.58 13.9242 158.498 14.723 158.498 15.788V19.7663ZM163.021 4.58923H158.848C158.681 4.58923 158.498 4.68321 158.498 4.91815V9.53863C158.498 10.0398 158.598 10.9953 158.598 10.9953C157.897 10.4001 156.729 10.0712 155.878 10.0712C152.022 10.0712 149.235 12.4989 149.235 16.1169V19.4688C149.235 23.3218 151.639 25.5145 155.961 25.5145C156.946 25.5145 158.114 25.2169 158.865 24.6218C159.082 24.4495 159.332 24.5121 159.332 24.7784V25.2796C159.332 25.4049 159.432 25.5145 159.616 25.5145H163.037C163.254 25.5145 163.388 25.4206 163.388 25.1856V4.91815C163.371 4.69887 163.238 4.58923 163.021 4.58923Z" fill="#F1563C"/>
<path fill-rule="evenodd" clip-rule="evenodd" d="M140.039 18.3724H137.886C137.536 18.3724 137.386 18.1688 137.469 17.9808L138.203 15.2868C138.554 14.0651 138.838 12.5928 138.904 11.7314H139.054C139.121 12.5928 139.338 14.0495 139.689 15.2868L140.44 17.9808C140.506 18.1688 140.356 18.3724 140.039 18.3724ZM140.89 4.82417C140.824 4.65188 140.707 4.58923 140.54 4.58923H137.386C137.169 4.58923 137.102 4.65188 137.035 4.82417L130.076 25.076C129.976 25.3422 130.109 25.5145 130.426 25.5145H134.882C135.066 25.5145 135.132 25.4519 135.199 25.2796L136.217 22.2567C136.284 22.0844 136.351 22.0531 136.601 22.0531H141.274C141.524 22.0531 141.591 22.0844 141.658 22.2567L142.643 25.2796C142.709 25.4362 142.793 25.5145 142.993 25.5145H147.483C147.833 25.5145 147.95 25.3422 147.833 25.076L140.89 4.82417Z" fill="#F1563C"/>
<path fill-rule="evenodd" clip-rule="evenodd" d="M117.375 15.8819H113.52C113.237 15.8819 113.136 15.7096 113.136 15.5217L113.17 15.0518C113.237 14.0964 114.204 13.3916 115.473 13.3916C116.708 13.3916 117.709 14.0807 117.776 15.0205L117.809 15.4904C117.793 15.7096 117.726 15.8819 117.375 15.8819ZM115.323 9.6012C111.15 9.6012 108.18 12.4205 108.18 15.647V19.9229C108.18 23.5096 111 26 115.323 26C117.659 26 119.361 25.2325 120.563 24.1361C121.13 23.6036 121.598 22.9771 121.982 22.3506C122.199 22.0217 122.082 21.6458 121.882 21.5518L118.377 19.8916C118.16 19.7976 117.96 19.8602 117.843 20.1578C117.342 21.3169 116.541 21.8494 115.339 21.8494C114.038 21.8494 113.103 21.0193 113.103 19.9542V19.2181C113.103 18.9831 113.203 18.8578 113.537 18.8578H122.065C122.282 18.8578 122.416 18.7638 122.416 18.5289V15.647C122.399 12.4518 119.462 9.6012 115.323 9.6012Z" fill="#F1563C"/>
<path fill-rule="evenodd" clip-rule="evenodd" d="M106.06 10.1338C105.81 10.1025 105.526 10.0712 105.142 10.0712C103.807 10.0712 102.522 10.6663 101.954 11.3242C101.771 11.4808 101.487 11.4651 101.487 11.1676V10.4001C101.487 10.1651 101.387 10.0712 101.137 10.0712H97.7821C97.5652 10.0712 97.4316 10.1651 97.4316 10.4001V25.17C97.4316 25.4049 97.5652 25.4989 97.7821 25.4989H101.954C102.171 25.4989 102.305 25.4049 102.305 25.17V16.3676C102.305 15.2085 103.189 14.3784 104.424 14.3784C104.958 14.3784 105.409 14.441 105.843 14.5507C106.16 14.6133 106.377 14.5194 106.377 14.2218V10.4627C106.377 10.3061 106.26 10.1651 106.06 10.1338Z" fill="#F1563C"/>
<path fill-rule="evenodd" clip-rule="evenodd" d="M87.3013 21.912H85.9995C85.2485 21.912 84.8313 21.4735 84.8313 20.5494C84.8313 19.8915 85.332 19.4217 86.0329 19.4217H89.037C89.2539 19.4217 89.3207 19.7819 89.3207 19.8915C89.2373 21.1132 88.2526 21.912 87.3013 21.912ZM87.2012 9.71082C85.0149 9.71082 83.3793 10.3686 82.1777 11.4024C81.5102 11.9662 80.9761 12.6241 80.5589 13.3602C80.3419 13.6891 80.4587 14.065 80.659 14.159L84.1637 15.8192C84.3807 15.9132 84.581 15.8506 84.6978 15.553C85.1985 14.3939 85.9996 13.8614 87.2012 13.8614C88.5029 13.8614 89.3207 14.6915 89.3207 15.7566V15.9289C89.3207 16.1638 89.2206 16.2891 88.9702 16.2891H85.8494C82.7452 16.2891 80.2251 17.8867 80.2251 20.6747V21.0036C80.2251 23.8229 82.4948 25.5144 85.5323 25.5144H86.7673C87.7185 25.5144 88.7866 25.2168 89.521 24.653C89.6545 24.559 89.8381 24.5903 89.8714 24.6843L89.9716 25.2482C90.0049 25.4205 90.1552 25.5144 90.3554 25.5144H93.8268C94.0437 25.5144 94.1772 25.4205 94.1772 25.1855V15.7879C94.1939 12.2012 91.507 9.71082 87.2012 9.71082Z" fill="#F1563C"/>
<path fill-rule="evenodd" clip-rule="evenodd" d="M78.8065 10.0712H74.5341C74.3171 10.0712 74.1836 10.1651 74.1502 10.3374L72.5647 16.5712C72.3812 17.276 72.2476 18.2627 72.2143 18.9676H72.0974C72.0641 18.2627 71.9139 17.37 71.7136 16.5712L70.1114 10.3374C70.078 10.1651 69.9278 10.0712 69.7276 10.0712H66.2228C66.0059 10.0712 65.9058 10.1651 65.8724 10.3374L64.3203 16.5398C64.1367 17.229 64.0032 18.1374 63.9364 18.7953H63.8363C63.8029 18.1374 63.6694 17.229 63.4858 16.5398L61.8336 10.3374C61.8002 10.1651 61.7001 10.0712 61.4831 10.0712H57.0939C56.7768 10.0712 56.6599 10.2435 56.7768 10.5097L61.7668 25.2796C61.8336 25.4362 61.9504 25.5145 62.1173 25.5145H65.2382C65.4551 25.5145 65.5553 25.4519 65.5887 25.2796L67.5413 18.4037C67.7583 17.6362 67.9251 16.3519 67.9251 16.3519H68.0253C68.0253 16.3519 68.2089 17.6519 68.4091 18.4037L70.3117 25.2326C70.3451 25.4049 70.4452 25.4989 70.6622 25.4989H73.733C73.9166 25.4989 74.0167 25.4362 74.0834 25.2639L79.1403 10.4941C79.2404 10.2748 79.1236 10.0712 78.8065 10.0712Z" fill="#F1563C"/>
<path fill-rule="evenodd" clip-rule="evenodd" d="M54.9577 10.0711H52.5879C52.2708 10.0711 52.1707 9.97715 52.1707 9.74221V7.64342C52.1707 7.40848 52.1039 7.34583 51.8536 7.34583H49.6172C49.4837 7.34583 49.3001 7.40848 49.2 7.51811L44.7773 11.6687V13.9241C44.7773 14.1591 44.8775 14.2217 45.1278 14.2217H46.8969C47.214 14.2217 47.3141 14.3627 47.3141 14.582V19.7663C47.3141 23.7446 49.9677 25.8121 53.3222 25.8121H54.8075C55.1246 25.8121 55.2748 25.6868 55.2748 25.4519V22.0374C55.2748 21.8338 55.1747 21.7085 54.9244 21.7085H54.3236C52.8716 21.7085 52.1707 20.8784 52.1707 19.4531V14.582C52.1707 14.347 52.2708 14.2217 52.5879 14.2217H54.9577C55.2081 14.2217 55.2748 14.1591 55.2748 13.9241V10.4C55.2748 10.1651 55.2081 10.0711 54.9577 10.0711Z" fill="#F1563C"/>
<path fill-rule="evenodd" clip-rule="evenodd" d="M44.3936 4.43257C43.7928 4.30727 42.8081 4.19763 41.8902 4.19763C36.6498 4.19763 34.6805 7.61209 34.6805 10.3061V11.1362C34.6805 11.3711 34.5804 11.4651 34.2967 11.4651H33.4789C33.2619 11.4651 33.1284 11.5591 33.1284 11.794V15.2868C33.1284 15.5217 33.2619 15.6157 33.4789 15.6157H34.2967C34.6138 15.6157 34.6805 15.7097 34.6805 15.9446V25.1699C34.6805 25.4049 34.7806 25.4988 35.031 25.4988H39.2033C39.4536 25.4988 39.5538 25.4049 39.5538 25.1699V15.9446C39.5538 15.7097 39.6539 15.6157 39.9376 15.6157H42.224C42.4744 15.6157 42.5745 15.5217 42.5745 15.2868V11.794C42.5745 11.5591 42.4744 11.4651 42.224 11.4651H39.9209C39.6372 11.4651 39.5371 11.3711 39.5371 11.1362V10.2434C39.5371 9.08438 40.4216 8.34823 41.7567 8.34823C42.224 8.34823 42.708 8.41088 43.0919 8.52052C43.3422 8.58317 43.4757 8.52052 43.5592 8.31691L44.6606 4.90245C44.7441 4.66751 44.6773 4.49522 44.3936 4.43257Z" fill="#F1563C"/>
<path fill-rule="evenodd" clip-rule="evenodd" d="M26.1025 19.9542C26.1025 21.0192 25.1846 21.8807 23.9496 21.8807C22.6479 21.8807 21.7133 21.0192 21.7133 19.9542V15.6156C21.7133 14.5819 22.6312 13.6891 23.9496 13.6891C25.1846 13.6891 26.1025 14.5506 26.1025 15.6156V19.9542ZM23.9496 9.71082C19.6271 9.71082 16.8066 12.2012 16.8066 15.7879V19.8289C16.8066 23.4156 19.6271 25.8747 23.9496 25.8747C28.1887 25.8747 31.0258 23.447 31.0258 19.8289V15.7879C31.0258 12.1542 28.1887 9.71082 23.9496 9.71082Z" fill="#F1563C"/>
<path fill-rule="evenodd" clip-rule="evenodd" d="M9.21273 13.0157C7.2601 12.3265 5.17395 11.8253 5.17395 10.3374C5.17395 9.14703 6.12523 8.34823 7.36023 8.34823H7.89429C9.09591 8.34823 9.91368 8.88076 10.4144 10.0398C10.5145 10.3374 10.7315 10.4 10.9484 10.3061L14.4531 8.64582C14.6701 8.55185 14.7702 8.17594 14.5533 7.84703C14.2696 7.34582 13.9191 6.86028 13.4852 6.42173C12.2502 5.12173 10.4811 4.19763 7.89429 4.19763H7.36023C2.9376 4.19763 0.217261 6.65667 0.217261 10.4C0.217261 14.2217 2.83746 15.647 6.09186 16.8687C8.21138 17.6675 10.0472 18.0904 10.0472 19.7506C10.0472 21.1133 8.91233 21.7085 7.64395 21.7085H6.75942C5.5578 21.7085 4.74003 21.1759 4.25605 20.0169C4.15591 19.7193 3.93895 19.6567 3.72199 19.7506L0.217261 21.4109C0.000301585 21.5049 -0.0998335 21.8808 0.117126 22.2097C0.434221 22.7422 0.818072 23.2747 1.28537 23.7446C2.48699 24.9976 4.25604 25.8591 6.75942 25.8591H7.89429C12.3837 25.8591 15.0039 23.4314 15.0039 19.688C15.0039 15.8193 12.5673 14.2531 9.21273 13.0157Z" fill="#F1563C"/>
</g>
<defs>
<clipPath id="clip0">
<rect width="247" height="26" fill="white"/>
</clipPath>
</defs>
</svg>
