<svg width="238" height="56" xmlns="http://www.w3.org/2000/svg"><g fill-rule="nonzero" fill="#F1563C"><path d="M27.903 0C12.49.004-.004 12.485 0 27.877.004 43.27 12.503 55.744 27.917 55.74c15.415-.003 27.907-12.484 27.904-27.877a27.85 27.85 0 00-8.18-19.705A27.93 27.93 0 0027.903 0zm0 51.609c-13.094 0-23.71-10.6-23.71-23.675C4.19 14.858 14.804 4.257 27.898 4.254c13.094-.002 23.712 10.595 23.716 23.67a23.66 23.66 0 01-6.943 16.748 23.728 23.728 0 01-16.769 6.937z"/><path d="M45.076 21.901l-.198-.122a1.985 1.985 0 00-2.736.587l-9.67 14.983-2.38-3.162 6.155-9.56a1.979 1.979 0 00-.588-2.732l-.164-.11a1.985 1.985 0 00-2.736.588l-5.252 8.284-3.2-4.303a1.869 1.869 0 00-2.607-.403l-.273.205a1.863 1.863 0 00-.383 2.602l4.103 5.532-1.983 3.066-8.207-11.022a1.869 1.869 0 00-2.606-.383l-.273.205a1.863 1.863 0 00-.383 2.602l9.869 13.29v.048l.13.177c.378.511.992.795 1.627.751a1.977 1.977 0 001.703-.894l2.736-4.269 3.112 4.187v.048l.13.177c.378.511.992.795 1.627.751a1.977 1.977 0 001.703-.894l11.292-17.504a1.979 1.979 0 00-.548-2.725zM63.802 20.03h5.177c1.252 5.293 3.132 12.573 3.98 16.711.452-3.68 2.736-11.473 4.213-16.745h3.912c1.75 6.515 3.933 13.037 4.678 16.773.479-4.241 1.922-9.677 3.515-16.807h5.102l-6.51 23.41h-4.432c-1.785-6.22-3.693-11.807-4.576-15.946-.65 4.241-2.68 10.975-4.048 15.98h-4.37L63.802 20.03zM95.275 19.907h4.514l.062 9.343a5.52 5.52 0 015.197-3.1c3.652 0 5.348 2.465 5.369 6.829l.041 10.298h-4.514v-9.56c0-2.323-.91-3.64-2.735-3.634-1.826.007-3.276 1.605-3.263 4.78v8.414h-4.513l-.158-23.37zM123.425 43.181a8.185 8.185 0 01-.506-2.349c-.684 1.626-2.312 2.889-4.863 2.903-3.42 0-5.416-2.2-5.43-5.28 0-3.414 2.537-4.78 6.312-5.36l3.68-.574v-.628c0-1.953-1.074-2.384-2.565-2.377a6.453 6.453 0 00-4.835 2.138l-2.168-2.971c1.368-1.366 3.905-2.595 7.523-2.616 4.644 0 6.545 1.96 6.559 6.147v6.228c0 2.52.082 3.415.684 4.733l-4.391.006zm-.787-7.812l-2.886.54c-1.99.368-2.817 1.071-2.81 2.362a2.136 2.136 0 002.051 2.24h.253c1.888 0 3.42-1.57 3.42-4.056l-.028-1.086zM131.864 29.434h-2.735v-2.916h.554c3.05 0 3.344-2.049 3.83-4.78h2.817v4.78h3.516v2.916h-3.516v8.714c0 1.325.376 2.05 1.765 2.05a3.903 3.903 0 001.593-.336l.342 3.176c-1.07.441-2.22.66-3.378.642-3.782 0-4.788-2.049-4.788-4.917v-9.329zM143.238 19.73l9.718-.041c3.912 0 7.803 1.66 7.817 6.146a5.425 5.425 0 01-4.527 5.286c3.187.553 5.314 2.267 5.327 5.607 0 4.999-3.727 6.344-8.07 6.358l-10.183.04-.082-23.396zm8.261 9.56c2.551 0 4.104-.682 4.104-3.1 0-2.049-1.368-2.84-3.625-2.834h-3.85v5.928l3.371.007zm1.17 10.101c2.387 0 3.748-1.14 3.734-3.291-.014-2.152-1.737-3.142-4.104-3.128h-4.144v6.426l4.514-.007zM167.68 35.758c.343 3.08 1.909 4.398 4.063 4.391a3.871 3.871 0 003.604-2.233l3.358 1.878c-1.518 2.425-4.035 3.722-7.18 3.736-5.472 0-8.44-3.811-8.46-8.742-.021-4.93 2.92-8.878 8.124-8.878 5.04 0 7.776 3.681 7.797 8.878v.963l-11.305.007zm0-2.581h6.717c0-2.09-1.013-3.975-3.297-3.961-2.052 0-3.194 1.44-3.42 3.954v.007zM181.174 26.327h4.015l.376 2.684a6.109 6.109 0 015.327-3.203c3.618 0 5.349 2.294 5.37 6.706v10.401h-4.515v-9.308c0-2.732-.978-3.872-2.735-3.866-1.758.007-3.276 1.435-3.263 4.979v8.195h-4.513l-.062-16.588zM213.9 39.289c-1.52 2.786-4.03 4.097-7.285 4.097-5.703 0-8.206-3.879-8.206-8.748 0-5.265 2.913-8.878 8.159-8.878a7.696 7.696 0 017.215 4.145l-3.741 1.837c-.684-1.755-1.867-2.54-3.33-2.54-2.552 0-3.64 2.233-3.632 5.183 0 2.582.882 5.56 3.932 5.553 1.758 0 2.852-1.004 3.509-2.63l3.378 1.98zM215.547 19.436h4.514v9.343a5.52 5.52 0 015.198-3.101c3.652 0 5.348 2.465 5.368 6.83l.042 10.298h-4.514v-9.561c0-2.322-.91-3.64-2.736-3.633-1.826.007-3.276 1.605-3.262 4.78v8.414h-4.514l-.096-23.37zM231.12 24.401l2.852-.007.007.628-1.02.007.014 2.711h-.8l-.014-2.71-1.04.006M234.334 24.387h1.06l.766 2.507.732-2.514 1.053-.006.014 3.346h-.8l.027-1.776.069-.669-.035-.014-.684 2.466h-.731l-.753-2.459-.034.014.075.67.041 1.775-.786.007z"/></g></svg>