<svg version="1.1" id="Layer_1" xmlns="http://www.w3.org/2000/svg" xmlns:xlink="http://www.w3.org/1999/xlink" x="0" y="0" viewBox="0 0 165 109" xml:space="preserve"><style></style><text transform="translate(39.309 90.439)" font-size="15.807" font-family="OfficinaSansStd-Book" fill="#403b3c">amazon alexa</text><g id="g10" transform="matrix(1.33333 0 0 -1.33333 0 173.333)"><g id="g12" transform="scale(.1)"><g id="g100"><defs><path id="SVGID_1_" d="M617.4 1193.5c-105 0-190.2-85.2-190.2-190.3 0-96.5 71.8-176.2 164.8-188.6v38.3c0 10.8-6.8 20.5-17.1 24-53.7 18-92.1 69.4-90.7 129.5 1.7 73.2 61.3 130.7 134.5 130 72.9-.7 131.7-60.1 131.7-133.2 0-1.7 0-3.3-.1-5v-1.1c-.1-1.5-.2-3.1-.3-4.6 0-.5-.1-1-.1-1.4-.1-1.1-.2-2.1-.3-3.2-.1-1.2-.3-2.4-.5-3.6-.1-.5-.1-1.1-.2-1.6C732.6 875.3 592.8 814.9 592 814.6c8.3-1.1 16.7-1.7 25.3-1.7 105 0 190.2 85.2 190.2 190.3s-85 190.3-190.1 190.3"/></defs><clipPath id="SVGID_2_"><use xlink:href="#SVGID_1_" overflow="visible"/></clipPath><g id="g102" clip-path="url(#SVGID_2_)"><path id="path108" d="M398.4 784h438.1v438.3H398.4V784" fill="#44cbf7"/></g></g></g></g></svg>