<svg version="1.1" id="Layer_1" xmlns="http://www.w3.org/2000/svg" x="0" y="0" viewBox="0 0 165 109" xml:space="preserve"><style></style><text transform="translate(29.342 90.439)" font-size="15.807" font-family="OfficinaSansStd-Book" fill="#403b3c">Amazon Connect</text><path d="M108.4 29c-1.3-3.1-3.2-5.8-5.5-8.2-4.9-4.8-11.3-7.5-18.2-7.5h-.1c-4.6 0-9.2 1.3-13.3 3.8-3.9 2.4-7.1 5.7-9.1 9.3-.2.3-.1.7.3.9.3.2.7.1.9-.3 1.9-3.5 5-6.6 8.7-8.9 3.9-2.4 8.3-3.6 12.7-3.6h.1c6.5 0 12.6 2.5 17.2 7.1s7.2 10.8 7.2 17.4c0 6.5-2.5 12.7-7.2 17.3s-10.8 7.2-17.3 7.2c-4.3 0-8.6-1.1-12.3-3.3-3.6-2.1-6.6-5.1-8.8-8.7-.2-.3-.6-.4-.9-.2-.3.2-.4.6-.2.9 2.2 3.8 5.4 7 9.2 9.2 3.9 2.3 8.4 3.5 13 3.5 6.9 0 13.3-2.7 18.2-7.5 4.9-4.9 7.5-11.3 7.5-18.2-.1-3.6-.8-7-2.1-10.2m-51.2 2.8h8.1c.4 0 .6-.3.6-.6 0-.4-.3-.6-.6-.6h-8.1c-.4 0-.6.3-.6.6s.3.6.6.6m5.4 7.7c0-.4-.3-.6-.6-.6h-7.1c-.4 0-.6.3-.6.6 0 .4.3.6.6.6H62c.3 0 .6-.3.6-.6m2.7 8.3c0-.4-.3-.6-.6-.6H56c-.4 0-.6.3-.6.6 0 .4.3.6.6.6h8.7c.3 0 .6-.3.6-.6M71 34.3c.2 0 .3-.1.4-.3.1-.1.1-.3.1-.5-.5-2.9 0-5.4 1.4-7.4 1.2-1.7 3.1-2.9 5.3-3.4 4.4-1 9.6 1 11.2 6.7.1.2.2.3.3.4.2.1.4.1.5 0 1.8-.8 3.6-.9 5.1-.2 1.5.7 2.6 2.2 3.1 4.1.1.2.3.4.5.5 4.2.8 5.9 3.9 5.8 6.8-.1 1.5-.6 2.9-1.6 4-1.1 1.2-2.6 1.9-4.5 2.1h-7.1c-.2 0-.3.1-.4.2l-10.7 10v-9.6c0-.4-.3-.6-.6-.6h-8.6c-1.7-.1-3.2-.8-4.3-2-1-1.1-1.5-2.5-1.6-4.1-.1-1.5.4-3 1.3-4.2 1-1.3 2.5-2.2 4.4-2.5M64.1 41c.1 3.3 2.4 7 7.1 7.3h8v10.4c0 .3.2.5.4.6.1 0 .2.1.3.1.2 0 .3-.1.4-.2l11.6-10.8H98.8c4.9-.5 7.2-4.1 7.3-7.4.1-1.8-.5-3.6-1.6-5.1-1.2-1.5-2.8-2.5-4.9-2.9-.6-2.1-1.9-3.7-3.7-4.5-1.7-.8-3.6-.8-5.5-.1-.9-2.6-2.6-4.6-4.9-5.9-2.3-1.2-5-1.6-7.6-1-2.5.6-4.7 2-6.1 3.9-1.5 2.1-2.1 4.7-1.7 7.7-4.3 1.1-6.1 4.7-6 7.9m10.6-3.4c1 0 1.8.8 1.8 1.8s-.8 1.8-1.8 1.8-1.8-.8-1.8-1.8c-.1-1 .8-1.8 1.8-1.8m7.4-5.5c1 0 1.8.8 1.8 1.8s-.8 1.8-1.8 1.8-1.8-.8-1.8-1.8.8-1.8 1.8-1.8m6.3 10.7c0 1-.8 1.8-1.8 1.8s-1.8-.8-1.8-1.8.8-1.8 1.8-1.8c.9-.1 1.8.7 1.8 1.8m5.2-7.5c1 0 1.8.8 1.8 1.8s-.8 1.8-1.8 1.8-1.8-.8-1.8-1.8.8-1.8 1.8-1.8m-18.9 7.3c1.7 0 3.1-1.4 3.1-3.1 0-.4-.1-.9-.3-1.2l2.5-2c.6.5 1.3.8 2.1.8h.5l1.7 3.5c-.6.6-.9 1.3-.9 2.2 0 1.7 1.4 3.1 3.1 3.1 1.7 0 3.1-1.4 3.1-3.1 0-.5-.1-1-.4-1.5l2.3-1.8c.5.4 1.2.7 2 .7 1.7 0 3.1-1.4 3.1-3.1 0-1.7-1.4-3.1-3.1-3.1-1.7 0-3.1 1.4-3.1 3.1 0 .5.1 1 .3 1.4l-2.3 1.8c-.5-.4-1.2-.7-1.9-.7-.4 0-.8.1-1.1.2l-1.6-3.3c.9-.6 1.4-1.5 1.4-2.6 0-1.7-1.4-3.1-3.1-3.1-1.7 0-3.1 1.4-3.1 3.1 0 .4.1.8.2 1.2l-2.5 2c-.6-.5-1.3-.8-2.1-.8-1.7 0-3.1 1.4-3.1 3.1 0 1.8 1.4 3.2 3.2 3.2" fill="#00c391"/></svg>