<svg version="1.1" id="Layer_1" xmlns="http://www.w3.org/2000/svg" x="0" y="0" viewBox="0 0 165 109" xml:space="preserve"><style>.st24{fill:#155a9d}.st25{fill:#4893d3}.st26{fill:#2173bc}.st27{fill:#0d4873}.st28{fill:#94bbe6}</style><text transform="translate(43.853 90.438)" font-size="15.807" font-family="OfficinaSansStd-Book" fill="#403b3c">Amazon LEX</text><path class="st24" d="M82.9 24.3l-7.2-8.1-17.1 8.4V59l17.1 8.5 7.3-8.1-21.1-6.2-.1-7.5 21.1 2V36l-15.3 1.4-.2 4.4-5.7-7.5 5.7-9.6v4.4z"/><path class="st25" d="M83 59.4l7.2 8.1 17.1-8.5V24.6l-17.1-8.4-7.3 8.1 21.1 6.2.1 7.4L82.9 36v11.7l15.4-1.5.1-4.4 5.7 7.6-5.7 9.6v-4.4z"/><path class="st26" d="M90.2 16.2H75.7l7.2 8.1zM75.7 67.5h14.5L83 59.4z"/><path class="st27" d="M67.4 29.1l21.9 3.7 14.7-2.3-21.1-6.2z"/><path class="st28" d="M61.9 53.2l14.6-2.3 21.9 3.7L83 59.4z"/><path class="st24" d="M89.3 32.8v3.8l14.8 1.3-.1-7.4z"/><path class="st26" d="M67.4 24.7v4.4l21.9 3.7v3.8l-27.6-2.3z"/><path class="st28" d="M61.7 34.3l5.7 7.5.2-4.4L82.9 36z"/><path class="st25" d="M61.9 53.2l14.6-2.3v-3.8l-14.7-1.4z"/><path class="st26" d="M104.1 49.4l-21.2-1.7-6.4-.6v3.8l21.9 3.7V59z"/><path class="st27" d="M98.4 41.8l-.1 4.4-15.4 1.5 21.2 1.7z"/></svg>