<?xml version="1.0" encoding="UTF-8"?>
<svg width="78px" height="60px" viewBox="0 0 78 60" version="1.1" xmlns="http://www.w3.org/2000/svg" xmlns:xlink="http://www.w3.org/1999/xlink">
    <title>Mobile App Icon</title>
    <defs>
        <polygon id="path-1" points="0.00026056338 0 36.4788732 0 36.4788732 59.9997913 0.00026056338 59.9997913"></polygon>
    </defs>
    <g id="Changed-distance" stroke="none" stroke-width="1" fill="none" fill-rule="evenodd">
        <g id="MOC-Main-1440-PopUp-mobile" transform="translate(-681.000000, -413.000000)">
            <g transform="translate(362.000000, 225.000000)">
                <g transform="translate(266.000000, 130.000000)">
                    <g id="Mobile-App-Icon" transform="translate(53.000000, 58.000000)">
                        <rect id="Rectangle" x="0" y="0" width="78" height="60"></rect>
                        <g id="Mobile-Icon" transform="translate(21.000000, 0.000000)">
                            <g id="Group-3">
                                <mask id="mask-2-mobile" fill="white">
                                    <use xlink:href="#path-1"></use>
                                </mask>
                                <g id="Clip-2-mobile"></g>
                                <path d="M33.5623873,-0.000208695652 L2.91596479,-0.000208695652 C1.3056831,-0.000208695652 0.00026056338,1.30726957 0.00026056338,2.91996522 L0.00026056338,57.0801391 C0.00026056338,58.6928348 1.3056831,59.9997913 2.91596479,59.9997913 L33.5623873,59.9997913 C35.1731901,59.9997913 36.4791338,58.6928348 36.4791338,57.0801391 L36.4791338,2.91996522 C36.4791338,1.30726957 35.1731901,-0.000208695652 33.5623873,-0.000208695652 L33.5623873,-0.000208695652 Z M3.12702113,56.8693565 L33.3523732,56.8693565 L33.3523732,3.13022609 L3.12702113,3.13022609 L3.12702113,56.8693565 Z" id="Fill-1" fill="#F1563C" mask="url(#mask-2-mobile)"></path>
                            </g>
                            <path d="M20.8451746,52.1737043 C20.8451746,53.6147478 19.6783718,54.7824 18.2395408,54.7824 C16.8001887,54.7824 15.633907,53.6147478 15.633907,52.1737043 C15.633907,50.7331826 16.8001887,49.5650087 18.2395408,49.5650087 C19.6783718,49.5650087 20.8451746,50.7331826 20.8451746,52.1737043" id="Fill-4" fill="#F1563C"></path>
                            <path d="M21.2431592,8.86935652 L15.236131,8.86935652 C14.5920183,8.86935652 14.0703704,8.34709565 14.0703704,7.70326957 L14.0703704,7.42726957 C14.0703704,6.78344348 14.5920183,6.26066087 15.236131,6.26066087 L21.2431592,6.26066087 C21.8867507,6.26066087 22.4083986,6.78344348 22.4083986,7.42726957 L22.4083986,7.70326957 C22.4083986,8.34709565 21.8867507,8.86935652 21.2431592,8.86935652" id="Fill-6" fill="#F1563C"></path>
                        </g>
                    </g>
                </g>
            </g>
        </g>
    </g>
</svg>