<?xml version="1.0" encoding="UTF-8"?>
<svg width="78px" height="60px" viewBox="0 0 78 60" version="1.1" xmlns="http://www.w3.org/2000/svg" xmlns:xlink="http://www.w3.org/1999/xlink">
    <title>Web Development</title>
    <defs>
        <polygon id="path-1" points="0 0 77.1521739 0 77.1521739 59.9998696 0 59.9998696"></polygon>
    </defs>
    <g id="Changed-distance" stroke="none" stroke-width="1" fill="none" fill-rule="evenodd">
        <g id="MOC-Main-1440-PopUp-web" transform="translate(-897.000000, -413.000000)">
            <g transform="translate(362.000000, 225.000000)">
                <g transform="translate(482.000000, 130.000000)">
                    <g id="Web-Development" transform="translate(53.000000, 58.000000)">
                        <rect id="Rectangle" x="0" y="0" width="78" height="60"></rect>
                        <g id="Web-Icon" transform="translate(-0.000000, 0.000000)">
                            <path d="M12.9667519,10.4345217 C12.9667519,11.8758261 11.8055793,13.0432174 10.3734015,13.0432174 C8.94122379,13.0432174 7.78005115,11.8758261 7.78005115,10.4345217 C7.78005115,8.99386957 8.94122379,7.82582609 10.3734015,7.82582609 C11.8055793,7.82582609 12.9667519,8.99386957 12.9667519,10.4345217" id="Fill-1" fill="#EF4934"></path>
                            <path d="M21.3951407,10.4345217 C21.3951407,11.8758261 20.233968,13.0432174 18.8017903,13.0432174 C17.3696125,13.0432174 16.2084399,11.8758261 16.2084399,10.4345217 C16.2084399,8.99386957 17.3696125,7.82582609 18.8017903,7.82582609 C20.233968,7.82582609 21.3951407,8.99386957 21.3951407,10.4345217" id="Fill-3" fill="#EF4934"></path>
                            <path d="M29.8235294,10.4345217 C29.8235294,11.8758261 28.6623568,13.0432174 27.230179,13.0432174 C25.7980013,13.0432174 24.6368286,11.8758261 24.6368286,10.4345217 C24.6368286,8.99386957 25.7980013,7.82582609 27.230179,7.82582609 C28.6623568,7.82582609 29.8235294,8.99386957 29.8235294,10.4345217" id="Fill-5" fill="#EF4934"></path>
                            <g id="Group-9">
                                <mask id="mask-2-web" fill="white">
                                    <use xlink:href="#path-1"></use>
                                </mask>
                                <g id="Clip-8"></g>
                                <path d="M73.2621483,47.1963913 C73.2621483,47.424 73.0780205,47.6085652 72.852399,47.6085652 L4.29977494,47.6085652 C4.07415345,47.6085652 3.89002558,47.424 3.89002558,47.1963913 L3.89002558,4.32573913 C3.89002558,4.09813043 4.07415345,3.91291304 4.29977494,3.91291304 L72.852399,3.91291304 C73.0780205,3.91291304 73.2621483,4.09813043 73.2621483,4.32573913 L73.2621483,47.1963913 Z M72.852399,-0.000130434783 L4.29977494,-0.000130434783 C1.92491432,-0.000130434783 0,1.93682609 0,4.32573913 L0,47.1963913 C0,49.5853043 1.92491432,51.5216087 4.29977494,51.5216087 L36.955243,51.5216087 L36.955243,56.739 L27.5543478,56.739 C26.6589936,56.739 25.9335038,57.4694348 25.9335038,58.3694348 C25.9335038,59.270087 26.6589936,59.9998696 27.5543478,59.9998696 L49.5978261,59.9998696 C50.4931803,59.9998696 51.2186701,59.270087 51.2186701,58.3694348 C51.2186701,57.4694348 50.4931803,56.739 49.5978261,56.739 L40.1969309,56.739 L40.1969309,51.5216087 L72.852399,51.5216087 C75.2272596,51.5216087 77.1521739,49.5853043 77.1521739,47.1963913 L77.1521739,4.32573913 C77.1521739,1.93682609 75.2272596,-0.000130434783 72.852399,-0.000130434783 L72.852399,-0.000130434783 Z" id="Fill-7" fill="#EF4934" mask="url(#mask-2-web)"></path>
                            </g>
                        </g>
                    </g>
                </g>
            </g>
        </g>
    </g>
</svg>