<svg id="google.svg" xmlns="http://www.w3.org/2000/svg" width="74" height="48" viewBox="0 0 37 24">
  <defs>
    <style>
      .cls-1 {
        fill: #a3a3a3;
        fill-rule: evenodd;
      }
    </style>
  </defs>
  <path class="cls-1" d="M1180,6596.03c-0.23-6.19,5.08-11.91,11.15-11.98a11.6,11.6,0,0,1,8.44,2.96c-0.96,1.07-1.94,2.14-2.98,3.14-2.06-1.28-4.54-2.26-6.95-1.39a7.624,7.624,0,0,0-4.8,9.69,7.363,7.363,0,0,0,9.8,4.57,6.59,6.59,0,0,0,3.82-4.54c-2.25-.05-4.49-0.02-6.74-0.08-0.01-1.37-.01-2.72-0.01-4.09,3.75,0,7.5-.02,11.25.02,0.23,3.34-.25,6.92-2.38,9.6-2.91,3.82-8.3,4.95-12.68,3.45A11.978,11.978,0,0,1,1180,6596.03Zm30.28-5.16h3.34c0,1.14.01,2.29,0.02,3.43,1.12,0.01,2.24.02,3.36,0.02v3.42c-1.12,0-2.24.01-3.36,0.02-0.01,1.14-.02,2.28-0.02,3.43-1.12-.01-2.24,0-3.35,0-0.01-1.15-.01-2.29-0.02-3.43-1.12-.01-2.24-0.02-3.36-0.02v-3.42c1.12,0,2.24-.01,3.36-0.02C1210.25,6593.16,1210.27,6592.01,1210.28,6590.87Z" transform="translate(-1180 -6584.03)"/>
</svg>
