<svg version="1.1" xmlns="http://www.w3.org/2000/svg" xmlns:xlink="http://www.w3.org/1999/xlink">
    <symbol id="main-logo" viewBox="0 0 65 65">
        <rect fill="#f1563c" width="65" height="65"/>
        <path fill="#ffffff" d="M40.27,17.18H45.7a7.37,7.37,0,0,1,2,.14,1.19,1.19,0,0,1,.83.83,7.37,7.37,0,0,1,.14,2v5.43a7.37,7.37,0,0,1-.14,2,1.24,1.24,0,0,1-.83.83,7.38,7.38,0,0,1-2,.14H40.27a7.38,7.38,0,0,1-2-.14,1.21,1.21,0,0,1-.83-0.83,7.37,7.37,0,0,1-.14-2V20.12a7.37,7.37,0,0,1,.14-2,1.2,1.2,0,0,1,.83-0.83,7.37,7.37,0,0,1,2-.14h0"></path>
        <path fill="#ffffff" d="M41.51,31.75a1,1,0,0,0-.68-0.68,5.47,5.47,0,0,0-1.48-.12h0a11.22,11.22,0,0,1-3-.24,2,2,0,0,1-1.37-1.37,9.73,9.73,0,0,1-.24-2.66V26.44a6,6,0,0,0-.12-1.61,1,1,0,0,0-.68-0.68A6,6,0,0,0,32.31,24H30.22a6,6,0,0,0-1.61.12,1,1,0,0,0-.68.68,6,6,0,0,0-.12,1.61v0.05h0a10.49,10.49,0,0,1-.24,2.85,2,2,0,0,1-1.37,1.37,6.84,6.84,0,0,1-1.79.22,7.21,7.21,0,0,1-1.92-.23,2,2,0,0,1-1.37-1.37,9.66,9.66,0,0,1-.24-2.64V26.44a6,6,0,0,0-.12-1.61,1,1,0,0,0-.68-0.68A6,6,0,0,0,18.48,24H16.39a6,6,0,0,0-1.61.12,1,1,0,0,0-.68.68A6,6,0,0,0,14,26.44v0.05h0a10.49,10.49,0,0,1-.24,2.85,2,2,0,0,1-1.37,1.37,8.33,8.33,0,0,1-2.27.23H9.48a6,6,0,0,0-1.61.12,1,1,0,0,0-.68.68,6,6,0,0,0-.12,1.61v2.09a6,6,0,0,0,.12,1.61,1,1,0,0,0,.68.68,6,6,0,0,0,1.61.12h2.09a6,6,0,0,0,1.61-.12,1,1,0,0,0,.68-0.68A6,6,0,0,0,14,35.45V35.19a9.66,9.66,0,0,1,.24-2.64,2,2,0,0,1,1.37-1.37A7.21,7.21,0,0,1,17.5,31a6.84,6.84,0,0,1,1.79.22,2,2,0,0,1,1.37,1.37,10.49,10.49,0,0,1,.24,2.85h0v0.05A6,6,0,0,0,21,37.05a1,1,0,0,0,.68.68,6,6,0,0,0,1.61.12h2.09A6,6,0,0,0,27,37.73a1,1,0,0,0,.68-0.68,6,6,0,0,0,.12-1.61V35.2A9.72,9.72,0,0,1,28,32.55a2,2,0,0,1,1.37-1.37A7.21,7.21,0,0,1,31.32,31a6.84,6.84,0,0,1,1.79.22,2,2,0,0,1,1.37,1.37,10.49,10.49,0,0,1,.24,2.85h0v0.05a6,6,0,0,0,.12,1.61,1,1,0,0,0,.68.68,6,6,0,0,0,1.61.12h2.09a6,6,0,0,0,1.61-.12,1,1,0,0,0,.68-0.68,6,6,0,0,0,.12-1.61V33.36A6,6,0,0,0,41.51,31.75Z"></path>
        <path fill="#ffffff" d="M57.37,30.82A1,1,0,0,0,58,30.14a6,6,0,0,0,.12-1.61V26.44A6,6,0,0,0,58,24.83a1,1,0,0,0-.68-0.68A6,6,0,0,0,55.76,24H53.67a6,6,0,0,0-1.61.12,1,1,0,0,0-.68.68,5.46,5.46,0,0,0-.12,1.48h0a11.22,11.22,0,0,1-.24,3,2,2,0,0,1-1.37,1.37,9.6,9.6,0,0,1-2.62.24H46.76a6,6,0,0,0-1.61.12,1,1,0,0,0-.68.68,6,6,0,0,0-.12,1.61v2.09A6,6,0,0,0,44.47,37a1,1,0,0,0,.68.68,6,6,0,0,0,1.61.12h0.05a10.49,10.49,0,0,1,2.85.24A2,2,0,0,1,51,39.46a8.34,8.34,0,0,1,.23,2.27v0.63A6,6,0,0,0,51.38,44a1,1,0,0,0,.68.68,6,6,0,0,0,1.61.12h2.09a6,6,0,0,0,1.61-.12A1,1,0,0,0,58,44a6,6,0,0,0,.12-1.61V40.26A6,6,0,0,0,58,38.66,1,1,0,0,0,57.37,38a6,6,0,0,0-1.61-.12H55.49a9.6,9.6,0,0,1-2.62-.24,2,2,0,0,1-1.37-1.37,7.21,7.21,0,0,1-.23-1.92,6.84,6.84,0,0,1,.22-1.79,2,2,0,0,1,1.37-1.37,10.49,10.49,0,0,1,2.85-.24h0.05A6,6,0,0,0,57.37,30.82Z"></path>
        <rect fill="#ffffff" x="7.04" y="40.74" width="41.17" height="3.77" rx="0.62" ry="0.62"/>
    </symbol>
    <symbol id="two-dots"  viewBox="0 0 3 9">
        <path fill-rule="evenodd" d="M797,190h3v3h-3v-3Zm0,6h3v3h-3v-3Z" transform="translate(-797 -190)"></path>
    </symbol>
    <symbol id="icon-services-menu__ux-design" viewBox="0 0 86.5 83.12">
        <path d="M1422.68,1200.14h-35.53v-6.33a2.4,2.4,0,0,0-4.8,0v6.33h-35.53a5.282,5.282,0,0,0-5.31,5.25v43.34a5.282,5.282,0,0,0,5.31,5.25h20.24l-3.88,17.71a2.4,2.4,0,0,0,4.7,1.01l4.09-18.72h25.56l4.09,18.72a2.393,2.393,0,0,0,2.34,1.87,2.937,2.937,0,0,0,.51-0.05,2.389,2.389,0,0,0,1.85-2.83l-3.88-17.71h20.24a5.282,5.282,0,0,0,5.31-5.25v-43.34A5.282,5.282,0,0,0,1422.68,1200.14Zm0.51,15.84v32.75a0.5,0.5,0,0,1-.51.5h-75.86a0.5,0.5,0,0,1-.51-0.5v-43.34a0.51,0.51,0,0,1,.51-0.5h75.86a0.51,0.51,0,0,1,.51.5v10.59Zm-30.85-1.46-15.8,15.62a0.332,0.332,0,0,0,0,.47l2.67,2.64a0.332,0.332,0,0,0,.47,0l15.8-15.62a2.179,2.179,0,0,0,0-3.11A2.233,2.233,0,0,0,1392.34,1214.52Zm-20.75,23.63,5.97-2.8-3.14-3.11Z" transform="translate(-1341.5 -1191.44)"></path>
    </symbol>
    <symbol id="icon-services-menu__chatbots" viewBox="0 0 86.5 79.56">
        <path fill-rule="evenodd" d="M583.72,1526.09v55.47H560.18l-1.088.58-20.735,10.87v-11.45H506.969v-55.47H583.72m0.12-4.72H506.848a4.68,4.68,0,0,0-4.754,4.6v55.71a4.671,4.671,0,0,0,4.754,4.59h26.634v14.66l27.937-14.66H583.84a4.671,4.671,0,0,0,4.754-4.59v-55.71a4.679,4.679,0,0,0-4.754-4.6h0Zm-56.773,20.92a4.244,4.244,0,1,1-4.242-4.1A4.176,4.176,0,0,1,527.067,1542.29Zm44.571,0a4.244,4.244,0,1,1-4.241-4.1A4.175,4.175,0,0,1,571.638,1542.29Z" transform="translate(-502.094 -1521.38)"></path>
    </symbol>
    <symbol id="icon-services-menu__mobile" viewBox="0 0 54 90">
        <path fill-rule="evenodd" d="M988.206,1198.49v77.02H944.018v-77.02h44.188m0.308-4.49h-44.8a4.221,4.221,0,0,0-4.263,4.18v77.63a4.223,4.223,0,0,0,4.263,4.19h44.8a4.224,4.224,0,0,0,4.264-4.19v-77.63a4.222,4.222,0,0,0-4.264-4.18h0Zm-18.592,74.78a3.81,3.81,0,1,1-3.81-3.74A3.773,3.773,0,0,1,969.922,1268.78Zm0.582-62.07h-8.783a1.689,1.689,0,0,1-1.7-1.67v-0.39a1.691,1.691,0,0,1,1.7-1.68H970.5a1.691,1.691,0,0,1,1.7,1.68v0.39A1.689,1.689,0,0,1,970.5,1206.71Z" transform="translate(-939.438 -1194)"></path>
    </symbol>
    <symbol id="icon-services-menu__qa" viewBox="0 0 84 84">
        <path fill-rule="evenodd" d="M963,1596a42,42,0,1,1,42-42A42.047,42.047,0,0,1,963,1596Zm0-79.29a37.29,37.29,0,1,0,37.29,37.29A37.333,37.333,0,0,0,963,1516.71Zm-5.758,53.36-15.551-15.55,3.528-3.53,12.023,12.02,23.6-23.6,3.528,3.53Z" transform="translate(-921 -1512)"></path>
    </symbol>
    <symbol id="icon-services-menu__web"  viewBox="0 0 86.469 65.93">
        <path fill-rule="evenodd" d="M515.535,1211.63a2.907,2.907,0,1,1-2.907-2.86A2.886,2.886,0,0,1,515.535,1211.63Zm9.447,0a2.907,2.907,0,1,1-2.907-2.86A2.885,2.885,0,0,1,524.982,1211.63Zm9.448,0a2.907,2.907,0,1,1-2.907-2.86A2.885,2.885,0,0,1,534.43,1211.63Zm48.232-11.46H505.82a4.781,4.781,0,0,0-4.82,4.75v47.11a4.788,4.788,0,0,0,4.82,4.75h36.6v5.74H531.886a1.79,1.79,0,1,0,0,3.58H556.6a1.79,1.79,0,1,0,0-3.58H546.058v-5.74h36.6a4.788,4.788,0,0,0,4.82-4.75v-47.11A4.781,4.781,0,0,0,582.662,1200.17Zm0.46,51.86a0.454,0.454,0,0,1-.46.45H505.82a0.454,0.454,0,0,1-.46-0.45v-47.11a0.454,0.454,0,0,1,.46-0.45h76.842a0.454,0.454,0,0,1,.46.45v47.11Z" transform="translate(-501 -1200.16)"></path>
    </symbol>
    <symbol id="icon-services-menu__e-commerce" viewBox="0 0 102 108">
        <path d="M96,17v85H6V17H96m6-6H0v97H102V11h0Z"></path>
        <rect x="11" width="80" height="6"/>
        <path d="M51,57A26.07,26.07,0,0,1,24.92,31h6a20.08,20.08,0,0,0,40.17,0h6A26.07,26.07,0,0,1,51,57Z"></path>
    </symbol>
    <symbol id="icon-services-menu__enterprise" viewBox="0 0 96 106">
        <path d="M58,36V0H0V106H96V36H58ZM6,100V6H52V36h0v64H6Zm84,0H58V42H90v58Z"></path>
        <rect x="12" y="12" width="8" height="8"/>
        <rect x="12" y="26" width="8" height="8"/>
        <rect x="12" y="40" width="8" height="8"/>
        <rect x="12" y="54" width="8" height="8"/>
    </symbol>
    <symbol id="icon-services-menu__discovery" viewBox="0 0 84 84">
        <path fill-rule="evenodd" d="M1383,1593a42,42,0,1,1,42-42A42.046,42.046,0,0,1,1383,1593Zm0-79.29a37.29,37.29,0,1,0,37.29,37.29A37.335,37.335,0,0,0,1383,1513.71Zm-23.26,60.43,12.24-28.21a11.416,11.416,0,0,1,5.94-5.94l28.22-12.25-12.12,28.28a11.362,11.362,0,0,1-6.01,6.01Zm38.45-38.42-18.61,8.08a7.254,7.254,0,0,0-3.78,3.79l-8.08,18.61,18.65-7.99a7.247,7.247,0,0,0,3.83-3.83Zm-12.25,18.23a4.158,4.158,0,1,1,0-5.88A4.165,4.165,0,0,1,1385.94,1553.95Z" transform="translate(-1341 -1509)"></path>
    </symbol>
    <symbol id="icon-services-menu__healthcare" viewBox="0 0 23.969 21.094">
        <path fill-rule="evenodd" d="M906.011,454L895.94,444a6.527,6.527,0,0,1,9.262-9.2l0.809,0.8,0.809-.8a6.579,6.579,0,0,1,9.262,0h0a6.483,6.483,0,0,1,0,9.2Zm-5.44-19.91a5.307,5.307,0,0,0-3.778,9.059l9.218,9.155,9.218-9.155a5.29,5.29,0,0,0,0-7.5h0a5.367,5.367,0,0,0-7.554,0l-1.663,1.652-1.663-1.652A5.325,5.325,0,0,0,900.571,434.093Zm2.11,4.419h-1.843v-1.831h-1.164v1.831h-1.843v1.156h1.843v1.83h1.164v-1.83h1.843v-1.156Z" transform="translate(-894.031 -432.906)"></path>
    </symbol>
    <symbol id="icon-menu" viewBox="0 0 35 30">
        <path class="svg-bars" d="M565,42h35v4.063H565V42Zm0,12.969h35v4.062H565V54.969Zm0,12.969h35V72H565V67.937Z" transform="translate(-565 -42)"></path>
    </symbol>
    <symbol id="header-close-icon" viewBox="0 0 32 32">
        <path fill="#8d8d8d" d="M599,44.167L595.831,41,583,53.835,570.165,41,567,44.167,579.833,57,567,69.833,570.165,73,583,60.165,595.831,73,599,69.833,586.163,57Z" transform="translate(-567 -41)"></path>
    </symbol>
    <symbol id="back-icon" viewBox="0 0 20 34">
        <path fill="#8d8d8d" fill-rule="evenodd" d="M63,43l-3-3L43,57,60,74l3-3L49,57Z" transform="translate(-43 -40)"></path>
    </symbol>
    <symbol id="mobile-search-icon" viewBox="0 0 20 20">
        <path fill="#8d8d8d" fill-rule="evenodd" d="M1322,40.28L1320.28,42l-5.13-5.13a8.3,8.3,0,1,1,1.72-1.723Zm-11.75-15.843a5.813,5.813,0,1,0,5.81,5.813A5.814,5.814,0,0,0,1310.25,24.437Z" transform="translate(-1302 -22)"></path>
    </symbol>
    <symbol id="icon-link-more" viewBox="0 0 28 6">
        <title>Link more</title>
        <path class="svg-more" d="M410,289a3,3,0,1,1-3,3A3,3,0,0,1,410,289Zm11,0a3,3,0,1,1-3,3A3,3,0,0,1,421,289Zm11,0a3,3,0,1,1-3,3A3,3,0,0,1,432,289Z" transform="translate(-407 -289)"></path>
    </symbol>
    <symbol id="filled-close-icon" viewBox="0 0 32 32">
        <path d="M599,44.167L595.831,41,583,53.835,570.165,41,567,44.167,579.833,57,567,69.833,570.165,73,583,60.165,595.831,73,599,69.833,586.163,57Z" transform="translate(-567 -41)"></path>
    </symbol>
    <symbol id="icon-services-menu__bpa" viewBox="0 0 16 16">
        <path d="M7.869 9.778a1.714 1.714 0 0 1-1.713-1.713c0-.943.768-1.713 1.713-1.713a1.713 1.713 0 0 1 0 3.425m0-4.29a2.582 2.582 0 0 0-2.587 2.578 2.583 2.583 0 0 0 5.165 0 2.582 2.582 0 0 0-2.578-2.578 M5.79 12.34c.23 0 .371.103.45.19a.532.532 0 0 1 .13.272l.324 2.07c0 .005.01.006.015.006l.031.006a5.7 5.7 0 0 0 1.12.088c.346 0 .75-.01 1.126-.088a.57.57 0 0 1 .033-.006l.339-2.077a.529.529 0 0 1 .148-.29.592.592 0 0 1 .141-.105.528.528 0 0 1 .592.018l1.697 1.224a.471.471 0 0 1 .017.013.04.04 0 0 0 .028-.004 7.313 7.313 0 0 0 1.607-1.624.046.046 0 0 0-.009-.035l-1.222-1.684a.528.528 0 0 1-.044-.548l.035-.067a.529.529 0 0 1 .378-.265l2.061-.332a.042.042 0 0 0 .027-.033c.06-.38.092-.764.092-1.135 0-.367-.03-.749-.092-1.134a.055.055 0 0 0-.02-.032l-2.067-.33a.529.529 0 0 1-.39-.288l-.012-.023a.535.535 0 0 1 .032-.57l1.226-1.69a.043.043 0 0 0 .005-.03 6.877 6.877 0 0 0-1.616-1.614l-.022-.014-1.71 1.238a.53.53 0 0 1-.508.062.53.53 0 0 1-.374-.424L9.022.99a7.2 7.2 0 0 0-2.302 0c-.019.004-.024.011-.027.027L6.37 3.083a.528.528 0 0 1-.375.426.53.53 0 0 1-.505-.062L3.793 2.22l-.017-.013-.02.014a6.843 6.843 0 0 0-1.628 1.634l.019.01 1.223 1.69a.529.529 0 0 1 .07.49.529.529 0 0 1-.43.391l-2.07.33c-.01.003-.022.016-.025.035a6.741 6.741 0 0 0-.092 1.132c0 .394.031.777.092 1.138a.05.05 0 0 0 .018.029l2.078.332a.529.529 0 0 1 .428.391.529.529 0 0 1-.069.49l-1.236 1.713a7.463 7.463 0 0 0 1.613 1.63c.02.011.031.002.038-.003l1.698-1.216a.529.529 0 0 1 .308-.099zm2.07 3.455a6.5 6.5 0 0 1-1.28-.103 1.042 1.042 0 0 1-.865-.852l-.195-1.248-1.011.724c-.355.267-.837.28-1.218.026l-.021-.015a8.302 8.302 0 0 1-1.799-1.816c-.268-.348-.266-.862.015-1.235l.723-.998-1.23-.198c-.43-.057-.795-.414-.874-.867A7.613 7.613 0 0 1 0 7.934c0-.44.035-.87.104-1.274.081-.46.436-.81.884-.873l1.221-.195-.729-1.007a1.027 1.027 0 0 1-.006-1.23 7.674 7.674 0 0 1 1.802-1.802 1.032 1.032 0 0 1 1.242.006l1.004.725.192-1.23c.077-.465.433-.817.887-.878a7.915 7.915 0 0 1 2.54.002c.448.06.803.417.867.886l.196 1.223 1.007-.728c.365-.28.877-.28 1.25 0a7.671 7.671 0 0 1 1.8 1.803 1.06 1.06 0 0 1-.01 1.22L13.52 5.59l1.232.197c.432.062.795.42.873.87l.002.007c.068.43.103.856.103 1.27 0 .414-.035.841-.103 1.27-.08.46-.445.818-.888.877l-1.219.197.73 1.004c.266.376.269.868.009 1.229a8.123 8.123 0 0 1-1.8 1.816l-.02.014c-.38.253-.871.24-1.227-.032l-1.005-.725-.2 1.248a1.02 1.02 0 0 1-.86.859 6.53 6.53 0 0 1-1.286.103z"></path>
    </symbol>
</svg>