<svg id="in.svg" xmlns="http://www.w3.org/2000/svg" width="48" height="48" viewBox="0 0 24 24">
  <defs>
    <style>
      .cls-1 {
        fill: #a3a3a3;
        fill-rule: evenodd;
      }
    </style>
  </defs>
  <path class="cls-1" d="M1009.91,6594.82v-0.03l-0.03.03h0.03Zm9.32-10.82H998.772a1.747,1.747,0,0,0-1.774,1.72v20.56a1.746,1.746,0,0,0,1.774,1.71h20.458a1.742,1.742,0,0,0,1.77-1.71v-20.56A1.744,1.744,0,0,0,1019.23,6584Zm-14.96,20.09h-3.62v-10.84h3.62v10.84Zm-1.81-12.32h-0.02A2.07,2.07,0,1,1,1002.46,6591.77Zm14.89,12.32h-3.63v-5.8c0-1.46-.52-2.45-1.83-2.45a1.97,1.97,0,0,0-1.86,1.32,2.344,2.344,0,0,0-.12.88v6.05h-3.63s0.05-9.82,0-10.84h3.63v1.54a3.589,3.589,0,0,1,3.26-1.79c2.39,0,4.18,1.55,4.18,4.87v6.22Z" transform="translate(-997 -6584)"/>
</svg>
