<svg id="skype.svg" xmlns="http://www.w3.org/2000/svg" width="56" height="58" viewBox="0 0 28 29">
  <defs>
    <style>
      .cls-1 {
        fill: #a3a3a3;
        fill-rule: evenodd;
      }
    </style>
  </defs>
  <path class="cls-1" d="M926.182,6598.59a14.075,14.075,0,0,0,.309-2.93,13.491,13.491,0,0,0-13.346-13.64,12.3,12.3,0,0,0-2.282.2,7.566,7.566,0,0,0-4.117-1.22,7.826,7.826,0,0,0-7.741,7.91,7.971,7.971,0,0,0,1.066,4,13.939,13.939,0,0,0-.272,2.75,13.5,13.5,0,0,0,13.346,13.64,13.117,13.117,0,0,0,2.444-.23,7.559,7.559,0,0,0,3.659.94,7.824,7.824,0,0,0,7.739-7.91A7.975,7.975,0,0,0,926.182,6598.59Zm-6.351,3.44a5.975,5.975,0,0,1-2.648,2.05,10.356,10.356,0,0,1-4.074.73,9.7,9.7,0,0,1-4.668-1,6.111,6.111,0,0,1-2.147-1.95,4.272,4.272,0,0,1-.834-2.4,1.675,1.675,0,0,1,.543-1.26,1.867,1.867,0,0,1,1.361-.52,1.712,1.712,0,0,1,1.148.41,3.01,3.01,0,0,1,.765,1.14,6.83,6.83,0,0,0,.748,1.36,2.984,2.984,0,0,0,1.094.86,4.374,4.374,0,0,0,1.893.35,4.545,4.545,0,0,0,2.626-.7,1.98,1.98,0,0,0,.966-1.67,1.649,1.649,0,0,0-.5-1.26,3.662,3.662,0,0,0-1.391-.79c-0.594-.18-1.4-0.39-2.392-0.6a18.949,18.949,0,0,1-3.418-1.05,5.635,5.635,0,0,1-2.239-1.67,4.238,4.238,0,0,1-.842-2.67,4.386,4.386,0,0,1,.884-2.7,5.535,5.535,0,0,1,2.531-1.8,11.058,11.058,0,0,1,3.824-.61,10.192,10.192,0,0,1,3.044.41,6.519,6.519,0,0,1,2.153,1.1,4.639,4.639,0,0,1,1.267,1.45,3.3,3.3,0,0,1,.408,1.52,1.843,1.843,0,0,1-.535,1.29,1.768,1.768,0,0,1-1.339.57,1.61,1.61,0,0,1-1.123-.36,4.184,4.184,0,0,1-.778-1.06,4.4,4.4,0,0,0-1.17-1.48,3.611,3.611,0,0,0-2.176-.51,4,4,0,0,0-2.259.57,1.521,1.521,0,0,0-.809,1.28,1.163,1.163,0,0,0,.261.77,2.381,2.381,0,0,0,.776.61,6.132,6.132,0,0,0,1.05.41c0.362,0.1.97,0.26,1.8,0.45,1.054,0.24,2.024.5,2.882,0.78a8.946,8.946,0,0,1,2.23,1.04,4.5,4.5,0,0,1,1.47,1.58,4.835,4.835,0,0,1,.53,2.35A5.163,5.163,0,0,1,919.831,6602.03Z" transform="translate(-899 -6581)"/>
</svg>
