<svg width="168" height="79" viewBox="0 0 168 79" fill="none" xmlns="http://www.w3.org/2000/svg">
<rect opacity="0.01" x="1" width="166" height="78" fill="#8F8F8F" stroke="#979797"/>
<path d="M92.2064 55.1064C91.7022 55.0213 91.2192 54.8662 90.7512 54.6649C90.6189 54.6073 90.5328 54.6236 90.418 54.7111C89.0901 55.7368 87.5463 56.2158 85.9164 56.4659C85.0852 56.5935 84.2453 56.6661 83.4054 56.6373C81.3661 56.5685 79.3843 56.2333 77.5484 55.2765C77.189 55.0889 76.8383 54.8825 76.5251 54.6248C76.379 54.5048 76.2492 54.486 76.0745 54.536C75.2196 54.7824 74.346 54.8712 73.4587 54.825C73.3064 54.6824 73.3576 54.4948 73.3576 54.3247C73.3538 51.0277 73.3301 47.7295 73.3676 44.4325C73.3826 43.0654 72.4653 41.8809 70.8354 41.8834C70.0254 41.8834 69.2154 41.8847 68.4055 41.8834C67.945 41.8834 67.9175 41.8597 67.7503 41.4244C67.2024 39.9936 65.887 39.0405 64.4206 39.013C62.6883 38.9805 61.1745 40.1887 60.8001 41.901C60.2984 44.1973 62.0793 46.3699 64.4255 46.3224C65.887 46.2923 67.2398 45.3255 67.749 43.9472C67.9312 43.4556 67.9337 43.4519 68.4666 43.4519C69.2666 43.4519 70.0653 43.4481 70.8653 43.4519C71.5068 43.4556 71.8487 43.7883 71.85 44.4362C71.8562 47.6819 71.8537 50.9276 71.85 54.1733C71.85 54.3034 71.8774 54.4497 71.7414 54.5423C70.1502 54.1571 68.72 53.4366 67.4807 52.3735C67.1138 52.0583 66.8305 51.9895 66.3675 52.1509C61.932 53.693 57.4329 51.6268 55.3088 47.6782C54.3977 45.9847 53.9422 44.1798 54.0059 42.2587C54.0945 39.5696 55.0604 37.2219 56.8476 35.2144C58.2965 33.5872 60.0912 32.4766 62.113 31.7148C62.3476 31.626 62.4487 31.4897 62.5236 31.2671C63.6106 28.0502 65.7297 25.7838 68.8335 24.4392C69.8644 23.9927 70.9552 23.7976 72.0734 23.7701C72.4103 23.7613 72.7573 23.7826 73.0905 23.8801C73.1991 24.0402 73.1629 24.2229 73.1629 24.3955C73.1654 28.224 73.1854 32.0538 73.1529 35.8823C73.1417 37.2081 74.1052 38.4301 75.6826 38.4001C77.2614 38.3701 78.8401 38.3939 80.4189 38.3939C80.5536 38.3939 80.6897 38.3876 80.8232 38.4114C81.2201 38.4814 81.4996 38.7591 81.5071 39.1456C81.5283 40.2062 81.5146 41.2681 81.5146 42.3287C81.5146 42.6339 81.3112 42.7327 81.0716 42.8103C80.3365 43.0479 79.7424 43.4807 79.2819 44.1023C77.6208 46.3449 78.9499 49.5105 81.7143 49.8883C83.3904 50.1171 84.7744 49.2541 85.4184 48.0634C86.3619 46.3174 85.6543 44.0335 83.8971 43.0754C83.7511 42.9954 83.605 42.9116 83.449 42.8578C83.1695 42.7627 83.0734 42.5726 83.0759 42.2862C83.0834 41.3394 83.0846 40.3926 83.0759 39.4457C83.0696 38.7578 82.8575 38.14 82.4257 37.5971C81.894 36.928 81.1752 36.7041 80.359 36.7041C78.8114 36.7028 77.2639 36.7041 75.7163 36.7041C74.96 36.7041 74.6655 36.4114 74.6643 35.6435C74.6618 31.6686 74.6643 27.6949 74.6605 23.7201C74.6605 23.5862 74.7017 23.4549 74.678 23.3198C75.4405 22.6932 76.3166 22.2654 77.2214 21.899C78.6042 21.3399 80.0457 21.0722 81.5383 21.1348C82.5417 21.1773 83.5152 21.3686 84.42 21.8264C84.6259 21.9302 84.7894 21.9315 85.0016 21.8402C86.4131 21.2348 87.8882 20.9271 89.427 21.0147C91.3215 21.1235 93.0525 21.7514 94.6625 22.7395C94.7511 22.7932 94.8522 22.8345 94.9258 22.9046C95.5348 23.4737 96.2624 23.5512 97.0686 23.5787C99.1678 23.6488 101.024 24.443 102.656 25.7513C104.789 27.4598 106.18 29.6749 107 32.2652C107.065 32.4703 107.173 32.5941 107.365 32.6892C109.554 33.7711 111.35 35.3033 112.648 37.3895C113.436 38.6565 113.862 40.0373 113.977 41.5282C114.102 43.1617 113.715 44.6726 113.043 46.1435C112.534 47.2579 111.951 48.3148 111.105 49.2116C109.757 50.64 108.142 51.5593 106.185 51.8569C104.861 52.0596 103.583 51.8732 102.334 51.4379C102.131 51.3666 102.026 51.3892 101.89 51.5492C100.511 53.1827 98.7759 54.2734 96.7441 54.9025C95.8356 55.1839 94.9046 55.3103 93.9536 55.3015C93.8438 55.1927 93.8625 55.0513 93.8625 54.9188C93.86 52.047 93.86 49.1753 93.8625 46.3049C93.8625 45.8846 93.9274 45.8233 94.3592 45.8233C96.3535 45.8196 98.3478 45.8233 100.342 45.8221C101.845 45.8221 102.914 44.7789 102.961 43.2718C102.963 43.178 102.967 43.0842 102.963 42.9904C102.952 42.7477 103.062 42.6214 103.292 42.5338C104.849 41.9447 105.744 40.8078 105.803 39.1493C105.855 37.7485 105.213 36.629 103.991 35.9124C101.668 34.549 98.7023 36.0937 98.5488 38.9267C98.4627 40.5101 99.3812 41.8459 100.91 42.4801C101.414 42.6889 101.472 42.8002 101.388 43.4481C101.337 43.8446 101.052 44.131 100.653 44.1836C100.539 44.1986 100.425 44.1948 100.311 44.1948C98.3691 44.1948 96.4259 44.1948 94.484 44.1948C94.3704 44.1948 94.2556 44.1948 94.142 44.1836C93.9698 44.1661 93.8837 44.071 93.8687 43.9009C93.8575 43.7658 93.86 43.6307 93.86 43.4957C93.86 39.896 93.86 36.2963 93.86 32.6967C93.86 32.374 93.8537 32.0513 93.8051 31.7324C93.6316 30.6067 92.6981 29.7849 91.5611 29.7749C90.4704 29.7662 89.3796 29.7749 88.2888 29.7724C87.8221 29.7724 87.8046 29.7562 87.6424 29.3109C86.7351 26.8357 83.66 26.0439 81.723 27.8838C80.6597 28.8932 80.304 30.1764 80.7583 31.601C81.2039 32.9981 82.1811 33.8849 83.6263 34.1125C85.5732 34.4202 87.2368 33.3446 87.721 31.6436C87.7971 31.3784 87.9544 31.2746 88.219 31.2758C89.2573 31.2771 90.2969 31.2683 91.3352 31.2796C91.9593 31.2871 92.295 31.6323 92.2962 32.2564C92.3012 34.035 92.2975 35.8148 92.2975 37.5934C92.2975 43.243 92.2975 48.8914 92.295 54.541C92.295 54.7324 92.3511 54.94 92.2014 55.1089L92.2064 55.1064Z" fill="#0071CB"/>
<path d="M86.3594 30.324C86.4043 31.6323 85.3273 32.6029 84.1192 32.5504C82.9349 32.4978 82.0475 31.5072 82.0924 30.274C82.1361 29.107 83.152 28.1927 84.3414 28.2503C85.5607 28.3091 86.4068 29.1796 86.3582 30.324H86.3594Z" fill="#0071CB"/>
<path d="M104.315 39.0755C104.311 40.265 103.355 41.2206 102.176 41.2155C100.992 41.2105 100.051 40.2575 100.049 39.063C100.046 37.8485 100.981 36.9192 102.204 36.9217C103.394 36.9242 104.32 37.8685 104.316 39.0755H104.315Z" fill="#0071CB"/>
<path d="M82.1948 48.2985C81.0104 48.3035 80.0619 47.373 80.0569 46.201C80.0507 44.9553 80.9817 44.0022 82.1973 44.0085C83.3567 44.0147 84.3289 44.9028 84.3389 45.9671C84.3514 47.318 83.454 48.2935 82.1948 48.2985Z" fill="#0071CB"/>
<path d="M66.481 42.5238C66.4536 43.7796 65.5226 44.7176 64.322 44.7001C63.1226 44.6826 62.1941 43.7145 62.2141 42.5051C62.234 41.2981 63.1975 40.3888 64.4068 40.4013C65.4052 40.4113 66.5896 41.3644 66.481 42.5226V42.5238Z" fill="#0071CB"/>
</svg>
