<?xml version="1.0" encoding="utf-8"?>
<!-- Generator: Adobe Illustrator 24.2.1, SVG Export Plug-In . SVG Version: 6.00 Build 0)  -->
<svg version="1.1" id="Layer_1" xmlns="http://www.w3.org/2000/svg" xmlns:xlink="http://www.w3.org/1999/xlink" x="0px" y="0px"
	 viewBox="0 0 166 78" style="enable-background:new 0 0 166 78;" xml:space="preserve">
<style type="text/css">
	.st0{fill:none;stroke:#F9008E;stroke-miterlimit:10;}
	.st1{fill:#008690;}
	.st2{fill:#0069F0;}
	.st3{fill:#FFFFFF;}
	.st4{fill:#7E7FF1;}
	.st5{opacity:0.1;enable-background:new    ;}
	.st6{opacity:0.2;enable-background:new    ;}
	.st7{fill:#5453CF;}
	.st8{fill:#4F4EC1;}
	.st9{fill:none;}
	.st10{fill:#0071CB;}
	.st11{fill:#F71C00;}
	.st12{fill:#22317A;}
	.st13{fill:#2495E2;}
	.st14{fill:#020202;}
	.st15{fill:#242F3F;}
	.st16{fill:#FF9300;}
	.st17{clip-path:url(#SVGID_2_);}
	.st18{fill:#44CBF7;}
	.st19{fill:#00C391;}
	.st20{fill:#155A9D;}
	.st21{fill:#4893D3;}
	.st22{fill:#2173BC;}
	.st23{fill:#0D4873;}
	.st24{fill:#94BBE6;}
	.st25{fill:#63A340;}
	.st26{fill:#75BA3D;}
	.st27{fill:#6BAE41;}
	.st28{fill:#F62A2A;}
	.st29{fill:#3D81FB;}
	.st30{fill:#00AC47;}
	.st31{fill:#FFBA00;}
	.st32{fill:#F7292A;}
	.st33{clip-path:url(#SVGID_4_);}
	.st34{fill:#F96200;}
	.st35{fill:#FF9200;}
	.st36{fill:url(#SVGID_5_);}
	.st37{fill:#006FCA;}
	.st38{fill-rule:evenodd;clip-rule:evenodd;fill:#FFFFFF;}
	.st39{fill:url(#SVGID_6_);}
	.st40{fill:#00A0DE;}
	.st41{fill:#7D878F;}
	.st42{fill:#00A1E4;}
</style>
<g>
	<g>
		<circle class="st4" cx="84.4" cy="24.6" r="6.7"/>
		<path class="st5" d="M84,26.1h-6.1l0,0.1l0,0l0,0.1c0.9,3.5,4.4,5.6,7.9,4.8V28C85.9,26.9,85,26.1,84,26.1z"/>
		<path class="st6" d="M82.5,27.5h-4.1c1.1,2.3,3.5,3.8,6.1,3.8v-1.9C84.4,28.4,83.6,27.5,82.5,27.5z"/>
		<circle class="st7" cx="99.5" cy="26.8" r="5"/>
		<path class="st7" d="M103.8,33.2H92.5c-0.5,0-0.9,0.4-0.9,0.9v11.7c-0.1,3.5,2.3,6.5,5.7,7.3c3.9,0.8,7.7-1.7,8.5-5.6
			c0.1-0.5,0.2-1,0.2-1.5V35.4C106,34.2,105,33.2,103.8,33.2z"/>
		<path class="st4" d="M95.9,35.4v13.7c0,6.3-5.1,11.5-11.5,11.5c-4.1,0-7.9-2.2-10-5.7c-0.3-0.5-0.5-0.9-0.7-1.4
			c-0.2-0.5-0.3-0.9-0.5-1.4c-0.2-0.9-0.4-1.9-0.4-2.9V35.4c0-1.2,1-2.2,2.2-2.2c0,0,0,0,0,0h18.7C95,33.2,95.9,34.2,95.9,35.4
			C95.9,35.4,95.9,35.4,95.9,35.4z"/>
		<path class="st6" d="M82.5,27.5h-4.1c1.1,2.3,3.5,3.8,6.1,3.8v-1.9C84.4,28.4,83.6,27.5,82.5,27.5z"/>
		<path class="st5" d="M85.9,33.2v18.2c0,0.9-0.6,1.7-1.5,1.9c-0.1,0-0.3,0.1-0.4,0.1H73.8c-0.2-0.5-0.3-0.9-0.5-1.4
			c-0.2-0.9-0.4-1.9-0.4-2.9V35.4c0-1.2,1-2.2,2.2-2.2c0,0,0,0,0,0H85.9z"/>
		<path class="st6" d="M84.4,33.2v19.7c0,0.1,0,0.3-0.1,0.4c-0.2,0.9-1,1.5-1.9,1.5h-8c-0.3-0.5-0.5-0.9-0.7-1.4
			c-0.2-0.5-0.3-0.9-0.5-1.4c-0.2-0.9-0.4-1.9-0.4-2.9V35.4c0-1.2,1-2.2,2.2-2.2c0,0,0,0,0,0H84.4z"/>
		<path class="st6" d="M84.4,33.2V50c0,1.1-0.9,1.9-1.9,1.9h-9.2c-0.2-0.9-0.4-1.9-0.4-2.9V35.4c0-1.2,1-2.2,2.2-2.2c0,0,0,0,0,0
			H84.4z"/>
		<path class="st6" d="M75.1,33.2c-1.2,0-2.2,1-2.2,2.2c0,0,0,0,0,0v13.7c0,1,0.1,1.9,0.4,2.9h7.8c1.1,0,1.9-0.9,1.9-1.9V33.2H75.1z
			"/>
		<path class="st8" d="M61.9,27.5h19.2c1.1,0,1.9,0.9,1.9,1.9l0,0v19.2c0,1.1-0.9,1.9-1.9,1.9h0H61.9c-1.1,0-1.9-0.9-1.9-1.9l0,0
			V29.4C60,28.4,60.9,27.5,61.9,27.5L61.9,27.5z"/>
		<path class="st3" d="M77.2,34.7h-4.3v11.5h-2.8V34.7h-4.3v-2.8h11.4V34.7z"/>
		<path class="st9" d="M60,16h46v46H60V16z"/>
	</g>
</g>
</svg>
