<?xml version="1.0" encoding="utf-8"?>
<!-- Generator: Adobe Illustrator 24.2.1, SVG Export Plug-In . SVG Version: 6.00 Build 0)  -->
<svg version="1.1" id="Layer_1" xmlns="http://www.w3.org/2000/svg" xmlns:xlink="http://www.w3.org/1999/xlink" x="0px" y="0px"
	 viewBox="0 0 166 78" style="enable-background:new 0 0 166 78;" xml:space="preserve">
<style type="text/css">
	.st0{fill:none;stroke:#F9008E;stroke-miterlimit:10;}
	.st1{fill:#008690;}
	.st2{fill:#0069F0;}
	.st3{fill:#FFFFFF;}
	.st4{fill:#7E7FF1;}
	.st5{opacity:0.1;enable-background:new    ;}
	.st6{opacity:0.2;enable-background:new    ;}
	.st7{fill:#5453CF;}
	.st8{fill:#4F4EC1;}
	.st9{fill:none;}
	.st10{fill:#0071CB;}
	.st11{fill:#F71C00;}
	.st12{fill:#22317A;}
	.st13{fill:#2495E2;}
	.st14{fill:#020202;}
	.st15{fill:#242F3F;}
	.st16{fill:#FF9300;}
	.st17{clip-path:url(#SVGID_2_);}
	.st18{fill:#44CBF7;}
	.st19{fill:#00C391;}
	.st20{fill:#155A9D;}
	.st21{fill:#4893D3;}
	.st22{fill:#2173BC;}
	.st23{fill:#0D4873;}
	.st24{fill:#94BBE6;}
	.st25{fill:#63A340;}
	.st26{fill:#75BA3D;}
	.st27{fill:#6BAE41;}
	.st28{fill:#F62A2A;}
	.st29{fill:#3D81FB;}
	.st30{fill:#00AC47;}
	.st31{fill:#FFBA00;}
	.st32{fill:#F7292A;}
	.st33{clip-path:url(#SVGID_4_);}
	.st34{fill:#F96200;}
	.st35{fill:#FF9200;}
	.st36{fill:url(#SVGID_5_);}
	.st37{fill:#006FCA;}
	.st38{fill-rule:evenodd;clip-rule:evenodd;fill:#FFFFFF;}
	.st39{fill:url(#SVGID_6_);}
	.st40{fill:#00A0DE;}
	.st41{fill:#7D878F;}
	.st42{fill:#00A1E4;}
</style>
<g>
	<g>
		<path class="st14" d="M68.9,59L68.9,59c-1.7,0-3-1.4-3-3v-6.8c0-1.7,1.4-3,3-3l0,0c1.7,0,3,1.4,3,3V56C71.9,57.6,70.5,59,68.9,59z
			"/>
		<path class="st14" d="M78.3,59L78.3,59c-1.7,0-3-1.4-3-3V39c0-1.7,1.4-3,3-3h0c1.7,0,3,1.4,3,3v17C81.3,57.6,80,59,78.3,59z"/>
		<path class="st14" d="M87.7,59L87.7,59c-1.7,0-3-1.4-3-3V43.4c0-1.7,1.4-3,3-3h0c1.7,0,3,1.4,3,3V56C90.7,57.6,89.4,59,87.7,59z"
			/>
		<path class="st14" d="M97.2,59L97.2,59c-1.7,0-3-1.4-3-3V31.6c0-1.7,1.4-3,3-3h0c1.7,0,3,1.4,3,3V56C100.2,57.6,98.8,59,97.2,59z"
			/>
		<path class="st14" d="M103.4,19H62.6c-3.6,0-6.6,2.9-6.6,6.5v21.7c0,3.6,2.9,6.5,6.6,6.5h0.7v-2.1h-0.7c-2.4,0-4.4-2-4.4-4.4V25.5
			c0-2.4,2-4.4,4.4-4.4h40.9c2.4,0,4.4,2,4.4,4.4v21.7c0,2.4-2,4.4-4.4,4.4h-0.7v2.1h0.7c3.6,0,6.6-2.9,6.6-6.5V25.5
			C110,21.9,107.1,19,103.4,19z"/>
	</g>
</g>
</svg>
