<?xml version="1.0" encoding="utf-8"?>
<!-- Generator: Adobe Illustrator 24.2.1, SVG Export Plug-In . SVG Version: 6.00 Build 0)  -->
<svg version="1.1" id="Layer_1" xmlns="http://www.w3.org/2000/svg" xmlns:xlink="http://www.w3.org/1999/xlink" x="0px" y="0px"
	 viewBox="0 0 166 78" style="enable-background:new 0 0 166 78;" xml:space="preserve">
<style type="text/css">
	.st0{fill:none;stroke:#F9008E;stroke-miterlimit:10;}
	.st1{fill:#008690;}
	.st2{fill:#0069F0;}
	.st3{fill:#FFFFFF;}
	.st4{fill:#7E7FF1;}
	.st5{opacity:0.1;enable-background:new    ;}
	.st6{opacity:0.2;enable-background:new    ;}
	.st7{fill:#5453CF;}
	.st8{fill:#4F4EC1;}
	.st9{fill:none;}
	.st10{fill:#0071CB;}
	.st11{fill:#F71C00;}
	.st12{fill:#22317A;}
	.st13{fill:#2495E2;}
	.st14{fill:#020202;}
	.st15{fill:#242F3F;}
	.st16{fill:#FF9300;}
	.st17{clip-path:url(#SVGID_2_);}
	.st18{fill:#44CBF7;}
	.st19{fill:#00C391;}
	.st20{fill:#155A9D;}
	.st21{fill:#4893D3;}
	.st22{fill:#2173BC;}
	.st23{fill:#0D4873;}
	.st24{fill:#94BBE6;}
	.st25{fill:#63A340;}
	.st26{fill:#75BA3D;}
	.st27{fill:#6BAE41;}
	.st28{fill:#F62A2A;}
	.st29{fill:#3D81FB;}
	.st30{fill:#00AC47;}
	.st31{fill:#FFBA00;}
	.st32{fill:#F7292A;}
	.st33{clip-path:url(#SVGID_4_);}
	.st34{fill:#F96200;}
	.st35{fill:#FF9200;}
	.st36{fill:url(#SVGID_5_);}
	.st37{fill:#006FCA;}
	.st38{fill-rule:evenodd;clip-rule:evenodd;fill:#FFFFFF;}
	.st39{fill:url(#SVGID_6_);}
	.st40{fill:#00A0DE;}
	.st41{fill:#7D878F;}
	.st42{fill:#00A1E4;}
</style>
<g>
	<g>
		<path class="st2" d="M97.6,29H85c-0.2,0-0.4,0.2-0.4,0.4v4.7l-3.4,0c-1.2,0-2.3,0.8-2.8,1.9l-6.2,14.7h-2.6V46
			c0-0.2-0.2-0.4-0.4-0.4H56.5c-0.2,0-0.4,0.2-0.4,0.4v12.6c0,0.2,0.2,0.4,0.4,0.4h12.6c0.2,0,0.4-0.2,0.4-0.4v-4.4h2.7
			c1.2,0,2.4-0.7,2.9-1.9l6.2-14.7l3.2,0V42c0,0.2,0.2,0.4,0.4,0.4h12.6c0.2,0,0.4-0.2,0.4-0.4V29.4C98,29.2,97.8,29,97.6,29z"/>
		<path class="st2" d="M103.3,19H62.7C59,19,56,22,56,25.7v15h2.2v-15c0-2.5,2-4.5,4.5-4.5h40.6c2.5,0,4.5,2,4.5,4.5v21.7
			c0,2.5-2,4.5-4.5,4.5H85.9v2.2h17.3c3.7,0,6.7-3,6.7-6.7V25.7C110,22,107,19,103.3,19z"/>
		<rect x="59.1" y="48.8" class="st3" width="7.3" height="7.3"/>
	</g>
</g>
</svg>
