<svg version="1.1" xmlns="http://www.w3.org/2000/svg" xmlns:xlink="http://www.w3.org/1999/xlink" x="0px" y="0px"
	 viewBox="0 0 328.3 195" style="enable-background:new 0 0 328.3 195;" xml:space="preserve">
<style type="text/css">
	.st0{fill:#888A8D;}
	.st1{clip-path:url(#SVGID_2_);fill:url(#SVGID_3_);}
</style>
<g>
	<path class="st0" d="M324.3,187.1c-13.1,1.8-55.5,3.7-160.2,3.7C59.4,190.8,17,188.9,4,187.1c-1.5-0.2-3.5-1.1-3.9-2.7
		c-0.1,3-0.2,6.3,3.9,6.9c13.1,1.8,55.5,3.7,160.2,3.7c104.7,0,147.1-1.8,160.2-3.7c4.1-0.6,4-3.9,3.9-6.9
		C328,186.5,325.8,186.9,324.3,187.1"/>
	<g>
		<defs>
			<path id="SVGID_1_" d="M305.6,160.8c-8.7-8-8.7-7.8-12.5-25.1c-4.3-20-10.7-99-13.5-135.6h-231c-2.8,36.6-9.2,115.6-13.5,135.6
				c-3.7,17.3-3.7,17.2-12.5,25.1c-8.7,8-31.8,24.5-18.7,26.4c13.1,1.8,55.5,3.7,160.2,3.7s147.1-1.8,160.2-3.7
				C337.4,185.3,314.3,168.7,305.6,160.8z"/>
		</defs>
		<clipPath id="SVGID_2_">
			<use xlink:href="#SVGID_1_"  style="overflow:visible;"/>
		</clipPath>
		
			<linearGradient id="SVGID_3_" gradientUnits="userSpaceOnUse" x1="-390.5092" y1="-102.4838" x2="-389.5092" y2="-102.4838" gradientTransform="matrix(0 205.5 205.5 0 21224.5605 80249.5703)">
			<stop  offset="0" style="stop-color:#5D5E60"/>
			<stop  offset="4.894629e-002" style="stop-color:#7B7C7E"/>
			<stop  offset="9.790243e-002" style="stop-color:#909294"/>
			<stop  offset="0.144" style="stop-color:#9E9FA2"/>
			<stop  offset="0.186" style="stop-color:#A4A6A9"/>
			<stop  offset="0.2227" style="stop-color:#A8AAAD"/>
			<stop  offset="0.25" style="stop-color:#AAACAF"/>
			<stop  offset="0.5204" style="stop-color:#9EA0A3"/>
			<stop  offset="0.699" style="stop-color:#DADBDC"/>
			<stop  offset="0.8265" style="stop-color:#949699"/>
			<stop  offset="1" style="stop-color:#A7AAAC"/>
		</linearGradient>
		<rect x="-9.1" y="-22.5" class="st1" width="346.5" height="213.3"/>
	</g>
</g>
</svg>
