<svg width="540" height="405" xmlns="http://www.w3.org/2000/svg" xmlns:xlink="http://www.w3.org/1999/xlink"><defs><path d="M42.52 1.035c-1.62 1.066-2.263 3.16-3.36 4.795-.973 1.452-2.393 2.664-3.132 4.197V9.94c-.18.356-.32.732-.413 1.119a7.997 7.997 0 00.245 3.664c.084.636.405 1.219.897 1.632.543.347 1.298.266 1.94.38 0 .104-.054.206-.076.315-1.375 6.463 2.453 12.898 8.79 14.771v.338c0 .317-.02.635-.06.95 0 0-5.572-1.146-7.066-.37-1.495.779-4.436 1.382-4.893 1.828-.457.445-1.555.108-2.555 2.718-1.001 2.61-1.087 5.257-2.382 6.475-1.293 1.217-1.94 2.044-1.995 2.93-.054.886.163 1.088-.337 1.38-.5.294-1.218 1.442-.995 1.881a1.58 1.58 0 01-.609 1.664c-.527.37-.823.988-.777 1.631 0 0-.331 1.219-1.086 1.495-.756.277-1.278 2.099-1.278 2.099l-2.511 2.892-4.986-5.513a2.11 2.11 0 00-2.97-.152l-2.445 2.174A4.86 4.86 0 008.019 57.7a6.404 6.404 0 00-1.271 1.885L5.41 60.793a3.403 3.403 0 00-.343 3.762l3.192 3.528v.033a5.636 5.636 0 00-3.023 1.31C.468 73.63.408 77.506 1.13 79.272c.725 1.768 6.764 8.58 6.764 8.58s3.512 4.56 8.58 6.99l-.04.039a6.197 6.197 0 00-.298.348l-.081.104a1.151 1.151 0 01-.077.107l-.087.132-.07.109-.098.162-.06.103-.114.218s-.026.044-.038.07c-.01.028-.092.196-.136.299-.017.036-.03.077-.043.114-.034.071-.06.148-.087.219l-.05.146c0 .071-.049.14-.07.212l-.05.158-.065.245c0 .048-.026.097-.043.146-.016.05-.06.26-.087.397a1.514 1.514 0 01-.027.158l-.049.288c0 .064 0 .13-.027.2l-.032.273v1.266c-.116 6.476.265 7.416.265 7.416a3.592 3.592 0 002.943 2.207c.317.023.637.007.95-.05 2.881-.5 9.645-1.663 12.031-1.218 1.434.267 4.09-.129 5.98-.482l.5-.098.348 1.086 1.087-.299.936.544c.244.147.446.26.587.337 1.088 3.714 5.535 2.446 5.535 2.446l1.054.61 10.699.277a21.694 21.694 0 003.805 1.816c.177.053.36.095.543.12.994.078 1.991.096 2.985.054.822 0 1.452-.054 1.452-.054s-.109-2.908-.262-6.16a87.106 87.106 0 009.912-.81c5.714-1.006 8.1-6.203 8.976-8.98.258 1.134.439 2.285.543 3.445.235 1.014.53 2.013.886 2.99.313.787.725 1.53 1.223 2.213 4.213-1.44 1.664-3.598.778-4.54-.887-.94.61-1.712.61-1.712s1.162-.777 1.053-1.494c-.109-.719-.168-1.495 3.605-1.436 3.773.06 3.511-3.098 3.511-3.098L85.413 78.287s-.223-4.257-1-5.25c-.778-.995-.164-3.215-.164-3.215s.832-1.217.109-1.326c-.723-.108-.109-2.82-.109-2.82l-.06-4.317s.67-4.149.115-5.143c-.33-.55-.309-1.24.054-1.768 0 0 .663-2.38 0-2.989s-.5-4.317-.332-7.248c.17-2.93-1.163-4.587-1.163-5.034 0-.445-4.381-4.757-4.381-5.142 0-.387-2.773-1.995-4.437-2.436-1.663-.44-2.495-.772-2.441-.994.056-.223-2.603-1.088-2.603-1.088s-2.333-.164-3.22-1.327c-.885-1.164-3.597-1.494-3.674-1.505-.077-.011-.038-.157-.054-.234l-.05-.25c.207-.349.402-.712.576-1.088l.158-.336a4.727 4.727 0 002.719-.849 3.73 3.73 0 001.326-2.653 5.79 5.79 0 00-.647-2.946c-.488-1-1.201-2.028-.956-3.11.107-.467.386-.876.543-1.331a3.536 3.536 0 00-.397-2.621c-.423-.804-1.006-1.512-1.472-2.29-.6-1-1-2.108-1.175-3.261a5.067 5.067 0 00-.43-1.761 3.353 3.353 0 00-.973-.984 9.7 9.7 0 00-5.98-1.805c-1.511.049-3.017.457-4.517.272a15.834 15.834 0 01-2.632-.69c-.914-.267-1.898-.46-2.855-.46-.988 0-1.948.205-2.772.747zm-7.41 65.488l-.512-.125 4.115-6.258.011.006c.05.321.577 3.724 1.05 4.62.136.6.178 1.216.124 1.828-2.234-.18-4.56-.277-4.56-.277a.534.534 0 01.119.288l-.348-.082zm-1.6 9.916c-.33-.712-10.15-4.132-10.15-4.132s-.357-.19-.977-.49l2.587.49.706-.07a38.37 38.37 0 004.893.896v-.01l3.87.609.322.054a13.81 13.81 0 00-.201 1.828c0 .053.093.124.212.206a4.88 4.88 0 00-.07.913c.06.304 1.87.968 3.941 1.517a4.124 4.124 0 01-.087.315c-1.833-.962-4.713-1.414-5.045-2.126z" id="a"/><path id="c" d="M0 403.856h538.895V.753H0z"/></defs><g fill="none" fill-rule="evenodd"><path d="M488.293 20.927v328.82c0 9.785-9.433 17.728-21.083 17.728H21.077C9.432 367.475 0 359.522 0 349.747V20.927C0 11.142 9.432 1.144 21.077 1.144l446.111 1.087c11.645-.005 21.105 8.9 21.105 18.696" fill="#F8F8F8"/><path d="M488.293 17.664V30.31H0V17.664C0 8.54 8.901 1.144 19.88 1.144h448.51c10.983-.007 19.894 7.384 19.903 16.51v.01z" fill="#3D484E"/><path d="M417.57 328.735H195.84c-5.04 0-9.165-4.125-9.165-9.165V225.2c0-5.04 4.124-9.164 9.165-9.164h221.732c5.04 0 9.165 4.124 9.165 9.164v94.369c0 5.04-4.124 9.165-9.165 9.165" fill="#FCD7D2"/><path d="M20.888 11.67a4.257 4.257 0 11.001 8.514 4.257 4.257 0 01-.001-8.515" fill="#E56146"/><path d="M33.282 11.67a4.257 4.257 0 110 8.513 4.257 4.257 0 010-8.514" fill="#F3F3F3"/><path d="M45.672 11.67a4.258 4.258 0 110 8.515 4.258 4.258 0 010-8.516" fill="#7A98A4"/><g transform="translate(441.61 288.696)"><mask id="b" fill="#ffffff"><use xlink:href="#a"/></mask><path d="M42.52 1.035c-1.62 1.066-2.263 3.16-3.36 4.795-.973 1.452-2.393 2.664-3.132 4.197V9.94c-.18.356-.32.732-.413 1.119a7.997 7.997 0 00.245 3.664c.084.636.405 1.219.897 1.632.543.347 1.298.266 1.94.38 0 .104-.054.206-.076.315-1.375 6.463 2.453 12.898 8.79 14.771v.338c0 .317-.02.635-.06.95 0 0-5.572-1.146-7.066-.37-1.495.779-4.436 1.382-4.893 1.828-.457.445-1.555.108-2.555 2.718-1.001 2.61-1.087 5.257-2.382 6.475-1.293 1.217-1.94 2.044-1.995 2.93-.054.886.163 1.088-.337 1.38-.5.294-1.218 1.442-.995 1.881a1.58 1.58 0 01-.609 1.664c-.527.37-.823.988-.777 1.631 0 0-.331 1.219-1.086 1.495-.756.277-1.278 2.099-1.278 2.099l-2.511 2.892-4.986-5.513a2.11 2.11 0 00-2.97-.152l-2.445 2.174A4.86 4.86 0 008.019 57.7a6.404 6.404 0 00-1.271 1.885L5.41 60.793a3.403 3.403 0 00-.343 3.762l3.192 3.528v.033a5.636 5.636 0 00-3.023 1.31C.468 73.63.408 77.506 1.13 79.272c.725 1.768 6.764 8.58 6.764 8.58s3.512 4.56 8.58 6.99l-.04.039a6.197 6.197 0 00-.298.348l-.081.104a1.151 1.151 0 01-.077.107l-.087.132-.07.109-.098.162-.06.103-.114.218s-.026.044-.038.07c-.01.028-.092.196-.136.299-.017.036-.03.077-.043.114-.034.071-.06.148-.087.219l-.05.146c0 .071-.049.14-.07.212l-.05.158-.065.245c0 .048-.026.097-.043.146-.016.05-.06.26-.087.397a1.514 1.514 0 01-.027.158l-.049.288c0 .064 0 .13-.027.2l-.032.273v1.266c-.116 6.476.265 7.416.265 7.416a3.592 3.592 0 002.943 2.207c.317.023.637.007.95-.05 2.881-.5 9.645-1.663 12.031-1.218 1.434.267 4.09-.129 5.98-.482l.5-.098.348 1.086 1.087-.299.936.544c.244.147.446.26.587.337 1.088 3.714 5.535 2.446 5.535 2.446l1.054.61 10.699.277a21.694 21.694 0 003.805 1.816c.177.053.36.095.543.12.994.078 1.991.096 2.985.054.822 0 1.452-.054 1.452-.054s-.109-2.908-.262-6.16a87.106 87.106 0 009.912-.81c5.714-1.006 8.1-6.203 8.976-8.98.258 1.134.439 2.285.543 3.445.235 1.014.53 2.013.886 2.99.313.787.725 1.53 1.223 2.213 4.213-1.44 1.664-3.598.778-4.54-.887-.94.61-1.712.61-1.712s1.162-.777 1.053-1.494c-.109-.719-.168-1.495 3.605-1.436 3.773.06 3.511-3.098 3.511-3.098L85.413 78.287s-.223-4.257-1-5.25c-.778-.995-.164-3.215-.164-3.215s.832-1.217.109-1.326c-.723-.108-.109-2.82-.109-2.82l-.06-4.317s.67-4.149.115-5.143c-.33-.55-.309-1.24.054-1.768 0 0 .663-2.38 0-2.989s-.5-4.317-.332-7.248c.17-2.93-1.163-4.587-1.163-5.034 0-.445-4.381-4.757-4.381-5.142 0-.387-2.773-1.995-4.437-2.436-1.663-.44-2.495-.772-2.441-.994.056-.223-2.603-1.088-2.603-1.088s-2.333-.164-3.22-1.327c-.885-1.164-3.597-1.494-3.674-1.505-.077-.011-.038-.157-.054-.234l-.05-.25c.207-.349.402-.712.576-1.088l.158-.336a4.727 4.727 0 002.719-.849 3.73 3.73 0 001.326-2.653 5.79 5.79 0 00-.647-2.946c-.488-1-1.201-2.028-.956-3.11.107-.467.386-.876.543-1.331a3.536 3.536 0 00-.397-2.621c-.423-.804-1.006-1.512-1.472-2.29-.6-1-1-2.108-1.175-3.261a5.067 5.067 0 00-.43-1.761 3.353 3.353 0 00-.973-.984 9.7 9.7 0 00-5.98-1.805c-1.511.049-3.017.457-4.517.272a15.834 15.834 0 01-2.632-.69c-.914-.267-1.898-.46-2.855-.46-.988 0-1.948.205-2.772.747zm-7.41 65.488l-.512-.125 4.115-6.258.011.006c.05.321.577 3.724 1.05 4.62.136.6.178 1.216.124 1.828-2.234-.18-4.56-.277-4.56-.277a.534.534 0 01.119.288l-.348-.082zm-1.6 9.916c-.33-.712-10.15-4.132-10.15-4.132s-.357-.19-.977-.49l2.587.49.706-.07a38.37 38.37 0 004.893.896v-.01l3.87.609.322.054a13.81 13.81 0 00-.201 1.828c0 .053.093.124.212.206a4.88 4.88 0 00-.07.913c.06.304 1.87.968 3.941 1.517a4.124 4.124 0 01-.087.315c-1.833-.962-4.713-1.414-5.045-2.126z" mask="url(#b)"/></g><g transform="translate(0 .391)"><path d="M526.267 386.191s-1.538 9.291-9.344 10.66c-7.808 1.371-33.853 1.089-33.853 1.089s-14.89-2.175-20.279-14.734c-5.387-12.558-8.845-17.58-4.23-17.804 4.616-.223 29.51 8.41 30.94 8.52 1.43.108 38.143-19.11 36.766 12.27" fill="#64627B"/><path d="M526.267 386.191s-1.538 9.291-9.344 10.66c-7.808 1.371-33.853 1.089-33.853 1.089s-14.89-2.175-20.279-14.734c-5.387-12.558-8.845-17.58-4.23-17.804 4.616-.223 29.51 8.41 30.94 8.52 1.43.108 38.143-19.11 36.766 12.27" fill="#9E9E9E"/><path d="M456.409 396.526a3.561 3.561 0 002.914 2.175c.314.023.63.007.94-.05 2.86-.494 9.563-1.63 11.928-1.206 1.419.26 4.05-.13 5.92-.484a55.43 55.43 0 002.174-.451s-2.2-7.313-2.473-7.53c-.271-.218-9.894-5.98-9.894-5.98l-7.611-.544a4.039 4.039 0 00-2.583 1.517c-.804.973-1.495 2.572-1.538 5.186-.153 6.432.223 7.367.223 7.367" fill="#333"/><path d="M456.409 396.526a3.561 3.561 0 002.914 2.175 30.642 30.642 0 01-2.067-3.018l.038-5.327a9.397 9.397 0 012.99-7.916s-4.011.272-4.12 6.703c-.109 6.431.245 7.383.245 7.383" fill="#759AA6"/><path d="M489.447 384.876l7.066-5.551 11.156-10.992s-1.201-.06-3.022-.137c-.451.289-1.718 1.197-1.767 2.295-.055 1.342-3.012.092-4.551.864-1.539.772-9.068 10.405-10.388 10.329-1.321-.076-2.365-.668-2.914.266l-.039.061 4.459 2.865zM457.68 383.99l.773.353c5.382 2.305 12.03 7.143 12.503 8.024.306.544 4.16 2.87 7.134 4.626 1.244-.233 2.173-.45 2.173-.45s-2.2-7.313-2.473-7.53c-.271-.217-9.894-5.98-9.894-5.98l-7.611-.545a4.038 4.038 0 00-2.604 1.501" fill="#000"/><path d="M442.73 368.224c.718 1.756 6.71 8.518 6.71 8.518s3.805 4.943 9.176 7.253c5.372 2.31 12.037 7.143 12.531 8.024.316.543 4.61 3.147 7.612 4.925l.678.397 1.501.87.794.457 3.67-2.963c1.81-1.468 3.61-2.947 3.637-3.028.054-.164.771-2.033.603-2.142-.081-.06-.462-.816-1.158-1.702a7.722 7.722 0 00-2.8-2.31 7.977 7.977 0 01-3.626-3.806s-.239-.173-.603-.402a7.315 7.315 0 00-2.473-1.088c-1.208-.152-3.459-2.626-3.459-2.626a6.767 6.767 0 01-2.147-2.25c-.576-1.207-9.1-7.067-9.888-7.611l20.658 13.27 4.941 3.176 7.068-5.551 11.16-10.987s-1.5-.077-3.685-.17c-5.436-.233-15.048-.602-16.266-.325-.99.23-2.011.295-3.022.195 0 0-2.719.126-4.562-.837-1.843-.962-4.67-1.402-5.002-2.114-.331-.713-10.057-4.116-10.057-4.116s-13.243-7.034-17.972-2.86c-4.731 4.176-4.731 8.04-4.018 9.803" fill="#9E9E9E"/><path d="M485.445 327.885l1.701 5.66 2.175 12.748 8.078.544 2.339-3.876 2.331-3.872s1.458-5.153 2.501-10.133c.925-4.415 1.528-8.698.544-9.155-.891-.413-1.478-1.898-1.86-3.496-.048-.196-.092-.397-.13-.597a30.932 30.932 0 01-.543-4.1s-16.929-.875-14.564 6.105c.422 1.191.637 2.445.636 3.708-.001.316-.02.632-.055.946a7.917 7.917 0 01-3.153 5.518" fill="#F7BAB8"/><path d="M481.917 326.95l.603 9.617 1.375 8.188 1.54 3.805 1.375 20.751s13.248 1.533 16.472-.027a1.43 1.43 0 00.581-.457c3.872-5.893 2.621-22.892 2.621-22.892l1.484-10.988-.99-5.709-2.392-.25-1.842-.2s-.414.51-1.01 1.305c-1.632 2.173-4.628 6.381-4.426 8.154.271 2.42-.332 4.893-1.268 5.28-.934.385-1.701 1.043-1.87.38a2.996 2.996 0 01-.163-1.757c.163-.935-.711-3.805-.711-3.805s-1.485-3.349-1.377-4.779c.109-1.43-.162-3.076-.603-3.463-.44-.386-1.043-.772-.543-2.528.5-1.757-2.175-5.18-2.175-5.18l-6.681 4.555z" fill="#E9E9E9"/><path d="M499.422 350.968l.544 16.435 3.175 1.756c.23-.095.432-.252.58-.452 3.894-5.882 2.616-22.903 2.616-22.903l1.484-10.993-.988-5.703-2.387-.256c.923-4.408 1.527-8.698.543-9.155-.892-.413-1.479-1.896-1.859-3.489l-1.712 11.623s.14 1.049.19 2.131a5.97 5.97 0 01-.137 2.044c-.385.99-.108 2.75-.108 2.75-.994 1.745-1.49 4.98-1.729 8.1-.336 4.165-.212 8.112-.212 8.112" fill="#000"/><path d="M503.162 315.941s2.772.348 3.648 1.501c.876 1.152 3.192 1.32 3.192 1.32s2.637.876 2.582 1.088c-.054.212.766.544 2.42.989 1.652.446 4.392 2.034 4.392 2.42 0 .385 4.35 4.67 4.35 5.11 0 .44 1.32 2.088 1.151 5.002-.168 2.913-.326 6.594.332 7.197.658.603 0 2.97 0 2.97-.36.523-.38 1.209-.055 1.755.545.989-.107 5.11-.107 5.11l.053 4.289s-.602 2.718.11 2.8c.712.082-.11 1.32-.11 1.32s-.602 2.176.163 3.187c.766 1.011.99 5.224.99 5.224l11.76 17.092s.168 3.132-3.573 3.078c-3.74-.055-3.68.711-3.572 1.43.11.717-1.044 1.478-1.044 1.478s-1.484.772-.603 1.707c.88.936 3.409 3.078-.772 4.506a10.073 10.073 0 01-1.207-2.173 25.018 25.018 0 01-.88-2.963s-.386-4.18-1.153-4.73c-.766-.55-.642-3.202-.642-3.202s1.088-2.142-.44-3.023c-1.527-.88-23.855-13.244-23.855-13.244l-.544-16.433s-.38-12.145 1.925-16.213c0 0-.272-1.76.108-2.75s-.053-4.175-.053-4.175l1.434-11.667z" fill="#333"/><path d="M488.761 322.557s-5.524-1.136-7.007-.37c-1.484.767-4.398 1.376-4.839 1.816-.44.44-1.538.109-2.528 2.719s-1.087 5.225-2.365 6.43c-1.278 1.207-1.918 2.035-1.973 2.916-.054.88.163 1.086-.332 1.375-.494.288-1.213 1.424-.99 1.865.223.44 11.417 10.11 11.417 10.11s.544 3.687 1.044 4.616c.5.93-.543 13.799-1.631 14.68-1.087.88 7.42.792 7.42.792s.387-8.437.719-8.872c.332-.435-.223-9.453-.223-9.453s-.054-7.693.658-9.732c.711-2.039.636-8.79.636-8.79s.63-4.057 1.397-5.003c.766-.945-1.403-5.099-1.403-5.099" fill="#000"/><path d="M488.598 322.372s-5.53-1.141-7.013-.37c-1.484.773-4.392 1.376-4.833 1.816-.44.44-1.538.11-2.528 2.691-.99 2.584-1.087 5.22-2.365 6.432-1.278 1.212-1.924 2.033-1.978 2.908-.055.876.168 1.087-.327 1.376-.494.288-1.212 1.43-.989 1.87.222.44 11.443 10.101 11.443 10.101s.544 3.68 1.045 4.615c.5.936-.545 13.793-1.632 14.679-1.086.886 7.389.821 7.389.821s.385-8.437.713-8.878c.324-.44-.219-9.454-.219-9.454s-.054-7.692.658-9.726c.713-2.033.636-8.79.636-8.79s.63-4.056 1.397-5.002c.768-.946-1.397-5.089-1.397-5.089" fill="#333"/><path d="M488.016 317.719c.423 1.19.639 2.445.637 3.708a12.603 12.603 0 0014.466-5.714 30.743 30.743 0 01-.543-4.099s-16.924-.875-14.56 6.105" fill="#000"/><path d="M479.666 309.031c.008 6.942 5.643 12.562 12.585 12.554 6.94-.008 12.562-5.642 12.554-12.583a12.57 12.57 0 00-25.139.03" fill="#F7BAB8"/><path d="M471.587 338.16l-2.995.935a1.569 1.569 0 01-.609 1.631c-.521.373-.812.99-.766 1.63 0 0-.332 1.213-1.088 1.485-.755.272-1.267 2.093-1.267 2.093l-2.527 2.908s-.936.772-.766 1.16c.168.385-.991.493-.991.493l.604 9.786 5.22.99 3.26-.333 2.638-.99 2.305-1.369 1.05-2.718 4.614-7.035-8.682-10.666z" fill="#333"/><path d="M461.307 351.294s-6.703-9.671-11.705-4.452c-5.001 5.219 2.033 13.684 3.68 13.412 1.648-.271 9.51-.73 9.51-.73l-1.485-8.23z" fill="#E4929D"/><path d="M447.393 331.97l29.765 15.192c.412.21.576.715.365 1.126l-11.626 22.778a.837.837 0 01-1.127.365l-29.764-15.192a.837.837 0 01-.365-1.126l11.626-22.778a.836.836 0 011.126-.365" fill="#759AA6"/><path fill="#E56245" d="M448.044 335.063l26.274 13.41-10.106 19.8-26.273-13.41z"/><path d="M442.007 343.939a.483.483 0 11.001.967.483.483 0 010-.967M470.446 358.193a.799.799 0 110 1.598.799.799 0 010-1.598" fill="#E5E7EB"/><path d="M456.969 353.328c-.055 7.258 14.945 8.79 14.945 8.79l3.805.61 1.719.272.717-7.068s-.788-.115-1.772-.342c-1.452-.344-3.333-.925-3.724-1.746-.636-1.386-15.636-7.768-15.69-.516" fill="#F7BAB8"/><path d="M479.938 306.417c.346.025.67.171.919.413.429.45.45 1.244 1 1.522.206.093.436.12.657.076 1.463-.207 2.306-1.854 3.708-2.31a3.8 3.8 0 012.464.212c.313.104.593.291.81.543.472.609.14 1.506.358 2.24.304 1.022 1.522 1.425 2.576 1.56 1.055.136 2.246.207 2.947 1 .477.601.675 1.376.544 2.132a1.675 1.675 0 000 .783c.294.826 1.718.7 2.093.053.273-.472.185-.87.826-1 .463-.036.926.044 1.35.235a9.829 9.829 0 003.478.543c2.95-6.293.243-13.787-6.05-16.739-6.294-2.951-13.788-.242-16.74 6.051-.407.869-.713 1.78-.914 2.718l-.026-.032z" fill="#000"/><path d="M495.894 314.24a1.67 1.67 0 010-.789 2.677 2.677 0 00-.544-2.125c-.7-.8-1.892-.876-2.946-1.006-1.055-.13-2.273-.543-2.577-1.56-.217-.734.113-1.632-.36-2.235a1.73 1.73 0 00-.81-.543 3.72 3.72 0 00-2.462-.213c-1.403.452-2.245 2.105-3.707 2.311-.223.038-.45.011-.658-.076-.544-.278-.577-1.088-1-1.528-.665-.707-1.93-.25-2.751-.771a2.552 2.552 0 01-.887-1.632 7.997 7.997 0 01-.245-3.642c.478-2.044 2.306-3.447 3.475-5.192 1.087-1.63 1.695-3.686 3.332-4.763 1.636-1.075 3.729-.832 5.572-.287.85.3 1.723.529 2.61.684 1.49.186 2.98-.222 4.474-.271a9.626 9.626 0 015.91 1.794c.386.255.713.588.963.978.247.552.392 1.142.429 1.746a8.943 8.943 0 001.157 3.218c.463.771 1.044 1.473 1.464 2.272a3.52 3.52 0 01.39 2.604c-.141.452-.418.86-.544 1.322-.245 1.086.463 2.098.946 3.087.465.905.686 1.914.642 2.93a3.692 3.692 0 01-1.321 2.638 4.71 4.71 0 01-2.784.842 9.834 9.834 0 01-3.55-.544 2.8 2.8 0 00-1.342-.233c-.642.136-.544.543-.831 1-.328.69-1.752.805-2.045-.016" fill="#333"/><path d="M489.115 385.202l7.067-5.551 11.161-10.987s-1.5-.076-3.686-.17c-.43.393-.706.925-.777 1.502-.055 1.343-3.012.093-4.551.865-1.539.77-9.068 10.405-10.388 10.328-1.322-.075-2.365-.668-2.914.267l-.039.06a1.566 1.566 0 01-.836.5l4.963 3.186z" fill="#000"/><path d="M474.828 384.821l3.55 11.368.543 1.79 1.697-.469 3.74-1.027 16.657-4.572a14.495 14.495 0 005.98-1.631 18.167 18.167 0 0110.33-2.256c2.174.205 4.647-.745 6.68-4.497 0 0 4.617-13.629-7.034-17.533-11.65-3.903-12.21 2.077-12.21 2.077l-.158.098c-.452.289-1.718 1.196-1.767 2.294-.054 1.343-3.012.093-4.55.865-1.54.772-9.068 10.405-10.39 10.329-1.32-.076-2.364-.668-2.914.266l-.037.061c-.408.543-1.632.69-2.442.717h-.76l-.103.032-.85.25-5.962 1.838z" fill="#9E9E9E"/><path d="M475.746 362.727l1.719.273.717-7.068s-.788-.115-1.772-.343c.26.968-.326 4.79-.664 7.138" fill="#000"/><path d="M520.554 328.489s5.11-1.484 3.844 13.048c-1.268 14.53-10.716 23.685-10.716 23.685s-10.873 4.779-15.766 4.012c-4.892-.766-8.465-.934-8.465-.934a12.363 12.363 0 00-4.947-1.322c-2.718-.108-8.519-1.81-8.627-2.364-.11-.554 1.43-8.628.772-9.242 0 0 7.693.316 8.46.875.766.56 1.868.158 2.717 0 .848-.158 3.35-2.359 8.35-.435 0 0 1.708.164 2.366-.277a2.377 2.377 0 011.717-.108 4.783 4.783 0 001.197-.604c.162-.218 1.484 0 1.484 0a.582.582 0 00.82-.386c.175-.45.438-.86.772-1.207 0 0 1.484-8.356 4.285-11.487a1.79 1.79 0 00.608-1.593c-.25-.891 4.534-13.423 11.129-11.661" fill="#333"/><path d="M480.856 383.01l7.264 8.786.044-.05c.053-.167.766-2.038.603-2.147-.164-.108-1.43-2.859-3.958-4.012a7.459 7.459 0 01-3.105-2.827l-.848.25z" fill="#000"/><path d="M480.96 398.211l.794.457 3.669-2.963c1.81-1.468 3.61-2.946 3.638-3.028.054-.163.771-2.034.603-2.142-.081-.06-.462-.815-1.158-1.702-4.893-1.375-1.784 2.039-1.37 2.175 0 0-5.98-1.376-6.318 5.148a7.744 7.744 0 00.142 2.055" fill="#000"/><path d="M487.027 400.978l1.043.603 10.607.273c1.191.724 2.45 1.33 3.757 1.81.178.053.36.091.544.114.984.08 1.97.098 2.957.055.81 0 1.44-.055 1.44-.055s-.505-13.373-.88-14.781c-.185-.674-1.087-.544-1.947-.19-.659.267-1.295.589-1.902.962 0 0-4.507.435-5.22.826-.711.391-2.75-.223-4.012 0-1.26.223-3.517-1.49-3.517-1.49-6.153-2.033-2.718 1.762-2.256 1.925 0 0-5.98-1.376-6.317 5.148-.337 6.523 5.703 4.8 5.703 4.8" fill="#333"/><path d="M502.358 395.808c.119 2.772 2.278 6.21 3.566 8.025.81 0 1.44-.055 1.44-.055s-.504-13.373-.88-14.781c-.185-.674-1.087-.544-1.947-.19-1.065 1.995-2.238 4.773-2.179 7.001" fill="#545583"/><path d="M502.358 395.808c.119 2.772 2.278 6.21 3.566 8.025.81 0 1.44-.055 1.44-.055s-.504-13.373-.88-14.781c-.185-.674-1.087-.544-1.947-.19-1.065 1.995-2.238 4.773-2.179 7.001" fill="#000"/><path d="M500.548 396.178c.728 2.675.723 5.67 1.886 7.486.177.053.36.092.544.114.983.08 1.97.098 2.957.055.81 0 1.44-.055 1.44-.055s-.505-13.373-.88-14.781c-.185-.674-1.087-.544-1.946-.19-.66.267-1.296.589-1.903.962 0 0-3.033 2.984-2.098 6.409" fill="#759AA6"/><path d="M463.955 369.061s5.267 1.713 9.731 7.79l-9.731-7.79z" fill="#000"/><g fill="#000"><path d="M506.767 303.117l-.032.119c-.052.156-.114.31-.186.457.056-.198.13-.391.218-.576M476.959 300.453a5.12 5.12 0 01.407-1.087c0 .091-.054.184-.075.282a7.86 7.86 0 00.243 3.648c.078.637.395 1.22.887 1.631.816.544 2.082.071 2.751.777.424.446.446 1.245 1 1.523.207.09.436.116.658.075 1.457-.206 2.304-1.859 3.708-2.31a3.696 3.696 0 012.458.212c.314.105.596.293.814.543.468.61.142 1.501.36 2.24.298 1.018 1.516 1.425 2.57 1.555 1.055.13 2.246.212 2.953 1.006.471.6.668 1.373.543 2.126-.065.258-.065.53 0 .788.289.827 1.713.701 2.088.05.271-.475.19-.866.832-.996a2.67 2.67 0 011.342.234c1.142.394 2.344.578 3.55.544a4.776 4.776 0 002.79-.848c.355-.281.647-.636.853-1.039a3.492 3.492 0 01-1.185 1.865 4.717 4.717 0 01-2.783.842 9.826 9.826 0 01-3.55-.543 2.817 2.817 0 00-1.349-.234c-.642.136-.543.544-.831 1-.37.653-1.794.772-2.088-.048-.06-.26-.06-.53 0-.788a2.658 2.658 0 00-.544-2.126c-.701-.8-1.892-.876-2.947-1.007-1.055-.13-2.272-.543-2.576-1.559-.218-.735.114-1.631-.36-2.234a1.763 1.763 0 00-.81-.545 3.716 3.716 0 00-2.462-.212c-1.402.451-2.251 2.104-3.708 2.311-.221.038-.45.012-.657-.076-.544-.277-.577-1.087-1-1.528-.67-.707-1.93-.25-2.752-.772a2.523 2.523 0 01-.886-1.63 7.913 7.913 0 01-.244-3.67"/></g><path d="M507.62 344.44c-1.011 1.358-2.175 2.615-3.05 4.055a7.692 7.692 0 00-1.336 4.795c.923-.946 1.348-2.25 1.929-3.436.984-2.011 2.452-3.714 3.696-5.561.235-.354 1.752-2.392.984-2.485-.635-.081-1.88 2.169-2.223 2.631" fill="#000"/><mask id="d" fill="#ffffff"><use xlink:href="#c"/></mask><path fill="#DEE2ED" mask="url(#d)" d="M286.203 176.21h6.182v-69.463h-6.182z"/><path d="M417.61 190.126H195.879c-5.04 0-9.164-4.125-9.164-9.166V86.593c0-5.04 4.124-9.165 9.164-9.165h221.733c5.04 0 9.165 4.124 9.165 9.165v94.367c0 5.041-4.124 9.166-9.165 9.166" fill="#FCD7D2" mask="url(#d)"/><path d="M264.43 156.036h3.887c.634 0 1.147.514 1.147 1.147v18.42c0 .633-.513 1.146-1.147 1.146h-3.887a1.145 1.145 0 01-1.146-1.147v-18.42c0-.632.512-1.146 1.146-1.146M276.2 130.392h3.887c.633 0 1.147.514 1.147 1.148v44.063c0 .633-.514 1.146-1.147 1.146H276.2a1.145 1.145 0 01-1.146-1.146V131.54c0-.634.512-1.148 1.146-1.148M299.75 90.804h3.888c.634 0 1.147.514 1.147 1.147v83.652c0 .633-.513 1.146-1.147 1.146h-3.887a1.145 1.145 0 01-1.147-1.146V91.95c0-.633.513-1.147 1.147-1.147" fill="#ffffff" mask="url(#d)"/><path d="M287.975 90.804h3.888c.634 0 1.146.514 1.146 1.147v83.652c0 .633-.512 1.146-1.146 1.146h-3.888a1.145 1.145 0 01-1.146-1.146V91.95c0-.633.513-1.147 1.146-1.147M311.521 129.506h3.886c.634 0 1.148.514 1.148 1.147v44.95c0 .633-.514 1.147-1.148 1.147h-3.886a1.147 1.147 0 01-1.148-1.148v-44.95c0-.632.514-1.146 1.148-1.146" fill="#E56245" mask="url(#d)"/><path d="M323.296 117.296h3.887c.633 0 1.147.514 1.147 1.148v57.158c0 .634-.514 1.148-1.147 1.148h-3.887a1.146 1.146 0 01-1.146-1.148v-57.158c0-.634.512-1.148 1.146-1.148" fill="#F9B6AF" mask="url(#d)"/><path d="M335.066 98.752h3.888c.633 0 1.146.514 1.146 1.147v75.704c0 .633-.513 1.146-1.146 1.146h-3.888a1.146 1.146 0 01-1.146-1.146V99.899c0-.633.512-1.147 1.146-1.147" fill="#E56245" mask="url(#d)"/><path d="M346.841 142.016h3.888c.634 0 1.146.513 1.146 1.146v32.44c0 .634-.512 1.148-1.146 1.148h-3.888a1.146 1.146 0 01-1.146-1.148v-32.44c0-.633.512-1.146 1.146-1.146" fill="#F9B6AF" mask="url(#d)"/><path d="M358.617 125.978h3.887c.633 0 1.147.514 1.147 1.146v48.478c0 .634-.514 1.148-1.147 1.148h-3.887a1.147 1.147 0 01-1.147-1.148v-48.478c0-.632.513-1.146 1.147-1.146" fill="#E56245" mask="url(#d)"/><path d="M370.387 107.288h3.887c.634 0 1.147.513 1.147 1.146v67.168c0 .634-.513 1.148-1.147 1.148h-3.887a1.146 1.146 0 01-1.146-1.148v-67.168c0-.633.512-1.146 1.146-1.146" fill="#F9B6AF" mask="url(#d)"/><path d="M382.162 107.288h3.888c.634 0 1.146.513 1.146 1.146v67.168c0 .634-.512 1.148-1.146 1.148h-3.888a1.146 1.146 0 01-1.146-1.148v-67.168c0-.633.512-1.146 1.146-1.146M227.44 125.978h3.887c.634 0 1.147.514 1.147 1.146v48.478c0 .634-.513 1.148-1.147 1.148h-3.887a1.146 1.146 0 01-1.146-1.148v-48.478c0-.632.512-1.146 1.146-1.146" fill="#E56245" mask="url(#d)"/><path d="M239.21 142.019h3.887c.634 0 1.146.513 1.146 1.146v32.438c0 .632-.512 1.146-1.146 1.146h-3.887a1.146 1.146 0 01-1.147-1.146v-32.438c0-.633.513-1.146 1.147-1.146" fill="#F9B6AF" mask="url(#d)"/><path d="M250.985 107.288h3.887c.634 0 1.147.513 1.147 1.146v67.168c0 .634-.513 1.148-1.147 1.148h-3.887a1.147 1.147 0 01-1.147-1.148v-67.168c0-.633.514-1.146 1.147-1.146" fill="#E56245" mask="url(#d)"/><path fill="#DEE2ED" mask="url(#d)" d="M286.203 314.964h6.182v-69.462h-6.182z"/><path d="M263.801 294.251h3.894c.632 0 1.144.513 1.144 1.144v18.426c0 .631-.512 1.144-1.144 1.144H263.8a1.144 1.144 0 01-1.144-1.144v-18.426c0-.631.513-1.144 1.144-1.144M275.572 268.608h3.893c.632 0 1.144.512 1.144 1.144v44.068c0 .633-.512 1.144-1.144 1.144h-3.893a1.144 1.144 0 01-1.144-1.144v-44.068c0-.632.512-1.144 1.144-1.144M299.122 229.02h3.894c.631 0 1.144.512 1.144 1.143v83.658c0 .631-.513 1.144-1.144 1.144h-3.894a1.144 1.144 0 01-1.144-1.144v-83.658c0-.631.513-1.144 1.144-1.144" fill="#ffffff" mask="url(#d)"/><path d="M287.347 229.02h3.893c.632 0 1.144.512 1.144 1.143v83.658c0 .631-.512 1.144-1.144 1.144h-3.893a1.144 1.144 0 01-1.144-1.144v-83.658c0-.631.513-1.144 1.144-1.144M310.893 267.721h3.893c.631 0 1.144.513 1.144 1.144v44.955c0 .632-.513 1.144-1.144 1.144h-3.893a1.144 1.144 0 01-1.145-1.144v-44.955c0-.631.513-1.144 1.145-1.144" fill="#E56245" mask="url(#d)"/><path d="M322.668 255.511h3.893c.632 0 1.144.513 1.144 1.144v57.166c0 .631-.512 1.144-1.144 1.144h-3.893a1.144 1.144 0 01-1.144-1.144v-57.166c0-.631.512-1.144 1.144-1.144M334.438 236.967h3.893c.631 0 1.144.513 1.144 1.144v75.709c0 .633-.513 1.144-1.144 1.144h-3.893a1.144 1.144 0 01-1.145-1.144v-75.709c0-.631.513-1.144 1.145-1.144" fill="#ffffff" mask="url(#d)"/><path d="M346.213 280.23h3.893c.633 0 1.144.513 1.144 1.145v32.446c0 .631-.511 1.144-1.144 1.144h-3.893a1.144 1.144 0 01-1.144-1.144v-32.446c0-.632.512-1.144 1.144-1.144M357.989 264.193h3.893c.632 0 1.144.513 1.144 1.144v48.483c0 .632-.512 1.144-1.144 1.144h-3.893a1.144 1.144 0 01-1.144-1.144v-48.483c0-.631.512-1.144 1.144-1.144" fill="#F9B6AF" mask="url(#d)"/><path d="M227.437 255.511h3.893c.632 0 1.144.513 1.144 1.144v57.166c0 .631-.512 1.144-1.144 1.144h-3.893a1.144 1.144 0 01-1.144-1.144v-57.166c0-.631.512-1.144 1.144-1.144" fill="#ffffff" mask="url(#d)"/><path d="M239.207 280.23h3.893c.632 0 1.144.513 1.144 1.145v32.446c0 .631-.512 1.144-1.144 1.144h-3.893a1.144 1.144 0 01-1.144-1.144v-32.446c0-.632.512-1.144 1.144-1.144M250.982 264.193h3.893c.633 0 1.144.513 1.144 1.144v48.483c0 .632-.511 1.144-1.144 1.144h-3.893a1.144 1.144 0 01-1.144-1.144v-48.483c0-.631.513-1.144 1.144-1.144M369.758 245.503h3.894c.631 0 1.144.512 1.144 1.144v67.174c0 .631-.513 1.144-1.144 1.144h-3.894a1.144 1.144 0 01-1.144-1.144v-67.174c0-.632.513-1.144 1.144-1.144M381.534 245.503h3.893c.631 0 1.144.512 1.144 1.144v67.174c0 .631-.513 1.144-1.144 1.144h-3.893a1.144 1.144 0 01-1.144-1.144v-67.174c0-.632.512-1.144 1.144-1.144" fill="#F9B6AF" mask="url(#d)"/><path d="M101.729 136.83h-1.977a1.17 1.17 0 00-1.168 1.18v1.95c0 .66.521 1.181 1.168 1.181h1.977a1.17 1.17 0 001.168-1.181v-1.95a1.17 1.17 0 00-1.168-1.18M111.056 147.815c-.262.056-.524.11-.772.194-.04 0-.08.025-.123.054-.22.082-.453.165-.658.275-.042.028-.07.028-.11.054-.233.137-.453.276-.661.413-.039.054-.095.082-.137.11a5.21 5.21 0 00-.588.52c0 .028-.014.028-.014.028-.18.194-.343.385-.51.576a.348.348 0 01-.095.139 5.46 5.46 0 00-.4.658c-.028.056-.038.084-.067.138a7.15 7.15 0 00-.276.66c-.014.025-.027.083-.042.11-.081.247-.135.52-.191.796 0 0 0 .029-.014.054h4.52c.124 0 .219-.082.219-.19l-.029-4.617s-.027 0-.052.028M75.417 136.83h-1.98c-.644 0-1.167.522-1.167 1.18v1.95c0 .66.523 1.181 1.168 1.181h1.979a1.17 1.17 0 001.168-1.181v-1.95c0-.658-.524-1.18-1.168-1.18M68.63 151.607a6.845 6.845 0 00-.287-.661c-.028-.054-.042-.082-.056-.135-.135-.22-.274-.442-.425-.66-.028-.054-.067-.083-.096-.139a5.171 5.171 0 00-1.138-1.125.38.38 0 00-.138-.11 3.05 3.05 0 00-.672-.411.217.217 0 00-.113-.055 6.12 6.12 0 00-.687-.302c-.025 0-.067-.028-.108-.028-.262-.08-.522-.166-.783-.194-.027-.025-.056-.025-.081-.025v4.641c0 .11.081.191.205.191h4.616v-.081c-.057-.248-.113-.522-.195-.769-.014-.056-.028-.085-.042-.137M64.909 129.99c.042 0 .085-.026.11-.026.233-.085.467-.195.686-.304a.228.228 0 00.112-.053c.245-.11.467-.248.672-.414a.358.358 0 00.138-.11c.425-.3.81-.714 1.14-1.125.027-.056.067-.084.095-.138.152-.219.29-.438.425-.66a.559.559 0 01.055-.135c.111-.22.206-.442.288-.69a.356.356 0 00.042-.11c.081-.244.138-.492.194-.766v-.083h-4.615c-.125 0-.206.083-.206.191v4.642c.025-.027.054-.027.081-.027.262-.054.521-.108.783-.193M110.918 125.377h-4.52c.014.025.014.025.014.08.056.25.11.496.191.768a.598.598 0 01.043.11c.08.222.18.442.274.662.029.052.04.08.068.137.11.22.248.44.4.658a.379.379 0 01.095.138c.167.191.33.41.51.577l.014.028c.176.163.382.357.587.52.042.028.098.057.138.084.209.164.427.301.66.44.04 0 .07.027.11.052.206.11.44.195.66.276.04.029.08.057.123.057.247.082.509.163.771.191.025.028.081.028.081.028v-4.615c0-.11-.096-.191-.22-.191" fill="#D8D8D8" mask="url(#d)"/><path d="M104.75 139.96a3.02 3.02 0 01-3.022 3.02h-1.977a3.02 3.02 0 01-3.02-3.02v-1.95c0-1.676 1.358-3.049 3.02-3.049h1.977c1.664 0 3.022 1.373 3.022 3.049v1.95zm-17.166-1.896c3.296 0 4.478 2.143 4.478 4.148 0 1.978-1.525 3.654-3.558 4.065v.934c0 .495-.414.933-.92.933-.509 0-.92-.438-.92-.933v-.934c-2.033-.41-3.558-2.087-3.558-4.065 0-.523.411-.933.92-.933.523 0 .934.41.934.933 0 1.263 1.182 2.307 2.624 2.307 1.44 0 2.621-1.044 2.621-2.307 0-1.538-.877-2.305-2.62-2.305-3.297 0-4.479-2.144-4.479-4.15 0-2.005 1.525-3.653 3.558-4.063v-.935a.92.92 0 01.92-.933c.506 0 .92.41.92.933v.935c2.033.41 3.558 2.058 3.558 4.063a.924.924 0 01-.922.935.926.926 0 01-.935-.935c0-1.262-1.18-2.305-2.62-2.305-1.443 0-2.625 1.043-2.625 2.305 0 1.51.88 2.307 2.624 2.307zm-9.147 1.895a3.021 3.021 0 01-3.02 3.022h-1.98a3.022 3.022 0 01-3.02-3.022v-1.95c0-1.675 1.36-3.048 3.02-3.048h1.98c1.66 0 3.02 1.373 3.02 3.049v1.95zm32.067-8.018c-.233-.056-.453-.109-.672-.166-.068-.028-.138-.054-.205-.081-.152-.057-.304-.11-.442-.166-.08-.054-.163-.082-.244-.139-.139-.054-.262-.108-.386-.162a1.075 1.075 0 00-.247-.139 1.83 1.83 0 00-.358-.218c-.068-.057-.151-.111-.219-.166-.123-.082-.248-.164-.358-.274a.892.892 0 01-.18-.138c-.177-.165-.343-.303-.52-.466 0 0 0-.028-.014-.028-.152-.166-.29-.33-.424-.467-.043-.081-.099-.138-.139-.192-.095-.109-.18-.247-.274-.357-.04-.084-.096-.137-.139-.219-.08-.138-.148-.248-.22-.385-.052-.085-.094-.137-.137-.22-.067-.137-.123-.276-.192-.413-.027-.081-.066-.138-.095-.22-.07-.165-.123-.329-.18-.495-.014-.053-.04-.11-.053-.162a8.084 8.084 0 01-.18-.687c0-.028-.015-.084-.025-.138a3.98 3.98 0 01-.07-.467H70.744c-.01.164-.054.33-.082.493 0 .055-.013.084-.013.137-.054.22-.11.467-.178.687a1.01 1.01 0 00-.07.193c-.053.164-.11.301-.177.467-.028.082-.07.164-.096.248-.07.137-.137.247-.194.382-.04.085-.095.166-.135.249-.07.108-.151.247-.222.357-.054.083-.095.165-.149.218-.085.138-.18.277-.276.386-.053.057-.096.11-.137.165a8.356 8.356 0 01-.974.988c-.056.056-.113.084-.18.138-.124.081-.247.191-.371.275-.081.054-.149.082-.22.138-.123.081-.247.164-.385.245-.067.028-.149.085-.219.112-.138.081-.273.135-.41.192a.818.818 0 01-.234.11l-.482.165c-.056.026-.11.054-.18.082-.219.053-.452.11-.686.163-.027 0-.053.028-.095.028l-.535.085v13.815c.177.025.358.053.535.082.042 0 .068.028.095.028.234.053.467.11.687.163.07.029.123.056.18.056.163.054.329.139.481.191.081.029.163.081.234.11.137.056.272.11.41.195.07.025.152.08.219.108.138.083.262.164.385.249.071.053.139.082.22.135.124.084.247.194.37.275.068.056.125.081.181.138.355.3.672.63.974.987.041.056.084.11.137.167.096.137.191.247.276.384.054.054.095.139.149.191.07.139.152.276.222.386.04.082.096.164.135.248.057.137.124.247.194.382.025.084.068.166.096.247.068.166.124.305.178.467.013.056.04.139.07.195.067.218.123.466.177.686 0 .054.013.081.013.137.028.164.071.33.082.492h33.785a5.66 5.66 0 01.071-.492c.01-.028.025-.056.025-.11.056-.247.109-.466.18-.688.014-.054.039-.11.054-.164.056-.166.108-.328.18-.494.028-.081.067-.138.094-.22.069-.138.125-.275.192-.413.043-.053.085-.163.138-.22.07-.134.138-.248.22-.383.042-.056.098-.137.138-.222.095-.11.18-.243.274-.354.04-.055.096-.137.139-.194.135-.163.272-.3.424-.438l.029-.057c.162-.162.328-.328.506-.467.057-.053.123-.08.18-.135.109-.112.234-.194.357-.275.068-.056.151-.11.219-.166.124-.054.248-.138.358-.22.081-.054.166-.081.247-.137.124-.054.247-.11.386-.191.08-.029.163-.058.244-.11.138-.056.29-.11.442-.166.067-.025.137-.054.205-.054.22-.081.44-.138.672-.194.042-.025.082-.025.124-.025.166-.028.33-.085.51-.085V132.05c-.18 0-.344-.056-.51-.084-.042 0-.082-.025-.124-.025z" fill="#D8D8D8" mask="url(#d)"/><path d="M112.977 131.198v21.204c0 1.126-.92 2.059-2.06 2.059H64.251a2.067 2.067 0 01-2.062-2.058V125.568c0-1.125.923-2.06 2.062-2.06h46.666c1.14 0 2.06.935 2.06 2.06v5.63zm-1.975-8.68h-46.84a2.897 2.897 0 00-2.896 2.897v27.14c0 1.6 1.297 2.897 2.897 2.897h46.839c1.6 0 2.897-1.297 2.897-2.897v-27.14c0-1.6-1.296-2.897-2.897-2.897zM87.264 277.452a.876.876 0 01-.567.236.77.77 0 01-.31-.068.776.776 0 01-.214-.135c-.014-.011-.03-.021-.044-.033l-.039-.048a.797.797 0 01.601-1.32c.205 0 .389.08.53.206.013.01.03.015.043.025.143.14.226.353.226.567a.818.818 0 01-.226.57zm-.567 6.557H67.749c-.438 0-.794-.381-.794-.806 0-.45.356-.804.794-.804h18.948c.44 0 .793.354.793.804 0 .425-.354.806-.793.806zm-19.648-7.48a.791.791 0 01.7-.452h11.373c.44 0 .793.357.793.805 0 .451-.354.806-.793.806H67.749a.714.714 0 01-.308-.071.788.788 0 01-.427-.427.973.973 0 01-.07-.308c0-.119.046-.238.105-.353zm15.86-.452c.438 0 .795.357.795.805 0 .451-.357.806-.795.806a.807.807 0 010-1.611zm-20.113-4.646v14.71a2.526 2.526 0 002.523 2.523h44.544a2.526 2.526 0 002.524-2.524v-14.71h-49.59zM112.387 261.183v-3.335a2.526 2.526 0 00-2.524-2.523H65.319a2.525 2.525 0 00-2.523 2.523v3.335h49.59z" fill="#D8D8D8" mask="url(#d)"/><path fill="#D8D8D8" mask="url(#d)" d="M62.796 271.431h.607v-10.248h-.607zM111.78 271.431h.606v-10.248h-.606z"/></g></g></svg>