<svg xmlns="http://www.w3.org/2000/svg" viewBox="0 0 1920 1192" enable-background="new 0 0 1920 1192"><g transform="translate(0 60)"><defs><filter id="a" filterUnits="userSpaceOnUse"><feColorMatrix values="1 0 0 0 0 0 1 0 0 0 0 0 1 0 0 0 0 0 1 0"/></filter></defs><mask maskUnits="userSpaceOnUse" id="b"><g filter="url(#a)"><path fill-rule="evenodd" clip-rule="evenodd" fill="#ffffff" d="M0 0h1920v893H0z"/></g></mask></g><path d="M1888.9-.5H-.5V1193.6H1920.8V-.5h-31.9zm30.6 1v18.9L1886.8.6l.3-.2h32.4zm-35 0l.3.2-16.5 9.6-26.6 15.6L1798 .7l.4-.2h86.1zm-1.5 152.8l-21.5 12.6-21.5 12.6-42.2-24.3 21.5-12.6 21.5-12.6 21.1 12.1 21.1 12.2zm7 157l-21.7 12.7-21.7 12.7-22.2-12.7-22.2-12.7 21.7-12.7 21.7-12.7 22.2 12.7 22.2 12.7zm1.9 52.6l-21.6 12.6-21.6 12.6-22.7-13-22.7-13 21.6-12.6 21.6-12.6 22.7 13 22.7 13zm.2 101.7l-21.3 12.5-21.3 12.5-36.8-21.1-6.6-3.8 21.3-12.5 21.3-12.5 37.7 21.7 5.7 3.2zm.9 51l-21.2 12.4-21.2 12.4-21.7-12.5-21.7-12.5 21.1-12.4 21.1-12.4 36.4 20.9 7.2 4.1zm1 50.8l-21.4 12.5-21.4 12.5-36-20.7-7.4-4.2 21.4-12.5 21.4-12.5 21.7 12.5 21.7 12.4zm.5 51.1l-22 12.9-22 12.9-42.5-24.4-.9-.5 22-12.9 22-12.9 35.9 20.6 7.5 4.3zm-.1 52.2l-21.6 12.6-21.6 12.6-43.9-25.2 21.6-12.6 21.6-12.6 43.7 25.1.2.1zm-.4 51l-21.6 12.6-21.6 12.6-42.8-24.6 21.6-12.6 21.6-12.6 42.1 24.2.7.4zm7.9 255.3l-21.3 12.5-21.3 12.5-45.2-26 21.3-12.4 21.3-12.4 44.7 25.7.5.1zm.7 50.9l-21.3 12.4-21.3 12.4-43.2-24.8 21.3-12.5 21.3-12.5 42.4 24.4.8.6zm-85.9 153.2l-22.1-12.7-22.1-12.7 21.7-12.7 21.7-12.7 22.1 12.7 22.1 12.7-21.7 12.7-21.7 12.7zm-88.4-.8l-37.4-21.5-5.3-3 21.1-12.3 21.1-12.3 21.3 12.3 21.3 12.3-21.1 12.3-21 12.2zm-176.3 1.4l-22.7-13.1-22.7-13.1 21.6-12.6 21.6-12.6 45.5 26.1-21.6 12.6-21.7 12.7zm-90.5-.9l-4.7-2.7-40.8-23.4 6.6-3.9 36.5-21.3 22.8 13.1 22.7 13.1-34.8 20.3-8.3 4.8zm-90.7-.9l-.2-.1-42.5-24.4 21.6-12.6 21.6-12.6 2.9 1.6 39.8 22.9-21.6 12.6-21.6 12.6zm-261.8.8l-38.2-21.9-4.6-2.6 43.4-25.4 24.1 13.8 18.7 10.7-21.7 12.7-21.7 12.7zm-176 .2l-21.7-12.5-21.7-12.5 21.4-12.5 21.4-12.5 32.2 18.4 11.3 6.5-21.4 12.5-21.5 12.6zm-88.6.4l-21.7-12.5-21.7-12.5 21.6-12.6 21.6-12.6 21.7 12.5 21.7 12.5-21.6 12.6-21.6 12.6zm-88.6.3l-21.7-12.5-21.7-12.5 32.6-19 10.5-6.1 21.7 12.5 21.7 12.5-9.8 5.7-33.3 19.4zm-88.7.4l-21.7-12.5-21.7-12.5 21.7-12.7 21.7-12.7 21.7 12.5 21.7 12.5-21.7 12.7-21.7 12.7zm-175.9.8l-22.6-13-22.6-13 21.2-12.4 21.2-12.4 22.6 13 22.6 13-21.2 12.4-21.2 12.4zm-90.8-.5l-22.2-12.8-22.2-12.8 33.4-19.5 10.3-6 22.2 12.8 22.2 12.8-9.6 5.6-34.1 19.9zm-352.5-5L26.5 1164l-21.4-12.3 9.9-5.8 32.8-19.2 21.4 12.3 21.4 12.3-32.1 18.7-10.6 6.3zM5 1101.1l31.9-18.6 11-6.4 21.4 12.3 21.4 12.3-10.5 6.1-32.4 18.9-21.4-12.3L5 1101.1zM2.9 998.9l8.9-5.2 29.9-17.5 21.7 12.5 21.7 12.5-19.4 11.3-19.4 11.3-21.7-12.5-21.7-12.4zm39.9-74.8l10.9-6.4 31.6-18.5 21.7 12.5 21.7 12.5-32.3 18.9-10.2 6-21.7-12.5-21.7-12.5zm-1.1-102.4L63.5 809l21.8-12.8 21.7 12.5 21.7 12.5-21.8 12.8-21.8 12.8-21.7-12.5-21.7-12.6zm.2-51.6l32.3-18.9 10.3-6 21.7 12.5 21.7 12.5-10.7 6.3-31.9 18.6-21.7-12.5-21.7-12.5zM40 718.6L61.5 706 83 693.4l22.2 12.7 22.2 12.7-21.5 12.6L84.4 744l-22.2-12.7L40 718.6zm-3.6-154.1l21.7-12.7 21.7-12.7 21.2 12.1 21.2 12.1-21.7 12.7-21.7 12.7-21.2-12.1-21.2-12.1zm.5-51l20.6-12.1 20.6-12.1 21.4 12.3 21.4 12.3-20.6 12.1-20.6 12-21.4-12.3-21.4-12.2zm-2.8-255.9L55.7 245l21.6-12.7 22 12.6 22 12.6-21.6 12.7-21.6 12.7-22-12.6-22-12.7zm-.1-51.4l32.2-18.8 10.4-6.1 21.7 12.5 21.7 12.5-10.4 6.1-32.2 18.8-21.7-12.5L34 206.2zM290.5 4.7l21.7 12.5 21.7 12.5-19.2 11.2-19.2 11.2-21.7-12.5-21.7-12.5 19.2-11.2 19.2-11.2zm88.7-.3l21.7 12.5 21.7 12.5L401 41.9l-21.6 12.6L357.7 42 336 29.5 357.5 17l21.7-12.6zm88.6-.4l22 12.6 22 12.6-21.6 12.6-21.6 12.6-22-12.6-22-12.6 21.6-12.6L467.8 4zM557 4l21.9 12.6 21.9 12.6-21.6 12.6-21.6 12.6-21.9-12.6-21.9-12.6 21.6-12.6L557 4zm265.5-2.1l22 12.6 22 12.6-22 12.8-22 12.8-22-12.6-22-12.6 22-12.8 22-12.8zm176 0l36.5 21 5.9 3.4-20.9 12.2-20.9 12.2-42.3-24.3 35.7-20.9 6-3.6zm86.9-.6l39.5 22.7 5.6 3.2-21.3 12.5-21.3 12.5-37.7-21.7-7.3-4.2 21.3-12.5 21.2-12.5zm179.1 1.3l22.2 12.7 22.2 12.7-21.6 12.7-21.6 12.7-22.2-12.7-22.2-12.7 21.6-12.7 21.6-12.7zm89.7.1l21.7 12.5 21.7 12.5-21.6 12.6-21.7 12.7-21.7-12.5-21.7-12.5 21.7-12.7 21.6-12.6zm265.5-.7l21.7 12.5 21.7 12.5-21.5 12.6-21.6 12.5-43.4-24.9 21.5-12.6L1619.7 2zm220.1 126.5l-21.5 12.6-21.5 12.6-42.8-24.6 21.5-12.6 21.5-12.6 21.4 12.3 21.4 12.3zm5.8 207.8l-21.6 12.6-21.6 12.6-22.2-12.7-22.2-12.7 21.6-12.6 21.6-12.6 22.2 12.7 22.2 12.7zm2.1 52.4l-21.2 12.4-21.2 12.4-45.3-26 42.5-24.8 22.7 13 22.5 13zm.9 101.4l-21.1 12.4-21.1 12.4-21.7-12.5-21.7-12.5 21.1-12.4 21.1-12.4 36.8 21.1 6.6 3.9zm1.1 50.9l-21.4 12.5-21.4 12.5-36.4-20.9-7-4 42.9-25.1 21.7 12.5 21.6 12.5zm.5 51.1l-22 12.9-22 12.9-42.9-24.7-.4-.2 22-12.9 22-12.9 36 20.7 7.3 4.2zm-.7 51.8l-21.6 12.6-21.6 12.6-43-24.7-.4-.2 21.6-12.6 21.6-12.6 42.5 24.4.9.5zm-.2 153.6l-21.6 12.6-21.6 12.6-41.3-23.7-1.5-.9 21.6-12.6 21.6-12.6 42.2 24.3.6.3zm6.5 151.9l-21.3 12.4-21.3 12.4-44.7-25.7-.8-.5 21.3-12.4 21.3-12.4 45.5 26.2zm-84.4 204.7l-21.3-12.3-21.3-12.3 21.7-12.7 21.7-12.7 21.3 12.3 21.3 12.3-21.7 12.7-21.7 12.7zm-86.8.1l-37.5-21.5-5.6-3.2 21.1-12.3 21.1-12.3 21.5 12.4 21.5 12.4-21.1 12.3-21 12.2zm-179.1-.2l-22.8-13.1-22.7-13.1 21.6-12.6 21.6-12.6 45.5 26.1-21.6 12.6-21.6 12.7zm-90.5-1l-2.9-1.6-39.8-22.9 43.1-25.2 35.3 20.3 7.3 4.2-36 21.1-7 4.1zm-131.7 26.3l-42.8-24.6 21.4-12.5 21.4-12.5 42.8 24.6-42.8 25zm-394.7-24.9l-21.7-12.5-21.7-12.5 42.8-25 31 17.8 12.5 7.1-21.4 12.5-21.5 12.6zm-88.7.4l-21.7-12.5-21.7-12.5 21.6-12.6 21.6-12.6 21.7 12.5 21.7 12.5-21.6 12.6-21.6 12.6zm-88.5.3l-21.7-12.5-21.7-12.5 32.9-19.2 10.2-5.9 21.7 12.5 21.7 12.5-9.7 5.7-33.4 19.4zm-88.8.4l-21.3-12.2-21.3-12.2 29.5-17.3 13.8-8.1 21.3 12.2 21.3 12.2-21.7 12.7-21.6 12.7zm-177.6-.3l-22.2-12.8-22.2-12.8 21.2-12.4 21.2-12.4 22.2 12.8 22.2 12.8-21.2 12.4-21.2 12.4zm-90 0l-8.1-4.6-40-23 43.6-25.5 20.4 11.7 27.7 15.9-10 5.8-33.6 19.7zm-176-4.9l-21.4-12.3-21.4-12.3 10.7-6.3 31.6-18.5 21.4 12.3 21.4 12.3-7 4.1-35.3 20.7zm-87.5.5l-21.4-12.3-21.4-12.3 32.1-18.8 10.7-6.3 21.4 12.3 21.4 12.3-10.4 6.1-32.4 19zm-42.7-75.3l10.2-6 32.1-18.8 21.4 12.3 21.4 12.3-32.4 19-9.9 5.8-21.4-12.3-21.4-12.3zm-1.5-51.1l19.4-11.3 19.4-11.3 21.9 12.6 21.9 12.6-19.4 11.3-19.4 11.3-21.9-12.6-21.9-12.6zm39-125.8l21.6-12.6 21.6-12.6 21.7 12.5 21.7 12.5-21.6 12.6-21.6 12.7-21.7-12.6-21.7-12.5zm-.2-51.3l21.8-12.8 21.8-12.8 21.7 12.5 21.7 12.5-21.8 12.8-21.8 12.8-21.7-12.5-21.7-12.5zm.2-51.7l31.2-18.2 11.4-6.6 21.7 12.5 21.7 12.5-9.9 5.8-32.7 19.1-21.7-12.6-21.7-12.5zm-.9-50.9l21.5-12.6 21.5-12.6 21.7 12.5 21.7 12.5-21.4 12.5-21.5 12.6-21.7-12.5-21.8-12.4zm-4.7-206.1l20.6-12.1 20.6-12.1 21.2 12.1 21.2 12.1-20.6 12.1-20.7 12.2-21.2-12.1-21.1-12.2zM78.8 437l21.6-12.6 21.6-12.6 21.9 12.6 21.9 12.6-21.6 12.6-21.6 12.6-21.9-12.6L78.8 437zm.3-153.6l21.6-12.7 21.6-12.7 21.9 12.6 21.9 12.6-21.5 12.8-21.6 12.7-22-12.7-21.9-12.6zm-.7-51.7l32.5-19 10.1-5.9 22 12.6 22 12.6-12.1 7.1-30.6 17.9-22-12.6-21.9-12.7zm-.9-51L99.3 168l21.8-12.7 21.7 12.5 21.7 12.5-21.8 12.7-21.7 12.7-21.7-12.5-21.8-12.5zm173.6-153l21.7 12.5 21.7 12.5-21.3 12.4L252 77.6l-21.7-12.5-21.7-12.5 21.3-12.4 21.2-12.5zm83.8 2.5l21.7 12.5 21.7 12.5-19.2 11.2L340 77.6l-21.7-12.5-21.7-12.5 19.2-11.2 19.1-11.2zm88.7-.3l22 12.6 22 12.6L446 67.7l-21.6 12.6-22-12.6-22-12.6L402 42.5l21.6-12.6zm89.2-.1l21.9 12.6L556.6 55 535 67.7l-21.6 12.6-21.9-12.6-21.9-12.6 21.6-12.6 21.6-12.7zm264.8-1.6l22 12.6 22 12.6L799.9 66l-21.6 12.6-22-12.6-22-12.6L756 40.8l21.6-12.6zm89.8-.5L888.8 40l21.4 12.3-22 12.8-22 12.8-21.4-12.3-21.4-12.3 22-12.8 22-12.8zm174.4-.9l37.7 21.7 7.3 4.2-21 12.3-21 12.3-22.5-12.9-22.5-12.9 20.9-12.2 21.1-12.5zm89.7 1l38.1 21.9 6.3 3.6-21.3 12.5-21.3 12.5-38-21.8-6.4-3.7 21.3-12.5 21.3-12.5zm178.4.9l21.7 12.5 21.7 12.5-21.6 12.7-21.7 12.5-21.7-12.5-21.7-12.4 21.6-12.7 21.7-12.6zm88.7-.5l21.7 12.5 21.7 12.5-21.7 12.7-21.7 12.7-21.6-12.5-21.7-12.5 21.7-12.7 21.6-12.7zm265.5-.7l21.7 12.5 21.7 12.5L1686 65l-21.5 12.6-43.5-24.9 21.5-12.6 21.6-12.6zm132 75.8l-21.5 12.6-21.5 12.6-42.8-24.6 21.5-12.6 21.5-12.6 21.4 12.3 21.4 12.3zm4.1 206.9l-21.6 12.6-21.6 12.6-27.7-15.9-19.4-11.1 21.6-12.6 21.6-12.6 11.8 6.8 35.3 20.2zm5.6 256.4l-22 12.9-22 12.9-43.4-24.9 22-12.9 22-12.9 36.4 20.9 7 4zm-.7 51.8l-21.6 12.6-21.6 12.6-42.4-24.4-.9-.5 21.6-12.6 21.6-12.6 42.9 24.7.4.2zm.2 51.3l-21.6 12.6L1762 695l-43.2-24.8-.1-.1 21.6-12.6 21.6-12.6 43 24.7.4.1zm.6 51.7l-21.6 12.6-21.6 12.6-43.9-25.2 21.6-12.6 21.6-12.6 42.5 24.4 1.4.8zm-.4 51l-21.6 12.6-21.6 12.6-42.6-24.5-.2-.1 21.6-12.6 21.6-12.6 42.3 24.3.5.3zm6.7 202.5l-21.3 12.4-21.3 12.4-44.2-25.4-1.3-.8 21.3-12.4 21.3-12.4 44.7 25.7.8.5zm2.6 52.1l-20.7 12.1-20.7 12.1-45.3-26 8-4.7 33.4-19.5 44.1 25.3 1.2.7zm-87 102l-21.5-12.4-21.5-12.4 21.7-12.7 21.7-12.7 21.6 12.4 21.6 12.4-21.7 12.7-21.9 12.7zm-87.2-.1l-40.7-23.4-4.7-2.7 21.1-12.3 21.1-12.3 22.7 13 22.7 13-21.1 12.3-21.1 12.4zm-181.6-1.6l-7.7-4.4-34.9-20.1 43.2-25.2 42.4 24.4.2.1-21.6 12.6-21.6 12.6zm-175.8 1.3l-34.7-19.9-8.1-4.7 21.6-12.6 21.6-12.6 35.4 20.3 7.4 4.2-21.6 12.6-21.6 12.7zm-87.5.4l-21.4-12.3-21.4-12.3 21.4-12.5 21.4-12.5 34.6 19.9 8.2 4.7-21.4 12.5-21.4 12.5zm-86.2-.3l-21.9-12.6-21.9-12.6 20.7-12.1 20.7-12.1 21.9 12.6 21.9 12.6-20.7 12.1-20.7 12.1zm-354 .6l-21.7-12.5-21.7-12.5 21.6-12.6 21.6-12.6 21.7 12.5 21.7 12.5-21.6 12.6-21.6 12.6zm-88.5.2l-21.3-12.2-21.3-12.2 29.4-17.2 13.6-8 21.3 12.2 21.3 12.2-9.3 5.4-33.7 19.8zm-87.9.9l-22.6-13-22.6-13 21.7-12.7 21.7-12.7 22.6 13 22.6 13-21.7 12.7-21.7 12.7zm-90.7-.6l-22.2-12.8-22.2-12.8 10.8-6.3 32.6-19 22.2 12.7 22.2 12.7-32.4 18.9-11 6.6zm-243.6 8.1l-21.4-12.3 5.9-3.5 32.8-19.2 42.9 24.7-38.7 22.6-21.5-12.3zm-109.5-12.7l-21.4-12.3-21.4-12.3 10.2-5.9 32.2-18.8 21.4 12.3 21.4 12.3-31.8 18.6-10.6 6.1zm-43.2-75.1l19.4-11.3 19.4-11.3 21.4 12.3 21.4 12.3-19.4 11.3-19.4 11.3-21.4-12.3-21.4-12.3zm39.5-75l21.2-12.4 21.2-12.4 43.8 25.2-21.2 12.4-21.2 12.4-21.9-12.6-21.9-12.6zm-1.1-102.3l21.8-12.8 21.8-12.8 21.7 12.5 21.7 12.5-21.8 12.8-21.8 12.7-21.7-12.5-21.7-12.4zm.2-51.6l31.9-18.7 10.7-6.2 21.7 12.5 21.7 12.5-9.3 5.5-33.3 19.5-21.7-12.5-21.7-12.6zm-.9-51l21.5-12.6 21.5-12.6 21.7 12.5 21.7 12.5-21.5 12.6-21.5 12.6-21.7-12.5-21.7-12.5zM124 563.5l20.6-12.1 20.6-12.1 22.5 12.9 22.5 12.9-20.6 12.1-20.6 12.1-22.5-12.9-22.5-12.9zm-1-49.6l6.6-3.9 36.8-21.5 21.2 12.1 21.2 12.1-43.5 25.4-21.2-12.1-21.1-12.1zm.6-51.2l21.6-12.6 21.6-12.6 21.4 12.3 21.4 12.3-21.6 12.6-21.6 12.6-21.3-12.3-21.5-12.3zm-.6-51.6l10.5-6.2 33-19.3 43.8 25.2-21.7 12.7-21.7 12.7-21.9-12.6-22-12.5zm1.6-50.7l4.6-2.7 38.3-22.4 41.9 24.1-10.7 6.3-32.2 18.8-6.4-3.7-35.5-20.4zm-1.3-102.8l30.7-17.9 11.9-6.9 43.9 25.2-6.9 4-35.7 20.9-21.9-12.6-22-12.7zm-1.3-51.3l21.8-12.7 21.8-12.7 22 12.6 22 12.6-21.8 12.7-21.8 12.7-22-12.6-22-12.6zm85.5-153.1l21.7 12.5L251 78.2l-21.3 12.4-21.3 12.4-21.7-12.5L165 78l21.3-12.4 21.2-12.4zm88 0l21.7 12.5L339 78.2l-21.3 12.4-21.3 12.4-21.7-12.5L253 78.1l21.3-12.4 21.2-12.5zm83.9 2.5l22 12.6 22 12.6-19.2 11.2-19.2 11.2-22-12.6-22-12.6L360.2 67l19.2-11.3zm89.1 0l21.9 12.6 21.9 12.6-21.6 12.6-21.6 12.6-21.9-12.6L425.3 81l21.6-12.6 21.6-12.7zM733.4 54l22 12.6 22 12.6-21.6 12.6-21.6 12.6-22-12.6-22-12.6 21.6-12.6L733.4 54zm89.1 0l21.4 12.3 21.4 12.3-21.6 12.6-21.6 12.6-21.4-12.3-21.4-12.3 21.6-12.6L822.5 54zm88.8-1.1L932.4 65l21.2 12.2-22 12.8-22 12.8-21.2-12.2-21.2-12.2 22-12.8 22.1-12.7zm87.6-1l22.5 12.9 22.5 12.9-43.3 25.3-2.4-1.4-42.7-24.5 33.8-19.8 9.6-5.4zm89 1.3l38 21.8 6.4 3.7-21 12.3-21 12.3-22.2-12.8-22.1-12.8 21-12.3 20.9-12.2zm89 .6l37.9 21.7 6.5 3.7-21.3 12.6-21.3 12.5-37.5-21.5-6.9-4 21.3-12.5 21.3-12.5zm177.4.4l21.7 12.5 21.7 12.5-21.6 12.6-21.6 12.6-21.8-12.4-21.7-12.5 21.6-12.7 21.7-12.6zm88.8-.4l21.7 12.5 21.7 12.5-21.7 12.7-21.7 12.7-21.7-12.5-21.7-12.5 21.7-12.7 21.7-12.7zm265.4-.8l21.9 12.6 21.9 12.6-21.5 12.6-21.5 12.6-43.8-25.2 21.5-12.6 21.5-12.6zm49.4 334.5l-21.3 12.5-21.3 12.5-37.9-21.8-6.5-3.7 21.3-12.5 21.3-12.5 38.4 22.1 6 3.4zm3.5 153.6l-22 12.9-22 12.9L1674 542l22-12.9 22-12.9 41.7 24 1.7.9zm-.6 51.8l-21.6 12.6-21.6 12.6-43.4-24.9 21.6-12.6 21.6-12.6 43.4 24.9zm.1 51.4l-21.6 12.6-21.6 12.6-42.9-24.6-.5-.3 21.6-12.6 21.6-12.6 42.4 24.4 1 .5zm.1 51.3l-21.6 12.6-21.6 12.6-41.7-24-1.6-.9 21.6-12.6 21.6-12.6 43.2 24.8.1.1zm.3 102.7l-21.6 12.6-21.6 12.6-41.8-24-1-.6 21.6-12.6 21.6-12.6 42.6 24.5.2.1zm-.5 51l-19.2 11.2-19.2 11.2-42-24.1-.8-.4 19.2-11.2 19.2-11.2 42 24.1.8.4zm7.8 151.1l-33.1 19.3-8.4 4.9-45.5-26.1 5.9-3.4 35.6-20.8 44.2 25.4 1.3.7zm41.2 80.7l-37.7 22-21.6-12.4-21.6-12.4 22.2-13 22.2-13 43.2 24.8-6.7 4zm-126.1 22.6l-22.7-13-22.7-13 21.7-12.7 21.7-12.7 22.7 13 22.7 13-21.7 12.7-21.7 12.7zm-444.3-.3l-34.6-19.9-8.2-4.7 21.6-12.6 21.6-12.6 35.9 20.6 6.9 4-21.6 12.6-21.6 12.6zm-87.5.5l-21.9-12.6-21.9-12.6 21.4-12.5 21.4-12.5 35.5 20.4 8.3 4.8-21.4 12.5-21.4 12.5zm-87.2-1l-21.7-12.5-21.7-12.5 20.7-12.1 20.7-12.1 21.7 12.5 21.7 12.5-20.7 12.1-20.7 12.1zm-353.7.9l-21.3-12.2-21.3-12.2 21.6-12.6 21.6-12.6 21.3 12.2 21.3 12.2-21.6 12.6-21.6 12.6zm-178.2.1l-22.2-12.7-22.2-12.7 21.7-12.7 21.7-12.7 22.2 12.8 22.2 12.8-21.7 12.7-21.7 12.5zm-354.2-4l-21.4-12.3-21.4-12.3 19.4-11.3 19.4-11.3L196 1065l21.4 12.3-19.4 11.3-19.4 11.3zm-2.2-99l10.2-6 32.2-18.9 21.4 12.3 21.4 12.3-31.9 18.6-10.6 6.2-21.4-12.3-21.3-12.2zm-1.5-102.6l21.8-12.7 21.8-12.7 21.7 12.5 21.7 12.5-21.8 12.7-21.8 12.7-21.7-12.5-21.7-12.5zm.2-51.6l32.5-19 10.2-5.9 21.7 12.5 21.7 12.5-10.4 6.1-32.3 18.9-21.7-12.5-21.7-12.6zm-.8-51l21.5-12.6 21.5-12.6L239 783l21.7 12.5-21.4 12.5-21.5 12.6-21.8-12.5-21.7-12.4zm-49.5-179.3l39.2 22.5 5.2 3-42.7 25-44.4-25.5 42.7-25zm43.1-179.5l21.7-12.7 21.7-12.7 21.4 12.3 21.4 12.3-21.7 12.7-21.7 12.7-21.4-12.3-21.4-12.3zM252 78.7l21.7 12.5 21.7 12.5-21.3 12.4-21.3 12.4-21.7-12.5-21.7-12.5 21.3-12.4L252 78.7zm88 .1l22 12.6 22 12.6-21.3 12.4-21.3 12.4-22-12.6-22-12.6 21.3-12.4L340 78.8zm84.3 2.8l21.9 12.6 21.9 12.6L449 118l-19.2 11.2-21.9-12.6-22-12.6 19.2-11.2 19.2-11.2zm264.9-1.7l22 12.6 22 12.6-21.6 12.6-21.6 12.6-21.9-12.6-21.9-12.6 21.6-12.6 21.4-12.6zm89.1-.1l21.4 12.3 21.4 12.3-21.6 12.6-21.6 12.6-21.4-12.3-21.4-12.3 21.6-12.6 21.6-12.6zm88-.6l21.2 12.2 21.2 12.2-21.6 12.6-21.6 12.6-21.2-12.2-21.2-12.2 21.6-12.6 21.6-12.6zm88.3-1.4l30.9 17.8 14.1 8.1-43.9 25.7-22.5-12.9-22.5-12.9 22-12.8 21.9-13zm178.7 1.5l37.5 21.5 6.9 4-21 12.3-21 12.3-22.2-12.8-22.2-12.8 21-12.3 21-12.2zm89 .6l37.7 21.7 5.7 3.3-21.3 12.5-21.3 12.5-37.3-21.4-6.2-3.5 21.3-12.5 21.4-12.6zm176.4-.2l21.7 12.5 21.7 12.5-21.6 12.6-21.6 12.6-21.7-12.5-21.7-12.5 21.6-12.6 21.6-12.6zm88.8-.4l21.7 12.5 21.7 12.5-21.7 12.7-21.7 12.7-21.7-12.5-21.7-12.5 21.7-12.7 21.7-12.7zm177-.5l43.8 25.2-21.7 12.7-21.7 12.7-21.9-12.6-21.9-12.6 21.7-12.7 21.7-12.7zm79.7 198.1l-35.5-20.4 43.4-25.4 44.6 25.6-43.5 25.4-9-5.2zm-36.3 31.6l-21.2 12.4-21.2 12.4-44.4-25.5 21.2-12.4 21.2-12.4 36.3 20.8 8.1 4.7zm6.4 104.5l-21.1 12.3-21.1 12.3-22.2-12.8-22.2-12.8 21.1-12.3 21.1-12.3 37.9 21.8 6.5 3.8zm2.1 154.4l-21.6 12.6-21.6 12.6-42.3-24.3-1.1-.6 21.6-12.6 21.6-12.6 43.4 24.9zm.2 51.4l-21.6 12.6-21.6 12.6-43.4-24.9 21.6-12.6 21.6-12.6 43.4 24.9zm.1 51.3l-21.6 12.6-21.6 12.6-43.4-24.9 21.6-12.6 21.6-12.6 42.9 24.6.5.3zm.1 51.4l-21.6 12.6-21.6 12.6-43.4-24.9 21.6-12.6 21.6-12.6 41.7 24 1.7.9zm.3 102.6l-19.2 11.2-19.2 11.2-42.8-24.6 19.2-11.2 19.2-11.2 41.8 24 1 .6zm4.3 48.2l-21.3 12.4-21.3 12.4-42.8-24.6 21.3-12.4 21.3-12.4 42 24.1.8.5zm51 179.5l-22.2 13-22.2 13-22.7-13-22.7-13 35.9-21 8.5-5 16.3 9.3 29.1 16.7zm-135.1 25.2l-22.8-13.1-22.8-13.1 21.7-12.7 21.7-12.7 22.8 13.1 22.8 13.1-21.7 12.7-21.7 12.7zm-258.8 4l-6-3.5 21.6-12.6 21.6-12.6 43 24.7-43.2 25.2-37-21.2zm-94.9-3.4l-35.9-20.6-6.9-4 21.6-12.6 21.6-12.6 21.4 12.3 21.4 12.3-21.6 12.6-21.6 12.6zm-88 .7l-35.5-20.4-8.3-4.8 21.6-12.6 21.6-12.6 35.6 20.4 8.3 4.7-21.6 12.6-21.7 12.7zm-88.6-.1l-21.7-12.5-21.7-12.5 21.4-12.5 21.4-12.5 34.7 19.9 8.7 5-21.4 12.5-21.4 12.6zm-86.8-.8l-24.5-14.1-18.9-10.8 41.3-24.2 21.7 12.5 21.7 12.5-20.7 12.1-20.6 12zm-352.7 1.4l-22.6-13-22.6-13 21.6-12.6 21.6-12.6 22.6 13 22.6 13-21.6 12.6-21.6 12.6zm-90.3-.9l-22.2-12.8-22.2-12.8 32.6-19.1 10.4-6.1L598 1040l22.2 12.7-9.5 5.6-33.5 19.6zM262 1101.8l-42.7-24.6 33.4-19.5 10.2-5.9 21.4 12.3 21.4 12.3-21.8 12.8-21.9 12.6zm-41.8-75.8l10.3-6 32.1-18.8 42.8 24.6-21.2 12.4-21.2 12.4-21.4-12.3-21.4-12.3zm-.4-50.6l21.7-12.7 21.7-12.7 21.4 12.3 21.4 12.3-21.7 12.7-21.7 12.7-21.4-12.3-21.4-12.3zm-.4-51.6l21.8-12.7 21.8-12.7 21.9 12.6 21.9 12.6-21.8 12.7-21.9 12.7-21.9-12.6-21.8-12.6zm.1-51.6l31.6-18.5 11.1-6.5 21.7 12.5 21.7 12.5-9.5 5.6-33.1 19.4-21.7-12.5-21.8-12.5zm-.8-51l21.5-12.6 21.5-12.6 21.7 12.5 21.7 12.5-21.6 12.6-21.6 12.6-21.7-12.5-21.5-12.5zM173 693.5l21.3-12.5 21.3-12.5 38.2 21.9 5.2 3-42.7 24.9-31.1-17.8-12.2-7zm42.5-77.5l20.6-12.1 20.6-12.1 44.4 25.5-20.6 12.1-20.5 12-38.2-21.9-6.3-3.5zm-3.8-154l38.6-22.6 4.9-2.9 21.1 12.2 21.1 12.2-9.7 5.7-33.7 19.7-21.2-12.1-21.1-12.2zm-.3-102.6l21.6-12.7 21.6-12.7 21.9 12.6 21.9 12.6-21.6 12.8-21.6 12.7-21.9-12.7-21.9-12.6zm85-255.2l22 12.6 22 12.6-21.3 12.4-21.3 12.4-22-12.6-22-12.6 21.3-12.4 21.3-12.4zm88.5.4l21.9 12.6 21.9 12.6-21.3 12.5-21.3 12.4-21.9-12.6-21.9-12.6 21.3-12.4 21.3-12.5zm260.1 1.2l21.9 12.6 21.9 12.6-21.6 12.6-21.6 12.6-21.9-12.6-21.9-12.6 21.6-12.6 21.6-12.6zm89.1-.1l21.4 12.3 21.4 12.3-21.6 12.6-21.6 12.6-21.4-12.3-21.5-12.2 21.6-12.6 21.7-12.7zm88-.7l21.2 12.2 21.2 12.2-21.6 12.6-21.6 12.6-21.2-12.2-21.2-12.2 21.6-12.6 21.6-12.6zm87.6-1l22.5 12.9 22.5 12.9-21.6 12.6-21.6 12.6-22.5-12.7-22.5-12.9 21.6-12.6 21.6-12.8zm180.6.4l22.2 12.8 22.2 12.8-21.6 12.6-21.6 12.6-36.6-21-7.8-4.5 21.6-12.6 21.6-12.7zm88.4 1l37.3 21.4 6.2 3.5-21 12.3-21 12.3-21.7-12.5-21.7-12.5 21-12.3 20.9-12.2zm88 0l37.7 21.7 5.7 3.3-21.3 12.5-21.3 12.5-36.8-21.1-6.6-3.8 21.3-12.5 21.3-12.6zm176.5-.2l21.7 12.5 21.7 12.5-21.6 12.6-21.6 12.6-21.7-12.5-21.7-12.5 21.6-12.6 21.6-12.6zm88.8-.4l21.7 12.5 21.7 12.5-21.7 12.7-21.7 12.7-21.7-12.5-21.7-12.5 21.7-12.7 21.7-12.7zm132 75.8l-21.7 12.7-21.7 12.7-21.4-12.3-21.4-12.3 21.7-12.7 21.7-12.7 21.4 12.3 21.4 12.3zm-.6 51.1l-21.6 12.6-21.6 12.6-21.4-12.3-21.4-12.3 21.6-12.6 21.6-12.6 21.4 12.3 21.4 12.3zm-.9 50.7l-21.2 12.4-21.2 12.4-36.6-21-5.7-3.3 42.4-24.8 19.6 11.3 22.7 13zm9.4 259.5l-21.6 12.6-21.6 12.6-41.4-23.8-1.1-.6 21.6-12.6 21.6-12.6 41.9 24.1.6.3zm.2 51.4l-21.6 12.6-21.6 12.6-42.5-24.4-1-.5L1607 581l21.6-12.6 42.3 24.3 1.2.6zm.2 51.3l-21.6 12.6-21.6 12.6-43.4-24.9 21.6-12.6 21.6-12.6 43.4 24.9zm9.4 406.5l-22.8-13.1-22.8-13.1 37.5-21.9 6.9-4 45.5 26.1-8.1 4.8-36.2 21.2zm-90.9-.8l-8.4-4.8-34.2-19.6 21.7-12.7 21.7-12.7 42.4 24.4.2.1-21.7 12.7-21.7 12.6zm-263.1 1.5l-21.4-12.3-21.4-12.3 21.5-12.6 21.5-12.6 42.8 24.6-21.5 12.6-21.5 12.6zm-87.9.7l-35.6-20.4-8.3-4.7 21.6-12.6 21.6-12.6 21.9 12.6 21.9 12.6-21.6 12.6-21.5 12.5zm-89 .1l-34.7-19.9-8.7-5 21.6-12.6 21.6-12.6 36.2 20.8 7.2 4.1-21.6 12.6-21.6 12.6zm-88.3.1l-21.7-12.5-21.7-12.5 21.4-12.5 21.4-12.5 35.4 20.3 8 4.6-21.4 12.5-21.4 12.6zm-169.5 3.2l-5-2.9 21.7-12.7 21.7-12.7 38.2 21.9 5.2 3-43.4 25.4-38.4-22zm-271.8-3.7l-22.2-12.7-22.2-12.7 21.6-12.6 21.6-12.6 22.2 12.7 22.2 12.7-21.6 12.6-21.6 12.6zm-89.3-.4l-5.6-3.2-42.3-24.3 42.9-25.1 24 13.8 24 13.8-9.5 5.6-33.5 19.4zm-225.3 23.9l-21.4-12.3-21.4-12.3 21.2-12.4 21.2-12.4 42.7 24.5-21.2 12.4-21.1 12.5zm-42.5-126.2l21.8-12.7 21.8-12.7 21.4 12.3 21.4 12.3-21.8 12.7-21.8 12.7-21.4-12.3-21.4-12.3zm-.2-51.7l32.3-18.9 10.4-6.1 21.9 12.6 21.9 12.6-10.2 6-32.5 19-21.9-12.6-21.9-12.6zm-.7-51.1l21.6-12.6 21.6-12.6L328 834l21.7 12.5-21.5 12.5-21.6 12.6-21.7-12.5-21.7-12.4zM261 642l20.6-12.1 20.6-12.1 35.9 20.6 7.6 4.3-20.6 12.1-20.6 12.1-37.7-21.6-5.8-3.3zm-28.6-141.9l21.6-12.6 22.5 12.9 22.5 12.9-43.2 25.3-45-25.9 21.6-12.6zm23.8-114.9l21.6-12.7 21.6-12.7 21.4 12.3 21.4 12.3-21.7 12.7-21.5 12.7-21.4-12.3-21.4-12.3zm-.6-51.7l10.3-6 32.3-18.9 43.9 25.2-21.3 12.4-21.3 12.4-21.9-12.6-22-12.5zm.7-50.1l21.8-12.7 21.8-12.7 41.8 24.1-21.7 12.7-21.7 12.7-7.2-4.1-34.8-20zm85.1-153.3l21.9 12.6 21.9 12.6-21.3 12.4-21.3 12.4-21.9-12.6-21.9-12.5 21.3-12.4 21.3-12.5zm259.3 1.5l21.9 12.6 21.9 12.6-21.5 12.7-21.6 12.6-21.9-12.6-21.9-12.6 21.6-12.6 21.5-12.7zm89.2 0l21.4 12.3 21.4 12.3-21.6 12.6-21.6 12.6-21.5-12.3-21.4-12.3 21.6-12.6 21.7-12.6zm88-.7l21.2 12.2 21.2 12.2-21.6 12.6-21.7 12.6-21.2-12.2-21.2-12.2 21.6-12.6 21.7-12.6zm87.6-1l22.5 12.9 22.5 12.9-21.6 12.6-21.6 12.6-22.5-12.9-22.5-12.9 21.6-12.6 21.6-12.6zm90.2.6l44.4 25.5-10.9 6.4-32.3 18.9-22.2-12.8-22.2-12.8 21.6-12.6 21.6-12.6zm90.4-.2l42.3 24.3 2.1 1.2-22 12.8-22 12.8-43.8-25.2-.6-.3 22-12.8 22-12.8zm177 .6l36.8 21.1 6.6 3.8-21 12.3-21 12.3-21.7-12.5-21.7-12.5 21-12.3 21-12.2zm88 0l37.3 21.4 6.1 3.5-21.3 12.5-21.3 12.5-36.8-21.2-6.6-3.8 21.3-12.5 21.3-12.4zm176.5-.2l21.7 12.5 21.7 12.5-21.6 12.6-21.6 12.6-21.7-12.5-21.7-12.5 21.6-12.6 21.6-12.6zm88.8-.4l21.9 12.6 21.9 12.6-21.7 12.7-21.7 12.7-21.9-12.6-21.9-12.6 21.7-12.7 21.7-12.7zm43.2 76.2l-21.6 12.6-21.6 12.6-21.4-12.3-21.4-12.3 21.6-12.6 21.6-12.6 21.4 12.3 21.4 12.3zm-.6 101.3l-21.3 12.5-21.3 12.5-35.7-20.5-6.7-3.8 21.3-12.5 21.3-12.5 36.6 21 5.8 3.3zm8.7 260l-21.6 12.6-21.6 12.6-41.6-23.9-.8-.5 21.6-12.6 21.6-12.6 41.4 23.8 1 .6zm.2 51.3l-21.6 12.6-21.6 12.6-41.6-23.9-1.8-1 21.6-12.6 21.6-12.6 42.5 24.4.9.5zm.2 51.4l-21.6 12.6-21.6 12.6-43.4-24.9 21.6-12.6 21.6-12.6 43.4 24.9zm.1 51.3l-21.6 12.6L1585 747l-42.4-24.3-1-.6 21.6-12.6 21.6-12.6 41.9 24.1 1.5.8zm.2 51.4l-19.2 11.2-19.2 11.2-43.4-24.9 19.2-11.2 19.2-11.2 42.4 24.3 1 .6zm5.5 48.8l-21.3 12.4-21.3 12.4-42.6-24.5-1.3-.7 21.3-12.5 21.3-12.5 42.8 24.6 1.1.8zm.4 101.3l-20.7 12.1-20.7 12.1-31.5-18.1-11.4-6.4 20.7-12.1 20.7-12.1 41.7 24 1.2.5zm.9 101.1l-1.1-.6-41.5-23.8 44.4-26 42.6 24.4-6.5 3.8-37.9 22.2zm-351.3 2.3l-21.9-12.6-21.9-12.6 21.5-12.6 21.5-12.6 43.8 25.2-21.5 12.6-21.5 12.6zm-88.9 0l-36.2-20.8-7.2-4.1 21.6-12.6 21.6-12.6 21.7 12.5 21.7 12.5-21.6 12.6-21.6 12.5zm-88.6.4l-35.4-20.3-8-4.6 21.6-12.6 21.6-12.6 36.7 21.1 6.7 3.9-21.6 12.6-21.6 12.5zM887 1052.4l-39.3-22.6-4.1-2.4 21.7-12.7L887 1002l37.3 21.4 6.2 3.6-21.7 12.7-21.8 12.7zm-537-2.1l-42.7-24.5 21.7-12.7 21.7-12.7 21.3 12.3 21.3 12.3-6.7 3.9-36.6 21.4zm-42.1-75.6l21.8-12.7 21.8-12.7 21.4 12.3 21.4 12.3-21.8 12.7-21.8 12.7-21.4-12.3-21.4-12.3zm.8-51.2l31.8-18.6 10.9-6.4 21.4 12.3 21.4 12.3-10 5.9-32.7 19.1-21.4-12.3-21.4-12.3zm-1.1-51.3l21.6-12.6 21.6-12.6 21.9 12.6 21.9 12.6-21.6 12.5-21.6 12.6-21.9-12.6-21.9-12.5zM260.1 694l39.3 22.6 4.1 2.4-42.7 24.9-43.4-24.9 42.7-25zm45.3-26.5l20.6-12.1 20.6-12.1 36 20.7 7.4 4.3-20.6 12.1-20.6 12.1-37.3-21.5-6.1-3.5zm-6-206.6l10.1-5.9 32.8-19.2 22.5 12.9 22.5 12.9-32.5 19-10.4 6.1-22.4-12.9-22.6-12.9zm.6-50.5l21.7-12.7 21.7-12.7 21.2 12.2 21.2 12.2L364 422l-21.7 12.7-21.2-12.2-21.1-12.1zm.5-51.1l21.3-12.4 21.3-12.4 21.4 12.3 21.4 12.3-21.3 12.4-21.3 12.4-21.4-12.3-21.4-12.3zm256-201.8l21.9 12.6 21.9 12.6-19.2 11.2-19.1 11.3-21.9-12.6-22-12.6 19.2-11.2 19.2-11.3zm89.1-.1l21.4 12.3 21.4 12.3-21.6 12.6-21.6 12.6-21.4-12.2-21.4-12.3 21.6-12.6 21.6-12.7zm88.1-.7l21.2 12.2 21.2 12.2-21.6 12.6-21.6 12.6-21.2-12.2-21.2-12.1 21.6-12.6 21.6-12.7zm87.5-.9l22.5 12.9 22.5 12.9-21.6 12.6-21.6 12.6-22.5-12.8-22.5-12.9 21.6-12.6 21.6-12.7zm90.3.6l22.2 12.8 22.2 12.8-21.6 12.6-21.6 12.6-22.2-12.8-22.2-12.8 21.6-12.6 21.6-12.6zm89.6.2l43.8 25.2.6.3-21.6 12.6-21.6 12.6-35.5-20.4-8.9-5.1 32.5-19 10.7-6.2zm90.4-.2l36.4 20.9 7 4-22 12.9-22 12.9-43.2-24.8-.2-.1 22-12.8 22-13zm88.6-.4l21.7 12.5 21.7 12.5-21.6 12.6-21.6 12.6-36-20.7-7.4-4.2 21.6-12.6 21.6-12.7zm87.4.4l36.8 21.2 6.6 3.8-42 24.6-21.7-12.5-21.7-12.5 21-12.3 21-12.3zm88 0l37.7 21.7 5.7 3.3-21.3 12.5-21.3 12.5-43.4-24.9 21.3-12.5 21.3-12.6zm176.5-.2l21.9 12.6 21.9 12.6-21.6 12.6-21.6 12.6-21.9-12.6-21.9-12.6 21.6-12.6 21.6-12.6zm43.7 126.7l-21.3 12.5-21.3 12.5-36.4-20.9-6.4-3.7 21.3-12.5 21.3-12.5 36.4 20.9 6.4 3.7zm7.8 310.7l-21.6 12.6-21.6 12.6-42.5-24.4 21.6-12.6 21.6-12.6 41.6 23.9.9.5zm.2 51.4l-21.6 12.6-21.6 12.6-43.4-24.9 21.6-12.6 21.6-12.6 41.6 23.9 1.8 1zm.2 51.4l-21.6 12.6-21.6 12.6-43.4-24.9 21.6-12.6 21.6-12.6 43.4 24.9zm.1 51.3l-19.2 11.2-19.2 11.2-42.8-24.6-.5-.3 19.2-11.2 19.2-11.2 42.4 24.3.9.6zm6.3 99.8l-21.3 12.4-21.3 12.4-43.4-24.9-.5-.3 21.3-12.5 21.3-12.5 42.6 24.5 1.3.9zm-87.1 152.5l-21.4-12.3-21.4-12.3 21.7-12.7 21.7-12.7 21.4 12.3 21.4 12.3-21.7 12.7-21.7 12.7zm-87 .1l-36.9-21.2-5.9-3.4 21.1-12.3 21.1-12.3 21.4 12.3 21.4 12.3-21.1 12.3-21.1 12.3zm-177.1.8l-21.7-12.5-21.7-12.5 21.5-12.6 21.5-12.6 43.4 24.9-21.5 12.6-21.5 12.7zm-88.5.3l-36.7-21.1-6.7-3.9 21.6-12.6 21.6-12.6 21.7 12.5 21.7 12.5-21.6 12.6-21.6 12.6zm-88.6.4l-34.5-19.8-9-5.1 21.6-12.6 21.6-12.6 35.7 20.5 7.7 4.4-21.6 12.6-21.5 12.6zm-219.5 25.3l-37.8-21.7-4.8-2.8 21.7-12.7 21.7-12.7 36.9 21.2 5.7 3.2-21.7 12.7-21.7 12.8zm-397.4-25l-5.3-3 21.4-12.5 21.4-12.5 43.2 24.8-42.9 25.1-37.8-21.9zm-50.7 22.4l-21.3-12.3-21.3-12.3 21.8-12.7 21.8-12.7 21.3 12.3 21.3 12.3-21.7 12.7-21.9 12.7zm-42-75.6l32-18.7 10.8-6.3 21.4 12.3 21.4 12.3-10.1 5.9-32.7 19.1-21.4-12.3-21.4-12.3zm0-50.8l21.6-12.6 21.6-12.6L417 885l21.4 12.3-21.6 12.6-21.6 12.6-21.4-12.3-21.4-12.3zm-47.8-178.4l38.1 21.9 5.3 3.1-42.6 24.9-43.5-24.9 42.7-25zm45.3-26.5l20.6-12.1 20.6-12.1 35.8 20.6 7.6 4.4-20.5 12-20.6 12.1-37.6-21.6-5.9-3.3zm-2.2-50.2l10.6-6.2 32.7-19.1 21.7 12.5 21.7 12.5-32.6 19.1-10.7 6.3-36-20.7-7.4-4.4zm-69.3-116.2L300 514l44.4 25.5-21.6 12.6-21.6 12.6-44.4-25.5 21.6-12.6zm67.1-39.2l10.7-6.2 32.2-18.8 22.2 12.8 22.2 12.8-32.7 19.1-10.2 6-22.2-12.8-22.2-12.9zm-2.2-52.2l21.7-12.7 21.7-12.7 22.5 12.9 22.5 12.9-21.7 12.9-21.7 12.7-22.5-12.9-22.5-13.1zm1-50.7l21.3-12.4 21.3-12.4 42.3 24.3-9.3 5.5-33.2 19.4-21.2-12.2-21.2-12.2zm-.3-50.6l21.7-12.7 21.7-12.7 42.8 24.6-6.7 3.9-36.8 21.5-21.4-12.3-21.3-12.3zm173.2-153.4l21.9 12.6 21.9 12.6-21.3 12.5-21.3 12.5-21.9-12.7-21.9-12.6 21.3-12.5 21.3-12.4zm84.2 2.8l21.4 12.3 21.4 12.3-19.2 11.2-19.2 11.2-21.4-12.3-21.4-12.3 19.2-11.2 19.2-11.2zm88.1-.7l21.2 12.2 21.2 12.2-21.6 12.6-21.6 12.6-21.3-12.2-21.2-12.2 21.6-12.6 21.7-12.6zm87.5-1l22.5 12.9 22.5 12.9-21.6 12.6-21.6 12.6-22.5-12.9-22.5-12.9 21.6-12.6 21.6-12.6zm90.3.6l22.2 12.8 22.2 12.8-21.6 12.6-21.6 12.6-22.2-12.8-22.2-12.8 21.6-12.6 21.6-12.6zm89.6.2l41.6 23.9 2.8 1.6-10.9 6.4-32.3 18.9-22.2-12.7-22.2-12.7 21.6-12.6 21.6-12.8zm89.6.2l43.2 24.8.2.1-21.6 12.6-21.6 12.6-43.4-24.9 21.6-12.6 21.6-12.6zm89.4-.7l36 20.7 7.4 4.2-44 25.7-42.5-24.4-1-.5 22-12.9 22.1-12.8zm88.6-.3l21.7 12.5 21.7 12.5-21.6 12.6-21.6 12.6-41.9-24-1.6-.9 21.6-12.6 21.7-12.7zm175.5.4l37.7 21.7 5.7 3.3-21.3 12.5-21.3 12.5-37.3-21.4-6.2-3.5 21.3-12.5L1400 182zm132 75.8l-21.3 12.5-21.3 12.5-36.5-20.9-6.3-3.6 21.3-12.5 21.3-12.5 37.4 21.5 5.4 3zm.1 50.6l-21.1 12.3-21 12.3-21.4-12.3-21.4-12.3 21.1-12.3 21.1-12.3 36.4 20.9 6.3 3.7zm44.4 25.5l44.4 25.5-42.2 24.6-22.2-12.7-22.2-12.7 21.1-12.3 21.1-12.4zm-38.6 182.3l-21.6 12.6-21.6 12.6-43.9-25.2-.5-.3 21.6-12.6 21.6-12.6 43.8 25.2.6.3zm1.6 154.7l-21.6 12.6-21.6 12.6-43.4-24.9 21.6-12.6 21.6-12.6 43.4 24.9zm.2 51.3l-19.2 11.2-19.2 11.2-42.3-24.3-1.1-.6 19.2-11.2 19.2-11.2 43.4 24.9zm4.9 48.5l-21.3 12.5-21.3 12.5-43.4-24.9 21.3-12.4 21.3-12.4 42.8 24.6.6.1zm.8 51l-21.3 12.5-21.3 12.5-41.6-23.9-1.7-1 21.3-12.5 21.3-12.5 43.1 24.8.2.1zm1.3 51.3l-20.8 12.1-20.8 12.1-32.4-18.6-11.4-6.6 20.8-12.1 20.8-12.1 43.4 24.9.4.3zm1.4 50l-22.2 13-22.2 13-21.4-12.3-21.4-12.3 22.1-12.9 22.1-12.9 31.5 18.1 11.5 6.3zm-88.7 51.8l-21.4-12.3-21.4-12.3 21.7-12.7 21.7-12.7 21.4 12.3 21.4 12.3-21.7 12.7-21.7 12.7zm-87 .1l-38.6-22.2-5.2-3 21.1-12.4 21.1-12.4 21.9 12.6 21.9 12.6-21.1 12.3-21.1 12.5zm-177.7.5l-21.7-12.5-21.7-12.5 21.5-12.6 21.5-12.6 43.4 24.9-21.5 12.6-21.5 12.7zm-88.5.3l-35.7-20.5-7.7-4.4 21.6-12.6 21.6-12.6 21.7 12.5 21.7 12.5-21.6 12.6-21.6 12.5zM886.9 1001L850 979.8l-5.7-3.2 41.3-24.2 32.5 18.6 10.1 5.8-20.7 12.1-20.6 12.1zm-88 .9l-40.2-23.1-5-2.9 21.7-12.7 21.7-12.7 38.7 22.2 6.6 3.8-21.7 12.7-21.8 12.7zm-360.1-3.6L417.5 986l-21.3-12.3 31.9-18.7 10.9-6.4 13.2 7.6 29.4 16.9-21.4 12.5-21.4 12.7zm-42.6-75.2l21.6-12.6 21.6-12.6 21.4 12.3 21.4 12.3-21.6 12.5-21.6 12.6-21.4-12.3-21.4-12.2zM349 745l38.9 22.3 4.5 2.6-42.6 24.9-43.5-24.9L349 745zm45.3-26.5l20.6-12.1 20.6-12.1 35.9 20.6 7.6 4.3-20.6 12.1-20.6 12.1-37.7-21.6-5.8-3.3zm-2.1-50.2l10.5-6.1 32.8-19.2 21.7 12.5 21.7 12.5-32.7 19-10.6 6.2-35.8-20.6-7.6-4.3zm-.2-51.4l21.6-12.6 21.6-12.6 21.7 12.5 21.7 12.5-21.6 12.6-21.6 12.6-21.7-12.5-21.7-12.5zm-68.2-64.3l21.6-12.6 44.4 25.5-43.2 25.3-44.4-25.5 21.6-12.7zm68 12.9l32.6-19.1 10.8-6.3 21.7 12.5 21.7 12.5-11 6.4-32.4 18.9-21.7-12.4-21.7-12.5zm-.9-52.1l10.5-6.1 32.4-19L456 501l22.2 12.7-32.6 19.1-10.3 6-22.3-12.6-22.1-12.8zm-1.5-51.7L411 449l21.7-12.7 22.2 12.8 22.2 12.8-21.7 12.7-21.7 12.7-22.2-12.8-22.1-12.8zm-1.8-52.4l21.2-12.4 21.2-12.4 45 25.9-10.7 6.2-31.8 18.6-22.5-12.9-22.4-13zm-44-127.2l32.4-19 11.2-6.5 43.9 25.2-43.6 25.5-43.4-24.9-.5-.3zm-1-.6l-41.8-24.1 21.8-12.7 21.8-12.7 41.9 24-10.9 6.4-32.8 19.1zm-41.8-75.7l41.9-24.5 43.6 25-38.9 22.7-3.1 1.8-37.7-21.6-5.8-3.4zm172.8.2l21.9 12.6 21.9 12.6-21.3 12.5-21.3 12.5-21.8-12.7-22-12.6 21.3-12.5 21.3-12.4zm88.4.3l21.4 12.3 21.4 12.3-21.3 12.5-21.3 12.5-21.4-12.3-21.4-12.3 21.3-12.5 21.3-12.5zm83.2 2.2l21.2 12.2 21.2 12.2-19.2 11.1-19.2 11.2-21.2-12.1-21.2-12.2 19.2-11.2 19.2-11.2zm87.6-1l22.5 12.9 22.5 12.9-21.6 12.7-21.6 12.6-22.5-12.9-22.5-12.9 21.6-12.6 21.6-12.7zm90.3.6l22.2 12.8 22.2 12.8-21.6 12.6-21.6 12.6-22.3-12.8-22.2-12.8 21.6-12.6 21.7-12.6zm89.6.2l22.2 12.7 22.2 12.7-21.6 12.6-21.6 12.6-22.2-12.7-22.2-12.7 21.6-12.6 21.6-12.6zm89.6.2l43.4 24.9-21.6 12.6-21.6 12.6-34.5-19.7-8.9-5.1 32.5-19 10.7-6.3zm88.7-.3l42.5 24.4 1 .5-21.6 12.6-21.6 12.6-43.4-24.9 21.6-12.6 21.5-12.6zm220.9-26.3l36.8 21.1 6.6 3.8-21 12.3-21 12.3-21.7-12.5-21.7-12.5 21-12.3 21-12.2zm132.5 25.6l37.3 21.4 6.5 3.8-21.3 12.5-21.3 12.5-36.9-21.2-6.9-4 21.3-12.5 21.3-12.5zm44 75.8l-21.1 12.3-21.1 12.3-21.4-12.3-21.4-12.3 21-12.3 21-12.3 36.5 20.9 6.5 3.7zm5.3 258.7l-21.6 12.6-21.6 12.6-44.4-25.5 21.6-12.6 21.6-12.6 43.9 25.2.5.3zm2.1 52.5l-21.6 12.6-21.6 12.6-45.3-26 21.6-12.6 21.6-12.6 44 25.3 1.3.7zm-.8 50.8l-21.6 12.6-21.6 12.6-41.8-24-.7-.4 21.6-12.6 21.6-12.6 40.7 23.4 1.8 1zm.2 51.4l-19.2 11.2-19.2 11.2-43.4-24.9 19.2-11.2 19.2-11.2 43.4 24.9zm5.1 48.6l-21.3 12.4-21.3 12.4-43.4-24.9 21.3-12.4 21.3-12.4 42.3 24.3 1.1.6zm.8 50.9l-21.3 12.5-21.3 12.5-42.8-24.6-.6-.3 21.3-12.4 21.3-12.4 43.4 24.7zm.8 51l-20.8 12.1-20.8 12.1-31.9-18.3-11.5-6.6 20.8-12.1 20.8-12.1 41.6 23.9 1.8 1zm2.4 50.6l-22.1 12.9-22.1 12.9-21.9-12.6-21.9-12.6 22.1-12.9 22.1-12.9 32.4 18.6 11.4 6.6zm-88.7 51.9l-21.9-12.6-21.9-12.6 21.7-12.7 21.7-12.7 21.9 12.6 21.9 12.6-21.7 12.7-21.7 12.7zm-88.1-.5l-38.5-22.1-4.9-2.8 21.1-12.4 21.1-12.4L1348 912l21.7 12.5-21.1 12.4-21.1 12.3zm-177.2.7l-21.7-12.5-21.7-12.5 21.5-12.6 21.5-12.6 43.4 24.9-21.5 12.6-21.5 12.7zm-88.6.3l-36-20.7-7.4-4.3 21.6-12.6 21.6-12.6 21.7 12.5 21.7 12.5-21.6 12.6-21.6 12.6zm-309.1 25.1l-39.3-22.5-5.1-2.9 21.7-12.7 21.7-12.7 38.3 22 6.1 3.5-21.7 12.7-21.7 12.6zM393.5 770.5l38.2 21.9 5.2 3-42.6 24.9-43.5-24.9 42.7-24.9zm45.3-26.5l20.6-12.1 20.6-12.1 35.9 20.6 7.6 4.3-20.6 12.1-20.6 12.1-37.1-21.3-6.4-3.6zm-2.2-50.2l10.4-6.1 32.9-19.2 21.7 12.5 21.7 12.5-32.8 19.2-10.5 6.1-35.9-20.6-7.5-4.4zm-.1-51.4l21.6-12.6 21.6-12.6 21.7 12.5 21.7 12.5-21.6 12.6-21.6 12.6-21.7-12.5-21.7-12.5zm-.3-51.4l32.6-19.1 10.8-6.3 21.7 12.5 21.7 12.5-11.1 6.5-32.3 18.9-21.6-12.5-21.8-12.5zm0-51.5l10.5-6.2 32.4-18.9 21.7 12.5 21.7 12.5-32.8 19.2-10.1 5.9-21.7-12.5-21.7-12.5zm-1.4-51.7l21.7-12.7 21.7-12.7 22.2 12.7 22.2 12.7-21.7 12.7-21.7 12.7-22.2-12.7-22.2-12.7zm-1.1-52l32.1-18.7 10.4-6.1 22.2 12.8 22.2 12.8-10.4 6.1-32.1 18.7-22.2-12.8-22.2-12.8zm-46.5-228.9l41.8 24-20.9 12.2-20.9 12.2-41.9-24 3.7-2.2 38.2-22.2zm131.3 24.9l21.4 12.3 21.4 12.3-21.3 12.5-21.3 12.4-21.4-12.3-21.4-12.3 21.3-12.5 21.3-12.4zm87.4-.3l21.2 12.2 21.2 12.2-21.3 12.4-21.3 12.4-21.2-12.2-21.2-12.2 21.3-12.5 21.3-12.3zm82.7 1.9l22.5 12.9 22.5 12.9-19.2 11.2-19.2 11.2-22.5-12.9-22.5-12.9 19.2-11.2 19.2-11.2zm90.2.5l22.2 12.8 22.2 12.8-21.6 12.6-21.6 12.6-22.2-12.7-22.2-12.8 21.6-12.6 21.6-12.7zm89.7.3l22.2 12.7 22.2 12.7-21.6 12.6-21.6 12.6-22.2-12.7-22.2-12.7 21.6-12.6 21.6-12.6zm89.6.2l39.6 22.7 3.9 2.2-10.5 6.1-32.7 19.1-21.7-12.5-21.7-12.5 21.6-12.6 21.5-12.5zm88.6-.4l43.4 24.9-21.6 12.6-21.6 12.6-43.4-24.9 21.6-12.6 21.6-12.6zm243.9-14.4l21.7 12.5-43.1 25.2-21.7-12.5-21.7-12.5 43.2-25.2 21.6 12.5zm110.2 13.4l36.9 21.2 6.9 4-21 12.3-21 12.3-21.9-12.6-21.9-12.6 21-12.3 21-12.3zm44.5 75.5l-21.5 12.6-21.5 12.6-35.6-20.5-7.1-4.1 43.1-25.2 21.4 12.3 21.2 12.3zm44.7 25.7l42.3 24.3-43 25.2-34.9-20-7.4-4.3 21.5-12.6 21.5-12.6zm-39.2 337l-19.2 11.2-19.2 11.2-42.4-24.3-.1-.1 19.2-11.2 19.2-11.2 41.8 24 .7.4zm5.1 48.5l-21.3 12.4-21.3 12.4-42.3-24.3-1.1-.6 21.3-12.4 21.3-12.4 43.4 24.9zm.8 51l-21.3 12.4-21.3 12.4-43.4-24.9 21.3-12.4 21.3-12.4 43.4 24.9zm.8 51l-20.8 12.1L1416 846l-31.8-18.3-11.6-6.6 20.8-12.1 20.8-12.1 42.8 24.6.5.2zm1.9 50.4l-22.1 12.9-22.1 12.9-21.7-12.5-21.7-12.5 22.1-12.9 22.1-12.9 31.9 18.3 11.5 6.7zm-88.6 51.8l-21.7-12.5-21.7-12.5 21.7-12.7 21.7-12.7 21.7 12.5 21.7 12.5-21.7 12.7-21.7 12.7zm-87.6-.2l-38.9-22.4-4.5-2.6 21.1-12.4L1282 874l21.7 12.5 21.7 12.5-21.1 12.4-21.1 12.3zm-177.3.7l-21.7-12.5-21.7-12.5 21.5-12.6 21.5-12.6 43.4 24.9-21.5 12.6-21.5 12.7zm-88.6.3l-35.7-20.5-6.9-3.9 21.6-12.6L1018 875l21.3 12.2 21.3 12.2L1039 912l-21.7 12.7zM797 949.4l-38.3-22-6.1-3.5 20.7-12.1 20.7-12.1 36.5 20.9 8 4.6-20.7 12.1-20.8 12.1zm-182.3-2.7l-24.6-14.1-18.7-10.7 21.3-12.5L614 897l43.3 24.9-26.1 15.3-16.5 9.5zM437.9 796l39.1 22.4 4.8 2.7-42.6 24.9-43.8-25.1 42.5-24.9zm45.4-26.5l20.6-12.1 20.6-12.1 36.4 20.9 7.4 4.2-20.6 12.1-20.6 12.1-37.9-21.7-5.9-3.4zm-2.2-50.2l10.2-6 33-19.3 21.7 12.5 21.7 12.5-32 18.7-11.2 6.5-35.9-20.6-7.5-4.3zm-.2-51.4l21.6-12.6 21.6-12.6 21.7 12.5 21.7 12.5-21.6 12.6-21.6 12.6-21.7-12.5-21.7-12.5zm-.2-51.4l32.5-19 10.9-6.4 21.7 12.5 21.7 12.5-10.2 6-33.2 19.4-21.7-12.5-21.7-12.5zm-.1-51.5l10.3-6 32.6-19.1 21.7 12.5 21.7 12.5-33.1 19.3-9.9 5.8-21.7-12.5-21.6-12.5zm-.5-51.2l21.7-12.7 21.7-12.7 21.7 12.5 21.7 12.5-21.7 12.7-21.7 12.7-21.7-12.5-21.7-12.5zm-1-51.9l32.3-18.9 10.2-5.9 22.2 12.8 22.2 12.8-10.3 6-32.1 18.8-22.2-12.7-22.3-12.9zm-2-51.5l21.7-12.7 21.7-12.7 22.2 12.8 22.2 12.8-21.7 12.7-21.7 12.7-22.2-12.8-22.2-12.8zm-44-128.7l41.8-24.5 21.4 12.3 21.4 12.3-41.8 24.4-21.4-12.2-21.4-12.3zM562.3 257l21.2 12.2 21.2 12.2-21.3 12.4-21.4 12.4-21.1-12.2-21.2-12.2 21.3-12.4 21.3-12.4zm86.9-.6l22.5 12.9 22.5 12.9-21.3 12.4-21.3 12.4-22.5-12.9-22.5-12.9 21.3-12.4 21.3-12.4zm85.4 3.4l22.2 12.8 22.2 12.8-19.2 11.2-19.2 11.2-22.2-12.8-22.2-12.8 19.2-11.2 19.2-11.2zm89.6.2l22.2 12.7 22.2 12.7-21.6 12.8-21.6 12.6-22.2-12.8-22.2-12.7 21.6-12.6 21.6-12.7zm89.7.2l21.7 12.5 21.7 12.5-21.6 12.6-21.7 12.7-21.7-12.5-21.7-12.5 21.6-12.6 21.7-12.7zm88.6-.3l43.4 24.9-21.6 12.6-21.6 12.6-34.6-19.9-8.8-5.1 33-19.3 10.2-5.8zm88.7-.4l42.5 24.4 1 .5-21.6 12.6-21.6 12.6-43.4-24.9 21.6-12.6 21.5-12.6zm310 74.7l-22 12.9-22 12.9-42.8-24.6 22-12.9 22-12.9 35.6 20.5 7.2 4.1zm-1.2 51.5l-21.6 12.6-21.6 12.6-42.8-24.6 21.6-12.6 21.6-12.6 42.3 24.3.5.3zm-.9 50.8l-21.6 12.6-21.6 12.6-41.7-24-.6-.4 21.6-12.6 21.6-12.6 41.8 24 .5.4zm8.2 209.7l-19.2 11.2-19.2 11.2-43.9-25.2-1.4-.8 19.2-11.2 19.2-11.2 45.2 26h.1zm4.1 48l-21.3 12.4-21.3 12.4-41.8-24-.7-.4 21.3-12.4 21.3-12.4 42.4 24.3.1.1zm.9 51l-21.3 12.4-21.3 12.4-43.4-24.9 21.3-12.4 21.3-12.4 42.3 24.3 1.1.6zm.8 51l-20.8 12.1-20.8 12.1-31.9-18.3-11.6-6.7 20.8-12.1 20.8-12.1 43.5 25zm1.9 50.4l-22.1 12.9-22.1 12.9-21.7-12.5-21.7-12.5 22.1-12.9 22.1-12.9 31.8 18.3 11.6 6.7zm-88.6 51.8l-21.7-12.5-21.7-12.5 21.7-12.7 21.7-12.7 21.7 12.5 21.7 12.5-21.7 12.7-21.7 12.7zm-87.6-.2l-38.3-22-5.2-3 21.1-12.4 21.1-12.4 21.7 12.5 21.7 12.5-21.1 12.4-21 12.4zm-177.3.6l-21.3-12.2-21.3-12.2 21.5-12.6 21.5-12.6 42.5 24.4-21.5 12.6-21.4 12.6zm-87.7.9l-30.9-17.8-14.4-8.2 33.1-19.3 10.1-5.9 22.6 13 22.6 13-21.5 12.5-21.6 12.7zm-122 32.2l-11.5-6.6 11-6.4 32-18.7 22.6 13 22.6 13-43 25.1-33.7-19.4zm-281.4-10.6l-42.7-24.5 42.6-24.9 37.7 21.6 4.9 2.8-21.3 12.5-21.2 12.5zm-42.3-126.1l20.6-12.1 20.6-12.1 35.1 20.2 7.7 4.4-20.6 12.1-20.6 12.1-36.7-21-6.1-3.6zm-2.5-50.4l11-6.4 32.3-18.9 21.9 12.6 21.9 12.6-33.5 19.6-9.7 5.7-36.6-21-7.3-4.2zm-.3-51.4l21.6-12.6 21.6-12.6 21.7 12.5 21.7 12.5-21.6 12.6-21.6 12.6-21.7-12.5-21.7-12.5zm-.2-51.4l33.4-19.6 9.9-5.8 21.7 12.5 21.7 12.5-10.2 5.9-33.1 19.5-21.7-12.5-21.7-12.5zm0-51.4l10.1-5.9 32.8-19.2 21.7 12.5 21.7 12.5-32.6 19.1-10.4 6.1-21.6-12.7-21.7-12.4zm-.5-51.2l21.7-12.7L568 514l21.7 12.5 21.7 12.5-21.7 12.7-21.7 12.6-21.7-12.5-21.7-12.4zm-.1-51.5l32.4-18.9 10.1-5.9 21.7 12.5 21.7 12.5-10.7 6.3L568 513l-21.7-12.5-21.8-12.6zm-2-51.5l21.7-12.7L566 411l22.2 12.8 22.2 12.8-21.7 12.7L567 462l-22.2-12.8-22.3-12.8zm83.1-154.5l22.5 12.9 22.5 12.9-21.3 12.4-21.3 12.4-22.5-12.9-22.5-12.8 21.3-12.4 21.3-12.5zm89.6.9l22.2 12.8 22.2 12.8-21.3 12.4-21.3 12.4-22.2-12.8-22.2-12.8 21.3-12.4 21.3-12.4zm84.8 3.1l22.2 12.7 22.2 12.7-19.2 11.2-19.2 11.3-22.2-12.7-22.2-12.7 19.2-11.2 19.2-11.3zm89.6.2l21.7 12.5 21.7 12.5-21.6 12.6-21.6 12.6-21.7-12.5-21.7-12.5 21.6-12.6 21.6-12.6zm88.7-.4l40 23 3.5 2-10.5 6.1-32.8 19.2-21.7-12.5L915 311l21.6-12.6 21.7-12.7zm177.3-.6L1179 310l-21.6 12.6-21.6 12.6-42.3-24.3-1.1-.6 21.6-12.6 21.6-12.6zm88.6-.4l42.3 24.3 1.1.6-21.6 12.6-21.6 12.6-42.3-24.3-1.1-.6 21.6-12.6 21.6-12.6zm89.4-.8l42.4 24.4 1.4.8-22 12.9-22 12.9-43.1-24.8-.7-.4 22-12.9 22-12.9zm41.3 178.4l-21.6 12.6-21.6 12.6-42.4-24.4 21.6-12.6 21.6-12.6 41.7 24 .7.4zm6.1 157.3l-19.2 11.2-19.2 11.2-44.4-25.5 19.2-11.2 19.2-11.2 43.9 25.2.5.3zm6.9 49.6l-21.3 12.4-21.3 12.4-45.3-26 21.3-12.4 21.3-12.4 43.9 25.2 1.4.8zm0 50.5l-21.3 12.4-21.3 12.4-42.1-24.2-.5-.3 21.3-12.4 21.3-12.4 41.8 24 .8.5zm.8 51l-20.8 12.1-20.8 12.1-32-18.4-11.4-6.6 20.8-12.2 20.8-12.2 43.4 25.2zm1.9 50.4l-22.1 12.9-22.1 12.9-21.7-12.5L1283 822l22.1-12.9 22.1-12.9 31.9 18.3 11.5 6.6zm-88.6 51.8l-21.7-12.5-21.7-12.5 21.7-12.7 21.7-12.7 21.7 12.5 21.7 12.5-21.7 12.7-21.7 12.7zm-87.7-.2l-38.3-22-5.2-3 21.1-12.4 21.1-12.4 21.7 12.5 21.7 12.5-21.1 12.4-21 12.4zm-176.3 1.1l-22.6-13-22.6-13 21.5-12.6 21.5-12.6 45.3 26-21.5 12.6-21.6 12.6zm-90.5-.7l-22.2-12.7-22.2-12.7 33.7-19.7 9.5-5.6 22.2 12.8 22.2 12.8-10.4 6.1-32.8 19zM614 895.8l-37.7-21.6-4.9-2.8 21.7-12.7 21.7-12.7 36.6 21 6.1 3.5-21.7 12.7-21.8 12.6zm-42.1-75.5l20.6-12.1 20.6-12.1 35.3 20.3 7.5 4.3-20.7 12.1-20.7 12.1-37.3-21.4-5.3-3.2zm-1.5-49.8l9.4-5.5 33.8-19.8 21.4 12.3 21.4 12.3-32.2 18.8-11 6.4-35.1-20.2-7.7-4.3zm-.6-51.6l21.6-12.6 21.6-12.6 21.9 12.6 21.9 12.6-21.6 12.6-21.6 12.6-21.9-12.6-21.9-12.6zm-.3-51.4L603 648l9.9-5.8 21.7 12.5 21.7 12.5-10.9 6.4-32.4 18.9-21.8-12.5-21.7-12.5zm0-51.4l10.6-6.2 32.3-18.9 21.7 12.5 21.7 12.5-32 18.7-11 6.4-21.7-12.5-21.6-12.5zm-.5-51.2l21.7-12.7 21.7-12.7L634 552l21.7 12.5-21.7 12.7-21.7 12.7-21.7-12.5-21.6-12.5zm-.1-51.5l32-18.7 10.5-6.1 21.7 12.5 21.7 12.5-10.2 6-32.2 18.8-21.7-12.5-21.8-12.5zm-1-50.9l21.7-12.7 21.7-12.7 21.7 12.5 21.7 12.5-21.7 12.7-21.7 12.7-21.7-12.5-21.7-12.5zm83.8-154.2l22.2 12.8 22.2 12.8-21.3 12.4-21.3 12.4-22.2-12.7-22.2-12.8 21.3-12.4 21.3-12.5zm88.9.6l22.2 12.7 22.2 12.7-21.3 12.4-21.3 12.4-22.2-12.7-22.2-12.7 21.3-12.4 21.3-12.4zm84.8 3.1l21.7 12.5 21.7 12.5-19.2 11.2-19.2 11.2-21.7-12.5-21.7-12.5 19.2-11.2 19.2-11.2zm88.7-.4l21.7 12.5 21.7 12.5-21.6 12.6-21.6 12.6-21.7-12.5-21.7-12.5 21.6-12.6 21.6-12.6zm88.6-.3l42.5 24.4 1 .5-21.6 12.6-21.6 12.6-35.3-20.3-8.1-4.7 33-19.3 10.1-5.8zm88.6-.4l42.3 24.3 1.1.6-21.6 12.6-21.6 12.6-43.4-24.9 21.6-12.6 21.6-12.6zm88.7-.3l42.3 24.3 1.1.6-21.6 12.6-21.6 12.6-43.4-24.9 21.6-12.6 21.6-12.6zm88.6-.4l43.1 24.8.7.4-21.6 12.6-21.6 12.6-43.8-25.2 21.6-12.6 21.6-12.6zm43.4 76.2l-21.6 12.6-21.6 12.6-42.3-24.3-.5-.3 21.6-12.6 21.6-12.6 42.3 24.3.5.3zm-.5 51l-21.6 12.6-21.6 12.6-42.2-24.2-.6-.3 21.6-12.6 21.6-12.6 42.2 24.2.6.3zm12.8 307.8l-20.8 12.2-20.8 12.2-31.4-18-11.1-6.4L1261 733l20.8-12.2 42.1 24.2.4.2zm1.9 50.4l-22.1 12.9-22.1 12.9-21.7-12.5-21.7-12.5 22.1-12.9 22.1-12.9 32 18.4 11.4 6.6zm-88.6 51.8l-21.7-12.5-21.7-12.5 21.7-12.7 21.7-12.7 21.7 12.5L1281 822l-21.7 12.7-21.7 12.7zm-87.7-.3l-36.5-21-6-3.5 21.2-12.4 21.2-12.4 21.3 12.2 21.3 12.2-21.1 12.4-21.4 12.5zm-178.2.1l-22.2-12.8-22.2-12.8 21.5-12.6 21.5-12.6 44.4 25.5-21.5 12.6-21.5 12.7zm-313.4 22.7l-36.6-21-6.1-3.5 20.7-12.1 20.7-12.1 35.7 20.5 6.9 4-20.6 12.1-20.7 12.1zm-44.1-74.3l10.7-6.3 32.4-19 21.4 12.3 21.4 12.3-32.3 18.9-10.9 6.4-35.3-20.3-7.4-4.3zm.4-51l21.6-12.6 21.6-12.6 21.4 12.3 21.4 12.3-21.6 12.6-21.6 12.6-21.4-12.3-21.4-12.3zm-.6-51.5l32.6-19.1 10.7-6.3 21.9 12.6 21.9 12.6-10.9 6.4-32.4 19-21.9-12.6-21.9-12.6zm-.1-51.5l11.2-6.6 31.7-18.6 21.7 12.5 21.7 12.5-33.4 19.6-9.4 5.5-21.7-12.5-21.8-12.4zm-.5-51.2l21.7-12.7 21.7-12.7 21.7 12.5 21.7 12.5-21.7 12.7-21.7 12.7-21.7-12.5-21.7-12.5zm-.1-51.4l32.5-19 9.9-5.8 21.7 12.5 21.7 12.5-10.2 6-32.2 18.8-21.7-12.6-21.7-12.4zm-1-51l21.7-12.7 21.7-12.7 21.7 12.5 21.7 12.5-21.7 12.7-21.7 12.7-21.7-12.5-21.7-12.5zm84.8-153.6l22.2 12.7 22.2 12.7-21.3 12.4-21.3 12.4-22.2-12.6-22.2-12.7 21.3-12.4 21.3-12.5zm88.9.6l21.7 12.5 21.7 12.5-21.3 12.4-21.3 12.4-21.7-12.5-21.7-12.5 21.3-12.4L786 335zm83.8 2.5l21.7 12.5 21.7 12.5-19.2 11.2-19.2 11.2-21.7-12.5-21.7-12.5 19.2-11.2 19.2-11.2zm354.6-1.4l43.8 25.2-21.6 12.6-21.6 12.6-43.1-24.8-.7-.4 21.6-12.6 21.6-12.6zm43.4 76.2l-21.6 12.6-21.6 12.6-42.3-24.3-.5-.3 21.6-12.6 21.6-12.6 42.3 24.3.5.3zm-.5 51l-21.6 12.6-21.6 12.6-42.3-24.3-.5-.3 21.6-12.6 21.6-12.6 42.2 24.2.6.4zm10.7 204.8l-21.3 12.4-21.3 12.4-43.9-25.2-.5-.3 21.3-12.4 21.3-12.4 42.9 24.7 1.5.8zm2.8 52.1l-20.8 12.2-20.8 12.2-33.2-19-12.1-7 20.8-12.2 20.8-12.2 45 25.8.3.2zm.9 49.9l-22.1 12.9-22.1 12.9-21.3-12.2-21.3-12.2 22.1-12.9 22.1-12.9 31.4 18 11.2 6.4zm-88.5 51.7l-21.3-12.2-21.3-12.2 21.7-12.7L1194 772l21.3 12.2 21.3 12.2-21.7 12.7-21.7 12.7zm-86.8.3l-40.7-23.4-4.6-2.6 21.2-12.4 21.2-12.4 22.6 13 22.6 13-21.2 12.4-21.1 12.4zM658 820.7l10.6-6.2 32.5-19 21.3 12.2 21.3 12.2-43.1 25.2-35.7-20.5-6.9-3.9zm.3-50.9l21.6-12.6 21.6-12.6 21.4 12.3 21.4 12.3-21.6 12.6-21.6 12.6-21.4-12.3-21.4-12.3zm.5-51l32.7-19.1 10.7-6.2 21.4 12.3 21.4 12.3-10.8 6.3-32.5 19-21.4-12.3-21.5-12.3zm-.5-51.7l9.7-5.7 33.2-19.4 21.9 12.6 21.9 12.6-32.4 18.9-10.6 6.2-21.9-12.6-21.8-12.6zm-.5-51.2l21.7-12.7 21.7-12.7 21.7 12.5 21.7 12.5-21.7 12.7-21.7 12.7-21.7-12.5-21.7-12.5zm-.1-51.4l32.5-19 9.9-5.8 21.7 12.5 21.7 12.5-10.2 5.9-32.2 18.8-21.7-12.5-21.7-12.4zm-1-50.9l21.7-12.7 21.7-12.7 21.7 12.5 21.7 12.5-21.7 12.7-21.7 12.7-21.7-12.6-21.7-12.4zm85.7-153.1l21.7 12.5 21.7 12.5-21.3 12.4-21.3 12.4-21.7-12.5-21.7-12.5 21.3-12.4 21.3-12.4zm88 0l21.7 12.5 21.7 12.5-21.3 12.4-21.3 12.4-21.7-12.5-21.7-12.5 21.3-12.4 21.3-12.4zm83.9 2.5l21.7 12.5 21.7 12.5-19.2 11.2-19.2 11.2-21.7-12.5-21.7-12.5 19.2-11.2 19.2-11.2zm88.6-.4l43.2 24.8.2.1-21.6 12.6-21.6 12.6-34.9-20-8.6-4.9 33.3-19.5 10-5.7zm88.6-.3l42.3 24.3 1.1.6-21.6 12.6-21.6 12.6-43.4-24.9 21.6-12.6 21.6-12.6zm88.7-.3l43.1 24.8.7.4-21.6 12.6-21.6 12.6-43.1-24.8-.7-.4 21.6-12.6 21.6-12.6zm43.3 76.1l-21.6 12.6-21.6 12.6-42.8-24.6 21.6-12.6 21.6-12.6 42.3 24.3.5.3zm-.4 51l-21.6 12.6-21.6 12.6-42.8-24.6 21.6-12.6 21.6-12.6 42.3 24.3.5.3zm-.8 50.8l-19.2 11.2-19.2 11.2-41.6-23.9-.8-.5 19.2-11.2 19.2-11.2 41.6 23.9.8.5zm12.2 153.7l-20.8 12.2-20.8 12.2-32.9-19-11.5-6.6 20.8-12.2 20.8-12.2 43.9 25.2.5.4zm3.7 51.5l-22.1 12.9-22.1 12.9-22.6-13-22.6-13 22-12.9 22-12.9 33.2 19 12.2 7zm-88.5 51.7l-22.6-13-22.6-13 21.7-12.7 21.7-12.7 22.6 13 22.6 13-21.7 12.7-21.7 12.7zm-89.6-1.2l-38.4-22.1-6-3.4 21.2-12.4 21.2-12.4 22.2 12.8 22.2 12.8-21.2 12.4-21.2 12.3zm-357.6-51.7l32.7-19.1 10.6-6.2 21.4 12.3 21.4 12.3-9.9 5.8-33.4 19.5-21.4-12.3-21.4-12.3zm.6-51l10.9-6.3 32.1-18.8 21.4 12.3 21.4 12.3-33 19.3-10 5.8-21.4-12.3-21.4-12.3zm-.8-51.5l21.7-12.7 21.7-12.7 21.9 12.6 21.9 12.6-21.7 12.7-21.7 12.7-21.9-12.6-21.9-12.6zm-.1-51.4l21.2-12.4 21.2-12.4 43.4 24.9-10.3 6-32.1 18.7-21.7-12.5-21.7-12.3zm-1-50.9l21.7-12.7 21.7-12.7 21.7 12.5 21.7 12.5-21.7 12.7-21.7 12.6-21.7-12.5-21.7-12.4zM786.9 386l21.7 12.5 21.7 12.5-21.3 12.4-21.3 12.4-21.7-12.5-21.7-12.5 21.3-12.4 21.3-12.4zm88 0l21.7 12.5 21.7 12.5-21.3 12.4-21.3 12.4-21.7-12.4-21.7-12.5 21.3-12.4 21.3-12.5zm83.8 2.5l41.2 23.7 2.2 1.3-19.2 11.2-19.2 11.2-34.9-20-8.6-4.9 19.2-11.2 19.3-11.3zm88.6-.3l43.4 24.9-21.6 12.6-21.6 12.6-43.4-24.9 21.6-12.6 21.6-12.6zm88.7-.4l43.1 24.8.7.4-21.6 12.6-21.6 12.6-42.1-24.2-1.7-1 21.6-12.6 21.6-12.6zm55.9 330.7l-22 12.9-22 12.9-22.2-12.8-22.2-12.8 22-12.9 22-12.9 32.9 18.9 11.5 6.7zm-88.5 51.7l-22.2-12.8-22.2-12.8 21.7-12.7 21.7-12.7 22.2 12.8 22.2 12.8-21.7 12.7-21.7 12.7zm-264.7.6l-4.5-2.6 35.9-21 7.1-4.2 43.6 25-43 25.1-39.1-22.3zM746.8 718l10.2-6 32.7-19.1 21.4 12.3 21.4 12.3-32.5 19-10.5 6.1-21.4-12.3-21.3-12.3zm.3-50.8l21.7-12.7 21.7-12.7 21.4 12.3 21.4 12.3-21.7 12.7-21.7 12.7-21.4-12.3-21.4-12.3zm-.5-51.7l32.3-18.9 10.1-5.9 21.9 12.6 21.9 12.6-10.5 6.1-31.9 18.6-21.9-12.6-21.9-12.5zm84.7-204L853 424l21.7 12.5-21.3 12.4-21.3 12.4-21.7-12.5-21.7-12.5 21.3-12.4 21.3-12.4zm88 0l41.2 23.7 2.2 1.3-10.1 5.9-32.4 19-21.7-12.5-21.7-12.5L898 424l21.3-12.5zm172.4 2.2l42.1 24.2 1.7 1-21.6 12.6-21.6 12.6-42.1-24.2-1.7-1 21.6-12.6 21.6-12.6zm43.4 76.1l-19.2 11.2-19.2 11.2-42.3-24.3-.5-.3 19.2-11.2 19.2-11.2 42.3 24.3.5.3zm48.8 73.7l43.9 25.2-42.6 24.9-43.9-25.2 21.3-12.5 21.3-12.4zM877.1 741.9l-21.3-12.2-21.3-12.2 21.7-12.7 21.7-12.7 21.3 12.2 21.3 12.2-21.7 12.7-21.7 12.7zm-86.3-49.6l21.7-12.7 21.7-12.7 21.4 12.3 21.4 12.3-21.7 12.7-21.7 12.7-21.4-12.3-21.4-12.3zm.6-51.1l32.1-18.8 10.2-6 21.4 12.3 21.4 12.3-10.5 6.1-31.9 18.7-21.4-12.3-21.3-12.3zm-1.4-51.1l21.7-12.7 21.7-12.7 21.9 12.6 21.9 12.6-21.7 12.7-21.7 12.7-21.9-12.6-21.9-12.6zM875.7 437l21.7 12.5 21.7 12.5-21.3 12.4-21.3 12.4-21.7-12.5-21.7-12.5 21.3-12.4 21.3-12.4zm88 .1l43.2 24.8.2.1-21.3 12.4-21.3 12.4-34.9-20-8.6-4.9 32.7-19.1 10-5.7zm83.8 2.4l42.1 24.2 1.7 1-19.2 11.2-19.2 11.2-43.1-24.8-.7-.4 19.2-11.2 19.2-11.2zm48.2 73.4l-21.3 12.4-21.3 12.4-42.3-24.3-.5-.3 21.3-12.4 21.3-12.4 42.3 24.3.5.3zm.2 50.6l-21.3 12.4-21.3 12.4L1011 564l-.5-.3 21.3-12.4 21.3-12.4 41.3 23.7 1.5.9zm-.1 50.4l-20.8 12.2-20.8 12.2-31.2-17.9-11.3-6.5 20.8-12.2 20.8-12.2 41.5 23.8 1 .6zm-260.6 52.5l32.1-18.8 10.2-6 21.4 12.3 21.4 12.3-10.2 6L878 691l-21.4-12.3-21.4-12.3zm-.4-50.5l21.7-12.7 21.7-12.7 21.4 12.3L921 615l-21.7 12.7-21.7 12.7-21.4-12.3-21.4-12.2zm85.3-153.4l41.2 23.7 2.2 1.3-10.3 6-32.2 18.9-21.7-12.5-21.7-12.5 21.3-12.4 21.2-12.5zm88 .1l43.1 24.8.7.4-21.3 12.4-21.3 12.4-43.8-25.2 21.3-12.4 21.3-12.4zm44 75.7l-21.3 12.4-21.3 12.4-42.3-24.3-.5-.3 21.3-12.4 21.3-12.4 42.3 24.3.5.3zm.2 50.7l-20.8 12.2-20.8 12.2-32.5-18.7-10.3-5.9 41.7-24.4 42.3 24.3.4.3zm.9 49.9l-22 12.9-22 12.9-21.2-12.3-21.2-12.2 22-12.9 22-12.9 31.2 17.9 11.2 6.6zm-88.4 51.7l-21.2-12.2-21.2-12.2 21.7-12.7 21.7-12.7L987 653l21.2 12.2-21.7 12.7-21.7 12.7zM878.5 641l21.7-12.7 21.7-12.7 21.4 12.3 21.4 12.3-21.7 12.7-21.7 12.7-21.4-12.3-21.4-12.3zm86.1-153l43.8 25.2-21.3 12.4-21.3 12.4-35.7-20.5-8.1-4.6 32.5-19 10.1-5.9zm45.1 125.9l-22 12.9-22 12.9-21.4-12.3L923 615l43.9-25.7 19.9 11.4 22.9 13.2zm-1.1-50.1l-41.7 24.4-42.8-24.6 41.7-24.4 42.3 24.3.5.3zm-129.3-25.9l41.7-24.4 43.8 25.2-41.7 24.4-21.9-12.6-21.9-12.6zm-.1 52l43.9-25.7 42.8 24.6-43.9 25.7-21.4-12.3-21.4-12.3zm-44.3-77.5l41.7-24.4 21.7 12.5L920 513l-41.7 24.4-21.7-12.5-21.7-12.5zm-.5 51.8l43.9-25.7 21.9 12.6 21.9 12.6-43.9 25.7-21.9-12.6-21.9-12.6zm44.5 127.3l32.4-19 9.9-5.8 21.2 12.2 21.2 12.2-42.3 24.8-21.3-12.2-21.1-12.2zm130.6 24.8l-43.7-25.1 21.7-12.7 21.7-12.7 43.7 25.1-5.4 3.1-38 22.3zm44.4-26l-43.7-25.1 22-12.9 22-12.9 43.8 25.1-36.7 21.4-7.4 4.4zM790.4 486.9l41.7-24.4 21.7 12.5 21.7 12.5-41.7 24.4-21.7-12.5-21.7-12.5zm-.4 51.7l43.9-25.6 21.7 12.5 21.7 12.5-43.9 25.7-21.7-12.5-21.7-12.6zm176.1 203l-43.6-25.1 42.3-24.8 43.7 25.1-21.2 12.4-21.2 12.4zm91.9 2.6l-47.6-27.3 37.5-21.9 5.9-3.5 47.5 27.3-21.7 12.7-21.6 12.7zm44.4-26l-47.5-27.3 6.9-4 37.1-21.7 18 10.3 29.5 17-22 12.9-22 12.8zM1099 664l-16.6-9.5-27.2-15.6 20.8-12.2 20.8-12.2 43.8 25.2-20.8 12.2L1099 664zm-2.2-50.6l-41.5-23.8-1-.5 21.3-12.4 21.3-12.4 42.5 24.4-21.3 12.5-21.3 12.2zm.1-50.5l-41.3-23.7-1.4-.8 21.3-12.4 21.3-12.4 42.8 24.6-21.3 12.4-21.4 12.3zM1003.1 414l43.4 24.9-19.2 11.2-19.2 11.2-43.2-24.8-.2-.1 19.2-11.2 19.2-11.2zM746 461.4l41.7-24.4 21.7 12.5 21.7 12.5-41.7 24.4-21.7-12.5-21.7-12.5zm-.4 51.7l43.8-25.6 21.7 12.5 21.7 12.5-43.8 25.6-21.7-12.5-21.7-12.5zm43.4 26.1l21.7 12.5 21.7 12.5-21.7 12.7-21.7 12.7-21.7-12.5-21.7-12.5 21.7-12.7 21.7-12.7zm1.6 204l10.7-6.3 32.3-18.9 21.3 12.2 21.3 12.2-6.7 3.9-36.3 21.2-21.3-12.2-21.3-12.1zm131.1 24.3L899.9 755l-21.8-12.5 21.7-12.7 21.7-12.7 43.6 25.1-16.8 9.8-26.6 15.5zm93 2l-47.6-27.3 21.2-12.4 21.2-12.4 34.1 19.6 13.5 7.7-21.2 12.4-21.2 12.4zm132.8-77.6l-47.5-27.3 20.8-12.2 20.8-12.2 47.5 27.3-20.8 12.2-20.8 12.2zm-5.9-52.8l-43.8-25.2 21.3-12.5 21.3-12.5 43.9 25.2-21.3 12.4-21.4 12.6zm41.3-76.1l-21.3 12.5-21.3 12.5-42.5-24.4 21.3-12.4 21.3-12.4 41.6 23.9.9.3zm-42.4-25.6l-42.8-24.6 19.2-11.2 19.2-11.2 42.8 24.6-19.2 11.2-19.2 11.2zm-4.4-48.1l-42.3-24.3-.5-.3 21.6-12.6 21.6-12.6 42.8 24.6-21.6 12.6-21.6 12.6zm-434.5-53.4l41.7-24.4L765 424l21.7 12.5-41.7 24.3-21.7-12.5-21.7-12.4zm-.4 51.7L745 462l21.7 12.5 21.7 12.5-43.8 25.6-21.7-12.6-21.7-12.4zm45.1 281.5l33.7-19.7 9.6-5.6 21.3 12.2 21.3 12.2-35.6 20.8-7.7 4.5-21.3-12.2-21.3-12.2zm43.6 25l7.3-4.3 36-21.1 4.6 2.7 38.9 22.3-43.3 25.3-43.5-24.9zm180.4 1.3L922.7 768l26.6-15.5 16.8-9.8 47.6 27.3-21.7 12.8-21.7 12.6zm219.8-128.5l-47.5-27.3 21.3-12.4 21.3-12.4 47.4 27.2-21.3 12.4-21.2 12.5zm-533-256.5l41.8-24.4 21.7 12.5 21.7 12.5-41.7 24.4-21.7-12.5-21.8-12.5zm-.3 51.6l43.8-25.6 21.7 12.5 21.7 12.5-43.8 25.6-21.7-12.5-21.7-12.5zm87.9 357.4l-21.3-12.2-21.3-12.2 21.6-12.6 21.6-12.6 21.3 12.2 21.3 12.2-21.6 12.6-21.6 12.6zm181.6 1.8l-9.4-5.4-38.3-22 43-25.1 47.6 27.4-21.5 12.6-21.4 12.5zm89.4.3L971.3 796l21.7-12.7 21.7-12.7 38.4 22.1 6 3.4-21.7 12.7-21.7 12.7zm218-180l-47.4-27.2 42.6-24.9 47.4 27.2L1255 629l-21.3 12.5zm-4.9-53.3l-43.9-25.2 19.2-11.2 19.2-11.2 44 25.3-19.2 11.2-19.3 11.1zm-5.5-48.9l-41.6-23.9-.9-.5 21.6-12.6 21.6-12.6 42.4 24.4-21.6 12.6-21.5 12.6zm-87.5-202.9l43.4 24.9-21.6 12.6-21.6 12.6-42.3-24.3-1.1-.6 21.6-12.6 21.6-12.6zm-88.7.4l43.4 24.9-21.6 12.6-21.6 12.6-43.2-24.8-.2-.1 21.6-12.6 21.6-12.6zm-88.6.3l43.4 24.9-10.2 5.9-33.1 19.3-21.6-12.3-21.7-12.5 21.6-12.6 21.6-12.7zm-346.8 47.2l41.8-24.4 22.2 12.7 22.2 12.7-41.8 24.4-22.2-12.7-22.2-12.7zm.7 52.2l43.8-25.6 21.7 12.5 21.7 12.5-43.8 25.6-21.7-12.5-21.7-12.5zm132.7 434.1l-24.6-14.1-18.8-10.8 43.1-25.2 43.5 25-21.5 12.6-21.7 12.5zm44.1-25.7l-43.5-25 21.6-12.6 21.6-12.6 43.5 25-21.6 12.6-21.6 12.6zm92.9 2.1l-47.7-27.4 43.3-25.3 47.7 27.4-9.8 5.7-33.5 19.6zm179.9 1.1l-45.3-26 21.7-12.7 21.7-12.7 40.7 23.4 4.6 2.6-21.7 12.7-21.7 12.7zm219.8-128.5l-45-25.8-.3-.2 21.3-12.4 21.3-12.4 45.3 26-21.3 12.4-21.3 12.4zm-2.8-52.1l-42.9-24.7-1.5-.8 21.3-12.4 21.3-12.4 44.4 25.5-21.3 12.4-21.3 12.4zm-1.8-51.5l-47.4-27.2 19.2-11.2 19.2-11.2 47.2 27.1.1.1-19.2 11.2-19.1 11.2zm-8.9-50.8l-44-25.3 21.6-12.6 21.6-12.6 44 25.3-21.6 12.6-21.6 12.6zm-.8-51.7l-42.4-24.4 21.6-12.6 21.6-12.6 42.4 24.4-21.6 12.6-21.6 12.6zM566.3 358.2l41.8-24.4 22.2 12.8 22.2 12.8-41.8 24.4-22.2-12.8-22.2-12.8zm.7 52.2l43.7-25.6 22.2 12.7 22.2 12.7-43.8 25.6-22.2-12.8-22.1-12.6zm135.7 484.9l-24.5-14-18.9-10.9 20.6-12.1 20.6-12.1 43.4 24.9-20.7 12.1-20.5 12.1zm91.2 3.3l-47.8-27.4 21.5-12.6 21.5-12.6 47.7 27.4-32.8 19.3-10.1 5.9zm44-25.7l-47.7-27.4 21.6-12.6 21.6-12.6 47.7 27.4-21.6 12.6-21.6 12.6zm267.6.2l-42.5-24.4 21.7-12.7 21.7-12.7 36.5 21 6 3.5-21.7 12.7-21.7 12.6zM1316.6 593l-47.4-27.2 21.6-12.6 21.6-12.6 47.3 27.2-21.6 12.6-21.5 12.6zm-4.1-53.7l-44-25.3 21.6-12.6 21.6-12.6 44.1 25.3-21.6 12.6-21.7 12.6zm0-102.5l-42.2-24.2-.6-.3 21.6-12.6L1313 387l42.8 24.6-21.6 12.6-21.7 12.6zm.5-51l-42.3-24.3-.5-.3 21.6-12.6 21.6-12.6 42.8 24.6-21.6 12.6-21.6 12.6zm-266.1-100.4l43.4 24.9-21.6 12.6-21.6 12.6-42.5-24.4-1-.5 21.6-12.6 21.7-12.6zm-526.7 46.4l41.8-24.4 22.5 12.9 22.5 12.9-41.8 24.4-42.4-24.3-2.6-1.5zm1.4 52.6l43.7-25.6 22.2 12.7 22.2 12.7-43.7 25.7-22.2-12.8-22.2-12.7zm49.3 436.5l37.3 21.4 5.5 3.2-21.7 12.6-21.7 12.7-38.5-22.1-4.3-2.4 21.7-12.7 21.7-12.7zm-44.3 25.9l38.5 22.1 4.3 2.4-42.6 24.9-42.8-24.5 42.6-24.9zm131.7 74.5l-35-20.1-8.3-4.8 21.7-12.7 21.7-12.7 43.4 24.9-21.8 12.7-21.7 12.7zm93.3 2.1L703.8 896l20.7-12.1 20.7-12.1 27.1 15.5 20.7 11.9-20.7 12.1-20.7 12.1zm43.3-24.2l9.9-5.8L838 874l22.2 12.7 22.2 12.7-31.8 18.6-11.2 6.5-36.5-20.9-8-4.4zm88.4-.3l-22.2-12.7-22.2-12.7 21.6-12.6 21.6-12.6 22.2 12.7 22.2 12.7-21.6 12.6-21.6 12.6zm266.7-.3l-43.4-24.9 21.7-12.7 21.7-12.7 38.3 22 5.2 3-21.7 12.7-21.8 12.6zM1362 619l-43.9-25.2-.5-.3 21.6-12.6 21.6-12.6 44.4 25.5-21.6 12.6L1362 619zm-1.2-51.9l-47.3-27.2 21.6-12.6 21.6-12.6 47.3 27.2-21.6 12.6-21.6 12.6zm-4-53.6l-44.1-25.3 21.6-12.6 21.6-12.6 44.1 25.3-21.6 12.6-21.6 12.6zm44.7-230.2l-43.1 25.2-5.4-3.1-38.4-22 43.1-25.2 21.9 12.6 21.9 12.5zm-88.9.1l-22 12.9-22 12.9-42.3-24.3-1.1-.6 22-12.9 22-12.9 42.7 24.5.7.4zm-44.4-25.5l-22 12.9-22 12.9-43.2-24.8-.2-.1 44-25.7 21.7 12.5 21.7 12.3zm-88.4 1.3L1223 284l.2.1-21.6 12.6-21.6 12.6-43.4-24.9 21.6-12.6 21.6-12.6zm-702.9 47.7l41.8-24.4 21.2 12.2 21.2 12.2-41.8 24.4-37.6-21.6-4.8-2.8zm-1.3 51l43.7-25.5 42.4 24.3 2.7 1.5-43.7 25.6-22.5-12.9-22.6-13zm51.5 437.9l36.7 21 6.1 3.5-21.7 12.7-21.7 12.7-37.8-21.7-5-2.9 21.7-12.7 21.7-12.6zm-44.3 25.9l37.8 21.7 5 2.9-42.6 24.9-42.8-24.5 42.6-25zm224.4 127.6l-47.9-27.5 26.5-15.5 16.9-9.8 27 15.5 20.8 11.9-21.7 12.7-21.6 12.7zm222.4-23.8l-45.3-26 21.6-12.6 21.6-12.6 30.5 17.5 14.8 8.5-13.6 7.9-29.6 17.3zm264.8-1.4l-43.4-24.9 21.7-12.7 21.7-12.7 38.3 22 5.2 3-21.7 12.7-21.8 12.6zm213.9-278.5l-45.2-26-.1-.1 21.6-12.6 21.6-12.6 45.3 26-21.6 12.6-21.6 12.7zm-2.1-52.4l-44.4-25.5 21.6-12.6 21.6-12.6 44.4 25.5-21.6 12.6-21.6 12.6zm-1.1-52l-47.3-27.2 21.6-12.6 21.6-12.6 47.2 27.1-21.6 12.6-21.5 12.7zm-4.1-53.5l-44.1-25.3 21.6-12.6 21.6-12.6 44.2 25.4-21.6 12.6-21.7 12.5zm-.9-51.8l-41.8-24-.6-.3 21.6-12.6 21.6-12.6 41.9 24 .5.3-21.6 12.6-21.6 12.6zm44.2-25.9l-41.9-24-.5-.3 22-12.9 22-12.9 34.9 20 7.4 4.3-22 12.9-21.9 12.9zm.7-50.6l-22 12.9-22 12.9-42.3-24.3-.5-.3 22-12.9 22-12.9 35.6 20.4 7.2 4.2zm-88.3-101.8l-43.1 25.2-2.7-1.5-40.8-23.4 43.1-25.2 21.7 12.5 21.8 12.4zm-221.3-23.9l43.4 24.9-21.6 12.6-21.6 12.6-42.5-24.4-1-.5 21.6-12.6 21.7-12.6zm-661.5 23l-41.8 24.5-43.9-25.2 20.9-12.2 20.9-12.2 21.9 12.6 22 12.5zm-41.8 25.6l21.4 12.3 21.4 12.3-43.6 25.5-42.8-24.6 43.6-25.5zm.2 50.7l43.6-25.5 5.3 3.1 37 21.3-43.7 25.5-21.2-12.2-21-12.2zm42.3 25.5l22.5 12.9 22.5 12.9-21.7 12.7-21.7 12.7-22.5-12.9-22.5-12.9 21.7-12.7 21.7-12.7zm7.7 411.6l37.9 21.7 6 3.4-21.7 12.7-21.7 12.7-39.1-22.4-4.8-2.7 21.7-12.7 21.7-12.7zm-42 127.2l42.6-24.9 42.8 24.5-42.6 24.9-21.4-12.3-21.4-12.2zm43.8 25.1l42.6-24.9 42.7 24.5-39.4 23-3.3 1.9-26.7-15.4-15.9-9.1zm148.1 15.3l26.2-15.3 26.9 15.4 21 12-42.6 24.9-47.9-27.5 16.4-9.5zM798 950l20.7-12.1 20.7-12.1 45.3 26-41.4 24.2-38.7-22.2-6.6-3.8zm131.2 26.2l-42.6-24.4 43-25.1 28.8 16.5 13.8 7.9-21.5 12.6-21.5 12.5zm43.9-25.7l-29.2-16.8-13.4-7.7 29.8-17.4 13.4-7.8 35.7 20.5 6.9 3.9-21.6 12.6-21.6 12.7zm265.7-.9l-43.4-24.9 21.7-12.7 21.7-12.7 38.9 22.4 4.5 2.6-21.7 12.7-21.7 12.6zm210.5-434.2l-47.2-27.1 21.6-12.6 21.6-12.6 47.2 27.1-21.6 12.6-21.6 12.6zm-4-53.6l-44.2-25.4 21.6-12.6 21.6-12.6 44.2 25.4-21.6 12.6-21.6 12.6zm44.3-25.8l-44.2-25.4 22-12.9 22-12.9 44.3 25.4-22 12.9-22.1 12.9zm-.6-102.4l-21.5 12.6-21.5 12.6-35.6-20.4-7.2-4.1 21.5-12.6 21.5-12.6 21.4 12.3 21.4 12.2zm-89.2-101.2l-21 12.3-21 12.3-21.7-12.5-21.7-12.5 21-12.3 21-12.3 37.3 21.4 6.1 3.6zm-176-.1l-44 25.7-43.4-24.9 22-12.9 22-12.9 41.9 24 1.5 1zM431.3 333.6l21.2 12.2 21.2 12.2-21.7 12.7-21.7 12.7-42.5-24.4 37.2-21.8 6.3-3.6zm6.5 411l37.1 21.3 6.4 3.6-21.7 12.7-21.7 12.7-38.2-21.9-5.2-3 21.7-12.7 21.6-12.7zm-41.3 127.5l42.6-24.9 30.7 17.6 12.1 6.9-21.3 12.5-21.3 12.5-21.4-12.3-21.4-12.3zm86.2 100.6l-29.6-17-13.1-7.5 21.6-12.6 21.6-12.6 15.9 9.1 26.8 15.4-21.6 12.6-21.6 12.6zm88.3-.5l-16.4-9.4-26.9-15.4 42.6-24.9 43.3 24.8-21.4 12.5-21.2 12.4zm93.6 3.2l42.6-24.9 39.3 22.5 5.1 2.9-42.6 24.9-44.4-25.4zm265.6 1.4l21.5-12.6 21.5-12.6 35 20.1 8.4 4.8-42.9 25.1-35.7-20.3-7.8-4.5zm87.3-.8l-35-20.1-8.4-4.8 21.6-12.6 21.6-12.6 36 20.7 7.4 4.3-21.6 12.6-21.6 12.5zm265.7-.9l-43.4-24.9 21.7-12.7 21.7-12.7 38.5 22.1 4.9 2.8-21.7 12.7-21.7 12.7zM1496 644.8l-40.7-23.4-1.8-1 21.6-12.6 21.6-12.6 42.5 24.4-21.6 12.6-21.6 12.6zm.8-50.9l-44-25.3-1.3-.8 21.6-12.6 21.6-12.6 45.3 26-21.6 12.6-21.6 12.7zm-3.3-104.4l-47.2-27.1 21.6-12.6 21.6-12.6 47.2 27.1-21.6 12.6-21.6 12.6zm-2.9-52.9l22-12.9 22-12.9 47.1 27.1-44 25.7-47.1-27zm44-26.9l-44.3-25.4 43-25.2 22.2 12.7 22.2 12.7-43.1 25.2zm-3-202.4l-42.4 24.8-37.3-21.4-6.5-3.8 42.4-24.8 21.9 12.6 21.9 12.6zM430.8 181.4l41.8 24-21.3 12.5-21.3 12.5-41.8-24 21.3-12.4 21.3-12.6zm-124.6 28.7l37.2 21.3-21.8 12.7-21.8 12.7-43.5-25 43.5-25.5 6.4 3.8zM389.9 514l22.2 12.8 22.2 12.8-11.1 6.5-32.4 18.9-30.3-17.4-14.1-8.1 33.4-19.6 10.1-5.9zm-42.3 77.3l43.2-25.3 21.7 12.5 21.7 12.5-21.6 12.6-21.6 12.7-29.2-16.8-14.2-8.2zm45.8 127.8l37.7 21.6 5.8 3.3-21.7 12.7-21.7 12.7-38.9-22.4-4.5-2.6 21.7-12.7 21.6-12.6zm-41.7 127.3l42.6-24.9 43.8 25.1-42.6 24.9-21.9-12.5-21.9-12.6zM526.8 998l-13.7-7.8-29.5-16.9 21.6-12.6 21.6-12.6 43.2 24.8-21.6 12.6-21.6 12.5zm93.2 2.3l-48-27.5 21.4-12.5 21.4-12.5 27.2 15.6 20.7 11.9-21.3 12.5-21.4 12.5zm90.1 1.1l42.6-24.9 40.2 23.1 5 2.9-42.6 24.9-45.2-26zm177.8.1l20.7-12.1 20.7-12.1 35.8 20.6 7.6 4.4-41.3 24.2-37.3-21.4-6.2-3.6zm440.1-.6l-43.8-25.2 21.7-12.7 21.7-12.7 38.6 22.2 5.2 3-21.7 12.7-21.7 12.7zm263.6-1.5l-43.1-24.8 22.2-13 22.2-13 43.2 24.8-44.5 26zm.2-51.3l-22.2 13-22.2 13-21.4-12.3-21.4-12.3 22.2-13 22.2-13 31.5 18.1 11.3 6.5zm-42.8-25.7l-31.5-18.1-11.3-6.5 20.8-12.1 20.8-12.1 42.8 24.6-20.7 12.1-20.9 12.1zm-2.6-101.3l-43.1-24.8-.3-.1 21.3-12.5 21.3-12.5 43.4 24.9-21.3 12.5-21.3 12.5zM1541 568l-45.3-26 21.6-12.6 21.6-12.6 45.3 26-21.6 12.6L1541 568zm-2.1-52.4l-43.8-25.2-.6-.3 21.6-12.6 21.6-12.6 44.4 25.5-21.6 12.6-21.6 12.6zm36.6-182.3l-21.1 12.3-21.1 12.3-42.3-24.3 21.1-12.3 21.1-12.3 35.7 20.5 6.6 3.8zm-.1-100.9l-42.4 24.8-37.4-21.5-5.4-3.1 42.4-24.8 21.4 12.3 21.4 12.3zm-88.6-50.9l-42.4 24.8-37.7-21.7-5.7-3.3 42.4-24.8 21.7 12.5 21.7 12.5zM474.4 156l41.8 24-21.3 12.5-21.3 12.5-41.8-24 21.3-12.4 21.3-12.6zm-88.2-.2l43.6 25-21.3 12.4-21.3 12.4-43.6-25 21.3-12.4 21.3-12.4zm-43.6 126.8l43.9 25.2-21.7 12.7-21.8 12.8-43.9-25.2 21.7-12.7 21.8-12.8zm1.9 205.3l22.2 12.8 22.2 12.8-10.3 6-33.2 19.4-22.2-12.8-22.2-12.8 33.1-19.4 10.4-6zm1.1 103.4l-43.4 25.4-44.4-25.5 43.4-25.4 44.4 25.5zm-42.4 26l10.5-6.2 32.8-19.2 21.7 12.5 21.7 12.5-32.5 19-10.8 6.3-35.9-20.6-7.5-4.3zm45.7 76.3l37.6 21.6 5.9 3.4-21.7 12.7-21.7 12.5-38.1-21.8-5.3-3.1 21.7-12.7 21.6-12.6zm-41.6 127.3l42.6-24.9 43.5 24.9-42.6 24.9-21.8-12.4-21.7-12.5zm109.6 216.4l-21.5-12.4 21.7-12.7 21.7-12.7 5.8 3.3 37.3 21.4-43.5 25.4-21.5-12.3zm158.9-11.2l-48-27.5 21.6-12.6 21.6-12.6 24 13.8 24 13.8-21.6 12.6-21.6 12.5zm45.2-25.2l21.3-12.5 21.3-12.5 44.4 25.5-42.7 25-22.2-12.7-22.1-12.8zm135.4 27L799 1003l37.8 21.7 4.8 2.8-42.6 24.9-42.6-24.5zm175.9-.9l20.7-12.1 20.7-12.1 21.7 12.5 21.7 12.5-41.3 24.2-37.9-21.7-5.6-3.3zm85.8.2l-24.6-14.1-18.9-10.8 42.9-25.1L1052 997l9 5.1-21.4 12.5-21.5 12.6zm353.7-1.2l-42.8-24.6 21.7-12.7 21.7-12.7 36.9 21.2 5.9 3.4-21.7 12.7-21.7 12.7zm45.4-25.4l21.1-12.3 21.1-12.3 21.4 12.3 21.4 12.3-21.1 12.3-21.1 12.3-37.8-21.7-5-2.9zm43.8 25.2l21.1-12.3 21.1-12.3 8 4.6 35.1 20.2-42.2 24.6-43.1-24.8zm86.2-.5l-35.5-20.4-7.6-4.4 21.7-12.7 21.7-12.7.7.4 42.4 24.3-21.7 12.7-21.7 12.8zm44.3-127.8l-42.8-24.6 21.3-12.4 21.3-12.4 42.8 24.6-21.3 12.4-21.3 12.4zm-6.3-355.3l-45.3-26 21.6-12.6 21.6-12.6 44.2 25.4 1.1.7-21.6 12.6-21.6 12.5zm88.3-51.6l-44 25.7-44.2-25.4-1.1-.7 22-12.9 22-12.9 43.4 24.9 1.9 1.3zm-46.4-26.6l-22 12.9-22 12.9-44.4-25.5 22-12.9 22-12.9 42.5 24.4 1.9 1.1zm-1.4-51.8l-43 25.1-47.1-27.1 43-25.1 23.5 13.5 23.6 13.6zm-6.5-154.7l-42.4 24.8-36.4-20.9-6.4-3.7 42.4-24.8 21.4 12.3 21.4 12.3zM1442.3 156l-42.4 24.8-37.7-21.7-5.7-3.3 42.4-24.8 21.7 12.5 21.7 12.5zm-263.2-.5l-21.6 12.6-21.6 12.6-36.4-20.9-7-4 43.2-25.3 21.7 12.5 21.7 12.5zm-665.3-22.6l41.8 24-19.2 11.2-19.2 11.2-41.8-24 19.2-11.2 19.2-11.2zm-84-2.5l43.6 25-21.3 12.4-21.3 12.4-43.6-25 21.3-12.5 21.3-12.3zM255.9 180l41.9-24.5 21.9 12.6 21.9 12.6-41.9 24.5-21.9-12.6-21.9-12.6zM299 410.9l21.2 12.2 21.2 12.2-33 19.3-9.9 5.8-42.4-24.4 21.4-12.5 21.5-12.6zm-.6 50.6l22.5 12.9 22.5 12.9-10.6 6.2-32.8 19.3-22.5-12.9-22.5-13 34-19.9 9.4-5.5zm6 206.6l37.4 21.5 6 3.5-21.7 12.7-21.7 12.7-39.3-22.6-4.1-2.4 21.7-12.7 21.7-12.7zm-41.6 127.3l42.6-24.9 43.5 24.9-42.6 24.9-21.7-12.5-21.8-12.4zm44.1 179.9l21.4 12.3 21.4 12.3-21.7 12.7-21.7 12.7-42.8-24.6 21.7-12.7 21.7-12.7zm44.1 75.6l36.2-21.2 7.1-4.2 43.1 24.7-43.4 25.3-43-24.6zm315.4-23.9l42.7-25 45.3 26-42.7 25-22.6-13-22.7-13zm133.6 25.9l42.6-24.9 39.3 22.6 4.1 2.4-42.6 24.9-43.4-25zm615.6-1.7l-42.8-24.6 21.7-12.7 21.7-12.7 37.8 21.7 5 2.9-21.7 12.7-21.7 12.7zm221.4-78.3l-16.4-9.4-26.8-15.4 20.7-12.1 20.7-12.1 43.2 24.8-20.8 12.1-20.6 12.1zm-1.7-50.2l-41.7-24-1-.6 21.3-12.4 21.3-12.4 42.8 24.6-21.3 12.4-21.4 12.4zm-.2-50.6l-42.8-24.6 21.3-12.4 21.3-12.4 42.8 24.6-21.3 12.4-21.3 12.4zm-.2-50.7l-42.8-24.6-1-.6 19.2-11.2 19.2-11.2 43.9 25.2-19.2 11.2-19.3 11.2zm-5.5-48.8l-42.4-24.3-1-.6 21.6-12.6 21.6-12.6 43.4 24.9L1651 760l-21.6 12.6zm-.2-51.3l-41.9-24.1-1.5-.8 21.6-12.6 21.6-12.6 43.4 24.9-21.6 12.6-21.6 12.6zm45.3-231.3l-7.6-4.3-37.8-21.7 43-25.1 45.3 26.1-21.5 12.5-21.4 12.5zm-3.4-51.7l-43 25.1-22.2-12.7-22.2-12.7 43-25.1 22.2 12.8 22.2 12.6zm-44.4-26.7l-23.5-13.5-23.5-13.5 42.2-24.6 47.1 27-21.1 12.3-21.2 12.3zm-4.9-52.8l-44.4-25.5 21.3-12.5 21.3-12.5 44.4 25.5-21.3 12.4-21.3 12.6zm42.1-228.9l-42.7 24.9-21.9-12.6-21.9-12.6 42.7-25 21.9 12.6 21.9 12.7zm-266 .6l-42.4 24.8-37.3-21.4-6.1-3.5 42.4-24.8 21.7 12.5 21.7 12.4zm-352.8-.8l-22 12.8-22 12.8-36-20.7-8.4-4.8 43.9-25.7 3.2 1.9 41.3 23.7zM558 107.1l41.7 24-21.6 12.6-21.6 12.6-41.8-24 21.6-12.6 21.7-12.6zm-88.8.2l43.6 25.1-19.2 11.2-19.2 11.2-43.6-25 19.2-11.2 19.2-11.3zm-258.3 46.9l41.9-24.5 22 12.6 22 12.6-41.9 24.5-22-12.6-22-12.6zm.5 51.9l43.5-25.4 38.2 21.9 5.7 3.2-43.5 25.5-21.9-12.6-22-12.6zm43.9 26.3l43.5 25-21.8 12.7-21.8 12.7L219 262l-7.3-4.2 36.7-21.5 6.9-3.9zm0 51.6l34.6 19.9 7.2 4.2-32 18.7-10.5 6.2-41.9-24.1 38.4-22.4 4.2-2.5zm-.1 101.8l21.4 12.3 21.4 12.3-37.2 21.7-5.7 3.3-42.8-24.6 21.4-12.5 21.5-12.5zm-42.8 179.4l43.4-25.4 44.4 25.5-33.1 19.4-10.3 6-22.2-12.7-22.2-12.8zm47.6 77.4l37.7 21.6 5.8 3.3-21.7 12.7-21.7 12.7-38.2-21.9-5.2-3 21.7-12.7 21.6-12.7zm-41.6 127.3l42.5-24.9 43.5 24.9-42.6 24.9-21.7-12.5-21.7-12.4zm89.2 306.4l21.2-12.4 21.2-12.4 43 24.7-42.4 24.8-43-24.7zm179.8 1.5l-48-27.6 43.5-25.4 42.9 24.7 5.1 2.9-21.7 12.7-21.8 12.7zm225.2-24.3l42.7-25 42.6 24.4-42.7 25-21.3-12.2-21.3-12.2zm174.4 0l38.4 22 5 2.9-42.5 24.9-43.5-24.9 42.6-24.9zm441.7-1.1l21.5-12.6 21.5-12.6 42.8 24.6-21.6 12.6-21.6 12.6-21.4-12.3-21.2-12.3zm130.8 24l-40.9-23.5-2-1.2 21.7-12.7 21.7-12.7 43 24.7-21.7 12.7-21.8 12.7zm88.1-.8l-42.6-24.5 42.2-24.6 34.6 19.9 8 4.6-21.1 12.3-21.1 12.3zm133-77.7l-42.6-24.4 20.8-12.1 20.8-12.1 42.5 24.4-35.1 20.5-6.4 3.7zm-1.1-49.8l-43.2-24.8 21.3-12.4 21.3-12.4 43.2 24.8-21.3 12.4-21.3 12.4zm-5.2-149.7l-43.9-25.2 21.6-12.6 21.6-12.6 43.9 25.2-21.6 12.6-21.6 12.6zm-1.4-257.1l-41.9-24.1-.5-.3 44-25.7 21.2 12.2 21.2 12.2-22 12.9-22 12.8zM1718 515l-41.8-24-.7-.4 21.5-12.5 21.5-12.5L1761 490l-21.5 12.5L1718 515zm-48.1-128.6l-47.1-27 21.3-12.4 21.3-12.4 47 27-21.3 12.5-21.2 12.3zm-6.5-104.6l-32.2-18.5-10.1-5.8 21.6-12.6 21.6-12.6 16.8 9.6 25.5 14.7-21.6 12.6-21.6 12.6zm44.3-25.9l-35.4-20.3-6.9-4 21.7-12.7 21.7-12.7 42.3 24.3-43.4 25.4zm.1-50.2l-21.7 12.7-21.7 12.7-21.4-12.3-21.4-12.3 21.7-12.7 21.7-12.7 21.4 12.3 21.4 12.3zm-.2-50.7l-42.6 25-21.4-12.3-21.4-12.3 42.7-24.9 21.4 12.3 21.3 12.2zm-88.5-50.8l-42.7 25-21.7-12.5-21.7-12.5 42.7-25 21.7 12.5 21.7 12.5zm-265.6.8l-42.4 24.8-37.7-21.7-5.7-3.3L1310 80l21.7 12.5 21.8 12.5zm-264.2-1.2l-21.6 12.6-21.6 12.6-43.6-25-.8-.5 21.6-12.7 21.6-12.7 22.2 12.8 22.2 12.9zM602.2 81.2l41.7 24-21.6 12.6-21.6 12.6-41.7-24 21.6-12.6 21.6-12.6zm-88.8.3l43.6 25.1-21.6 12.6-21.6 12.6-43.6-25.1 21.6-12.6 21.6-12.6zm-346.9 47.2l41.9-24.5 21.7 12.5 21.7 12.5-41.9 24.5-21.7-12.5-21.7-12.5zm0 51.5l43.5-25.4 22 12.6 22 12.6-43.5 25.4-22-12.6-22-12.6zm43.9 26.4l21.9 12.6 21.9 12.6-7.3 4.2-36.2 21.2-43.9-25.2 21.8-12.7 21.8-12.7zm.4 51.8l43.5 25-5.5 3.2-37 21.6-43.5-25 21.3-12.4 21.2-12.4zm.9 51.1l41.9 24.1-21.6 12.6-21.6 12.7-41.9-24.1 2.4-1.4 40.8-23.9zm-1.3 50.5l21.9 12.6 21.9 12.6-21.4 12.5-21.4 12.5-43.8-25.2 31.9-18.7 10.9-6.3zm.3 102.6l21.2 12.1 21.2 12.1-43.2 25.3-42.3-24.3 21.6-12.6 21.5-12.6zm-44.4 76.2l10.2-5.9 33.3-19.5 30 17.3 15 8.6-33.4 19.5-10 5.9-22.5-12.9-22.6-13zm45.1 27l22.2 12.7 22.2 12.7-20.6 12.1-20.6 12.1-44.4-25.5 20.6-12.1 20.6-12zm3.2 50.7l38.2 21.9 6.2 3.6-21.7 12.7-21.7 12.7-39.4-22.6-5-2.9 21.7-12.7 21.7-12.7zm-87.1 50.9l21.3-12.5 21.3-12.5 39.4 22.6 5 2.9-21.3 12.5-21.2 12.5-31.6-18.1-12.9-7.4zm46.4 77l42.5-24.9 43.5 24.9-42.5 24.9-21.7-12.5-21.8-12.4zm44.5 180l21.9 12.6 21.9 12.6-21.7 12.7-21.7 12.7-21.8-12.7-21.9-12.6 21.6-12.7 21.7-12.6zm.8 102.2l21.4 12.3 21.4 12.3-9.9 5.8-33.7 19.7-21.4-12.3-21.4-12.3 32.8-19.2 10.8-6.3zm51 79.9l-7.2-4.1 6.9-4 36.7-21.5 42.9 24.7-43.6 25.5-35.7-20.6zm172.9-2.7l-48-27.6 43.4-25.3 24 13.8 24 13.8-32.8 19.2-10.6 6.1zm180.3.7l-45.2-26 32.6-19.1 10.3-6 22.6 13 22.6 13-13.2 7.7-29.7 17.4zm132.8-26l42.7-25 43.5 24.9-42.8 25-21.7-12.5-21.7-12.4zm175.2.5l37.1 21.3 6.3 3.6-42.5 24.9-43.5-24.9 42.6-24.9zm44.5 24.4l-24.4-14-19-10.9 21.7-12.7 21.7-12.7 21.7 12.5 21.7 12.5-21.7 12.7-21.7 12.6zm308.7-25.2l21.6-12.6 21.6-12.6 21.4 12.3 21.4 12.3-21.5 12.6-21.5 12.6-35.4-20.3-7.6-4.3zm43.8 25.1l21.5-12.6 21.5-12.6 6.5 3.7 36.4 20.9-43.1 25.2-42.8-24.6zm174.8-1.8l-42.6-24.5 21.7-12.7 21.7-12.7 42.6 24.5-21.7 12.7-21.7 12.7zm90.9.8l-45.5-26.1 21.1-12.3 21.1-12.3 22.8 13.1 22.8 13.1-21.1 12.3-21.2 12.2zM1723 973.1l-42.5-24.4 21.3-12.4 21.3-12.4 42.5 24.4-21.3 12.4-21.3 12.4zm.1-50.5l-43.2-24.8 21.3-12.4 21.3-12.4 43.3 24.9-21.3 12.4-21.4 12.3zm-4.6-150.1l-43.9-25.2 21.6-12.6 21.6-12.6 43.9 25.2-21.6 12.6-21.6 12.6zm-.1-308.2l-45.3-26.1 21.1-12.3 21.1-12.3 45.1 25.9.3.2-21.1 12.4-21.2 12.2zm37.6-128.2l-42.4 24.8-47-27 21.2-12.4 21.2-12.4 19.4 11.1 27.6 15.9zm-47.1-28.2l-16.9-9.7-27.6-15.8 21.6-12.6 21.6-12.6L1749 281l3.1 1.8-21.6 12.6-21.6 12.5zm42.5-127.7l-42.6 24.9-21.4-12.3-21.4-12.3 42.6-24.9 21.4 12.3 21.4 12.3zm-42.8-25.7l-21.4-12.3-21.4-12.3 21.7-12.7 21.7-12.7 42.8 24.6-21.7 12.7-21.7 12.7zM1620 53.3l43.4 24.9-21.7 12.7-21.7 12.7-21.7-12.5-21.7-12.5 21.7-12.7 21.7-12.6zm-45.3 25.3l-42.7 25-21.7-12.5-21.7-12.5 42.7-25 21.7 12.5 21.7 12.5zm-265.7.9l-42.3 24.8-37.7-21.7-5.7-3.3 42.3-24.8 21.7 12.5 21.7 12.5zM646.5 55.4l41.7 23.9L666.6 92 645 104.6l-41.7-24L624.9 68l21.6-12.6zm-88.9.2l43.6 25.1-21.6 12.6-21.6 12.6-43.6-25.1L536 68.2l21.6-12.6zM122 103.2l41.9-24.5 21.7 12.5 21.7 12.5-41.9 24.5-21.7-12.5-21.7-12.5zm.1 51.5l43.5-25.4 21.7 12.5 21.7 12.5-43.5 25.4-21.7-12.5-21.7-12.5zm45.1 129.2l43.5 25-40.2 23.5-3.1 1.8-43.5-25 21.6-12.7 21.7-12.6zm1.9 306.6l44.4 25.5-21.7 12.7-21.7 12.7-39.1-22.6-5.2-3 21.7-12.7 21.6-12.6zm-39.6 128.4L172 694l43.5 24.9-42.5 24.9-21.7-12.5-21.8-12.4zm44.4 180l21.7 12.5 21.7 12.5-21.6 12.7-21.6 12.7-43.4-25 21.6-12.7 21.6-12.7zm1.5 102.5l21.4 12.3 21.4 12.3-10.5 6.2-33.1 19.3-21.4-12.3-21.4-12.3 33.3-19.5 10.3-6zm4.2 99l19.4-11.3 19.4-11.3 21.4 12.3 21.4 12.3-19.3 11.3-19.3 11.3-21.4-12.3-21.6-12.3zm220.1 28.7l-48.1-27.6 42.4-24.8 48 27.6-21.2 12.4-21.1 12.4zm401-25.1l42.8-25 31.2 17.9 12.3 7-21.4 12.5-21.4 12.5-21.7-12.5-21.8-12.4zm176.2 0l21.7-12.7 21.7-12.7 21.7 12.5 21.7 12.5-43.4 25.4-39.6-22.7-3.8-2.3zm572.8 24.2l-45.5-26.1 21.7-12.7 21.7-12.7 45.5 26.1-8.2 4.8-35.2 20.6zm223.4-24.5l37.2-21.8 7.2-4.2 42.7 24.5-44.5 26-21.3-12.3-21.3-12.2zm-6.5-156.1l-42.5-24.4 21.3-12.4 21.3-12.4 42.5 24.4-21.3 12.4-21.3 12.4zm.1-50.4l-43.3-24.9 19.2-11.2 19.2-11.2 43.3 24.9-19.2 11.2-19.2 11.2zm39.5-23l-43.3-24.9 21.6-12.6L1806 824l43.4 24.9-21.6 12.6-21.6 12.7zm-1.1-50.8l-21.6 12.6-21.6 12.6-42-24.1-.8-.4 21.6-12.6 21.6-12.6 41.3 23.7 1.5.8zm.2-308l-42.9 25.1-6.6-3.8-36.9-21.2 42.9-25.1 21.7 12.5 21.8 12.5zm-43.4-26.1l-42.5-24.4 21.1-12.4 21.1-12.4 42.5 24.4L1783 477l-21.1 12.3zm-.3-50.3l-.5-.3-44.8-25.8 21.3-12.5 21.3-12.5 45.3 26-21.3 12.5-21.3 12.6zm39.8-76.9l-42.5 24.8-38.4-22.1-6-3.4 42.4-24.8 22.2 12.7 22.3 12.8zm-3.7-106l-27.1-15.6-17.5-10 42.6-24.9 44.6 25.6-42.6 24.9zm-3.1-51.1l-42.6 24.9-21.1-12.1-21.1-12.1 42.6-24.9 21.1 12.1 21.1 12.1zm-42.2-25.4l-21.4-12.3-21.4-12.3 21.7-12.7 21.7-12.7 42.8 24.6-21.7 12.7-21.7 12.7zm45-127.8l-44.1 25.8-21.9-12.6-21.9-12.6 44.1-25.8 21.9 12.6 21.9 12.6zm-221.8-24.1l43.4 24.9-21.7 12.7-21.7 12.7-21.6-12.4-21.7-12.5 21.7-12.7 21.6-12.7zm-45.3 25.4l-42.7 25-21.7-12.5-21.7-12.5 42.8-25 21.7 12.5 21.6 12.5zm-265.7.9l-42.3 24.8-37.9-21.8-6.5-3.7 42.3-24.8 22.2 12.7 22.2 12.8zm-309-27l42.3 24.3-9.8 5.7-33.5 19.6-21.2-12.2-21.2-12.2 21.7-12.7L955.6 27zm-264.9 2.5l41.7 23.9L710.8 66l-21.6 12.6-41.7-23.9 21.6-12.6 21.6-12.6zm-88.9.2l43.7 25.1-21.6 12.6L602.3 80l-43.7-25 21.6-12.6 21.6-12.7zm-438.9-2.1l43.6 25.1-21.3 12.4-21.3 12.4-43.6-25.1L141.6 40l21.3-12.4zM77.4 77.5L119.3 53l43.6 25.1-41.9 24.5-21.8-12.5-21.8-12.6zm.2 51.6l43.4-25.4 21.7 12.5 21.7 12.5-43.5 25.4-21.7-12.5-21.6-12.5zm45.3 180.7l43.5 25-39.8 23.3-3 1.8-43.5-25 7.3-4.3 35.5-20.8zm.7 51.2l35.5 20.4 6.4 3.7-32.7 19.2-10.8 6.3-42-24.1 21.8-12.7 21.8-12.8zM79.1 488.8l43.5-25.5 21.4 12.3 21.4 12.3-38 22.2-5.4 3.2-21.4-12.3-21.5-12.2zm43.9 75.3l22.5 12.9 22.5 12.9-21.7 12.7-21.7 12.7-45.1-25.9 21.7-12.7 21.8-12.6zm.8 51.7l-42.7 25L36 614.9l42.7-25 45.1 25.9zm-39.7 77l42.5-24.8 44.4 25.5-42.5 24.9-22.2-12.7-22.2-12.9zm45.6 232l21.7 12.5 21.7 12.5-32.1 18.8-10.3 6-21.7-12.5-21.7-12.5 9.9-5.8 32.5-19zm.9 50.9l21.9 12.6 21.9 12.6-10 5.8-33.6 19.6-21.9-12.6-21.9-12.6 32.7-19.1 10.9-6.3zm404 180.7l-45.2-26 21.7-12.7 21.7-12.7 22.6 13 22.6 13-30.2 17.7-13.2 7.7zm398.7-27l21.3-12.4 21.3-12.4 5.3 3 38.1 21.9-42.5 24.9-24.7-14.2-18.8-10.8zm88 0l43.4-25.4 21.9 12.6 21.9 12.6-43.4 25.4-6-3.5-37.8-21.7zm89.2-.2l20.7-12.1 20.7-12.1 21.4 12.3 21.4 12.3-41.3 24.2-37.1-21.3-5.8-3.3zm86.2.4l21.4-12.5 21.4-12.5 34.7 19.9 8.1 4.7-21.4 12.5-21.4 12.5-21.4-12.3-21.4-12.3zm130.3 24.2l-42.8-24.6 21.6-12.6 21.6-12.6 42.9 24.6-21.6 12.6-21.7 12.6zm269.1 1.1l-45.5-26.1 34.9-20.4 8.5-5 40.7 23.4 4.7 2.7-21.7 12.7-21.6 12.7zm221.5-78.4l-16.5-9.5-26.7-15.3 20.7-12.1 20.7-12.1 43.2 24.8-35.5 20.7-5.9 3.5zm-1.8-50.1l-44.1-25.3-1.2-.7 21.3-12.4 21.3-12.4 45.2 26-21.3 12.5-21.2 12.3zm-5.6-104.3l-42.5-24.4 19.2-11.2 19.2-11.2 42.5 24.4-19.2 11.2-19.2 11.2zm-3.7-150.3l-42.3-24.3-.5-.3 21.6-12.6 21.6-12.6 42.8 24.6-21.6 12.6-21.6 12.6zm.4-51l-42.5-24.4-1.4-.8 21.6-12.6 21.6-12.6 43.9 25.2-21.6 12.6-21.6 12.6zm-1.8-256.8l-42.5-24.4 21.3-12.5 21.3-12.5 42.5 24.4-21.3 12.5-21.3 12.5zm-3.9-154.4l-35.4-20.3-11.6-6.7 43.5-25.4 46.9 26.9-21.7 12.7-21.7 12.8zm86.9-50.8l-42.5 24.9-46.9-26.9 2.1-1.2 40.5-23.6 33 18.9 13.8 7.9zm-92.5-54.3l-21.1-12.1-21.1-12.1 21.7-12.7 21.7-12.7 42.2 24.3-21.7 12.7-21.7 12.6zm45.6-127.6l-44.1 25.8-21.4-12.3-21.4-12.3 44.1-25.8 21.4 12.3 21.4 12.3zM1797 1.3l43.8 25.2-42.3 24.7-21.9-12.6-21.9-12.6 21.2-12.4L1797 1.3zm-44.4 24.8l-44.1 25.8-21.7-12.5-21.7-12.5 44.1-25.8 21.7 12.5 21.7 12.5zM1531.2 2.2l43.4 24.9-21.7 12.7-21.7 12.7-21.7-12.5-21.7-12.5 21.7-12.7 21.7-12.6zm-45.4 25.4l-42.8 25-21.7-12.5-21.7-12.5 42.8-25 21.7 12.5 21.7 12.5zm-266.6.3l-42.3 24.7-38.1-21.9-6.3-3.6 42.3-24.7 22.2 12.7 22.2 12.8zm-264.6-1.5l-21.7 12.7-21.7 12.7-21.4-12.3-21.4-12.3 43.4-25.4 30.4 17.5 12.4 7.1zM735 3.7l41.6 23.9L755 40.2l-21.6 12.6L691.7 29l39.4-23 3.9-2.3zm-89 .2L689.7 29l-21.6 12.6-21.6 12.6-43.7-25.1 21.6-12.6L646 3.9zM206.5 2.1l43.6 25.1-21.3 12.4L207.5 52l-43.6-25 21.3-12.4 21.3-12.5zm-88.8-.5L161.9 27l-21.3 12.4-21.3 12.4-44.2-25.3L96.4 14l21.3-12.4zm-85.6 50L74 27.1l44.2 25.4L76.4 77 54.2 64.3 32.1 51.6zm44.3 26.5l21.8 12.5 21.8 12.5-43.4 25.4-.2-.1-43.5-25 21.7-12.7 21.8-12.6zm-.8 51.1l-21.8 12.7L32 154.6.5 136.5v-14l31.4-18.4 43.7 25.1zm-42.5 26l21.8-12.7 21.8-12.7 21.7 12.5 21.7 12.5-21.8 12.7-21.8 12.7-21.7-12.5-21.7-12.5zm45 128.8l21.9 12.6 21.9 12.6-21.4 12.5-21.4 12.5L35.2 309l11.7-6.9L78.1 284zm1 51.4l43.5 25-21.8 12.7L79 385.9l-43.5-25 21.8-12.7 21.8-12.8zM79 387l42 24.1-21.6 12.6-21.6 12.6-42-24.1 21.6-12.6L79 387zm-44.7 76l43.5-25.5 21.9 12.6 21.9 12.6-43.5 25.5-21.9-12.6L34.3 463zm4.3 203.8L81.1 642l44.4 25.5L83 692.3l-22.2-12.7-22.2-12.8zm46.5 181l21.7 12.5 21.7 12.5-21.6 12.6L85.3 898l-21.7-12.5L41.9 873l21.6-12.6 21.6-12.6zm1.1 102.4l43.4 24.9-10.6 6.2-33 19.3-21.7-12.5-21.7-12.5 21.8-12.7 21.8-12.7zM46.3 1025l21.9 12.6 21.9 12.6-32.4 18.9-9.9 5.8L4 1049.7l21.2-12.4 21.1-12.3zm88.9 151l-42.7-24.6 32.1-18.8 10.7-6.2 21.4 12.3 21.4 12.3-21.4 12.5-21.5 12.5zm44.8-25.1l34.9-20.4 7.4-4.3 42.9 24.6-42.4 24.7-38.9-22.3-3.9-2.3zm135.4 27.5l-48.2-27.7 38.7-22.6 40.5 23.3 7.6 4.4-19.3 11.3-19.3 11.3zm262.8 3.1l-42.6-24.5 13.3-7.8 30.1-17.6 21.3 12.2 21.3 12.2-21.7 12.7-21.7 12.8zm399.6-26.6l42.5-24.9 39.4 22.6 4.5 2.6-42.5 24.9-21.9-12.6-22-12.6zm176.5-.5l41.3-24.2 21.4 12.3 21.4 12.3-41.3 24.2-36.7-21-6.1-3.6zm485.9 25.8l-43-24.7 21.7-12.7 21.7-12.7 37.5 21.5 5.6 3.2-21.7 12.7-21.8 12.7zm220.8-26l-22.1-12.7-22.1-12.7 44.5-26 44.3 25.4-2.8 1.6-41.8 24.4zm41.7-76.8l-41.4 24.2-42.7-24.5 5.4-3.2 36-21 42 24.1.7.4zm-45.9-128.5l-45.5-26.1h-.1l19.2-11.2 19.2-11.2 45.5 26.2-19.2 11.2-19.1 11.1zm-7.2-49.8l-42.5-24.4 43.3-25.3 42.4 24.4-21.6 12.6-21.6 12.7zm.8-50.8l-43.4-24.9 21.6-12.6 21.6-12.6 43.4 24.9-21.6 12.6-21.6 12.6zm-.1-51.3l-42.2-24.3-.5-.3 21.6-12.6 21.6-12.6 42.8 24.6-21.6 12.6-21.7 12.6zm40.9-383.3l-42.5 24.8-42.5-24.4 21.2-12.4 21.2-12.4 21.2 12.2 21.4 12.2zm-50-183l-22.3-12.8-22.3-12.8 21.7-12.7 21.7-12.7 44.7 25.7L1863 218l-21.8 12.7zm43.8-128.6l-44.2 25.8-21.4-12.3-21.4-12.3 44.1-25.8 21.4 12.3 21.5 12.3zm-.5-50.5l-42.3 24.7-21.4-12.3-21.4-12.3 42.3-24.7 21.4 12.3 21.4 12.3zM1710.3.5h85.3l.4.2-21.2 12.4-21.2 12.4-21.7-12.5L1710.3.5zm-2.2 0l.1.1-44.1 25.8-21.7-12.5-21.7-12.5 1.5-.9h85.9zm-87.9 0l-.5.3-.3-.2-.2-.1h1zm-86 0h83l.4.2 1.1.7-21.5 12.6-21.5 12.6-43.4-24.9 1.2-.7.7-.5zm-2 0l-1 .6-.5-.3-.5-.3h2zm-86.1 0h82.1l.8.5 1.2.7-21.7 12.7-21.7 12.6-21.7-12.5L1443.4 2l1.4-.8 1.3-.7zm-2 0l-.6.3-1.1.7-.3-.2-1.5-.8h3.5zm-5.4 0l2.7 1.6-42.8 25-21.7-12.5-21.7-12.5 2.8-1.7h80.7zm-82.7 0l-1.9 1.1-1.9-1.1h3.8zm-5.7 0l2.9 1.7-21.7 12.7-21.7 12.7-22.2-12.7L1265.5 2l2.6-1.5h82.2zm-84.2 0l-.2.1-1.5.9-.5-.3-1.2-.7h3.4zm-5.3 0l1.8 1 .9.5-21.6 12.7-21.6 12.7-22.3-12.8-22.2-12.7 2.3-1.3h82.7zm-84.7 0l-1.3.8-.4-.2-.9-.5h2.6zm-4.7 0l1.6.9.8.5-42.3 24.7L1092 3.9l-5.6-3.2.4-.2h84.6zm-87.4 0l.3.1.1.1-21.3 12.5-21.3 12.5-36.5-21-5.9-3.4 1.4-.8h83.2zm-85.1 0l-.4.2-.5-.2h.9zm-2.9 0l1.4.8-5.7 3.3-36.2 21.2-12.5-7.2-30.2-17.4.8-.5.3-.2H996zm-84.1 0l-.2.1-.1-.1h-.1.4zm-87 0h84.7l1.2.7-43.4 25.4-22-12.6-22-12.6.7-.4.8-.5zm-2 0l-.2.1-.2.1-.4-.2h.8zm-2.8 0l1.4.8-22 12.8-22 12.8L736 3.1l4.4-2.6h79.7zm-81.7 0l-1.3.8-2.1 1.2-3.5-2h6.9zm-9 0l4.5 2.6-3.1 1.8-40.1 23.4-43.7-25 4.8-2.8h77.6zm-79.6 0L646 2.7 642.1.5h7.7zm-9.6 0l4.9 2.8-21.6 12.6-21.6 12.6-22-12.5L558 3.4l5-2.9h77.2zM561 .5l-4 2.3-4.1-2.3h8.1zm-10.1 0l5.1 2.9L534.4 16l-21.6 12.6-22-12.6-22-12.6 5-2.9h77.1zm-79.1 0l-4 2.4-4.1-2.4h8.1zm-10.1 0l5.1 2.9L445.2 16l-21.6 12.6-21.7-12.5-21.7-12.3 5.6-3.3h75.9zm-77.9 0l-4.6 2.7-4.7-2.7h9.3zm-11.4 0l5.7 3.3-21.6 12.6L334.9 29l-21.7-12.5-21.7-12.4 6.2-3.6h74.7zm-76.8 0l-5.2 3-5.3-3h10.5zm-12.4 0l6.3 3.6-19.2 11.2-19.2 11.2-43.6-25 1.7-1h74zm-76 0l-.7.4-.7-.4h1.4zm-3.5 0l1.8 1L184.2 14l-21.3 12.4L118.7 1l.9-.5h84.1zm-87.9 0l.6.4.2.1-21.2 12.5-21.3 12.4L30.1.6l.2-.1h85.5zM.5.5h27.3l.3.1L.5 16.8V.5zM.5 18L29.1 1.2l44 25.3-42 24.5L.5 33.4V18zm0 16.6l29.6 17-18 10.5L.5 68.9V34.6zm30.6 17.6l22.1 12.7 22.1 12.7-21.6 12.6L32 102.9.5 84.8V70.1l30.6-17.9zM.5 86l30.4 17.5L.5 121.3V86zm0 87.1v-35.4l30.6 17.6-12.8 7.5L.5 173.1zm18.3-9.6l13.3-7.8 21.7 12.5 21.7 12.5-10.6 6.2-32 18.7L.5 187v-12.8l18.3-10.7zM.5 224.6v-36.5L32 206.2l-21 12.3-10.5 6.1zm11-5.3L33 206.8l21.7 12.5 21.7 12.5-21.6 12.7L33.1 257 .5 238.3v-12.5l11-6.5zm-11 56.8v-36.6l31.6 18.2-21.4 12.5-10.2 5.9zm0 1.2l10.8-6.3 21.8-12.7 22 12.6 22 12.6-31.3 18.3-11.5 6.7-26-14.9-7.8-4.5v-11.8zm0 50.9v-37.9l7.2 4.1 25.5 14.7-13.6 8L.5 328.2zm19.6-10.3l14.1-8.3 21.9 12.6L78 334.8l-21.8 12.7-21.8 12.7L.5 340.8v-11.4l19.6-11.5zM.5 380.2v-38.3l33.1 19-23.9 14-9.2 5.3zm0 11.8v-10.6l9.9-5.8 24.1-14.1 43.5 25-41.2 24.1-2 1.2-33.7-19.4-.6-.4zm33.3 20.3L.5 431.8v-38.6l33.3 19.1zM.5 432.9l34.3-20 42 24.1-43.5 25.5L.5 443.7v-10.8zm0 11.9L32.3 463 10 476l-9.5 5.6v-36.8zm0 38l9.7-5.7 23.1-13.5 21.9 12.6 21.9 12.6-20.6 12.1L35.9 513 .5 492.6v-9.8zm34.4 30.7L.5 533.6v-39.8l34.4 19.7zM.5 534.8l35.4-20.7 21.4 12.3 21.4 12.3L57 551.4 35.4 564 .5 544v-9.2zm0 49.6v-39.3l33.9 19.4-10.4 6.1L.5 584.4zm24.4-13.2l10.5-6.1 21.2 12.1 21.2 12.1-21.3 12.5L35 614.4.5 594.6v-9l24.4-14.4zm.7 38.9l8.4 4.8L.5 634.6v-38.8l25.1 14.3zm9.4 5.4l45.1 25.8-42.5 24.8L.5 644.9v-9.2L35 615.5zM.5 687.9V646l36.1 20.7-14.2 8.3L.5 687.9zm0 1.2l22.7-13.3 14.5-8.5L59.9 680l22.2 12.7-21.5 12.6L39 718l-19.3-11L.4 696v-6.9zm0 51.4V697l18.8 10.8L38 718.6 23.6 727 .5 740.5zm0 1.2l23.9-14 14.6-8.6 22.2 12.7 22.2 12.7L74 750l-33.1 19.3-10.7-6.2L.5 746.3v-4.6zm0 51.5v-45.7l30 17.3 9.4 5.4-26.2 15.3-13.2 7.7zm0 1.1l12.9-7.6 27.5-16.1 21.7 12.5 21.7 12.5-21.8 12.8-21.8 12.8-3.3-1.9L.5 798.1v-3.8zm0 5l36 20.7 3.2 1.8L.5 844.6v-45.3zm0 46.5l40.2-23.5 21.7 12.5 21.7 12.5-21.6 12.6-21.6 12.6-14.8-8.5L.5 849.4v-3.6zm0 50.3v-45.6L25.7 865l14.1 8.1-26.1 15.3-13.2 7.7zm0 1.2l13-7.6 27.4-16 43.4 25L63 911.1l-21.2 12.4-9.2-5.3L.5 899.8v-2.5zm0 50.3v-46.7l31.7 18.2 8.6 4.9-15.8 9.3L.5 947.6zm0 1.2l25.6-15 15.7-9.2 21.7 12.5 21.7 12.5-10.9 6.4-32.6 19.1-12.7-7.3L.5 951.4v-2.6zm0 3.7l28.4 16.3 11.8 6.8L11.1 993l-9.2 5.4-1.4-.8v-45.1zm0 46.2l.4.2-.4.2v-.4zm0 1.6l1.4-.8 21.7 12.5 21.7 12.5-21.2 12.4L3 1049.2l-2.5-1.4v-47.5zm0 48.6l1.5.9-1.5.9v-1.8zm0 2.9l2.5-1.5 43.8 25.2-10.7 6.3L4 1100.5l-.4-.2-3.1-1.8v-46.7zm0 50.7v-2.9L3 1101l-1 .6-1.5.9zm0 1.2l3.5-2 21.4 12.3 21.4 12.3-32.5 19-10.1 5.9-.2-.1-3.5-2v-45.4zm0 49.6v-3l2.6 1.5-1.1.6-1.5.9zm0 38.2v-37.1l2.8-1.6.8-.5 21.4 12.3 21.4 12.3-25 14.6H.5zm23.4 0l24-14 24.4 14H23.9zm84.8 0H74.3l-25.4-14.6 10.3-6 32.3-18.9 42.7 24.6-22.3 13.1-3.2 1.8zm51.5 0h-49.6l3-1.7 21.6-12.6 10 5.8 15 8.5zm2 0l-15.6-9-10.4-6 21.4-12.5 21.4-12.5 4.1 2.3 38.7 22.3-23.5 13.7-2.9 1.7h-33.2zm35.2 0l25.4-14.8 25.8 14.8h-51.2zm53.3 0l-26.8-15.4 42.4-24.7 24.1 13.8 24.1 13.8-21.4 12.5h-42.4zm44.3 0l20.4-11.9 20.8 11.9H295zm43.1 0l-21.8-12.5 19.3-11.3 19.3-11.3 22.2 12.8 22.2 12.8-16.4 9.6h-44.8zm46.9 0l15.4-9 15.7 9H385zm33.1 0l-16.7-9.6 33.7-19.7 9.9-5.8 22.6 13 22.6 13-15.6 9.1h-56.5zm58.5 0l14.7-8.6 12.8 7.4 2.1 1.2h-29.6zm31.6 0l-15.9-9.2 21.2-12.4 21.2-12.4 42.6 24.5-16.2 9.5h-52.9zm54.8 0l15.2-8.9 15.5 8.9H563zm32.7 0l-16.5-9.5 21.7-12.7 21.7-12.7 21.7 12.5 21.7 12.5-17 9.9h-53.3zm55.4 0l16-9.4 7.9 4.5 8.4 4.8h-32.3zm34.3 0l-8-4.6-9.3-5.3 21.7-12.7 21.7-12.7 21.7 12.5 21.7 12.5-17.7 10.3h-51.8zm53.7 0l16.7-9.8 17 9.8h-33.7zm35.7 0l-18-10.3 32.5-19 10.6-6.2 21.7 12.5 21.7 12.5-18.2 10.6h-50.3zm52.4 0l17.2-10.1 15.9 9.1 1.6.9h-34.7zm36.7 0l-.6-.3-17.9-10.3 21.6-12.6 21.6-12.6 21.7 12.5 21.7 12.5-18.8 11h-49.3zm51.3 0l16-9.4 1.7-1 15.2 8.7 2.9 1.7h-35.8zm37.9 0l-2.8-1.6-16.4-9.4 21.4-12.5 21.4-12.5 21.9 12.6 21.9 12.6-18.6 10.9h-48.8zm50.9 0l4.2-2.4 13.4-7.9 16.3 9.3 1.7 1H1004zm37.6 0l-.6-.3-18.4-10.5 42.5-24.9 38.2 21.9 4.6 2.6-19.1 11.2h-47.2zm49.2 0l18.2-10.6 18.5 10.6h-36.7zm84.8 0h-46.1l-19.5-11.2 21.7-12.7 21.7-12.7 36.7 21 6.1 3.5-18.5 10.8-2.1 1.3zm2 0l19.6-11.4 19.9 11.4h-39.5zm41.5 0l-21-12 41.3-24.2 24.3 13.9 18.6 10.6-19.9 11.6h-43.3zm45.3 0l19-11.1 19.3 11.1h-38.3zm84.7 0h-44.5l-20.3-11.6 21.4-12.5 21.4-12.5.2.1 42.5 24.4-3.8 2.2-16.9 9.9zm2 0l15.8-9.2 3.8-2.2 20 11.5h-39.6zm90.3 0h-48.6l-21-12.1 21.6-12.6 21.6-12.6 4.7 2.7 40.8 23.4-16.1 9.4-3 1.8zm2 0l1.7-1 16.4-9.6 18.4 10.6h-36.5zm38.5 0l-19.4-11.2 7.9-4.6 35.2-20.5 22.7 13.1 22.7 13.1-14.9 8.7-2.5 1.5h-51.7zm53.7 0l2.7-1.6 13.8-8.1 16.7 9.6h-33.2zm85.2 0h-50.1l-17.7-10.2 21.6-12.6 21.6-12.6 43 24.7-11 6.4-7.4 4.3zm2 0l6.8-4 10.5-6.2 8.9 5.1 8.8 5h-35zm84.6 0h-47.6l-9.1-5.2-9.5-5.5 21.7-12.7 21.7-12.7 37.4 21.5 5.3 3-15.4 9-4.5 2.6zm2 0l3.5-2 15.4-9 8.9 5.1 10.3 5.9h-38.1zm87.8 0h-47.7l-10.7-6.1-9.5-5.5 21.1-12.3 21.1-12.3 22.1 12.7 22.1 12.7-11.5 6.7-7 4.1zm2 0l6.4-3.7 11.1-6.5 16.8 9.6 1 .6h-35.3zm86.5 0h-49.4l-18.7-10.8 21.7-12.7 21.7-12.7 1.5.8 42.1 24.2-5.9 3.4-13 7.8zm33.8 0h-31.8l12.6-7.4 5.3-3.1 8.1 4.7 5.8 3.3v2.5zm0-3.7l-5.3-3.1-7.6-4.4 12.9-7.5v15zm0-16.1l-13.9 8.1-43-24.7-.6-.4 41-24 3.5-2 6.5 3.7 6.5 3.7v35.6zm0-36.7l-6-3.4-6-3.4 11.9-7v13.8zm0-14.9l-12.9 7.6-44.3-25.4 41.4-24.2 4.8 2.8 11 6.3v32.9zm0-34.2l-10.4-6-4.4-2.5 14.8-8.7v17.2zm0-18.3l-15.8 9.3-42-24.1-.6-.4 21.3-12.4 21.3-12.4 5 2.9 10.9 6.3v30.8zm0-32.2l-10.3-5.9-4.5-2.6 14.9-8.7v17.2zm0-18.4l-15.9 9.3-42.4-24.4-.8-.5 21.3-12.5 21.3-12.5 5.1 2.9 11.4 6.6v31.1zm0-32.1l-10.9-6.2-4.7-2.7 9-5.3 6.6-3.9v18.1zm0-19.2l-7.1 4.2-9.5 5.5-44.7-25.7-.5-.3 19.2-11.2 19.2-11.2 7.2 4.1 16.1 9.3v25.3zm0-26.4l-15.6-8.9-6.8-3.9 22.3-13.1v25.9zm0-27.1l-23.3 13.6-45.5-26.2 21.6-12.6 21.6-12.6 8.2 4.7 17.4 10v23.1zm0-24.2l-16.9-9.7-7.8-4.5 24.6-14.4V888zm0-29.7l-25.6 15-42.4-24.4 21.6-12.6 21.6-12.6 24.8 14.2v20.4zm0-49.1v27.6l-23.8-13.7 15.6-9.1 8.2-4.8zm0-1.2l-8.4 4.9-16.4 9.6-43.4-24.9 21.6-12.6 21.6-12.6 8 4.6 17 9.8V808zm0-50.4v27.8L1903 776l-7.6-4.3 8.3-4.8 15.8-9.3zm0-1.1l-17.5 10.2-7.5 4.4-42.8-24.6 21.6-12.6 21.6-12.6 7.6 4.4 16.9 9.7v21.1zm0-22.3l-16.3-9.4-7.2-4.2 23.5-13.8v27.4zm0-28.4l-24.5 14.3-42.1-24.2-.7-.4 21.6-12.6 21.6-12.6 7.6 4.3 16.6 9.5v21.7zm0-49.7v26.8l-16-9.2-7.1-4.1 8.1-4.7 15-8.8zm-16.8 8.7l-7.3 4.3-43.7-25.1-.2-.1 22-12.9 22-12.9 24 13.8V655l-16.8 9.8zm-6.2-47.3l23-13.5v26.7l-23-13.2zm23-14.6l-3.1 1.8-20.9 12.2-35.9-20.6-7.4-4.3 21.4-12.5L1895 567l24.5 14.1v21.8zm0-50.2V580l-23.5-13.5 6.2-3.6 17.3-10.2zm-17.3 9l-7.2 4.2-21.7-12.5-21.7-12.5 21.2-12.4 21.2-12.4 25.5 14.7v20.7l-17.3 10.2zm17.3-60.4v28.4l-24.5-14.1 9.4-5.5 15.1-8.8zm-15.6 7.9l-9.9 5.8-36.4-20.9-7-4 21.3-12.5 21.3-12.5 26.4 15.1V500l-15.7 9.2zm15.6-59.4v29.4l-25.4-14.6 9.8-5.7 15.6-9.1zm0-1.2l-16 9.4-10.3 6-37.7-21.7-5.7-3.3 42.5-24.8 16 9.2 11.3 6.5v18.7zm-26.3-34.9l26.3-15.4v30.5l-11.1-6.4-15.2-8.7zm26.3-16.6l-27.3 16-21.2-12.2-21.2-12.2 21.6-12.6 21.6-12.6 18.5 10.6 8.1 4.6v18.4zm-25.6-34.2l25.6-15v29.6l-8.5-4.9-17.1-9.7zm-1-.6l-22.7-13-22.7-13 21.7-12.7 21.7-12.7 28.5 16.4v19.6l-11 6.4-15.5 9zm-.9-52l27.5-16.1V326l-27.5-15.7zm27.5-17.3l-28.5 16.7-22.2-12.7-22.2-12.7 42.5-24.9 23 13.2 7.4 4.2V293zm0-51.4v34.1l-6.8-3.9-22.6-13 11.2-6.5 18.2-10.7zm0-16.3v15.1l-18.7 10.9-11.7 6.9-46.9-26.9 21.7-12.7 21.7-12.7 16.9 9.7 17 9.7zm-16.4-10.6l-16.4-9.4 32.8-19.1v38l-16.4-9.5zm16.4-29.7l-33.8 19.7-41.2-23.7-3.5-2 21.5-12.6 21.5-12.6 28.3 16.3 7.1 4.1V185zm-34.5-31.7l22.7-13.3 11.8-6.9v40l-6.4-3.7-28.1-16.1zm34.5-21.3l-35.5 20.7-21.1-12.1-21.1-12.1 44.2-25.8 28.8 16.5 4.7 2.7V132zm-32.5-29.9l32.5-19v37.7l-6.7-3.8-25.8-14.9zm-1-.6l-21.4-12.3-21.4-12.3 42.3-24.7 34 19.6v10.1l-33.5 19.6zm33.5-69.2v38.3l-33-19 16.8-9.8 16.2-9.5zm0-1.1l-16.7 9.8-17.3 10-21.4-12.3-21.4-12.3 26.6-15.5 16.5-9.7 33.7 19.3v10.7z" opacity=".08"/></svg>