<svg width="80" height="80" xmlns="http://www.w3.org/2000/svg"><g fill="none" fill-rule="evenodd"><g fill="#F1563C"><path d="M33.367 19.867c-3.534 0-7.07 1.345-9.76 4.036-5.382 5.382-5.382 14.139 0 19.52 5.382 5.382 14.14 5.382 19.52 0a13.714 13.714 0 004.044-9.76c0-3.687-1.436-7.153-4.043-9.76a13.763 13.763 0 00-9.76-4.036m0 29.252c-3.96 0-7.92-1.508-10.934-4.522-6.029-6.029-6.029-15.838 0-21.867 6.028-6.029 15.838-6.03 21.867 0a15.36 15.36 0 014.529 10.933 15.36 15.36 0 01-4.53 10.934 15.413 15.413 0 01-10.933 4.522M53.941 13.66h-6.89a.83.83 0 010-1.66h6.89a.83.83 0 010 1.66M18.72 13.66h-6.89a.83.83 0 010-1.66h6.89a.83.83 0 010 1.66M14.106 19.44H11.83a.83.83 0 010-1.66h2.276a.83.83 0 010 1.66M64.92 13.66h-6.184a.83.83 0 010-1.66h6.183a.83.83 0 010 1.66M64.92 19.44H53.003a.83.83 0 010-1.66H64.92a.83.83 0 010 1.66M64.92 25.22h-8.648a.83.83 0 010-1.659h8.647a.83.83 0 010 1.66M64.92 31h-7.263a.83.83 0 010-1.659h7.262a.83.83 0 010 1.66M64.92 36.781h-7.263a.83.83 0 010-1.659h7.262a.83.83 0 010 1.66"/><path d="M50.514 52.48l-4.027-4.027-.581.479c-7.884 6.49-19.28 5.931-26.51-1.298-7.703-7.704-7.703-20.238 0-27.942 7.705-7.703 20.239-7.703 27.943 0a19.707 19.707 0 012.2 25.318l-.402.571 4.15 4.151c.3-.254.683-.42 1.059-.446.308-.022.597-.012.868.025l-3.925-3.925a21.362 21.362 0 00-2.777-26.867c-8.351-8.35-21.938-8.35-30.288 0-8.351 8.35-8.351 21.938 0 30.288 4.183 4.183 9.651 6.306 15.143 6.306 4.561 0 9.139-1.466 13.003-4.43l3.746 3.745c-.11-.71.018-1.393.398-1.948"/><path d="M54.62 50.157c-.659 0-1.275.254-1.736.715l-1.36 1.36a2.456 2.456 0 000 3.469l9.594 9.593c.46.46 1.077.714 1.735.714.658 0 1.274-.253 1.734-.714l1.36-1.36a2.456 2.456 0 000-3.468l-9.594-9.594a2.435 2.435 0 00-1.734-.715m8.234 17.51c-1.101 0-2.134-.425-2.908-1.2l-9.593-9.593a4.117 4.117 0 010-5.816l1.36-1.36a4.084 4.084 0 012.907-1.2c1.1 0 2.134.427 2.908 1.2l9.593 9.594a4.083 4.083 0 011.2 2.908c0 1.1-.426 2.133-1.2 2.907l-1.36 1.36a4.081 4.081 0 01-2.907 1.2M33.374 32.91c-1.516 0-2.314-.686-2.314-2.037 0-1.107 1.029-2.016 2.314-2.016 1.272 0 2.313.91 2.313 2.016 0 .421.333.752.74.752.412 0 .742-.33.742-.752 0-1.489-1.004-2.757-2.415-3.261a3.464 3.464 0 00-.974-.179h-.01a6.112 6.112 0 00-.87.014l-.02.001c-.464.04-.925.145-1.341.355-1.174.591-1.973 1.743-1.973 3.07 0 1.704.995 3.543 3.808 3.543 1.506 0 2.313.684 2.313 2.013 0 1.13-1.041 2.038-2.313 2.038-1.285 0-2.314-.909-2.314-2.038a.742.742 0 00-.753-.73.74.74 0 00-.741.73c0 1.727 1.317 3.144 3.056 3.455.43.073.87.082 1.302.025l.192-.025c1.736-.31 3.053-1.728 3.053-3.455 0-1.682-.995-3.518-3.795-3.518M34.116 26.18a.748.748 0 11-1.497 0 .748.748 0 011.497 0M34.116 41.17a.748.748 0 11-1.497 0 .748.748 0 011.497 0"/></g><path d="M0 0h80v80H0z"/></g></svg>