<svg xmlns="http://www.w3.org/2000/svg" width="30" height="40" viewBox="0 0 30 40">
  <defs>
    <style>
      .cls-1 {
        fill: #91b7d4;
        fill-rule: evenodd;
      }
    </style>
  </defs>
  <path id="bt_logo.svg" class="cls-1" d="M721.368,1621.43v7.21l3.629-3.56Zm0,20.99,3.629-3.56-3.629-3.65v7.21Zm10.97-24.08c-2.178-4.04-5.565-6.21-12.18-6.34h-0.907c-7.738.16-13.075,4.24-13.773,11.49-0.233,2.41-.415,4.88-0.485,7.29v3.96a26.881,26.881,0,0,0,1.695,9.43c2.07,4.82,5.675,7.7,12.126,7.84h1.022c7.1-.16,11.7-2.14,14.034-10.14S734.515,1622.38,732.338,1618.34Zm-13.713,30.98v-13.87l-5.969,5.86-2.137-2.09,7.3-7.17-7.259-7.13,2.138-2.1,5.928,5.82v-13.78L729.111,1625l-7.1,6.97,7.139,7.01Z" transform="translate(-705 -1612)"/>
</svg>
