<svg xmlns="http://www.w3.org/2000/svg" width="62" height="62" viewBox="0 0 31 31">
  <defs>
    <style>
      .cls-1 {
        fill: #666;
        fill-rule: evenodd;
      }
    </style>
  </defs>
  <path id="rss.svg" class="cls-1" d="M773.275,4666.83a4.132,4.132,0,1,1-4.155-4.11h0.024A4.13,4.13,0,0,1,773.275,4666.83Zm-8.256-10.37a14.494,14.494,0,0,1,14.491,14.5v0.02h5.963a20.485,20.485,0,0,0-20.454-20.46v5.94h0Zm0.007-10.53a25.067,25.067,0,0,1,25.016,25.06H796a31.023,31.023,0,0,0-30.981-31v5.94h0.007Z" transform="translate(-765 -4640)"/>
</svg>
