<svg xmlns="http://www.w3.org/2000/svg" width="74" height="56" viewBox="0 0 37 28">
  <defs>
    <style>
      .cls-1 {
        fill: #666;
        fill-rule: evenodd;
      }
    </style>
  </defs>
  <path id="send-email.svg" class="cls-1" d="M949,4664.33a4.675,4.675,0,0,1-.594,2.25l-11.682-13.19,11.556-10.2a4.655,4.655,0,0,1,.72,2.48v18.66h0Zm-18.5-8.55,16.08-14.19a4.48,4.48,0,0,0-2.205-.59h-27.75a4.461,4.461,0,0,0-2.2.59Zm4.483-.86-3.722,3.29a1.143,1.143,0,0,1-1.522,0l-3.723-3.29-11.83,13.36a4.531,4.531,0,0,0,2.439.72h27.75a4.531,4.531,0,0,0,2.439-.72Zm-22.263-11.73a4.655,4.655,0,0,0-.72,2.48v18.66a4.664,4.664,0,0,0,.594,2.25l11.681-13.19Z" transform="translate(-912 -4641)"/>
</svg>
