<svg xmlns="http://www.w3.org/2000/svg" width="66" height="66" viewBox="0 0 33 33">
  <defs>
    <style>
      .cls-1 {
        fill: #666;
        fill-rule: evenodd;
      }
    </style>
  </defs>
  <path id="Subscriber.svg" class="cls-1" d="M1069.6,4639h19.8v3.3h-19.8V4639Zm-3.3,6.6h26.4v3.3h-26.4v-3.3Zm28.89,6.6h-31.38a0.807,0.807,0,0,0-.81.81v18.18a0.807,0.807,0,0,0,.81.81h31.38a0.807,0.807,0,0,0,.81-0.81v-18.18A0.807,0.807,0,0,0,1095.19,4652.2Zm-8.19,6.95-7.27,7.27-1.37,1.37a0.9,0.9,0,0,1-.68.28,0.913,0.913,0,0,1-.68-0.28l-1.37-1.37-3.63-3.63a0.944,0.944,0,0,1-.29-0.69,0.922,0.922,0,0,1,.29-0.68l1.36-1.37a0.978,0.978,0,0,1,1.37,0l2.95,2.97,6.59-6.6a0.954,0.954,0,0,1,1.37,0l1.36,1.36A0.954,0.954,0,0,1,1087,4659.15Z" transform="translate(-1063 -4639)"/>
</svg>
