<svg xmlns="http://www.w3.org/2000/svg" width="76" height="76" viewBox="0 0 38 38">
  <defs>
    <style>
      .cls-1 {
        fill: #666;
        fill-rule: evenodd;
      }
    </style>
  </defs>
  <path id="user_input.svg" data-name="user input.svg" class="cls-1" d="M867.028,4640.65a1.166,1.166,0,0,0-1.242-.13l-1.349.73a1.349,1.349,0,0,1-1.291-.08,18.514,18.514,0,0,0-1.655-.96,1.362,1.362,0,0,1-.7-1.08l-0.032-1.54a1.158,1.158,0,0,0-.733-1.01c-0.592-.19-1.192-0.36-1.8-0.49a1.153,1.153,0,0,0-1.146.49l-0.815,1.31a1.362,1.362,0,0,1-1.158.58,15.216,15.216,0,0,0-1.91-.02,1.375,1.375,0,0,1-1.147-.6l-0.787-1.32a1.172,1.172,0,0,0-1.137-.52q-0.912.18-1.807,0.45a1.171,1.171,0,0,0-.752,1l-0.062,1.54a1.392,1.392,0,0,1-.722,1.08,15.676,15.676,0,0,0-1.938,1.1,1.377,1.377,0,0,1-1.292.07l-1.348-.73a1.166,1.166,0,0,0-1.242.13c-0.23.21-.456,0.42-0.677,0.65s-0.435.44-.642,0.67a1.176,1.176,0,0,0-.136,1.25l0.73,1.34a1.37,1.37,0,0,1-.071,1.29,16.243,16.243,0,0,0-.962,1.66,1.386,1.386,0,0,1-1.087.7l-1.538.03a1.168,1.168,0,0,0-1.01.74c-0.194.59-.358,1.19-0.493,1.79a1.166,1.166,0,0,0,.494,1.15l1.308,0.81a1.381,1.381,0,0,1,.577,1.16,17.17,17.17,0,0,0-.021,1.91,1.386,1.386,0,0,1-.6,1.15l-1.319.79a1.148,1.148,0,0,0-.516,1.13c0.121,0.61.272,1.21,0.453,1.81a1.149,1.149,0,0,0,1,.75l1.542,0.06a1.384,1.384,0,0,1,1.075.73,16.23,16.23,0,0,0,1.1,1.93,1.385,1.385,0,0,1,.072,1.3l-0.731,1.34a1.183,1.183,0,0,0,.137,1.25c0.208,0.23.421,0.45,0.642,0.67s0.447,0.44.677,0.64a1.148,1.148,0,0,0,1.242.14l1.348-.73a1.377,1.377,0,0,1,1.292.07,14.672,14.672,0,0,0,1.655.96,1.377,1.377,0,0,1,.7,1.09l0.031,1.54a1.159,1.159,0,0,0,.733,1.01c0.593,0.19,1.192.36,1.8,0.49a1.153,1.153,0,0,0,1.146-.49l0.815-1.31a1.362,1.362,0,0,1,1.158-.58,15.218,15.218,0,0,0,1.91.02,1.378,1.378,0,0,1,1.148.6l0.787,1.32a1.172,1.172,0,0,0,1.137.52q0.912-.18,1.806-0.45a1.174,1.174,0,0,0,.753-1l0.061-1.54a1.4,1.4,0,0,1,.722-1.08,15.676,15.676,0,0,0,1.938-1.1,1.377,1.377,0,0,1,1.292-.07l1.347,0.73a1.168,1.168,0,0,0,1.243-.13c0.23-.21.455-0.43,0.677-0.65s0.435-.44.642-0.67a1.178,1.178,0,0,0,.136-1.25l-0.731-1.34a1.391,1.391,0,0,1,.072-1.3,15.269,15.269,0,0,0,.963-1.65,1.359,1.359,0,0,1,1.086-.7l1.539-.03a1.166,1.166,0,0,0,1.009-.74c0.194-.59.358-1.19,0.493-1.79a1.164,1.164,0,0,0-.494-1.15l-1.308-.81a1.4,1.4,0,0,1-.578-1.16,16.7,16.7,0,0,0,.021-1.91,1.373,1.373,0,0,1,.6-1.15l1.319-.79a1.157,1.157,0,0,0,.516-1.14c-0.121-.6-0.272-1.21-0.453-1.8a1.149,1.149,0,0,0-1-.75l-1.544-.07a1.352,1.352,0,0,1-1.074-.72,16.084,16.084,0,0,0-1.1-1.93,1.389,1.389,0,0,1-.073-1.3l0.731-1.34a1.178,1.178,0,0,0-.136-1.25c-0.208-.23-0.42-0.45-0.642-0.67S867.258,4640.86,867.028,4640.65Zm-5.674,10.42a1.188,1.188,0,0,1,1.659,0,1.175,1.175,0,0,1,0,1.66l-4,4.01,2.83,2.83a9.227,9.227,0,0,1-1.419,1.86,9.085,9.085,0,1,1-10.986-14.27l2.829,2.83,4-4a1.174,1.174,0,0,1,1.66,1.66l-4,4,3.428,3.43Z" transform="translate(-835 -4636)"/>
</svg>
