<svg xmlns="http://www.w3.org/2000/svg" width="50" height="50" viewBox="0 0 50 50">
  <defs>
    <style>
      .cls-1 {
        fill: #666;
        fill-rule: evenodd;
      }
    </style>
  </defs>
  <g id="android">
    <path class="cls-1" d="M488.588,17.255a2.379,2.379,0,0,0-2.348,2.407v9.408a2.349,2.349,0,1,0,4.7,0V19.662A2.379,2.379,0,0,0,488.588,17.255Zm-28.329,0a2.379,2.379,0,0,0-2.349,2.407v9.408a2.349,2.349,0,1,0,4.7,0V19.662A2.379,2.379,0,0,0,460.259,17.255Zm3.763,0.073V34.515a1.839,1.839,0,0,0,1.83,1.85h2.093V41.6a2.35,2.35,0,1,0,4.7,0V36.364H476.3V41.6a2.35,2.35,0,1,0,4.7,0V36.364h2.092a1.841,1.841,0,0,0,1.832-1.85V17.328h-20.9Zm15.356-8.906,1.931-2.828a0.354,0.354,0,0,0-.066-0.493,0.348,0.348,0,0,0-.478.116l-2,2.938a11.9,11.9,0,0,0-8.673,0l-2-2.938A0.348,0.348,0,0,0,467.6,5.1a0.356,0.356,0,0,0-.066.493l1.931,2.828a9.185,9.185,0,0,0-5.494,7.375h20.9A9.185,9.185,0,0,0,479.378,8.422Zm-9.362,4.458a1.167,1.167,0,1,1,1.156-1.167A1.163,1.163,0,0,1,470.016,12.88Zm8.961,0a1.167,1.167,0,1,1,1.156-1.167A1.162,1.162,0,0,1,478.977,12.88Z" transform="translate(-450)"/>
  </g>
</svg>
