<svg xmlns="http://www.w3.org/2000/svg" width="50" height="50" viewBox="0 0 50 50">
  <defs>
    <style>
      .cls-1 {
        fill: #666;
        fill-rule: evenodd;
      }
    </style>
  </defs>
  <g id="awss3">
    <path class="cls-1" d="M328.022,20.466c-0.466-.153-0.85-0.281-1.235-0.406-1.084-.354-2.166-0.713-3.254-1.055a0.494,0.494,0,0,1-.4-0.541c-0.014-2-.044-4.006-0.064-6.009-0.005-.581.034-0.6,0.6-0.423,1.289,0.4,2.576.816,3.871,1.2a0.622,0.622,0,0,1,.536.7c-0.022,2-.012,4.009-0.016,6.013C328.064,20.093,328.041,20.24,328.022,20.466Zm11.936-.211c-0.147-.031-0.244-0.043-0.335-0.072-1.367-.445-2.731-0.9-4.1-1.334a0.518,0.518,0,0,1-.436-0.558c-0.011-1.95-.043-3.9-0.062-5.85-0.006-.558.041-0.585,0.576-0.418,1.331,0.417,2.661.839,4,1.248a0.49,0.49,0,0,1,.433.516c-0.011,2.048-.008,4.1-0.013,6.144A2.051,2.051,0,0,1,339.958,20.255Zm-16.894,6.563c0-.983.009-1.966,0-2.949a0.525,0.525,0,0,1,.424-0.606c1.391-.419,2.775-0.856,4.158-1.3,0.34-.11.431,0.013,0.427,0.323q-0.04,3.03-.069,6.06a0.449,0.449,0,0,1-.371.476q-2.092.674-4.18,1.366c-0.358.119-.378-0.087-0.378-0.337q0-1.516,0-3.032h-0.006Zm-12.122-.037c0-.983.009-1.966-0.006-2.948a0.5,0.5,0,0,1,.419-0.568q2.084-.632,4.156-1.3c0.329-.106.439-0.009,0.434,0.313-0.028,2.02-.042,4.039-0.087,6.059a0.6,0.6,0,0,1-.323.449c-1.411.487-2.836,0.939-4.255,1.405-0.359.118-.336-0.127-0.337-0.335C310.94,28.83,310.942,27.805,310.942,26.781Zm18.177-6.538c-0.014-.17-0.034-0.3-0.035-0.439,0-1.966.006-3.932-.008-5.9a0.579,0.579,0,0,1,.479-0.656c1.337-.4,2.665-0.829,4-1.243,0.413-.129.461-0.1,0.461,0.346,0,1.966,0,3.932,0,5.9a0.471,0.471,0,0,1-.315.558c-1.449.466-2.895,0.942-4.342,1.413A1.42,1.42,0,0,1,329.119,20.243Zm11.958,0.024c-0.016-.2-0.039-0.341-0.039-0.486,0-1.952.007-3.9-.01-5.856a0.6,0.6,0,0,1,.5-0.683c1.324-.393,2.639-0.819,3.958-1.229,0.128-.04.264-0.056,0.443-0.092,0.015,0.2.036,0.347,0.036,0.495,0,1.924-.011,3.848.006,5.773a0.606,0.606,0,0,1-.5.684c-1.32.41-2.628,0.851-3.942,1.278C341.4,20.193,341.266,20.219,341.077,20.267Zm-23.9,1.631c0.278,0.072.522,0.125,0.76,0.2,1.251,0.39,2.5.791,3.753,1.175a0.439,0.439,0,0,1,.364.477q-0.007,3.073,0,6.146c0,0.267-.073.384-0.38,0.28q-2.064-.695-4.138-1.36a0.494,0.494,0,0,1-.414-0.532c0.007-2.007,0-4.014,0-6.022A2.742,2.742,0,0,1,317.178,21.9Zm-6.095,9.778c0.278,0.073.5,0.12,0.707,0.186,1.277,0.4,2.554.795,3.823,1.217a0.557,0.557,0,0,1,.328.389c0.02,2.115.013,4.23,0.01,6.345a0.861,0.861,0,0,1-.043.18,1.068,1.068,0,0,1-.245-0.019c-1.419-.462-2.835-0.932-4.255-1.389a0.469,0.469,0,0,1-.386-0.507c0.008-2,0-4.009.007-6.014A3.315,3.315,0,0,1,311.083,31.676ZM305.055,21.9c0.277,0.072.521,0.124,0.759,0.2,1.223,0.384,2.442.781,3.669,1.155a0.531,0.531,0,0,1,.454.585c-0.014,1.993,0,3.986-.008,5.979,0,0.442-.044.462-0.46,0.324-1.352-.445-2.7-0.891-4.059-1.326a0.494,0.494,0,0,1-.417-0.529c0.01-2.007,0-4.013.007-6.02A3.01,3.01,0,0,1,305.055,21.9ZM317.067,40c-0.011-.15-0.03-0.285-0.03-0.419,0-1.966.006-3.932-.008-5.9a0.576,0.576,0,0,1,.475-0.657c1.337-.4,2.665-0.828,4-1.243,0.418-.13.469-0.1,0.469,0.337,0,1.98,0,3.959,0,5.939a0.467,0.467,0,0,1-.364.522c-1.45.465-2.894,0.945-4.341,1.417A0.943,0.943,0,0,1,317.067,40Zm-5.059-9.109c1.011-.3,1.921-0.517,2.781-0.854a4.425,4.425,0,0,1,3.43,0c0.855,0.343,1.767.55,2.663,0.925-0.118.051-.233,0.111-0.355,0.15-1.235.4-2.47,0.793-3.709,1.177a0.965,0.965,0,0,1-.532.03c-1.334-.41-2.661-0.84-3.99-1.266A2.289,2.289,0,0,1,312.008,30.889Zm15.061-9.719-2.932.944a1.032,1.032,0,0,0-.163.044,3.4,3.4,0,0,1-3-.046c-0.912-.358-1.869-0.605-2.822-1,0.129-.052.255-0.115,0.389-0.155,1.214-.363,2.427-0.73,3.647-1.076a1.27,1.27,0,0,1,.657-0.025c1.3,0.369,2.593.765,3.888,1.155A3.04,3.04,0,0,1,327.069,21.17Zm-12.176-.019c-0.171.07-.278,0.123-0.391,0.16-1.247.4-2.493,0.8-3.744,1.19a0.965,0.965,0,0,1-.532.031c-1.359-.419-2.712-0.859-4.066-1.294a1.152,1.152,0,0,1-.165-0.1,3.228,3.228,0,0,1,.351-0.156c1.268-.38,2.537-0.759,3.808-1.126a0.949,0.949,0,0,1,.5-0.018c1.339,0.387,2.674.789,4.009,1.19A1.6,1.6,0,0,1,314.893,21.151Zm30.043-9.937c-0.249.086-.5,0.176-0.747,0.256-1.032.33-2.057,0.682-3.1,0.97a2.157,2.157,0,0,1-1.1,0c-1.165-.328-2.311-0.719-3.463-1.088-0.132-.042-0.259-0.094-0.487-0.178a3.023,3.023,0,0,1,.351-0.153c1.239-.326,2.477-0.657,3.72-0.965a1.625,1.625,0,0,1,.745-0.019c1.286,0.314,2.564.657,3.844,0.992,0.078,0.02.153,0.054,0.229,0.082C344.929,11.148,344.933,11.181,344.936,11.214Zm-11.949-.005c-0.217.076-.434,0.158-0.653,0.228-1.086.348-2.168,0.7-3.261,1.029a1.538,1.538,0,0,1-.82.046c-1.309-.386-2.606-0.815-3.9-1.231a2.242,2.242,0,0,1-.271-0.146c0.389-.112.689-0.205,0.992-0.285,0.994-.261,1.984-0.541,2.987-0.763a2.5,2.5,0,0,1,1.07.017c1.152,0.267,2.292.581,3.437,0.878,0.141,0.037.281,0.082,0.421,0.123Z" transform="translate(-300)"/>
  </g>
</svg>
