<svg xmlns="http://www.w3.org/2000/svg" width="50" height="50" viewBox="0 0 50 50">
  <defs>
    <style>
      .cls-1 {
        fill: #666;
        fill-rule: evenodd;
      }
    </style>
  </defs>
  <g id="googlemapsapi">
    <path class="cls-1" d="M162,467.19a13.2,13.2,0,0,1,3.273-8.623,11.506,11.506,0,0,1,7.834-4.092,12.061,12.061,0,0,1,12.367,7.681,13.391,13.391,0,0,1-.192,10.958,71.628,71.628,0,0,1-3.985,7.3,45.533,45.533,0,0,0-4.63,9.814c-0.55,1.792-.913,3.643-1.345,5.471a0.281,0.281,0,0,1-.33.286c-0.462-.017-0.925-0.018-1.386,0a0.277,0.277,0,0,1-.33-0.289,43.529,43.529,0,0,0-1.678-6.4,46.589,46.589,0,0,0-3.476-7.436c-1.585-2.771-3.308-5.461-4.7-8.345A13.6,13.6,0,0,1,162,467.19Zm12.28,22.637c0.063-.181.1-0.288,0.138-0.391,0.562-1.433,1.078-2.886,1.7-4.292a63.251,63.251,0,0,1,3.854-7.133,49.839,49.839,0,0,0,3.178-5.946,10.783,10.783,0,0,0-1.07-11.13,9.527,9.527,0,0,0-16.318,1.071,10.787,10.787,0,0,0-.161,10.516c1.151,2.264,2.429,4.463,3.709,6.655a53.381,53.381,0,0,1,4.654,9.732C174.054,489.192,174.154,489.474,174.277,489.827Zm-0.016-19.244a3.3,3.3,0,1,1,3.262-3.3A3.292,3.292,0,0,1,174.261,470.583Z" transform="translate(-150 -450)"/>
  </g>
</svg>
