<svg xmlns="http://www.w3.org/2000/svg" width="50" height="50" viewBox="0 0 50 50">
  <defs>
    <style>
      .cls-1 {
        fill: #666;
        fill-rule: evenodd;
      }
    </style>
  </defs>
  <g id="html5">
    <path class="cls-1" d="M761.764,452.968h1.974v1.96h1.806v-1.96h1.973V458.9h-1.973v-1.988h-1.806V458.9h-1.974v-5.936h0Zm8.349,1.969h-1.737v-1.969h5.45v1.969h-1.738V458.9h-1.975v-3.967h0Zm4.577-1.969h2.059l1.266,2.085,1.265-2.085h2.059V458.9h-1.966v-2.943l-1.358,2.111h-0.034l-1.359-2.111V458.9H774.69v-5.936Zm7.631,0H784.3v3.974h2.776V458.9h-4.75v-5.936Zm-23.443,8.65,2.824,31.83,12.669,3.535,12.705-3.54,2.827-31.825H758.878Zm25.136,7.554-0.177,1.979-0.079.877H768.9l0.355,4h14.154l-0.1,1.048L782.4,487.351l-0.059.66-7.949,2.214h0l-0.018,0-7.956-2.22-0.544-6.129h3.9L770.048,485l4.325,1.174h0l4.332-1.175,0.451-5.063H765.7l-0.954-10.758-0.093-1.047h19.455Z" transform="translate(-750 -450)"/>
  </g>
</svg>
