<svg xmlns="http://www.w3.org/2000/svg" width="50" height="50" viewBox="0 0 50 50">
  <defs>
    <style>
      .cls-1 {
        fill: #666;
        fill-rule: evenodd;
      }
    </style>
  </defs>
  <g id="iossdk">
    <path class="cls-1" d="M1240.11,482.911a24.393,24.393,0,0,1-2.22,4.122c-1.43,2.181-3.45,4.9-5.96,4.922-2.23.02-2.8-1.447-5.82-1.429s-3.66,1.455-5.89,1.433c-2.51-.023-4.42-2.476-5.86-4.657-4.01-6.1-4.43-13.262-1.96-17.065a8.893,8.893,0,0,1,7.15-4.289c2.65,0,4.33,1.453,6.52,1.453,2.14,0,3.43-1.459,6.51-1.459a8.666,8.666,0,0,1,6.53,3.448,7.46,7.46,0,0,0,1,13.521m-9.86-19.4a7.45,7.45,0,0,0,1.65-5.515,8.082,8.082,0,0,0-5.2,2.794,6.916,6.916,0,0,0-1.7,5.38,6.82,6.82,0,0,0,5.25-2.659" transform="translate(-1200 -450)"/>
  </g>
</svg>
