<svg xmlns="http://www.w3.org/2000/svg" width="50" height="50" viewBox="0 0 50 50">
  <defs>
    <style>
      .cls-1 {
        fill: #666;
        fill-rule: evenodd;
      }
    </style>
  </defs>
  <g id="javascript">
    <path class="cls-1" d="M156.987,606.961v35.015H192V606.961H156.987Zm19.026,22.078H176c0,1.9.009,3.81-.006,5.715a5.007,5.007,0,0,1-.442,2,3.8,3.8,0,0,1-2.313,2.141,6.231,6.231,0,0,1-4.5-.108,4.851,4.851,0,0,1-2.512-2.44,0.1,0.1,0,0,1,.043-0.168q1.248-.748,2.49-1.508c0.082-.048.109-0.026,0.15,0.045a5.385,5.385,0,0,0,.628.94,1.76,1.76,0,0,0,1.284.646,2.819,2.819,0,0,0,.762-0.053,1.389,1.389,0,0,0,1.086-1.261,5.3,5.3,0,0,0,.063-0.863q0-5.431,0-10.864c0-.172.047-0.207,0.21-0.2,0.971,0.008,1.943.006,2.915,0,0.132,0,.165.035,0.165,0.165Q176.01,626.13,176.013,629.039Zm12.8,7.629A4.287,4.287,0,0,1,186.4,638.8a7.229,7.229,0,0,1-2.624.453,7.137,7.137,0,0,1-3.9-1.053,5.866,5.866,0,0,1-2.013-2.178c-0.053-.1-0.051-0.142.054-0.2q1.221-.7,2.434-1.409a0.123,0.123,0,0,1,.205.051,3.921,3.921,0,0,0,1.421,1.444,3.443,3.443,0,0,0,2.91.221,1.506,1.506,0,0,0,.647-2.478,3.217,3.217,0,0,0-.9-0.619c-0.753-.381-1.541-0.679-2.307-1.03a7.957,7.957,0,0,1-2.132-1.341,4.292,4.292,0,0,1-1.4-3,4.488,4.488,0,0,1,.421-2.363,4.088,4.088,0,0,1,2.542-2.132,5.994,5.994,0,0,1,4.384.233,4.759,4.759,0,0,1,2.08,2.023,0.086,0.086,0,0,1-.034.144q-1.194.76-2.381,1.529c-0.087.057-.118,0.026-0.16-0.05a3.136,3.136,0,0,0-.552-0.728,2.027,2.027,0,0,0-2.147-.456,1.435,1.435,0,0,0-.554,2.325,3.1,3.1,0,0,0,.828.58c0.68,0.351,1.4.618,2.093,0.936a10.469,10.469,0,0,1,2.291,1.342,4.287,4.287,0,0,1,1.62,3.263A4.758,4.758,0,0,1,188.811,636.668Z" transform="translate(-150 -600)"/>
  </g>
</svg>
