<?xml version="1.0" encoding="utf-8"?>
<!-- Generator: Adobe Illustrator 22.0.1, SVG Export Plug-In . SVG Version: 6.00 Build 0)  -->
<svg version="1.1" id="Layer_1" xmlns:sketch="http://www.bohemiancoding.com/sketch/ns"
	 xmlns="http://www.w3.org/2000/svg" xmlns:xlink="http://www.w3.org/1999/xlink" x="0px" y="0px" viewBox="0 0 101 101"
	 style="enable-background:new 0 0 101 101;" xml:space="preserve">
<title>Group</title>
<desc>Created with Sketch.</desc>
<g id="Page-1" sketch:type="MSPage">
	<g id="jwt_logo" transform="translate(-150.000000, -538.000000)" sketch:type="MSLayerGroup">
		<g id="Group" transform="translate(0.000000, 413.000000)" sketch:type="MSShapeGroup">
			<g transform="translate(150.000000, 125.000000)">
				<g fill="#666">
					<path d="M57.8,27.2L57.7,0.3h-15l0.1,26.9l7.5,10.3L57.8,27.2z"/>
					<path d="M42.8,73.3v27h15v-27L50.3,63L42.8,73.3z"/>
					<path d="M57.8,73.3l15.8,21.8l12.1-8.8L69.9,64.5l-12.1-3.9V73.3z"/>
					<path d="M42.8,27.2L26.9,5.4l-12.1,8.8L30.6,36l12.2,3.9V27.2z"/>
					<path d="M30.6,36L5,27.7L0.4,41.9L26,50.3l12.1-4L30.6,36z"/>
					<path d="M62.4,54.2l7.5,10.3l25.6,8.3l4.6-14.2l-25.6-8.3L62.4,54.2z"/>
					<path d="M74.5,50.3l25.6-8.4l-4.6-14.2L69.9,36l-7.5,10.3L74.5,50.3z"/>
					<path d="M26,50.3L0.4,58.6L5,72.8l25.6-8.3l7.5-10.3L26,50.3z"/>
					<path d="M30.6,64.5L14.8,86.3l12.1,8.8l15.9-21.8V60.6L30.6,64.5z"/>
					<path d="M69.9,36l15.8-21.8L73.6,5.4L57.8,27.2v12.7L69.9,36z"/>
				</g>
			</g>
		</g>
	</g>
</g>
</svg>
