<?xml version="1.0" encoding="utf-8"?>
<!-- Generator: Adobe Illustrator 21.1.0, SVG Export Plug-In . SVG Version: 6.00 Build 0)  -->
<svg version="1.1" id="Layer_1" xmlns="http://www.w3.org/2000/svg" xmlns:xlink="http://www.w3.org/1999/xlink" x="0px" y="0px"
	 viewBox="0 0 50 50" style="enable-background:new 0 0 50 50;" xml:space="preserve">
<style type="text/css">
	.st0{fill:#666666;}
</style>
<path class="st0" d="M23.8,7.4L10.6,41.8H5.7L18.9,7.4H23.8z"/>
<path class="st0" d="M33.3,7.4L20.1,41.8h-4.9L28.4,7.4H33.3z"/>
<path class="st0" d="M44.3,29.3v-1.8c0-1.3-0.3-2.2-0.9-2.8c-0.6-0.6-1.5-0.9-2.9-0.9h-8.3l-1.6,4.3h8c0.3,0,0.5,0.1,0.6,0.2
	c0.1,0.1,0.2,0.3,0.2,0.6v1c0,0.3-0.1,0.5-0.2,0.6c-0.1,0.1-0.3,0.2-0.6,0.2h-9L28,35h10.6c0.3,0,0.5,0.1,0.6,0.2
	c0.1,0.1,0.2,0.3,0.2,0.6v1c0,0.3-0.1,0.5-0.2,0.6c-0.1,0.1-0.3,0.2-0.6,0.2H27l-1.6,4.3h15.2c1.3,0,2.3-0.3,2.9-0.9
	c0.6-0.6,0.9-1.5,0.9-2.8v-1.8c0-1.1-0.2-2-0.7-2.5c-0.5-0.5-1.2-0.9-2.3-1c1-0.1,1.8-0.4,2.3-1C44,31.3,44.3,30.5,44.3,29.3z"/>
</svg>
