<svg xmlns="http://www.w3.org/2000/svg" width="50" height="50" viewBox="0 0 50 50">
  <defs>
    <style>
      .cls-1 {
        fill: #666;
        fill-rule: evenodd;
      }
    </style>
  </defs>
  <g id="rails">
    <path class="cls-1" d="M786.554,908.3c0.55,0.255.967,0.64,1.53,0.882,0.036-.878-0.034-0.617-1.491-1.482a1.8,1.8,0,0,0-.039.6m-21.433,32.021c-0.4.056-.975-0.03-1.572,0a4.246,4.246,0,0,1-.039-1.242,3.238,3.238,0,0,1,1.611-.079,2.406,2.406,0,0,1,0,1.321m1.613-.36v-1.2a2.017,2.017,0,0,0-1.211-1.361c-1.194.026-2.5-.052-3.625,0.04-0.1,1.823-.011,4.149-0.038,6.173a6.663,6.663,0,0,0,1.609,0,14.58,14.58,0,0,1,.123-1.725c0.562,0.5.918,1.2,1.448,1.725a15.3,15.3,0,0,0,1.733.039c-0.284-.695-1.018-1.284-1.369-2.044a2.186,2.186,0,0,0,1.33-1.643m5.155,0.762a6.579,6.579,0,0,1-1.611,0,3.88,3.88,0,0,1,.081-1.764,11.714,11.714,0,0,1,1.53.039,7.427,7.427,0,0,1,0,1.725m0.362-3.327h-2.377a0.267,0.267,0,0,0-.119.08c-1.778.557-.8,3.99-1.048,6.131a5.631,5.631,0,0,0,1.49,0,8.182,8.182,0,0,1,.122-1.282,7.4,7.4,0,0,1,1.57.04,8.2,8.2,0,0,1,.039,1.242,5.646,5.646,0,0,0,1.492,0c-0.155-2.083.776-5.891-1.169-6.211m4.8,0.04a9.636,9.636,0,0,0-1.41-.04,0.208,0.208,0,0,0-.122.119c0.029,2.018-.053,4.141.042,6.092a5.884,5.884,0,0,0,1.529,0c-0.024-2.042.054-4.194-.039-6.171m-1.772-29.218a6.514,6.514,0,0,0-1.048-1.361,7.011,7.011,0,0,0-1.529.843c0.38,0.513.839,0.953,1.246,1.442a7.235,7.235,0,0,0,1.331-.924m-5.56,4.571a12.623,12.623,0,0,0-1.733-1.2,7.4,7.4,0,0,0-1.128,1.6c0.653,0.351,1.171.839,1.854,1.161,0.288-.568.719-1,1.007-1.562m10.313,19.837c-0.226-.454-0.411-0.951-0.6-1.442-0.791-.136-1.525-0.328-2.336-0.441a8.34,8.34,0,0,0,.645,1.8c0.991-.132,1.474.34,2.3,0.08m-14.5-12.784a21.4,21.4,0,0,0-2.176-.921c-0.194.741-.539,1.333-0.685,2.124a11.088,11.088,0,0,0,2.136.8c0.323-.585.453-1.363,0.725-2m15.832-12.7a5.326,5.326,0,0,0-.322-1.137,10.234,10.234,0,0,0-1.813-.107c0.131,0.472.36,0.845,0.523,1.284a13,13,0,0,0,1.612-.04M763.108,928.5c-0.842-.125-1.6-0.336-2.457-0.441a20.531,20.531,0,0,0-.686,2.606,19.568,19.568,0,0,0,2.578.279,18.31,18.31,0,0,0,.565-2.444m17.766-20.6c-0.43.023-.793,0.042-1.452,0.121-4.847.7-7.617,3.517-9.87,6.852a35.186,35.186,0,0,0-5.318,13.144c-0.323,2.25-.644,4.916-0.763,7.3,4.647,0.066,9.574.066,14.218,0a28.989,28.989,0,0,1-2.188-9.446,21.072,21.072,0,0,1,.9-7.667,13.2,13.2,0,0,1,2.86-4.931,7.9,7.9,0,0,1,7.132-2.2,14.282,14.282,0,0,1,3.26,1.282,1.824,1.824,0,0,0,.323-0.681,12.25,12.25,0,0,0-9.1-3.766m6.647,4.166c-0.395-.066-1.339-0.491-1.129.4a2.843,2.843,0,0,0,1.168.04,1,1,0,0,0-.039-0.442m0.362,27.614a18.524,18.524,0,0,1-1.934-.039,1.458,1.458,0,0,1,.041-0.8c0.913-.025,1.931.052,2.78-0.039v-1.364c-1.317.092-3.049-.388-3.868,0.281-0.655.538-.669,1.488-0.482,2.525,0.354,1.048,1.781,1.032,3.179,1.042a2.733,2.733,0,0,1-.039.763c-0.955.118-2.187-.041-3.14,0.079v1.482c1.424,0.015,3.452.285,4.269-.44,0.82-1.032.6-3.255-.806-3.487m-9.751-13.266a3.808,3.808,0,0,0-.159-1.322,14.607,14.607,0,0,0-1.731-.922,8.738,8.738,0,0,0-.042,1.364,11.551,11.551,0,0,0,1.932.88m3.668-13.946c0.075,0.459.408,0.663,0.482,1.121a5.035,5.035,0,0,0,.968-0.358,6.767,6.767,0,0,0-.361-1.085,2.273,2.273,0,0,0-1.089.322m-2.215,4.208a3.439,3.439,0,0,0,.562-0.8,4.829,4.829,0,0,0-.885-1.282,1.559,1.559,0,0,0-.644.8,5.681,5.681,0,0,0,.967,1.282m3.544,25.449c-0.725-.159-1.9.129-2.5-0.159-0.122-1.419.04-3.114-.081-4.53a9.085,9.085,0,0,0-1.369-.04,0.289,0.289,0,0,0-.122.08c-0.083,2.006-.017,3.913-0.04,6.091a27.821,27.821,0,0,0,4.069.04,10.976,10.976,0,0,0,.04-1.482M777.046,919a9.376,9.376,0,0,0-.4,1.161,12.314,12.314,0,0,0,1.33,1.164c0.607-1.2.512-1.25-.927-2.325" transform="translate(-750 -900)"/>
  </g>
</svg>
