<svg xmlns="http://www.w3.org/2000/svg" width="50" height="50" viewBox="0 0 50 50">
  <defs>
    <style>
      .cls-1 {
        fill: #666;
        fill-rule: evenodd;
      }
    </style>
  </defs>
  <g id="redis">
    <path class="cls-1" d="M1375.13,927.222a5.389,5.389,0,0,1-2.53-.631c-1.36-.586-2.72-1.181-4.09-1.759-1.43-.606-2.86-1.2-4.3-1.792-1.14-.475-2.29-0.94-3.43-1.422-1.22-.513-2.44-1.023-3.64-1.571-0.59-.269-1.13-0.627-1.7-0.936a0.774,0.774,0,0,1-.08-1.232,5.536,5.536,0,0,1,.97-0.57c2.55-1.013,5.09-2.015,7.64-3,3.16-1.22,6.31-2.431,9.48-3.628a6.523,6.523,0,0,1,3.11-.574,7.409,7.409,0,0,1,1.73.4c3.39,1.294,6.76,2.62,10.15,3.934,1.9,0.738,3.8,1.471,5.7,2.214a9.644,9.644,0,0,1,1,.462,0.816,0.816,0,0,1,.07,1.522,20.411,20.411,0,0,1-2.07,1.123c-0.81.394-1.65,0.74-2.47,1.1-1.31.566-2.62,1.125-3.92,1.689-1.11.48-2.23,0.952-3.33,1.445-2.11.943-4.2,1.908-6.31,2.843A4.165,4.165,0,0,1,1375.13,927.222Zm-8.49-10.931a9.018,9.018,0,0,0-2.96.525,4.777,4.777,0,0,0-1.24.71,0.869,0.869,0,0,0,.05,1.469,4.672,4.672,0,0,0,1.11.628,8.705,8.705,0,0,0,2.82.537,10.039,10.039,0,0,0,4.15-.533,4.652,4.652,0,0,0,1.27-.773,0.808,0.808,0,0,0,0-1.251,3.8,3.8,0,0,0-1.02-.667A10.07,10.07,0,0,0,1366.64,916.291Zm12.39,1.889c0.11,0.048.17,0.081,0.23,0.107,1.33,0.53,2.67,1.041,3.99,1.595a2.221,2.221,0,0,0,1.93.073c1-.461,2.05-0.831,3.08-1.238,0.63-.251,1.26-0.5,1.92-0.757-0.07-.039-0.11-0.062-0.14-0.077-1.68-.665-3.37-1.33-5.05-1.989a0.386,0.386,0,0,0-.25.023c-1.42.552-2.83,1.108-4.25,1.667C1380.01,917.774,1379.54,917.974,1379.03,918.18Zm-9.36,3.512a1.789,1.789,0,0,0,.17.1q3.06,1.269,6.12,2.542a0.263,0.263,0,0,0,.38-0.116c0.83-1.23,1.67-2.455,2.5-3.683,0.05-.069.08-0.147,0.15-0.27Zm9.02-9.209c-0.62.2-1.17,0.336-1.68,0.556a2.12,2.12,0,0,1-1.93-.04c-0.57-.293-1.2-0.484-1.88-0.75,0.31,0.6.59,1.116,0.89,1.67l-2.88,1.048c1.12,0.159,2.22.28,3.32,0.347a0.939,0.939,0,0,1,.89.543c0.29,0.542.63,1.053,0.97,1.623,0.06-.143.11-0.231,0.15-0.322,0.18-.444.36-0.894,0.56-1.33a0.459,0.459,0,0,1,.3-0.244c0.43-.068.87-0.1,1.31-0.142,0.61-.064,1.23-0.132,1.85-0.2a0.115,0.115,0,0,1,.01-0.057c-0.86-.323-1.71-0.645-2.59-0.977C1378.22,913.64,1378.44,913.1,1378.69,912.483Zm-3.55,21.694a5.418,5.418,0,0,1-2.29-.55c-1.4-.6-2.8-1.221-4.21-1.816-1.54-.654-3.1-1.288-4.64-1.934-2.14-.893-4.29-1.78-6.42-2.69-0.61-.259-1.19-0.58-1.78-0.889a2.032,2.032,0,0,1-.45-0.353,0.716,0.716,0,0,1,.05-1.16,9.317,9.317,0,0,1,1.09-.619,3.3,3.3,0,0,1,.42-0.247,0.441,0.441,0,0,1,.29.026c1.78,0.753,3.55,1.519,5.34,2.265,2,0.841,4.02,1.655,6.03,2.5,1.56,0.655,3.1,1.334,4.65,2.013a4.693,4.693,0,0,0,4.02-.063c0.81-.375,1.61-0.78,2.43-1.147,1.28-.576,2.57-1.133,3.86-1.694q1.875-.816,3.75-1.624c1.32-.568,2.64-1.13,3.96-1.7,0.73-.323,1.46-0.662,2.19-1a0.469,0.469,0,0,1,.48,0c0.44,0.237.91,0.417,1.36,0.65a0.729,0.729,0,0,1,.41.639,0.711,0.711,0,0,1-.36.7c-0.77.446-1.55,0.9-2.35,1.294-0.96.466-1.95,0.87-2.93,1.295-1.25.542-2.51,1.077-3.76,1.617-1.13.488-2.26,0.967-3.39,1.47-1.98.886-3.94,1.81-5.93,2.665a10.849,10.849,0,0,1-1.8.439A0.241,0.241,0,0,0,1375.14,934.177Zm20.53-2.7a0.906,0.906,0,0,1-.58.845c-0.75.434-1.51,0.847-2.3,1.213-1.09.513-2.21,0.978-3.32,1.458-1.57.677-3.15,1.343-4.72,2.023-1.37.6-2.74,1.2-4.1,1.809-0.8.352-1.59,0.7-2.36,1.09a8.864,8.864,0,0,1-2.28.851,4.747,4.747,0,0,1-2.8-.314c-2.08-.876-4.15-1.775-6.23-2.649-2.14-.9-4.29-1.766-6.43-2.67-1.42-.6-2.83-1.242-4.24-1.879a8.853,8.853,0,0,1-.84-0.5,0.788,0.788,0,0,1-.05-1.317c0.42-.258.85-0.482,1.29-0.705a0.387,0.387,0,0,1,.26.046c2.01,0.851,4.02,1.713,6.04,2.558s4.05,1.666,6.06,2.513c1.41,0.592,2.8,1.218,4.21,1.817a4.44,4.44,0,0,0,2.04.422,6.543,6.543,0,0,0,2.25-.636c2.27-1.028,4.54-2.06,6.82-3.073,1.72-.765,3.46-1.5,5.18-2.256,1.42-.624,2.82-1.27,4.24-1.893a0.52,0.52,0,0,1,.37.047c0.37,0.169.74,0.345,1.09,0.548A0.661,0.661,0,0,1,1395.67,931.482Z" transform="translate(-1350 -900)"/>
  </g>
</svg>
