<?xml version="1.0" encoding="utf-8"?>
<!-- Generator: Adobe Illustrator 21.1.0, SVG Export Plug-In . SVG Version: 6.00 Build 0)  -->
<svg version="1.1" id="Layer_1" xmlns="http://www.w3.org/2000/svg" xmlns:xlink="http://www.w3.org/1999/xlink" x="0px" y="0px"
	 viewBox="0 0 50 50" style="enable-background:new 0 0 50 50;" xml:space="preserve">
<style type="text/css">
	.st0{fill:#666666;}
</style>
<g>
	<path class="st0" d="M22.8,38.4c-1-1-1.9-2.1-2.4-3.4C20.2,34.4,20,34,20,33.5c0-0.1-0.1-0.3,0.1-0.3c0.1,0,0.2,0.1,0.3,0.2
		c0.8,0.9,1.7,1.7,2.6,2.4c1.9,1.5,3.9,2.7,6.3,3.4c2.2,0.6,4.4,0.5,6.5,0.1c-2.1,0-3.9-0.8-5.5-2.1C30.2,37,30,36.9,30,36.7
		c0-0.2,0.3-0.1,0.4-0.1c2.5-0.2,4.7-1,6.9-2.2c1.3-0.7,2.5-1.6,3.5-2.7c-1.1,0.6-2.3,1.1-3.6,1.3c-0.6,0.1-1.2,0.1-1.8,0.1
		c-0.1,0-0.4,0-0.4-0.1c-0.1-0.2,0.2-0.2,0.3-0.3c1.5-1.1,2.7-2.3,3.8-3.8c1.7-2.3,2.8-4.9,3.1-7.7c0.2-1.7,0.1-3.3-0.5-4.9
		c0-0.1-0.1-0.2,0-0.3c0.2,0,0.3,0.2,0.4,0.4c1.6,2,2.1,4.3,1.8,6.7c-0.2,1.9-0.9,3.7-2,5.3c1.7-1.5,2.7-3.5,3.8-5.4
		c0.4,2.8,0.1,5.4-1.3,7.9c-1.4,2.4-3.2,4.3-5.7,5.7c2.5-0.5,4.6-1.9,6.6-3.3c-0.2,0.9-0.6,1.8-1.1,2.6c-2.9,4.7-7,7.8-12.4,8.9
		c-4.1,0.8-8.2,0.4-12.1-1.2c-5.1-2.1-9-5.6-11.4-10.6c-0.7-1.4-1.4-2.8-2.4-4c-0.5-0.5-0.9-1.2-0.9-2c0-0.4,0.1-0.8,0.4-1.1
		c0.8-1,0.9-2.1,0.5-3.3c-0.2-0.6-0.4-1.2-0.6-1.9c-0.3-1,0-1.9,0.7-2.6c0.5-0.5,1-1,1.6-1.5c0.7-0.6,1-1.3,1-2.2c0-0.5,0-1.1,0-1.6
		c0.1-1.4,0.7-2.3,2-2.7c0.5-0.2,1.1-0.3,1.7-0.3c1.1,0,2-0.4,2.7-1.2c0.4-0.4,0.8-0.8,1.2-1.3c1.6-2.1,3.9-2.1,5.8-1.3
		c0.6,0.2,1.1,0.6,1.6,1c0.2,0.2,0.4,0.3,0.7,0.3c4.3,0,8.2,1.5,11.6,4.1c1.6,1.2,3.1,2.6,4.2,4.3c0.4,0.6,0.6,1.2,0.8,1.8
		c0.5,1.8-0.3,3.1-2,3.6c-1.5,0.5-2.9,0.5-4.4,0.3c-3.4-0.4-6.5-1.5-9.6-2.9c-0.5-0.2-0.9-0.3-1.4-0.1c-2,0.6-3.8,1.7-5.3,3.2
		c-1.3,1.5-2,3.2-2.1,5.1c-0.3,2.5,0.1,5,1.4,7.2C18.8,35.9,20.6,37.4,22.8,38.4z M30.4,13.6c-0.4,0-0.8,0.4-0.8,0.8
		c0,0.4,0.4,0.8,0.9,0.7c0.4,0,0.8-0.4,0.7-0.8C31.2,13.9,30.8,13.6,30.4,13.6z"/>
</g>
</svg>
