<svg xmlns="http://www.w3.org/2000/svg" width="50" height="50" viewBox="0 0 50 50">
  <defs>
    <style>
      .cls-1 {
        fill: #666;
        fill-rule: evenodd;
      }
    </style>
  </defs>
  <g id="sidekiq">
    <path class="cls-1" d="M308.09,1225.46c-0.094,1.03-.182,1.98-0.277,3.02a1.046,1.046,0,0,1-.515-0.17,1.785,1.785,0,0,0-1.039-.55,0.613,0.613,0,0,1-.569-0.52c-0.161-.7-0.463-1.36-0.637-2.06a1,1,0,0,1,.156-0.77,5.414,5.414,0,0,0,.825-1.82,10.75,10.75,0,0,1,.618-1.09c0.2-.4-0.073-0.89.316-1.21a2.152,2.152,0,0,1,.659-1.52,0.933,0.933,0,0,0,.251-0.62,5.241,5.241,0,0,1,.613-0.98c0.27-.34.535-0.68,0.825-1.05v-1.24c0.163-.03.328-0.06,0.5-0.09a0.305,0.305,0,0,0-.052-0.13,4.687,4.687,0,0,1-.682-0.52,12.063,12.063,0,0,1-1.206-1.38,3.309,3.309,0,0,1-.185-2.72,1.059,1.059,0,0,1,.414-0.53,8.037,8.037,0,0,1,1.736-.61,7.946,7.946,0,0,0,1.135-.29,1.821,1.821,0,0,1,.7-0.04,0.618,0.618,0,0,1,.364.42c0.13,0.23.539,0.31,0.636,0.53s-0.17.56-.1,0.8c0.2,0.69.359,1.4,0.533,2.1,0.327,0.19.038,0.57,0.307,0.86,0.171-.15.347-0.29,0.509-0.44a2.606,2.606,0,0,1,1.8-.53,6.605,6.605,0,0,0,3.02-.31,1.986,1.986,0,0,1,.609-0.06c0.039-.17.074-0.33,0.121-0.49a0.742,0.742,0,0,0,.1-0.22,0.861,0.861,0,0,1,.362-1.15,0.38,0.38,0,0,0,.012-0.15,1.6,1.6,0,0,1-.533-1.41,3.082,3.082,0,0,0-.948-2.39,1.328,1.328,0,0,1-.331-0.94,3.547,3.547,0,0,1,.37-2,0.887,0.887,0,0,1,.221-0.19,0.815,0.815,0,0,1,.133.19c0.075,0.21.135,0.42,0.21,0.66a1.4,1.4,0,0,0,.23.04c0.686,0.02.629,0.04,0.841,0.68a5.6,5.6,0,0,1,.365,1.83,2.351,2.351,0,0,0,.356.83c0.061,0.12.139,0.24,0.251,0.43h1.445a0.42,0.42,0,0,1,.446.43,0.714,0.714,0,0,1,0,.35,5.567,5.567,0,0,0-.155,2.35c0.022,0.59-.244,1.13-0.208,1.72a9.63,9.63,0,0,1-.957,1.93,1.485,1.485,0,0,1-.359.21,9.726,9.726,0,0,1-1.963.92c-0.3.06-.439,0.54-0.908,0.3,0.271,0.92.99,0.9,1.559,1.11a0.357,0.357,0,0,0,.178,0c0.2-.04.225-0.49,0.6-0.2a1.483,1.483,0,0,0,.76-0.06,4.09,4.09,0,0,1,.769-0.09,1,1,0,0,0,.791-0.24,1.089,1.089,0,0,1,.967-0.31,2.217,2.217,0,0,0,1.852-.37,6.711,6.711,0,0,1,2.058-.69,1.459,1.459,0,0,0,.549-0.21c1.284-.9,2.647-1.69,3.987-2.51a17.163,17.163,0,0,1,3.769-1.56,16.7,16.7,0,0,0,2.006-1.02,0.945,0.945,0,0,1,1.363.08,5.728,5.728,0,0,1,.508.58,11.368,11.368,0,0,0,2.873-1.56,2.511,2.511,0,0,0,1.053-.89,0.413,0.413,0,0,1,.249-0.24c0.248-.01.443-0.43,0.769-0.05a1.769,1.769,0,0,0,.863.02,4.344,4.344,0,0,1-1.564,1.79,0.859,0.859,0,0,0-.507.93,2.155,2.155,0,0,1-.476,1.24,0.48,0.48,0,0,1-.371.15,4.671,4.671,0,0,1-.989,0,1.757,1.757,0,0,0-.875.29c-0.309.13-.23,0.63-0.718,0.65a2.038,2.038,0,0,0-.856.51,10.663,10.663,0,0,0-1.168.87,8.2,8.2,0,0,1-2.947,1.79c-0.85.27-1.63,0.7-2.486,0.96a6.17,6.17,0,0,0-1.82,1.24,12.753,12.753,0,0,1-1.347.88,21.35,21.35,0,0,0-2.435,1.55,8.4,8.4,0,0,1-2.161,1.7c-0.455.17-.347,0.8-0.63,1.15a4.22,4.22,0,0,1-.564,1.74,3.215,3.215,0,0,0-.333,1.39,11.956,11.956,0,0,1-.219,2.79,9.114,9.114,0,0,1-.172,1.44c-0.133.46-.048,0.94-0.172,1.36-0.333,1.14-.181,2.37-0.7,3.48a0.388,0.388,0,0,0,.015.34,1.1,1.1,0,0,1-.059,1.28c-0.217.51-.444,1.01-0.685,1.51a2.986,2.986,0,0,0-.177,1.36,3.794,3.794,0,0,1-.014.71,0.638,0.638,0,0,1-.267.4,2.37,2.37,0,0,0-1.148.42,2.324,2.324,0,0,0,.292,1.64,0.954,0.954,0,0,1,.041.68,1.016,1.016,0,0,1-.427.36c-0.393.44-1,.58-1.363,1.04a2.831,2.831,0,0,1-.346.43q-0.62.555-1.263,1.08a0.629,0.629,0,0,1-.729.02,3.726,3.726,0,0,1-.426-0.27,0.32,0.32,0,0,1,.051-0.54,2.582,2.582,0,0,0,1.282-1.74,3.73,3.73,0,0,1,.434-1.07,8.664,8.664,0,0,0,.353-1.11,1.184,1.184,0,0,0-.042-1.16c0.332-1.3,0-2.63.177-3.93a9.432,9.432,0,0,0-.034-1.21c0.01-.83.01-1.67,0-2.5a11.755,11.755,0,0,0,.2-1.45,3.425,3.425,0,0,1,.017-1.51c0.2-.59-0.041-1.29.477-1.78a0.647,0.647,0,0,0,.031-0.34,7.133,7.133,0,0,1,.156-1.82,1.089,1.089,0,0,0-.843-1.29,0.2,0.2,0,0,0-.1.09c-0.155-.2-0.319-0.39-0.468-0.6s-0.286-.42-0.515-0.76a2.6,2.6,0,0,0,.013.79,1.646,1.646,0,0,1-.478,2.02,0.47,0.47,0,0,0-.128-0.1c-0.3-.08-0.484-0.24-0.3-0.55a5.1,5.1,0,0,0,.329-2.53,4.4,4.4,0,0,1-2.122-.45,7.006,7.006,0,0,0-3.133-.49,1.042,1.042,0,0,0-.709.55c-0.746.8-1.539,1.56-2.316,2.32A0.386,0.386,0,0,1,308.09,1225.46Z" transform="translate(-300 -1200)"/>
  </g>
</svg>
