<svg xmlns="http://www.w3.org/2000/svg" width="50" height="50" viewBox="0 0 50 50">
  <defs>
    <style>
      .cls-1 {
        fill: #666;
        fill-rule: evenodd;
      }
    </style>
  </defs>
  <g id="sqllite">
    <path class="cls-1" d="M1360.12,1240.09a1.842,1.842,0,0,1-1.84-1.84v-28.4a1.848,1.848,0,0,1,1.84-1.84h24.9a3.981,3.981,0,0,1,1.26-1.29h-26.16a3.133,3.133,0,0,0-3.12,3.13v28.4a3.135,3.135,0,0,0,3.12,3.14h17.07v-1.3h-17.07Zm31.59-34.3c-1.75-1.58-3.88-.95-5.97.93a11.319,11.319,0,0,0-.93.91c-3.59,3.82-6.92,10.91-7.95,16.32a15.381,15.381,0,0,1,.92,2.67l0.14,0.56c0.09,0.39.14,0.64,0.14,0.64s-0.03-.12-0.16-0.51q-0.045-.105-0.09-0.24a0.534,0.534,0,0,0-.06-0.14c-0.23-.55-0.88-1.7-1.16-2.21-0.25.73-.46,1.4-0.64,2.01a18.02,18.02,0,0,1,1.32,4.11s-0.04-.17-0.25-0.76a26.443,26.443,0,0,0-1.31-2.5,6.046,6.046,0,0,0-.39,2.53,8.352,8.352,0,0,1,.72,2.02c0.49,1.88.83,4.18,0.83,4.18s0.01,0.15.03,0.38a38.416,38.416,0,0,0,.09,4.7,16.914,16.914,0,0,0,.85,4.54l0.27-.14a20.414,20.414,0,0,1-.7-6.79,51.877,51.877,0,0,1,2.82-14.19c2.93-7.78,7-14.03,10.72-17.01-3.39,3.08-7.98,13.05-9.36,16.74a68.167,68.167,0,0,0-3.28,11.72c1.13-3.48,4.8-4.98,4.8-4.98s1.8-2.23,3.9-5.41a38.985,38.985,0,0,0-4.02,1.07c-1.02.43-1.3,0.58-1.3,0.58a35.16,35.16,0,0,1,6.15-2.94c3.9-6.18,8.15-14.96,3.87-18.79" transform="translate(-1350 -1200)"/>
  </g>
</svg>
