<svg xmlns="http://www.w3.org/2000/svg" width="50" height="50" viewBox="0 0 50 50">
  <defs>
    <style>
      .cls-1 {
        fill: #666;
        fill-rule: evenodd;
      }
    </style>
  </defs>
  <g id="stripe">
    <path class="cls-1" d="M182.119,1380v3.19c-1.076.18-2.145,0.35-3.223,0.53v-13.68h2.829c0.055,0.32.11,0.64,0.169,0.98l0.228-.22a3.288,3.288,0,0,1,1.759-.91,2.936,2.936,0,0,1,3.305,1.68,5.723,5.723,0,0,1,.5,1.81,10.652,10.652,0,0,1,.064,1.93,6.525,6.525,0,0,1-.749,2.97,3.639,3.639,0,0,1-2.858,1.9,4.549,4.549,0,0,1-1.939-.17Zm0-4.73c0,0.75,0,1.51,0,2.26a0.138,0.138,0,0,0,.116.16c0.124,0.04.244,0.08,0.369,0.11a1.289,1.289,0,0,0,1.483-.67,2.842,2.842,0,0,0,.328-0.87,7.361,7.361,0,0,0,.041-2.64,2.174,2.174,0,0,0-.357-0.95,0.891,0.891,0,0,0-.88-0.38,1.811,1.811,0,0,0-1.014.53l-0.086.2C182.121,1373.77,182.119,1374.52,182.119,1375.27Zm14.859,0.78h-5.362c0.041,0.2.069,0.39,0.119,0.58a1.533,1.533,0,0,0,1.462,1.18,5.783,5.783,0,0,0,3.062-.59l0.08-.04c0.022,0.14.046,0.27,0.068,0.4,0.09,0.56.176,1.12,0.271,1.68l-0.074.17a5.492,5.492,0,0,1-1.8.64,8.08,8.08,0,0,1-2.3.11,4.83,4.83,0,0,1-2.157-.67,3.846,3.846,0,0,1-1.6-2.16,6.912,6.912,0,0,1-.31-1.84,7.232,7.232,0,0,1,.38-2.86,4.074,4.074,0,0,1,1.93-2.31,4.49,4.49,0,0,1,2.52-.48,3.693,3.693,0,0,1,2.161.79,3.9,3.9,0,0,1,1.217,1.82,6.956,6.956,0,0,1,.358,2.24C197,1375.15,196.985,1375.59,196.978,1376.05Zm-3.026-1.96a3.577,3.577,0,0,0-.279-1.51,0.966,0.966,0,0,0-.428-0.47,0.943,0.943,0,0,0-1.254.37,3.6,3.6,0,0,0-.391,1.61h2.352Zm-40.567,2.87c0.165,0.08.324,0.17,0.489,0.24a7.5,7.5,0,0,0,2.322.65,1.8,1.8,0,0,0,.83-0.08,0.608,0.608,0,0,0,.2-1.06,3.14,3.14,0,0,0-.917-0.49c-0.5-.21-1.012-0.4-1.5-0.63a3.043,3.043,0,0,1-1.3-1.09,2.727,2.727,0,0,1-.392-1.39,3.106,3.106,0,0,1,.382-1.7,2.986,2.986,0,0,1,1.7-1.33,5.322,5.322,0,0,1,2.1-.22,7.737,7.737,0,0,1,2.184.44c0.143,0.06.28,0.12,0.421,0.17l0.092,0.16c-0.086.49-.166,0.98-0.248,1.47-0.043.26-.083,0.53-0.129,0.8l-0.239-.1a6.568,6.568,0,0,0-1.936-.57,2.32,2.32,0,0,0-.871.01,0.547,0.547,0,0,0-.433.39,0.523,0.523,0,0,0,.216.56,3.668,3.668,0,0,0,.989.51c0.5,0.21,1,.4,1.488.63a3,3,0,0,1,1.029.78,2.5,2.5,0,0,1,.589,1.41,3.532,3.532,0,0,1-.287,1.93,2.854,2.854,0,0,1-1.789,1.5,5.84,5.84,0,0,1-2.386.24,8.129,8.129,0,0,1-2.526-.6c-0.14-.06-0.277-0.13-0.409-0.2l-0.059-.1c0.12-.77.246-1.53,0.37-2.3Zm8.586-4.56h-1.328c0.04-.25.078-0.48,0.116-0.72,0.075-.46.153-0.91,0.224-1.37a0.143,0.143,0,0,1,.15-0.14l0.76-.12,0.1-.1c0.12-.75.246-1.49,0.368-2.24l0.105-.11c0.883-.14,1.765-0.28,2.647-0.43l0.034,0.01v2.85h2.067c-0.133.8-.261,1.58-0.392,2.37h-1.666l-0.006.13c0,1.33,0,2.66,0,4a2.223,2.223,0,0,0,.064.53,0.7,0.7,0,0,0,.671.55,3.691,3.691,0,0,0,.993-0.11l0.109-.02,0.007,0.1q0,1.155,0,2.31l-0.075.12a6.1,6.1,0,0,1-3,.05,2.319,2.319,0,0,1-1.834-1.93,5.7,5.7,0,0,1-.112-1.06c-0.012-1.5,0-3,0-4.5v-0.17Zm6.092-2.37h2.7a0.11,0.11,0,0,1,.141.11c0.047,0.34.11,0.67,0.17,1.02a2.071,2.071,0,0,1,2.53-1.2v2.95c-0.115-.01-0.229-0.02-0.343-0.02a3.366,3.366,0,0,0-1.222.14,1.581,1.581,0,0,0-.691.45l-0.056.18q0,3.1,0,6.21v0.15h-3.225v-9.99Zm6.328,0.01h3.231v9.98h-3.231v-9.98Zm3.311-2.66a1.7,1.7,0,1,1-1.682-1.69A1.684,1.684,0,0,1,177.7,1367.38Z" transform="translate(-150 -1350)"/>
  </g>
</svg>
