<?xml version="1.0" encoding="utf-8"?>
<!-- Generator: Adobe Illustrator 23.0.3, SVG Export Plug-In . SVG Version: 6.00 Build 0)  -->
<svg version="1.1" id="Layer_1" xmlns="http://www.w3.org/2000/svg" xmlns:xlink="http://www.w3.org/1999/xlink" x="0px" y="0px"
	 viewBox="0 0 401.9 262.8" style="enable-background:new 0 0 401.9 262.8;" xml:space="preserve">
<style type="text/css">
	.st0{fill:#E26F66;}
	.st1{fill:#C14736;}
	.st2{fill:#F1563C;}
	.st3{fill:#FFFFFF;}
	.st4{opacity:0.5;fill:#E2E2E2;}
	.st5{opacity:0.3;fill:#D4ECFF;}
	.st6{fill:url(#SVGID_1_);}
	.st7{fill:url(#SVGID_2_);}
	.st8{fill:url(#SVGID_3_);}
	.st9{fill:#5E5E5E;}
	.st10{fill:url(#SVGID_4_);}
	.st11{fill:url(#SVGID_5_);}
	.st12{fill:none;stroke:#FFFFFF;stroke-width:0.25;stroke-miterlimit:10;}
	.st13{fill:#B8BCFC;}
	.st14{fill:#ECF3FA;}
</style>
<g>
	<g>
		<path class="st0" d="M401.9,115.5V77.7h-7.1c-6.4-11-17.1-21.4-32.3-30.2c-52.6-30.4-137.8-30.4-190.4,0
			c-15.2,8.8-25.9,19.2-32.3,30.2h-7.1v37.6h0c-0.1,20,13,39.9,39.4,55.2c52.6,30.4,137.8,30.4,190.4,0
			C388.7,155.3,401.9,135.4,401.9,115.5z"/>
		<path class="st1" d="M394.7,77.7c-6.4-11-17.1-21.4-32.3-30.2c-26.6-15.3-61.4-22.9-96.2-22.7v168.4c34.8,0.2,69.7-7.4,96.2-22.7
			c26.3-15.2,39.4-35.1,39.4-55V77.7H394.7z"/>
		<ellipse class="st2" cx="267.3" cy="77.7" rx="134.6" ry="77.7"/>
		<path class="st3" d="M362.4,132.7c-52.6,30.4-137.8,30.4-190.4,0c-25.2-14.5-38.2-33.4-39.2-52.5c-1.1,20.7,11.8,41.6,39.2,57.4
			c52.6,30.4,137.8,30.4,190.4,0c27.4-15.8,40.4-36.7,39.2-57.4C400.6,99.2,387.6,118.1,362.4,132.7z"/>
		<path class="st2" d="M171,147.3c-21.6-12.5-34.3-28.1-38.2-44.3L0.4,179.5l95.7,4.7l16,62.1l136.8-76.8l-1.3-0.4
			C219.6,167,192.6,159.7,171,147.3z"/>
		<path class="st3" d="M117.6,232.3L104,177l-75.3-3.8l107-61.9l-1.4-3.5L16,176.2l85.1,4.3l14.1,57.3l126.1-69.3l-6.7-0.8
			C234,168.2,117.6,232.3,117.6,232.3z"/>
		<polygon class="st1" points="96,200.6 0.4,196 0.4,179.5 96,184.2 		"/>
		<polygon class="st0" points="112.2,262.8 96,200.6 96.1,184.3 112.2,246.4 		"/>
		<polygon class="st1" points="248.9,186 112.2,262.7 112.2,246.4 248.9,169.6 		"/>
	</g>
	<g>
		<path class="st3" d="M198.7,103.5c-2.3-1.3-3.6-3.1-3.5-5l0.1-50.6c0-3.9,5.4-7,12.1-7c6.7,0,12.1,3.1,12.1,7l-0.1,42l121.9-14.9
			c6.6-0.8,13,1.6,14.4,5.4c1.4,3.8-2.8,7.5-9.3,8.3l-136.5,16.7c-3.6,0.4-7.3-0.1-10.2-1.4C199.3,103.8,199,103.6,198.7,103.5z"/>
	</g>
</g>
</svg>
