<?xml version="1.0" encoding="utf-8"?>
<!-- Generator: Adobe Illustrator 23.0.3, SVG Export Plug-In . SVG Version: 6.00 Build 0)  -->
<svg version="1.1" id="Layer_1" xmlns="http://www.w3.org/2000/svg" xmlns:xlink="http://www.w3.org/1999/xlink" x="0px" y="0px"
	 viewBox="0 0 1240 1203.3" style="enable-background:new 0 0 1240 1203.3;" xml:space="preserve">
<style type="text/css">
	.st0{opacity:0.2;fill:#727272;}
	.st1{opacity:0.1;fill:#727272;}
	.st2{opacity:0.3;fill:#727272;}
	.st3{fill:#E26F66;}
	.st4{fill:#C14736;}
	.st5{fill:#F1563C;}
	.st6{fill:#FFFFFF;}
	.st7{opacity:0.5;fill:#E2E2E2;}
	.st8{opacity:0.3;fill:#D4ECFF;}
	.st9{fill:url(#SVGID_1_);}
	.st10{fill:url(#SVGID_2_);}
	.st11{fill:url(#SVGID_3_);}
	.st12{fill:#5E5E5E;}
	.st13{fill:url(#SVGID_4_);}
	.st14{fill:url(#SVGID_5_);}
	.st15{fill:none;stroke:#FFFFFF;stroke-width:0.25;stroke-miterlimit:10;}
	.st16{fill:#B8BCFC;}
	.st17{fill:none;stroke:#FFFFFF;stroke-width:0.75;stroke-miterlimit:10;}
	.st18{fill:#ECF3FA;}
	.st19{opacity:0.3;}
	.st20{fill:#727272;}
	.st21{fill:none;stroke:#FFFFFF;stroke-miterlimit:10;}
	.st22{enable-background:new    ;}
	.st23{fill:#E3DEDA;}
	.st24{fill:#DBB391;}
	.st25{fill:#DBD5D1;}
	.st26{fill:#898989;}
	.st27{opacity:0.7;fill:#A17E85;}
	.st28{fill:#CAC1B8;}
	.st29{fill:#F5F1EE;}
	.st30{fill:url(#SVGID_6_);}
	.st31{fill:#ADADAD;}
	.st32{fill:url(#SVGID_7_);}
	.st33{fill:#69544B;}
	.st34{fill:#4E3F38;}
	.st35{fill:#3B2F2A;}
	.st36{fill:url(#SVGID_8_);}
	.st37{fill:#383A35;}
	.st38{fill:url(#SVGID_9_);}
	.st39{fill:url(#SVGID_10_);}
</style>
<g>
	<g>
		<path class="st3" d="M386.7,560.2v-36.4h-6.9c-6.2-10.6-16.5-20.6-31.1-29.1c-50.6-29.2-132.7-29.2-183.4,0
			c-14.7,8.5-24.9,18.5-31.1,29.1h-6.9V560h0c-0.1,19.2,12.6,38.5,38,53.1c50.6,29.2,132.7,29.2,183.4,0
			C374.1,598.5,386.7,579.4,386.7,560.2z"/>
		<path class="st4" d="M379.9,523.8c-6.2-10.6-16.5-20.6-31.1-29.1c-25.6-14.8-59.2-22.1-92.7-21.9v162.2
			c33.5,0.2,67.1-7.1,92.7-21.9c25.3-14.6,38-33.8,38-52.9v-36.4H379.9z"/>
		<ellipse class="st5" cx="257.1" cy="523.8" rx="129.7" ry="74.9"/>
		<path class="st6" d="M348.8,576.8c-50.6,29.2-132.7,29.2-183.4,0c-24.3-14-36.8-32.2-37.8-50.6c-1.1,19.9,11.4,40.1,37.8,55.3
			c50.6,29.2,132.7,29.2,183.4,0c26.4-15.2,38.9-35.4,37.8-55.3C385.5,544.6,373,562.7,348.8,576.8z"/>
		<path class="st5" d="M164.4,590.8c-20.8-12-33-27.1-36.8-42.7L0,621.9l92.2,4.6l15.4,59.8l131.8-73.9l-1.3-0.4
			C211.1,609.8,185.1,602.8,164.4,590.8z"/>
		<path class="st6" d="M112.9,672.7l-13.1-53.3l-72.5-3.7l103-59.6l-1.3-3.4L15,618.7l82,4.2l13.6,55.2L232,611.3l-6.4-0.7
			C225.1,610.9,112.9,672.7,112.9,672.7z"/>
		<polygon class="st4" points="92.1,642.1 0,637.8 0,622.1 92.1,626.4 		"/>
		<polygon class="st3" points="107.7,702.1 92.1,642.2 92.2,626.5 107.7,686.3 		"/>
		<polygon class="st4" points="239.4,628.1 107.7,702 107.7,686.3 239.4,612.3 		"/>
		<g>
			<path class="st6" d="M191.1,548.6c-2.2-1.3-3.4-3-3.4-4.8l0.1-48.8c0-3.7,5.2-6.7,11.7-6.7c6.5,0,11.7,3,11.7,6.8l-0.1,40.4
				l117.4-14.4c6.3-0.8,12.5,1.6,13.8,5.2c1.3,3.6-2.7,7.2-9,8l-131.5,16.1c-3.4,0.4-7-0.1-9.8-1.4
				C191.6,548.9,191.3,548.8,191.1,548.6z"/>
		</g>
	</g>
	<g>
		<g>
			<path class="st7" d="M1164.4,495.2c-50.1-28.9-131.4-28.9-181.5,0c-20.8,12-32.9,27.1-36.5,42.7c3.1,13.8-4.8,11.4,11.7,22.6
				c5.2-9.2,17.8-19.7,26.9-26.7c45.8-35.4,135.6-35.3,181.5,0c9.6,7.4,18.3,16.6,24.1,28.3c12.3-10,7.6-12.6,10.2-24.3
				C1197.4,522.3,1185.2,507.2,1164.4,495.2z"/>
			<path class="st4" d="M943.4,538.2l19.6-18.5l59.3-23.4l52.4-8.9l57.5,9.2l43.2,20.7l25.6,20.7l5.7-28.4l-9-23.1
				c0,0-22.7-10.9-24.1-11.9c-1.4-1-53.2-14.5-53.2-14.5l-51.8-2.5l-41.6,3.8l-42.3,9.1l-28,14.2l-18.5,21.1l-4.9,22.4L943.4,538.2z
				"/>
			<path class="st5" d="M982.9,517.7c50.1-36,131.4-36,181.5,0c15.8,11.3,26.6,24.9,32.4,39.2c4.4-4.9,2.9-2.9,5.3-9.6
				c1.4-16.3-10.4-29.4-24.2-39.3c-57.6-41.4-150.9-41.4-208.4,0c-12.6,9.1-20.1,21.7-27.2,32.7c2.3,6.7,3.5,10.9,8.2,16.2
				C956.3,542.6,967.1,529.1,982.9,517.7z"/>
			<path class="st8" d="M1164.4,495.4c-50.1-28.9-131.4-28.9-181.5,0c-20.8,12-32.9,27.1-36.5,42.7c3.5,15.6,15.7,30.7,36.5,42.7
				c50.1,28.9,131.4,28.9,181.5,0c20.8-12,32.9-27.1,36.5-42.7C1197.4,522.5,1185.2,507.4,1164.4,495.4z"/>
			<path class="st4" d="M1221,528.2c-1,2.3-13.4,7.2-15.2,8.9l0-0.6l-3.6,10.8l-14.9,19.1l-21.2,14.2l-30.3,14.1l-35.1,7.4
				l-40.6,1.9l-35.4-4.7l-38-15.2c-5.4-0.6-20.3-10.2-24.2-14.1l-16-22c0.3-0.6-1.4-4.9-1.1-5.4c-4.7-4.3-2.1-8.5-4.4-13.9
				c-0.9,1.1-1.7,2.2-2.5,3.3l-11.2-11v43.5l0,0c0,21.8,14.3,43.6,43.1,60.2c57.6,33.2,150.9,33.2,208.4,0
				C1222.6,599.5,1221.4,574.3,1221,528.2z"/>
			<path class="st3" d="M954.6,559l-7-11.9c0.3-0.6-2.5-3.9-2.3-4.4c-4.7-4.3-3-9.5-5.4-14.9c-0.9,1.1-1.7,2.2-2.5,3.3l-11.2-2.3
				v34.9l0,0c0,19.6,11.6,39.2,34.9,55L954.6,559z"/>
			<path class="st5" d="M1177.9,468c-57.6-33.2-150.9-33.2-208.4,0c-57.5,33.2-57.5,87.1,0,120.3c57.6,33.2,150.9,33.2,208.4,0
				C1235.4,555.1,1235.4,501.2,1177.9,468z M1164.4,580.6c-50.1,28.9-131.4,28.9-181.5,0c-50.1-28.9-50.1-75.9,0-104.8
				c50.1-28.9,131.4-28.9,181.5,0C1214.6,504.7,1214.6,551.6,1164.4,580.6z"/>
			<g>
				<g>
					<linearGradient id="SVGID_1_" gradientUnits="userSpaceOnUse" x1="872.4597" y1="655.9613" x2="887.1024" y2="655.9613">
						<stop  offset="0" style="stop-color:#C9C9C9"/>
						<stop  offset="0" style="stop-color:#FFFFFF"/>
						<stop  offset="0.1494" style="stop-color:#D5D5D5"/>
						<stop  offset="0.3632" style="stop-color:#9F9F9F"/>
						<stop  offset="0.5626" style="stop-color:#747474"/>
						<stop  offset="0.7415" style="stop-color:#555555"/>
						<stop  offset="0.8933" style="stop-color:#434343"/>
						<stop  offset="1" style="stop-color:#3C3C3C"/>
					</linearGradient>
					<path class="st9" d="M887.1,660.2c0,4.7-3.3,6.6-7.3,4.2c-4-2.3-7.3-8-7.3-12.7c0-4.7,3.3-6.6,7.3-4.2
						C883.8,649.8,887.1,655.5,887.1,660.2z"/>
					<linearGradient id="SVGID_2_" gradientUnits="userSpaceOnUse" x1="872.4597" y1="655.9613" x2="887.1024" y2="655.9613">
						<stop  offset="0" style="stop-color:#C9C9C9"/>
						<stop  offset="0" style="stop-color:#FFFFFF"/>
						<stop  offset="0.1494" style="stop-color:#D5D5D5"/>
						<stop  offset="0.3632" style="stop-color:#9F9F9F"/>
						<stop  offset="0.5626" style="stop-color:#747474"/>
						<stop  offset="0.7415" style="stop-color:#555555"/>
						<stop  offset="0.8933" style="stop-color:#434343"/>
						<stop  offset="1" style="stop-color:#3C3C3C"/>
					</linearGradient>
					<path class="st10" d="M887.1,660.2c0,4.7-3.3,6.6-7.3,4.2c-4-2.3-7.3-8-7.3-12.7c0-4.7,3.3-6.6,7.3-4.2
						C883.8,649.8,887.1,655.5,887.1,660.2z"/>
					<linearGradient id="SVGID_3_" gradientUnits="userSpaceOnUse" x1="916.3203" y1="618.819" x2="929.1108" y2="640.9729">
						<stop  offset="0" style="stop-color:#3C3C3C"/>
						<stop  offset="0.3967" style="stop-color:#FFFFFF"/>
						<stop  offset="0.413" style="stop-color:#F7F7F7"/>
						<stop  offset="0.5283" style="stop-color:#C1C1C1"/>
						<stop  offset="0.6357" style="stop-color:#969696"/>
						<stop  offset="0.7321" style="stop-color:#777777"/>
						<stop  offset="0.8139" style="stop-color:#656565"/>
						<stop  offset="0.8714" style="stop-color:#5E5E5E"/>
					</linearGradient>
					<path class="st11" d="M968.8,612.6c0-4.7-3.3-10.3-7.3-12.7c-2.1-1.2-3.9-1.3-5.3-0.4l0,0L874.5,647l10.5,17.8l81.4-47.4
						c0.1-0.1,0.3-0.1,0.4-0.2l0.2-0.1l0,0C968.1,616.2,968.8,614.7,968.8,612.6z"/>
				</g>
				<path class="st12" d="M894,670.2c0-10.9-7.7-24.2-17.1-29.7c-4.8-2.8-9.2-3-12.3-1.1l-19.9,14.2l-94,54.6l24.6,41.8l93-54.1
					c20.6-14.5,21.2-14.9,21.7-15.3l0.1,0l0,0C892.4,678.7,894,675.1,894,670.2z"/>
				<linearGradient id="SVGID_4_" gradientUnits="userSpaceOnUse" x1="820.7301" y1="683.9313" x2="811.699" y2="668.2889">
					<stop  offset="0" style="stop-color:#C9C9C9"/>
					<stop  offset="0" style="stop-color:#FFFFFF"/>
					<stop  offset="0.1494" style="stop-color:#D5D5D5"/>
					<stop  offset="0.3632" style="stop-color:#9F9F9F"/>
					<stop  offset="0.5626" style="stop-color:#747474"/>
					<stop  offset="0.7415" style="stop-color:#555555"/>
					<stop  offset="0.8933" style="stop-color:#434343"/>
					<stop  offset="1" style="stop-color:#3C3C3C"/>
				</linearGradient>
				<path class="st13" d="M757.4,719.9l125.1-75c-1.8-1.7-3.7-3.3-5.7-4.4c-4.8-2.8-9.2-3-12.3-1.1l0,0l-113.9,68.9L757.4,719.9z"/>
				<g>
					<radialGradient id="SVGID_5_" cx="763.8445" cy="728.5159" r="19.7986" gradientUnits="userSpaceOnUse">
						<stop  offset="0" style="stop-color:#858585"/>
						<stop  offset="0.1758" style="stop-color:#8B8B8B"/>
						<stop  offset="0.4257" style="stop-color:#9E9E9E"/>
						<stop  offset="0.7184" style="stop-color:#BCBCBC"/>
						<stop  offset="1" style="stop-color:#E0E0E0"/>
					</radialGradient>
					<path class="st14" d="M781,738.4c0,10.9-7.7,15.4-17.1,9.9s-17.1-18.8-17.1-29.7c0-10.9,7.7-15.4,17.1-9.9S781,727.5,781,738.4
						z"/>
					<path class="st12" d="M767.1,733.3c0,6.2-5,11.2-11.2,11.2c-6.2,0-11.2-5-11.2-11.2c0-6.2,5-11.2,11.2-11.2
						C762.1,722.1,767.1,727.1,767.1,733.3z"/>
					<path class="st6" d="M753.9,729.2c0,1.8-1.5,3.3-3.3,3.3c-1.8,0-3.3-1.5-3.3-3.3c0-1.8,1.5-3.3,3.3-3.3
						C752.4,725.9,753.9,727.4,753.9,729.2z"/>
				</g>
				<path class="st6" d="M765.1,708c-5.1-2.9-9.6-3-12.7-0.8c3-1.4,7.1-1,11.5,1.5c9.5,5.5,17.1,18.8,17.1,29.7
					c0,5.1-1.7,8.7-4.4,10.7c3.5-1.6,5.7-5.6,5.7-11.4C782.3,726.7,774.6,713.5,765.1,708z"/>
			</g>
			<g>
				<path class="st6" d="M1164.4,475.8c-50.1-28.9-131.4-28.9-181.5,0c-26.1,15.1-38.6,35-37.5,54.8c1-18.2,13.5-36.2,37.5-50
					c50.1-28.9,131.4-28.9,181.5,0c24,13.9,36.5,31.9,37.5,50C1203,510.8,1190.5,490.8,1164.4,475.8z"/>
				<path class="st6" d="M1177.9,588.3c-57.5,33.2-150.9,33.2-208.4,0c-27.7-16-42.1-36.8-43.1-57.8c-1.1,22.6,13.2,45.3,43.1,62.5
					c57.6,33.2,150.9,33.2,208.4,0c29.8-17.2,44.1-40,43.1-62.5C1219.9,551.5,1205.6,572.3,1177.9,588.3z"/>
			</g>
		</g>
	</g>
	<g>
		<rect x="763.8" y="111" class="st4" width="41" height="38.3"/>
		<path class="st4" d="M986.4,139.6L802.9,245.7c-14.8,8.5-33,8.5-47.7,0L577.5,143.3c-6.2-3.6-9.3-9.8-9.3-16v31.2h0
			c0,6.2,3.1,12.4,9.2,15.9l177.7,102.4c14.8,8.5,33,8.5,47.7,0l183.5-106.2c5-2.9,7.4-7.9,7.4-12.9v-30.9
			C993.8,131.8,991.3,136.7,986.4,139.6z"/>
		<path class="st3" d="M755,246.9L577.3,144.5c-6.5-4.6-9-10.9-9-17.2v31.2h0c0,6.2,3.1,12.4,9.2,15.9l177.7,102.4
			c2.9,1.7,5.8,3,8.9,4l-0.2-30C760.8,249.8,757.8,248.5,755,246.9z"/>
		<path class="st3" d="M777.8,253.1v30.1c4.7,0.1,9.4-0.4,13.9-1.7v-30.1C787.2,252.7,782.5,253.2,777.8,253.1z"/>
		<path class="st5" d="M986.4,113.9L796.9,4.7c-10.9-6.3-24.3-6.3-35.2,0L577.5,111.3c-12.3,7.1-12.4,24.9,0,32.1l177.7,102.4
			c14.8,8.5,33,8.5,47.7,0l183.5-106.2C996.3,133.9,996.3,119.6,986.4,113.9z M798.8,131.2c-8,4.6-21,4.6-29,0c-8-4.6-8-12.1,0-16.7
			c8-4.6,21-4.6,29,0C806.8,119.1,806.8,126.6,798.8,131.2z"/>
		<path class="st4" d="M568.3,127.1L568.3,127.1l0,0.2C568.3,127.2,568.3,127.2,568.3,127.1z"/>
		<path class="st5" d="M568.3,127.1L568.3,127.1l0,0.2C568.3,127.2,568.3,127.2,568.3,127.1z"/>
		<path class="st6" d="M695.2,126.8c-0.1-0.9-0.2-1.8-0.2-2.8c0-12.3,8.8-24.1,24.7-33.3c17.8-10.3,41.2-15.4,64.5-15.4
			c12.8,0,25.5,1.6,37.4,4.7l-25,3.1L871,96.3l-25-42l-5.6,17.4C801.2,56.6,747.5,59,713,78.9c-20.3,11.7-31.5,27.8-31.5,45.1
			c0,1.5,0.1,3.1,0.3,4.6c0.3,2.1,1.5,4,3.3,5.1C690,136.7,695.8,132.5,695.2,126.8z"/>
		<path class="st6" d="M882.8,116.6c-0.1,0-0.1-0.1-0.2-0.1c-4.1-2.6-9.5,0.6-9.1,5.4c0.1,0.7,0.1,1.5,0.1,2.2
			c0,12.3-8.8,24.1-24.7,33.3v0c-31.1,18-79.3,20.2-114.7,6.8l27.5-5.3l-74.2-14.3l24.7,42.8l8.3-14.4c18.5,8.7,41.2,13.1,63.8,13.1
			c25.8,0,51.7-5.7,71.3-17v0c20.1-11.6,31.2-27.3,31.5-44.4C887.2,121.4,885.5,118.3,882.8,116.6z"/>
		<ellipse class="st15" cx="784.3" cy="122.9" rx="20.5" ry="11.8"/>
		<path class="st6" d="M983.3,138.2L802,243.1c-6.9,4-14.8,6.1-22.9,6.1c-8.1,0-16-2.1-22.9-6.1L580.7,142
			c-5.3-3.1-12.2-10.6-12.2-16.7c-0.1,0.7-0.1,1.4-0.1,2.1c0,7.5,3.9,14.3,10.4,18.1l175.5,101.1c7.7,4.4,16.3,6.6,24.9,6.6
			c8.6,0,17.2-2.2,24.8-6.6l181.3-104.9c5.4-3.1,8.6-8.7,8.6-14.9C993.8,131.5,987.4,135.8,983.3,138.2z"/>
	</g>
	<g>
		<g>
			<g>
				<g>
					<g>
						<g>
							<path class="st4" d="M837.6,1065.2l-162.9,92.8c-11.1,6.4-24.7,6.4-35.8,0l-196.6-113.4c-4.6-2.7-6.9-7.4-6.9-12v29.6h0
								c0,4.7,2.3,9.3,6.9,12l196.6,113.4c11.1,6.4,24.7,6.4,35.8,0l162.9-92.8c3.7-2.2,5.6-5.9,5.5-9.7v-29.4
								C843.1,1059.3,841.2,1063,837.6,1065.2z"/>
							<path class="st16" d="M435.3,1032.3L435.3,1032.3l0,0.1C435.3,1032.4,435.3,1032.4,435.3,1032.3z"/>
						</g>
						<path class="st5" d="M442.3,1020.4l163.4-91.9c8.2-4.7,18.3-4.7,26.4,0l205.5,118.5c7.4,4.3,7.4,14.9,0,19.2l-162.9,91.6
							c-11.1,6.4-24.7,6.4-35.8,0l-196.6-113.4C433,1039.2,433,1025.8,442.3,1020.4z"/>
						<g>
							<path class="st3" d="M638.9,1157.9l-196.6-113.4c-4.6-2.7-6.9-7.4-6.9-12v29.6h0c0,4.7,2.3,9.3,6.9,12l196.6,113.4
								c2.1,1.2,4.4,2.2,6.7,3v-29.5C643.3,1160.1,641,1159.1,638.9,1157.9z"/>
							<path class="st3" d="M435.3,1032.3L435.3,1032.3l0,0.1C435.3,1032.4,435.3,1032.4,435.3,1032.3z"/>
						</g>
						<path class="st3" d="M655.8,1162.7v29.5c3.5,0.1,7-0.3,10.4-1.3v-29.5C662.9,1162.3,659.4,1162.8,655.8,1162.7z"/>
						<path class="st17" d="M442.3,1020.4l163.4-91.9c8.2-4.7,18.3-4.7,26.4,0l205.5,118.5c7.4,4.3,7.4,14.9,0,19.2l-162.9,91.6
							c-11.1,6.4-24.7,6.4-35.8,0l-196.6-113.4C433,1039.2,433,1025.8,442.3,1020.4z"/>
					</g>
				</g>
			</g>
			<g>
				<g>
					<polygon class="st18" points="750.3,1079.7 759.4,1057.4 748.6,1040.5 809.8,1056.9 					"/>
				</g>
				<path class="st18" d="M760.2,1063.8l-0.9-10.3l-158.1,13.2l24.2-41.9l-129.3,14.5c0,0-4.3,0.6-6,1.5c-3.5,2-3.5,5.3,0,7.3
					c1.9,1.1,4.6,1.5,7.1,1.4l109.1-12.2l-23.8,41.3L760.2,1063.8z"/>
			</g>
		</g>
		<g>
			<g>
				<polygon class="st18" points="664,1015.7 669.1,1003.4 663.1,994 697,1003.1 				"/>
			</g>
			<path class="st6" d="M669.5,1006.9l-0.5-5.7l-87.8,7.3l13.4-23.3l-71.8,8c-1.3,0.1-2.4,0.3-3.3,0.8c-1.9,1.1-1.9,2.9,0,4
				c1.1,0.6,2.5,0.9,3.9,0.8l60.5-6.7l-13.2,22.9L669.5,1006.9z"/>
		</g>
	</g>
</g>
</svg>
