<?xml version="1.0" encoding="utf-8"?>
<!-- Generator: Adobe Illustrator 23.0.3, SVG Export Plug-In . SVG Version: 6.00 Build 0)  -->
<svg version="1.1" id="Layer_1" xmlns="http://www.w3.org/2000/svg" xmlns:xlink="http://www.w3.org/1999/xlink" x="0px" y="0px"
	 viewBox="0 0 441.8 294.1" style="enable-background:new 0 0 441.8 294.1;" xml:space="preserve">
<style type="text/css">
	.st0{fill:#E26F66;}
	.st1{fill:#C14736;}
	.st2{fill:#F1563C;}
	.st3{fill:#FFFFFF;}
	.st4{opacity:0.5;fill:#E2E2E2;}
	.st5{opacity:0.3;fill:#D4ECFF;}
	.st6{fill:url(#SVGID_1_);}
	.st7{fill:url(#SVGID_2_);}
	.st8{fill:url(#SVGID_3_);}
	.st9{fill:#5E5E5E;}
	.st10{fill:url(#SVGID_4_);}
	.st11{fill:url(#SVGID_5_);}
	.st12{fill:none;stroke:#FFFFFF;stroke-width:0.25;stroke-miterlimit:10;}
	.st13{fill:#B8BCFC;}
	.st14{fill:#ECF3FA;}
</style>
<g>
	<rect x="202.9" y="115.2" class="st1" width="42.6" height="39.7"/>
	<path class="st1" d="M434.1,144.9L243.6,255.1c-15.3,8.8-34.2,8.8-49.5,0L9.6,148.8C3.2,145.1,0,138.6,0,132.1v32.4h0
		c0,6.4,3.2,12.9,9.6,16.6L194,287.4c15.3,8.9,34.2,8.9,49.5,0l190.5-110.2c5.2-3,7.7-8.2,7.7-13.4v-32.1
		C441.7,136.8,439.2,141.9,434.1,144.9z"/>
	<path class="st0" d="M193.8,256.3L9.4,150C2.7,145.2,0,138.6,0,132.1v32.4h0c0,6.4,3.2,12.9,9.6,16.6L194,287.4
		c3,1.7,6.1,3.1,9.2,4.1l-0.2-31.1C199.9,259.3,196.8,258,193.8,256.3z"/>
	<path class="st0" d="M217.5,262.8V294c4.9,0.1,9.7-0.4,14.4-1.7V261C227.2,262.3,222.4,262.9,217.5,262.8z"/>
	<path class="st2" d="M434.1,118.3L237.3,4.9c-11.3-6.5-25.3-6.5-36.6,0L9.6,115.5c-12.8,7.4-12.8,25.9,0,33.3L194,255.1
		c15.3,8.9,34.2,8.9,49.5,0l190.5-110.2C444.3,139,444.3,124.2,434.1,118.3z M239.3,136.2c-8.3,4.8-21.8,4.8-30.1,0
		c-8.3-4.8-8.3-12.6,0-17.4c8.3-4.8,21.8-4.8,30.1,0C247.6,123.6,247.6,131.4,239.3,136.2z"/>
	<path class="st1" d="M0,132L0,132l0,0.2C0,132.1,0,132,0,132z"/>
	<path class="st2" d="M0,132L0,132l0,0.2C0,132.1,0,132,0,132z"/>
	<path class="st3" d="M131.7,131.6c-0.1-1-0.2-1.9-0.2-2.9c0-12.7,9.1-25,25.7-34.6c18.5-10.7,42.7-16,67-16
		c13.3,0,26.5,1.6,38.8,4.8l-26,3.2l77.2,13.8l-26-43.6l-5.8,18.1c-40.7-15.7-96.4-13.2-132.3,7.5c-21.1,12.2-32.7,28.8-32.7,46.8
		c0,1.6,0.1,3.2,0.3,4.8c0.3,2.2,1.5,4.2,3.4,5.3C126.3,141.9,132.4,137.6,131.7,131.6z"/>
	<path class="st3" d="M326.5,121c-0.1,0-0.1-0.1-0.2-0.1c-4.3-2.7-9.9,0.6-9.4,5.6c0.1,0.8,0.1,1.5,0.1,2.3c0,12.7-9.1,25-25.7,34.6
		v0c-32.3,18.6-82.3,21-119,7l28.5-5.5l-77-14.8l25.7,44.5l8.6-14.9c19.2,9.1,42.7,13.6,66.3,13.6c26.8,0,53.6-5.9,74-17.7v0
		c20.8-12,32.4-28.4,32.7-46.1C331.1,126,329.4,122.8,326.5,121z"/>
	<ellipse class="st12" cx="224.2" cy="127.5" rx="21.3" ry="12.3"/>
	<path class="st3" d="M430.8,143.5L242.6,252.4c-7.2,4.2-15.4,6.3-23.8,6.3c-8.4,0-16.6-2.2-23.8-6.4l-182.2-105
		c-5.5-3.2-12.6-11-12.7-17.4c-0.1,0.7-0.1,1.4-0.1,2.1c0,7.8,4,14.8,10.8,18.8l182.2,105c8,4.6,16.9,6.9,25.8,6.9
		c8.9,0,17.8-2.3,25.8-6.9L432.8,147c5.6-3.2,8.9-9,8.9-15.4C441.8,136.6,435.1,141,430.8,143.5z"/>
</g>
</svg>
