<?xml version="1.0" encoding="utf-8"?>
<!-- Generator: Adobe Illustrator 23.0.3, SVG Export Plug-In . SVG Version: 6.00 Build 0)  -->
<svg version="1.1" id="Layer_1" xmlns="http://www.w3.org/2000/svg" xmlns:xlink="http://www.w3.org/1999/xlink" x="0px" y="0px"
	 viewBox="0 0 423.3 277.4" style="enable-background:new 0 0 423.3 277.4;" xml:space="preserve">
<style type="text/css">
	.st0{fill:#E26F66;}
	.st1{fill:#C14736;}
	.st2{fill:#F1563C;}
	.st3{fill:#FFFFFF;}
	.st4{opacity:0.5;fill:#E2E2E2;}
	.st5{opacity:0.3;fill:#D4ECFF;}
	.st6{fill:url(#SVGID_1_);}
	.st7{fill:url(#SVGID_2_);}
	.st8{fill:url(#SVGID_3_);}
	.st9{fill:#5E5E5E;}
	.st10{fill:url(#SVGID_4_);}
	.st11{fill:url(#SVGID_5_);}
	.st12{fill:none;stroke:#FFFFFF;stroke-width:0.25;stroke-miterlimit:10;}
	.st13{fill:#B8BCFC;}
	.st14{fill:#ECF3FA;}
</style>
<g>
	<g>
		<g>
			<g>
				<g>
					<g>
						<g>
							<path class="st1" d="M417.6,145.5l-169.1,96.3c-11.5,6.6-25.7,6.6-37.2,0L7.2,124c-4.8-2.8-7.2-7.6-7.2-12.5v30.7h0
								c0,4.8,2.4,9.7,7.2,12.4l204.1,117.7c11.5,6.6,25.7,6.7,37.2,0l169.1-96.3c3.9-2.2,5.8-6.2,5.8-10.1v-30.5
								C423.3,139.4,421.4,143.3,417.6,145.5z"/>
							<path class="st13" d="M0,111.4L0,111.4l0,0.1C0,111.5,0,111.4,0,111.4z"/>
						</g>
						<path class="st2" d="M7.2,99L176.8,3.7c8.5-4.9,18.9-4.9,27.4,0l213.3,123c7.7,4.4,7.7,15.5,0,19.9l-169.1,95.1
							c-11.5,6.6-25.7,6.6-37.2,0L7.2,124C-2.4,118.5-2.4,104.6,7.2,99z"/>
						<g>
							<path class="st0" d="M211.3,241.7L7.2,124c-4.8-2.8-7.2-7.6-7.2-12.5v30.7h0c0,4.8,2.4,9.7,7.2,12.4l204.1,117.7
								c2.2,1.3,4.6,2.3,6.9,3.1v-30.7C215.9,244,213.5,243,211.3,241.7z"/>
							<path class="st0" d="M0,111.4L0,111.4l0,0.1C0,111.5,0,111.4,0,111.4z"/>
						</g>
						<path class="st0" d="M228.9,246.7v30.7c3.6,0.1,7.3-0.3,10.8-1.3v-30.7C236.2,246.4,232.6,246.8,228.9,246.7z"/>
						<path class="st3" d="M423.3,136.7c0,3.4-3.8,6.5-6.8,8.2L247.5,240c-10.8,6.3-24.3,6.3-35.1,0L8.2,122.3
							C4.3,120,0,116,0,111.5s0-5.9,0,0c0,5.9,1,11.3,6.2,14.2l204.1,117.7c6,3.5,12.8,5.2,19.6,5.2c6.8,0,13.5-1.7,19.6-5.2
							l169.1-95.1C422.8,146,423.3,141.6,423.3,136.7C423.3,136.7,423.3,133.3,423.3,136.7z"/>
					</g>
				</g>
			</g>
			<g>
				<g>
					<polygon class="st14" points="327,160.5 336.5,137.4 325.2,119.9 388.7,136.9 					"/>
				</g>
				<path class="st14" d="M337.2,144l-0.9-10.7L172.3,147l25.1-43.5l-134.2,15c0,0-4.5,0.6-6.2,1.6c-3.6,2.1-3.6,5.5,0,7.5
					c2,1.2,4.7,1.6,7.4,1.5l113.2-12.6l-24.7,42.9L337.2,144z"/>
			</g>
		</g>
		<g>
			<g>
				<polygon class="st14" points="237.4,94.2 242.6,81.3 236.4,71.6 271.7,81 				"/>
			</g>
			<path class="st3" d="M243.1,85l-0.5-5.9l-91.1,7.6l13.9-24.1l-74.5,8.4c-1.4,0.1-2.5,0.3-3.4,0.8c-2,1.2-2,3,0,4.2
				c1.1,0.6,2.6,0.9,4.1,0.8l62.9-7l-13.7,23.8L243.1,85z"/>
		</g>
	</g>
</g>
</svg>
