<?xml version="1.0" encoding="utf-8"?>
<!-- Generator: Adobe Illustrator 23.0.3, SVG Export Plug-In . SVG Version: 6.00 Build 0)  -->
<svg version="1.1" id="Layer_1" xmlns="http://www.w3.org/2000/svg" xmlns:xlink="http://www.w3.org/1999/xlink" x="0px" y="0px"
	 viewBox="0 0 1240 1203.3" style="enable-background:new 0 0 1240 1203.3;" xml:space="preserve">
<style type="text/css">
	.st0{opacity:0.2;fill:#727272;}
	.st1{opacity:0.1;fill:#727272;}
	.st2{opacity:0.3;fill:#727272;}
	.st3{fill:#E26F66;}
	.st4{fill:#C14736;}
	.st5{fill:#F1563C;}
	.st6{fill:#FFFFFF;}
	.st7{opacity:0.5;fill:#E2E2E2;}
	.st8{opacity:0.3;fill:#D4ECFF;}
	.st9{fill:url(#SVGID_1_);}
	.st10{fill:url(#SVGID_2_);}
	.st11{fill:url(#SVGID_3_);}
	.st12{fill:#5E5E5E;}
	.st13{fill:url(#SVGID_4_);}
	.st14{fill:url(#SVGID_5_);}
	.st15{fill:none;stroke:#FFFFFF;stroke-width:0.25;stroke-miterlimit:10;}
	.st16{fill:#B8BCFC;}
	.st17{fill:none;stroke:#FFFFFF;stroke-width:0.75;stroke-miterlimit:10;}
	.st18{fill:#ECF3FA;}
	.st19{opacity:0.3;}
	.st20{fill:#727272;}
	.st21{fill:none;stroke:#FFFFFF;stroke-miterlimit:10;}
	.st22{enable-background:new    ;}
	.st23{fill:#E3DEDA;}
	.st24{fill:#DBB391;}
	.st25{fill:#DBD5D1;}
	.st26{fill:#898989;}
	.st27{opacity:0.7;fill:#A17E85;}
	.st28{fill:#CAC1B8;}
	.st29{fill:#F5F1EE;}
	.st30{fill:url(#SVGID_6_);}
	.st31{fill:#ADADAD;}
	.st32{fill:url(#SVGID_7_);}
	.st33{fill:#69544B;}
	.st34{fill:#4E3F38;}
	.st35{fill:#3B2F2A;}
	.st36{fill:url(#SVGID_8_);}
	.st37{fill:#383A35;}
	.st38{fill:url(#SVGID_9_);}
	.st39{fill:url(#SVGID_10_);}
</style>
<g>
	<path class="st0" d="M377,584.8c-3.1-1.8-5.7-4.4-12.2-7.8L134.9,709.3l11,0.5l15.4,59.8L290.8,697c31,0.9,62.5-5.5,86.2-19.1
		C421.5,652.2,421.5,610.5,377,584.8z"/>
	<path class="st1" d="M948.5,293.6c-12-3.7-25.4-7.5-53.2-5.9c0,0-29.6,2-55.7,15.8l-119.3,68.8l63,36.3c14.8,8.5,33,8.5,47.7,0
		l159.7-92.4C990.7,316.3,961.3,297.6,948.5,293.6z"/>
	<path class="st0" d="M470.9,1123.5l157.8-88.7c7.9-4.6,17.6-4.6,25.5,0l63,36.9c7.1,4.1-215.9,130.3-215.9,130.3l-0.4-37.8
		l-29.9-17.4C461.9,1141.6,461.9,1128.7,470.9,1123.5z"/>
	<path class="st2" d="M1240,634.3c0-49.4-69-89.4-154.1-89.4c-60.4,0-112.7,20.2-137.9,49.5c-26.7,30.2-21.6,67.4,15.4,95
		l-41.6,24.4c-15.7-5.6-22.7,2.2-34.6,9.1L783,782.8c-14.3,8.3-24.9,15.3-8.4,24.8c16.5,9.6,34.9,3.9,49.2-4.3l104.1-59.8
		c10.9-6.3,19.1-9.5,12-18l42-24.6c60.6,31.8,154.4,30.9,212.9-2.9c30.2-17.4,45.3-40.3,45.2-63.1C1240,634.7,1240,634.5,1240,634.3
		z"/>
</g>
</svg>
