<?xml version="1.0" encoding="utf-8"?>
<!-- Generator: Adobe Illustrator 23.0.3, SVG Export Plug-In . SVG Version: 6.00 Build 0)  -->
<svg version="1.1" id="Layer_1" xmlns="http://www.w3.org/2000/svg" xmlns:xlink="http://www.w3.org/1999/xlink" x="0px" y="0px"
	 viewBox="0 0 495.7 324" style="enable-background:new 0 0 495.7 324;" xml:space="preserve">
<style type="text/css">
	.st0{fill:#E26F66;}
	.st1{fill:#C14736;}
	.st2{fill:#F1563C;}
	.st3{fill:#FFFFFF;}
	.st4{opacity:0.5;fill:#E2E2E2;}
	.st5{opacity:0.3;fill:#D4ECFF;}
	.st6{fill:url(#SVGID_1_);}
	.st7{fill:url(#SVGID_2_);}
	.st8{fill:url(#SVGID_3_);}
	.st9{fill:#5E5E5E;}
	.st10{fill:url(#SVGID_4_);}
	.st11{fill:url(#SVGID_5_);}
	.st12{fill:none;stroke:#FFFFFF;stroke-width:0.25;stroke-miterlimit:10;}
	.st13{fill:#B8BCFC;}
	.st14{fill:#ECF3FA;}
</style>
<g>
	<g>
		<g>
			<path class="st4" d="M435.7,54c-52-30-136.4-30-188.4,0c-21.6,12.5-34.2,28.1-37.9,44.3c3.2,14.3-5,11.9,12.2,23.5
				c5.4-9.6,18.5-20.4,27.9-27.7c47.5-36.8,140.8-36.6,188.4,0c10,7.7,19,17.2,25,29.4c12.8-10.4,7.9-13.1,10.6-25.2
				C469.9,82.2,457.3,66.5,435.7,54z"/>
			<path class="st1" d="M206.2,98.7l20.3-19.3l61.5-24.3l54.4-9.2l59.7,9.6L447,76.9l26.6,21.5l6-29.5l-9.3-24
				c0,0-23.6-11.3-25.1-12.4c-1.5-1.1-55.2-15-55.2-15l-53.7-2.6l-43.2,4l-43.9,9.5L220,43l-19.2,21.9l-5,23.2L206.2,98.7z"/>
			<line class="st2" x1="479.5" y1="119.9" x2="494.4" y2="88.3"/>
			<path class="st2" d="M247.3,77.5c52-37.4,136.4-37.4,188.4,0c16.4,11.8,27.6,25.8,33.7,40.7c4.6-5.1,3-3.1,5.5-9.9
				c1.4-16.9-10.8-30.5-25.2-40.8c-59.7-42.9-156.6-42.9-216.3,0c-13.1,9.4-20.8,22.6-28.2,34c2.4,7,3.6,11.3,8.5,16.9
				C219.6,103.3,230.9,89.2,247.3,77.5z"/>
			<path class="st5" d="M435.7,54.3c-52-30-136.4-30-188.4,0c-21.6,12.5-34.2,28.1-37.9,44.3c3.7,16.2,16.3,31.9,37.9,44.3
				c52,30,136.4,30,188.4,0c21.6-12.5,34.2-28.1,37.9-44.3C469.9,82.5,457.3,66.8,435.7,54.3z"/>
			<path class="st1" d="M494.4,88.3c-1,2.4-13.9,7.5-15.8,9.3l0-0.6l-3.8,11.3l-15.4,19.9l-22,14.8l-31.4,14.7l-36.4,7.7l-42.2,1.9
				l-36.8-4.9l-39.4-15.8c-5.6-0.7-21-10.6-25.1-14.6L209.4,109c0.3-0.6-1.5-5.1-1.2-5.6c-4.9-4.5-2.1-8.9-4.5-14.5
				c-0.9,1.1-1.7,2.2-2.6,3.4l-11.6-11.4v45.2l0-0.1c0,22.6,14.9,45.2,44.8,62.5c59.7,34.5,156.6,34.5,216.3,0
				C496.1,162.3,493.5,126.7,494.4,88.3z"/>
			<path class="st0" d="M217.8,120.3l-7.2-12.3c0.3-0.6-2.6-4-2.3-4.6c-4.9-4.5-3.2-9.8-5.6-15.5c-0.9,1.1-1.7,2.2-2.6,3.4
				l-11.6-2.4l0.6,36.2l0,0c0,20.3,11.5,40.6,35.6,57L217.8,120.3z"/>
			<path class="st2" d="M449.6,25.9C389.9-8.6,293-8.6,233.3,25.9c-59.7,34.5-59.7,90.4,0,124.9c59.7,34.5,156.6,34.5,216.3,0
				C509.4,116.3,509.4,60.4,449.6,25.9z M435.7,142.7c-52,30-136.4,30-188.4,0c-52-30-52-78.8,0-108.8c52-30,136.4-30,188.4,0
				S487.7,112.7,435.7,142.7z"/>
			<g>
				<g>
					<linearGradient id="SVGID_1_" gradientUnits="userSpaceOnUse" x1="132.5907" y1="220.9697" x2="147.7911" y2="220.9697">
						<stop  offset="0" style="stop-color:#C9C9C9"/>
						<stop  offset="0" style="stop-color:#FFFFFF"/>
						<stop  offset="0.1494" style="stop-color:#D5D5D5"/>
						<stop  offset="0.3632" style="stop-color:#9F9F9F"/>
						<stop  offset="0.5626" style="stop-color:#747474"/>
						<stop  offset="0.7415" style="stop-color:#555555"/>
						<stop  offset="0.8933" style="stop-color:#434343"/>
						<stop  offset="1" style="stop-color:#3C3C3C"/>
					</linearGradient>
					<path class="st6" d="M147.8,225.4c0,4.8-3.4,6.8-7.6,4.4c-4.2-2.4-7.6-8.3-7.6-13.2c0-4.8,3.4-6.8,7.6-4.4
						C144.4,214.6,147.8,220.5,147.8,225.4z"/>
					<linearGradient id="SVGID_2_" gradientUnits="userSpaceOnUse" x1="132.5907" y1="220.9697" x2="147.7911" y2="220.9697">
						<stop  offset="0" style="stop-color:#C9C9C9"/>
						<stop  offset="0" style="stop-color:#FFFFFF"/>
						<stop  offset="0.1494" style="stop-color:#D5D5D5"/>
						<stop  offset="0.3632" style="stop-color:#9F9F9F"/>
						<stop  offset="0.5626" style="stop-color:#747474"/>
						<stop  offset="0.7415" style="stop-color:#555555"/>
						<stop  offset="0.8933" style="stop-color:#434343"/>
						<stop  offset="1" style="stop-color:#3C3C3C"/>
					</linearGradient>
					<path class="st7" d="M147.8,225.4c0,4.8-3.4,6.8-7.6,4.4c-4.2-2.4-7.6-8.3-7.6-13.2c0-4.8,3.4-6.8,7.6-4.4
						C144.4,214.6,147.8,220.5,147.8,225.4z"/>
					<linearGradient id="SVGID_3_" gradientUnits="userSpaceOnUse" x1="178.1216" y1="182.4131" x2="191.3992" y2="205.4106">
						<stop  offset="0" style="stop-color:#3C3C3C"/>
						<stop  offset="0.3967" style="stop-color:#FFFFFF"/>
						<stop  offset="0.413" style="stop-color:#F7F7F7"/>
						<stop  offset="0.5283" style="stop-color:#C1C1C1"/>
						<stop  offset="0.6357" style="stop-color:#969696"/>
						<stop  offset="0.7321" style="stop-color:#777777"/>
						<stop  offset="0.8139" style="stop-color:#656565"/>
						<stop  offset="0.8714" style="stop-color:#5E5E5E"/>
					</linearGradient>
					<path class="st8" d="M232.6,176c0-4.8-3.4-10.7-7.6-13.2c-2.1-1.2-4.1-1.3-5.5-0.5l0,0l-84.8,49.3l10.9,18.5l84.5-49.2
						c0.1-0.1,0.3-0.1,0.4-0.2l0.2-0.1l0,0C231.9,179.7,232.6,178.2,232.6,176z"/>
				</g>
				<path class="st9" d="M154.9,235.8c0-11.3-8-25.2-17.8-30.8c-5-2.9-9.6-3.1-12.8-1.1l-20.7,14.8L6,275.3l25.5,43.4l96.5-56.2
					c21.4-15.1,22-15.4,22.6-15.9l0.1,0l0,0C153.3,244.5,154.9,240.8,154.9,235.8z"/>
				<linearGradient id="SVGID_4_" gradientUnits="userSpaceOnUse" x1="78.8913" y1="250.0048" x2="69.5163" y2="233.7667">
					<stop  offset="0" style="stop-color:#C9C9C9"/>
					<stop  offset="0" style="stop-color:#FFFFFF"/>
					<stop  offset="0.1494" style="stop-color:#D5D5D5"/>
					<stop  offset="0.3632" style="stop-color:#9F9F9F"/>
					<stop  offset="0.5626" style="stop-color:#747474"/>
					<stop  offset="0.7415" style="stop-color:#555555"/>
					<stop  offset="0.8933" style="stop-color:#434343"/>
					<stop  offset="1" style="stop-color:#3C3C3C"/>
				</linearGradient>
				<path class="st10" d="M13.1,287.4L143,209.5c-1.8-1.8-3.8-3.4-5.9-4.6c-5-2.9-9.6-3.1-12.8-1.1l0,0L6,275.3L13.1,287.4z"/>
				<g>
					<radialGradient id="SVGID_5_" cx="19.8396" cy="296.2873" r="20.5525" gradientUnits="userSpaceOnUse">
						<stop  offset="0" style="stop-color:#858585"/>
						<stop  offset="0.1758" style="stop-color:#8B8B8B"/>
						<stop  offset="0.4257" style="stop-color:#9E9E9E"/>
						<stop  offset="0.7184" style="stop-color:#BCBCBC"/>
						<stop  offset="1" style="stop-color:#E0E0E0"/>
					</radialGradient>
					<path class="st11" d="M37.6,306.6c0,11.3-8,15.9-17.8,10.3C10,311.2,2,297.4,2,286c0-11.3,8-15.9,17.8-10.3
						C29.7,281.4,37.6,295.2,37.6,306.6z"/>
					<path class="st9" d="M23.2,301.3c0,6.4-5.2,11.6-11.6,11.6c-6.4,0-11.6-5.2-11.6-11.6c0-6.4,5.2-11.6,11.6-11.6
						C18,289.7,23.2,294.9,23.2,301.3z"/>
					<path class="st3" d="M9.5,297c0,1.9-1.5,3.4-3.4,3.4s-3.4-1.5-3.4-3.4s1.5-3.4,3.4-3.4S9.5,295.1,9.5,297z"/>
				</g>
				<path class="st3" d="M21.2,275c-5.3-3-10-3.1-13.2-0.8c3.2-1.5,7.3-1.1,11.9,1.6c9.8,5.7,17.8,19.5,17.8,30.8
					c0,5.3-1.7,9.1-4.6,11.1c3.6-1.7,5.9-5.8,5.9-11.8C38.9,294.5,31,280.7,21.2,275z"/>
			</g>
			<g>
				<path class="st3" d="M435.7,33.9c-52-30-136.4-30-188.4,0c-27.1,15.6-40.1,36.4-38.9,56.8c1-18.9,14-37.5,38.9-51.9
					c52-30,136.4-30,188.4,0c24.9,14.4,37.9,33.1,38.9,51.9C475.7,70.3,462.8,49.6,435.7,33.9z"/>
				<path class="st3" d="M449.6,150.8c-59.7,34.5-156.6,34.5-216.3,0c-28.8-16.6-43.7-38.2-44.7-60c-1.1,23.4,13.8,47,44.7,64.9
					c59.7,34.5,156.6,34.5,216.3,0c30.9-17.9,45.8-41.5,44.7-64.9C493.3,112.6,478.4,134.2,449.6,150.8z"/>
			</g>
		</g>
	</g>
</g>
</svg>
