<svg version="1.1" id="Layer_1" xmlns="http://www.w3.org/2000/svg" x="0" y="0" viewBox="0 0 165 109" xml:space="preserve"><style>.st20{fill:#ff9300}</style><text transform="translate(41.49 90.439)" font-size="15.807" font-family="OfficinaSansStd-Book" fill="#403b3c">Amazon AWS</text><path d="M68.4 41.6c0 .8.1 1.4.2 1.9.2.5.4 1 .7 1.5.1.2.1.3.1.5s-.1.4-.4.6l-1.3.9c-.2.1-.4.2-.6.2-.2 0-.4-.1-.6-.3-.3-.3-.6-.7-.8-1-.2-.4-.4-.8-.7-1.3-1.7 2-3.7 2.9-6.2 2.9-1.8 0-3.2-.5-4.2-1.5S53 43.6 53 41.9c0-1.8.6-3.3 1.9-4.4 1.3-1.1 3-1.7 5.2-1.7.7 0 1.5.1 2.3.2s1.6.3 2.4.5v-1.6c0-1.6-.3-2.7-1-3.4-.7-.7-1.8-1-3.5-1-.7 0-1.5.1-2.3.3-.8.2-1.6.4-2.3.7-.3.4-.5.5-.7.5-.1 0-.3.1-.3.1-.3 0-.4-.2-.4-.7v-1c0-.3 0-.6.1-.7.1-.1.3-.3.6-.4.7-.4 1.6-.7 2.7-1 1-.3 2.1-.4 3.3-.4 2.5 0 4.4.6 5.6 1.7 1.2 1.1 1.8 2.9 1.8 5.2v6.8zm-8.7 3.3c.7 0 1.4-.1 2.2-.4.8-.3 1.4-.7 2-1.4.3-.4.6-.8.7-1.4s.2-1.1.2-1.8V39c-.6-.1-1.3-.3-2-.4s-1.3-.1-2-.1c-1.4 0-2.5.3-3.2.8-.7.6-1 1.4-1 2.4s.3 1.7.8 2.3c.6.6 1.4.9 2.3.9zm17.1 2.3c-.4 0-.6-.1-.8-.2-.2-.1-.3-.4-.4-.8l-5-16.4c-.1-.4-.2-.7-.2-.8 0-.3.2-.5.5-.5H73c.4 0 .7.1.8.2.2.1.3.4.4.8l3.6 14.1 3.3-14.1c.1-.4.2-.7.4-.8.2-.1.5-.2.8-.2H84c.4 0 .7.1.8.2.2.1.3.4.4.8l3.4 14.2 3.7-14.2c.1-.4.3-.7.4-.8.2-.1.4-.2.8-.2h2c.3 0 .5.2.5.5v.3c0 .1-.1.3-.1.5l-5.1 16.4c-.1.4-.3.7-.4.8-.2.1-.4.2-.8.2h-1.8c-.4 0-.7-.1-.8-.2-.2-.1-.3-.4-.4-.8l-3.3-13.7L80 46.2c-.1.4-.2.7-.4.8-.2.1-.5.2-.8.2h-2zm27.3.5c-1.1 0-2.2-.1-3.3-.4-1.1-.3-1.9-.5-2.4-.8-.3-.2-.6-.4-.7-.6-.1-.2-.1-.4-.1-.6v-1.1c0-.4.2-.7.5-.7.1 0 .3 0 .4.1s.3.1.5.2c.7.3 1.5.6 2.3.7.8.2 1.7.3 2.5.3 1.3 0 2.4-.2 3.1-.7.7-.5 1.1-1.1 1.1-2 0-.6-.2-1.1-.6-1.5s-1.1-.8-2.1-1.1l-3.1-1c-1.6-.5-2.7-1.2-3.4-2.2-.7-.9-1.1-2-1.1-3.1 0-.9.2-1.7.6-2.4.4-.7.9-1.3 1.5-1.7.6-.5 1.4-.8 2.2-1.1.8-.3 1.7-.4 2.7-.4.5 0 1 0 1.4.1.5.1.9.1 1.4.2l1.2.3c.4.1.7.3.9.4.3.2.5.3.6.5.1.2.2.4.2.7v1c0 .4-.2.7-.5.7-.2 0-.4-.1-.8-.3-1.2-.6-2.6-.8-4.1-.8-1.2 0-2.2.2-2.8.6-.7.4-1 1-1 1.9 0 .6.2 1.1.6 1.5s1.2.8 2.3 1.2l3 1c1.5.5 2.6 1.2 3.3 2 .7.9 1 1.9 1 3 0 .9-.2 1.7-.6 2.5-.4.7-.9 1.4-1.6 1.9-.7.5-1.4.9-2.4 1.2-.6.4-1.6.5-2.7.5z" fill="#242f3f"/><path class="st20" d="M108.1 58.1c-7 5.2-17.1 7.9-25.9 7.9C70 66 59 61.4 50.6 53.9c-.7-.6-.1-1.4.7-.9 9 5.2 20.1 8.4 31.6 8.4 7.8 0 16.3-1.6 24.1-4.9 1.2-.6 2.2.7 1.1 1.6z"/><path class="st20" d="M111 54.7c-.9-1.1-5.9-.6-8.2-.3-.7.1-.8-.5-.2-1 4-2.8 10.6-2 11.3-1.1.8 1-.2 7.5-4 10.7-.6.5-1.1.2-.9-.4 1-2 2.9-6.7 2-7.9z"/></svg>