<svg version="1.1" id="Layer_1" xmlns="http://www.w3.org/2000/svg" x="0" y="0" viewBox="0 0 165 109" xml:space="preserve"><style>.st2{fill:#303035}</style><path class="st2" d="M38.6 83.6h1.8l2.7 7.9 2.7-7.9h1.8v9.3h-1.2v-5.5-.9-1.4l-2.7 7.8h-1.2L39.8 85v7.8h-1.2v-9.2zM49.3 83.6h1.2v1.3h-1.2v-1.3zm0 2.5h1.2v6.7h-1.2v-6.7zM57.5 88.4h-1.1c-.1-.4-.2-.8-.5-1-.2-.3-.6-.4-1.2-.4-.7 0-1.2.4-1.6 1.1-.2.5-.3 1-.3 1.7s.1 1.3.4 1.7c.3.5.7.7 1.4.7.5 0 .8-.1 1.1-.4.3-.3.5-.7.6-1.2h1.1c-.1.9-.4 1.6-.9 2-.5.4-1.2.6-1.9.6-.9 0-1.6-.3-2.1-1-.5-.6-.8-1.5-.8-2.4 0-1.2.3-2.1.9-2.8.6-.7 1.3-1 2.2-1 .8 0 1.4.2 1.9.6.4.2.7.9.8 1.8zM58.7 86.1h1.1v1.2c.1-.2.3-.5.7-.8.3-.3.7-.5 1.2-.5h.4v1.2h-.4c-.6 0-1 .2-1.3.6-.3.4-.5.8-.5 1.3V93h-1.1v-6.9zM68.8 89.3c0 1.1-.3 2-.8 2.7-.5.7-1.4 1.1-2.5 1.1-.9 0-1.7-.3-2.2-.9-.5-.6-.8-1.5-.8-2.5 0-1.1.3-2 .9-2.7.6-.7 1.4-1 2.3-1 .9 0 1.6.3 2.2.9.6.5.9 1.3.9 2.4zm-1.2.1c0-.6-.1-1.1-.3-1.5-.3-.6-.9-.9-1.7-.9-.7 0-1.2.3-1.5.8-.3.5-.5 1.2-.5 1.9s.2 1.3.5 1.8.8.7 1.5.7c.8 0 1.3-.3 1.6-.9.3-.6.4-1.2.4-1.9zM70.8 90.7c0 .4.1.7.3.9.3.4.8.6 1.5.6.4 0 .8-.1 1.1-.3.3-.2.5-.5.5-.9 0-.3-.1-.5-.4-.7-.2-.1-.5-.2-1-.3l-.8-.2c-.6-.1-1-.3-1.3-.5-.5-.3-.7-.7-.7-1.3 0-.6.2-1.2.7-1.6.5-.4 1.1-.6 1.9-.6 1 0 1.8.3 2.2.9.3.4.4.8.4 1.2H74c0-.3-.1-.5-.3-.7-.3-.3-.7-.4-1.4-.4-.4 0-.8.1-1 .2-.2.2-.3.4-.3.7 0 .3.1.5.4.7.2.1.4.2.7.3l.9.3c.8.2 1.4.4 1.6.6.4.3.7.7.7 1.4 0 .6-.2 1.1-.7 1.6-.5.4-1.2.7-2.1.7-1 0-1.7-.2-2.1-.7-.4-.5-.6-1-.7-1.7h1.1zM82.5 89.3c0 1.1-.3 2-.8 2.7-.5.7-1.4 1.1-2.5 1.1-.9 0-1.7-.3-2.2-.9-.5-.6-.8-1.5-.8-2.5 0-1.1.3-2 .9-2.7.6-.7 1.4-1 2.3-1 .9 0 1.6.3 2.2.9.6.5.9 1.3.9 2.4zm-1.2.1c0-.6-.1-1.1-.3-1.5-.3-.6-.9-.9-1.7-.9-.7 0-1.2.3-1.5.8s-.5 1.2-.5 1.9.2 1.3.5 1.8.8.7 1.5.7c.8 0 1.3-.3 1.6-.9.3-.6.4-1.2.4-1.9zM84.4 84c.3-.4.8-.6 1.5-.6h.5v1h-.5c-.3 0-.6.1-.6.3-.1.2-.1.6-.1 1.4h1.1v.9h-1.1v5.8h-1.1V87h-.9v-.9h.9V85c.1-.4.1-.8.3-1zM87.7 84.2h1.2v1.9H90v.9h-1.1v4.4c0 .2.1.4.2.5.1 0 .2.1.4.1h.4v.9c-.1 0-.3.1-.4.1H89c-.5 0-.9-.1-1.1-.4-.2-.3-.3-.6-.3-1.1V87h-.9v-.9h.9v-1.9zM96.8 83.6h1.4l3.4 9.3h-1.4l-.9-2.8h-3.7l-1 2.8h-1.3l3.5-9.3zm2.1 5.5L97.4 85l-1.5 4.1h3zM102.1 92l4-4.9h-3.7v-1h5.3v.9l-4 4.8h4.1v1h-5.7V92zM110.2 86.1v4.5c0 .3.1.6.2.8.2.4.6.6 1.1.6.8 0 1.3-.4 1.6-1.1.2-.4.2-.9.2-1.6V86h1.1v6.8h-1.1v-1c-.1.3-.3.5-.6.7-.4.4-1 .5-1.6.5-1 0-1.6-.3-2-1-.2-.3-.3-.8-.3-1.4V86h1.4zM116.3 86.1h1.1v1.2c.1-.2.3-.5.7-.8.3-.3.7-.5 1.2-.5h.4v1.2h-.4c-.6 0-1 .2-1.3.6-.3.4-.5.8-.5 1.3V93h-1.1v-6.9zM125.8 87.2c.2.3.4.7.5 1.2.1.3.1.8.1 1.5h-5c0 .7.2 1.2.5 1.7.3.4.8.6 1.4.6.6 0 1.1-.2 1.4-.6.2-.2.3-.5.4-.8h1.1c0 .2-.1.5-.3.8-.2.3-.4.6-.6.7-.3.3-.8.6-1.3.7-.3.1-.6.1-.9.1-.8 0-1.6-.3-2.1-.9-.6-.6-.9-1.5-.9-2.6s.3-2 .9-2.7c.6-.7 1.4-1 2.3-1 .5 0 .9.1 1.4.3.5.3.9.6 1.1 1zm-.6 1.7c0-.5-.2-.9-.3-1.2-.3-.5-.8-.8-1.6-.8-.5 0-1 .2-1.3.6-.4.4-.5.9-.6 1.4h3.8z"/><g><path d="M85.2 15.8L67 31.6 51.6 59.3h13.9l19.7-43.5zm2.4 3.7l-7.7 21.8 14.8 18.6-28.8 4.9H113L87.6 19.5z" fill="#0071cb"/></g></svg>