<svg width="80" height="80" xmlns="http://www.w3.org/2000/svg" xmlns:xlink="http://www.w3.org/1999/xlink"><defs><path id="a" d="M.228.315h38.528v49.2H.228z"/><path id="c" d="M0 .265h10.495v25.948H0z"/></defs><g fill="none" fill-rule="evenodd"><g transform="translate(27.136 15.17)"><mask id="b" fill="#ffffff"><use xlink:href="#a"/></mask><path d="M10.78 2.586c-.071.062-.134.16-.11.272.014.069 1.319 6.459.623 8.608-1.032 3.172-3.471 6.182-5.623 8.837l-.058.071c-2.05 2.516-3.668 4.504-3.668 6.098v19.11c0 1.222.994 2.216 2.215 2.216h24.913c.03 0 .062-.007.09-.011.078-.01.151-.018.217-.022a4.595 4.595 0 004.157-4.596c0-.414-.058-.837-.168-1.221l-.195-.688.64-.317c1.633-.807 2.647-2.41 2.647-4.186 0-.84-.236-1.668-.682-2.395l-.332-.541.42-.476a4.699 4.699 0 001.174-3.068c0-1.242-.448-2.316-1.26-3.022l-.624-.543.52-.643c.47-.583 1.032-1.617 1.032-3.232 0-2.277-1.719-4.2-3.753-4.2H19.862l.218-1.035c.339-1.602.688-4.103.432-6.919-.453-5.024-2.782-8.497-5.797-8.642-1.169-.038-2.807.023-3.934.545m18.291 46.929H4.16a3.937 3.937 0 01-3.931-3.933v-19.11c0-2.204 1.788-4.401 4.052-7.182l.057-.069c2.057-2.538 4.39-5.416 5.323-8.285.337-1.041-.074-4.836-.67-7.727-.169-.794.175-1.612.875-2.08l.122-.066C11.17.5 12.772.257 14.785.326c3.92.188 6.905 4.288 7.437 10.202.224 2.475.016 4.718-.266 6.393h11c2.964 0 5.468 2.709 5.468 5.916 0 1.64-.461 2.847-.969 3.678.844.997 1.301 2.305 1.301 3.762a6.433 6.433 0 01-1.22 3.725c.42.86.64 1.8.64 2.755 0 2.207-1.135 4.218-3.006 5.393.055.333.082.674.082 1.019a6.304 6.304 0 01-5.738 6.308l-.118.011a2.408 2.408 0 01-.324.027" fill="#F1563C" mask="url(#b)"/></g><g transform="translate(15 38.472)"><mask id="d" fill="#ffffff"><use xlink:href="#c"/></mask><path d="M5.09 1.981a3.377 3.377 0 00-3.373 3.374v15.769a3.377 3.377 0 003.373 3.373h.315a3.378 3.378 0 003.374-3.373V5.354a3.378 3.378 0 00-3.374-3.373H5.09zm.315 24.232H5.09A5.096 5.096 0 010 21.123V5.356A5.096 5.096 0 015.09.265h.315a5.095 5.095 0 015.09 5.09v15.769a5.096 5.096 0 01-5.09 5.09z" fill="#F1563C" mask="url(#d)"/></g><path d="M0 0h80v80H0z"/></g></svg>