<svg version="1.1" id="Layer_1" xmlns="http://www.w3.org/2000/svg" x="0" y="0" viewBox="0 0 165 109" xml:space="preserve"><style>.st26{fill:#4c4c4c}</style><path class="st26" d="M42.7 81.2h5.6c0 .1 0 .3.1.4v.5c0 .7-.1 1.4-.3 2-.2.7-.6 1.3-1.1 1.8-.5.5-1.1 1-1.9 1.3-.7.3-1.5.5-2.4.5-.8 0-1.6-.2-2.3-.5-.7-.3-1.4-.7-1.9-1.3-.5-.5-1-1.2-1.3-1.9-.3-.7-.5-1.5-.5-2.4s.2-1.7.5-2.4.7-1.4 1.3-1.9c.5-.5 1.2-1 1.9-1.3.7-.3 1.5-.5 2.3-.5.9 0 1.7.2 2.4.5s1.4.7 1.9 1.3l-1.3 1.3c-.4-.4-.8-.7-1.3-1-.5-.2-1.1-.3-1.7-.3-.5 0-1.1.1-1.6.3-.5.2-1 .5-1.3.9-.4.4-.7.8-.9 1.3-.2.5-.3 1.1-.3 1.8s.1 1.2.3 1.8c.2.5.5 1 .9 1.3.4.4.8.7 1.3.9.5.2 1 .3 1.6.3.7 0 1.3-.1 1.8-.3.5-.2.8-.5 1.2-.8.2-.2.4-.5.6-.8.2-.3.3-.7.3-1.2h-3.9v-1.6zM53.1 79.3c.6 0 1.2.1 1.7.3.5.2.9.5 1.3.9s.7.8.9 1.3c.2.5.3 1.1.3 1.7 0 .6-.1 1.2-.3 1.7-.2.5-.5 1-.9 1.3-.4.4-.8.7-1.3.9-.5.2-1.1.3-1.7.3-.6 0-1.2-.1-1.7-.3-.5-.2-.9-.5-1.3-.9s-.7-.8-.9-1.3c-.2-.5-.3-1.1-.3-1.7 0-.6.1-1.2.3-1.7.2-.5.5-1 .9-1.3.4-.4.8-.7 1.3-.9.6-.2 1.1-.3 1.7-.3zm0 6.7c.3 0 .6-.1.9-.2.3-.1.5-.3.7-.5.2-.2.4-.5.5-.8.1-.3.2-.7.2-1.1 0-.4-.1-.8-.2-1.1-.1-.3-.3-.6-.5-.8-.2-.2-.5-.4-.7-.5-.3-.1-.6-.2-.9-.2-.3 0-.6.1-.9.2-.3.1-.5.3-.7.5-.2.2-.4.5-.5.8-.1.3-.2.7-.2 1.1 0 .4.1.8.2 1.1.1.3.3.6.5.8.2.2.5.4.7.5.4.1.6.2.9.2zM61.9 79.3c.6 0 1.2.1 1.7.3.5.2.9.5 1.3.9s.7.8.9 1.3c.2.5.3 1.1.3 1.7 0 .6-.1 1.2-.3 1.7-.2.5-.5 1-.9 1.3-.4.4-.8.7-1.3.9-.5.2-1.1.3-1.7.3-.6 0-1.2-.1-1.7-.3-.5-.2-.9-.5-1.3-.9s-.7-.8-.9-1.3c-.2-.5-.3-1.1-.3-1.7 0-.6.1-1.2.3-1.7.2-.5.5-1 .9-1.3.4-.4.8-.7 1.3-.9.6-.2 1.1-.3 1.7-.3zm0 6.7c.3 0 .6-.1.9-.2.3-.1.5-.3.7-.5.2-.2.4-.5.5-.8.1-.3.2-.7.2-1.1 0-.4-.1-.8-.2-1.1-.1-.3-.3-.6-.5-.8-.2-.2-.5-.4-.7-.5-.3-.1-.6-.2-.9-.2-.3 0-.6.1-.9.2-.3.1-.5.3-.7.5-.2.2-.4.5-.5.8-.1.3-.2.7-.2 1.1 0 .4.1.8.2 1.1.1.3.3.6.5.8.2.2.5.4.7.5.3.1.6.2.9.2zM70.6 91.1c-.5 0-1-.1-1.5-.2-.4-.1-.8-.3-1.1-.6s-.6-.5-.8-.8c-.2-.3-.3-.5-.4-.8l1.7-.7c.2.4.4.8.8 1 .4.3.8.4 1.3.4.7 0 1.3-.2 1.7-.6.4-.4.6-1 .6-1.8v-.6h-.1c-.2.4-.6.7-1 .9-.4.2-.9.4-1.5.4-.5 0-1-.1-1.4-.3-.5-.2-.9-.5-1.2-.9-.3-.4-.6-.8-.8-1.3-.2-.5-.3-1.1-.3-1.7 0-.6.1-1.2.3-1.7.2-.5.5-1 .8-1.3.3-.4.7-.7 1.2-.9.5-.2.9-.3 1.4-.3.6 0 1.1.1 1.5.4.4.2.8.5 1 .9h.1v-1h1.7V87c0 .7-.1 1.3-.3 1.8-.2.5-.5 1-.9 1.3-.4.4-.8.6-1.3.8-.4.2-.9.2-1.5.2zm.1-5.1c.3 0 .6-.1.9-.2.3-.1.5-.3.7-.5.2-.2.4-.5.5-.8s.2-.7.2-1.1c0-.4-.1-.8-.2-1.1-.1-.3-.3-.6-.5-.8-.2-.2-.5-.4-.7-.5-.3-.1-.6-.2-.9-.2-.3 0-.6.1-.9.2-.3.1-.5.3-.7.5-.2.2-.4.5-.5.8-.1.3-.2.7-.2 1.1 0 .4.1.8.2 1.1.1.3.3.6.5.8.2.2.5.4.7.5.3.1.6.2.9.2zM76.1 87.4V75.9h1.8v11.5h-1.8zM86.5 85.5c-.3.6-.8 1.1-1.4 1.5-.6.4-1.4.6-2.3.6-.6 0-1.1-.1-1.6-.3-.5-.2-.9-.5-1.3-.9s-.7-.8-.9-1.3c-.2-.5-.3-1.1-.3-1.7 0-.6.1-1.1.3-1.6.2-.5.5-1 .8-1.3.3-.4.8-.7 1.3-.9.5-.2 1-.3 1.6-.3.6 0 1.2.1 1.6.3.5.2.9.5 1.2.9.3.4.6.8.8 1.3.2.5.3 1.1.3 1.7V83.8h-6.1c0 .4.1.7.3 1 .2.3.3.5.6.7.2.2.5.3.7.4.3.1.5.1.8.1.5 0 .9-.1 1.3-.4.3-.2.6-.6.8-.9l1.5.8zm-1.6-3c0-.2-.1-.3-.2-.5s-.2-.4-.4-.5c-.2-.2-.4-.3-.6-.4-.3-.1-.6-.2-1-.2-.5 0-1 .2-1.3.5-.4.3-.6.7-.7 1.2h4.2zM101 85.6c-.5.6-1.1 1.1-1.9 1.5-.7.4-1.6.6-2.6.6-.8 0-1.6-.2-2.4-.5-.7-.3-1.3-.7-1.9-1.3-.5-.5-.9-1.2-1.2-1.9-.3-.7-.5-1.5-.5-2.4 0-.8.2-1.6.5-2.4.3-.7.7-1.4 1.2-1.9s1.1-1 1.9-1.3c.7-.3 1.5-.5 2.4-.5.9 0 1.7.2 2.4.5s1.3.8 1.8 1.4l-.7.7c-.9-1.1-2-1.6-3.4-1.6-.7 0-1.3.1-1.9.4-.6.2-1.1.6-1.5 1-.4.4-.8 1-1 1.6-.3.6-.4 1.3-.4 2.1s.1 1.4.4 2.1c.3.6.6 1.2 1 1.6.4.4 1 .8 1.5 1 .6.2 1.2.4 1.9.4.8 0 1.5-.2 2.1-.5.6-.3 1.2-.8 1.6-1.3l.7.7zM102 87.4V75.9h1v11.5h-1zM108 79.3c.6 0 1.1.1 1.6.3.5.2.9.5 1.3.9s.6.8.8 1.3c.2.5.3 1.1.3 1.7 0 .6-.1 1.2-.3 1.7-.2.5-.5 1-.8 1.3-.4.4-.8.7-1.3.9-.5.2-1 .3-1.6.3-.6 0-1.1-.1-1.6-.3-.5-.2-.9-.5-1.3-.9s-.6-.8-.8-1.3c-.2-.5-.3-1.1-.3-1.7 0-.6.1-1.2.3-1.7.2-.5.5-1 .8-1.3.4-.4.8-.7 1.3-.9.5-.2 1-.3 1.6-.3zm0 7.4c.4 0 .8-.1 1.1-.2.4-.2.7-.4.9-.7.3-.3.5-.6.7-1 .2-.4.2-.9.2-1.3 0-.5-.1-.9-.2-1.3-.2-.4-.4-.7-.7-1-.3-.3-.6-.5-.9-.7-.4-.2-.7-.2-1.1-.2-.4 0-.8.1-1.1.2-.4.2-.7.4-.9.7-.3.3-.5.6-.7 1-.2.4-.2.9-.2 1.3 0 .5.1.9.2 1.3.2.4.4.7.7 1 .3.3.6.5.9.7.3.2.7.2 1.1.2zM118.7 85.9c-.2.2-.3.5-.5.7l-.6.6c-.2.2-.5.3-.8.4-.3.1-.6.1-.9.1-.5 0-.9-.1-1.3-.2-.4-.2-.7-.4-.9-.7-.2-.3-.4-.6-.5-1-.1-.4-.2-.8-.2-1.3v-4.9h1v4.8c0 .8.2 1.5.6 1.9.4.4.9.6 1.6.6.4 0 .7-.1 1-.3.3-.2.6-.4.8-.7.2-.3.4-.6.5-1s.2-.8.2-1.2v-4.2h1v7.9h-1v-1.5zM127.4 86c-.2.2-.3.4-.5.6-.2.2-.4.4-.6.5-.2.2-.5.3-.8.4-.3.1-.7.1-1 .1-.5 0-1-.1-1.4-.3-.5-.2-.8-.5-1.2-.9-.3-.4-.6-.8-.8-1.3-.2-.5-.3-1.1-.3-1.7 0-.6.1-1.2.3-1.7.2-.5.5-1 .8-1.3.3-.4.7-.7 1.2-.9.5-.2.9-.3 1.4-.3.8 0 1.4.2 1.9.5s.9.7 1.1 1.1h.1l-.1-1.1v-3.9h1v11.5h-1V86zm-2.9.7c.4 0 .7-.1 1.1-.2.3-.1.7-.4.9-.6.3-.3.5-.6.6-1 .2-.4.2-.9.2-1.4 0-.5-.1-1-.2-1.4-.2-.4-.4-.8-.6-1-.3-.3-.6-.5-.9-.6-.3-.1-.7-.2-1.1-.2-.4 0-.7.1-1.1.2-.3.2-.7.4-.9.7-.3.3-.5.6-.6 1-.2.4-.2.9-.2 1.4 0 .5.1 1 .2 1.4.2.4.4.8.6 1 .3.3.6.5.9.6.4.1.7.1 1.1.1z"/><g><path d="M89.1 33.6l4.5-4.5.3-1.9c-8.2-7.5-21.2-6.6-28.6 1.8-2.1 2.3-3.6 5.2-4.4 8.2l1.6-.2 9-1.5.7-.7c4-4.4 10.8-5 15.4-1.2h1.5z" fill="#f62a2a"/><path d="M100 37c-1-3.8-3.2-7.2-6.1-9.8l-6.3 6.3c2.7 2.2 4.2 5.5 4.1 8.9v1.1c3.1 0 5.6 2.5 5.6 5.6 0 3.1-2.5 5.6-5.6 5.6H80.5l-1.1 1.2v6.7l1.1 1.1h11.2c8.1.1 14.7-6.4 14.7-14.4.1-4.9-2.3-9.5-6.4-12.3" fill="#3d81fb"/><path d="M69.2 63.7h11.2v-9H69.2c-.8 0-1.6-.2-2.3-.5l-1.6.5-4.5 4.5-.4 1.5c2.5 1.9 5.6 3 8.8 3" fill="#00ac47"/><path d="M69.2 34.5c-8.1 0-14.6 6.6-14.5 14.7 0 4.5 2.1 8.7 5.7 11.5l6.5-6.5c-2.8-1.3-4.1-4.6-2.8-7.4 1.3-2.8 4.6-4.1 7.4-2.8 1.2.6 2.2 1.6 2.8 2.8l6.5-6.5c-2.7-3.7-7-5.8-11.6-5.8" fill="#ffba00"/></g></svg>