<svg version="1.1" id="Layer_1" xmlns="http://www.w3.org/2000/svg" x="0" y="0" viewBox="0 0 165 109" xml:space="preserve"><style>.st41{fill:#7d878f}</style><linearGradient id="SVGID_2_" gradientUnits="userSpaceOnUse" x1="-453.243" y1="1055.689" x2="-453.209" y2="1055.689" gradientTransform="rotate(90 355281.875 889833.375) scale(1179.3556)"><stop offset="0" stop-color="#00b9f5"/><stop offset=".22" stop-color="#00a5ea"/><stop offset=".794" stop-color="#006fca"/><stop offset="1" stop-color="#155fc1"/></linearGradient><path d="M41.2 16.7v40.9H83l40.9-40.9H41.2z" fill="url(#SVGID_2_)"/><path d="M94.1 53.4v3.1h.5v-1.3h.5l.8 1.3h.5l-.9-1.3c.4-.1.8-.3.8-.9 0-.6-.4-.9-1.1-.9h-1.1zm.4.4h.6c.3 0 .7 0 .7.4 0 .5-.4.5-.7.5h-.5l-.1-.9zm.6-1.5c-1.5 0-2.7 1.1-2.7 2.6s1.2 2.7 2.7 2.7c1.5 0 2.6-1.2 2.6-2.6.1-1.6-1.1-2.7-2.6-2.7zm0 .4c1.2 0 2.1 1 2.1 2.2 0 1.3-.9 2.2-2.1 2.2-1.2 0-2.2-.9-2.2-2.2 0-1.2 1-2.2 2.2-2.2z" fill="#006fca"/><path d="M90.7 36.3h-1.8v-6.6h1.8c2.4 0 4.3.8 4.3 3.2 0 2.6-1.9 3.4-4.3 3.4m-19.3 4.6c-.9 0-1.8-.2-2.6-.5l2.6-8.1h.1l2.5 8.2c-.8.3-1.7.4-2.6.4m18.8-16.5h-8.1v19.4L75 24.4h-7l-6.1 16.2c-.6-4.1-4.9-5.5-8.2-6.5-2.2-.7-4.5-1.7-4.5-2.9 0-.9 1.3-1.8 3.7-1.7 1.6.1 3.1.2 6 1.6l2.8-4.9c-2.6-1.3-6.2-2.2-9.2-2.2-3.5 0-6.3 1.1-8.1 3-1.2 1.3-1.9 2.9-1.9 4.7 0 2.5.9 4.3 2.8 5.7 1.6 1.2 3.7 2 5.5 2.5 2.3.7 4.1 1.3 4.1 2.6 0 .5-.2.9-.5 1.3-.6.6-1.4.8-2.6.8-2.3 0-4-.3-6.7-1.9l-2.5 5c2.8 1.6 6 2.4 9.2 2.5h.2c2.9-.1 5.2-.9 7-2.4l.3-.3-.8 2.2h7.4l1.2-3.8c1.3.4 2.8.7 4.3.7s3-.2 4.2-.7l1.2 3.7h12.1v-7.8h2.6c6.4 0 10.1-3.2 10.1-8.7.1-5.9-3.6-8.7-11.4-8.7" fill-rule="evenodd" clip-rule="evenodd" fill="#ffffff"/><g><path class="st41" d="M70.9 92.3c-1.9 0-3.4-.6-4.7-1.9-1.2-1.3-1.9-2.8-1.9-4.7 0-1.9.6-3.4 1.9-4.7 1.2-1.3 2.8-1.9 4.7-1.9 1.9 0 3.5.7 4.6 2.1l-1.2 1.1c-.9-1.1-2.1-1.6-3.5-1.6s-2.6.5-3.5 1.4c-.9.9-1.4 2.1-1.4 3.6s.5 2.7 1.4 3.6c.9.9 2.1 1.4 3.5 1.4 1.5 0 2.7-.6 3.8-1.9l1.2 1.1c-.6.7-1.3 1.3-2.2 1.7-.8.5-1.7.7-2.7.7zM79.4 92h-1.6V79.4h4.3c1.1 0 2 .4 2.8 1.1.8.7 1.2 1.6 1.2 2.7 0 .9-.3 1.6-.9 2.3-.6.7-1.3 1.1-2.2 1.3v.1l3.5 5.1h-1.9l-3.4-5.1h-1.8V92zm0-11.1v4.4H82c.7 0 1.2-.2 1.7-.6.5-.4.7-1 .7-1.6 0-.6-.2-1.1-.6-1.5-.4-.4-1-.7-1.6-.7h-2.8zM89.6 92H88V79.4h1.6l4.4 7.7h.1l4.4-7.7h1.6V92h-1.6v-7.5l.1-2.1h-.1l-4 6.9h-1l-4-6.9h-.1l.1 2.1V92z"/></g></svg>