<svg version="1.1" id="Layer_1" xmlns="http://www.w3.org/2000/svg" x="0" y="0" viewBox="0 0 165 109" xml:space="preserve"><style>.st4{fill:#fff}.st41{fill:#7d878f}</style><path d="M76.6 20.3c2.3-2.4 5.4-3.8 8.9-3.8 4.6 0 8.7 2.6 10.9 6.4 1.9-.8 4-1.3 6.1-1.3 8.4 0 15.2 6.9 15.2 15.3 0 8.5-6.8 15.3-15.2 15.3-1 0-2-.1-3-.3-1.9 3.4-5.5 5.7-9.7 5.7-1.7 0-3.4-.4-4.9-1.1-1.9 4.5-6.4 7.7-11.7 7.7-5.5 0-10.1-3.5-11.9-8.3-.8.2-1.6.3-2.4.3-6.5 0-11.8-5.3-11.8-11.9 0-4.4 2.4-8.2 5.9-10.3-.7-1.7-1.1-3.5-1.1-5.4 0-7.5 6.1-13.7 13.7-13.7 4.6 0 8.5 2.1 11 5.4" fill="#00a1e4"/><path class="st4" d="M57.5 40.5v.2c.1.1.3.2.4.2.7.4 1.4.5 2.1.5 1.4 0 2.3-.8 2.3-2 0-1.1-1-1.6-2-1.9h-.1c-.7-.2-1.3-.4-1.3-.9 0-.4.4-.7.9-.7.6 0 1.4.2 1.8.5 0 0 .1.1.2 0 0-.1.3-.7.3-.8 0-.1 0-.1-.1-.2-.5-.3-1.3-.6-2.1-.6h-.1c-1.3 0-2.2.8-2.2 1.9 0 1.2 1 1.6 2 1.9h.2c.7.2 1.3.4 1.3.9 0 .4-.4.8-1 .8-.2 0-1 0-1.9-.5-.1-.1-.2-.1-.2-.1s-.1-.1-.2.1l-.3.7zm21.1 0v.2c.1.1.3.2.4.2.7.4 1.4.5 2.1.5 1.4 0 2.3-.8 2.3-2 0-1.1-1-1.6-2-1.9h-.1c-.7-.2-1.3-.4-1.3-.9 0-.4.4-.7.9-.7.6 0 1.4.2 1.8.5 0 0 .1.1.2 0 0-.1.3-.7.3-.8 0-.1 0-.1-.1-.2-.5-.3-1.3-.6-2.1-.6h-.1c-1.3 0-2.2.8-2.2 1.9 0 1.2 1 1.6 2 1.9h.2c.7.2 1.3.4 1.3.9 0 .4-.4.8-1 .8-.2 0-1 0-1.9-.5-.1-.1-.2-.1-.2-.1s-.1-.1-.2.1l-.3.7zM93.1 38c0 .7-.1 1.3-.4 1.6-.3.4-.6.6-1.2.6-.5 0-.9-.2-1.2-.6-.2-.3-.3-.9-.3-1.6 0-.7.1-1.2.4-1.6.2-.4.6-.6 1.2-.6.5 0 .9.2 1.2.6.1.4.3.9.3 1.6m1.2-1.3c-.1-.4-.3-.8-.5-1-.2-.3-.6-.5-.9-.7-.4-.2-.8-.3-1.3-.3s-.9.1-1.3.3c-.4.2-.7.4-.9.7-.2.3-.4.6-.5 1-.1.4-.2.8-.2 1.3s.1.9.2 1.3.3.8.5 1c.2.3.6.5.9.7.4.2.8.3 1.3.3s.9-.1 1.3-.3c.4-.2.7-.4.9-.7.2-.3.4-.6.5-1 .1-.4.2-.8.2-1.3s-.1-.9-.2-1.3m9.9 3.4c0-.1-.2-.1-.2-.1-.2.1-.4.1-.6.2h-.7c-.6 0-1-.2-1.4-.5-.3-.3-.5-.9-.5-1.6 0-.7.2-1.2.5-1.6.3-.4.7-.6 1.3-.6.5 0 .9.1 1.3.2 0 0 .1 0 .1-.1.1-.3.2-.5.3-.8 0-.1 0-.1-.1-.1-.2-.1-.5-.2-.8-.2-.3 0-.6-.1-.9-.1-.5 0-1 .1-1.3.3-.4.2-.7.4-1 .7-.3.3-.5.6-.6 1-.1.4-.2.8-.2 1.3 0 1 .3 1.8.8 2.4.5.6 1.3.9 2.4.9.6 0 1.3-.1 1.7-.3 0 0 .1 0 0-.1l-.1-.9zm2.1-2.7c.1-.4.2-.7.3-1 .2-.4.6-.6 1.2-.6.5 0 .9.2 1.1.6.2.3.2.6.3 1h-2.9zm4.1-.9c-.1-.4-.4-.8-.5-1-.3-.3-.5-.5-.8-.6-.3-.1-.7-.2-1.2-.2s-1 .1-1.3.3c-.4.2-.7.4-.9.7-.2.3-.4.7-.6 1.1-.1.4-.2.8-.2 1.3s.1.9.2 1.3.3.7.6 1c.3.3.6.5 1 .7.4.2.9.2 1.5.2 1.2 0 1.8-.3 2.1-.4 0 0 .1-.1 0-.2l-.3-.7c0-.1-.2-.1-.2-.1-.3.1-.7.3-1.7.3-.6 0-1.1-.2-1.4-.5-.3-.3-.4-.7-.5-1.4h4.1s.1 0 .1-.1c.1 0 .2-.8 0-1.7m-36.8.9c.1-.4.2-.7.3-1 .2-.4.6-.6 1.2-.6.5 0 .9.2 1.1.6.2.3.2.6.3 1h-2.9zm4.1-.9c-.1-.4-.4-.8-.5-1-.3-.3-.5-.5-.8-.6-.3-.1-.7-.2-1.2-.2s-1 .1-1.3.3c-.4.2-.7.4-.9.7-.2.3-.4.7-.6 1.1-.1.4-.2.8-.2 1.3s.1.9.2 1.3.3.7.6 1c.3.3.6.5 1 .7.4.2.9.2 1.5.2 1.2 0 1.8-.3 2.1-.4 0 0 .1-.1 0-.2l-.3-.7c0-.1-.2-.1-.2-.1-.3.1-.7.3-1.7.3-.6 0-1.1-.2-1.4-.5-.3-.3-.4-.7-.5-1.4h4.1s.1 0 .1-.1c.1 0 .2-.8 0-1.7M64.8 40c-.2-.1-.2-.2-.2-.2-.1-.1-.1-.3-.1-.5 0-.4.1-.6.4-.8 0 0 .4-.3 1.2-.3.6 0 1.1.1 1.1.1v1.9s-.5.1-1.1.1c-1 0-1.3-.3-1.3-.3m1.6-2.8h-.6c-.4 0-.7 0-1 .1-.3.1-.6.2-.9.4-.2.2-.4.4-.6.7-.1.3-.2.6-.2.9 0 .4.1.7.2.9.1.3.3.5.5.6.2.2.5.3.8.4.3.1.7.1 1.1.1.4 0 .8 0 1.2-.1.4-.1.9-.2 1-.2.1 0 .2 0 .3-.1.1 0 .1-.1.1-.1v-3.7c0-.8-.2-1.4-.6-1.8-.4-.4-1.1-.6-1.9-.6-.3 0-.8 0-1.1.1 0 0-.9.2-1.3.5 0 0-.1.1 0 .2l.3.8c0 .1.1.1.1.1h.1c.8-.4 1.8-.4 1.8-.4.4 0 .8.1 1 .3.2.2.3.4.3 1v.2c-.3-.3-.6-.3-.6-.3m32.9-2.1c0-.1 0-.1-.1-.1s-.4-.1-.7-.1c-.5 0-.8.1-1.1.2-.3.1-.5.3-.7.5V35c0-.1 0-.1-.1-.1h-1c-.1 0-.1.1-.1.1v6.1c0 .1.1.1.1.1h1.1c.1 0 .1-.1.1-.1v-3c0-.4 0-.8.1-1.1.1-.3.2-.5.4-.6.1-.1.3-.2.5-.3.2-.1.4-.1.5-.1.2 0 .4.1.4.1.1 0 .1 0 .1-.1.3-.3.5-.8.5-.9"/><path class="st4" d="M89.3 32.2c-.1 0-.2-.1-.4-.1h-.6c-.7 0-1.3.2-1.7.6-.4.4-.7 1-.8 1.9l-.1.3h-.9s-.1 0-.1.1l-.2.8c0 .1 0 .1.1.1h.9l-.9 5.1c-.1.4-.2.7-.2 1-.1.3-.2.4-.3.6-.1.1-.2.2-.4.3-.1 0-.3.1-.5.1h-.3c-.1 0-.1 0-.2-.1 0 0-.1 0-.1.1s-.3.7-.3.8c0 .1 0 .1.1.2.1 0 .2.1.4.1.2.1.4.1.6.1.4 0 .7-.1 1-.2.3-.1.5-.3.8-.5.2-.3.4-.5.5-.9.1-.4.3-.8.4-1.4L87 36h1.3s.1 0 .1-.1l.2-.8c0-.1 0-.1-.1-.1H87s.1-.5.2-.9c.1-.2.2-.3.3-.4.1-.1.2-.2.3-.2.1 0 .3-.1.4-.1h.3c.1 0 .2 0 .2.1.1 0 .2 0 .2-.1l.3-.9c.2-.2.1-.2.1-.3M71 41.1c0 .1 0 .1-.1.1h-1.1c-.1 0-.1-.1-.1-.1v-8.7c0-.1 0-.1.1-.1h1.1c.1 0 .1.1.1.1v8.7z"/><g><path class="st41" d="M70.8 94.1c-2 0-3.7-.7-5.1-2.1-1.4-1.4-2-3.1-2-5.1 0-2.1.7-3.8 2-5.1 1.4-1.4 3.1-2.1 5.1-2.1 2.1 0 3.8.8 5.1 2.3l-1.3 1.2c-1-1.2-2.3-1.8-3.8-1.8s-2.8.5-3.8 1.5-1.5 2.3-1.5 4c0 1.6.5 2.9 1.5 4 1 1 2.3 1.5 3.8 1.5 1.6 0 3-.7 4.2-2l1.3 1.3c-.7.8-1.5 1.4-2.4 1.8-1 .4-2 .6-3.1.6zM80.1 93.8h-1.8V80H83c1.2 0 2.2.4 3 1.2.8.8 1.3 1.8 1.3 2.9 0 .9-.3 1.8-.9 2.5-.6.7-1.4 1.2-2.4 1.4v.1l3.9 5.6v.1h-2.1l-3.7-5.6h-2v5.6zm0-12.1v4.8H83c.7 0 1.3-.2 1.8-.7.5-.5.8-1 .8-1.7 0-.6-.2-1.2-.7-1.7-.5-.5-1.1-.7-1.8-.7h-3zM91.3 93.8h-1.8V80h1.8l4.8 8.4h.1L101 80h1.8v13.8H101v-8.2l.1-2.3h-.1l-4.3 7.6h-1l-4.3-7.6h-.1l.1 2.3v8.2z"/></g></svg>