<svg width="80" height="80" xmlns="http://www.w3.org/2000/svg" xmlns:xlink="http://www.w3.org/1999/xlink">
    <defs>
        <path id="a" d="M0 .22h1.737v15.658H0z"/>
        <path id="c" d="M0 .031h1.737v6.191H0z"/>
        <path id="e" d="M.363.276H2.1V19.11H.363z"/>
    </defs>
    <g fill="none" fill-rule="evenodd">
        <g transform="translate(10 42.362)">
            <mask id="b" fill="#ffffff">
                <use xlink:href="#a"/>
            </mask>
            <path d="M.875.22A.894.894 0 000 1.095v13.908c0 .487.398.875.875.875a.867.867 0 00.862-.875V1.095C1.737.634 1.349.22.875.22"
                  fill="#F1563C" mask="url(#b)"/>
        </g>
        <g transform="translate(10 61.473)">
            <mask id="d" fill="#ffffff">
                <use xlink:href="#c"/>
            </mask>
            <path d="M.875.031A.894.894 0 000 .906v4.441c0 .488.398.875.875.875a.867.867 0 00.862-.875V.907C1.737.444 1.349.03.875.03"
                  fill="#F1563C" mask="url(#d)"/>
        </g>
        <path d="M17.812 36.51c-.49 0-.876.358-.876.849v8.673-3.45a.868.868 0 101.737 0v3.45-8.673a.843.843 0 00-.861-.849M17.812 46.91c-.49 0-.876.36-.876.85v18.755-10.082V66.82a.868.868 0 101.737 0V56.433v10.082-18.756a.843.843 0 00-.861-.848M24.746 32.135a.865.865 0 00-.862.875v17.78c0 .488.387.875.862.875a.867.867 0 00.864-.875V33.01a.865.865 0 00-.864-.875M24.746 55.031a.865.865 0 00-.862.875v-1.102V66.82c0 .488.387.875.862.875a.867.867 0 00.864-.875V54.804v1.102a.866.866 0 00-.864-.875M31.683 36.51c-.475 0-.875.358-.875.849v10.423-3.048c0 .488.4.875.875.875a.865.865 0 00.861-.875v3.048V37.36a.84.84 0 00-.861-.849"
              fill="#F1563C"/>
        <g transform="translate(30.444 48.584)">
            <mask id="f" fill="#ffffff">
                <use xlink:href="#e"/>
            </mask>
            <path d="M1.238.276c-.474 0-.875.358-.875.848v15.53-5.106 6.688c0 .488.401.875.875.875a.865.865 0 00.862-.875v-6.688 5.105V1.124a.84.84 0 00-.862-.848"
                  fill="#F1563C" mask="url(#f)"/>
        </g>
        <path d="M38.62 31.26a.864.864 0 00-.863.875v23.113c0 .488.385.875.862.875a.864.864 0 00.862-.875V32.135a.863.863 0 00-.862-.875M38.62 59.482a.864.864 0 00-.863.876v6.638s.385.7.862.7.862-.7.862-.7v-6.638a.863.863 0 00-.862-.876M59.428 62.028a.863.863 0 00-.862.875v3.66c0 .363.144.722.427.951.127.104.276.182.435.182.159 0 .307-.078.435-.182.283-.229.427-.588.427-.951v-3.66a.864.864 0 00-.862-.875M45.556 26.034a.865.865 0 00-.862.875v20.849c0 .487.385.875.862.875a.876.876 0 00.875-.875V26.909a.876.876 0 00-.875-.875M45.556 51.954a.865.865 0 00-.862.875V66.82c0 .488.385.876.862.876a.876.876 0 00.875-.876V52.83a.876.876 0 00-.875-.875M52.492 32.135a.863.863 0 00-.86.875V42.145c0 .488.384.875.86.875a.867.867 0 00.862-.875V33.01a.865.865 0 00-.862-.875M52.492 46.223a.863.863 0 00-.86.875V66.82c0 .488.384.875.86.875a.867.867 0 00.862-.874V47.098a.865.865 0 00-.862-.875M59.43 33.885a.865.865 0 00-.865.875v23.043c0 .487.387.875.864.875a.867.867 0 00.862-.875V34.76a.865.865 0 00-.862-.875M66.364 24.131a.861.861 0 00-.862.849v10.845c0 .488.387.875.862.875a.867.867 0 00.864-.875V24.98a.862.862 0 00-.864-.849M66.364 40.06a.861.861 0 00-.862.849v25.61c0 .487.387.875.862.875a.867.867 0 00.864-.875v-25.61a.862.862 0 00-.864-.849"
              fill="#F1563C"/>
        <path d="M57.034 27.051c-.965 0-1.75-.772-1.75-1.723 0-.978.785-1.75 1.75-1.75.967 0 1.75.772 1.75 1.75 0 .95-.783 1.723-1.75 1.723zm-13.732-8.7a1.76 1.76 0 01-1.75-1.75c0-.977.786-1.75 1.75-1.75.968 0 1.75.773 1.75 1.75 0 .954-.782 1.75-1.75 1.75zm-10.294 11.66a1.76 1.76 0 01-1.75-1.75c0-.978.786-1.75 1.75-1.75s1.75.772 1.75 1.75c0 .951-.786 1.75-1.75 1.75zm-9.69-4.246c-.978 0-1.75-.772-1.75-1.75 0-.954.772-1.75 1.75-1.75.953 0 1.739.796 1.739 1.75 0 .978-.786 1.75-1.74 1.75zm41.196-11.972l1.258.983-.157.204v.001l-6.096 7.9a3.473 3.473 0 00-2.485-1.053c-.926 0-1.75.384-2.367.951l-8.07-5.12c.116-.336.195-.697.195-1.058a3.48 3.48 0 00-3.49-3.473 3.48 3.48 0 00-3.486 3.473c0 .722.232 1.392.606 1.956l-5.843 6.615a3.307 3.307 0 00-1.571-.411c-1.107 0-2.098.54-2.728 1.365l-3.54-1.545c.027-.181.054-.36.054-.566a3.495 3.495 0 00-3.477-3.476 3.488 3.488 0 00-3.486 3.476c0 .59.142 1.13.4 1.594l-9.936 8.83a.856.856 0 00-.076 1.21.84.84 0 001.233.076l9.91-8.827a3.471 3.471 0 001.955.617c1.107 0 2.085-.54 2.73-1.339l3.537 1.518a2.982 2.982 0 00-.063.567 3.478 3.478 0 003.487 3.474 3.476 3.476 0 003.487-3.474c0-.72-.23-1.389-.603-1.956l5.842-6.615a3.578 3.578 0 001.568.387c.915 0 1.75-.36 2.383-.953l8.054 5.123a3.276 3.276 0 00-.192 1.08 3.488 3.488 0 003.487 3.474 3.486 3.486 0 003.476-3.473c0-.335-.053-.643-.13-.928l6.485-8.44.174-.195 1.241.971.672-4.736-4.438 1.793z"
              fill="#F1563C"/>
        <path d="M0 0h80v80H0z"/>
    </g>
</svg>