<svg xmlns="http://www.w3.org/2000/svg" viewBox="0 0 116 33">
    <defs><style>.cls-1{fill:#1b313c;}.cls-2{fill:#f53e20;}</style></defs>
    <title>Clutch</title>
    <path class="cls-1" d="M0,15.94a2.29,2.29,0,0,0,.07-.36A16,16,0,0,1,4.65,5.26a14.13,14.13,0,0,1,7.69-4A15.5,15.5,0,0,1,26.09,5.51c.29.29.61.57.87.81L23.42,9.89,22.54,9a10.44,10.44,0,0,0-5.87-2.9,9.78,9.78,0,0,0-7.18,1.6,10,10,0,0,0-3.74,4.9A12.55,12.55,0,0,0,5,17.77a11.45,11.45,0,0,0,2,6,9.33,9.33,0,0,0,6.18,4,10.37,10.37,0,0,0,9.15-2.6c.37-.34.71-.71,1.07-1.07l.18-.15L27,27.6c-.57.55-1.09,1.1-1.65,1.6a15.19,15.19,0,0,1-7.47,3.63c-.41.07-.83.1-1.25.16H13.71c-.64-.1-1.29-.15-1.92-.29a14.06,14.06,0,0,1-7.08-3.84A15.89,15.89,0,0,1,.07,18.48c0-.11,0-.22-.07-.33Z"/>
    <path class="cls-1" d="M116,32.65l-1.06,0h-4V32.2c0-3.92,0-7.84,0-11.76a15.81,15.81,0,0,0-.09-1.69,4.73,4.73,0,0,0-.74-2.12,3,3,0,0,0-2.06-1.31,5.82,5.82,0,0,0-3.34.49A4.46,4.46,0,0,0,102.13,19a7.58,7.58,0,0,0-.19,1.78q0,5.66,0,11.31v.48H97c0-.06,0-.13,0-.21a1.48,1.48,0,0,1,0-.21q0-16,0-31.91V0h5V11.39c0,.11,0,.23,0,.34a.8.8,0,0,0,0,.21c.45-.26.86-.52,1.3-.74a9.2,9.2,0,0,1,6.08-.74,7.65,7.65,0,0,1,4.45,2.59,9.29,9.29,0,0,1,2,4.85l.15,1Z"/>
    <path class="cls-1" d="M84.79,33a11,11,0,0,1-10.17-9.12,12.06,12.06,0,0,1,.53-6.57,10.49,10.49,0,0,1,7.16-6.58,11.81,11.81,0,0,1,3.83-.47,11.5,11.5,0,0,1,7.39,2.95l.84.76-3.54,3.55-.77-.66a6.12,6.12,0,0,0-2.63-1.35,6.72,6.72,0,0,0-5.53.94,5.73,5.73,0,0,0-2.42,3.94,6.83,6.83,0,0,0,.35,3.69,5.84,5.84,0,0,0,4.22,3.74,6.39,6.39,0,0,0,6.15-1.53l.66-.58,3.56,3.51a.3.3,0,0,1,0,.1,11.76,11.76,0,0,1-5.58,3.35,10.24,10.24,0,0,1-2,.33Z"/>
    <path class="cls-1" d="M35.21,0c0,.13,0,32.44,0,32.61h-5V0Z"/>
    <path class="cls-2" d="M81.82,21.63a3.76,3.76,0,1,1,3.69,3.82A3.77,3.77,0,0,1,81.82,21.63Z"/>
    <path class="cls-1" d="M69.53,10.7V3.39h-5v7.32H61v4.74h3.54V32.61h5c0-1,0-16.17,0-17.16h4.12V10.7Z"/>
    <path class="cls-1" d="M53.57,11.14V22.63a6.92,6.92,0,0,1-.16,1.57,4.49,4.49,0,0,1-2.91,3.43,6.21,6.21,0,0,1-2.59.41,3,3,0,0,1-2.53-1.41,5.64,5.64,0,0,1-.5-1.09,6.48,6.48,0,0,1-.3-2.14c0-4.09,0-8.17,0-12.25v-.43h-5v.48c0,4.06,0,8.12,0,12.18a13.92,13.92,0,0,0,.28,2.88,8.9,8.9,0,0,0,1.9,4,7.83,7.83,0,0,0,4.74,2.62c.26.05,2.76.09,2.84.08a9.06,9.06,0,0,0,3.89-1.42l.37-.24v1.28h5V10.72h-5Z"/>
</svg>