<svg version="1.1" id="Layer_1" xmlns="http://www.w3.org/2000/svg" x="0" y="0" viewBox="0 0 165 109" xml:space="preserve"><style>.st26{fill:#4c4c4c}</style><path class="st26" d="M28 81h5.7c0 .1 0 .3.1.5v.5c0 .7-.1 1.4-.3 2.1-.2.7-.6 1.3-1.1 1.8-.5.6-1.2 1-1.9 1.3-.7.3-1.5.5-2.5.5-.8 0-1.6-.2-2.4-.5-.7-.3-1.4-.7-2-1.3-.6-.5-1-1.2-1.3-1.9-.3-.7-.5-1.6-.5-2.5 0-.9.2-1.7.5-2.5.3-.7.8-1.4 1.3-1.9.6-.5 1.2-1 2-1.3.7-.3 1.5-.5 2.4-.5.9 0 1.7.2 2.5.5s1.4.8 1.9 1.3l-1.3 1.3c-.4-.4-.8-.8-1.4-1-.5-.2-1.1-.3-1.8-.3-.6 0-1.1.1-1.6.3-.5.2-1 .5-1.4.9-.4.4-.7.8-.9 1.4-.2.5-.3 1.1-.3 1.8s.1 1.3.3 1.8c.2.5.5 1 .9 1.4.4.4.8.7 1.4.9.5.2 1.1.3 1.6.3.8 0 1.4-.1 1.8-.3.5-.2.9-.5 1.2-.8.2-.2.4-.5.6-.9.2-.4.3-.7.3-1.2h-4V81zM38.7 79c.6 0 1.2.1 1.7.3.5.2 1 .5 1.3.9.4.4.7.8.9 1.4.2.5.3 1.1.3 1.7 0 .6-.1 1.2-.3 1.7-.2.5-.5 1-.9 1.4-.4.4-.8.7-1.3.9-.5.2-1.1.3-1.7.3-.6 0-1.2-.1-1.7-.3-.5-.2-1-.5-1.3-.9-.4-.4-.7-.8-.9-1.4-.2-.5-.3-1.1-.3-1.7 0-.6.1-1.2.3-1.7.2-.5.5-1 .9-1.4.4-.4.8-.7 1.3-.9.5-.1 1-.3 1.7-.3zm0 6.9c.3 0 .6-.1.9-.2.3-.1.5-.3.8-.5.2-.2.4-.5.5-.8.1-.3.2-.7.2-1.1 0-.4-.1-.8-.2-1.1-.1-.3-.3-.6-.5-.8-.2-.2-.5-.4-.8-.5-.3-.1-.6-.2-.9-.2-.3 0-.6.1-.9.2-.3.1-.5.3-.8.5-.2.2-.4.5-.5.8-.1.3-.2.7-.2 1.1 0 .4.1.8.2 1.1.1.3.3.6.5.8.2.2.5.4.8.5.3.2.5.2.9.2zM47.6 79c.6 0 1.2.1 1.7.3.5.2 1 .5 1.3.9.4.4.7.8.9 1.4.2.5.3 1.1.3 1.7 0 .6-.1 1.2-.3 1.7-.2.5-.5 1-.9 1.4-.4.4-.8.7-1.3.9-.5.2-1.1.3-1.7.3-.6 0-1.2-.1-1.7-.3-.5-.2-1-.5-1.3-.9-.4-.4-.7-.8-.9-1.4-.2-.5-.3-1.1-.3-1.7 0-.6.1-1.2.3-1.7.2-.5.5-1 .9-1.4.4-.4.8-.7 1.3-.9.5-.1 1.1-.3 1.7-.3zm0 6.9c.3 0 .6-.1.9-.2.3-.1.5-.3.8-.5.2-.2.4-.5.5-.8.1-.3.2-.7.2-1.1 0-.4-.1-.8-.2-1.1-.1-.3-.3-.6-.5-.8-.2-.2-.5-.4-.8-.5-.3-.1-.6-.2-.9-.2s-.6.1-.9.2c-.3.1-.5.3-.8.5-.2.2-.4.5-.5.8-.1.3-.2.7-.2 1.1 0 .4.1.8.2 1.1.1.3.3.6.5.8.2.2.5.4.8.5.3.2.6.2.9.2zM56.4 91.2c-.6 0-1.1-.1-1.5-.2-.4-.1-.8-.3-1.1-.6-.3-.2-.6-.5-.8-.8-.2-.3-.4-.6-.5-.8l1.7-.7c.2.4.4.8.8 1 .4.3.8.4 1.3.4.8 0 1.3-.2 1.8-.7.4-.4.6-1.1.6-1.9v-.7h-.1c-.3.4-.6.7-1 .9-.4.2-1 .4-1.6.4-.5 0-1-.1-1.4-.3-.5-.2-.9-.5-1.2-.9-.4-.4-.6-.8-.8-1.4-.2-.5-.3-1.1-.3-1.7 0-.6.1-1.2.3-1.7.2-.5.5-1 .8-1.4.4-.4.8-.7 1.2-.9.5-.2.9-.3 1.4-.3.6 0 1.1.1 1.6.4.4.2.8.5 1 .9h.1v-1h1.8v7.6c0 .7-.1 1.3-.3 1.8-.2.5-.5 1-.9 1.3-.4.4-.8.6-1.3.8-.4.4-1 .5-1.6.5zm.1-5.3c.3 0 .6-.1.9-.2.3-.1.5-.3.7-.5.2-.2.4-.5.5-.8.1-.3.2-.7.2-1.1 0-.4-.1-.8-.2-1.1-.1-.3-.3-.6-.5-.8-.2-.2-.5-.4-.7-.5-.3-.1-.6-.2-.9-.2-.3 0-.6.1-.9.2-.3.1-.5.3-.7.5-.2.2-.4.5-.5.8-.1.3-.2.7-.2 1.1 0 .4.1.8.2 1.1.1.3.3.6.5.8.2.2.5.4.7.5.3.2.6.2.9.2zM62 87.4V75.6h1.8v11.8H62zM72.7 85.4c-.3.6-.8 1.1-1.4 1.6-.6.4-1.4.6-2.3.6-.6 0-1.2-.1-1.7-.3-.5-.2-.9-.5-1.3-.9s-.7-.8-.9-1.4c-.2-.5-.3-1.1-.3-1.7 0-.6.1-1.1.3-1.7.2-.5.5-1 .8-1.4.4-.4.8-.7 1.3-.9.5-.2 1.1-.3 1.7-.3.6 0 1.2.1 1.7.3.5.2.9.5 1.2.9.3.4.6.8.8 1.3.2.5.3 1.1.3 1.7V83.5h-6.2c0 .4.1.7.3 1 .2.3.3.5.6.7.2.2.5.3.7.4.3.1.5.1.8.1.5 0 1-.1 1.3-.4.3-.3.6-.6.8-.9l1.5 1zM71 82.3c0-.2-.1-.3-.2-.6-.1-.2-.2-.4-.4-.6-.2-.2-.4-.3-.7-.4-.3-.1-.6-.2-1-.2-.5 0-1 .2-1.4.5-.4.3-.6.7-.8 1.3H71zM77.3 75.6h1.1v5.3H85v-5.3h1v11.8h-1v-5.5h-6.6v5.5h-1.1V75.6zM93.1 85.9c-.3.5-.7.9-1.2 1.2-.5.3-1.1.5-1.7.5-.4 0-.8-.1-1.2-.2-.4-.1-.7-.3-1-.6-.3-.2-.5-.5-.6-.8-.2-.3-.2-.7-.2-1.1 0-.4.1-.8.3-1.2.2-.3.4-.6.7-.9s.7-.4 1.1-.5.8-.2 1.3-.2 1 .1 1.5.2c.4.1.8.3 1.1.4v-.5c0-.4-.1-.7-.2-1-.1-.3-.3-.5-.5-.8-.2-.2-.5-.4-.8-.5-.4.1-.7.1-1.1.1-.5 0-.9.1-1.3.3-.4.2-.7.5-1 .9l-.9-.6c.3-.5.7-.9 1.3-1.2.5-.3 1.2-.4 1.9-.4.5 0 1 .1 1.4.2.4.2.8.4 1.1.7.3.3.5.6.7 1 .2.4.2.8.2 1.3v5h-1v-1.3zm0-2.1c-.3-.2-.7-.4-1.1-.5-.4-.1-.8-.2-1.3-.2-.4 0-.7 0-1 .1-.3.1-.6.2-.8.4-.2.2-.4.4-.5.6-.1.2-.2.5-.2.8 0 .3.1.5.2.7.1.2.3.4.5.5.2.1.4.3.7.3.2.1.5.1.8.1.4 0 .7-.1 1.1-.2l.9-.6c.3-.3.5-.6.6-.9 0-.4.1-.7.1-1.1zM96.5 80.8c.2-.2.4-.5.5-.7l.6-.6c.2-.2.5-.3.8-.4.3-.1.6-.1 1-.1.5 0 .9.1 1.3.2.4.2.7.4.9.7.2.3.4.6.6 1 .1.4.2.8.2 1.3v5h-1.1v-4.9c0-.9-.2-1.5-.6-1.9-.4-.4-.9-.6-1.6-.6-.4 0-.7.1-1.1.3-.3.2-.6.4-.8.7-.2.3-.4.6-.5 1-.1.4-.2.8-.2 1.2v4.3h-1.1v-8h1v1.5zM107.3 91.2c-.5 0-1-.1-1.4-.2-.4-.1-.7-.3-1-.5-.3-.2-.5-.5-.7-.7-.2-.3-.3-.6-.4-.8l1-.4c.2.5.5 1 1 1.3.5.3 1 .5 1.6.5 1 0 1.7-.3 2.2-.8.5-.6.7-1.3.7-2.3V86h-.1c-.3.4-.6.8-1.1 1.1-.5.3-1.1.5-1.8.5-.5 0-1-.1-1.5-.3-.5-.2-.9-.5-1.2-.9-.4-.4-.6-.8-.8-1.4-.2-.5-.3-1.1-.3-1.7 0-.6.1-1.2.3-1.7.2-.5.5-1 .8-1.4.4-.4.8-.7 1.2-.9.5-.2.9-.3 1.5-.3.7 0 1.3.2 1.8.5s.9.7 1.1 1.1h.1v-1.4h1V87c0 .7-.1 1.3-.3 1.8-.2.5-.5.9-.8 1.3-.4.3-.8.6-1.3.8-.6.2-1.1.3-1.6.3zm0-4.5c.4 0 .7-.1 1.1-.2.4-.1.7-.4.9-.6.3-.3.5-.6.6-1 .2-.4.2-.9.2-1.4 0-.5-.1-1-.2-1.4-.2-.4-.4-.8-.6-1-.3-.3-.6-.5-.9-.6-.4-.1-.7-.2-1.1-.2-.4 0-.7.1-1.1.2-.3.2-.7.4-.9.7-.3.3-.5.6-.6 1-.2.4-.2.9-.2 1.4 0 .5.1 1 .2 1.4.2.4.4.8.6 1.1.3.3.6.5.9.7.4-.2.7-.1 1.1-.1zM116.2 79c.6 0 1.1.1 1.6.3.5.2.9.5 1.3.9s.6.8.8 1.4c.2.5.3 1.1.3 1.7 0 .6-.1 1.2-.3 1.7-.2.5-.5 1-.8 1.4-.4.4-.8.7-1.3.9-.5.2-1 .3-1.6.3-.6 0-1.1-.1-1.6-.3-.5-.2-.9-.5-1.3-.9s-.6-.8-.8-1.4c-.2-.5-.3-1.1-.3-1.7 0-.6.1-1.2.3-1.7.2-.5.5-1 .8-1.4.4-.4.8-.7 1.3-.9.5-.1 1.1-.3 1.6-.3zm0 7.7c.4 0 .8-.1 1.1-.2.4-.2.7-.4 1-.7.3-.3.5-.6.7-1.1.2-.4.3-.9.3-1.4 0-.5-.1-1-.3-1.4-.2-.4-.4-.8-.7-1.1-.3-.3-.6-.5-1-.7-.4-.2-.7-.2-1.1-.2-.4 0-.8.1-1.1.2-.4.2-.7.4-1 .7-.3.3-.5.6-.7 1.1s-.2.9-.2 1.4c0 .5.1 1 .2 1.4.2.4.4.8.7 1.1.3.3.6.5 1 .7.4.1.7.2 1.1.2zM127.1 85.8c-.2.2-.4.5-.5.7l-.6.6c-.2.2-.5.3-.8.4-.3.1-.6.1-1 .1-.5 0-.9-.1-1.3-.2-.4-.2-.7-.4-.9-.7-.2-.3-.4-.6-.5-1-.1-.4-.2-.8-.2-1.3v-5h1.1v4.9c0 .9.2 1.5.6 1.9.4.4.9.6 1.6.6.4 0 .7-.1 1.1-.3.3-.2.6-.4.8-.7.2-.3.4-.6.5-1 .1-.4.2-.8.2-1.2v-4.2h1.1v8h-1v-1.6zM130.7 80.3h-1.5v-1h1.5v-2.5h1.1v2.5h2v1h-2v4.9c0 .5.1.8.3 1.1.2.2.5.4.8.4h.4c.1 0 .2-.1.4-.1l.3.9c-.2.1-.4.2-.6.2-.2 0-.4.1-.7.1-.6 0-1.1-.2-1.4-.6-.2-.2-.4-.4-.5-.7-.1-.3-.2-.6-.2-1v-5.2zM137.9 87.6c-.4 0-.8-.1-1.2-.2s-.7-.3-1-.5c-.3-.2-.5-.5-.7-.7-.2-.3-.4-.6-.5-.9l.9-.4c.2.6.6 1 1 1.3.4.3.9.5 1.4.5.6 0 1.2-.1 1.5-.4.4-.3.6-.6.6-1 0-.2 0-.3-.1-.5-.1-.1-.2-.3-.3-.4-.1-.1-.3-.2-.6-.3-.2-.1-.5-.2-.9-.3l-1.1-.3c-.3-.1-.5-.2-.8-.3-.3-.1-.5-.2-.7-.4-.2-.2-.4-.4-.5-.6-.1-.2-.2-.5-.2-.8 0-.4.1-.7.3-1 .2-.3.4-.5.7-.7.3-.2.6-.3 1-.5.4-.1.8-.2 1.1-.2.3 0 .7 0 1 .1.3.1.6.2.9.4.3.2.5.3.7.6.2.2.4.5.5.8l-.9.4c-.2-.5-.5-.8-.9-1-.4-.2-.8-.3-1.3-.3-.2 0-.5 0-.7.1-.2.1-.4.1-.6.3-.2.1-.3.3-.5.4-.1.2-.2.4-.2.6 0 .3.1.6.4.8.3.2.7.3 1.2.5l1.2.3c.8.2 1.4.5 1.8.9.4.4.6.8.6 1.4 0 .3-.1.7-.2 1-.1.3-.4.6-.6.8-.3.2-.6.4-1 .5h-1.3z"/><g><path d="M78.6 34.2c-.1-.5-.5-.8-1-.8H70c-.6 0-.9.3-1.1.8 0-.4 0-.8.4-1.1.2-.2.4-.3.7-.3h7.6c.7 0 1.3.7 1 1.4zm13.5 0c-.1-.5-.5-.8-1-.8h-7.5c-.4 0-.8.2-1 .6 0 .1 0 .1-.1.2-.1-.5.1-.9.5-1.2.2-.1.3-.1.5-.1h7.6c.7-.1 1.3.6 1 1.3zm-3.2 8.9c.1.2 0 .4 0 .5-.2 1.4-1 2.3-2.4 2.6-.3.1-.6.1-.7.5v-.3c0-.4.1-.5.6-.6.6-.1 1.2-.3 1.6-.8.5-.5.8-1.2.9-1.9zm-13.5 0c.1.2 0 .4 0 .6-.2 1.4-1 2.3-2.5 2.6-.3.1-.6.1-.7.4 0-.2-.1-.5.1-.7.1-.1.2-.2.4-.2.4-.1.9-.2 1.3-.4.7-.4 1.2-1.1 1.4-1.9-.1-.1 0-.3 0-.4z" fill="#63a340"/><path d="M102.1 36c-.8-4.2-2.6-7.9-5.5-11-1.2-1.3-2.6-2.5-4.1-3.5-2.8-1.8-5.9-2.9-9.3-3.3-.4 0-.8 0-1.2-.1h-3c0 .1-.1 0-.2.1-.7.1-1.5.2-2.2.3-5.4 1-9.8 3.7-13.2 7.9-2.8 3.5-4.4 7.5-4.7 12-.2 2.2 0 4.3.5 6.4.4 1.6.9 3.1 1.6 4.6.1.1.1.2.2.4 1.2 2.3 2.7 4.3 4.5 6.1 1 .9 2 1.8 3.2 2.5 3.5 2.2 7.3 3.4 11.5 3.4.3 0 .3.1.3.3v7c.1 0 .1 0 .2-.1 4.2-2 8-4.4 11.4-7.6.7-.6 1.3-1.3 2-1.9.3-.3.5-.6.8-.9.4-.4.8-.9 1.2-1.4.5-.5.9-1.1 1.3-1.7.9-1.3 1.7-2.6 2.3-4 .3-.7.7-1.4.9-2.2.8-2 1.3-4.1 1.5-6.2.1-.7.2-1.5.2-2.2.2-1.7.1-3.4-.2-4.9zM73.9 49.4c-.4.1-.8.2-1.1.2-.3 0-.5-.1-.6-.4v-2.5c0-.2-.1-.5.1-.7.1-.1.2-.2.4-.2.4-.1.9-.2 1.3-.4.7-.4 1.2-1.1 1.4-1.9 0-.1.1-.3.1-.4H69.9c-.4-.1-.8-.5-.8-1v-7.9c0-.4 0-.8.4-1.1.2-.2.4-.3.7-.3h7.6c.7 0 1.2.7 1 1.3.1.1 0 .3 0 .4v8.6c0 1.9-.8 3.5-2.1 4.8l-.2.2c-.9.6-1.7 1-2.6 1.3zm14.1-.2l-.2.1c-.5.1-1 .3-1.5.3-.4.1-.7-.2-.7-.6v-2.3-.3c0-.4.1-.5.6-.6.6-.1 1.2-.3 1.6-.8.6-.5.8-1.2 1-1.9h-5.3c-.7 0-1.1-.5-1.1-1.1v-7.8-.1c-.1-.5.1-.9.5-1.2.2-.1.3-.1.5-.1H91c.7 0 1.2.7 1 1.3.1.1 0 .3 0 .4v8.6c0 2.6-1.6 4.9-4 5.9.2.1.1.2 0 .2z" fill="#75ba3d"/><path d="M87.9 49.1c-.5.1-1 .3-1.5.3-.4.1-.7-.2-.7-.6v-2.3c.1-.3.4-.4.7-.5 1.4-.3 2.2-1.2 2.4-2.6 0-.2.1-.4 0-.5h-5.3c-.7 0-1.1-.5-1.1-1.1V34v-.1c.1 0 .1-.1.1-.2.2-.4.5-.6 1-.6H91c.5 0 .9.3 1 .8.1.1 0 .3 0 .4v8.6c0 2.6-1.6 4.9-4 5.9.2.2.1.2 0 .2l-.1.1zM76.3 48c-.7.6-1.5 1-2.4 1.2-.4.1-.8.2-1.1.2-.3 0-.5-.1-.6-.4v-2.5c.1-.3.4-.4.7-.4 1.4-.3 2.2-1.2 2.5-2.6 0-.2.1-.4 0-.6H69.8c-.4-.1-.8-.5-.8-1V34c.2-.5.5-.8 1.1-.8h7.6c.5 0 .9.3 1 .8.1.1 0 .3 0 .4V43c0 1.9-.8 3.5-2.1 4.8-.1 0-.2.1-.3.2z" fill="#ffffff"/></g></svg>