<svg width="550" height="422" xmlns="http://www.w3.org/2000/svg" xmlns:xlink="http://www.w3.org/1999/xlink"><defs><path id="a" d="M.56.599H195.48v23.109H.56z"/><path d="M20.016 3.166L.551 57.118a4.527 4.527 0 002.72 5.793l20.958 7.567a4.523 4.523 0 005.791-2.72l19.465-53.953a4.527 4.527 0 00-2.72-5.793l-2.722-.983a2.15 2.15 0 01-2.06 2.236 2.16 2.16 0 01-.818-.126L29.217 4.825a2.151 2.151 0 01-1.293-2.753 2.17 2.17 0 01.426-.709L25.807.445a4.525 4.525 0 00-5.79 2.721z" id="c"/><path d="M20.016 3.166L.551 57.118a4.527 4.527 0 002.72 5.793l20.958 7.567a4.523 4.523 0 005.791-2.72l19.465-53.953a4.527 4.527 0 00-2.72-5.793l-2.722-.983a2.15 2.15 0 01-2.06 2.236 2.16 2.16 0 01-.818-.126L29.217 4.825a2.151 2.151 0 01-1.293-2.753 2.17 2.17 0 01.426-.709L25.807.445a4.525 4.525 0 00-5.79 2.721z" id="e"/><path d="M20.016 3.166L.551 57.118a4.527 4.527 0 002.72 5.793l20.958 7.567a4.523 4.523 0 005.791-2.72l19.465-53.953a4.527 4.527 0 00-2.72-5.793l-2.722-.983a2.15 2.15 0 01-2.06 2.236 2.16 2.16 0 01-.818-.126L29.217 4.825a2.151 2.151 0 01-1.293-2.753 2.17 2.17 0 01.426-.709L25.807.445a4.525 4.525 0 00-5.79 2.721" id="g"/><path d="M20.016 3.166L.551 57.118a4.527 4.527 0 002.72 5.793l20.958 7.567a4.523 4.523 0 005.791-2.72l19.465-53.953a4.527 4.527 0 00-2.72-5.793l-2.722-.983a2.15 2.15 0 01-2.06 2.236 2.16 2.16 0 01-.818-.126L29.217 4.825a2.151 2.151 0 01-1.293-2.753 2.17 2.17 0 01.426-.709L25.807.445a4.525 4.525 0 00-5.79 2.721" id="i"/><path d="M37.216.446l-4.055.62a3.049 3.049 0 01-1.051 4.18 3.06 3.06 0 01-1.103.397l-17.8 2.721a3.046 3.046 0 01-3.471-2.552c-.06-.39-.043-.788.048-1.172l-3.788.58a6.414 6.414 0 00-5.37 7.31l12.28 80.368a6.412 6.412 0 007.307 5.372l31.22-4.774a6.414 6.414 0 005.37-7.31L44.522 5.818A6.414 6.414 0 0038.194.37c-.322 0-.648.025-.977.075z" id="k"/><path d="M37.216.446l-4.055.62a3.049 3.049 0 01-1.051 4.18 3.06 3.06 0 01-1.103.397l-17.8 2.721a3.046 3.046 0 01-3.471-2.552c-.06-.39-.043-.788.048-1.172l-3.788.58a6.414 6.414 0 00-5.37 7.31l12.28 80.368a6.412 6.412 0 007.307 5.372l31.22-4.774a6.414 6.414 0 005.37-7.31L44.522 5.818A6.414 6.414 0 0038.194.37c-.322 0-.648.025-.977.075z" id="m"/><path d="M37.216.446l-4.055.62a3.049 3.049 0 01-1.051 4.18 3.06 3.06 0 01-1.103.397l-17.8 2.721a3.046 3.046 0 01-3.471-2.552c-.06-.39-.043-.788.048-1.172l-3.788.58a6.414 6.414 0 00-5.37 7.31l12.28 80.368a6.412 6.412 0 007.307 5.372l31.22-4.774a6.414 6.414 0 005.37-7.31L44.522 5.818A6.414 6.414 0 0038.194.37c-.322 0-.648.025-.977.075" id="o"/><path d="M33.161 1.066a3.049 3.049 0 01-2.154 4.577l-17.8 2.721A3.046 3.046 0 019.784 4.64l-3.788.58a6.414 6.414 0 00-5.37 7.31l12.28 80.368a6.412 6.412 0 007.307 5.372l31.22-4.774a6.414 6.414 0 005.37-7.31L44.522 5.818A6.414 6.414 0 0037.217.446l-4.055.62z" id="q"/></defs><g fill="none" fill-rule="evenodd"><path d="M296.404 110.304c-10.786-3.995-33.356-3.687-42.457.596-10.027-20.914-15.921-34.078-34.255-46.237-15.856-10.516-44.629-13.44-58.379-8.814C149.188 34.633 130.611 8.21 101.64 2.577 53.967-6.694 12.272 18.616 1.4 57.424 0 62.42 0 67.89 0 74.212a64.021 64.021 0 007.832 30.725c11.38 20.878 33.668 33.583 57.561 33.583H328.47s-9.388-19.818-32.065-28.216" fill="#F1563C"/><g transform="translate(354.164 396.76)"><mask id="b" fill="#ffffff"><use xlink:href="#a"/></mask><path d="M195.479 12.153c0 6.382-43.634 11.555-97.46 11.555C44.196 23.708.56 18.535.56 12.153.56 5.772 44.195.6 98.02.6c53.825 0 97.459 5.173 97.459 11.554z" fill="#E5E5E5" mask="url(#b)"/></g><path d="M332.944 132.551l-3.901 1.289-.54 3.376a1.127 1.127 0 001.812 1.06l2.493-1.984.136-3.74z" fill="#2E2F40"/><path d="M344.885 117.732l-12.078 18.56-3.764-2.452 12.078-18.56a2.247 2.247 0 013.107-.657 2.257 2.257 0 01.657 3.109" fill="#E56245"/><path d="M344.885 117.732l-1.18 1.813a3.84 3.84 0 01-3.764-2.452l1.18-1.813a2.247 2.247 0 013.107-.657 2.257 2.257 0 01.657 3.109" fill="#2E2F40"/><path d="M397.457 152.49l-20.238 8.21-31.346-22.4s-7.996-16.798-17.59-8.799c-3.287 2.739 9.943 13.4 11.193 14.397 3.127 2.493 31.726 31.029 35.769 29.546 4.043-1.481 21.72-4.164 21.72-4.164l.492-16.79z" fill="#F7BAB8"/><path d="M437.022 129.5c-17.327-6.476-33.81-9.541-47.173 0V98.707c0-13.032 10.56-23.597 23.587-23.597 13.026 0 23.586 10.565 23.586 23.597v30.795z" fill="#2E2F40"/><path d="M405.04 112.703s9.595 19.997 7.196 23.997l19.99-10.399s-10.395-13.598-10.395-15.997l-16.791 2.4z" fill="#F7BAB8"/><path d="M448.616 130.7s-9.788-9.598-18.487-7.198c-8.698 2.4-6.699 6.799-17.893 9.198l-1.199 5.2s-6.343 2.595-8.796 4.799c-2.738 2.46-4.64 21.317-1.199 37.194 2.263 10.435-2.883 20.847-.4 25.195l44.776-5.599s3.998-4 1.599-6.398c-2.399-2.4 1.599-19.997 1.599-19.997V130.7z" fill="#CDCCDD"/><path fill="#F7BAB8" d="M422.23 358.664l-.799 19.196 7.196 9.599 8.796-7.999-.8-21.597zM499.788 342.666s5.596 11.198 6.396 13.598c.8 2.4 11.993 1.6 11.993 1.6l3.998-10.399-13.593-12.798-8.794 7.999z"/><path d="M400.243 201.49l1.998 39.593s6.397 56.79 8.796 66.389c2.399 9.598 11.194 55.99 11.194 55.99l21.588-3.199-6.397-64.79.8-12.797 11.993 18.397 45.575 47.992 17.59-14.398-45.575-53.59-11.993-47.993s1.6-24.796-11.993-34.394l-43.576 2.8zM427.028 381.06s-1.6-7.117-5.597-4.758c-3.998 2.358-13.592 14.356-13.592 14.356s-24.787 16.797-13.593 18.397c11.194 1.6 22.387-4.799 22.387-4.799s8.796-4.799 10.395-4.799c1.599 0 15.191-4 15.191-7.2 0-3.198-4.864-14.6-4.864-14.6s-5.53 5.002-10.327 3.403M515.128 353.927s-4.308-5.886-7.031-2.126c-2.723 3.76-6.728 18.594-6.728 18.594s-16.016 25.303-5.115 22.297c10.9-3.007 18.607-13.346 18.607-13.346s6.147-7.915 7.613-8.554c1.466-.64 12.33-9.737 11.052-12.67-1.277-2.933-10.29-11.443-10.29-11.443s-3.071 6.797-8.108 7.248" fill="#333"/><path d="M411.037 83.508c9.715 0 17.59 7.878 17.59 17.597 0 9.719-7.875 17.598-17.59 17.598s-17.59-7.88-17.59-17.598c0-9.719 7.875-17.597 17.59-17.597" fill="#F7BAB8"/><path d="M411.437 137.5s-9.196 2.799-11.594 6.798c-2.399 4-9.595 8.799-9.595 8.799l5.597 22.396 8.795-10.398 6.797-27.596z" fill="#CDCCDD"/><path d="M428.227 81.131v-.423l-.501.029a23.596 23.596 0 00-20.287-4.056 23.494 23.494 0 019.053 4.68l-17.049.948-7.196 15.997h4.87l3.925-7.199v7.199h16.471l1.12-5.6 3.109 5.6h3.236c.02.399.051.795.051 1.2L421.83 130.3l15.193-6.398V99.506a23.551 23.551 0 00-8.796-18.375" fill="#333"/><path d="M425.587 95.906c1.104 0 1.998 1.612 1.998 3.6 0 1.987-.894 3.599-1.998 3.599s-2-1.612-2-3.6c0-1.987.896-3.599 2-3.599M440.132 156.322l8.206 20.246-22.392 31.358s-16.79 7.999-8.794 17.597c2.737 3.288 13.395-9.947 14.391-11.198 2.492-3.128 31.017-31.738 29.535-35.783-1.481-4.044-4.163-21.727-4.163-21.727l-16.783-.493z" fill="#F7BAB8"/><path d="M431.825 133.1l6.397 31.195s12.793-8.799 22.387.8L448.616 130.7l-16.79 2.4z" fill="#CDCCDD"/><path fill="#333" d="M415.614 209.135l18.971 8.503-6.537 14.6-18.972-8.504z"/><path fill="#000" d="M421.078 237.752l1.506-.538 15.99 44.793-1.505.538z"/><path d="M122.52 74.764l-.36-.13 3.553-9.849a6.061 6.061 0 00-3.641-7.758l-20.859-7.53a6.057 6.057 0 00-7.754 3.642l-19.493 54.032a6.062 6.062 0 003.642 7.758l20.858 7.53a6.057 6.057 0 007.754-3.643l13.41-37.172.36.13 2.53-7.01z" fill="#333"/><g><g transform="translate(75.046 50.57)"><mask id="d" fill="#ffffff"><use xlink:href="#c"/></mask><path fill="#ffffff" mask="url(#d)" d="M29.609 72.585l-31.24-11.279 18.31-50.751 31.24 11.279z"/></g><g transform="translate(75.046 50.57)"><mask id="f" fill="#ffffff"><use xlink:href="#e"/></mask><path d="M46.667 21.503l-29.469-10.64 3.224-8.936a4.772 4.772 0 016.109-2.87l20.49 7.399a4.775 4.775 0 012.87 6.111l-3.224 8.936z" fill="#759AA6" mask="url(#f)"/></g><g transform="translate(75.046 50.57)"><mask id="h" fill="#ffffff"><use xlink:href="#g"/></mask><path d="M36.538 17.846a4.896 4.896 0 11-9.211-3.326 4.896 4.896 0 119.211 3.326" fill="#F1563C" mask="url(#h)"/></g><g transform="translate(75.046 50.57)"><mask id="j" fill="#ffffff"><use xlink:href="#i"/></mask><path d="M35.165 10.25a6.832 6.832 0 00-.94-.423 6.71 6.71 0 00-5.164.24 6.713 6.713 0 00-3.482 3.822c-1.123 3.113.219 6.65 3.121 8.228.3.163.616.305.939.422 3.503 1.265 7.382-.557 8.647-4.062 1.122-3.112-.22-6.65-3.121-8.228m-.888 1.633a4.9 4.9 0 012.261 5.964 4.896 4.896 0 11-9.212-3.326 4.897 4.897 0 016.951-2.638" fill="#ffffff" mask="url(#j)"/></g></g><g><path d="M101.096 81.033l10.505 3.793c.098.035.143.159.101.276l-.096.266c-.042.117-.156.183-.254.148l-10.505-3.793c-.098-.035-.144-.159-.102-.276l.096-.266c.043-.117.156-.184.255-.148M100.282 83.288l10.505 3.793c.098.035.144.16.102.276l-.097.266c-.042.118-.156.183-.254.148l-10.505-3.793c-.098-.035-.143-.158-.101-.276l.096-.266c.042-.117.156-.183.254-.148M99.435 85.637l10.505 3.793c.098.035.143.16.101.276l-.096.266c-.042.118-.156.184-.254.148l-10.505-3.793c-.098-.035-.144-.159-.102-.276l.096-.266c.043-.117.156-.183.255-.148M97.023 92.323l10.505 3.792c.098.036.143.16.101.276l-.096.267c-.042.117-.156.183-.254.148l-10.505-3.793c-.098-.036-.144-.16-.102-.276l.097-.267c.042-.116.156-.183.254-.147M96.21 94.578l10.504 3.793c.098.035.144.159.102.275l-.096.267c-.043.117-.157.183-.255.148L95.96 95.268c-.098-.036-.143-.16-.101-.276l.096-.267c.042-.116.156-.183.254-.147M95.362 96.927l10.505 3.793c.098.035.143.159.101.276l-.096.266c-.043.117-.156.183-.254.148l-10.505-3.793c-.098-.036-.144-.159-.102-.276l.097-.267c.042-.116.156-.183.254-.147M92.79 104.054l10.505 3.793c.099.035.144.16.102.276l-.096.266c-.042.118-.156.183-.254.148l-10.506-3.793c-.098-.035-.143-.16-.1-.276l.095-.266c.042-.117.156-.183.254-.148M91.977 106.31l10.505 3.792c.098.035.143.16.101.276l-.096.266c-.042.117-.156.184-.254.148l-10.505-3.793c-.098-.035-.144-.159-.101-.276l.096-.266c.042-.117.156-.183.254-.148M91.13 108.658l10.504 3.793c.099.035.144.16.102.276l-.096.266c-.042.118-.156.184-.254.148l-10.506-3.793c-.098-.035-.143-.158-.1-.276l.095-.266c.042-.117.156-.183.254-.148M92.23 77.651l4.732 1.708a.42.42 0 01.251.536l-1.708 4.733a.418.418 0 01-.535.252l-4.732-1.708a.42.42 0 01-.251-.536l1.707-4.733a.42.42 0 01.536-.252M88.14 88.988l4.732 1.708a.42.42 0 01.251.536l-1.708 4.733a.418.418 0 01-.535.252l-4.732-1.708a.42.42 0 01-.251-.537l1.707-4.732a.42.42 0 01.536-.252M83.908 100.719l4.731 1.708a.42.42 0 01.252.536l-1.708 4.733a.419.419 0 01-.536.252l-4.73-1.708a.42.42 0 01-.252-.536l1.707-4.733a.42.42 0 01.536-.252" fill="#F1563C"/><path d="M90.523 43.027l-.535.082-2.242-14.671c-.717-4.69-5.097-7.91-9.786-7.193l-31.07 4.75a8.589 8.589 0 00-7.19 9.79l12.297 80.485a8.587 8.587 0 009.785 7.193l31.07-4.75c4.688-.717 7.907-5.1 7.191-9.79l-8.46-55.371.535-.082-1.595-10.443z" fill="#333"/></g><g><g transform="translate(41.473 22.911)"><mask id="l" fill="#ffffff"><use xlink:href="#k"/></mask><path fill="#ffffff" mask="url(#l)" d="M59.558 92.476l-46.534 7.115-11.55-75.6 46.533-7.115z"/></g><g transform="translate(41.473 22.911)"><mask id="n" fill="#ffffff"><use xlink:href="#m"/></mask><path d="M46.225 17.312L2.328 24.024.294 10.714A6.767 6.767 0 015.96 3l30.522-4.667a6.766 6.766 0 017.71 5.668l2.033 13.31z" fill="#759AA6" mask="url(#n)"/></g><g transform="translate(41.473 22.911)"><mask id="p" fill="#ffffff"><use xlink:href="#o"/></mask><path d="M31.137 19.62a6.94 6.94 0 11-13.722 2.098 6.94 6.94 0 1113.722-2.098" fill="#F1563C" mask="url(#p)"/></g><g transform="translate(41.473 22.911)"><mask id="r" fill="#ffffff"><use xlink:href="#q"/></mask><path d="M24.286 11.09c-.485 0-.975.037-1.456.11a9.512 9.512 0 00-6.268 3.797 9.515 9.515 0 00-1.75 7.118c.709 4.636 4.774 8.132 9.456 8.132.484 0 .973-.038 1.455-.111 5.218-.799 8.815-5.694 8.018-10.915-.709-4.635-4.774-8.131-9.455-8.131m0 2.634a6.944 6.944 0 01-.017 13.889 6.944 6.944 0 01-6.853-5.896 6.942 6.942 0 016.87-7.993" fill="#ffffff" mask="url(#r)"/></g></g><g fill="#F1563C"><path d="M68.089 65.345l15.648-2.392c.146-.023.287.1.313.275l.061.397c.026.174-.07.333-.216.356l-15.649 2.392c-.146.023-.286-.1-.313-.275l-.06-.396c-.027-.175.07-.334.216-.357M68.602 68.705l15.649-2.393c.146-.022.286.1.312.275l.06.397c.028.174-.069.334-.215.356l-15.649 2.393c-.146.022-.286-.101-.313-.276l-.06-.396c-.027-.175.07-.334.216-.356M69.137 72.204l15.648-2.393c.146-.022.286.101.313.275l.06.397c.027.174-.07.334-.216.356l-15.648 2.393c-.146.022-.286-.101-.313-.276l-.06-.396c-.027-.174.07-.334.216-.356M70.658 82.163l15.649-2.393c.146-.022.286.1.312.275l.061.397c.027.174-.07.334-.216.356l-15.648 2.393c-.147.022-.287-.101-.314-.276l-.06-.396c-.027-.175.07-.334.216-.356M71.172 85.522l15.648-2.393c.146-.022.286.101.313.275l.06.397c.027.175-.07.334-.216.356L71.33 86.55c-.146.022-.286-.1-.313-.275l-.061-.397c-.026-.174.07-.334.217-.356M71.706 89.021l15.648-2.392c.147-.023.287.1.313.274l.06.397c.028.175-.07.334-.215.357l-15.649 2.392c-.146.023-.286-.1-.313-.275l-.06-.397c-.027-.174.07-.333.216-.356M73.328 99.638l15.649-2.393c.146-.022.286.101.312.275l.06.397c.028.175-.069.334-.215.356l-15.648 2.393c-.147.022-.287-.1-.314-.275l-.06-.397c-.027-.174.07-.334.216-.356M73.841 102.997l15.649-2.393c.146-.022.286.101.312.276l.061.396c.027.175-.07.334-.216.356l-15.648 2.393c-.146.022-.287-.1-.314-.275l-.06-.397c-.027-.174.07-.334.216-.356M74.376 106.496l15.648-2.392c.146-.023.287.1.314.275l.06.396c.026.175-.07.334-.216.357l-15.649 2.392c-.146.023-.286-.1-.313-.275l-.06-.397c-.027-.174.07-.333.216-.356M54.76 67.139l7.047-1.078a.594.594 0 01.677.498l1.077 7.05a.593.593 0 01-.497.676l-7.047 1.078a.593.593 0 01-.677-.497l-1.077-7.05a.594.594 0 01.497-.677M57.34 84.026l7.048-1.077a.594.594 0 01.676.497l1.077 7.05a.593.593 0 01-.497.677l-7.047 1.078a.594.594 0 01-.677-.498l-1.077-7.05a.594.594 0 01.498-.677M60.01 101.501l7.047-1.077a.593.593 0 01.677.497l1.077 7.05a.593.593 0 01-.497.677l-7.047 1.077a.594.594 0 01-.677-.497l-1.077-7.05a.593.593 0 01.497-.677"/></g></g></svg>