<?xml version="1.0" encoding="UTF-8"?>
<svg width="257px" height="35px" viewBox="0 0 257 35" version="1.1" xmlns="http://www.w3.org/2000/svg" xmlns:xlink="http://www.w3.org/1999/xlink">
    <title>Group 48</title>
    <defs>
        <polygon id="path-1" points="0.0862625767 0.00310674157 2.26669939 0.00310674157 2.26669939 4.28254713 0.0862625767 4.28254713"></polygon>
        <polygon id="path-3" points="0 34.9700337 255.910871 34.9700337 255.910871 -7.86516854e-05 0 -7.86516854e-05"></polygon>
    </defs>
    <g id="Symbols" stroke="none" stroke-width="1" fill="none" fill-rule="evenodd">
        <g id="New-Menu-60" transform="translate(-14.000000, -13.000000)">
            <g id="Group-48" transform="translate(14.000000, 13.000000)">
                <path d="M114.358577,15.9225618 C114.358577,16.1254831 114.194061,16.2906517 113.991067,16.2906517 L108.178847,16.2906517 L108.178847,14.9665506 C108.178847,14.0030674 108.550282,13.7855955 109.096442,13.7332921 C110.146748,13.6294719 110.455755,13.6664382 111.329374,13.6428427 L113.169669,13.6656517 C113.993816,13.6990787 114.358577,13.9570562 114.358577,15.3023933 L114.358577,15.9225618 Z M111.522945,10.9065433 C108.587975,10.9065433 105.468859,10.8750899 105.468859,14.9665506 L105.468859,20.0785169 C105.468859,24.1841348 108.371632,24.1196404 111.281472,24.1157079 L111.882209,24.1157079 L111.931288,24.1157079 L112.563436,24.1157079 C112.581497,24.1157079 112.596025,24.1074494 112.613693,24.1050899 C114.458699,24.052 115.571828,23.7672809 116.319018,22.9611011 C116.454479,22.8152022 116.474896,22.6087416 116.334331,22.4683483 L114.87254,21.1489663 C114.731583,21.0093596 114.496,20.8976742 114.301252,21.0600899 C113.731926,21.5327865 112.874012,21.5017191 111.950528,21.518236 C111.206871,21.5217753 110.961865,21.5327865 110.171485,21.5150899 C108.895804,21.486382 108.178847,21.3573933 108.178847,20.0785169 L108.178847,18.8307079 L115.231018,18.8307079 C116.245202,18.8307079 117.066209,18.0410449 117.066209,17.0661573 L117.066209,15.3023933 C117.066209,11.1287416 114.520736,10.9065433 111.522945,10.9065433 L111.522945,10.9065433 Z" id="Fill-1" fill="#3C484E"></path>
                <path d="M103.026533,24.1568062 C100.230164,24.1359607 96.683465,24.2975899 96.683465,20.301691 L96.683465,19.6524213 L96.683465,13.6662416 L96.683465,10.9527584 L96.683465,7.79725281 C96.683465,7.59472472 96.8479804,7.4303427 97.0505816,7.4303427 L99.0204466,7.4303427 C99.2230479,7.4303427 99.3879558,7.59472472 99.3879558,7.79725281 L99.3879558,10.9527584 L103.026533,10.9527584 C103.230312,10.9527584 103.394434,11.117927 103.394434,11.3200618 L103.394434,13.2989382 C103.394434,13.5022528 103.230312,13.6662416 103.026533,13.6662416 L99.3879558,13.6662416 L99.3879558,19.6524213 L99.3879558,20.301691 C99.3879558,21.512927 100.557232,21.4452865 101.428888,21.4452865 C101.82349,21.4452865 102.196496,21.4287697 103.026925,21.4397809 C103.230312,21.442927 103.394434,21.6108483 103.394434,21.8133764 L103.394434,23.7926461 C103.394434,23.9963539 103.229134,24.1575899 103.026533,24.1568062" id="Fill-3" fill="#3C484E"></path>
                <path d="M152.795328,9.0125 C151.964113,9.02311798 151.592285,9.00738764 151.197291,9.00738764 C150.325634,9.00738764 149.155966,8.93974719 149.155966,10.1505899 L149.155966,10.7998596 L149.155966,12.2969944 L151.469782,12.2969944 C151.673168,12.2969944 151.837291,12.4601966 151.837291,12.6635112 L151.837291,14.6427809 C151.837291,14.845309 151.673168,15.0100843 151.469782,15.0100843 L149.155966,15.0100843 L149.155966,23.7691292 C149.155966,23.9728371 148.99145,24.1380056 148.788849,24.1380056 L146.818591,24.1380056 C146.616383,24.1380056 146.451867,23.9728371 146.451867,23.7691292 L146.451867,20.6140169 L146.451867,17.900927 L146.451867,10.7998596 L146.451867,10.1505899 C146.451867,6.15547753 149.99896,6.31710674 152.795328,6.29663964 C152.997929,6.29469101 153.162837,6.45710674 153.162837,6.66042135 L153.162837,8.63969101 C153.162837,8.84182584 152.997929,9.01053371 152.795328,9.0125" id="Fill-5" fill="#3C484E"></path>
                <path d="M124.403828,13.499264 C124.798429,13.499264 125.171828,13.5157809 126.002258,13.5063427 C126.205252,13.5024101 126.369374,13.3337022 126.369374,13.1311742 L126.369374,11.1519045 C126.369374,10.9497697 126.204859,10.7873539 126.002258,10.7881376 C123.205104,10.8085899 119.658405,10.6481404 119.658405,14.6428596 L119.658405,15.291736 L119.658405,21.3915674 L119.658405,23.7377472 C119.658405,23.9406685 119.82292,24.1050506 120.025914,24.1050506 L121.995779,24.1050506 C122.199166,24.1050506 122.363288,23.9406685 122.363288,23.7377472 L122.363288,15.291736 L122.363288,14.6428596 C122.363288,13.4316236 123.531779,13.499264 124.403828,13.499264" id="Fill-7" fill="#3C484E"></path>
                <path d="M139.668417,13.3513989 L136.063607,13.3513989 C134.810699,13.3513989 134.721571,13.7104438 134.721571,15.3699944 L134.721571,20.3946573 C134.721571,21.4025787 135.033325,21.6920169 136.063607,21.6920169 L139.668417,21.6920169 C140.698699,21.6920169 140.990429,21.4025787 140.990429,20.3946573 L141.012417,15.5265112 C141.012417,13.7564551 140.968049,13.3513989 139.668417,13.3513989 L139.668417,13.3513989 Z M143.699239,20.3946573 C143.677252,22.9052191 142.176589,24.407073 139.668417,24.407073 L136.063607,24.407073 C133.557006,24.407073 132.011975,22.9052191 132.011975,20.3946573 L132.011975,15.3699944 C132.011975,12.8358371 132.706552,10.6158933 136.063607,10.6158933 L139.668417,10.6158933 C143.184491,10.6158933 143.743215,13.0139831 143.721227,15.5481404 L143.699239,20.3946573 Z" id="Fill-9" fill="#3C484E"></path>
                <path d="M179.009688,13.3513989 L175.405271,13.3513989 C174.150793,13.3513989 174.062056,13.7104438 174.062056,15.3699944 L174.062056,20.3946573 C174.062056,21.4025787 174.374596,21.6920169 175.405271,21.6920169 L179.009688,21.6920169 C180.040363,21.6920169 180.331308,21.4025787 180.331308,20.3946573 L180.354081,15.5265112 C180.354081,13.7564551 180.30932,13.3513989 179.009688,13.3513989 L179.009688,13.3513989 Z M183.039333,20.3946573 C183.017737,22.9052191 181.518253,24.407073 179.009688,24.407073 L175.405271,24.407073 C172.899063,24.407073 171.352461,22.9052191 171.352461,20.3946573 L171.352461,15.3699944 C171.352461,12.8358371 172.047038,10.6158933 175.405271,10.6158933 L179.009688,10.6158933 C182.525369,10.6158933 183.084093,13.0139831 183.06132,15.5481404 L183.039333,20.3946573 Z" id="Fill-11" fill="#3C484E"></path>
                <path d="M194.328304,18.1066011 L194.328304,13.6427247 L189.513384,13.6427247 C188.483887,13.6427247 188.170169,13.9569382 188.170169,14.9668258 L188.170169,20.0571629 C188.170169,21.155927 188.59736,21.3576685 189.648452,21.4025 C190.028525,21.4241292 190.43255,21.4025 190.835396,21.4025 L192.984304,21.4025 C194.260771,21.4025 194.371102,20.7292416 194.351077,19.4955899 C194.351077,19.0252528 194.328304,18.553736 194.328304,18.1066011 M192.984304,24.1380056 L190.835396,24.1380056 C188.371593,24.1380056 185.461752,23.9354775 185.461752,20.0571629 L185.461752,18.0822191 L185.461752,14.9668258 C185.461752,12.4535112 186.984795,10.9300281 189.513384,10.9300281 L193.960795,10.9300281 C194.163396,10.9300281 194.328304,10.7656461 194.328304,10.5619382 L194.328304,6.56643258 C194.328304,6.36311798 194.492427,6.19952247 194.695813,6.19952247 L196.66882,6.19952247 C196.872206,6.19952247 197.035936,6.36311798 197.035936,6.56643258 L197.035936,18.1066011 C197.035936,18.8010955 197.059494,19.4743539 197.014734,20.1023876 C196.880844,22.5228933 195.873728,24.1380056 192.984304,24.1380056" id="Fill-13" fill="#3C484E"></path>
                <path d="M127.544933,21.1862472 L128.449963,21.1862472 C128.749546,21.1862472 128.984344,21.1862472 129.145718,21.2373708 C129.310626,21.2979326 129.380515,21.3695056 129.440589,21.5338876 C129.491632,21.6951236 129.491632,21.9298989 129.491632,22.2303483 L129.491632,23.1364157 C129.491632,23.4376517 129.491632,23.6712472 129.440589,23.8336629 C129.383264,23.9913596 129.30081,24.072764 129.145718,24.129 C128.984344,24.1813034 128.749546,24.1813034 128.449963,24.1813034 L127.544933,24.1813034 C127.244957,24.1813034 127.010552,24.1813034 126.849571,24.129 C126.689767,24.0704045 126.612025,23.9945056 126.554699,23.8336629 C126.503264,23.6712472 126.503264,23.4376517 126.503264,23.1364157 L126.503264,22.2303483 C126.503264,21.9298989 126.503264,21.6951236 126.554699,21.5338876 C126.612025,21.3714719 126.689767,21.2959663 126.849571,21.2373708 C127.010552,21.1862472 127.244957,21.1862472 127.544933,21.1862472" id="Fill-15" fill="#3C484E"></path>
                <path d="M154.626238,21.1862472 L155.530876,21.1862472 C155.831244,21.1862472 156.064864,21.1862472 156.227023,21.2373708 C156.392324,21.2979326 156.461428,21.3695056 156.521894,21.5338876 C156.572937,21.6951236 156.572937,21.9298989 156.572937,22.2303483 L156.572937,23.1364157 C156.572937,23.4376517 156.572937,23.6712472 156.521894,23.8336629 C156.464569,23.9913596 156.381723,24.072764 156.227023,24.129 C156.064864,24.1813034 155.831244,24.1813034 155.530876,24.1813034 L154.626238,24.1813034 C154.325085,24.1813034 154.09068,24.1813034 153.929698,24.129 C153.771072,24.0704045 153.69333,23.9945056 153.635612,23.8336629 C153.583784,23.6712472 153.583784,23.4376517 153.583784,23.1364157 L153.583784,22.2303483 C153.583784,21.9298989 153.583784,21.6951236 153.635612,21.5338876 C153.69333,21.3714719 153.771072,21.2959663 153.929698,21.2373708 C154.09068,21.1862472 154.325085,21.1862472 154.626238,21.1862472" id="Fill-17" fill="#3C484E"></path>
                <path d="M66.907681,24.1379663 L64.9327117,24.1379663 C64.7297178,24.1379663 64.5655951,23.9735843 64.5659877,23.7694831 L64.5883681,14.9667865 C64.5883681,13.9568989 64.2742577,13.6426854 63.2443681,13.6426854 L59.9093006,13.6426854 L59.9093006,23.7694831 C59.9093006,23.9735843 59.7451779,24.1379663 59.542184,24.1379663 L57.5656442,24.1379663 C57.3626503,24.1379663 57.1989202,23.9735843 57.1989202,23.7694831 L57.1989202,13.6426854 L52.6549202,13.6426854 L52.6549202,23.7694831 C52.6549202,23.9735843 52.4904049,24.1379663 52.2881963,24.1379663 L50.3136196,24.1379663 C50.1106258,24.1379663 49.9461104,23.9735843 49.9461104,23.7694831 L49.9461104,11.2968989 C49.9461104,11.0943708 50.1106258,10.9299888 50.3136196,10.9299888 L63.2443681,10.9299888 C65.7529325,10.9299888 67.2967853,12.4318427 67.2967853,14.9667865 C67.2967853,17.8713933 67.2763681,20.2714494 67.2751902,23.7694831 C67.2751902,23.9727978 67.1110675,24.1379663 66.907681,24.1379663" id="Fill-19" fill="#3C484E"></path>
                <path d="M78.2933988,20.0778876 C78.2933988,21.0425506 77.7849325,21.3614831 77.2391656,21.4141798 C76.2858405,21.5081685 73.5114601,21.4409213 73.5114601,21.4409213 C72.3920491,21.4232247 72.1152393,21.087382 72.1152393,20.0865393 C72.1152393,19.1340674 72.3394356,18.7199663 73.4580613,18.742382 L76.5194601,18.742382 C77.645546,18.742382 78.2933988,18.3400787 78.2933988,18.3400787 L78.2933988,20.0778876 Z M70.6569816,10.9287303 C70.4539877,10.9287303 70.289865,11.0942921 70.289865,11.2968202 L70.289865,13.1608652 C70.289865,13.3641798 70.4539877,13.5285618 70.6569816,13.5285618 L76.3023313,13.5285618 C77.5776196,13.5081124 78.2933988,13.6890112 78.2933988,14.8503034 C78.2933988,16.1563146 77.1602454,16.0418764 76.2736687,16.0418764 L74.9500859,16.0418764 C71.9526871,16.0418764 69.4064294,16.3049663 69.4064294,20.0865393 C69.4064294,23.9149101 71.9526871,24.1371095 74.9500859,24.1371095 C77.8850552,24.1371095 81.0037791,24.1701348 81.0037791,20.0778876 L81.0037791,14.9647416 C81.0037791,10.794236 78.0083436,10.9287303 75.0525644,10.9287303 L70.6569816,10.9287303 Z" id="Fill-21" fill="#3C484E"></path>
                <path d="M208.374341,15.9225618 C208.374341,16.1254831 208.210218,16.2906517 208.006832,16.2906517 L202.195789,16.2906517 L202.195789,14.9665506 C202.195789,14.0030674 202.566047,13.7855955 203.112206,13.7332921 C204.164083,13.6294719 204.471912,13.6664382 205.345924,13.6428427 L207.185433,13.6656517 C208.00958,13.6990787 208.374341,13.9570562 208.374341,15.3023933 L208.374341,15.9225618 Z M205.538317,10.9065433 C202.604133,10.9065433 199.485016,10.8750899 199.485016,14.9665506 L199.485016,20.0785169 C199.485016,24.1841348 202.388182,24.1196404 205.297237,24.1157079 L205.897973,24.1157079 L205.947838,24.1157079 L206.579985,24.1157079 C206.597654,24.1157079 206.612182,24.1074494 206.62985,24.1050899 C208.474856,24.052 209.587593,23.7672809 210.335568,22.9611011 C210.470636,22.8152022 210.491053,22.6087416 210.350488,22.4683483 L208.88909,21.1489663 C208.748525,21.0093596 208.512157,20.8976742 208.317409,21.0600899 C207.748083,21.5327865 206.889384,21.5017191 205.967077,21.518236 C205.223028,21.5217753 204.976844,21.5327865 204.187642,21.5150899 C202.911961,21.486382 202.195789,21.3573933 202.195789,20.0785169 L202.195789,18.8307079 L209.246783,18.8307079 C210.260574,18.8307079 211.081973,18.0410449 211.081973,17.0661573 L211.081973,15.3023933 C211.081973,11.1287416 208.537286,10.9065433 205.538317,10.9065433 L205.538317,10.9065433 Z" id="Fill-23" fill="#3C484E"></path>
                <path d="M168.075229,21.029927 C167.934665,20.8891404 167.705757,20.7892528 167.503548,20.9398708 C166.825463,21.4467809 166.229831,21.4192528 165.414321,21.4062753 C165.407254,21.4062753 165.40215,21.4035225 165.395867,21.4035225 L165.058591,21.4035225 L165.040137,21.4035225 L163.052211,21.4023427 C162.045094,21.4023427 161.732555,21.0881292 161.732555,20.0786348 L161.732555,14.9882978 C161.732555,14.0940281 162.018788,13.8761629 162.336432,13.7790281 C162.906542,13.6028483 163.791941,13.6138596 164.396604,13.6138596 L164.420555,13.6138596 L165.520726,13.6138596 L165.521512,13.6138596 C166.342125,13.6138596 166.871794,13.609927 167.503548,14.0822303 C167.705757,14.2340281 167.934665,14.1333539 168.075229,13.9921742 L169.536628,12.5552079 C169.677193,12.4144213 169.656383,12.2067809 169.522101,12.0620618 C168.73761,11.2157697 167.552628,10.9440281 165.538395,10.9117809 C165.532113,10.9117809 165.526616,10.9066685 165.521512,10.9066685 L165.133978,10.9066685 L165.084113,10.9066685 L164.638469,10.9066685 L164.601168,10.9066685 L164.396604,10.9066685 C161.933585,10.9066685 159.022567,11.1099831 159.022567,14.9882978 L159.022567,20.0786348 C159.022567,22.5911629 160.54561,24.1158258 163.052211,24.1158258 L165.040137,24.1158258 L165.084113,24.1158258 L165.097855,24.1158258 L165.245094,24.1158258 L165.273364,24.1158258 L165.395867,24.1158258 L165.405291,24.1138596 C167.499622,24.0898708 168.719941,23.8248146 169.522101,22.9612191 C169.656383,22.8153202 169.677193,22.6088596 169.536628,22.468073 L168.075229,21.029927 Z" id="Fill-25" fill="#3C484E"></path>
                <path d="M90.6001669,15.9989719 C89.4587681,15.9529607 88.2957742,15.9753764 87.1300319,15.9753764 C86.3475043,15.9753764 85.8315779,15.5431854 85.8315779,14.6909944 C85.8315779,13.8612191 86.3047067,13.5403202 87.2450748,13.5159382 C87.2450748,13.5159382 89.1104982,13.504927 89.1163877,13.504927 C89.6711853,13.4974551 91.2535166,13.494309 91.8271607,13.9697584 C92.0219092,14.1321742 92.2578847,14.020882 92.3984491,13.8797022 L93.8602405,12.4506011 C94.0008049,12.3094213 93.9803877,12.1033539 93.8453202,11.9574551 C93.0086086,11.0553202 91.7168294,10.8067809 89.4497374,10.8028483 L89.4481669,10.8028483 L87.1300319,10.8028483 C81.5105963,10.8028483 82.0269153,18.6884663 87.1300319,18.6884663 C88.2726086,18.6884663 89.2227926,18.6660506 90.3433816,18.7120618 C91.3281178,18.7325112 91.8770258,18.9759382 91.8770258,20.075882 C91.8770258,21.1070056 91.325762,21.4212191 90.3838233,21.4212191 L87.2321178,21.4212191 C86.6262773,21.4035225 85.8410012,21.3181854 85.4173448,20.9662191 C85.2222037,20.8038034 84.9858356,20.9154888 84.8456638,21.055882 L83.3838724,22.4865562 C83.243308,22.6273427 83.2629399,22.8318371 83.3984,22.9797022 C84.156584,23.7965 85.291308,24.0772865 87.1838233,24.1244775 C87.1979583,24.1264438 87.2105227,24.1335225 87.2262282,24.1335225 L90.6001669,24.1335225 C93.153492,24.1335225 94.6305963,22.5199831 94.6305963,20.075882 C94.6305963,17.6085787 93.153492,16.0654326 90.6001669,15.9989719" id="Fill-27" fill="#3C484E"></path>
                <path d="M227.152687,14.7761742 C227.280687,14.7761742 227.402012,14.7706685 227.671755,14.7742079 C227.737718,14.7753876 227.791117,14.8300506 227.791117,14.896118 L227.791117,15.5387022 C227.791117,15.6047697 227.737718,15.6574663 227.671755,15.6570752 C226.76319,15.6507809 225.610405,15.702691 225.610405,14.4049382 L225.610405,14.1941517 L225.610405,12.211736 L225.610405,11.4967921 C225.610405,11.431118 225.664196,11.3776348 225.729767,11.3776348 L226.37016,11.3776348 C226.436123,11.3776348 226.489521,11.431118 226.489521,11.4967921 L226.489521,14.1941517 L226.489521,14.4049382 C226.489521,14.7985899 226.869202,14.7761742 227.152687,14.7761742" id="Fill-29" fill="#7599A5"></path>
                <g id="Group-33" transform="translate(253.644172, 11.374528)">
                    <mask id="mask-2" fill="white">
                        <use xlink:href="#path-1"></use>
                    </mask>
                    <g id="Clip-32"></g>
                    <path d="M1.62815215,3.40164607 C1.75654479,3.40164607 1.87786994,3.39614045 2.14761227,3.39967978 C2.21357546,3.40085955 2.26697423,3.45552247 2.26697423,3.52158989 L2.26697423,4.16417416 C2.26697423,4.23024157 2.21318282,4.2829382 2.14761227,4.28254713 C1.23904785,4.27625281 0.0862625767,4.32816292 0.0862625767,3.03041011 L0.0862625767,2.8196236 L0.0862625767,0.837207865 L0.0862625767,0.122264045 C0.0862625767,0.0565898876 0.13966135,0.00310674157 0.20562454,0.00310674157 L0.846017178,0.00310674157 C0.911980368,0.00310674157 0.965379141,0.0565898876 0.965379141,0.122264045 L0.965379141,2.8196236 L0.965379141,3.03041011 C0.965379141,3.4240618 1.34466748,3.40164607 1.62815215,3.40164607" id="Fill-31" fill="#7599A5" mask="url(#mask-2)"></path>
                </g>
                <path d="M233.821016,12.1631685 L232.650169,12.1631685 C232.242611,12.1631685 232.213556,12.2799663 232.213556,12.8191236 L232.213556,14.4515393 C232.213556,14.7791236 232.314856,14.8735056 232.650169,14.8735056 L233.821016,14.8735056 C234.155936,14.8735056 234.250955,14.7791236 234.250955,14.4515393 L234.257629,12.8698539 C234.257629,12.2949101 234.243494,12.1631685 233.821016,12.1631685 L233.821016,12.1631685 Z M235.130856,14.4515393 C235.123789,15.2675506 234.636133,15.7555843 233.821016,15.7555843 L232.650169,15.7555843 C231.835053,15.7555843 231.333261,15.2675506 231.333261,14.4515393 L231.333261,12.8191236 C231.333261,11.9956404 231.558636,11.2740112 232.650169,11.2740112 L233.821016,11.2740112 C234.963593,11.2740112 235.144991,12.0534494 235.137924,12.8765393 L235.130856,14.4515393 Z" id="Fill-34" fill="#7599A5"></path>
                <path d="M249.030753,14.3487416 C249.030753,14.6621685 248.865453,14.7659888 248.688373,14.7828989 C248.378582,14.813573 247.477085,14.7915506 247.477085,14.7915506 C247.113109,14.7856517 247.023195,14.6767191 247.023195,14.3514944 C247.023195,14.042 247.095833,13.9075056 247.459416,13.9145843 L248.454361,13.9145843 C248.820299,13.9145843 249.030753,13.7840225 249.030753,13.7840225 L249.030753,14.3487416 Z M246.549674,11.3757079 C246.48371,11.3757079 246.430312,11.4295843 246.430312,11.4952584 L246.430312,12.1008764 C246.430312,12.1673371 246.48371,12.2208202 246.549674,12.2208202 L248.384079,12.2208202 C248.797919,12.2137416 249.030753,12.2727303 249.030753,12.6502584 C249.030753,13.0745843 248.662852,13.0372247 248.374655,13.0372247 L247.944324,13.0372247 C246.970582,13.0372247 246.143293,13.1229551 246.143293,14.3514944 C246.143293,15.595764 246.970582,15.6677333 247.944324,15.6677333 C248.898042,15.6677333 249.91144,15.6787416 249.91144,14.3487416 L249.91144,12.6872247 C249.91144,11.3320562 248.938483,11.3757079 247.977698,11.3757079 L246.549674,11.3757079 Z" id="Fill-36" fill="#7599A5"></path>
                <path d="M221.285379,13.0860281 L219.886802,13.0860281 C219.848717,13.0868146 219.817698,13.117882 219.817698,13.1564213 L219.817698,13.8410843 C219.817698,13.8800169 219.849109,13.9114775 219.887588,13.9114775 L220.882925,13.9114775 C220.948888,13.9114775 221.001894,13.9649607 221.001894,14.0310281 L221.001894,14.2323764 C221.001894,14.6696798 220.88371,14.7534438 220.615539,14.7644551 L220.017551,14.7715337 C219.734066,14.7644551 219.633551,14.7762528 219.292348,14.7424326 C219.114876,14.7255225 218.993944,14.654736 218.993944,14.341309 L218.993944,12.6805787 C218.993944,12.2649045 219.227171,12.2232191 219.641404,12.2137809 C219.898189,12.2082753 219.977894,12.2114213 220.21976,12.2126011 C220.519735,12.2185 220.798508,12.2082753 220.983048,12.3616461 C221.046655,12.4143427 221.12322,12.3781629 221.169158,12.3329382 L221.643858,11.9042865 C221.689796,11.8582753 221.683121,11.7914213 221.639146,11.7438371 C221.396103,11.481927 221.034483,11.3895112 220.434925,11.3726011 C220.429036,11.3714213 220.424717,11.3690618 220.418827,11.3690618 L220.213477,11.3690618 L220.197379,11.3690618 L220.002238,11.3690618 C219.056766,11.3674888 218.113649,11.3466461 218.113649,12.6805787 L218.113649,14.341309 C218.113649,15.6709157 219.127048,15.6610853 220.080766,15.6610853 C221.054901,15.6610853 221.882189,15.5887247 221.882189,14.2323764 L221.882189,13.6593989 C221.882189,13.3424326 221.615195,13.0860281 221.285379,13.0860281" id="Fill-38" fill="#7599A5"></path>
                <path d="M241.271951,14.7919438 L239.741055,14.7919438 L239.741055,13.9090787 C239.867877,13.9094719 240.170994,13.9098652 240.46508,13.9102584 C240.807067,13.9114382 241.14984,13.9137978 241.258994,13.9181236 C241.578601,13.924809 241.756859,14.0034607 241.756859,14.3577865 C241.756859,14.6904831 241.577816,14.7919438 241.271951,14.7919438 M241.036761,12.2424494 C241.343018,12.2503146 241.496147,12.3537416 241.496147,12.6211573 C241.496147,12.8964382 241.328883,13.0356517 241.074454,13.0356517 C241.019877,13.0356517 240.821988,13.0352584 240.592294,13.0352584 C240.25227,13.0340787 239.905963,13.0336854 239.741055,13.0340787 L239.741055,12.2404831 C240.025718,12.2416629 241.036761,12.2424494 241.036761,12.2424494 M242.453399,13.6330112 C242.34189,13.494191 242.178945,13.3781798 241.990871,13.2877303 C242.117301,13.2086854 242.229202,13.1115506 242.295558,12.9805955 C242.634012,12.3124494 242.171092,11.3674494 241.074454,11.3674494 L238.980123,11.3674494 C238.91416,11.3674494 238.860368,11.4205393 238.860368,11.4858202 L238.860368,15.5493596 C238.860368,15.6150337 238.91416,15.6681236 238.980123,15.6681236 L241.342233,15.6665506 C242.171877,15.6665506 242.652074,15.1458764 242.652074,14.3577865 C242.652074,14.0793596 242.595926,13.8103708 242.453399,13.6330112" id="Fill-40" fill="#7599A5"></path>
                <mask id="mask-4" fill="white">
                    <use xlink:href="#path-3"></use>
                </mask>
                <g id="Clip-43"></g>
                <polygon id="Fill-42" fill="#F1563C" mask="url(#mask-4)" points="0 34.9700337 34.9149448 34.9700337 34.9149448 -7.86516854e-05 0 -7.86516854e-05"></polygon>
                <path d="M21.6316074,9.24291011 L24.5493006,9.24291011 C25.0039755,9.24291011 25.3593129,9.24291011 25.6039264,9.32038202 C25.8544294,9.41083146 25.9592638,9.52055056 26.0511411,9.76830337 C26.1284908,10.0136966 26.1284908,10.3692022 26.1284908,10.8249888 L26.1284908,13.7472921 C26.1284908,14.2026854 26.1284908,14.5589775 26.0511411,14.8039775 C25.9635828,15.0426854 25.8391166,15.1673483 25.6039264,15.2518989 C25.3593129,15.329764 25.0039755,15.329764 24.5493006,15.329764 L21.6316074,15.329764 C21.1769325,15.329764 20.8215951,15.329764 20.576589,15.2518989 C20.3347239,15.1645955 20.2169325,15.048191 20.1297669,14.8039775 C20.0524172,14.5589775 20.0524172,14.2026854 20.0524172,13.7472921 L20.0524172,10.8249888 C20.0524172,10.3692022 20.0524172,10.0136966 20.1297669,9.76830337 C20.2173252,9.5221236 20.3347239,9.40729213 20.576589,9.32038202 C20.8215951,9.24291011 21.1769325,9.24291011 21.6316074,9.24291011" id="Fill-44" fill="#FEFEFE" mask="url(#mask-4)"></path>
                <path d="M22.2957153,17.0812191 C22.2238626,16.8857697 22.1221693,16.7835225 21.929384,16.714309 C21.7420957,16.654927 21.4747092,16.6509944 21.1362552,16.6509944 C20.440108,16.6506011 19.8931632,16.6447022 19.5099485,16.5231854 C19.1232,16.3843652 18.9174577,16.1782978 18.7733595,15.7850393 C18.6638135,15.4389719 18.6485006,14.9584101 18.6461448,14.3555449 L18.6461448,14.2269494 C18.6461448,13.8541404 18.6461448,13.5631292 18.5829301,13.3621742 C18.5079362,13.1592528 18.4215558,13.0695899 18.2165988,12.9956573 C18.016746,12.9319494 17.7258012,12.9319494 17.3535804,12.9319494 L16.2310282,12.9319494 C15.8584147,12.9319494 15.5678626,12.9319494 15.3672245,12.9956573 C15.1697276,13.0668371 15.0735313,13.1604326 15.0016785,13.3621742 C14.9384638,13.5631292 14.9384638,13.8541404 14.9384638,14.2269494 L14.9384638,14.2544775 L14.9380712,14.2544775 C14.9368933,14.9057135 14.9258994,15.4212753 14.8108564,15.7870056 C14.6663656,16.180264 14.461016,16.3859382 14.0738748,16.5251517 C13.8229791,16.6045899 13.501016,16.6344775 13.1134822,16.645882 C12.6949301,16.6360506 12.3501939,16.6073427 12.0843779,16.5231854 C11.6972368,16.3843652 11.4918871,16.1782978 11.3473963,15.7850393 C11.2390282,15.4409382 11.2229301,14.9639157 11.2205742,14.3665562 L11.2205742,14.2269494 C11.2205742,13.8541404 11.2205742,13.5631292 11.1573595,13.3621742 C11.081973,13.1592528 10.9959853,13.0695899 10.7910282,12.9956573 C10.5907828,12.9319494 10.299838,12.9319494 9.92800982,12.9319494 L8.80545767,12.9319494 C8.43284417,12.9319494 8.14229202,12.9319494 7.94165399,12.9956573 C7.74376442,13.0668371 7.64796074,13.1604326 7.57610798,13.3621742 C7.51250061,13.5631292 7.51250061,13.8541404 7.51250061,14.2269494 L7.51250061,14.2544775 C7.5113227,14.9057135 7.50032883,15.4212753 7.38489325,15.7870056 C7.24040245,16.180264 7.0354454,16.3859382 6.64791166,16.5251517 C6.34361718,16.6215 5.93488098,16.6450955 5.43073374,16.6506011 L5.09267239,16.6506011 C4.7200589,16.6506011 4.42950675,16.6506011 4.22886871,16.714309 C4.03097914,16.7854888 3.93478282,16.8790843 3.8633227,17.0808258 C3.79971534,17.2817809 3.79971534,17.5727921 3.79971534,17.9456011 L3.79971534,19.0703202 C3.79971534,19.4431292 3.79971534,19.7341404 3.8633227,19.9347022 C3.93439018,20.1348708 4.03097914,20.2296461 4.22886871,20.3012191 C4.42950675,20.364927 4.7200589,20.364927 5.09267239,20.364927 L6.2148319,20.364927 C6.58705276,20.364927 6.87799755,20.364927 7.07824294,20.3012191 C7.27063558,20.2323989 7.37272147,20.1301517 7.44457423,19.9347022 C7.50778896,19.7341404 7.50778896,19.4431292 7.50778896,19.0703202 L7.50778896,18.9307135 C7.51014479,18.3333539 7.52624294,17.8559382 7.63461104,17.5122303 C7.77910184,17.1189719 7.98445153,16.9129045 8.37159264,16.7740843 C8.63740859,16.689927 8.98214479,16.6612191 9.40069693,16.6509944 C9.78823067,16.6627921 10.1101939,16.6926798 10.3610896,16.772118 C10.7482307,16.9109382 10.9531877,17.1170056 11.0976785,17.510264 C11.2131141,17.8759944 11.224108,18.3915562 11.2252859,19.0427921 L11.2256785,19.0427921 L11.2256785,19.0703202 C11.2256785,19.442736 11.2256785,19.7341404 11.2888933,19.9347022 C11.360746,20.1368371 11.4569423,20.2304326 11.6544393,20.3012191 C11.8550773,20.364927 12.1456294,20.364927 12.5182429,20.364927 L13.6407951,20.364927 C14.0126233,20.364927 14.3039607,20.364927 14.5038135,20.3012191 C14.7087706,20.2276798 14.7947583,20.1372303 14.8701448,19.9347022 C14.9333595,19.7341404 14.9333595,19.442736 14.9333595,19.0703202 L14.9333595,18.9397584 C14.9357153,18.3376798 14.9514209,17.8579045 15.0605742,17.5122303 C15.2046724,17.1189719 15.4100221,16.9129045 15.7971632,16.7740843 C16.0629791,16.689927 16.4077153,16.6612191 16.8262675,16.6509944 C17.2138012,16.6627921 17.5357644,16.6926798 17.7870528,16.772118 C18.1738012,16.9109382 18.3791509,17.1170056 18.5236417,17.510264 C18.6390773,17.8759944 18.6496785,18.3915562 18.6508564,19.0427921 L18.6512491,19.0427921 L18.6512491,19.0703202 C18.6512491,19.442736 18.6512491,19.7341404 18.7144638,19.9347022 C18.7863166,20.1368371 18.8825129,20.2304326 19.0807951,20.3012191 C19.2806479,20.364927 19.5715926,20.364927 19.9438135,20.364927 L21.0663656,20.364927 C21.4385865,20.364927 21.7295313,20.364927 21.929384,20.3012191 C22.1343411,20.2276798 22.2207215,20.1372303 22.2957153,19.9347022 C22.3589301,19.7341404 22.3589301,19.442736 22.3589301,19.0703202 L22.3589301,17.9456011 C22.3589301,17.5727921 22.3589301,17.2817809 22.2957153,17.0812191" id="Fill-45" fill="#FEFEFE" mask="url(#mask-4)"></path>
                <path d="M30.8156466,16.5804045 C31.0170699,16.5080449 31.1105178,16.4120899 31.1815853,16.2138876 C31.2448,16.0133258 31.2448,15.7219213 31.2448,15.3491124 L31.2448,14.2247865 C31.2448,13.8523708 31.2448,13.560573 31.1815853,13.3604045 C31.1077693,13.1551236 31.0182479,13.0686067 30.8156466,12.9934944 C30.6150086,12.9301798 30.3244564,12.9301798 29.9522356,12.9301798 L28.8292908,12.9301798 C28.4570699,12.9301798 28.1665178,12.9301798 27.9662724,12.9934944 C27.7711313,13.0654607 27.6690454,13.1673146 27.6003337,13.3604045 C27.5406528,13.5479888 27.5367264,13.816191 27.5367264,14.1547865 C27.5363337,14.8516404 27.5304442,15.3998427 27.409119,15.7836629 C27.2705178,16.1714157 27.0647755,16.3766966 26.6721374,16.521809 C26.3305423,16.6299551 25.8570209,16.6460787 25.2637448,16.6488315 L25.1165055,16.6488315 C24.7446773,16.6488315 24.4537325,16.6488315 24.2534871,16.7121461 C24.0508859,16.7872584 23.9609718,16.8737753 23.8871558,17.0790562 C23.8239411,17.2792247 23.8239411,17.5710225 23.8239411,17.9434382 L23.8239411,19.067764 C23.8239411,19.440573 23.8239411,19.7319775 23.8871558,19.9325393 C23.9582233,20.1307416 24.0516712,20.2270899 24.2534871,20.2990562 C24.4537325,20.362764 24.7446773,20.362764 25.1165055,20.362764 L25.1439902,20.362764 C25.7941988,20.3639438 26.3089472,20.3745618 26.6741006,20.4901798 C27.0667387,20.6352921 27.272481,20.840573 27.4110822,21.2283258 C27.5072785,21.5334944 27.5312294,21.9432697 27.5367264,22.449 L27.5367264,22.7864157 C27.5367264,23.159618 27.5367264,23.4506292 27.6003337,23.651191 C27.6710086,23.8493933 27.7644564,23.9461348 27.9658798,24.0177079 C28.1665178,24.0814157 28.4574626,24.0814157 28.8292908,24.0814157 L29.9522356,24.0814157 C30.3244564,24.0814157 30.6150086,24.0814157 30.815254,24.0177079 C31.0151067,23.9461348 31.1097325,23.8493933 31.1815853,23.651191 C31.2448,23.4506292 31.2448,23.159618 31.2448,22.7864157 L31.2448,21.6624831 C31.2448,21.2896742 31.2448,20.9978764 31.1815853,20.7977079 C31.112481,20.604618 31.0103951,20.502764 30.815254,20.4307978 C30.6150086,20.3674831 30.3244564,20.3674831 29.9522356,20.3674831 L29.8049963,20.3674831 C29.2117202,20.3647303 28.7385914,20.3486067 28.3966037,20.2404607 C28.0039656,20.0953483 27.7982233,19.8900674 27.6596221,19.5023146 C27.5755975,19.2360787 27.546935,18.8907978 27.537119,18.4715843 C27.5485055,18.0834382 27.578346,17.7609663 27.6576589,17.5096742 C27.7966528,17.1219213 28.0020025,16.9162472 28.3946405,16.7715281 C28.7597939,16.6559101 29.2745423,16.6452921 29.9247509,16.6441124 L29.9522356,16.6441124 C30.3244564,16.6441124 30.6150086,16.6441124 30.8156466,16.5804045" id="Fill-46" fill="#FEFEFE" mask="url(#mask-4)"></path>
                <path d="M4.22439264,21.9162921 L25.4511902,21.9162921 C25.6969816,21.9162921 25.8956564,22.1156742 25.8956564,22.3618539 L25.8956564,23.5003371 C25.8956564,23.7461236 25.6969816,23.9458989 25.4511902,23.9458989 L4.22439264,23.9458989 C3.97860123,23.9458989 3.77953374,23.7461236 3.77953374,23.5003371 L3.77953374,22.3618539 C3.77953374,22.1156742 3.97860123,21.9162921 4.22439264,21.9162921" id="Fill-47" fill="#FEFEFE" mask="url(#mask-4)"></path>
            </g>
        </g>
    </g>
</svg>