<svg width="80" height="80" xmlns="http://www.w3.org/2000/svg"><g fill="none" fill-rule="evenodd"><path d="M0 0h80v80H0z"/><g fill="#ffffff" fill-rule="nonzero"><path d="M50.564 52.122a2.197 2.197 0 102.132 2.186 2.133 2.133 0 00-2.132-2.186zm0 4.01a1.834 1.834 0 111.76-1.824 1.76 1.76 0 01-1.76 1.824z"/><path d="M51.72 53.73c0-.501-.273-.73-.82-.73h-.84v2.636h.342v-1.089h.39l.636 1.09h.39l-.674-1.09a.597.597 0 00.456-.261.747.747 0 00.12-.556zm-1.347.414v-.795h.479c.234 0 .507 0 .507.36 0 .359-.273.435-.566.435h-.42zM31.167 36.303l-2.197 6.65a6.732 6.732 0 004.394.021l-2.197-6.671zM47.175 34.545h-1.508v5.273h1.552c2.067 0 3.72-.634 3.72-2.673 0-2.038-1.698-2.6-3.764-2.6z"/><path d="M7 24v32.515h33.749L73.788 24H7zm40.699 20.016h-2.087v6.214h-9.778l-.96-2.978a11.539 11.539 0 01-6.94 0L26.89 50.25h-5.927l.647-1.766-.24.205a9.228 9.228 0 01-5.656 1.849h-.366a15.322 15.322 0 01-7.409-1.92l2.025-3.975a9.155 9.155 0 005.447 1.53 2.943 2.943 0 002.087-.657c.272-.275.425-.643.428-1.027 0-1.027-1.471-1.51-3.298-2.054a15.77 15.77 0 01-4.466-2.054 5.036 5.036 0 01-2.223-4.468 5.43 5.43 0 011.566-3.78 9.144 9.144 0 016.574-2.361c2.58.034 5.12.626 7.44 1.735l-2.285 3.913a10.934 10.934 0 00-4.79-1.314c-1.962-.103-2.953.585-2.974 1.335 0 .914 1.868 1.736 3.632 2.29 2.692.842 6.104 1.962 6.616 5.207l4.905-12.868h5.697l5.74 15.405V30.07h6.595c6.262 0 9.236 2.208 9.236 7.004-.021 4.365-3.058 6.942-8.192 6.942z"/></g></g></svg>