<svg width="450" height="435" xmlns="http://www.w3.org/2000/svg" xmlns:xlink="http://www.w3.org/1999/xlink"><defs><path id="a" d="M0 39.102l76.163 60.581 148.45-35.725L149.224.271z"/><path d="M3.065.35A2.757 2.757 0 00.307 3.107v10.814a2.758 2.758 0 002.758 2.757h12.636a2.758 2.758 0 002.759-2.757V3.107A2.758 2.758 0 0015.7.35H3.065z" id="c"/><path d="M.822.43a.49.49 0 00-.49.49v.833c0 .271.219.49.49.49h96.596a.49.49 0 00.49-.49V.92a.49.49 0 00-.49-.49H.822z" id="e"/><path d="M.822.357a.49.49 0 00-.49.49v.833c0 .27.219.49.49.49h96.596a.49.49 0 00.49-.49V.846a.49.49 0 00-.49-.49H.822z" id="g"/><path d="M.822.259a.49.49 0 00-.49.49v.833c0 .27.219.49.49.49h96.596a.49.49 0 00.49-.49V.749a.49.49 0 00-.49-.49H.822z" id="i"/><path d="M.822.191a.49.49 0 00-.49.49v.834c0 .27.219.49.49.49h55.293a.49.49 0 00.49-.49V.68a.49.49 0 00-.49-.49H.822z" id="k"/><path d="M.822.074a.49.49 0 00-.49.49v.834c0 .27.219.49.49.49h96.596a.49.49 0 00.49-.49V.565a.49.49 0 00-.49-.49H.822z" id="m"/><path d="M.822.001a.49.49 0 00-.49.49v.834c0 .27.219.49.49.49h96.596a.49.49 0 00.49-.49V.49a.49.49 0 00-.49-.49H.822z" id="o"/><path d="M.822.521a.49.49 0 00-.49.49v.834c0 .27.219.49.49.49h96.596a.49.49 0 00.49-.49v-.833a.49.49 0 00-.49-.49H.822z" id="q"/><path d="M.822.448a.49.49 0 00-.49.49v.834c0 .27.219.49.49.49h55.293a.49.49 0 00.49-.49V.939a.49.49 0 00-.49-.49H.822z" id="s"/><path d="M3.139.547A2.758 2.758 0 00.38 3.304v10.813a2.758 2.758 0 002.759 2.757h12.636a2.758 2.758 0 002.758-2.757V3.304A2.758 2.758 0 0015.775.547H3.139z" id="u"/><path d="M.564.547a.49.49 0 00-.49.489v.834c0 .27.22.49.49.49h71.185a.49.49 0 00.49-.49v-.834a.49.49 0 00-.49-.49H.564z" id="w"/><path d="M.564.472a.49.49 0 00-.49.49v.834c0 .27.22.49.49.49h71.185a.49.49 0 00.49-.49V.963a.49.49 0 00-.49-.49H.564z" id="y"/><path d="M.895.007a.49.49 0 00-.49.49v.834c0 .27.22.49.49.49h96.597a.49.49 0 00.49-.49V.497a.49.49 0 00-.49-.49H.895z" id="A"/><path d="M.895.552a.49.49 0 00-.49.49v.833c0 .271.22.49.49.49h96.597a.49.49 0 00.49-.49v-.833a.49.49 0 00-.49-.49H.895z" id="C"/><path d="M.895.455a.49.49 0 00-.49.49v.833c0 .27.22.49.49.49h96.597a.49.49 0 00.49-.49V.945a.49.49 0 00-.49-.49H.895z" id="E"/><path d="M.895.381a.49.49 0 00-.49.49v.833c0 .27.22.49.49.49H56.19c.27 0 .49-.22.49-.49V.871a.49.49 0 00-.49-.49H.895z" id="G"/><path d="M.895.27a.49.49 0 00-.49.49v.834c0 .271.22.49.49.49h96.597a.49.49 0 00.49-.49V.761a.49.49 0 00-.49-.49H.895z" id="I"/><path d="M.895.197a.49.49 0 00-.49.49v.834c0 .27.22.49.49.49h96.597a.49.49 0 00.49-.49V.687a.49.49 0 00-.49-.49H.895z" id="K"/><path d="M.895.105a.49.49 0 00-.49.49v.833c0 .271.22.49.49.49h96.597a.49.49 0 00.49-.49V.595a.49.49 0 00-.49-.49H.895z" id="M"/><path d="M.895.032a.49.49 0 00-.49.49v.833c0 .271.22.49.49.49H56.19c.27 0 .49-.219.49-.49V.522c0-.27-.22-.49-.49-.49H.895z" id="O"/><path d="M17.197.565v2.708H24.1v13.301H.435V3.273h6.922V.565h9.84zm-1.257.974H8.583v1.722h7.357V1.539z" id="Q"/><path id="S" d="M.399.013v3.162h1.128V.92h6.767v2.255h1.129V.013z"/><path id="U" d="M59.162.124v67.572L.092 84.006V16.432z"/><path d="M13.243.314V2.36h5.254v10.134H.49V2.372h5.255V.314h7.498zm-.932.735H6.683V2.36h5.628V1.049z" id="W"/><path id="Y" d="M7.412.197v2.408h-.858V.89h-5.15v1.715H.54V.197z"/><path id="aa" d="M1.594.087l148.445 37.281v33.397L83.2 125.135.043 104.161z"/><path id="ac" d="M148.892.087l1.558 104.075-83.165 20.972L.448 70.765V37.368z"/><path id="ae" d="M.227 40.046l77.72 60.581 146.23-37.102L148.672.43z"/><path id="ag" d="M0 434.387h450V.063H0z"/></defs><g fill="none" fill-rule="evenodd"><path fill="#E7E7E7" d="M224.614 157.53l148.445 35.726L450 131.902l-148.445-38.06z"/><g transform="translate(0 93.064)"><mask id="b" fill="#ffffff"><use xlink:href="#a"/></mask><path mask="url(#b)" d="M0 39.102l76.163 60.581 148.45-35.725L149.224.271z"/></g><g transform="translate(123.842 141.465)"><mask id="d" fill="#ffffff"><use xlink:href="#c"/></mask><path d="M3.065.35A2.757 2.757 0 00.307 3.107v10.814a2.758 2.758 0 002.758 2.757h12.636a2.758 2.758 0 002.759-2.757V3.107A2.758 2.758 0 0015.7.35H3.065z" mask="url(#d)"/></g><g transform="translate(122.003 166.585)"><mask id="f" fill="#ffffff"><use xlink:href="#e"/></mask><path d="M.822.43a.49.49 0 00-.49.49v.833c0 .271.219.49.49.49h96.596a.49.49 0 00.49-.49V.92a.49.49 0 00-.49-.49H.822z" mask="url(#f)"/></g><g transform="translate(122.003 172.099)"><mask id="h" fill="#ffffff"><use xlink:href="#g"/></mask><path d="M.822.357a.49.49 0 00-.49.49v.833c0 .27.219.49.49.49h96.596a.49.49 0 00.49-.49V.846a.49.49 0 00-.49-.49H.822z" mask="url(#h)"/></g><g transform="translate(122.003 179.451)"><mask id="j" fill="#ffffff"><use xlink:href="#i"/></mask><path d="M.822.259a.49.49 0 00-.49.49v.833c0 .27.219.49.49.49h96.596a.49.49 0 00.49-.49V.749a.49.49 0 00-.49-.49H.822z" mask="url(#j)"/></g><g transform="translate(122.003 184.965)"><mask id="l" fill="#ffffff"><use xlink:href="#k"/></mask><path d="M.822.191a.49.49 0 00-.49.49v.834c0 .27.219.49.49.49h55.293a.49.49 0 00.49-.49V.68a.49.49 0 00-.49-.49H.822z" mask="url(#l)"/></g><g transform="translate(122.003 192.317)"><mask id="n" fill="#ffffff"><use xlink:href="#m"/></mask><path d="M.822.074a.49.49 0 00-.49.49v.834c0 .27.219.49.49.49h96.596a.49.49 0 00.49-.49V.565a.49.49 0 00-.49-.49H.822z" mask="url(#n)"/></g><g transform="translate(122.003 197.831)"><mask id="p" fill="#ffffff"><use xlink:href="#o"/></mask><path d="M.822.001a.49.49 0 00-.49.49v.834c0 .27.219.49.49.49h96.596a.49.49 0 00.49-.49V.49a.49.49 0 00-.49-.49H.822z" mask="url(#p)"/></g><g transform="translate(122.003 204.57)"><mask id="r" fill="#ffffff"><use xlink:href="#q"/></mask><path d="M.822.521a.49.49 0 00-.49.49v.834c0 .27.219.49.49.49h96.596a.49.49 0 00.49-.49v-.833a.49.49 0 00-.49-.49H.822z" mask="url(#r)"/></g><g transform="translate(122.003 210.085)"><mask id="t" fill="#ffffff"><use xlink:href="#s"/></mask><path d="M.822.448a.49.49 0 00-.49.49v.834c0 .27.219.49.49.49h55.293a.49.49 0 00.49-.49V.939a.49.49 0 00-.49-.49H.822z" mask="url(#t)"/></g><g transform="translate(140.395 164.747)"><mask id="v" fill="#ffffff"><use xlink:href="#u"/></mask><path d="M3.139.547A2.758 2.758 0 00.38 3.304v10.813a2.758 2.758 0 002.759 2.757h12.636a2.758 2.758 0 002.758-2.757V3.304A2.758 2.758 0 0015.775.547H3.139z" mask="url(#v)"/></g><g transform="translate(164.305 164.747)"><mask id="x" fill="#ffffff"><use xlink:href="#w"/></mask><path d="M.564.547a.49.49 0 00-.49.489v.834c0 .27.22.49.49.49h71.185a.49.49 0 00.49-.49v-.834a.49.49 0 00-.49-.49H.564z" mask="url(#x)"/></g><g transform="translate(164.305 170.26)"><mask id="z" fill="#ffffff"><use xlink:href="#y"/></mask><path d="M.564.472a.49.49 0 00-.49.49v.834c0 .27.22.49.49.49h71.185a.49.49 0 00.49-.49V.963a.49.49 0 00-.49-.49H.564z" mask="url(#z)"/></g><g transform="translate(138.556 190.48)"><mask id="B" fill="#ffffff"><use xlink:href="#A"/></mask><path d="M.895.007a.49.49 0 00-.49.49v.834c0 .27.22.49.49.49h96.597a.49.49 0 00.49-.49V.497a.49.49 0 00-.49-.49H.895z" mask="url(#B)"/></g><g transform="translate(138.556 195.38)"><mask id="D" fill="#ffffff"><use xlink:href="#C"/></mask><path d="M.895.552a.49.49 0 00-.49.49v.833c0 .271.22.49.49.49h96.597a.49.49 0 00.49-.49v-.833a.49.49 0 00-.49-.49H.895z" mask="url(#D)"/></g><g transform="translate(138.556 202.733)"><mask id="F" fill="#ffffff"><use xlink:href="#E"/></mask><path d="M.895.455a.49.49 0 00-.49.49v.833c0 .27.22.49.49.49h96.597a.49.49 0 00.49-.49V.945a.49.49 0 00-.49-.49H.895z" mask="url(#F)"/></g><g transform="translate(138.556 208.247)"><mask id="H" fill="#ffffff"><use xlink:href="#G"/></mask><path d="M.895.381a.49.49 0 00-.49.49v.833c0 .27.22.49.49.49H56.19c.27 0 .49-.22.49-.49V.871a.49.49 0 00-.49-.49H.895z" mask="url(#H)"/></g><g transform="translate(138.556 215.599)"><mask id="J" fill="#ffffff"><use xlink:href="#I"/></mask><path d="M.895.27a.49.49 0 00-.49.49v.834c0 .271.22.49.49.49h96.597a.49.49 0 00.49-.49V.761a.49.49 0 00-.49-.49H.895z" mask="url(#J)"/></g><g transform="translate(138.556 221.113)"><mask id="L" fill="#ffffff"><use xlink:href="#K"/></mask><path d="M.895.197a.49.49 0 00-.49.49v.834c0 .27.22.49.49.49h96.597a.49.49 0 00.49-.49V.687a.49.49 0 00-.49-.49H.895z" mask="url(#L)"/></g><g transform="translate(138.556 228.465)"><mask id="N" fill="#ffffff"><use xlink:href="#M"/></mask><path d="M.895.105a.49.49 0 00-.49.49v.833c0 .271.22.49.49.49h96.597a.49.49 0 00.49-.49V.595a.49.49 0 00-.49-.49H.895z" mask="url(#N)"/></g><g transform="translate(138.556 233.98)"><mask id="P" fill="#ffffff"><use xlink:href="#O"/></mask><path d="M.895.032a.49.49 0 00-.49.49v.833c0 .271.22.49.49.49H56.19c.27 0 .49-.219.49-.49V.522c0-.27-.22-.49-.49-.49H.895z" mask="url(#P)"/></g><path d="M195.21 273.418h95.47V161.323h-95.47z"/><path d="M198.147 270.943h90.503V163.13h-90.503z"/><g transform="translate(231.13 177)"><mask id="R" fill="#ffffff"><use xlink:href="#Q"/></mask><path d="M8.583 3.26h7.357V1.54H8.583v1.722zm8.614.013V.565h-9.84v2.708H.435v13.301H24.1V3.273h-6.903z" mask="url(#R)"/></g><path d="M232.565 192.9h21.667v-12.18h-21.667z"/><g transform="translate(238.488 178.226)"><mask id="T" fill="#ffffff"><use xlink:href="#S"/></mask><path mask="url(#T)" d="M.399.013v3.162h1.128V.92h6.767v2.255h1.129V.013z"/></g><path d="M211.69 213.137h63.644v-2.709H211.69zM211.69 230.954h63.644v-2.709H211.69zM211.69 235.69h63.644v-2.709H211.69zM211.69 226.218h26.858v-2.709H211.69zM255.25 226.218h20.084v-2.708h-20.085zM234.03 246.742h20.086v-2.708H234.03z"/><g transform="translate(313.896 313.014)"><mask id="V" fill="#ffffff"><use xlink:href="#U"/></mask><path mask="url(#V)" d="M.092 16.433v67.572l59.07-16.31V.125z"/></g><path d="M295.37 217.616h43.78v-42.037h-43.78z"/><path d="M296.056 216.758h42.407v-40.149h-42.407z"/><g transform="translate(307.766 181.289)"><mask id="X" fill="#ffffff"><use xlink:href="#W"/></mask><path d="M6.683 2.36h5.628V1.049H6.683V2.36zm6.56 0V.314H5.745v2.058H.49v10.122h18.007V2.36h-5.254z" mask="url(#X)"/></g><path d="M309.016 193.256h16.48v-9.264h-16.48z"/><g transform="translate(313.283 181.902)"><mask id="Z" fill="#ffffff"><use xlink:href="#Y"/></mask><path mask="url(#Z)" d="M.54.197v2.408h.864V.89h5.15v1.715h.858V.197z"/></g><path d="M309.96 202.52h15.278v-2.06H309.96zM304.21 206.293h26.099v-2.059H304.21z"/><g transform="translate(74.183 195.38)"><mask id="ab" fill="#ffffff"><use xlink:href="#aa"/></mask><path mask="url(#ab)" d="M.043 104.162L83.2 125.134l66.838-54.369V37.368L1.594.087z"/></g><g transform="translate(223.774 195.38)"><mask id="ad" fill="#ffffff"><use xlink:href="#ac"/></mask><path mask="url(#ad)" d="M150.45 104.162l-83.165 20.972L.448 70.765V37.368L148.892.087z"/></g><path fill="#E7E7E7" d="M78.983 190.86L3.47 256.534l147.001 36.92 75.682-60.653z"/><g transform="translate(224.387 192.317)"><mask id="af" fill="#ffffff"><use xlink:href="#ae"/></mask><path mask="url(#af)" d="M.227 40.046l77.72 60.581 146.23-37.102L148.672.43z"/></g><g transform="translate(0 .55)"><path fill="#AEAEAE" d="M372.102 191.536l-145.95-36.65v277.217l147.176-38.5z"/><path fill="#898989" d="M78.983 190.31l147.17-35.425v277.218l-147.17-37.735z"/><path fill="#F8F8F8" d="M226.772 155.186l75.666-63.443 147.176 37.735-77.512 62.058zM1.63 129.018l77.353 61.292 147.17-35.425-75.96-62.842z"/><path d="M141.732 231.219h54.815c.271 0 .49.22.49.49v.82c0 .272-.219.491-.49.491h-54.815a.49.49 0 01-.49-.49v-.821c0-.27.219-.49.49-.49" fill="#DFDFDF"/><mask id="ah" fill="#ffffff"><use xlink:href="#ag"/></mask><path fill="#DFDFDF" mask="url(#ah)" d="M213.345 232.886h63.098v-2.684h-63.098z"/><path fill="#60CDA1" mask="url(#ah)" d="M256.53 223.493h19.913v-2.683h-19.912z"/><path fill="#E56245" mask="url(#ah)" d="M235.496 243.84h19.913v-2.683h-19.913z"/><path fill="#535460" mask="url(#ah)" d="M373.328 393.602l-147.175 38.501v-202.52l145.326-37.186z"/><path fill="#DFDFDF" mask="url(#ah)" d="M98.745 92.563h57.373V45.968H98.745z"/></g><path d="M102.608 67.74h46.484v-5.832h-46.484zM102.608 74.125h33.928v-1.979h-33.928zM102.608 77.538h22.028v-1.98h-22.028zM102.608 80.95h29.078v-1.979h-29.078zM102.608 84.357h33.928v-1.979h-33.928zM102.608 87.77h11.341v-1.98h-11.341z"/><path fill="#ffffff" d="M100.02 92.132h54.822V47.609h-54.821z"/><path fill="#F1563C" d="M100.073 57.54h54.821V47.61h-54.821z"/><path d="M105.618 61.142h43.633c.677 0 1.226.55 1.226 1.226V65.7c0 .676-.549 1.225-1.226 1.225h-43.633a1.226 1.226 0 01-1.226-1.225v-3.333c0-.677.549-1.226 1.226-1.226M104.392 73.255h33.634V71.29h-33.634zM104.392 76.637h21.838v-1.966h-21.838zM104.392 80.02h28.827v-1.968h-28.827zM104.392 83.407h33.634v-1.966h-33.634zM104.392 86.79h11.25v-1.967h-11.25zM261.273 78.932h106.35c1.602 0 2.9 1.297 2.9 2.897v97.486c0 1.6-1.298 2.897-2.9 2.897h-106.35a2.898 2.898 0 01-2.9-2.897V81.83c0-1.6 1.298-2.897 2.9-2.897" fill="#DFDFDF"/><path d="M263.848 81.744h101.2a2.758 2.758 0 012.76 2.757v92.766a2.758 2.758 0 01-2.76 2.757h-101.2a2.758 2.758 0 01-2.759-2.757V84.5a2.758 2.758 0 012.759-2.757" fill="#ffffff"/><path d="M270.76 97.931h12.483a2.758 2.758 0 012.758 2.757v10.673a2.758 2.758 0 01-2.758 2.757H270.76a2.758 2.758 0 01-2.759-2.757v-10.673a2.758 2.758 0 012.76-2.757" fill="#F1563C"/><path d="M266.567 122.91h95.763c.27 0 .49.22.49.49v.821c0 .27-.22.49-.49.49h-95.763a.49.49 0 01-.49-.49v-.82c0-.272.22-.491.49-.491M266.567 128.308h95.763c.27 0 .49.219.49.49v.82c0 .272-.22.49-.49.49h-95.763a.49.49 0 01-.49-.49v-.82c0-.271.22-.49.49-.49M266.567 135.5h95.763c.27 0 .49.22.49.49v.822c0 .27-.22.49-.49.49h-95.763a.49.49 0 01-.49-.49v-.821c0-.271.22-.49.49-.49M266.567 141.799h54.815c.271 0 .49.22.49.49v.82c0 .272-.219.491-.49.491h-54.815a.49.49 0 01-.49-.49v-.821c0-.27.22-.49.49-.49M266.567 148.073h95.763c.27 0 .49.219.49.49v.82c0 .272-.22.49-.49.49h-95.763a.49.49 0 01-.49-.49v-.82c0-.271.22-.49.49-.49M266.567 154.37h95.763c.27 0 .49.22.49.491v.821c0 .27-.22.49-.49.49h-95.763a.49.49 0 01-.49-.49v-.821c0-.27.22-.49.49-.49M266.567 161.564h95.763c.27 0 .49.22.49.49v.82c0 .272-.22.491-.49.491h-95.763a.49.49 0 01-.49-.49v-.821c0-.27.22-.49.49-.49M295.076 98.68h63.31c.936 0 1.693.756 1.693 1.69v6.833c0 .935-.757 1.691-1.692 1.691h-63.311a1.691 1.691 0 01-1.692-1.69v-6.834c0-.934.758-1.69 1.692-1.69M359.28 111.045h-65.097a.8.8 0 00-.799.798.8.8 0 00.799.799h65.097a.8.8 0 00.799-.799.8.8 0 00-.799-.798" fill="#DFDFDF"/><path d="M184.894 26.909h85.16a3.641 3.641 0 013.642 3.64v102.84c0 2.01-1.631 3.64-3.643 3.64h-85.159a3.641 3.641 0 01-3.642-3.64V30.549c0-2.01 1.63-3.64 3.642-3.64" fill="#DFDFDF"/><path d="M186.251 28.525h82.445a3.64 3.64 0 013.643 3.64v99.608a3.64 3.64 0 01-3.643 3.64h-82.445a3.641 3.641 0 01-3.642-3.64V32.165c0-2.01 1.63-3.64 3.642-3.64" fill="#ffffff"/><path d="M224.114 42.526h6.713v-1.569h-6.713v1.569zm7.835 0v-2.463H223v2.463h-6.266v12.076h21.482V42.526h-6.266z" fill="#F1563C"/><path d="M252.319 117.586h8.589c1.012 0 1.84-.827 1.84-1.838V79.272c0-1.011-.828-1.839-1.84-1.839h-8.59c-1.011 0-1.839.828-1.839 1.839v36.476c0 1.01.828 1.838 1.84 1.838M191.515 67.436v1.904c0 .861.705 1.566 1.568 1.566h67.881c.862 0 1.567-.705 1.567-1.566v-1.904c0-.862-.705-1.567-1.567-1.567h-67.881c-.863 0-1.568.705-1.568 1.567M191.515 78.123v1.12c0 .345.28.625.624.625h51.282c.345 0 .624-.28.624-.624v-1.12a.624.624 0 00-.624-.624H192.14a.624.624 0 00-.624.623M191.515 84.41v1.12c0 .345.28.624.624.624h51.282c.345 0 .624-.28.624-.624v-1.12a.624.624 0 00-.624-.624H192.14a.624.624 0 00-.624.624M191.515 90.696v1.12c0 .345.28.624.624.624h51.282c.345 0 .624-.279.624-.623v-1.12a.624.624 0 00-.624-.625H192.14a.624.624 0 00-.624.624M191.515 96.983v1.12c0 .344.28.624.624.624h51.282c.345 0 .624-.28.624-.624v-1.12a.624.624 0 00-.624-.624H192.14a.624.624 0 00-.624.624M191.515 103.269v1.12c0 .345.28.624.624.624h51.282c.345 0 .624-.28.624-.623v-1.121a.624.624 0 00-.624-.624H192.14a.624.624 0 00-.624.624M191.515 109.555v1.121c0 .344.28.624.624.624h51.282c.345 0 .624-.28.624-.624v-1.12a.624.624 0 00-.624-.624H192.14a.624.624 0 00-.624.623M191.515 115.842v1.12c0 .345.28.624.624.624h51.282c.345 0 .624-.28.624-.624v-1.12a.624.624 0 00-.624-.624H192.14a.624.624 0 00-.624.624M292.745 42.287h43.406V.613h-43.406z" fill="#DFDFDF"/><path fill="#ffffff" d="M293.426 41.435h42.045V1.63h-42.045z"/><path fill="#F1563C" d="M306.276 18.13h16.338V8.944h-16.338z"/><path fill="#F1563C" d="M311.046 7.076V9.46h.852V7.756h5.107V9.46h.846V7.076z"/><path d="M320.593 27.624h-11.717a.609.609 0 01-.607-.607v-1.132c0-.333.273-.606.607-.606h11.717c.333 0 .607.273.607.606v1.132a.609.609 0 01-.607.607M329.436 31.857h-29.403a.501.501 0 01-.5-.5v-1.345c0-.275.224-.5.5-.5h29.403c.275 0 .5.225.5.5v1.345c0 .275-.225.5-.5.5" fill="#DFDFDF"/><path d="M226.652 224.682h70.308v-57.708h-70.308z"/><path d="M227.474 223.726h68.536v-55.662h-68.536z"/><path d="M227.474 180.477h68.536v-12.413h-68.536zM232.93 192.21h57.611v-7.23h-57.61zM232.93 200.126h42.051v-2.457h-42.05zM232.93 204.353h27.307v-2.457H232.93zM232.93 208.587h36.043v-2.456H232.93zM232.93 212.814h42.051v-2.457h-42.05zM232.93 217.042h14.064v-2.457H232.93z"/><path d="M235.934 189.618h16.382v-2.18h-16.382z"/><g><path fill="#DFDFDF" d="M227.762 223.248h69.707V166.03h-69.707z"/><path fill="#ffffff" d="M228.577 222.298h67.948v-55.19h-67.948z"/><path fill="#F1563C" d="M228.577 179.417h67.948V167.11h-67.948z"/><path d="M234.613 183.884h55.877c.343 0 .621.278.621.621v5.925a.622.622 0 01-.621.622h-55.877a.622.622 0 01-.622-.622v-5.925c0-.343.278-.621.622-.621M233.99 198.894h41.69v-2.432h-41.69zM233.99 203.091h27.074v-2.432h-27.073zM233.99 207.282h35.731v-2.433h-35.73zM233.99 211.479h41.69v-2.433h-41.69zM233.99 215.67h13.942v-2.433h-13.941z" fill="#DFDFDF"/><path d="M237.481 186.316H252.7a.51.51 0 01.511.51v1.142a.51.51 0 01-.511.51H237.48a.51.51 0 01-.51-.51v-1.142a.51.51 0 01.51-.51" fill="#719FAA"/><path d="M130.464 127.76h106.35c1.602 0 2.9 1.297 2.9 2.897v97.486c0 1.6-1.298 2.897-2.9 2.897h-106.35a2.898 2.898 0 01-2.9-2.897v-97.486c0-1.6 1.299-2.897 2.9-2.897" fill="#DFDFDF"/><path d="M133.039 130.572h101.2a2.758 2.758 0 012.76 2.757v92.765a2.758 2.758 0 01-2.76 2.757h-101.2a2.758 2.758 0 01-2.76-2.757V133.33a2.758 2.758 0 012.76-2.757" fill="#ffffff"/><path d="M139.951 146.759h12.483a2.758 2.758 0 012.759 2.757v10.673a2.758 2.758 0 01-2.76 2.757h-12.482a2.758 2.758 0 01-2.758-2.757v-10.673a2.758 2.758 0 012.758-2.757" fill="#F1563C"/><path d="M135.758 171.738h95.763c.27 0 .49.22.49.49v.82c0 .272-.22.491-.49.491h-95.763a.49.49 0 01-.49-.49v-.821c0-.27.219-.49.49-.49M135.758 177.135h95.763c.27 0 .49.22.49.49v.822c0 .27-.22.49-.49.49h-95.763a.49.49 0 01-.49-.49v-.821c0-.271.219-.49.49-.49M135.758 184.328h95.763c.27 0 .49.22.49.49v.821c0 .271-.22.49-.49.49h-95.763a.49.49 0 01-.49-.49v-.82c0-.271.219-.49.49-.49M135.758 190.627h54.815c.271 0 .49.219.49.49v.82c0 .271-.219.49-.49.49h-54.815a.49.49 0 01-.49-.49v-.82c0-.271.219-.49.49-.49M135.758 196.9h95.763c.27 0 .49.22.49.49v.821c0 .271-.22.49-.49.49h-95.763a.49.49 0 01-.49-.49v-.82c0-.271.219-.49.49-.49M135.758 203.199h95.763c.27 0 .49.219.49.49v.82c0 .272-.22.49-.49.49h-95.763a.49.49 0 01-.49-.49v-.82c0-.271.219-.49.49-.49M135.758 210.391h95.763c.27 0 .49.22.49.49v.822c0 .27-.22.49-.49.49h-95.763a.49.49 0 01-.49-.49v-.821c0-.271.219-.49.49-.49M164.267 147.507h63.311c.935 0 1.692.757 1.692 1.691v6.833c0 .934-.757 1.691-1.692 1.691h-63.31a1.691 1.691 0 01-1.693-1.69v-6.834c0-.934.758-1.691 1.692-1.691M228.471 159.873h-65.097a.8.8 0 00-.799.798.8.8 0 00.799.799h65.097a.8.8 0 00.8-.799.8.8 0 00-.8-.798" fill="#DFDFDF"/><path fill="#F8F8F8" d="M78.983 190.86v204.058l146.332 38.736.838-203.521z"/><path fill="#E9E9E9" d="M373.328 394.152l-148.014 39.502v-202.52l146.788-39.049z"/><path fill="#DCDCDC" d="M77.058 296.743l82.447 20.788 66.267-53.904.38-33.495L78.984 190.86z"/><path fill="#9E9E9E" d="M374.487 296.743L292.04 317.53l-66.267-53.904.38-33.495 145.95-38.047z"/><path fill="#F8F8F8" d="M78.983 190.86L3.47 253.23l147.17 36.963 75.513-60.06z"/><path fill="#F8F8F8" d="M372.102 192.085l76.462 60.464-144.354 34.395-78.057-56.811z"/><path fill="#D8D8D8" d="M225.315 434.937L78.983 396.12v-1.202l146.332 38.737z"/><path fill="#A5A5A5" d="M373.328 395.435l-148.014 39.502v-1.282l148.014-39.503z"/></g></g></svg>