<?xml version="1.0" encoding="utf-8"?>
<!-- Generator: Adobe Illustrator 24.2.1, SVG Export Plug-In . SVG Version: 6.00 Build 0)  -->
<svg version="1.1" id="Layer_1" xmlns="http://www.w3.org/2000/svg" xmlns:xlink="http://www.w3.org/1999/xlink" x="0px" y="0px"
	 viewBox="0 0 166 78" style="enable-background:new 0 0 166 78;" xml:space="preserve">
<style type="text/css">
	.st0{fill:none;stroke:#F9008E;stroke-miterlimit:10;}
	.st1{fill:#008690;}
	.st2{fill:#0069F0;}
	.st3{fill:#FFFFFF;}
	.st4{fill:#7E7FF1;}
	.st5{opacity:0.1;enable-background:new    ;}
	.st6{opacity:0.2;enable-background:new    ;}
	.st7{fill:#5453CF;}
	.st8{fill:#4F4EC1;}
	.st9{fill:none;}
	.st10{fill:#0071CB;}
	.st11{fill:#F71C00;}
	.st12{fill:#22317A;}
	.st13{fill:#2495E2;}
	.st14{fill:#020202;}
	.st15{fill:#242F3F;}
	.st16{fill:#FF9300;}
	.st17{clip-path:url(#SVGID_2_);}
	.st18{fill:#44CBF7;}
	.st19{fill:#00C391;}
	.st20{fill:#155A9D;}
	.st21{fill:#4893D3;}
	.st22{fill:#2173BC;}
	.st23{fill:#0D4873;}
	.st24{fill:#94BBE6;}
	.st25{fill:#63A340;}
	.st26{fill:#75BA3D;}
	.st27{fill:#6BAE41;}
	.st28{fill:#F62A2A;}
	.st29{fill:#3D81FB;}
	.st30{fill:#00AC47;}
	.st31{fill:#FFBA00;}
	.st32{fill:#F7292A;}
	.st33{clip-path:url(#SVGID_4_);}
	.st34{fill:#F96200;}
	.st35{fill:#FF9200;}
	.st36{fill:url(#SVGID_5_);}
	.st37{fill:#006FCA;}
	.st38{fill-rule:evenodd;clip-rule:evenodd;fill:#FFFFFF;}
	.st39{fill:url(#SVGID_6_);}
	.st40{fill:#00A0DE;}
	.st41{fill:#7D878F;}
	.st42{fill:#00A1E4;}
</style>
<g>
	<g>
		<path class="st42" d="M78,22.6c1.9-2,4.6-3.3,7.6-3.3c4,0,7.4,2.2,9.3,5.5c1.6-0.7,3.4-1.1,5.2-1.1c7.1,0,12.9,5.8,12.9,13
			c0,7.2-5.8,13-12.9,13c-0.9,0-1.7-0.1-2.5-0.3c-1.6,2.9-4.7,4.8-8.3,4.8c-1.5,0-2.9-0.3-4.1-1c-1.6,3.9-5.5,6.6-9.9,6.6
			c-4.6,0-8.6-2.9-10.1-7.1c-0.7,0.1-1.4,0.2-2.1,0.2c-5.5,0-10-4.5-10-10.1c0-3.7,2-7,5-8.8c-0.6-1.4-1-3-1-4.6
			C57,23.2,62.3,18,68.7,18C72.5,18,75.8,19.8,78,22.6"/>
		<path class="st3" d="M61.7,39.8c0,0.1,0,0.1,0,0.1c0.1,0.1,0.2,0.1,0.3,0.2c0.6,0.3,1.2,0.4,1.8,0.4c1.2,0,2-0.7,2-1.7v0
			c0-1-0.9-1.3-1.7-1.6l-0.1,0c-0.6-0.2-1.1-0.4-1.1-0.8v0c0-0.3,0.3-0.6,0.8-0.6c0.5,0,1.2,0.2,1.6,0.4c0,0,0.1,0.1,0.2,0
			c0-0.1,0.2-0.6,0.3-0.7c0-0.1,0-0.1-0.1-0.1c-0.5-0.3-1.1-0.5-1.8-0.5l-0.1,0c-1.1,0-1.9,0.7-1.9,1.7v0c0,1,0.9,1.4,1.7,1.6l0.1,0
			c0.6,0.2,1.1,0.3,1.1,0.8v0c0,0.4-0.3,0.7-0.9,0.7c-0.2,0-0.9,0-1.6-0.5c-0.1-0.1-0.1-0.1-0.2-0.1c0,0-0.1-0.1-0.2,0.1L61.7,39.8
			L61.7,39.8z M79.7,39.8c0,0.1,0,0.1,0,0.1c0.1,0.1,0.2,0.1,0.3,0.2c0.6,0.3,1.2,0.4,1.8,0.4c1.2,0,2-0.7,2-1.7v0
			c0-1-0.9-1.3-1.7-1.6l-0.1,0C81.5,37,81,36.8,81,36.4v0c0-0.3,0.3-0.6,0.8-0.6c0.5,0,1.2,0.2,1.6,0.4c0,0,0.1,0.1,0.2,0
			c0-0.1,0.2-0.6,0.3-0.7c0-0.1,0-0.1-0.1-0.1c-0.5-0.3-1.1-0.5-1.8-0.5l-0.1,0c-1.1,0-1.9,0.7-1.9,1.7v0c0,1,0.9,1.4,1.7,1.6l0.1,0
			c0.6,0.2,1.1,0.3,1.1,0.8v0c0,0.4-0.3,0.7-0.9,0.7c-0.2,0-0.9,0-1.6-0.5c-0.1-0.1-0.1-0.1-0.2-0.1c0,0-0.1-0.1-0.2,0.1L79.7,39.8
			L79.7,39.8z M92,37.7c0,0.6-0.1,1.1-0.3,1.4c-0.2,0.3-0.5,0.5-1,0.5c-0.5,0-0.8-0.2-1-0.5c-0.2-0.3-0.3-0.8-0.3-1.4
			c0-0.6,0.1-1.1,0.3-1.4c0.2-0.3,0.5-0.5,1-0.5c0.5,0,0.8,0.2,1,0.5C91.9,36.7,92,37.1,92,37.7 M93,36.6c-0.1-0.3-0.3-0.6-0.5-0.9
			c-0.2-0.3-0.5-0.5-0.8-0.6c-0.3-0.1-0.7-0.2-1.1-0.2c-0.4,0-0.8,0.1-1.1,0.2c-0.3,0.1-0.6,0.3-0.8,0.6c-0.2,0.3-0.4,0.6-0.5,0.9
			c-0.1,0.3-0.2,0.7-0.2,1.1s0.1,0.8,0.2,1.1c0.1,0.3,0.3,0.6,0.5,0.9c0.2,0.3,0.5,0.5,0.8,0.6c0.3,0.1,0.7,0.2,1.1,0.2
			c0.4,0,0.8-0.1,1.1-0.2c0.3-0.1,0.6-0.3,0.8-0.6c0.2-0.3,0.4-0.6,0.5-0.9c0.1-0.3,0.2-0.7,0.2-1.1S93.1,37,93,36.6 M101.5,39.4
			c0-0.1-0.1-0.1-0.1-0.1c-0.1,0.1-0.3,0.1-0.5,0.1c-0.2,0-0.4,0-0.6,0c-0.5,0-0.9-0.1-1.2-0.4c-0.3-0.3-0.4-0.8-0.4-1.4
			c0-0.6,0.1-1,0.4-1.4c0.3-0.3,0.6-0.5,1.1-0.5c0.4,0,0.7,0,1.1,0.2c0,0,0.1,0,0.1-0.1c0.1-0.2,0.2-0.4,0.3-0.7
			c0-0.1,0-0.1-0.1-0.1c-0.1-0.1-0.4-0.1-0.7-0.2c-0.2,0-0.5-0.1-0.8-0.1c-0.4,0-0.8,0.1-1.1,0.2c-0.3,0.1-0.6,0.3-0.8,0.6
			c-0.2,0.3-0.4,0.6-0.5,0.9c-0.1,0.3-0.2,0.7-0.2,1.1c0,0.9,0.2,1.5,0.7,2c0.5,0.5,1.1,0.8,2,0.8c0.5,0,1.1-0.1,1.5-0.3
			c0,0,0.1,0,0-0.1L101.5,39.4L101.5,39.4z M103.3,37.1c0-0.3,0.1-0.6,0.3-0.8c0.2-0.3,0.5-0.5,1-0.5s0.8,0.2,1,0.5
			c0.1,0.2,0.2,0.5,0.2,0.8H103.3L103.3,37.1z M106.7,36.4c-0.1-0.3-0.3-0.7-0.4-0.8c-0.2-0.2-0.4-0.4-0.7-0.5
			c-0.3-0.1-0.6-0.2-1-0.2c-0.4,0-0.8,0.1-1.1,0.2c-0.3,0.2-0.6,0.4-0.8,0.6c-0.2,0.3-0.4,0.6-0.5,0.9c-0.1,0.3-0.2,0.7-0.2,1.1
			c0,0.4,0.1,0.8,0.2,1.1c0.1,0.3,0.3,0.6,0.5,0.9c0.2,0.2,0.5,0.4,0.9,0.6c0.3,0.1,0.8,0.2,1.3,0.2c1,0,1.5-0.2,1.8-0.3
			c0,0,0.1-0.1,0-0.2l-0.2-0.6c0-0.1-0.1-0.1-0.1-0.1c-0.2,0.1-0.6,0.3-1.4,0.3c-0.5,0-0.9-0.2-1.2-0.4c-0.3-0.3-0.4-0.6-0.4-1.2
			l3.5,0c0,0,0.1,0,0.1-0.1C106.8,37.9,107,37.2,106.7,36.4 M75.4,37.1c0-0.3,0.1-0.6,0.3-0.8c0.2-0.3,0.5-0.5,1-0.5
			c0.5,0,0.8,0.2,1,0.5c0.1,0.2,0.2,0.5,0.2,0.8H75.4z M78.9,36.4c-0.1-0.3-0.3-0.7-0.4-0.8c-0.2-0.2-0.4-0.4-0.7-0.5
			c-0.3-0.1-0.6-0.2-1-0.2c-0.4,0-0.8,0.1-1.1,0.2c-0.3,0.2-0.6,0.4-0.8,0.6c-0.2,0.3-0.4,0.6-0.5,0.9c-0.1,0.3-0.2,0.7-0.2,1.1
			c0,0.4,0.1,0.8,0.2,1.1c0.1,0.3,0.3,0.6,0.5,0.9c0.2,0.2,0.5,0.4,0.9,0.6c0.3,0.1,0.8,0.2,1.3,0.2c1,0,1.5-0.2,1.8-0.3
			c0,0,0.1-0.1,0-0.2l-0.2-0.6c0-0.1-0.1-0.1-0.1-0.1c-0.2,0.1-0.6,0.3-1.4,0.3c-0.5,0-0.9-0.2-1.2-0.4c-0.3-0.3-0.4-0.6-0.4-1.2
			l3.5,0c0,0,0.1,0,0.1-0.1C79,37.9,79.1,37.2,78.9,36.4 M67.9,39.4c-0.1-0.1-0.2-0.1-0.2-0.2c-0.1-0.1-0.1-0.3-0.1-0.5
			c0-0.3,0.1-0.5,0.3-0.7c0,0,0.3-0.3,1-0.3c0.5,0,0.9,0.1,0.9,0.1v1.6h0c0,0-0.4,0.1-0.9,0.1C68.2,39.7,67.9,39.4,67.9,39.4
			 M69.3,37c-0.1,0-0.3,0-0.5,0c-0.3,0-0.6,0-0.9,0.1c-0.3,0.1-0.5,0.2-0.7,0.3c-0.2,0.1-0.4,0.3-0.5,0.6c-0.1,0.2-0.2,0.5-0.2,0.8
			c0,0.3,0.1,0.6,0.2,0.8c0.1,0.2,0.3,0.4,0.5,0.5c0.2,0.1,0.4,0.2,0.7,0.3c0.3,0.1,0.6,0.1,0.9,0.1c0.4,0,0.7,0,1.1-0.1
			c0.3-0.1,0.8-0.1,0.9-0.2c0.1,0,0.2,0,0.2-0.1c0.1,0,0.1-0.1,0.1-0.1l0-3.2c0-0.7-0.2-1.2-0.6-1.5c-0.4-0.3-0.9-0.5-1.6-0.5
			c-0.3,0-0.7,0-0.9,0.1c0,0-0.8,0.1-1.1,0.4c0,0-0.1,0,0,0.1l0.2,0.7c0,0.1,0.1,0.1,0.1,0.1s0,0,0.1,0c0.7-0.4,1.5-0.4,1.5-0.4
			c0.4,0,0.7,0.1,0.9,0.2c0.2,0.1,0.3,0.4,0.3,0.8V37C69.6,37,69.3,37,69.3,37 M97.3,35.2c0-0.1,0-0.1-0.1-0.1
			c-0.1,0-0.4-0.1-0.6-0.1c-0.4,0-0.7,0-0.9,0.1c-0.2,0.1-0.5,0.3-0.6,0.4v-0.4c0-0.1,0-0.1-0.1-0.1h-0.9c-0.1,0-0.1,0-0.1,0.1v5.2
			c0,0.1,0,0.1,0.1,0.1h0.9c0.1,0,0.1,0,0.1-0.1v-2.6c0-0.3,0-0.7,0.1-0.9c0.1-0.2,0.2-0.4,0.3-0.5c0.1-0.1,0.3-0.2,0.4-0.3
			c0.2,0,0.3-0.1,0.5-0.1c0.2,0,0.4,0,0.4,0c0.1,0,0.1,0,0.1-0.1C97.1,35.8,97.3,35.3,97.3,35.2"/>
		<path class="st3" d="M88.8,32.8c-0.1,0-0.2-0.1-0.3-0.1c-0.1,0-0.3,0-0.5,0c-0.6,0-1.1,0.2-1.5,0.5c-0.3,0.3-0.6,0.9-0.7,1.6
			l0,0.2h-0.8c0,0-0.1,0-0.1,0.1l-0.1,0.7c0,0.1,0,0.1,0.1,0.1h0.8l-0.8,4.4c-0.1,0.4-0.1,0.6-0.2,0.9c-0.1,0.2-0.2,0.4-0.2,0.5
			c-0.1,0.1-0.2,0.2-0.3,0.2c-0.1,0-0.3,0.1-0.4,0.1c-0.1,0-0.2,0-0.3,0c-0.1,0-0.1,0-0.2-0.1c0,0-0.1,0-0.1,0.1
			c0,0.1-0.2,0.6-0.3,0.7c0,0.1,0,0.1,0.1,0.1c0.1,0,0.2,0.1,0.3,0.1c0.2,0,0.4,0,0.5,0c0.3,0,0.6,0,0.9-0.1
			c0.2-0.1,0.5-0.2,0.6-0.4c0.2-0.2,0.3-0.5,0.5-0.8c0.1-0.3,0.2-0.7,0.3-1.2l0.8-4.4h1.1c0,0,0.1,0,0.1-0.1l0.1-0.7
			c0-0.1,0-0.1-0.1-0.1h-1.1c0,0,0.1-0.4,0.2-0.8c0.1-0.2,0.2-0.3,0.2-0.4c0.1-0.1,0.2-0.1,0.3-0.2c0.1,0,0.2-0.1,0.4-0.1
			c0.1,0,0.2,0,0.3,0c0.1,0,0.1,0,0.2,0c0.1,0,0.1,0,0.2-0.1l0.3-0.7C88.8,32.8,88.8,32.8,88.8,32.8 M73.2,40.3c0,0.1,0,0.1-0.1,0.1
			h-0.9c-0.1,0-0.1,0-0.1-0.1v-7.4c0-0.1,0-0.1,0.1-0.1h0.9c0.1,0,0.1,0,0.1,0.1V40.3z"/>
	</g>
</g>
</svg>
