<?xml version="1.0" encoding="utf-8"?>
<!-- Generator: Adobe Illustrator 24.2.1, SVG Export Plug-In . SVG Version: 6.00 Build 0)  -->
<svg version="1.1" id="Layer_1" xmlns="http://www.w3.org/2000/svg" xmlns:xlink="http://www.w3.org/1999/xlink" x="0px" y="0px"
	 viewBox="0 0 166 78" style="enable-background:new 0 0 166 78;" xml:space="preserve">
<style type="text/css">
	.st0{fill:none;stroke:#F9008E;stroke-miterlimit:10;}
	.st1{fill:#008690;}
	.st2{fill:#0069F0;}
	.st3{fill:#FFFFFF;}
	.st4{fill:#7E7FF1;}
	.st5{opacity:0.1;enable-background:new    ;}
	.st6{opacity:0.2;enable-background:new    ;}
	.st7{fill:#5453CF;}
	.st8{fill:#4F4EC1;}
	.st9{fill:none;}
	.st10{fill:#0071CB;}
	.st11{fill:#F71C00;}
	.st12{fill:#22317A;}
	.st13{fill:#2495E2;}
	.st14{fill:#020202;}
	.st15{fill:#242F3F;}
	.st16{fill:#FF9300;}
	.st17{clip-path:url(#SVGID_2_);}
	.st18{fill:#44CBF7;}
	.st19{fill:#00C391;}
	.st20{fill:#155A9D;}
	.st21{fill:#4893D3;}
	.st22{fill:#2173BC;}
	.st23{fill:#0D4873;}
	.st24{fill:#94BBE6;}
	.st25{fill:#63A340;}
	.st26{fill:#75BA3D;}
	.st27{fill:#6BAE41;}
	.st28{fill:#F62A2A;}
	.st29{fill:#3D81FB;}
	.st30{fill:#00AC47;}
	.st31{fill:#FFBA00;}
	.st32{fill:#F7292A;}
	.st33{clip-path:url(#SVGID_4_);}
	.st34{fill:#F96200;}
	.st35{fill:#FF9200;}
	.st36{fill:url(#SVGID_5_);}
	.st37{fill:#006FCA;}
	.st38{fill-rule:evenodd;clip-rule:evenodd;fill:#FFFFFF;}
	.st39{fill:url(#SVGID_6_);}
	.st40{fill:#00A0DE;}
	.st41{fill:#7D878F;}
	.st42{fill:#00A1E4;}
</style>
<g>
	<g>
		<path class="st40" d="M74.4,60c-0.3,0-0.6-0.1-0.9-0.1c-0.3-0.1-0.6-0.1-0.9-0.2c-3.3-0.9-5.8-2.9-7.4-5.9
			c-0.1-0.2-0.2-0.3-0.5-0.3c-5.4,0.6-10.6-3.2-11.5-8.6c-0.7-4.5,0.8-8.4,4.1-11.6c0.3-0.2,0.3-0.4,0.2-0.8c-0.9-4.2,0-7.9,3-11
			c0.1-0.2,0.2-0.3,0.1-0.5c-0.2-1,0.2-1.8,0.9-2.3c0.8-0.5,1.7-0.5,2.5,0.1c0.2,0.1,0.3,0.2,0.5,0.1c4.8-1.8,8.9-0.7,12.6,2.6
			c0.3,0.2,0.5,0.7,0.8,0.7c0.3,0,0.6-0.4,0.8-0.6c2.3-2,5.2-2.4,8.3-2.1c0.8,0.1,1.6,0.3,2.4,0.6c0.1,0,0.2,0.1,0.3,0.1
			c0.4,0.2,0.5,0.5,0.4,0.8c-0.1,0.3-0.4,0.5-0.8,0.4c-0.8-0.3-1.6-0.5-2.4-0.6c-3-0.3-5.7,0.1-7.8,2.3c-0.1,0.1-0.3,0.2-0.1,0.4
			c2,2.7,3.7,5.5,5.3,8.3c0,0.1,0.1,0.1,0.2,0.3c0.6-0.5,1.1-1.1,1.7-1.6c0.7-0.6,1.4-1.2,2.1-1.8c0.4-0.3,0.8-0.3,1,0
			c0.3,0.4,0.1,0.9-0.6,1.2c-1.4,0.8-2.8,1.8-3.5,3.3c0,0.1,0,0.2,0,0.3c1.5,2.7,2.8,5.5,4.2,8.3c1.1,2.2,2.6,4.1,4.6,5.5
			c0.6,0.4,1.2,0.7,1.9,1c1.2,0.5,1.5,0.8,1.9,0.3c0.9-1.4,1.3-3,1.4-4.7c0.1-3.8-0.8-7.4-2-10.9c-0.1-0.4-0.3-0.8-0.4-1.2
			c-0.1-0.4,0-0.7,0.4-0.8c0.3-0.1,0.7,0.1,0.8,0.4c1.3,3.6,2.4,7.3,2.5,11.1c0.1,2.2-0.2,4.3-1.3,6.3c-0.2,0.4,0.1,0.2,0.3,0.3
			c1.1,0,2.2-0.1,3.3-0.4c4.8-1.3,8.4-5.3,9-10.2c0.8-6.3-3.6-12.4-10-13.5c-0.2,0-0.3-0.1-0.5-0.1c-0.4-0.1-0.6-0.4-0.6-0.7
			c0.1-0.4,0.4-0.6,0.8-0.5c1.1,0.2,2.2,0.4,3.3,0.9c4.9,2.2,7.7,6,8.3,11.3c0.7,6.9-4.3,13.2-11.2,14.3c-1.1,0.2-2.2,0.2-3.2,0.1
			c-0.2,0-0.4,0-0.5,0.2c-2,2.3-4.6,3.7-7.6,4c-1.3,0.1-2.6,0-3.9-0.1c-0.2,0-0.4,0-0.6-0.1c-0.1,0-0.3,0-0.4,0.2
			c-1.7,3.2-4.5,4.8-8,5.4C77.4,59.9,75.9,60.1,74.4,60z M58.6,32.2c0.2-0.1,0.4-0.2,0.5-0.3c1.1-0.6,2.3-1.1,3.6-1.3
			c2.6-0.3,5.2-0.3,7.8,0.3c0.2,0,0.3,0,0.4-0.2c1.8-2.6,3.8-5.1,5.9-7.4c0.2-0.2,0.1-0.3,0-0.5c-0.5-0.5-1-1-1.6-1.4
			c-3.1-2.4-6.4-2.9-10.1-1.6c-0.2,0.1-0.3,0.2-0.3,0.5c0.1,1.7-1.7,2.8-3.2,2c-0.2-0.1-0.4-0.1-0.6,0.1
			C58.7,25.3,58,28.5,58.6,32.2z M63.4,52.2c0.3,0,0.5,0,0.8,0c0.2,0,0.3,0,0.2-0.3c-0.4-1.2-0.6-2.4-0.5-3.6c0.1-1.5,0.3-3,0.7-4.4
			c0.1-0.4,0-0.6-0.2-0.9c-0.6-0.6-1.1-1.2-1.6-1.8c-1.8-2.1-3.5-4.1-4.6-6.7c-0.1-0.3-0.3-0.1-0.4,0c-2.6,2.7-3.9,5.9-3.4,9.7
			C54.9,48.7,58.8,52.2,63.4,52.2z M74,43.3c0-1.4,1.2-2.5,2.6-2.2c0.3,0.1,0.5,0,0.7-0.3c0.7-0.9,1.4-1.8,2-2.7
			c0.2-0.2,0.5-0.5,0.5-0.7c0-0.3-0.4-0.4-0.6-0.7c-2.2-1.9-4.7-3.3-7.5-4.1c-0.2-0.1-0.3-0.1-0.4,0.1c-2.1,3.1-3.8,6.4-5,10
			c-0.1,0.3,0,0.4,0.2,0.6c1.6,1.5,3.3,3,5.2,4.2c0.2,0.2,0.4,0.1,0.5-0.1c0.7-0.9,1.5-1.8,2.2-2.7c0.1-0.2,0.1-0.3,0-0.5
			C74.1,43.9,74,43.6,74,43.3z M85.4,49.4c0-1.2-0.3-2.6-0.7-4c-0.8-2.5-1.9-4.9-3.7-7c-0.2-0.2-0.3-0.3-0.5,0
			c-0.8,1.1-1.6,2.1-2.4,3.2c-0.1,0.2-0.2,0.3,0,0.5c0.5,0.8,0.4,1.6-0.1,2.4c-0.6,0.7-1.3,1-2.2,0.8c-0.2,0-0.3,0-0.4,0.2
			c-0.7,0.9-1.4,1.8-2.1,2.6c-0.2,0.3-0.2,0.4,0.1,0.5c3.5,2.1,7.2,3.5,11.2,4.2c0.3,0.1,0.4,0,0.5-0.3
			C85.2,51.5,85.4,50.6,85.4,49.4z M84.3,54.1c-4.2-0.7-8.1-2.2-11.7-4.4c-0.5-0.3-0.5-0.3-1,0.1c-1.3,1.4-2.8,2.5-4.6,3.1
			c-0.8,0.3-0.8,0.3-0.3,1c2.8,4.5,8.2,5.9,13.1,4C81.8,57.2,83.3,55.9,84.3,54.1z M96.7,49.9c-0.8-0.3-1.5-0.6-2.2-0.9
			c-2.4-1.3-4.1-3.3-5.4-5.6c-1.1-1.8-1.9-3.8-2.9-5.6c-0.6-1.2-1.3-2.4-1.9-3.6c-0.9,1-1.7,1.9-2.5,2.9c-0.1,0.1,0,0.2,0.1,0.3
			c1.7,1.8,2.8,4,3.7,6.3c1.1,3,1.7,6,0.7,9.2c-0.1,0.2,0,0.2,0.2,0.3c0.4,0,0.8,0.1,1.2,0.1c2.3,0.2,4.5,0,6.6-1.2
			C95.1,51.4,95.9,50.8,96.7,49.9z M72.2,31.3c0,0.2,0.2,0.2,0.3,0.2c2.1,0.7,4,1.7,5.8,2.9c0.7,0.5,1.4,1.1,2.1,1.7
			c0.1,0.1,0.2,0.2,0.4,0c0.8-1,1.7-2,2.6-2.9c0.1-0.2,0.1-0.3,0-0.4c-1.6-2.8-3.3-5.6-5.2-8.3c-0.2-0.3-0.3-0.3-0.6,0
			c-1.9,2.1-3.7,4.3-5.3,6.6C72.3,31.1,72.2,31.2,72.2,31.3z M65.1,42c0.2-0.5,0.3-0.9,0.5-1.3c1.1-2.9,2.6-5.6,4.3-8.2
			c0.2-0.3,0.2-0.4-0.2-0.5c-1.8-0.3-3.7-0.4-5.5-0.3c-1.7,0.1-3.3,0.5-4.8,1.5c-0.2,0.1-0.3,0.3-0.2,0.5c0.6,1.4,1.3,2.6,2.2,3.8
			C62.5,39.1,63.7,40.6,65.1,42z M65.7,44.4c-0.1,0.6-0.2,1.1-0.3,1.6c-0.4,1.9-0.4,3.8,0.2,5.6c0.1,0.3,0.2,0.4,0.5,0.3
			c1.9-0.5,3.4-1.7,4.7-3.1c0.2-0.2,0.1-0.2-0.1-0.3c-0.6-0.5-1.3-0.9-1.9-1.4C67.8,46.3,66.8,45.4,65.7,44.4z"/>
		<path class="st41" d="M89.7,25.4c0-2.7,2.1-4.7,4.9-4.7c2.6,0,4.7,2.2,4.7,4.8c0,2.4-1.9,4.7-4.8,4.8
			C91.8,30.2,89.7,28.1,89.7,25.4z M94.5,27.6c1.2,0,2.2-0.9,2.2-2.1c0-1.2-1-2.2-2.1-2.2c-1.2,0-2.2,0.9-2.2,2.1
			C92.4,26.6,93.3,27.6,94.5,27.6z"/>
	</g>
</g>
</svg>
