<?xml version="1.0" encoding="utf-8"?>
<!-- Generator: Adobe Illustrator 24.2.1, SVG Export Plug-In . SVG Version: 6.00 Build 0)  -->
<svg version="1.1" id="Layer_1" xmlns="http://www.w3.org/2000/svg" xmlns:xlink="http://www.w3.org/1999/xlink" x="0px" y="0px"
	 viewBox="0 0 166 78" style="enable-background:new 0 0 166 78;" xml:space="preserve">
<style type="text/css">
	.st0{fill:none;stroke:#F9008E;stroke-miterlimit:10;}
	.st1{fill:#008690;}
	.st2{fill:#0069F0;}
	.st3{fill:#FFFFFF;}
	.st4{fill:#7E7FF1;}
	.st5{opacity:0.1;enable-background:new    ;}
	.st6{opacity:0.2;enable-background:new    ;}
	.st7{fill:#5453CF;}
	.st8{fill:#4F4EC1;}
	.st9{fill:none;}
	.st10{fill:#0071CB;}
	.st11{fill:#F71C00;}
	.st12{fill:#22317A;}
	.st13{fill:#2495E2;}
	.st14{fill:#020202;}
	.st15{fill:#242F3F;}
	.st16{fill:#FF9300;}
	.st17{clip-path:url(#SVGID_2_);}
	.st18{fill:#44CBF7;}
	.st19{fill:#00C391;}
	.st20{fill:#155A9D;}
	.st21{fill:#4893D3;}
	.st22{fill:#2173BC;}
	.st23{fill:#0D4873;}
	.st24{fill:#94BBE6;}
	.st25{fill:#63A340;}
	.st26{fill:#75BA3D;}
	.st27{fill:#6BAE41;}
	.st28{fill:#F62A2A;}
	.st29{fill:#3D81FB;}
	.st30{fill:#00AC47;}
	.st31{fill:#FFBA00;}
	.st32{fill:#F7292A;}
	.st33{clip-path:url(#SVGID_4_);}
	.st34{fill:#F96200;}
	.st35{fill:#FF9200;}
	.st36{fill:url(#SVGID_5_);}
	.st37{fill:#006FCA;}
	.st38{fill-rule:evenodd;clip-rule:evenodd;fill:#FFFFFF;}
	.st39{fill:url(#SVGID_6_);}
	.st40{fill:#00A0DE;}
	.st41{fill:#7D878F;}
	.st42{fill:#00A1E4;}
</style>
<g>
	<g>
		<defs>
			<path id="SVGID_3_" d="M100.3,24.5l-15.7-9c-1-0.6-2.3-0.6-3.3,0l-15.7,9c-1,0.6-1.6,1.7-1.6,2.8v18.1c0,1.2,0.6,2.3,1.6,2.8
				l7.9,4.5V62c0,0.5,0.4,1,1,1c0.2,0,0.3,0,0.5-0.1l25.4-14.6c1-0.6,1.6-1.7,1.6-2.8V27.3C102,26.1,101.4,25.1,100.3,24.5
				L100.3,24.5z"/>
		</defs>
		<clipPath id="SVGID_2_">
			<use xlink:href="#SVGID_3_"  style="overflow:visible;"/>
		</clipPath>
		<g class="st17">
			<path class="st34" d="M102,25.4L83,36.4L64,25.4v21.9l9.5,5.5v10.9L102,47.3V25.4z"/>
			<g>
				<path class="st35" d="M83,36.4L64,25.4l19-10.9l19,10.9L83,36.4z"/>
				<path class="st35" d="M82.7,36L64.1,25.4L64,25.4l19,10.9l19-10.9l-0.4-0.3L82.7,36z"/>
				<path class="st35" d="M83,36.5v-0.1L64.1,25.5L64,25.6L83,36.5z"/>
			</g>
		</g>
	</g>
</g>
</svg>
