<?xml version="1.0" encoding="utf-8"?>
<!-- Generator: Adobe Illustrator 24.2.1, SVG Export Plug-In . SVG Version: 6.00 Build 0)  -->
<svg version="1.1" id="Layer_1" xmlns="http://www.w3.org/2000/svg" xmlns:xlink="http://www.w3.org/1999/xlink" x="0px" y="0px"
	 viewBox="0 0 166 78" style="enable-background:new 0 0 166 78;" xml:space="preserve">
<style type="text/css">
	.st0{fill:none;stroke:#F9008E;stroke-miterlimit:10;}
	.st1{fill:#008690;}
	.st2{fill:#0069F0;}
	.st3{fill:#FFFFFF;}
	.st4{fill:#7E7FF1;}
	.st5{opacity:0.1;enable-background:new    ;}
	.st6{opacity:0.2;enable-background:new    ;}
	.st7{fill:#5453CF;}
	.st8{fill:#4F4EC1;}
	.st9{fill:none;}
	.st10{fill:#0071CB;}
	.st11{fill:#F71C00;}
	.st12{fill:#22317A;}
	.st13{fill:#2495E2;}
	.st14{fill:#020202;}
	.st15{fill:#242F3F;}
	.st16{fill:#FF9300;}
	.st17{clip-path:url(#SVGID_2_);}
	.st18{fill:#44CBF7;}
	.st19{fill:#00C391;}
	.st20{fill:#155A9D;}
	.st21{fill:#4893D3;}
	.st22{fill:#2173BC;}
	.st23{fill:#0D4873;}
	.st24{fill:#94BBE6;}
	.st25{fill:#63A340;}
	.st26{fill:#75BA3D;}
	.st27{fill:#6BAE41;}
	.st28{fill:#F62A2A;}
	.st29{fill:#3D81FB;}
	.st30{fill:#00AC47;}
	.st31{fill:#FFBA00;}
	.st32{fill:#F7292A;}
	.st33{clip-path:url(#SVGID_4_);}
	.st34{fill:#F96200;}
	.st35{fill:#FF9200;}
	.st36{fill:url(#SVGID_5_);}
	.st37{fill:#006FCA;}
	.st38{fill-rule:evenodd;clip-rule:evenodd;fill:#FFFFFF;}
	.st39{fill:url(#SVGID_6_);}
	.st40{fill:#00A0DE;}
	.st41{fill:#7D878F;}
	.st42{fill:#00A1E4;}
</style>
<g>
	<g>
		<path class="st29" d="M104,39.5c0-1.7-0.1-3-0.5-4.3H83.4V43h11.8c-0.2,1.9-1.5,4.9-4.4,6.8l0,0.3l6.4,4.8l0.4,0
			C101.7,51.2,104,45.9,104,39.5"/>
		<path class="st30" d="M83.4,60c5.8,0,10.6-1.9,14.2-5.1l-6.8-5.1c-1.8,1.2-4.2,2.1-7.4,2.1c-5.7,0-10.5-3.7-12.2-8.7l-0.3,0
			l-6.6,5l-0.1,0.2C67.8,55.3,75,60,83.4,60"/>
		<path class="st31" d="M71.2,43.2c-0.5-1.3-0.7-2.7-0.7-4.2c0-1.4,0.3-2.8,0.7-4.2l0-0.3l-6.7-5.1l-0.2,0.1c-1.5,2.8-2.3,6-2.3,9.4
			s0.8,6.6,2.3,9.4L71.2,43.2"/>
		<path class="st32" d="M83.4,26.1c4,0,6.7,1.7,8.3,3.1l6-5.8C94,20.1,89.2,18,83.4,18c-8.4,0-15.6,4.7-19.1,11.6l6.9,5.3
			C73,29.8,77.8,26.1,83.4,26.1"/>
	</g>
</g>
</svg>
