<?xml version="1.0" encoding="utf-8"?>
<!-- Generator: Adobe Illustrator 24.2.1, SVG Export Plug-In . SVG Version: 6.00 Build 0)  -->
<svg version="1.1" id="Layer_1" xmlns="http://www.w3.org/2000/svg" xmlns:xlink="http://www.w3.org/1999/xlink" x="0px" y="0px"
	 viewBox="0 0 166 78" style="enable-background:new 0 0 166 78;" xml:space="preserve">
<style type="text/css">
	.st0{fill:none;stroke:#F9008E;stroke-miterlimit:10;}
	.st1{fill:#008690;}
	.st2{fill:#0069F0;}
	.st3{fill:#FFFFFF;}
	.st4{fill:#7E7FF1;}
	.st5{opacity:0.1;enable-background:new    ;}
	.st6{opacity:0.2;enable-background:new    ;}
	.st7{fill:#5453CF;}
	.st8{fill:#4F4EC1;}
	.st9{fill:none;}
	.st10{fill:#0071CB;}
	.st11{fill:#F71C00;}
	.st12{fill:#22317A;}
	.st13{fill:#2495E2;}
	.st14{fill:#020202;}
	.st15{fill:#242F3F;}
	.st16{fill:#FF9300;}
	.st17{clip-path:url(#SVGID_2_);}
	.st18{fill:#44CBF7;}
	.st19{fill:#00C391;}
	.st20{fill:#155A9D;}
	.st21{fill:#4893D3;}
	.st22{fill:#2173BC;}
	.st23{fill:#0D4873;}
	.st24{fill:#94BBE6;}
	.st25{fill:#63A340;}
	.st26{fill:#75BA3D;}
	.st27{fill:#6BAE41;}
	.st28{fill:#F62A2A;}
	.st29{fill:#3D81FB;}
	.st30{fill:#00AC47;}
	.st31{fill:#FFBA00;}
	.st32{fill:#F7292A;}
	.st33{clip-path:url(#SVGID_4_);}
	.st34{fill:#F96200;}
	.st35{fill:#FF9200;}
	.st36{fill:url(#SVGID_5_);}
	.st37{fill:#006FCA;}
	.st38{fill-rule:evenodd;clip-rule:evenodd;fill:#FFFFFF;}
	.st39{fill:url(#SVGID_6_);}
	.st40{fill:#00A0DE;}
	.st41{fill:#7D878F;}
	.st42{fill:#00A1E4;}
</style>
<g>
	<g>
		<path class="st25" d="M81.1,29.7c-0.1-0.5-0.5-0.8-1-0.8c-2.5,0-5.1,0-7.6,0c-0.6,0-0.9,0.3-1.1,0.8c0-0.4,0-0.8,0.4-1.1
			c0.2-0.2,0.4-0.3,0.7-0.3c2.5,0,5.1,0,7.6,0C80.7,28.4,81.3,29.1,81.1,29.7L81.1,29.7z M94.6,29.7c-0.1-0.5-0.5-0.8-1-0.8
			c-2.5,0-5,0-7.5,0c-0.4,0-0.8,0.2-1,0.6c0,0.1,0,0.1-0.1,0.2c-0.1-0.5,0.1-0.9,0.5-1.2c0.2-0.1,0.3-0.1,0.5-0.1c2.5,0,5.1,0,7.6,0
			C94.2,28.4,94.8,29.1,94.6,29.7L94.6,29.7z M91.3,38.6c0.1,0.2,0,0.4,0,0.5c-0.2,1.4-1,2.3-2.4,2.6c-0.3,0.1-0.6,0.1-0.7,0.5
			c0-0.1,0-0.2,0-0.3c0-0.4,0.1-0.5,0.6-0.6c0.6-0.1,1.2-0.3,1.6-0.8C90.9,40,91.2,39.4,91.3,38.6z M77.8,38.6c0.1,0.2,0,0.4,0,0.6
			c-0.2,1.4-1,2.3-2.5,2.6c-0.3,0.1-0.6,0.1-0.7,0.4c0-0.2-0.1-0.5,0.1-0.7c0.1-0.1,0.2-0.2,0.4-0.2c0.4-0.1,0.9-0.2,1.3-0.4
			c0.7-0.4,1.2-1.1,1.4-1.9C77.8,38.9,77.8,38.8,77.8,38.6L77.8,38.6z"/>
		<path class="st26" d="M104.5,31.5c-0.8-4.2-2.6-7.9-5.5-11c-1.2-1.3-2.6-2.5-4.1-3.5c-2.8-1.8-5.9-2.9-9.3-3.3
			c-0.4,0-0.8,0-1.2-0.1h-2.9c0,0.1-0.1,0-0.2,0.1c-0.7,0.1-1.5,0.2-2.2,0.3c-5.4,1-9.8,3.7-13.2,7.9c-2.8,3.5-4.4,7.5-4.7,12
			c-0.2,2.2,0,4.3,0.5,6.4c0.4,1.6,0.9,3.1,1.6,4.6c0.1,0.1,0.1,0.2,0.2,0.4c1.2,2.3,2.7,4.3,4.5,6.1c1,0.9,2,1.8,3.2,2.5
			c3.5,2.2,7.3,3.4,11.5,3.4c0.3,0,0.3,0.1,0.3,0.3c0,2.2,0,4.5,0,6.7c0,0.1,0,0.2,0,0.3c0.1,0,0.1,0,0.2-0.1c4.2-2,8-4.4,11.4-7.6
			c0.7-0.6,1.3-1.3,2-1.9c0.3-0.3,0.5-0.6,0.8-0.9c0.4-0.4,0.8-0.9,1.2-1.4c0.5-0.5,0.9-1.1,1.3-1.7c0.9-1.3,1.7-2.6,2.3-4
			c0.3-0.7,0.7-1.4,0.9-2.2c0,0,0,0,0,0c0.8-2,1.3-4.1,1.5-6.2c0.1-0.7,0.2-1.5,0.2-2.2C104.9,34.7,104.8,33.1,104.5,31.5
			L104.5,31.5z M76.4,44.9c-0.4,0.1-0.8,0.2-1.1,0.2c-0.3,0-0.5-0.1-0.6-0.4l0-2.5c0-0.2-0.1-0.5,0.1-0.7c0.1-0.1,0.2-0.2,0.4-0.2
			c0.4-0.1,0.9-0.2,1.3-0.4c0.7-0.4,1.2-1.1,1.4-1.9c0-0.1,0.1-0.3,0.1-0.4c-1.7,0-3.5,0-5.2,0c-0.2,0-0.3,0-0.4,0
			c-0.4-0.1-0.8-0.5-0.8-1c0-2.6,0-5.2,0-7.9c0-0.4,0-0.8,0.4-1.1c0.2-0.2,0.4-0.3,0.7-0.3c2.5,0,5.1,0,7.6,0c0.7,0,1.2,0.7,1,1.3
			c0.1,0.1,0,0.3,0,0.4c0,2.9,0,5.7,0,8.6c0,1.9-0.8,3.5-2.1,4.8c-0.1,0.1-0.1,0.1-0.2,0.2C78,44.2,77.3,44.7,76.4,44.9L76.4,44.9z
			 M90.5,44.7C90.4,44.7,90.4,44.7,90.5,44.7l-0.2,0.1c-0.5,0.1-1,0.3-1.5,0.3c-0.4,0.1-0.7-0.2-0.7-0.6c0-0.3,0-0.5,0-0.8l0-1.5
			c0-0.1,0-0.2,0-0.3c0-0.4,0.1-0.5,0.6-0.6c0.6-0.1,1.2-0.3,1.6-0.8c0.6-0.5,0.8-1.2,1-1.9l-4.8,0c-0.2,0-0.3,0-0.5,0
			c-0.7,0-1.1-0.5-1.1-1.1c0-2.6,0-5.2,0-7.8c0,0,0,0,0-0.1c-0.1-0.5,0.1-0.9,0.5-1.2c0.2-0.1,0.3-0.1,0.5-0.1c2.5,0,5.1,0,7.6,0
			c0.7,0,1.2,0.7,1,1.3c0.1,0.1,0,0.3,0,0.4c0,2.9,0,5.7,0,8.6c0,2.6-1.6,4.9-4,5.9C90.6,44.6,90.5,44.7,90.5,44.7L90.5,44.7z"/>
		<path class="st3" d="M90.3,44.6c-0.5,0.1-1,0.3-1.5,0.3c-0.4,0.1-0.7-0.2-0.7-0.6c0-0.3,0-0.5,0-0.8l0-1.5
			c0.1-0.3,0.4-0.4,0.7-0.5c1.4-0.3,2.2-1.2,2.4-2.6c0-0.2,0.1-0.4,0-0.5l-4.8,0c-0.2,0-0.3,0-0.5,0c-0.7,0-1.1-0.5-1.1-1.1
			c0-2.6,0-5.2,0-7.8c0,0,0,0,0-0.1c0.1,0,0.1-0.1,0.1-0.2c0.2-0.4,0.5-0.6,1-0.6c2.5,0,5,0,7.5,0c0.5,0,0.9,0.3,1,0.8
			c0.1,0.1,0,0.3,0,0.4c0,2.9,0,5.7,0,8.6c0,2.6-1.6,4.9-4,5.9c-0.1,0-0.1,0.1-0.2,0.1C90.4,44.6,90.4,44.6,90.3,44.6
			C90.4,44.6,90.3,44.6,90.3,44.6L90.3,44.6z M78.7,43.5c-0.7,0.6-1.5,1-2.4,1.2c-0.4,0.1-0.8,0.2-1.1,0.2c-0.3,0-0.5-0.1-0.6-0.4
			l0-2.5c0.1-0.3,0.4-0.4,0.7-0.4c1.4-0.3,2.2-1.2,2.5-2.6c0-0.2,0.1-0.4,0-0.6c-1.7,0-3.5,0-5.2,0c-0.2,0-0.3,0-0.4,0
			c-0.4-0.1-0.8-0.5-0.8-1c0-2.6,0-5.2,0-7.9c0.2-0.5,0.5-0.8,1.1-0.8c2.5,0,5.1,0,7.6,0c0.5,0,0.9,0.3,1,0.8c0.1,0.1,0,0.3,0,0.4
			c0,2.9,0,5.7,0,8.6c0,1.9-0.8,3.5-2.1,4.8C78.9,43.4,78.8,43.4,78.7,43.5L78.7,43.5z"/>
	</g>
</g>
</svg>
