<svg width="168" height="79" viewBox="0 0 168 79" fill="none" xmlns="http://www.w3.org/2000/svg">
<rect opacity="0.01" x="1" width="166" height="78" fill="#8F8F8F" stroke="#979797"/>
<g clip-path="url(#clip0_7335_33328)">
<path d="M72.5319 40.6281V26.3916H66.3116C65.4322 26.393 64.5894 26.7435 63.9684 27.3662C63.3474 27.9888 62.9991 28.8326 63 29.712V59.1409C63 60.6215 64.7872 61.3574 65.8298 60.3149L72.6721 53.4726H92.1564C92.5914 53.4729 93.0222 53.3875 93.4242 53.2212C93.8261 53.0549 94.1913 52.811 94.4989 52.5034C94.8065 52.1958 95.0504 51.8306 95.2167 51.4287C95.383 51.0267 95.4684 50.5959 95.4681 50.1609V43.9407H75.8523C74.9728 43.9416 74.1289 43.5931 73.5062 42.972C72.8835 42.3508 72.5331 41.5077 72.5319 40.6281Z" fill="#00AC47"/>
<path d="M101.685 17.001H75.8523C75.4173 17.0006 74.9865 17.0861 74.5846 17.2524C74.1826 17.4187 73.8174 17.6626 73.5098 17.9702C73.2023 18.2777 72.9583 18.643 72.792 19.0449C72.6257 19.4468 72.5403 19.8776 72.5407 20.3126V26.3927H92.1564C92.5911 26.3928 93.0215 26.4786 93.4231 26.6451C93.8246 26.8116 94.1894 27.0556 94.4966 27.3631C94.8038 27.6707 95.0474 28.0357 95.2135 28.4374C95.3796 28.8392 95.4649 29.2697 95.4646 29.7044V43.9321H101.685C102.12 43.9325 102.551 43.8471 102.953 43.6808C103.354 43.5145 103.72 43.2705 104.027 42.963C104.335 42.6554 104.579 42.2902 104.745 41.8882C104.911 41.4863 104.997 41.0555 104.996 40.6205V20.3117C104.997 19.8768 104.911 19.4461 104.745 19.0443C104.578 18.6425 104.335 18.2773 104.027 17.9699C103.719 17.6624 103.354 17.4185 102.952 17.2523C102.55 17.086 102.12 17.0006 101.685 17.001Z" fill="#5BB974"/>
<path d="M92.1564 26.3916H72.5319V40.6194C72.5315 41.0544 72.6169 41.4852 72.7832 41.8871C72.9495 42.289 73.1935 42.6543 73.501 42.9618C73.8086 43.2694 74.1738 43.5133 74.5758 43.6796C74.9777 43.846 75.4085 43.9314 75.8435 43.931H95.4593V29.712C95.4615 29.2768 95.3777 28.8455 95.2127 28.4428C95.0477 28.0401 94.8047 27.674 94.4978 27.3654C94.1909 27.0569 93.8261 26.812 93.4243 26.6449C93.0225 26.4778 92.5916 26.3917 92.1564 26.3916Z" fill="#00832D"/>
</g>
<defs>
<clipPath id="clip0_7335_33328">
<rect width="42" height="43.803" fill="white" transform="translate(63 17)"/>
</clipPath>
</defs>
</svg>
