<?xml version="1.0" encoding="utf-8"?>
<!-- Generator: Adobe Illustrator 24.2.1, SVG Export Plug-In . SVG Version: 6.00 Build 0)  -->
<svg version="1.1" id="Layer_1" xmlns="http://www.w3.org/2000/svg" xmlns:xlink="http://www.w3.org/1999/xlink" x="0px" y="0px"
	 viewBox="0 0 166 78" style="enable-background:new 0 0 166 78;" xml:space="preserve">
<style type="text/css">
	.st0{fill:none;stroke:#F9008E;stroke-miterlimit:10;}
	.st1{fill:#008690;}
	.st2{fill:#0069F0;}
	.st3{fill:#FFFFFF;}
	.st4{fill:#7E7FF1;}
	.st5{opacity:0.1;enable-background:new    ;}
	.st6{opacity:0.2;enable-background:new    ;}
	.st7{fill:#5453CF;}
	.st8{fill:#4F4EC1;}
	.st9{fill:none;}
	.st10{fill:#0071CB;}
	.st11{fill:#F71C00;}
	.st12{fill:#22317A;}
	.st13{fill:#2495E2;}
	.st14{fill:#020202;}
	.st15{fill:#242F3F;}
	.st16{fill:#FF9300;}
	.st17{clip-path:url(#SVGID_2_);}
	.st18{fill:#44CBF7;}
	.st19{fill:#00C391;}
	.st20{fill:#155A9D;}
	.st21{fill:#4893D3;}
	.st22{fill:#2173BC;}
	.st23{fill:#0D4873;}
	.st24{fill:#94BBE6;}
	.st25{fill:#63A340;}
	.st26{fill:#75BA3D;}
	.st27{fill:#6BAE41;}
	.st28{fill:#F62A2A;}
	.st29{fill:#3D81FB;}
	.st30{fill:#00AC47;}
	.st31{fill:#FFBA00;}
	.st32{fill:#F7292A;}
	.st33{clip-path:url(#SVGID_4_);}
	.st34{fill:#F96200;}
	.st35{fill:#FF9200;}
	.st36{fill:url(#SVGID_5_);}
	.st37{fill:#006FCA;}
	.st38{fill-rule:evenodd;clip-rule:evenodd;fill:#FFFFFF;}
	.st39{fill:url(#SVGID_6_);}
	.st40{fill:#00A0DE;}
	.st41{fill:#7D878F;}
	.st42{fill:#00A1E4;}
</style>
<g>
	<g>
		<path class="st28" d="M91.6,29.6l4.5-4.5l0.3-1.9c-8.2-7.5-21.3-6.7-28.8,1.8c-2.1,2.3-3.6,5.3-4.4,8.3l1.6-0.2l9-1.5l0.7-0.7
			c4-4.4,10.8-5,15.5-1.3L91.6,29.6z"/>
		<path class="st29" d="M102.5,33.1c-1-3.8-3.2-7.3-6.1-9.9l-6.3,6.4c2.7,2.2,4.2,5.5,4.1,9v1.1c3.1,0,5.6,2.5,5.6,5.7
			c0,3.1-2.5,5.6-5.6,5.6H82.9l-1.1,1.2v6.8l1.1,1.1h11.3c8.1,0.1,14.7-6.4,14.8-14.6C109,40.5,106.6,35.9,102.5,33.1"/>
		<path class="st30" d="M71.6,60h11.3v-9.1H71.6c-0.8,0-1.6-0.2-2.3-0.5l-1.6,0.5l-4.6,4.5L62.7,57C65.3,58.9,68.4,60,71.6,60"/>
		<path class="st31" d="M71.6,30.5c-8.1,0-14.6,6.7-14.6,14.8c0,4.6,2.1,8.8,5.7,11.6l6.6-6.6c-2.8-1.3-4.1-4.6-2.8-7.5
			c1.3-2.9,4.6-4.1,7.5-2.8c1.3,0.6,2.3,1.6,2.8,2.8l6.6-6.6C80.5,32.7,76.2,30.5,71.6,30.5"/>
	</g>
</g>
</svg>
