<svg width="168" height="79" viewBox="0 0 168 79" fill="none" xmlns="http://www.w3.org/2000/svg">
<rect opacity="0.01" x="1" width="166" height="78" fill="#8F8F8F" stroke="#979797"/>
<g clip-path="url(#clip0_7335_33336)">
<path d="M84.0109 59.9783C95.6029 59.9783 105 50.5812 105 38.9892C105 27.3972 95.6029 18 84.0109 18C72.4189 18 63.0217 27.3972 63.0217 38.9892C63.0217 50.5812 72.4189 59.9783 84.0109 59.9783Z" fill="#1A73E8"/>
<path d="M91.6491 48.0551H77.3462C75.3122 48.0551 73.5378 46.5188 73.5378 44.4848V44.4631V45.6533C73.5378 47.6873 75.3122 49.4617 77.3461 49.4617H91.6491C93.7047 49.4617 95.4574 47.6657 95.4574 45.6533V44.4632C95.4574 46.4971 93.6831 48.0551 91.6491 48.0551ZM73.5162 37.7986V36.1757L70.8547 31.7831C70.7032 31.5451 70.6383 31.3287 70.66 31.1123V32.9732C70.66 33.1463 70.7248 33.3195 70.833 33.5142L73.5162 37.7986Z" fill="#185ABC"/>
<path d="M91.6492 30.3984H71.612C70.8114 30.3984 70.3571 31.0909 70.898 31.8265L73.5162 36.3706V44.485C73.5162 46.5622 75.031 48.2933 77.0865 48.2933H91.6275C93.6832 48.2933 95.4358 46.5406 95.4358 44.485V34.2284C95.4575 32.1511 93.7048 30.3984 91.6492 30.3984Z" fill="white"/>
<path d="M91.4112 36.1326H77.5842C76.9783 36.1326 76.3941 35.7648 76.3941 35.1805C76.3941 34.5963 76.9784 34.2285 77.5842 34.2285H91.411C92.0169 34.2285 92.6012 34.5963 92.6012 35.1805C92.6012 35.7648 92.0169 36.1326 91.411 36.1326H91.4112ZM91.4112 39.941H77.5842C76.9783 39.941 76.3941 39.5732 76.3941 38.9889C76.3941 38.4046 76.9784 38.0368 77.5842 38.0368H91.411C92.0169 38.0368 92.6012 38.4047 92.6012 38.9889C92.6012 39.5732 92.0169 39.941 91.411 39.941H91.4112ZM87.5812 43.771H77.5626C76.9568 43.771 76.3726 43.4032 76.3726 42.8189C76.3726 42.2347 76.9568 41.8668 77.5626 41.8668H87.5812C88.187 41.8668 88.7712 42.2346 88.7712 42.8189C88.7712 43.4032 88.187 43.771 87.5812 43.771Z" fill="#8AB4F8"/>
<path d="M105 38.8809C104.957 48.0772 98.9629 55.8886 90.6971 58.6583C88.5981 59.3723 86.3477 59.7402 84.0109 59.7402C72.4559 59.7402 63.0865 50.4141 63.0216 38.8809V39.0107C63.0216 50.6089 72.4127 59.9998 84.0109 59.9998C86.3477 59.9998 88.5981 59.6103 90.6971 58.9179C99.0061 56.1266 105 48.2719 105 39.0107V38.8809Z" fill="#185ABC"/>
<path d="M90.6754 19.0817C88.5765 18.3678 86.3261 18 83.9892 18C72.391 17.9999 63 27.3909 63 38.9891V39.1189C63.0649 27.5856 72.4342 18.2595 83.9892 18.2595C86.3261 18.2595 88.5765 18.649 90.6754 19.3415C98.9629 22.1112 104.935 29.9226 104.978 39.1189V38.9891C105 29.7278 99.0061 21.8732 90.6754 19.0817Z" fill="#8AB4F8"/>
</g>
<defs>
<clipPath id="clip0_7335_33336">
<rect width="42" height="42" fill="white" transform="translate(63 18)"/>
</clipPath>
</defs>
</svg>
