<svg width="12" height="7" viewBox="0 0 12 7" fill="none" xmlns="http://www.w3.org/2000/svg">
<path d="M-4.24058e-08 0.970131C-5.41039e-08 1.23775 0.0920505 1.46356 0.276151 1.64755L5.23849 6.65711C5.46443 6.89128 5.70711 7 6 7C6.29289 7 6.54393 6.89128 6.76151 6.66547L11.7238 1.64755C11.9079 1.46356 12 1.23775 12 0.970131C12 0.434886 11.5732 -1.86551e-08 11.0377 -4.20654e-08C10.7699 -5.37705e-08 10.5272 0.108722 10.3264 0.301075L5.99163 4.70012L1.66527 0.301075C1.4728 0.108721 1.23013 -4.70766e-07 0.962343 -4.82471e-07C0.426778 -5.05882e-07 -1.90095e-08 0.434886 -4.24058e-08 0.970131Z" fill="#333333"/>
</svg>
