<svg xmlns="http://www.w3.org/2000/svg" width="17" height="17" viewBox="0 0 17 17">
  <defs>
    <style>
      .cls-1 {
        fill: #ccc;
        fill-rule: evenodd;
      }
    </style>
  </defs>
  <path id="close.svg" class="cls-1" d="M1128.5,112a8.5,8.5,0,1,0,8.5,8.5A8.5,8.5,0,0,0,1128.5,112Zm3.95,11.155a0.916,0.916,0,0,1-.65,1.564,0.91,0.91,0,0,1-.65-0.268l-2.65-2.654-2.66,2.654a0.914,0.914,0,0,1-1.29-1.3l2.65-2.654-2.65-2.654a0.914,0.914,0,1,1,1.29-1.3l2.66,2.654,2.65-2.654a0.921,0.921,0,0,1,1.3,0,0.931,0.931,0,0,1,0,1.3l-2.66,2.653Z" transform="translate(-1120 -112)"/>
</svg>
