<svg width="468" height="257" viewBox="0 0 468 257" fill="none" xmlns="http://www.w3.org/2000/svg">
<path fill-rule="evenodd" clip-rule="evenodd" d="M424.5 138.684H307.5V138.316H424.5V138.684Z" fill="#979797"/>
<path fill-rule="evenodd" clip-rule="evenodd" d="M318.5 31.6844H211.5V31.3156H318.5V31.6844Z" fill="#979797"/>
<path fill-rule="evenodd" clip-rule="evenodd" d="M271.5 43.6841H209.5V43.3158H271.5V43.6841Z" fill="#979797"/>
<path fill-rule="evenodd" clip-rule="evenodd" d="M265.15 87.6751H315.5C343.264 87.6751 365.851 65.0879 365.851 37.3251C365.851 9.56132 343.264 -13.0259 315.5 -13.0259H214.325C186.561 -13.0259 163.975 9.56132 163.975 37.3251V87.6751H265.15ZM163.974 188.851H214.325H264.675V88.1489H163.974V188.851ZM163.975 239.675V290.026H315.5C343.264 290.026 365.851 267.439 365.851 239.675C365.851 211.912 343.264 189.325 315.5 189.325H265.15H214.325C186.561 189.325 163.975 211.912 163.975 239.675V239.675ZM366.325 290.026H466.69L366.325 189.62V290.026ZM366.701 189.325L467.025 289.69V189.325H366.701ZM322.429 189.325C344.921 192.404 362.771 210.254 365.851 232.747V189.325H322.429ZM265.15 145.429V188.851H308.571C286.08 185.771 268.229 167.921 265.15 145.429V145.429ZM308.571 88.1489H265.149V131.571C268.229 109.079 286.079 91.2288 308.571 88.1489V88.1489ZM467.025 138.5C467.025 110.737 444.439 88.1489 416.675 88.1489H315.5C287.736 88.1489 265.149 110.737 265.149 138.5C265.149 166.263 287.736 188.851 315.5 188.851H365.85H467.025V138.5ZM366.088 42.2246C363.835 65.6659 345.594 84.5034 322.429 87.675H409.747C386.582 84.5034 368.341 65.6659 366.088 42.2246V42.2246ZM467.025 87.675V37.325C467.025 9.56125 444.439 -13.026 416.675 -13.026C388.912 -13.026 366.325 9.56125 366.325 37.325C366.325 65.0878 388.912 87.675 416.675 87.675H467.025ZM214.325 -13.5H315.5C341.872 -13.5 363.615 6.69035 366.088 32.4249C368.561 6.69035 390.303 -13.5 416.675 -13.5C444.7 -13.5 467.5 9.3 467.5 37.325V88.149H423.604C448.362 91.5391 467.5 112.825 467.5 138.5V188.851V189.325V290.5H365.85V246.604C362.46 271.362 341.175 290.5 315.5 290.5H163.5V239.675C163.5 214.001 182.638 192.715 207.396 189.325H163.5V88.149V87.675V37.325C163.5 9.3 186.3 -13.5 214.325 -13.5V-13.5Z" fill="#979797"/>
<path fill-rule="evenodd" clip-rule="evenodd" d="M236.927 114.156C235.967 114.156 235.185 114.938 235.185 115.898C235.185 116.858 235.967 117.639 236.927 117.639C237.887 117.639 238.669 116.858 238.669 115.898C238.669 114.938 237.887 114.156 236.927 114.156M236.927 118.114C235.705 118.114 234.71 117.119 234.71 115.898C234.71 114.676 235.705 113.682 236.927 113.682C238.148 113.682 239.143 114.676 239.143 115.898C239.143 117.119 238.148 118.114 236.927 118.114" fill="#979797"/>
<path fill-rule="evenodd" clip-rule="evenodd" d="M227.887 114.156C226.927 114.156 226.145 114.938 226.145 115.898C226.145 116.858 226.927 117.64 227.887 117.64C228.847 117.64 229.628 116.858 229.628 115.898C229.628 114.938 228.847 114.156 227.887 114.156M227.886 118.114C226.664 118.114 225.67 117.119 225.67 115.898C225.67 114.676 226.664 113.682 227.886 113.682C229.108 113.682 230.102 114.676 230.102 115.898C230.102 117.119 229.108 118.114 227.886 118.114" fill="#979797"/>
<path fill-rule="evenodd" clip-rule="evenodd" d="M218.846 114.156C217.885 114.156 217.103 114.938 217.103 115.898C217.103 116.858 217.885 117.639 218.846 117.639C219.806 117.639 220.587 116.858 220.587 115.898C220.587 114.938 219.806 114.156 218.846 114.156M218.846 118.114C217.624 118.114 216.629 117.119 216.629 115.898C216.629 114.676 217.624 113.682 218.846 113.682C220.067 113.682 221.062 114.676 221.062 115.898C221.062 117.119 220.067 118.114 218.846 118.114" fill="#979797"/>
<path fill-rule="evenodd" clip-rule="evenodd" d="M209.804 114.156C208.844 114.156 208.062 114.938 208.062 115.898C208.062 116.858 208.844 117.639 209.804 117.639C210.765 117.639 211.546 116.858 211.546 115.898C211.546 114.938 210.765 114.156 209.804 114.156M209.804 118.114C208.582 118.114 207.588 117.119 207.588 115.898C207.588 114.676 208.582 113.682 209.804 113.682C211.025 113.682 212.02 114.676 212.02 115.898C212.02 117.119 211.025 118.114 209.804 118.114" fill="#979797"/>
<path fill-rule="evenodd" clip-rule="evenodd" d="M200.764 114.156C199.803 114.156 199.021 114.938 199.021 115.898C199.021 116.858 199.803 117.639 200.764 117.639C201.724 117.639 202.505 116.858 202.505 115.898C202.505 114.938 201.724 114.156 200.764 114.156M200.764 118.114C199.542 118.114 198.547 117.119 198.547 115.898C198.547 114.676 199.542 113.682 200.764 113.682C201.985 113.682 202.979 114.676 202.979 115.898C202.979 117.119 201.985 118.114 200.764 118.114" fill="#979797"/>
<path fill-rule="evenodd" clip-rule="evenodd" d="M191.723 114.156C190.763 114.156 189.981 114.938 189.981 115.898C189.981 116.858 190.763 117.64 191.723 117.64C192.683 117.64 193.465 116.858 193.465 115.898C193.465 114.938 192.683 114.156 191.723 114.156M191.723 118.114C190.501 118.114 189.507 117.119 189.507 115.898C189.507 114.676 190.501 113.682 191.723 113.682C192.944 113.682 193.938 114.676 193.938 115.898C193.938 117.119 192.944 118.114 191.723 118.114" fill="#979797"/>
<path fill-rule="evenodd" clip-rule="evenodd" d="M236.927 123.197C235.967 123.197 235.185 123.978 235.185 124.939C235.185 125.899 235.967 126.681 236.927 126.681C237.887 126.681 238.669 125.899 238.669 124.939C238.669 123.978 237.887 123.197 236.927 123.197M236.927 127.155C235.705 127.155 234.71 126.16 234.71 124.939C234.71 123.717 235.705 122.722 236.927 122.722C238.148 122.722 239.143 123.717 239.143 124.939C239.143 126.16 238.148 127.155 236.927 127.155" fill="#979797"/>
<path fill-rule="evenodd" clip-rule="evenodd" d="M227.887 123.197C226.927 123.197 226.145 123.979 226.145 124.939C226.145 125.899 226.927 126.681 227.887 126.681C228.847 126.681 229.628 125.899 229.628 124.939C229.628 123.979 228.847 123.197 227.887 123.197M227.886 127.155C226.664 127.155 225.67 126.16 225.67 124.939C225.67 123.717 226.664 122.723 227.886 122.723C229.108 122.723 230.102 123.717 230.102 124.939C230.102 126.16 229.108 127.155 227.886 127.155" fill="#979797"/>
<path fill-rule="evenodd" clip-rule="evenodd" d="M218.846 123.197C217.885 123.197 217.103 123.978 217.103 124.939C217.103 125.899 217.885 126.681 218.846 126.681C219.806 126.681 220.587 125.899 220.587 124.939C220.587 123.978 219.806 123.197 218.846 123.197M218.846 127.155C217.624 127.155 216.629 126.16 216.629 124.939C216.629 123.717 217.624 122.722 218.846 122.722C220.067 122.722 221.062 123.717 221.062 124.939C221.062 126.16 220.067 127.155 218.846 127.155" fill="#979797"/>
<path fill-rule="evenodd" clip-rule="evenodd" d="M209.804 123.197C208.844 123.197 208.062 123.978 208.062 124.939C208.062 125.899 208.844 126.681 209.804 126.681C210.765 126.681 211.546 125.899 211.546 124.939C211.546 123.978 210.765 123.197 209.804 123.197M209.804 127.155C208.582 127.155 207.588 126.16 207.588 124.939C207.588 123.717 208.582 122.722 209.804 122.722C211.025 122.722 212.02 123.717 212.02 124.939C212.02 126.16 211.025 127.155 209.804 127.155" fill="#979797"/>
<path fill-rule="evenodd" clip-rule="evenodd" d="M200.764 123.197C199.803 123.197 199.021 123.978 199.021 124.939C199.021 125.899 199.803 126.681 200.764 126.681C201.724 126.681 202.505 125.899 202.505 124.939C202.505 123.978 201.724 123.197 200.764 123.197M200.764 127.155C199.542 127.155 198.547 126.16 198.547 124.939C198.547 123.717 199.542 122.722 200.764 122.722C201.985 122.722 202.979 123.717 202.979 124.939C202.979 126.16 201.985 127.155 200.764 127.155" fill="#979797"/>
<path fill-rule="evenodd" clip-rule="evenodd" d="M191.723 123.197C190.763 123.197 189.981 123.979 189.981 124.939C189.981 125.899 190.763 126.681 191.723 126.681C192.683 126.681 193.465 125.899 193.465 124.939C193.465 123.979 192.683 123.197 191.723 123.197M191.723 127.155C190.501 127.155 189.507 126.16 189.507 124.939C189.507 123.717 190.501 122.723 191.723 122.723C192.944 122.723 193.938 123.717 193.938 124.939C193.938 126.16 192.944 127.155 191.723 127.155" fill="#979797"/>
<path fill-rule="evenodd" clip-rule="evenodd" d="M236.927 132.238C235.967 132.238 235.185 133.019 235.185 133.98C235.185 134.94 235.967 135.721 236.927 135.721C237.887 135.721 238.669 134.94 238.669 133.98C238.669 133.019 237.887 132.238 236.927 132.238M236.927 136.196C235.705 136.196 234.71 135.201 234.71 133.98C234.71 132.758 235.705 131.764 236.927 131.764C238.148 131.764 239.143 132.758 239.143 133.98C239.143 135.201 238.148 136.196 236.927 136.196" fill="#979797"/>
<path fill-rule="evenodd" clip-rule="evenodd" d="M227.887 132.238C226.927 132.238 226.145 133.019 226.145 133.98C226.145 134.94 226.927 135.721 227.887 135.721C228.847 135.721 229.628 134.94 229.628 133.98C229.628 133.019 228.847 132.238 227.887 132.238M227.886 136.196C226.664 136.196 225.67 135.201 225.67 133.98C225.67 132.758 226.664 131.764 227.886 131.764C229.108 131.764 230.102 132.758 230.102 133.98C230.102 135.201 229.108 136.196 227.886 136.196" fill="#979797"/>
<path fill-rule="evenodd" clip-rule="evenodd" d="M218.846 132.238C217.885 132.238 217.103 133.019 217.103 133.98C217.103 134.94 217.885 135.721 218.846 135.721C219.806 135.721 220.587 134.94 220.587 133.98C220.587 133.019 219.806 132.238 218.846 132.238M218.846 136.196C217.624 136.196 216.629 135.201 216.629 133.98C216.629 132.758 217.624 131.764 218.846 131.764C220.067 131.764 221.062 132.758 221.062 133.98C221.062 135.201 220.067 136.196 218.846 136.196" fill="#979797"/>
<path fill-rule="evenodd" clip-rule="evenodd" d="M209.804 132.238C208.844 132.238 208.062 133.019 208.062 133.98C208.062 134.94 208.844 135.721 209.804 135.721C210.765 135.721 211.546 134.94 211.546 133.98C211.546 133.019 210.765 132.238 209.804 132.238M209.804 136.196C208.582 136.196 207.588 135.201 207.588 133.98C207.588 132.758 208.582 131.764 209.804 131.764C211.025 131.764 212.02 132.758 212.02 133.98C212.02 135.201 211.025 136.196 209.804 136.196" fill="#979797"/>
<path fill-rule="evenodd" clip-rule="evenodd" d="M200.764 132.238C199.803 132.238 199.021 133.019 199.021 133.98C199.021 134.94 199.803 135.721 200.764 135.721C201.724 135.721 202.505 134.94 202.505 133.98C202.505 133.019 201.724 132.238 200.764 132.238M200.764 136.196C199.542 136.196 198.547 135.201 198.547 133.98C198.547 132.758 199.542 131.764 200.764 131.764C201.985 131.764 202.979 132.758 202.979 133.98C202.979 135.201 201.985 136.196 200.764 136.196" fill="#979797"/>
<path fill-rule="evenodd" clip-rule="evenodd" d="M191.723 132.238C190.763 132.238 189.981 133.019 189.981 133.98C189.981 134.94 190.763 135.721 191.723 135.721C192.683 135.721 193.465 134.94 193.465 133.98C193.465 133.019 192.683 132.238 191.723 132.238M191.723 136.196C190.501 136.196 189.507 135.201 189.507 133.98C189.507 132.758 190.501 131.764 191.723 131.764C192.944 131.764 193.938 132.758 193.938 133.98C193.938 135.201 192.944 136.196 191.723 136.196" fill="#979797"/>
<path fill-rule="evenodd" clip-rule="evenodd" d="M236.927 141.279C235.967 141.279 235.185 142.06 235.185 143.02C235.185 143.981 235.967 144.762 236.927 144.762C237.887 144.762 238.669 143.981 238.669 143.02C238.669 142.06 237.887 141.279 236.927 141.279M236.927 145.236C235.705 145.236 234.71 144.242 234.71 143.02C234.71 141.799 235.705 140.804 236.927 140.804C238.148 140.804 239.143 141.799 239.143 143.02C239.143 144.242 238.148 145.236 236.927 145.236" fill="#979797"/>
<path fill-rule="evenodd" clip-rule="evenodd" d="M227.887 141.279C226.927 141.279 226.145 142.06 226.145 143.021C226.145 143.981 226.927 144.762 227.887 144.762C228.847 144.762 229.628 143.981 229.628 143.021C229.628 142.06 228.847 141.279 227.887 141.279M227.886 145.236C226.664 145.236 225.67 144.242 225.67 143.02C225.67 141.799 226.664 140.804 227.886 140.804C229.108 140.804 230.102 141.799 230.102 143.02C230.102 144.242 229.108 145.236 227.886 145.236" fill="#979797"/>
<path fill-rule="evenodd" clip-rule="evenodd" d="M218.846 141.278C217.885 141.278 217.103 142.06 217.103 143.02C217.103 143.981 217.885 144.762 218.846 144.762C219.806 144.762 220.587 143.981 220.587 143.02C220.587 142.06 219.806 141.278 218.846 141.278M218.846 145.236C217.624 145.236 216.629 144.242 216.629 143.02C216.629 141.799 217.624 140.804 218.846 140.804C220.067 140.804 221.062 141.799 221.062 143.02C221.062 144.242 220.067 145.236 218.846 145.236" fill="#979797"/>
<path fill-rule="evenodd" clip-rule="evenodd" d="M209.804 141.279C208.844 141.279 208.062 142.06 208.062 143.02C208.062 143.981 208.844 144.762 209.804 144.762C210.765 144.762 211.546 143.981 211.546 143.02C211.546 142.06 210.765 141.279 209.804 141.279M209.804 145.236C208.582 145.236 207.588 144.242 207.588 143.02C207.588 141.799 208.582 140.804 209.804 140.804C211.025 140.804 212.02 141.799 212.02 143.02C212.02 144.242 211.025 145.236 209.804 145.236" fill="#979797"/>
<path fill-rule="evenodd" clip-rule="evenodd" d="M200.764 141.278C199.803 141.278 199.021 142.06 199.021 143.02C199.021 143.981 199.803 144.762 200.764 144.762C201.724 144.762 202.505 143.981 202.505 143.02C202.505 142.06 201.724 141.278 200.764 141.278M200.764 145.236C199.542 145.236 198.547 144.242 198.547 143.02C198.547 141.799 199.542 140.804 200.764 140.804C201.985 140.804 202.979 141.799 202.979 143.02C202.979 144.242 201.985 145.236 200.764 145.236" fill="#979797"/>
<path fill-rule="evenodd" clip-rule="evenodd" d="M191.723 141.279C190.763 141.279 189.981 142.06 189.981 143.021C189.981 143.981 190.763 144.762 191.723 144.762C192.683 144.762 193.465 143.981 193.465 143.021C193.465 142.06 192.683 141.279 191.723 141.279M191.723 145.236C190.501 145.236 189.507 144.242 189.507 143.02C189.507 141.799 190.501 140.804 191.723 140.804C192.944 140.804 193.938 141.799 193.938 143.02C193.938 144.242 192.944 145.236 191.723 145.236" fill="#979797"/>
<path fill-rule="evenodd" clip-rule="evenodd" d="M236.927 150.319C235.967 150.319 235.185 151.101 235.185 152.061C235.185 153.022 235.967 153.803 236.927 153.803C237.887 153.803 238.669 153.022 238.669 152.061C238.669 151.101 237.887 150.319 236.927 150.319M236.927 154.277C235.705 154.277 234.71 153.283 234.71 152.061C234.71 150.84 235.705 149.845 236.927 149.845C238.148 149.845 239.143 150.84 239.143 152.061C239.143 153.283 238.148 154.277 236.927 154.277" fill="#979797"/>
<path fill-rule="evenodd" clip-rule="evenodd" d="M227.887 150.319C226.927 150.319 226.145 151.101 226.145 152.061C226.145 153.022 226.927 153.803 227.887 153.803C228.847 153.803 229.628 153.022 229.628 152.061C229.628 151.101 228.847 150.319 227.887 150.319M227.886 154.277C226.664 154.277 225.67 153.283 225.67 152.061C225.67 150.84 226.664 149.845 227.886 149.845C229.108 149.845 230.102 150.84 230.102 152.061C230.102 153.283 229.108 154.277 227.886 154.277" fill="#979797"/>
<path fill-rule="evenodd" clip-rule="evenodd" d="M218.846 150.319C217.885 150.319 217.103 151.101 217.103 152.061C217.103 153.022 217.885 153.803 218.846 153.803C219.806 153.803 220.587 153.022 220.587 152.061C220.587 151.101 219.806 150.319 218.846 150.319M218.846 154.277C217.624 154.277 216.629 153.283 216.629 152.061C216.629 150.84 217.624 149.845 218.846 149.845C220.067 149.845 221.062 150.84 221.062 152.061C221.062 153.283 220.067 154.277 218.846 154.277" fill="#979797"/>
<path fill-rule="evenodd" clip-rule="evenodd" d="M209.804 150.319C208.844 150.319 208.062 151.101 208.062 152.061C208.062 153.022 208.844 153.803 209.804 153.803C210.765 153.803 211.546 153.022 211.546 152.061C211.546 151.101 210.765 150.319 209.804 150.319M209.804 154.277C208.582 154.277 207.588 153.283 207.588 152.061C207.588 150.84 208.582 149.845 209.804 149.845C211.025 149.845 212.02 150.84 212.02 152.061C212.02 153.283 211.025 154.277 209.804 154.277" fill="#979797"/>
<path fill-rule="evenodd" clip-rule="evenodd" d="M200.764 150.319C199.803 150.319 199.021 151.101 199.021 152.061C199.021 153.022 199.803 153.803 200.764 153.803C201.724 153.803 202.505 153.022 202.505 152.061C202.505 151.101 201.724 150.319 200.764 150.319M200.764 154.277C199.542 154.277 198.547 153.283 198.547 152.061C198.547 150.84 199.542 149.845 200.764 149.845C201.985 149.845 202.979 150.84 202.979 152.061C202.979 153.283 201.985 154.277 200.764 154.277" fill="#979797"/>
<path fill-rule="evenodd" clip-rule="evenodd" d="M191.723 150.319C190.763 150.319 189.981 151.101 189.981 152.061C189.981 153.022 190.763 153.803 191.723 153.803C192.683 153.803 193.465 153.022 193.465 152.061C193.465 151.101 192.683 150.319 191.723 150.319M191.723 154.277C190.501 154.277 189.507 153.283 189.507 152.061C189.507 150.84 190.501 149.845 191.723 149.845C192.944 149.845 193.938 150.84 193.938 152.061C193.938 153.283 192.944 154.277 191.723 154.277" fill="#979797"/>
<path fill-rule="evenodd" clip-rule="evenodd" d="M236.927 159.361C235.967 159.361 235.185 160.142 235.185 161.102C235.185 162.062 235.967 162.844 236.927 162.844C237.887 162.844 238.669 162.062 238.669 161.102C238.669 160.142 237.887 159.361 236.927 159.361M236.927 163.318C235.705 163.318 234.71 162.324 234.71 161.102C234.71 159.88 235.705 158.886 236.927 158.886C238.148 158.886 239.143 159.88 239.143 161.102C239.143 162.324 238.148 163.318 236.927 163.318" fill="#979797"/>
<path fill-rule="evenodd" clip-rule="evenodd" d="M227.887 159.361C226.927 159.361 226.145 160.142 226.145 161.102C226.145 162.062 226.927 162.844 227.887 162.844C228.847 162.844 229.628 162.062 229.628 161.102C229.628 160.142 228.847 159.361 227.887 159.361M227.886 163.318C226.664 163.318 225.67 162.324 225.67 161.102C225.67 159.88 226.664 158.886 227.886 158.886C229.108 158.886 230.102 159.88 230.102 161.102C230.102 162.324 229.108 163.318 227.886 163.318" fill="#979797"/>
<path fill-rule="evenodd" clip-rule="evenodd" d="M218.846 159.361C217.885 159.361 217.103 160.142 217.103 161.102C217.103 162.062 217.885 162.844 218.846 162.844C219.806 162.844 220.587 162.062 220.587 161.102C220.587 160.142 219.806 159.361 218.846 159.361M218.846 163.318C217.624 163.318 216.629 162.324 216.629 161.102C216.629 159.88 217.624 158.886 218.846 158.886C220.067 158.886 221.062 159.88 221.062 161.102C221.062 162.324 220.067 163.318 218.846 163.318" fill="#979797"/>
<path fill-rule="evenodd" clip-rule="evenodd" d="M209.804 159.361C208.844 159.361 208.062 160.142 208.062 161.102C208.062 162.062 208.844 162.844 209.804 162.844C210.765 162.844 211.546 162.062 211.546 161.102C211.546 160.142 210.765 159.361 209.804 159.361M209.804 163.318C208.582 163.318 207.588 162.324 207.588 161.102C207.588 159.88 208.582 158.886 209.804 158.886C211.025 158.886 212.02 159.88 212.02 161.102C212.02 162.324 211.025 163.318 209.804 163.318" fill="#979797"/>
<path fill-rule="evenodd" clip-rule="evenodd" d="M200.764 159.361C199.803 159.361 199.021 160.142 199.021 161.102C199.021 162.062 199.803 162.844 200.764 162.844C201.724 162.844 202.505 162.062 202.505 161.102C202.505 160.142 201.724 159.361 200.764 159.361M200.764 163.318C199.542 163.318 198.547 162.324 198.547 161.102C198.547 159.88 199.542 158.886 200.764 158.886C201.985 158.886 202.979 159.88 202.979 161.102C202.979 162.324 201.985 163.318 200.764 163.318" fill="#979797"/>
<path fill-rule="evenodd" clip-rule="evenodd" d="M191.723 159.361C190.763 159.361 189.981 160.142 189.981 161.102C189.981 162.062 190.763 162.844 191.723 162.844C192.683 162.844 193.465 162.062 193.465 161.102C193.465 160.142 192.683 159.361 191.723 159.361M191.723 163.318C190.501 163.318 189.507 162.324 189.507 161.102C189.507 159.88 190.501 158.886 191.723 158.886C192.944 158.886 193.938 159.88 193.938 161.102C193.938 162.324 192.944 163.318 191.723 163.318" fill="#979797"/>
<path fill-rule="evenodd" clip-rule="evenodd" d="M262.847 258.421L267.21 262.773L266.977 263.005L266.957 262.986L266.939 263.005L220.375 216.551L220.608 216.319L262.828 258.44L262.847 258.421Z" fill="#979797"/>
<path fill-rule="evenodd" clip-rule="evenodd" d="M262.847 244.375L281.303 262.786L281.07 263.018L266.971 248.953L266.952 248.972L234.455 216.552L234.688 216.32L262.828 244.394L262.847 244.375Z" fill="#979797"/>
<path fill-rule="evenodd" clip-rule="evenodd" d="M262.848 230.328L295.396 262.799L295.163 263.031L266.984 234.919L266.965 234.938L248.535 216.552L248.768 216.32L262.829 230.347L262.848 230.328Z" fill="#979797"/>
<path fill-rule="evenodd" clip-rule="evenodd" d="M309.216 263.005L266.996 220.885L266.977 220.904L262.614 216.552L262.847 216.319L262.866 216.339L262.885 216.319L309.449 262.773L309.216 263.005Z" fill="#979797"/>
<path fill-rule="evenodd" clip-rule="evenodd" d="M276.733 216.552L276.966 216.32L309.462 248.74L309.229 248.972L276.733 216.552Z" fill="#979797"/>
<path fill-rule="evenodd" clip-rule="evenodd" d="M290.813 216.552L291.046 216.319L309.476 234.706L309.243 234.938L290.813 216.552Z" fill="#979797"/>
<path fill-rule="evenodd" clip-rule="evenodd" d="M304.893 216.552L305.126 216.32L309.488 220.672L309.256 220.904L304.893 216.552Z" fill="#979797"/>
<path fill-rule="evenodd" clip-rule="evenodd" d="M239.024 262.786L238.792 263.018L220.336 244.607L220.569 244.374L239.024 262.786Z" fill="#979797"/>
<path fill-rule="evenodd" clip-rule="evenodd" d="M253.117 262.799L252.885 263.03L220.336 230.56L220.57 230.328L253.117 262.799Z" fill="#979797"/>
<path fill-rule="evenodd" clip-rule="evenodd" d="M-97 239.684H20V239.316H-97V239.684Z" fill="#979797"/>
<path fill-rule="evenodd" clip-rule="evenodd" d="M9 132.684H116V132.316H9V132.684Z" fill="#979797"/>
<path fill-rule="evenodd" clip-rule="evenodd" d="M56 144.684H118V144.316H56V144.684Z" fill="#979797"/>
<path fill-rule="evenodd" clip-rule="evenodd" d="M62.3504 188.675H11.9999C-15.7639 188.675 -38.3506 166.088 -38.3506 138.325C-38.3506 110.561 -15.7639 87.9741 11.9999 87.9741H113.175C140.939 87.9741 163.525 110.561 163.525 138.325V188.675H62.3504ZM163.526 289.851H113.175H62.8252V189.149H163.526V289.851ZM163.525 340.675V391.026H11.9999C-15.7639 391.026 -38.3506 368.439 -38.3506 340.675C-38.3506 312.912 -15.7639 290.325 11.9999 290.325H62.3504H113.175C140.939 290.325 163.525 312.912 163.525 340.675V340.675ZM-38.8248 391.026H-139.19L-38.8248 290.62V391.026ZM-39.2007 290.325L-139.525 390.69V290.325H-39.2007ZM5.07106 290.325C-17.4207 293.404 -35.2712 311.254 -38.3506 333.747V290.325H5.07106ZM62.3504 246.429V289.851H18.9287C41.4204 286.771 59.2709 268.921 62.3504 246.429V246.429ZM18.9287 189.149H62.3508V232.571C59.2714 210.079 41.4209 192.229 18.9287 189.149V189.149ZM-139.525 239.5C-139.525 211.737 -116.939 189.149 -89.1749 189.149H12.0001C39.7638 189.149 62.3506 211.737 62.3506 239.5C62.3506 267.263 39.7638 289.851 12.0001 289.851H-38.3504H-139.525V239.5ZM-38.5884 143.225C-36.335 166.666 -18.0936 185.503 5.07076 188.675H-82.2471C-59.0818 185.503 -40.8408 166.666 -38.5884 143.225V143.225ZM-139.525 188.675V138.325C-139.525 110.561 -116.939 87.974 -89.175 87.974C-61.4122 87.974 -38.825 110.561 -38.825 138.325C-38.825 166.088 -61.4122 188.675 -89.175 188.675H-139.525ZM113.175 87.5H12C-14.372 87.5 -36.1146 107.69 -38.588 133.425C-41.0613 107.69 -62.803 87.5 -89.175 87.5C-117.2 87.5 -140 110.3 -140 138.325V189.149H-96.1038C-120.862 192.539 -140 213.825 -140 239.5V289.851V290.325V391.5H-38.3505V347.604C-34.9604 372.362 -13.6747 391.5 12 391.5H164V340.675C164 315.001 144.862 293.715 120.104 290.325H164V189.149V188.675V138.325C164 110.3 141.2 87.5 113.175 87.5V87.5Z" fill="#979797"/>
<path fill-rule="evenodd" clip-rule="evenodd" d="M90.5729 215.156C91.5333 215.156 92.3152 215.938 92.3152 216.898C92.3152 217.858 91.5333 218.639 90.5729 218.639C89.6129 218.639 88.8311 217.858 88.8311 216.898C88.8311 215.938 89.6129 215.156 90.5729 215.156M90.5733 219.114C91.795 219.114 92.7896 218.119 92.7896 216.898C92.7896 215.676 91.795 214.682 90.5733 214.682C89.3516 214.682 88.3574 215.676 88.3574 216.898C88.3574 218.119 89.3516 219.114 90.5733 219.114" fill="#979797"/>
<path fill-rule="evenodd" clip-rule="evenodd" d="M99.6134 215.156C100.573 215.156 101.355 215.938 101.355 216.898C101.355 217.858 100.573 218.64 99.6134 218.64C98.6534 218.64 97.8721 217.858 97.8721 216.898C97.8721 215.938 98.6534 215.156 99.6134 215.156M99.6138 219.114C100.836 219.114 101.83 218.119 101.83 216.898C101.83 215.676 100.836 214.682 99.6138 214.682C98.3921 214.682 97.3984 215.676 97.3984 216.898C97.3984 218.119 98.3921 219.114 99.6138 219.114" fill="#979797"/>
<path fill-rule="evenodd" clip-rule="evenodd" d="M108.654 215.156C109.615 215.156 110.397 215.938 110.397 216.898C110.397 217.858 109.615 218.639 108.654 218.639C107.694 218.639 106.913 217.858 106.913 216.898C106.913 215.938 107.694 215.156 108.654 215.156M108.654 219.114C109.876 219.114 110.871 218.119 110.871 216.898C110.871 215.676 109.876 214.682 108.654 214.682C107.433 214.682 106.438 215.676 106.438 216.898C106.438 218.119 107.433 219.114 108.654 219.114" fill="#979797"/>
<path fill-rule="evenodd" clip-rule="evenodd" d="M117.696 215.156C118.656 215.156 119.438 215.938 119.438 216.898C119.438 217.858 118.656 218.639 117.696 218.639C116.735 218.639 115.954 217.858 115.954 216.898C115.954 215.938 116.735 215.156 117.696 215.156M117.696 219.114C118.918 219.114 119.912 218.119 119.912 216.898C119.912 215.676 118.918 214.682 117.696 214.682C116.475 214.682 115.48 215.676 115.48 216.898C115.48 218.119 116.475 219.114 117.696 219.114" fill="#979797"/>
<path fill-rule="evenodd" clip-rule="evenodd" d="M126.736 215.156C127.697 215.156 128.479 215.938 128.479 216.898C128.479 217.858 127.697 218.639 126.736 218.639C125.776 218.639 124.995 217.858 124.995 216.898C124.995 215.938 125.776 215.156 126.736 215.156M126.736 219.114C127.958 219.114 128.953 218.119 128.953 216.898C128.953 215.676 127.958 214.682 126.736 214.682C125.515 214.682 124.521 215.676 124.521 216.898C124.521 218.119 125.515 219.114 126.736 219.114" fill="#979797"/>
<path fill-rule="evenodd" clip-rule="evenodd" d="M135.777 215.156C136.737 215.156 137.519 215.938 137.519 216.898C137.519 217.858 136.737 218.64 135.777 218.64C134.817 218.64 134.035 217.858 134.035 216.898C134.035 215.938 134.817 215.156 135.777 215.156M135.777 219.114C136.999 219.114 137.993 218.119 137.993 216.898C137.993 215.676 136.999 214.682 135.777 214.682C134.556 214.682 133.562 215.676 133.562 216.898C133.562 218.119 134.556 219.114 135.777 219.114" fill="#979797"/>
<path fill-rule="evenodd" clip-rule="evenodd" d="M90.5729 224.197C91.5333 224.197 92.3152 224.978 92.3152 225.939C92.3152 226.899 91.5333 227.681 90.5729 227.681C89.6129 227.681 88.8311 226.899 88.8311 225.939C88.8311 224.978 89.6129 224.197 90.5729 224.197M90.5733 228.155C91.795 228.155 92.7896 227.16 92.7896 225.939C92.7896 224.717 91.795 223.722 90.5733 223.722C89.3516 223.722 88.3574 224.717 88.3574 225.939C88.3574 227.16 89.3516 228.155 90.5733 228.155" fill="#979797"/>
<path fill-rule="evenodd" clip-rule="evenodd" d="M99.6134 224.197C100.573 224.197 101.355 224.979 101.355 225.939C101.355 226.899 100.573 227.681 99.6134 227.681C98.6534 227.681 97.8721 226.899 97.8721 225.939C97.8721 224.979 98.6534 224.197 99.6134 224.197M99.6138 228.155C100.836 228.155 101.83 227.16 101.83 225.939C101.83 224.717 100.836 223.723 99.6138 223.723C98.3921 223.723 97.3984 224.717 97.3984 225.939C97.3984 227.16 98.3921 228.155 99.6138 228.155" fill="#979797"/>
<path fill-rule="evenodd" clip-rule="evenodd" d="M108.654 224.197C109.615 224.197 110.397 224.978 110.397 225.939C110.397 226.899 109.615 227.681 108.654 227.681C107.694 227.681 106.913 226.899 106.913 225.939C106.913 224.978 107.694 224.197 108.654 224.197M108.654 228.155C109.876 228.155 110.871 227.16 110.871 225.939C110.871 224.717 109.876 223.722 108.654 223.722C107.433 223.722 106.438 224.717 106.438 225.939C106.438 227.16 107.433 228.155 108.654 228.155" fill="#979797"/>
<path fill-rule="evenodd" clip-rule="evenodd" d="M117.696 224.197C118.656 224.197 119.438 224.978 119.438 225.939C119.438 226.899 118.656 227.681 117.696 227.681C116.735 227.681 115.954 226.899 115.954 225.939C115.954 224.978 116.735 224.197 117.696 224.197M117.696 228.155C118.918 228.155 119.912 227.16 119.912 225.939C119.912 224.717 118.918 223.722 117.696 223.722C116.475 223.722 115.48 224.717 115.48 225.939C115.48 227.16 116.475 228.155 117.696 228.155" fill="#979797"/>
<path fill-rule="evenodd" clip-rule="evenodd" d="M126.736 224.197C127.697 224.197 128.479 224.978 128.479 225.939C128.479 226.899 127.697 227.681 126.736 227.681C125.776 227.681 124.995 226.899 124.995 225.939C124.995 224.978 125.776 224.197 126.736 224.197M126.736 228.155C127.958 228.155 128.953 227.16 128.953 225.939C128.953 224.717 127.958 223.722 126.736 223.722C125.515 223.722 124.521 224.717 124.521 225.939C124.521 227.16 125.515 228.155 126.736 228.155" fill="#979797"/>
<path fill-rule="evenodd" clip-rule="evenodd" d="M135.777 224.197C136.737 224.197 137.519 224.979 137.519 225.939C137.519 226.899 136.737 227.681 135.777 227.681C134.817 227.681 134.035 226.899 134.035 225.939C134.035 224.979 134.817 224.197 135.777 224.197M135.777 228.155C136.999 228.155 137.993 227.16 137.993 225.939C137.993 224.717 136.999 223.723 135.777 223.723C134.556 223.723 133.562 224.717 133.562 225.939C133.562 227.16 134.556 228.155 135.777 228.155" fill="#979797"/>
<path fill-rule="evenodd" clip-rule="evenodd" d="M90.5729 233.238C91.5333 233.238 92.3152 234.019 92.3152 234.98C92.3152 235.94 91.5333 236.721 90.5729 236.721C89.6129 236.721 88.8311 235.94 88.8311 234.98C88.8311 234.019 89.6129 233.238 90.5729 233.238M90.5733 237.196C91.795 237.196 92.7896 236.201 92.7896 234.98C92.7896 233.758 91.795 232.764 90.5733 232.764C89.3516 232.764 88.3574 233.758 88.3574 234.98C88.3574 236.201 89.3516 237.196 90.5733 237.196" fill="#979797"/>
<path fill-rule="evenodd" clip-rule="evenodd" d="M99.6134 233.238C100.573 233.238 101.355 234.019 101.355 234.98C101.355 235.94 100.573 236.721 99.6134 236.721C98.6534 236.721 97.8721 235.94 97.8721 234.98C97.8721 234.019 98.6534 233.238 99.6134 233.238M99.6138 237.196C100.836 237.196 101.83 236.201 101.83 234.98C101.83 233.758 100.836 232.764 99.6138 232.764C98.3921 232.764 97.3984 233.758 97.3984 234.98C97.3984 236.201 98.3921 237.196 99.6138 237.196" fill="#979797"/>
<path fill-rule="evenodd" clip-rule="evenodd" d="M108.654 233.238C109.615 233.238 110.397 234.019 110.397 234.98C110.397 235.94 109.615 236.721 108.654 236.721C107.694 236.721 106.913 235.94 106.913 234.98C106.913 234.019 107.694 233.238 108.654 233.238M108.654 237.196C109.876 237.196 110.871 236.201 110.871 234.98C110.871 233.758 109.876 232.764 108.654 232.764C107.433 232.764 106.438 233.758 106.438 234.98C106.438 236.201 107.433 237.196 108.654 237.196" fill="#979797"/>
<path fill-rule="evenodd" clip-rule="evenodd" d="M117.696 233.238C118.656 233.238 119.438 234.019 119.438 234.98C119.438 235.94 118.656 236.721 117.696 236.721C116.735 236.721 115.954 235.94 115.954 234.98C115.954 234.019 116.735 233.238 117.696 233.238M117.696 237.196C118.918 237.196 119.912 236.201 119.912 234.98C119.912 233.758 118.918 232.764 117.696 232.764C116.475 232.764 115.48 233.758 115.48 234.98C115.48 236.201 116.475 237.196 117.696 237.196" fill="#979797"/>
<path fill-rule="evenodd" clip-rule="evenodd" d="M126.736 233.238C127.697 233.238 128.479 234.019 128.479 234.98C128.479 235.94 127.697 236.721 126.736 236.721C125.776 236.721 124.995 235.94 124.995 234.98C124.995 234.019 125.776 233.238 126.736 233.238M126.736 237.196C127.958 237.196 128.953 236.201 128.953 234.98C128.953 233.758 127.958 232.764 126.736 232.764C125.515 232.764 124.521 233.758 124.521 234.98C124.521 236.201 125.515 237.196 126.736 237.196" fill="#979797"/>
<path fill-rule="evenodd" clip-rule="evenodd" d="M135.777 233.238C136.737 233.238 137.519 234.019 137.519 234.98C137.519 235.94 136.737 236.721 135.777 236.721C134.817 236.721 134.035 235.94 134.035 234.98C134.035 234.019 134.817 233.238 135.777 233.238M135.777 237.196C136.999 237.196 137.993 236.201 137.993 234.98C137.993 233.758 136.999 232.764 135.777 232.764C134.556 232.764 133.562 233.758 133.562 234.98C133.562 236.201 134.556 237.196 135.777 237.196" fill="#979797"/>
<path fill-rule="evenodd" clip-rule="evenodd" d="M90.5729 242.279C91.5333 242.279 92.3152 243.06 92.3152 244.02C92.3152 244.981 91.5333 245.762 90.5729 245.762C89.6129 245.762 88.8311 244.981 88.8311 244.02C88.8311 243.06 89.6129 242.279 90.5729 242.279M90.5733 246.236C91.795 246.236 92.7896 245.242 92.7896 244.02C92.7896 242.799 91.795 241.804 90.5733 241.804C89.3516 241.804 88.3574 242.799 88.3574 244.02C88.3574 245.242 89.3516 246.236 90.5733 246.236" fill="#979797"/>
<path fill-rule="evenodd" clip-rule="evenodd" d="M99.6134 242.279C100.573 242.279 101.355 243.06 101.355 244.021C101.355 244.981 100.573 245.762 99.6134 245.762C98.6534 245.762 97.8721 244.981 97.8721 244.021C97.8721 243.06 98.6534 242.279 99.6134 242.279M99.6138 246.236C100.836 246.236 101.83 245.242 101.83 244.02C101.83 242.799 100.836 241.804 99.6138 241.804C98.3921 241.804 97.3984 242.799 97.3984 244.02C97.3984 245.242 98.3921 246.236 99.6138 246.236" fill="#979797"/>
<path fill-rule="evenodd" clip-rule="evenodd" d="M108.654 242.278C109.615 242.278 110.397 243.06 110.397 244.02C110.397 244.981 109.615 245.762 108.654 245.762C107.694 245.762 106.913 244.981 106.913 244.02C106.913 243.06 107.694 242.278 108.654 242.278M108.654 246.236C109.876 246.236 110.871 245.242 110.871 244.02C110.871 242.799 109.876 241.804 108.654 241.804C107.433 241.804 106.438 242.799 106.438 244.02C106.438 245.242 107.433 246.236 108.654 246.236" fill="#979797"/>
<path fill-rule="evenodd" clip-rule="evenodd" d="M117.696 242.279C118.656 242.279 119.438 243.06 119.438 244.02C119.438 244.981 118.656 245.762 117.696 245.762C116.735 245.762 115.954 244.981 115.954 244.02C115.954 243.06 116.735 242.279 117.696 242.279M117.696 246.236C118.918 246.236 119.912 245.242 119.912 244.02C119.912 242.799 118.918 241.804 117.696 241.804C116.475 241.804 115.48 242.799 115.48 244.02C115.48 245.242 116.475 246.236 117.696 246.236" fill="#979797"/>
<path fill-rule="evenodd" clip-rule="evenodd" d="M126.736 242.278C127.697 242.278 128.479 243.06 128.479 244.02C128.479 244.981 127.697 245.762 126.736 245.762C125.776 245.762 124.995 244.981 124.995 244.02C124.995 243.06 125.776 242.278 126.736 242.278M126.736 246.236C127.958 246.236 128.953 245.242 128.953 244.02C128.953 242.799 127.958 241.804 126.736 241.804C125.515 241.804 124.521 242.799 124.521 244.02C124.521 245.242 125.515 246.236 126.736 246.236" fill="#979797"/>
<path fill-rule="evenodd" clip-rule="evenodd" d="M135.777 242.279C136.737 242.279 137.519 243.06 137.519 244.021C137.519 244.981 136.737 245.762 135.777 245.762C134.817 245.762 134.035 244.981 134.035 244.021C134.035 243.06 134.817 242.279 135.777 242.279M135.777 246.236C136.999 246.236 137.993 245.242 137.993 244.02C137.993 242.799 136.999 241.804 135.777 241.804C134.556 241.804 133.562 242.799 133.562 244.02C133.562 245.242 134.556 246.236 135.777 246.236" fill="#979797"/>
<path fill-rule="evenodd" clip-rule="evenodd" d="M90.5729 251.319C91.5333 251.319 92.3152 252.101 92.3152 253.061C92.3152 254.022 91.5333 254.803 90.5729 254.803C89.6129 254.803 88.8311 254.022 88.8311 253.061C88.8311 252.101 89.6129 251.319 90.5729 251.319M90.5733 255.277C91.795 255.277 92.7896 254.283 92.7896 253.061C92.7896 251.84 91.795 250.845 90.5733 250.845C89.3516 250.845 88.3574 251.84 88.3574 253.061C88.3574 254.283 89.3516 255.277 90.5733 255.277" fill="#979797"/>
<path fill-rule="evenodd" clip-rule="evenodd" d="M99.6134 251.319C100.573 251.319 101.355 252.101 101.355 253.061C101.355 254.022 100.573 254.803 99.6134 254.803C98.6534 254.803 97.8721 254.022 97.8721 253.061C97.8721 252.101 98.6534 251.319 99.6134 251.319M99.6138 255.277C100.836 255.277 101.83 254.283 101.83 253.061C101.83 251.84 100.836 250.845 99.6138 250.845C98.3921 250.845 97.3984 251.84 97.3984 253.061C97.3984 254.283 98.3921 255.277 99.6138 255.277" fill="#979797"/>
<path fill-rule="evenodd" clip-rule="evenodd" d="M108.654 251.319C109.615 251.319 110.397 252.101 110.397 253.061C110.397 254.022 109.615 254.803 108.654 254.803C107.694 254.803 106.913 254.022 106.913 253.061C106.913 252.101 107.694 251.319 108.654 251.319M108.654 255.277C109.876 255.277 110.871 254.283 110.871 253.061C110.871 251.84 109.876 250.845 108.654 250.845C107.433 250.845 106.438 251.84 106.438 253.061C106.438 254.283 107.433 255.277 108.654 255.277" fill="#979797"/>
<path fill-rule="evenodd" clip-rule="evenodd" d="M117.696 251.319C118.656 251.319 119.438 252.101 119.438 253.061C119.438 254.022 118.656 254.803 117.696 254.803C116.735 254.803 115.954 254.022 115.954 253.061C115.954 252.101 116.735 251.319 117.696 251.319M117.696 255.277C118.918 255.277 119.912 254.283 119.912 253.061C119.912 251.84 118.918 250.845 117.696 250.845C116.475 250.845 115.48 251.84 115.48 253.061C115.48 254.283 116.475 255.277 117.696 255.277" fill="#979797"/>
<path fill-rule="evenodd" clip-rule="evenodd" d="M126.736 251.319C127.697 251.319 128.479 252.101 128.479 253.061C128.479 254.022 127.697 254.803 126.736 254.803C125.776 254.803 124.995 254.022 124.995 253.061C124.995 252.101 125.776 251.319 126.736 251.319M126.736 255.277C127.958 255.277 128.953 254.283 128.953 253.061C128.953 251.84 127.958 250.845 126.736 250.845C125.515 250.845 124.521 251.84 124.521 253.061C124.521 254.283 125.515 255.277 126.736 255.277" fill="#979797"/>
<path fill-rule="evenodd" clip-rule="evenodd" d="M135.777 251.319C136.737 251.319 137.519 252.101 137.519 253.061C137.519 254.022 136.737 254.803 135.777 254.803C134.817 254.803 134.035 254.022 134.035 253.061C134.035 252.101 134.817 251.319 135.777 251.319M135.777 255.277C136.999 255.277 137.993 254.283 137.993 253.061C137.993 251.84 136.999 250.845 135.777 250.845C134.556 250.845 133.562 251.84 133.562 253.061C133.562 254.283 134.556 255.277 135.777 255.277" fill="#979797"/>
</svg>
