<svg width="10" height="24" viewBox="0 0 10 24" fill="none" xmlns="http://www.w3.org/2000/svg">
<path fill-rule="evenodd" clip-rule="evenodd" d="M6.19838 12.4995L2.25396 16.4382L2.24929 16.4431C1.91696 16.7992 1.91696 17.3735 2.24929 17.7296C2.58572 18.0901 3.13442 18.0901 3.47084 17.7296L7.75077 13.1433C8.0831 12.7871 8.0831 12.2128 7.75077 11.8567L3.47084 7.27038C3.13442 6.90987 2.58572 6.90987 2.24929 7.27038C1.91696 7.62651 1.91687 8.20089 2.24921 8.55701L6.19838 12.4995ZM2.23763 8.18706C2.13821 7.92642 2.18722 7.61601 2.38466 7.40443C2.6473 7.12299 3.07312 7.12299 3.33576 7.40443L7.61568 11.9908C7.68078 12.0605 7.72975 12.141 7.76257 12.227C7.72975 12.1409 7.68073 12.0603 7.61554 11.9904L3.33561 7.40406C3.07298 7.12262 2.64716 7.12262 2.38452 7.40406C2.18698 7.61574 2.13802 7.92634 2.23763 8.18706ZM2.23679 17.3575C2.13848 17.0973 2.18778 16.7881 2.38466 16.5771L6.46781 12.4999L6.46755 12.4996L2.38452 16.5767C2.18754 16.7878 2.1383 17.0973 2.23679 17.3575Z" fill="#F1563C"/>
</svg>
