<svg width="472" height="257" viewBox="0 0 472 257" fill="none" xmlns="http://www.w3.org/2000/svg">
<path fill-rule="evenodd" clip-rule="evenodd" d="M319 150.306H196V150.694H319V150.306Z" fill="#979797"/>
<path fill-rule="evenodd" clip-rule="evenodd" d="M158 250.306H93V250.694H158V250.306Z" fill="#979797"/>
<path fill-rule="evenodd" clip-rule="evenodd" d="M107 204H160C189.225 204 213.001 227.776 213.001 257C213.001 286.225 189.225 310.001 160 310.001H53.5C24.275 310.001 0.499512 286.225 0.499512 257V204H107ZM0.499512 97.499H53.5H106.5V203.501H0.499512V97.499ZM0.499512 43.9995V-9.00101H160C189.225 -9.00101 213.001 14.775 213.001 44C213.001 73.224 189.225 97 160 97H107H53.5C24.275 97 0.499512 73.224 0.499512 43.9995ZM213.5 -9.00101H319.148L213.5 96.69V-9.00101ZM213.896 97L319.5 -8.64749V97H213.896ZM167.294 97C190.969 93.7585 209.759 74.969 213.001 51.293V97H167.294ZM106.999 143.206V97.499H152.706C129.031 100.741 110.241 119.531 106.999 143.206ZM152.707 203.501H106.999V157.794C110.241 181.469 129.031 200.259 152.707 203.501ZM319.5 150.499C319.5 179.725 295.725 203.501 266.5 203.501H160C130.775 203.501 106.999 179.725 106.999 150.5C106.999 121.275 130.775 97.499 160 97.499H213.001H319.5V150.499ZM213.251 251.842C210.879 227.167 191.677 207.339 167.294 204H259.207C234.823 207.339 215.621 227.167 213.251 251.842ZM319.5 204V257C319.5 286.225 295.725 310.001 266.5 310.001C237.276 310.001 213.5 286.225 213.5 257C213.5 227.776 237.276 204 266.5 204H319.5ZM53.5 310.5H160C187.76 310.5 210.647 289.247 213.251 262.158C215.854 289.247 238.74 310.5 266.5 310.5C296 310.5 320 286.5 320 257V203.501H273.793C299.855 199.933 320 177.526 320 150.499V97.499V97V-9.5H213.001V36.7065C209.432 10.645 187.026 -9.5 160 -9.5H0V43.9995C0 71.0255 20.145 93.4315 46.2065 97H0V203.501V204V257C0 286.5 24 310.5 53.5 310.5Z" fill="#979797"/>
<path fill-rule="evenodd" clip-rule="evenodd" d="M77.2915 176.125C76.2805 176.125 75.4575 175.303 75.4575 174.292C75.4575 173.281 76.2805 172.459 77.2915 172.459C78.302 172.459 79.125 173.281 79.125 174.292C79.125 175.303 78.302 176.125 77.2915 176.125ZM77.2915 171.959C76.0055 171.959 74.9585 173.006 74.9585 174.292C74.9585 175.578 76.0055 176.624 77.2915 176.624C78.5775 176.624 79.624 175.578 79.624 174.292C79.624 173.006 78.5775 171.959 77.2915 171.959Z" fill="#979797"/>
<path fill-rule="evenodd" clip-rule="evenodd" d="M67.7749 176.125C66.7644 176.125 65.9414 175.303 65.9414 174.292C65.9414 173.281 66.7644 172.459 67.7749 172.459C68.7854 172.459 69.6079 173.281 69.6079 174.292C69.6079 175.303 68.7854 176.125 67.7749 176.125ZM67.7749 171.959C66.4889 171.959 65.4419 173.006 65.4419 174.292C65.4419 175.578 66.4889 176.624 67.7749 176.624C69.0609 176.624 70.1069 175.578 70.1069 174.292C70.1069 173.006 69.0609 171.959 67.7749 171.959Z" fill="#979797"/>
<path fill-rule="evenodd" clip-rule="evenodd" d="M58.2583 176.125C57.2473 176.125 56.4243 175.303 56.4243 174.292C56.4243 173.281 57.2473 172.459 58.2583 172.459C59.2688 172.459 60.0913 173.281 60.0913 174.292C60.0913 175.303 59.2688 176.125 58.2583 176.125ZM58.2583 171.959C56.9723 171.959 55.9253 173.006 55.9253 174.292C55.9253 175.578 56.9723 176.624 58.2583 176.624C59.5443 176.624 60.5908 175.578 60.5908 174.292C60.5908 173.006 59.5443 171.959 58.2583 171.959Z" fill="#979797"/>
<path fill-rule="evenodd" clip-rule="evenodd" d="M48.7412 176.125C47.7302 176.125 46.9077 175.303 46.9077 174.292C46.9077 173.281 47.7302 172.459 48.7412 172.459C49.7522 172.459 50.5747 173.281 50.5747 174.292C50.5747 175.303 49.7522 176.125 48.7412 176.125ZM48.7412 171.959C47.4552 171.959 46.4087 173.006 46.4087 174.292C46.4087 175.578 47.4552 176.624 48.7412 176.624C50.0272 176.624 51.0737 175.578 51.0737 174.292C51.0737 173.006 50.0272 171.959 48.7412 171.959Z" fill="#979797"/>
<path fill-rule="evenodd" clip-rule="evenodd" d="M39.2251 176.125C38.2136 176.125 37.3911 175.303 37.3911 174.292C37.3911 173.281 38.2136 172.459 39.2251 172.459C40.2356 172.459 41.0581 173.281 41.0581 174.292C41.0581 175.303 40.2356 176.125 39.2251 176.125ZM39.2251 171.959C37.9391 171.959 36.8921 173.006 36.8921 174.292C36.8921 175.578 37.9391 176.624 39.2251 176.624C40.5111 176.624 41.5576 175.578 41.5576 174.292C41.5576 173.006 40.5111 171.959 39.2251 171.959Z" fill="#979797"/>
<path fill-rule="evenodd" clip-rule="evenodd" d="M29.708 176.125C28.697 176.125 27.8745 175.303 27.8745 174.292C27.8745 173.281 28.697 172.459 29.708 172.459C30.719 172.459 31.5415 173.281 31.5415 174.292C31.5415 175.303 30.719 176.125 29.708 176.125ZM29.708 171.959C28.422 171.959 27.3755 173.006 27.3755 174.292C27.3755 175.578 28.422 176.624 29.708 176.624C30.994 176.624 32.0405 175.578 32.0405 174.292C32.0405 173.006 30.994 171.959 29.708 171.959Z" fill="#979797"/>
<path fill-rule="evenodd" clip-rule="evenodd" d="M77.2915 166.608C76.2805 166.608 75.4575 165.786 75.4575 164.775C75.4575 163.764 76.2805 162.941 77.2915 162.941C78.302 162.941 79.125 163.764 79.125 164.775C79.125 165.786 78.302 166.608 77.2915 166.608ZM77.2915 162.442C76.0055 162.442 74.9585 163.489 74.9585 164.775C74.9585 166.061 76.0055 167.108 77.2915 167.108C78.5775 167.108 79.624 166.061 79.624 164.775C79.624 163.489 78.5775 162.442 77.2915 162.442Z" fill="#979797"/>
<path fill-rule="evenodd" clip-rule="evenodd" d="M67.7749 166.608C66.7644 166.608 65.9414 165.786 65.9414 164.775C65.9414 163.764 66.7644 162.941 67.7749 162.941C68.7854 162.941 69.6079 163.764 69.6079 164.775C69.6079 165.786 68.7854 166.608 67.7749 166.608ZM67.7749 162.442C66.4889 162.442 65.4419 163.489 65.4419 164.775C65.4419 166.061 66.4889 167.108 67.7749 167.108C69.0609 167.108 70.1069 166.061 70.1069 164.775C70.1069 163.489 69.0609 162.442 67.7749 162.442Z" fill="#979797"/>
<path fill-rule="evenodd" clip-rule="evenodd" d="M58.2583 166.608C57.2473 166.608 56.4243 165.786 56.4243 164.775C56.4243 163.764 57.2473 162.941 58.2583 162.941C59.2688 162.941 60.0913 163.764 60.0913 164.775C60.0913 165.786 59.2688 166.608 58.2583 166.608ZM58.2583 162.442C56.9723 162.442 55.9253 163.489 55.9253 164.775C55.9253 166.061 56.9723 167.108 58.2583 167.108C59.5443 167.108 60.5908 166.061 60.5908 164.775C60.5908 163.489 59.5443 162.442 58.2583 162.442Z" fill="#979797"/>
<path fill-rule="evenodd" clip-rule="evenodd" d="M48.7412 166.608C47.7302 166.608 46.9077 165.786 46.9077 164.775C46.9077 163.764 47.7302 162.941 48.7412 162.941C49.7522 162.941 50.5747 163.764 50.5747 164.775C50.5747 165.786 49.7522 166.608 48.7412 166.608ZM48.7412 162.442C47.4552 162.442 46.4087 163.489 46.4087 164.775C46.4087 166.061 47.4552 167.108 48.7412 167.108C50.0272 167.108 51.0737 166.061 51.0737 164.775C51.0737 163.489 50.0272 162.442 48.7412 162.442Z" fill="#979797"/>
<path fill-rule="evenodd" clip-rule="evenodd" d="M39.2251 166.608C38.2136 166.608 37.3911 165.786 37.3911 164.775C37.3911 163.764 38.2136 162.941 39.2251 162.941C40.2356 162.941 41.0581 163.764 41.0581 164.775C41.0581 165.786 40.2356 166.608 39.2251 166.608ZM39.2251 162.442C37.9391 162.442 36.8921 163.489 36.8921 164.775C36.8921 166.061 37.9391 167.108 39.2251 167.108C40.5111 167.108 41.5576 166.061 41.5576 164.775C41.5576 163.489 40.5111 162.442 39.2251 162.442Z" fill="#979797"/>
<path fill-rule="evenodd" clip-rule="evenodd" d="M29.708 166.608C28.697 166.608 27.8745 165.786 27.8745 164.775C27.8745 163.764 28.697 162.941 29.708 162.941C30.719 162.941 31.5415 163.764 31.5415 164.775C31.5415 165.786 30.719 166.608 29.708 166.608ZM29.708 162.442C28.422 162.442 27.3755 163.489 27.3755 164.775C27.3755 166.061 28.422 167.108 29.708 167.108C30.994 167.108 32.0405 166.061 32.0405 164.775C32.0405 163.489 30.994 162.442 29.708 162.442Z" fill="#979797"/>
<path fill-rule="evenodd" clip-rule="evenodd" d="M77.2915 157.092C76.2805 157.092 75.4575 156.269 75.4575 155.258C75.4575 154.247 76.2805 153.425 77.2915 153.425C78.302 153.425 79.125 154.247 79.125 155.258C79.125 156.269 78.302 157.092 77.2915 157.092ZM77.2915 152.925C76.0055 152.925 74.9585 153.972 74.9585 155.258C74.9585 156.544 76.0055 157.591 77.2915 157.591C78.5775 157.591 79.624 156.544 79.624 155.258C79.624 153.972 78.5775 152.925 77.2915 152.925Z" fill="#979797"/>
<path fill-rule="evenodd" clip-rule="evenodd" d="M67.7749 157.092C66.7644 157.092 65.9414 156.269 65.9414 155.258C65.9414 154.247 66.7644 153.425 67.7749 153.425C68.7854 153.425 69.6079 154.247 69.6079 155.258C69.6079 156.269 68.7854 157.092 67.7749 157.092ZM67.7749 152.925C66.4889 152.925 65.4419 153.972 65.4419 155.258C65.4419 156.544 66.4889 157.591 67.7749 157.591C69.0609 157.591 70.1069 156.544 70.1069 155.258C70.1069 153.972 69.0609 152.925 67.7749 152.925Z" fill="#979797"/>
<path fill-rule="evenodd" clip-rule="evenodd" d="M58.2583 157.092C57.2473 157.092 56.4243 156.269 56.4243 155.258C56.4243 154.247 57.2473 153.425 58.2583 153.425C59.2688 153.425 60.0913 154.247 60.0913 155.258C60.0913 156.269 59.2688 157.092 58.2583 157.092ZM58.2583 152.925C56.9723 152.925 55.9253 153.972 55.9253 155.258C55.9253 156.544 56.9723 157.591 58.2583 157.591C59.5443 157.591 60.5908 156.544 60.5908 155.258C60.5908 153.972 59.5443 152.925 58.2583 152.925Z" fill="#979797"/>
<path fill-rule="evenodd" clip-rule="evenodd" d="M48.7412 157.092C47.7302 157.092 46.9077 156.269 46.9077 155.258C46.9077 154.247 47.7302 153.425 48.7412 153.425C49.7522 153.425 50.5747 154.247 50.5747 155.258C50.5747 156.269 49.7522 157.092 48.7412 157.092ZM48.7412 152.925C47.4552 152.925 46.4087 153.972 46.4087 155.258C46.4087 156.544 47.4552 157.591 48.7412 157.591C50.0272 157.591 51.0737 156.544 51.0737 155.258C51.0737 153.972 50.0272 152.925 48.7412 152.925Z" fill="#979797"/>
<path fill-rule="evenodd" clip-rule="evenodd" d="M39.2251 157.092C38.2136 157.092 37.3911 156.269 37.3911 155.258C37.3911 154.247 38.2136 153.425 39.2251 153.425C40.2356 153.425 41.0581 154.247 41.0581 155.258C41.0581 156.269 40.2356 157.092 39.2251 157.092ZM39.2251 152.925C37.9391 152.925 36.8921 153.972 36.8921 155.258C36.8921 156.544 37.9391 157.591 39.2251 157.591C40.5111 157.591 41.5576 156.544 41.5576 155.258C41.5576 153.972 40.5111 152.925 39.2251 152.925Z" fill="#979797"/>
<path fill-rule="evenodd" clip-rule="evenodd" d="M29.708 157.092C28.697 157.092 27.8745 156.269 27.8745 155.258C27.8745 154.247 28.697 153.425 29.708 153.425C30.719 153.425 31.5415 154.247 31.5415 155.258C31.5415 156.269 30.719 157.092 29.708 157.092ZM29.708 152.925C28.422 152.925 27.3755 153.972 27.3755 155.258C27.3755 156.544 28.422 157.591 29.708 157.591C30.994 157.591 32.0405 156.544 32.0405 155.258C32.0405 153.972 30.994 152.925 29.708 152.925Z" fill="#979797"/>
<path fill-rule="evenodd" clip-rule="evenodd" d="M77.2915 147.575C76.2805 147.575 75.4575 146.753 75.4575 145.742C75.4575 144.731 76.2805 143.908 77.2915 143.908C78.302 143.908 79.125 144.731 79.125 145.742C79.125 146.753 78.302 147.575 77.2915 147.575ZM77.2915 143.409C76.0055 143.409 74.9585 144.456 74.9585 145.742C74.9585 147.028 76.0055 148.075 77.2915 148.075C78.5775 148.075 79.624 147.028 79.624 145.742C79.624 144.456 78.5775 143.409 77.2915 143.409Z" fill="#979797"/>
<path fill-rule="evenodd" clip-rule="evenodd" d="M67.7749 147.575C66.7644 147.575 65.9414 146.753 65.9414 145.742C65.9414 144.731 66.7644 143.908 67.7749 143.908C68.7854 143.908 69.6079 144.731 69.6079 145.742C69.6079 146.753 68.7854 147.575 67.7749 147.575ZM67.7749 143.409C66.4889 143.409 65.4419 144.456 65.4419 145.742C65.4419 147.028 66.4889 148.075 67.7749 148.075C69.0609 148.075 70.1069 147.028 70.1069 145.742C70.1069 144.456 69.0609 143.409 67.7749 143.409Z" fill="#979797"/>
<path fill-rule="evenodd" clip-rule="evenodd" d="M58.2583 147.575C57.2473 147.575 56.4243 146.753 56.4243 145.742C56.4243 144.731 57.2473 143.908 58.2583 143.908C59.2688 143.908 60.0913 144.731 60.0913 145.742C60.0913 146.753 59.2688 147.575 58.2583 147.575ZM58.2583 143.409C56.9723 143.409 55.9253 144.456 55.9253 145.742C55.9253 147.028 56.9723 148.075 58.2583 148.075C59.5443 148.075 60.5908 147.028 60.5908 145.742C60.5908 144.456 59.5443 143.409 58.2583 143.409Z" fill="#979797"/>
<path fill-rule="evenodd" clip-rule="evenodd" d="M48.7412 147.575C47.7302 147.575 46.9077 146.753 46.9077 145.742C46.9077 144.731 47.7302 143.908 48.7412 143.908C49.7522 143.908 50.5747 144.731 50.5747 145.742C50.5747 146.753 49.7522 147.575 48.7412 147.575ZM48.7412 143.409C47.4552 143.409 46.4087 144.456 46.4087 145.742C46.4087 147.028 47.4552 148.075 48.7412 148.075C50.0272 148.075 51.0737 147.028 51.0737 145.742C51.0737 144.456 50.0272 143.409 48.7412 143.409Z" fill="#979797"/>
<path fill-rule="evenodd" clip-rule="evenodd" d="M39.2251 147.575C38.2136 147.575 37.3911 146.753 37.3911 145.742C37.3911 144.731 38.2136 143.908 39.2251 143.908C40.2356 143.908 41.0581 144.731 41.0581 145.742C41.0581 146.753 40.2356 147.575 39.2251 147.575ZM39.2251 143.409C37.9391 143.409 36.8921 144.456 36.8921 145.742C36.8921 147.028 37.9391 148.075 39.2251 148.075C40.5111 148.075 41.5576 147.028 41.5576 145.742C41.5576 144.456 40.5111 143.409 39.2251 143.409Z" fill="#979797"/>
<path fill-rule="evenodd" clip-rule="evenodd" d="M29.708 147.575C28.697 147.575 27.8745 146.753 27.8745 145.742C27.8745 144.731 28.697 143.908 29.708 143.908C30.719 143.908 31.5415 144.731 31.5415 145.742C31.5415 146.753 30.719 147.575 29.708 147.575ZM29.708 143.409C28.422 143.409 27.3755 144.456 27.3755 145.742C27.3755 147.028 28.422 148.075 29.708 148.075C30.994 148.075 32.0405 147.028 32.0405 145.742C32.0405 144.456 30.994 143.409 29.708 143.409Z" fill="#979797"/>
<path fill-rule="evenodd" clip-rule="evenodd" d="M77.2915 138.059C76.2805 138.059 75.4575 137.236 75.4575 136.225C75.4575 135.214 76.2805 134.392 77.2915 134.392C78.302 134.392 79.125 135.214 79.125 136.225C79.125 137.236 78.302 138.059 77.2915 138.059ZM77.2915 133.892C76.0055 133.892 74.9585 134.939 74.9585 136.225C74.9585 137.511 76.0055 138.558 77.2915 138.558C78.5775 138.558 79.624 137.511 79.624 136.225C79.624 134.939 78.5775 133.892 77.2915 133.892Z" fill="#979797"/>
<path fill-rule="evenodd" clip-rule="evenodd" d="M67.7749 138.059C66.7644 138.059 65.9414 137.236 65.9414 136.225C65.9414 135.214 66.7644 134.392 67.7749 134.392C68.7854 134.392 69.6079 135.214 69.6079 136.225C69.6079 137.236 68.7854 138.059 67.7749 138.059ZM67.7749 133.892C66.4889 133.892 65.4419 134.939 65.4419 136.225C65.4419 137.511 66.4889 138.558 67.7749 138.558C69.0609 138.558 70.1069 137.511 70.1069 136.225C70.1069 134.939 69.0609 133.892 67.7749 133.892Z" fill="#979797"/>
<path fill-rule="evenodd" clip-rule="evenodd" d="M58.2583 138.059C57.2473 138.059 56.4243 137.236 56.4243 136.225C56.4243 135.214 57.2473 134.392 58.2583 134.392C59.2688 134.392 60.0913 135.214 60.0913 136.225C60.0913 137.236 59.2688 138.059 58.2583 138.059ZM58.2583 133.892C56.9723 133.892 55.9253 134.939 55.9253 136.225C55.9253 137.511 56.9723 138.558 58.2583 138.558C59.5443 138.558 60.5908 137.511 60.5908 136.225C60.5908 134.939 59.5443 133.892 58.2583 133.892Z" fill="#979797"/>
<path fill-rule="evenodd" clip-rule="evenodd" d="M48.7412 138.059C47.7302 138.059 46.9077 137.236 46.9077 136.225C46.9077 135.214 47.7302 134.392 48.7412 134.392C49.7522 134.392 50.5747 135.214 50.5747 136.225C50.5747 137.236 49.7522 138.059 48.7412 138.059ZM48.7412 133.892C47.4552 133.892 46.4087 134.939 46.4087 136.225C46.4087 137.511 47.4552 138.558 48.7412 138.558C50.0272 138.558 51.0737 137.511 51.0737 136.225C51.0737 134.939 50.0272 133.892 48.7412 133.892Z" fill="#979797"/>
<path fill-rule="evenodd" clip-rule="evenodd" d="M39.2251 138.059C38.2136 138.059 37.3911 137.236 37.3911 136.225C37.3911 135.214 38.2136 134.392 39.2251 134.392C40.2356 134.392 41.0581 135.214 41.0581 136.225C41.0581 137.236 40.2356 138.059 39.2251 138.059ZM39.2251 133.892C37.9391 133.892 36.8921 134.939 36.8921 136.225C36.8921 137.511 37.9391 138.558 39.2251 138.558C40.5111 138.558 41.5576 137.511 41.5576 136.225C41.5576 134.939 40.5111 133.892 39.2251 133.892Z" fill="#979797"/>
<path fill-rule="evenodd" clip-rule="evenodd" d="M29.708 138.059C28.697 138.059 27.8745 137.236 27.8745 136.225C27.8745 135.214 28.697 134.392 29.708 134.392C30.719 134.392 31.5415 135.214 31.5415 136.225C31.5415 137.236 30.719 138.059 29.708 138.059ZM29.708 133.892C28.422 133.892 27.3755 134.939 27.3755 136.225C27.3755 137.511 28.422 138.558 29.708 138.558C30.994 138.558 32.0405 137.511 32.0405 136.225C32.0405 134.939 30.994 133.892 29.708 133.892Z" fill="#979797"/>
<path fill-rule="evenodd" clip-rule="evenodd" d="M77.2915 128.542C76.2805 128.542 75.4575 127.719 75.4575 126.709C75.4575 125.698 76.2805 124.875 77.2915 124.875C78.302 124.875 79.125 125.698 79.125 126.709C79.125 127.719 78.302 128.542 77.2915 128.542ZM77.2915 124.376C76.0055 124.376 74.9585 125.423 74.9585 126.709C74.9585 127.995 76.0055 129.041 77.2915 129.041C78.5775 129.041 79.624 127.995 79.624 126.709C79.624 125.423 78.5775 124.376 77.2915 124.376Z" fill="#979797"/>
<path fill-rule="evenodd" clip-rule="evenodd" d="M67.7749 128.542C66.7644 128.542 65.9414 127.719 65.9414 126.709C65.9414 125.698 66.7644 124.875 67.7749 124.875C68.7854 124.875 69.6079 125.698 69.6079 126.709C69.6079 127.719 68.7854 128.542 67.7749 128.542ZM67.7749 124.376C66.4889 124.376 65.4419 125.423 65.4419 126.709C65.4419 127.995 66.4889 129.041 67.7749 129.041C69.0609 129.041 70.1069 127.995 70.1069 126.709C70.1069 125.423 69.0609 124.376 67.7749 124.376Z" fill="#979797"/>
<path fill-rule="evenodd" clip-rule="evenodd" d="M58.2583 128.542C57.2473 128.542 56.4243 127.719 56.4243 126.709C56.4243 125.698 57.2473 124.875 58.2583 124.875C59.2688 124.875 60.0913 125.698 60.0913 126.709C60.0913 127.719 59.2688 128.542 58.2583 128.542ZM58.2583 124.376C56.9723 124.376 55.9253 125.423 55.9253 126.709C55.9253 127.995 56.9723 129.041 58.2583 129.041C59.5443 129.041 60.5908 127.995 60.5908 126.709C60.5908 125.423 59.5443 124.376 58.2583 124.376Z" fill="#979797"/>
<path fill-rule="evenodd" clip-rule="evenodd" d="M48.7412 128.542C47.7302 128.542 46.9077 127.719 46.9077 126.709C46.9077 125.698 47.7302 124.875 48.7412 124.875C49.7522 124.875 50.5747 125.698 50.5747 126.709C50.5747 127.719 49.7522 128.542 48.7412 128.542ZM48.7412 124.376C47.4552 124.376 46.4087 125.423 46.4087 126.709C46.4087 127.995 47.4552 129.041 48.7412 129.041C50.0272 129.041 51.0737 127.995 51.0737 126.709C51.0737 125.423 50.0272 124.376 48.7412 124.376Z" fill="#979797"/>
<path fill-rule="evenodd" clip-rule="evenodd" d="M39.2251 128.542C38.2136 128.542 37.3911 127.719 37.3911 126.709C37.3911 125.698 38.2136 124.875 39.2251 124.875C40.2356 124.875 41.0581 125.698 41.0581 126.709C41.0581 127.719 40.2356 128.542 39.2251 128.542ZM39.2251 124.376C37.9391 124.376 36.8921 125.423 36.8921 126.709C36.8921 127.995 37.9391 129.041 39.2251 129.041C40.5111 129.041 41.5576 127.995 41.5576 126.709C41.5576 125.423 40.5111 124.376 39.2251 124.376Z" fill="#979797"/>
<path fill-rule="evenodd" clip-rule="evenodd" d="M29.708 128.542C28.697 128.542 27.8745 127.719 27.8745 126.709C27.8745 125.698 28.697 124.875 29.708 124.875C30.719 124.875 31.5415 125.698 31.5415 126.709C31.5415 127.719 30.719 128.542 29.708 128.542ZM29.708 124.376C28.422 124.376 27.3755 125.423 27.3755 126.709C27.3755 127.995 28.422 129.041 29.708 129.041C30.994 129.041 32.0405 127.995 32.0405 126.709C32.0405 125.423 30.994 124.376 29.708 124.376Z" fill="#979797"/>
<path fill-rule="evenodd" clip-rule="evenodd" d="M104.576 24.2677L109.168 19.6862L108.923 19.4422L108.902 19.4622L108.883 19.4422L59.8685 68.3407L60.1135 68.5852L104.556 24.2472L104.576 24.2677Z" fill="#979797"/>
<path fill-rule="evenodd" clip-rule="evenodd" d="M104.576 39.0532L124.003 19.6727L123.757 19.4282L108.916 34.2342L108.896 34.2137L74.6899 68.3397L74.9349 68.5847L104.556 39.0332L104.576 39.0532Z" fill="#979797"/>
<path fill-rule="evenodd" clip-rule="evenodd" d="M104.576 53.8395L138.837 19.6595L138.592 19.415L108.93 49.0065L108.91 48.9865L89.5099 68.34L89.7549 68.5845L104.556 53.8195L104.576 53.8395Z" fill="#979797"/>
<path fill-rule="evenodd" clip-rule="evenodd" d="M153.386 19.442L108.944 63.7795L108.923 63.759L104.331 68.3405L104.576 68.585L104.597 68.5645L104.617 68.585L153.631 19.686L153.386 19.442Z" fill="#979797"/>
<path fill-rule="evenodd" clip-rule="evenodd" d="M119.193 68.34L119.438 68.5845L153.645 34.4585L153.4 34.214L119.193 68.34Z" fill="#979797"/>
<path fill-rule="evenodd" clip-rule="evenodd" d="M134.013 68.3405L134.258 68.585L153.658 49.231L153.413 48.9865L134.013 68.3405Z" fill="#979797"/>
<path fill-rule="evenodd" clip-rule="evenodd" d="M148.834 68.3405L149.079 68.5845L153.671 64.0035L153.426 63.759L148.834 68.3405Z" fill="#979797"/>
<path fill-rule="evenodd" clip-rule="evenodd" d="M64.665 19.6861L64.4205 19.4421L59.828 24.0231L60.0725 24.2676L64.665 19.6861Z" fill="#979797"/>
<path fill-rule="evenodd" clip-rule="evenodd" d="M79.4995 19.6727L79.2545 19.4282L59.828 38.8082L60.0725 39.0532L79.4995 19.6727Z" fill="#979797"/>
<path fill-rule="evenodd" clip-rule="evenodd" d="M94.334 19.6592L94.0895 19.4152L59.828 53.5947L60.0735 53.8387L94.334 19.6592Z" fill="#979797"/>
<path fill-rule="evenodd" clip-rule="evenodd" d="M594.5 43.8059H471.5V44.1941H594.5V43.8059Z" fill="#979797"/>
<path fill-rule="evenodd" clip-rule="evenodd" d="M482.5 155.806H370.5V156.194H482.5V155.806Z" fill="#979797"/>
<path fill-rule="evenodd" clip-rule="evenodd" d="M433.5 143.806H368.5V144.194H433.5V143.806Z" fill="#979797"/>
<path fill-rule="evenodd" clip-rule="evenodd" d="M426.5 97.5H479.5C508.725 97.5 532.501 121.276 532.501 150.5C532.501 179.725 508.725 203.501 479.5 203.501H373C343.775 203.501 320 179.725 320 150.5V97.5H426.5ZM320 -9.00101H373H426V97.001H320V-9.00101ZM320 -62.5005V-115.501H479.5C508.725 -115.501 532.501 -91.725 532.501 -62.5C532.501 -33.276 508.725 -9.5 479.5 -9.5H426.5H373C343.775 -9.5 320 -33.276 320 -62.5005ZM533 -115.501H638.648L533 -9.81V-115.501ZM533.396 -9.5L639 -115.147V-9.5H533.396ZM486.794 -9.5C510.469 -12.7415 529.259 -31.531 532.501 -55.207V-9.5H486.794ZM426.499 36.7065V-9.00101H472.206C448.531 -5.759 429.741 13.0305 426.499 36.7065ZM472.207 97.001H426.499V51.2935C429.741 74.9695 448.531 93.759 472.207 97.001ZM639 43.9995C639 73.2245 615.225 97.001 586 97.001H479.5C450.275 97.001 426.499 73.2245 426.499 44C426.499 14.7755 450.275 -9.00101 479.5 -9.00101H532.501H639V43.9995ZM532.751 145.342C530.379 120.667 511.177 100.839 486.794 97.5H578.707C554.323 100.839 535.121 120.667 532.751 145.342ZM639 97.5V150.5C639 179.725 615.225 203.501 586 203.501C556.776 203.501 533 179.725 533 150.5C533 121.276 556.776 97.5 586 97.5H639ZM373 204H479.5C507.26 204 530.147 182.747 532.751 155.658C535.354 182.747 558.24 204 586 204C615.5 204 639.5 180 639.5 150.5V97.001H593.293C619.355 93.4325 639.5 71.026 639.5 43.9995V-9.00101V-9.5V-116H532.501V-69.7935C528.932 -95.855 506.526 -116 479.5 -116H319.5V-62.5005C319.5 -35.4745 339.645 -13.0685 365.707 -9.5H319.5V97.001V97.5V150.5C319.5 180 343.5 204 373 204Z" fill="#979797"/>
<path fill-rule="evenodd" clip-rule="evenodd" d="M396.792 69.625C395.781 69.625 394.958 68.8025 394.958 67.792C394.958 66.781 395.781 65.9585 396.792 65.9585C397.802 65.9585 398.625 66.781 398.625 67.792C398.625 68.8025 397.802 69.625 396.792 69.625ZM396.792 65.459C395.506 65.459 394.459 66.506 394.459 67.792C394.459 69.078 395.506 70.124 396.792 70.124C398.078 70.124 399.124 69.078 399.124 67.792C399.124 66.506 398.078 65.459 396.792 65.459Z" fill="#979797"/>
<path fill-rule="evenodd" clip-rule="evenodd" d="M387.275 69.625C386.264 69.625 385.441 68.8025 385.441 67.792C385.441 66.781 386.264 65.9585 387.275 65.9585C388.285 65.9585 389.108 66.781 389.108 67.792C389.108 68.8025 388.285 69.625 387.275 69.625ZM387.275 65.459C385.989 65.459 384.942 66.506 384.942 67.792C384.942 69.078 385.989 70.124 387.275 70.124C388.561 70.124 389.607 69.078 389.607 67.792C389.607 66.506 388.561 65.459 387.275 65.459Z" fill="#979797"/>
<path fill-rule="evenodd" clip-rule="evenodd" d="M377.758 69.625C376.747 69.625 375.924 68.8025 375.924 67.792C375.924 66.781 376.747 65.9585 377.758 65.9585C378.769 65.9585 379.591 66.781 379.591 67.792C379.591 68.8025 378.769 69.625 377.758 69.625ZM377.758 65.459C376.472 65.459 375.425 66.506 375.425 67.792C375.425 69.078 376.472 70.124 377.758 70.124C379.044 70.124 380.091 69.078 380.091 67.792C380.091 66.506 379.044 65.459 377.758 65.459Z" fill="#979797"/>
<path fill-rule="evenodd" clip-rule="evenodd" d="M368.241 69.625C367.23 69.625 366.408 68.8025 366.408 67.792C366.408 66.781 367.23 65.9585 368.241 65.9585C369.252 65.9585 370.075 66.781 370.075 67.792C370.075 68.8025 369.252 69.625 368.241 69.625ZM368.241 65.459C366.955 65.459 365.909 66.506 365.909 67.792C365.909 69.078 366.955 70.124 368.241 70.124C369.527 70.124 370.574 69.078 370.574 67.792C370.574 66.506 369.527 65.459 368.241 65.459Z" fill="#979797"/>
<path fill-rule="evenodd" clip-rule="evenodd" d="M358.725 69.625C357.714 69.625 356.891 68.8025 356.891 67.792C356.891 66.781 357.714 65.9585 358.725 65.9585C359.736 65.9585 360.558 66.781 360.558 67.792C360.558 68.8025 359.736 69.625 358.725 69.625ZM358.725 65.459C357.439 65.459 356.392 66.506 356.392 67.792C356.392 69.078 357.439 70.124 358.725 70.124C360.011 70.124 361.058 69.078 361.058 67.792C361.058 66.506 360.011 65.459 358.725 65.459Z" fill="#979797"/>
<path fill-rule="evenodd" clip-rule="evenodd" d="M349.208 69.625C348.197 69.625 347.375 68.8025 347.375 67.792C347.375 66.781 348.197 65.9585 349.208 65.9585C350.219 65.9585 351.042 66.781 351.042 67.792C351.042 68.8025 350.219 69.625 349.208 69.625ZM349.208 65.459C347.922 65.459 346.876 66.506 346.876 67.792C346.876 69.078 347.922 70.124 349.208 70.124C350.494 70.124 351.541 69.078 351.541 67.792C351.541 66.506 350.494 65.459 349.208 65.459Z" fill="#979797"/>
<path fill-rule="evenodd" clip-rule="evenodd" d="M396.792 60.1084C395.781 60.1084 394.958 59.2859 394.958 58.2749C394.958 57.2639 395.781 56.4414 396.792 56.4414C397.802 56.4414 398.625 57.2639 398.625 58.2749C398.625 59.2859 397.802 60.1084 396.792 60.1084ZM396.792 55.9424C395.506 55.9424 394.459 56.9894 394.459 58.2749C394.459 59.5609 395.506 60.6079 396.792 60.6079C398.078 60.6079 399.124 59.5609 399.124 58.2749C399.124 56.9894 398.078 55.9424 396.792 55.9424Z" fill="#979797"/>
<path fill-rule="evenodd" clip-rule="evenodd" d="M387.275 60.1084C386.264 60.1084 385.441 59.2859 385.441 58.2749C385.441 57.2639 386.264 56.4414 387.275 56.4414C388.285 56.4414 389.108 57.2639 389.108 58.2749C389.108 59.2859 388.285 60.1084 387.275 60.1084ZM387.275 55.9424C385.989 55.9424 384.942 56.9894 384.942 58.2749C384.942 59.5609 385.989 60.6079 387.275 60.6079C388.561 60.6079 389.607 59.5609 389.607 58.2749C389.607 56.9894 388.561 55.9424 387.275 55.9424Z" fill="#979797"/>
<path fill-rule="evenodd" clip-rule="evenodd" d="M377.758 60.1084C376.747 60.1084 375.924 59.2859 375.924 58.2749C375.924 57.2639 376.747 56.4414 377.758 56.4414C378.769 56.4414 379.591 57.2639 379.591 58.2749C379.591 59.2859 378.769 60.1084 377.758 60.1084ZM377.758 55.9424C376.472 55.9424 375.425 56.9894 375.425 58.2749C375.425 59.5609 376.472 60.6079 377.758 60.6079C379.044 60.6079 380.091 59.5609 380.091 58.2749C380.091 56.9894 379.044 55.9424 377.758 55.9424Z" fill="#979797"/>
<path fill-rule="evenodd" clip-rule="evenodd" d="M368.241 60.1084C367.23 60.1084 366.408 59.2859 366.408 58.2749C366.408 57.2639 367.23 56.4414 368.241 56.4414C369.252 56.4414 370.075 57.2639 370.075 58.2749C370.075 59.2859 369.252 60.1084 368.241 60.1084ZM368.241 55.9424C366.955 55.9424 365.909 56.9894 365.909 58.2749C365.909 59.5609 366.955 60.6079 368.241 60.6079C369.527 60.6079 370.574 59.5609 370.574 58.2749C370.574 56.9894 369.527 55.9424 368.241 55.9424Z" fill="#979797"/>
<path fill-rule="evenodd" clip-rule="evenodd" d="M358.725 60.1084C357.714 60.1084 356.891 59.2859 356.891 58.2749C356.891 57.2639 357.714 56.4414 358.725 56.4414C359.736 56.4414 360.558 57.2639 360.558 58.2749C360.558 59.2859 359.736 60.1084 358.725 60.1084ZM358.725 55.9424C357.439 55.9424 356.392 56.9894 356.392 58.2749C356.392 59.5609 357.439 60.6079 358.725 60.6079C360.011 60.6079 361.058 59.5609 361.058 58.2749C361.058 56.9894 360.011 55.9424 358.725 55.9424Z" fill="#979797"/>
<path fill-rule="evenodd" clip-rule="evenodd" d="M349.208 60.1084C348.197 60.1084 347.375 59.2859 347.375 58.2749C347.375 57.2639 348.197 56.4414 349.208 56.4414C350.219 56.4414 351.042 57.2639 351.042 58.2749C351.042 59.2859 350.219 60.1084 349.208 60.1084ZM349.208 55.9424C347.922 55.9424 346.876 56.9894 346.876 58.2749C346.876 59.5609 347.922 60.6079 349.208 60.6079C350.494 60.6079 351.541 59.5609 351.541 58.2749C351.541 56.9894 350.494 55.9424 349.208 55.9424Z" fill="#979797"/>
<path fill-rule="evenodd" clip-rule="evenodd" d="M396.792 50.5918C395.781 50.5918 394.958 49.7693 394.958 48.7583C394.958 47.7473 395.781 46.9248 396.792 46.9248C397.802 46.9248 398.625 47.7473 398.625 48.7583C398.625 49.7693 397.802 50.5918 396.792 50.5918ZM396.792 46.4253C395.506 46.4253 394.459 47.4723 394.459 48.7583C394.459 50.0443 395.506 51.0908 396.792 51.0908C398.078 51.0908 399.124 50.0443 399.124 48.7583C399.124 47.4723 398.078 46.4253 396.792 46.4253Z" fill="#979797"/>
<path fill-rule="evenodd" clip-rule="evenodd" d="M387.275 50.5918C386.264 50.5918 385.441 49.7693 385.441 48.7583C385.441 47.7473 386.264 46.9248 387.275 46.9248C388.285 46.9248 389.108 47.7473 389.108 48.7583C389.108 49.7693 388.285 50.5918 387.275 50.5918ZM387.275 46.4253C385.989 46.4253 384.942 47.4723 384.942 48.7583C384.942 50.0443 385.989 51.0908 387.275 51.0908C388.561 51.0908 389.607 50.0443 389.607 48.7583C389.607 47.4723 388.561 46.4253 387.275 46.4253Z" fill="#979797"/>
<path fill-rule="evenodd" clip-rule="evenodd" d="M377.758 50.5918C376.747 50.5918 375.924 49.7693 375.924 48.7583C375.924 47.7473 376.747 46.9248 377.758 46.9248C378.769 46.9248 379.591 47.7473 379.591 48.7583C379.591 49.7693 378.769 50.5918 377.758 50.5918ZM377.758 46.4253C376.472 46.4253 375.425 47.4723 375.425 48.7583C375.425 50.0443 376.472 51.0908 377.758 51.0908C379.044 51.0908 380.091 50.0443 380.091 48.7583C380.091 47.4723 379.044 46.4253 377.758 46.4253Z" fill="#979797"/>
<path fill-rule="evenodd" clip-rule="evenodd" d="M368.241 50.5918C367.23 50.5918 366.408 49.7693 366.408 48.7583C366.408 47.7473 367.23 46.9248 368.241 46.9248C369.252 46.9248 370.075 47.7473 370.075 48.7583C370.075 49.7693 369.252 50.5918 368.241 50.5918ZM368.241 46.4253C366.955 46.4253 365.909 47.4723 365.909 48.7583C365.909 50.0443 366.955 51.0908 368.241 51.0908C369.527 51.0908 370.574 50.0443 370.574 48.7583C370.574 47.4723 369.527 46.4253 368.241 46.4253Z" fill="#979797"/>
<path fill-rule="evenodd" clip-rule="evenodd" d="M358.725 50.5918C357.714 50.5918 356.891 49.7693 356.891 48.7583C356.891 47.7473 357.714 46.9248 358.725 46.9248C359.736 46.9248 360.558 47.7473 360.558 48.7583C360.558 49.7693 359.736 50.5918 358.725 50.5918ZM358.725 46.4253C357.439 46.4253 356.392 47.4723 356.392 48.7583C356.392 50.0443 357.439 51.0908 358.725 51.0908C360.011 51.0908 361.058 50.0443 361.058 48.7583C361.058 47.4723 360.011 46.4253 358.725 46.4253Z" fill="#979797"/>
<path fill-rule="evenodd" clip-rule="evenodd" d="M349.208 50.5918C348.197 50.5918 347.375 49.7693 347.375 48.7583C347.375 47.7473 348.197 46.9248 349.208 46.9248C350.219 46.9248 351.042 47.7473 351.042 48.7583C351.042 49.7693 350.219 50.5918 349.208 50.5918ZM349.208 46.4253C347.922 46.4253 346.876 47.4723 346.876 48.7583C346.876 50.0443 347.922 51.0908 349.208 51.0908C350.494 51.0908 351.541 50.0443 351.541 48.7583C351.541 47.4723 350.494 46.4253 349.208 46.4253Z" fill="#979797"/>
<path fill-rule="evenodd" clip-rule="evenodd" d="M396.792 41.0752C395.781 41.0752 394.958 40.2527 394.958 39.2417C394.958 38.2307 395.781 37.4082 396.792 37.4082C397.802 37.4082 398.625 38.2307 398.625 39.2417C398.625 40.2527 397.802 41.0752 396.792 41.0752ZM396.792 36.9092C395.506 36.9092 394.459 37.9562 394.459 39.2417C394.459 40.5277 395.506 41.5747 396.792 41.5747C398.078 41.5747 399.124 40.5277 399.124 39.2417C399.124 37.9562 398.078 36.9092 396.792 36.9092Z" fill="#979797"/>
<path fill-rule="evenodd" clip-rule="evenodd" d="M387.275 41.0752C386.264 41.0752 385.441 40.2527 385.441 39.2417C385.441 38.2307 386.264 37.4082 387.275 37.4082C388.285 37.4082 389.108 38.2307 389.108 39.2417C389.108 40.2527 388.285 41.0752 387.275 41.0752ZM387.275 36.9092C385.989 36.9092 384.942 37.9562 384.942 39.2417C384.942 40.5277 385.989 41.5747 387.275 41.5747C388.561 41.5747 389.607 40.5277 389.607 39.2417C389.607 37.9562 388.561 36.9092 387.275 36.9092Z" fill="#979797"/>
<path fill-rule="evenodd" clip-rule="evenodd" d="M377.758 41.0752C376.747 41.0752 375.924 40.2527 375.924 39.2417C375.924 38.2307 376.747 37.4082 377.758 37.4082C378.769 37.4082 379.591 38.2307 379.591 39.2417C379.591 40.2527 378.769 41.0752 377.758 41.0752ZM377.758 36.9092C376.472 36.9092 375.425 37.9562 375.425 39.2417C375.425 40.5277 376.472 41.5747 377.758 41.5747C379.044 41.5747 380.091 40.5277 380.091 39.2417C380.091 37.9562 379.044 36.9092 377.758 36.9092Z" fill="#979797"/>
<path fill-rule="evenodd" clip-rule="evenodd" d="M368.241 41.0752C367.23 41.0752 366.408 40.2527 366.408 39.2417C366.408 38.2307 367.23 37.4082 368.241 37.4082C369.252 37.4082 370.075 38.2307 370.075 39.2417C370.075 40.2527 369.252 41.0752 368.241 41.0752ZM368.241 36.9092C366.955 36.9092 365.909 37.9562 365.909 39.2417C365.909 40.5277 366.955 41.5747 368.241 41.5747C369.527 41.5747 370.574 40.5277 370.574 39.2417C370.574 37.9562 369.527 36.9092 368.241 36.9092Z" fill="#979797"/>
<path fill-rule="evenodd" clip-rule="evenodd" d="M358.725 41.0752C357.714 41.0752 356.891 40.2527 356.891 39.2417C356.891 38.2307 357.714 37.4082 358.725 37.4082C359.736 37.4082 360.558 38.2307 360.558 39.2417C360.558 40.2527 359.736 41.0752 358.725 41.0752ZM358.725 36.9092C357.439 36.9092 356.392 37.9562 356.392 39.2417C356.392 40.5277 357.439 41.5747 358.725 41.5747C360.011 41.5747 361.058 40.5277 361.058 39.2417C361.058 37.9562 360.011 36.9092 358.725 36.9092Z" fill="#979797"/>
<path fill-rule="evenodd" clip-rule="evenodd" d="M349.208 41.0752C348.197 41.0752 347.375 40.2527 347.375 39.2417C347.375 38.2307 348.197 37.4082 349.208 37.4082C350.219 37.4082 351.042 38.2307 351.042 39.2417C351.042 40.2527 350.219 41.0752 349.208 41.0752ZM349.208 36.9092C347.922 36.9092 346.876 37.9562 346.876 39.2417C346.876 40.5277 347.922 41.5747 349.208 41.5747C350.494 41.5747 351.541 40.5277 351.541 39.2417C351.541 37.9562 350.494 36.9092 349.208 36.9092Z" fill="#979797"/>
<path fill-rule="evenodd" clip-rule="evenodd" d="M396.792 31.5586C395.781 31.5586 394.958 30.7361 394.958 29.7251C394.958 28.7141 395.781 27.8916 396.792 27.8916C397.802 27.8916 398.625 28.7141 398.625 29.7251C398.625 30.7361 397.802 31.5586 396.792 31.5586ZM396.792 27.3921C395.506 27.3921 394.459 28.4391 394.459 29.7251C394.459 31.0106 395.506 32.0576 396.792 32.0576C398.078 32.0576 399.124 31.0106 399.124 29.7251C399.124 28.4391 398.078 27.3921 396.792 27.3921Z" fill="#979797"/>
<path fill-rule="evenodd" clip-rule="evenodd" d="M387.275 31.5586C386.264 31.5586 385.441 30.7361 385.441 29.7251C385.441 28.7141 386.264 27.8916 387.275 27.8916C388.285 27.8916 389.108 28.7141 389.108 29.7251C389.108 30.7361 388.285 31.5586 387.275 31.5586ZM387.275 27.3921C385.989 27.3921 384.942 28.4391 384.942 29.7251C384.942 31.0106 385.989 32.0576 387.275 32.0576C388.561 32.0576 389.607 31.0106 389.607 29.7251C389.607 28.4391 388.561 27.3921 387.275 27.3921Z" fill="#979797"/>
<path fill-rule="evenodd" clip-rule="evenodd" d="M377.758 31.5586C376.747 31.5586 375.924 30.7361 375.924 29.7251C375.924 28.7141 376.747 27.8916 377.758 27.8916C378.769 27.8916 379.591 28.7141 379.591 29.7251C379.591 30.7361 378.769 31.5586 377.758 31.5586ZM377.758 27.3921C376.472 27.3921 375.425 28.4391 375.425 29.7251C375.425 31.0106 376.472 32.0576 377.758 32.0576C379.044 32.0576 380.091 31.0106 380.091 29.7251C380.091 28.4391 379.044 27.3921 377.758 27.3921Z" fill="#979797"/>
<path fill-rule="evenodd" clip-rule="evenodd" d="M368.241 31.5586C367.23 31.5586 366.408 30.7361 366.408 29.7251C366.408 28.7141 367.23 27.8916 368.241 27.8916C369.252 27.8916 370.075 28.7141 370.075 29.7251C370.075 30.7361 369.252 31.5586 368.241 31.5586ZM368.241 27.3921C366.955 27.3921 365.909 28.4391 365.909 29.7251C365.909 31.0106 366.955 32.0576 368.241 32.0576C369.527 32.0576 370.574 31.0106 370.574 29.7251C370.574 28.4391 369.527 27.3921 368.241 27.3921Z" fill="#979797"/>
<path fill-rule="evenodd" clip-rule="evenodd" d="M358.725 31.5586C357.714 31.5586 356.891 30.7361 356.891 29.7251C356.891 28.7141 357.714 27.8916 358.725 27.8916C359.736 27.8916 360.558 28.7141 360.558 29.7251C360.558 30.7361 359.736 31.5586 358.725 31.5586ZM358.725 27.3921C357.439 27.3921 356.392 28.4391 356.392 29.7251C356.392 31.0106 357.439 32.0576 358.725 32.0576C360.011 32.0576 361.058 31.0106 361.058 29.7251C361.058 28.4391 360.011 27.3921 358.725 27.3921Z" fill="#979797"/>
<path fill-rule="evenodd" clip-rule="evenodd" d="M349.208 31.5586C348.197 31.5586 347.375 30.7361 347.375 29.7251C347.375 28.7141 348.197 27.8916 349.208 27.8916C350.219 27.8916 351.042 28.7141 351.042 29.7251C351.042 30.7361 350.219 31.5586 349.208 31.5586ZM349.208 27.3921C347.922 27.3921 346.876 28.4391 346.876 29.7251C346.876 31.0106 347.922 32.0576 349.208 32.0576C350.494 32.0576 351.541 31.0106 351.541 29.7251C351.541 28.4391 350.494 27.3921 349.208 27.3921Z" fill="#979797"/>
<path fill-rule="evenodd" clip-rule="evenodd" d="M396.792 22.0415C395.781 22.0415 394.958 21.219 394.958 20.2085C394.958 19.1975 395.781 18.375 396.792 18.375C397.802 18.375 398.625 19.1975 398.625 20.2085C398.625 21.219 397.802 22.0415 396.792 22.0415ZM396.792 17.876C395.506 17.876 394.459 18.9225 394.459 20.2085C394.459 21.4945 395.506 22.541 396.792 22.541C398.078 22.541 399.124 21.4945 399.124 20.2085C399.124 18.9225 398.078 17.876 396.792 17.876Z" fill="#979797"/>
<path fill-rule="evenodd" clip-rule="evenodd" d="M387.275 22.0415C386.264 22.0415 385.441 21.219 385.441 20.2085C385.441 19.1975 386.264 18.375 387.275 18.375C388.285 18.375 389.108 19.1975 389.108 20.2085C389.108 21.219 388.285 22.0415 387.275 22.0415ZM387.275 17.876C385.989 17.876 384.942 18.9225 384.942 20.2085C384.942 21.4945 385.989 22.541 387.275 22.541C388.561 22.541 389.607 21.4945 389.607 20.2085C389.607 18.9225 388.561 17.876 387.275 17.876Z" fill="#979797"/>
<path fill-rule="evenodd" clip-rule="evenodd" d="M377.758 22.0415C376.747 22.0415 375.924 21.219 375.924 20.2085C375.924 19.1975 376.747 18.375 377.758 18.375C378.769 18.375 379.591 19.1975 379.591 20.2085C379.591 21.219 378.769 22.0415 377.758 22.0415ZM377.758 17.876C376.472 17.876 375.425 18.9225 375.425 20.2085C375.425 21.4945 376.472 22.541 377.758 22.541C379.044 22.541 380.091 21.4945 380.091 20.2085C380.091 18.9225 379.044 17.876 377.758 17.876Z" fill="#979797"/>
<path fill-rule="evenodd" clip-rule="evenodd" d="M368.241 22.0415C367.23 22.0415 366.408 21.219 366.408 20.2085C366.408 19.1975 367.23 18.375 368.241 18.375C369.252 18.375 370.075 19.1975 370.075 20.2085C370.075 21.219 369.252 22.0415 368.241 22.0415ZM368.241 17.876C366.955 17.876 365.909 18.9225 365.909 20.2085C365.909 21.4945 366.955 22.541 368.241 22.541C369.527 22.541 370.574 21.4945 370.574 20.2085C370.574 18.9225 369.527 17.876 368.241 17.876Z" fill="#979797"/>
<path fill-rule="evenodd" clip-rule="evenodd" d="M358.725 22.0415C357.714 22.0415 356.891 21.219 356.891 20.2085C356.891 19.1975 357.714 18.375 358.725 18.375C359.736 18.375 360.558 19.1975 360.558 20.2085C360.558 21.219 359.736 22.0415 358.725 22.0415ZM358.725 17.876C357.439 17.876 356.392 18.9225 356.392 20.2085C356.392 21.4945 357.439 22.541 358.725 22.541C360.011 22.541 361.058 21.4945 361.058 20.2085C361.058 18.9225 360.011 17.876 358.725 17.876Z" fill="#979797"/>
<path fill-rule="evenodd" clip-rule="evenodd" d="M349.208 22.0415C348.197 22.0415 347.375 21.219 347.375 20.2085C347.375 19.1975 348.197 18.375 349.208 18.375C350.219 18.375 351.042 19.1975 351.042 20.2085C351.042 21.219 350.219 22.0415 349.208 22.0415ZM349.208 17.876C347.922 17.876 346.876 18.9225 346.876 20.2085C346.876 21.4945 347.922 22.541 349.208 22.541C350.494 22.541 351.541 21.4945 351.541 20.2085C351.541 18.9225 350.494 17.876 349.208 17.876Z" fill="#979797"/>
</svg>
