<svg width="325" height="254" viewBox="0 0 325 254" fill="none" xmlns="http://www.w3.org/2000/svg">
<g clip-path="url(#clip0)">
<path opacity="0.1" d="M114.004 249.081C145.314 249.081 170.696 244.278 170.696 238.354C170.696 232.43 145.314 227.627 114.004 227.627C82.6942 227.627 57.3125 232.43 57.3125 238.354C57.3125 244.278 82.6942 249.081 114.004 249.081Z" fill="#F1563C"/>
<path opacity="0.1" d="M188.827 35.8213C167.991 35.101 148.148 28.3807 129.199 21.0301C110.25 13.6795 91.4819 5.53792 71.1456 1.64398C58.0657 -0.860877 43.1056 -1.2178 32.5689 5.77908C22.4249 12.5316 19.1477 24.1555 17.3867 34.9499C16.0604 43.0722 15.2813 51.6221 18.9127 59.2267C21.4366 64.5065 25.9114 68.9439 29.0084 74.0018C39.7833 91.5969 32.1665 113.295 20.4934 130.475C15.0206 138.533 8.66247 146.231 4.43555 154.8C0.208623 163.37 -1.74548 173.222 1.95348 181.987C5.61703 190.669 14.351 197.177 23.8124 201.759C43.0284 211.068 65.6632 213.73 87.7507 215.242C136.629 218.579 185.765 217.135 234.772 215.685C252.91 215.152 271.125 214.608 288.966 211.807C298.875 210.251 309.103 207.782 316.298 201.82C325.428 194.254 327.691 181.444 321.571 171.958C311.308 156.041 282.939 152.09 275.757 135.012C271.81 125.61 275.863 115.141 281.603 106.423C293.914 87.719 314.546 71.3105 315.631 49.934C316.378 35.2521 306.459 20.5478 291.123 13.5991C275.049 6.31606 252.755 7.23247 240.902 19.2873C228.685 31.6862 207.225 36.4611 188.827 35.8213Z" fill="#F1563C"/>
<path d="M172.271 116.317L162.41 109.677L167.384 102.281L141.34 100.207L131.981 107.436L120.266 100.876L110.496 102.05L110.38 99.4775C110.259 96.7958 109.989 94.1229 109.572 91.471C109.614 90.6671 109.643 89.7443 109.64 88.7411C109.64 84.5127 109.067 78.9081 106.549 75.1717L107.129 69.9691L102.428 64.4224C103.183 62.9207 104.044 61.4743 105.004 60.0944C105.165 59.8629 105.326 59.6378 105.5 59.4191C111.6 58.9786 116.413 53.9689 116.413 47.8434C116.413 47.5605 116.413 47.2775 116.381 46.9978C116.381 46.8852 116.358 46.7695 116.345 46.6569C116.941 46.9785 117.543 47.3 118.145 47.6216C118.258 47.7823 118.386 47.9431 118.528 48.1328L118.557 48.1682L118.737 48.3901L118.795 48.4576C118.86 48.5348 118.927 48.6087 118.995 48.6859L119.04 48.7373C119.21 48.927 119.391 49.12 119.584 49.3097C119.607 49.3284 119.628 49.3488 119.648 49.3708L119.89 49.5959L119.957 49.657C120.163 49.8402 120.382 50.0171 120.601 50.1843L120.672 50.2357L120.949 50.4255L121.039 50.4833C121.145 50.5476 121.255 50.6152 121.361 50.6763L121.4 50.6988C121.525 50.7663 121.654 50.8306 121.783 50.8917L121.847 50.9174C121.957 50.9646 122.064 51.0096 122.169 51.0525L122.269 51.0878C122.381 51.1264 122.491 51.1618 122.607 51.194L122.678 51.2132C122.819 51.2486 122.961 51.2776 123.106 51.3001H123.122C123.258 51.3221 123.396 51.3361 123.534 51.3419H123.627C123.751 51.3483 123.874 51.3483 123.998 51.3419H124.078C124.232 51.333 124.386 51.3147 124.538 51.2872C125.259 51.1926 125.95 50.9448 126.567 50.5605C126.723 50.4557 126.863 50.3265 126.979 50.1779C127.622 49.3354 126.914 48.4126 126.914 48.4126C126.663 47.8145 125.034 47.3933 125.034 47.3933C125.034 47.3933 119.883 45.2453 119.883 43.5347C119.883 41.8241 118.596 32.9494 105.303 30.9204C105.303 30.9204 96.6562 30.4349 94.2256 35.0587L94.1741 35.5989C93.4594 36.0459 92.8671 36.943 92.162 37.2066C91.8574 37.272 91.5637 37.3803 91.2896 37.5282V37.4671C91.2082 37.5382 91.1415 37.6245 91.0932 37.7211C90.9418 38.0221 90.851 38.3498 90.826 38.6858C90.7535 39.0961 90.6108 39.4909 90.4043 39.853C90.3467 39.9559 90.2822 40.0547 90.2112 40.1488L90.1564 40.2356C90.5302 40.2647 90.9055 40.2041 91.251 40.0588C91.1965 40.499 91.0884 40.9309 90.929 41.345C91.1337 41.3516 91.3359 41.2993 91.5117 41.1944C91.6875 41.0895 91.8294 40.9364 91.9206 40.7533V40.7276L91.9624 40.6697C92.0434 40.5209 92.1102 40.3648 92.162 40.2035L92.1266 40.242C92.191 40.033 92.249 39.8208 92.3198 39.615C92.3522 39.4991 92.4057 39.3901 92.4775 39.2935C92.5634 39.207 92.6685 39.1418 92.7843 39.1033C92.9 39.0647 93.0232 39.0539 93.1439 39.0716L93.0119 41.8594H93.0699C92.9923 42.0622 92.8976 42.258 92.7866 42.4446C92.3294 43.1842 91.4989 43.689 91.193 44.4993C91.0612 44.8902 91.0108 45.3038 91.0449 45.7148C91.0449 45.9559 91.0739 46.2003 91.0932 46.4415V46.4222C91.1383 47.0653 91.1512 47.6762 90.8035 48.1939C90.5653 48.5476 90.1822 48.8145 90.0502 49.2164C90.0137 49.3284 89.9973 49.446 90.0019 49.5637C90.0277 49.9161 90.1014 50.2633 90.2208 50.5959C90.2222 50.5895 90.2222 50.5829 90.2208 50.5766C90.3011 50.8212 90.3199 51.0818 90.2755 51.3354C90.1307 51.9785 89.3484 52.5155 89.387 53.1297C89.3848 53.2104 89.3968 53.291 89.4224 53.3676C89.5729 53.6676 89.8336 53.898 90.15 54.0107C90.6463 54.2926 91.2164 54.4182 91.7854 54.3708C91.9986 54.3324 92.2049 54.2619 92.397 54.1618C92.1717 54.6795 91.9399 55.1908 91.7049 55.6763C91.6695 55.7535 91.6308 55.8307 91.5922 55.9078C91.5922 55.9078 89.6027 54.5799 88.4727 57.2873C88.1429 57.8499 87.9069 58.4624 87.7741 59.1008C87.7175 59.3562 87.6378 59.6059 87.5359 59.8468C87.0343 60.6951 86.2835 61.3686 85.3854 61.7761C83.0804 62.8308 73.7702 74.429 73.6061 77.4322C73.5255 78.6046 73.327 79.7658 73.0137 80.8985C72.2808 83.5659 72.0925 86.3532 72.46 89.0948C72.575 89.9808 72.7657 90.8553 73.0298 91.7089C74.0181 94.709 74.6781 100.307 74.6781 100.307L75.7469 110.024C75.7072 111.365 75.7653 112.708 75.9207 114.04C74.8294 115.285 70.4479 120.471 72.122 121.883C73.4097 122.996 75.6632 122.812 76.9284 122.584C75.8628 125.217 74.1855 129.796 73.9634 132.941C73.6415 137.594 74.5139 143.758 75.895 146.124C77.276 148.491 81.8796 154.562 81.8796 154.562C81.8796 154.562 81.6639 162.89 83.309 165.916C84.9541 168.941 85.6172 175.218 85.6172 175.218C85.6172 175.218 87.1528 180.517 86.3834 182.466C85.614 184.414 87.8096 186.035 85.5045 187.331C83.1995 188.627 80.2507 217.833 80.2507 217.833C80.2507 217.833 79.0628 236.974 80.2507 237.949C80.3142 237.995 80.3822 238.035 80.4535 238.068V244.499C80.4535 244.499 79.6293 245.849 82.9806 246.122C85.276 246.306 91.7822 246.721 95.6421 246.962L98.6328 247.148C98.6328 247.148 105.715 248.557 108.844 247.148C111.974 245.74 117.52 245.772 116.696 242.052C116.587 241.545 116.441 241.048 116.258 240.563C115.354 238.254 113.818 237.991 110.988 237.347C110.824 237.312 110.667 237.28 110.522 237.254C107.541 236.736 106.562 238.122 104.891 236.318C103.439 234.759 98.8163 233.013 97.2421 232.46C97.2807 232.344 97.329 232.232 97.3676 232.113C96.9218 232.037 96.5072 231.835 96.1733 231.531L100.439 231.801L102.979 231.958C102.979 231.958 108.999 233.158 111.671 231.958C114.343 230.759 119.043 230.791 118.341 227.63C118.249 227.2 118.125 226.776 117.971 226.363C117.202 224.402 115.895 224.186 113.49 223.643C113.351 223.614 113.223 223.585 113.094 223.563C110.56 223.122 109.73 224.299 108.31 222.768C107.093 221.463 103.252 220 101.871 219.502C101.871 218.788 100.906 217.772 100.297 216.752C99.5825 215.563 100.902 211.399 100.902 211.399L101.656 194.122C101.943 193.994 102.246 193.908 102.557 193.865C102.557 193.865 105.963 190.617 105.194 187.157C105.037 186.111 104.955 185.054 104.949 183.996C106.069 182.958 107.611 181.424 108.049 180.479C108.764 178.938 108.049 171.475 108.049 171.475V142.938L113.747 143.513L118.918 144.044L120.492 144.205L125.662 144.726L137.544 145.925L148.252 143.899L152.884 143.025L162.41 141.224V117.944L172.271 116.317ZM93.8457 39.1745L93.1825 39.1038C93.4015 39.1134 93.6332 39.1552 93.8457 39.1745Z" fill="url(#paint0_linear)"/>
<path d="M149.159 131.433C145.94 136.034 134.367 133.597 134.367 133.597L125.398 125.214L124.19 124.079L126.215 119.783C126.215 119.783 126.859 119.96 127.963 120.275C133.761 121.957 151.876 127.565 149.159 131.433Z" fill="#EFB7B9"/>
<path opacity="0.1" d="M127.957 120.275C127.561 121.651 126.476 123.713 125.398 125.214L124.19 124.079L126.215 119.783C126.215 119.783 126.866 119.96 127.957 120.275Z" fill="black"/>
<path d="M97.1972 71.8304C97.1972 71.8304 88.9301 75.4928 89.3357 84.4865C89.6276 90.2807 90.2597 96.0527 91.2287 101.773C91.2287 101.773 89.5386 115.307 96.5759 118.796C103.613 122.284 110.126 125.153 110.126 125.153C110.126 125.153 121.136 126.336 122.504 126.825C123.872 127.313 128.147 119.841 127.359 118.677C126.57 117.513 116.465 115.072 115.177 113.13C113.889 111.188 110.911 109.988 110.911 109.988C110.911 109.988 107.837 108.13 107.628 106.451C107.418 104.773 108.23 103.522 108.436 102.786C108.642 102.049 109.163 94.94 109.163 94.94C109.163 94.94 112.634 69.6342 97.1972 71.8304Z" fill="#DCE6F2"/>
<path opacity="0.1" d="M102.654 101.403C102.654 101.403 91.312 103.3 92.4098 107.265C92.4098 107.265 96.5273 102.985 102.654 101.403Z" fill="black"/>
<path opacity="0.1" d="M102.74 103.008C102.74 103.008 96.5045 108.091 97.7247 108.352C98.9448 108.612 102.74 103.008 102.74 103.008Z" fill="black"/>
<path opacity="0.1" d="M105.737 104.779C105.737 104.779 104.067 108.197 105.094 107.966C106.12 107.734 105.737 104.779 105.737 104.779Z" fill="black"/>
<path opacity="0.1" d="M128.376 120.638L127.687 120.442C127.883 119.799 127.938 119.278 127.777 119.037C126.988 117.873 116.889 115.436 115.605 113.49C114.32 111.545 111.339 110.349 111.339 110.349C111.339 110.349 108.265 108.49 108.055 106.812C107.846 105.133 108.657 103.882 108.863 103.146C109.07 102.41 109.591 95.2972 109.591 95.2972C109.591 95.2972 113.052 69.9946 97.6153 72.1908C97.6153 72.1908 89.3481 75.8564 89.7506 84.8501C90.0425 90.6444 90.6757 96.4165 91.6467 102.136C91.6467 102.136 89.9566 115.67 96.994 119.159C104.031 122.648 110.544 125.516 110.544 125.516C110.544 125.516 121.551 126.696 122.922 127.188C123.44 127.375 124.377 126.413 125.295 125.092L125.816 125.577L134.785 133.957C134.785 133.957 146.358 136.397 149.578 131.796C152.298 127.925 134.186 122.317 128.376 120.638Z" fill="black"/>
<path d="M92.439 38.0749C92.1238 38.1364 91.822 38.2529 91.5472 38.419C91.2253 38.6858 91.2253 39.1424 91.1448 39.5412C91.0503 40.0958 90.8301 40.6215 90.501 41.0782C90.8673 41.105 91.2348 41.0444 91.573 40.9013C91.5179 41.3414 91.4098 41.7733 91.2511 42.1875C91.4517 42.1926 91.6495 42.1398 91.8208 42.0354C91.9921 41.9311 92.1296 41.7795 92.2169 41.5991C92.3872 41.2367 92.522 40.8588 92.6193 40.4704C92.6495 40.3543 92.702 40.2451 92.7738 40.1489C93.07 39.7984 93.6205 39.956 94.0776 40.001C94.4581 40.033 94.8402 39.9629 95.1843 39.7978C95.5285 39.6327 95.8222 39.3787 96.035 39.0621C96.5211 38.3257 96.55 36.4414 95.3911 36.2421C94.1806 36.0427 93.4273 37.7083 92.439 38.0749Z" fill="#965D7B"/>
<g opacity="0.1">
<path opacity="0.1" d="M91.5145 38.8141C91.5435 38.6565 91.5628 38.4925 91.5982 38.335C91.2924 38.6018 91.2763 39.0552 91.1958 39.4572C91.1552 39.6891 91.0916 39.9163 91.0059 40.1356C91.2593 39.7321 91.4321 39.2833 91.5145 38.8141Z" fill="black"/>
<path opacity="0.1" d="M91.6176 41.4703C91.7779 41.0565 91.8861 40.6245 91.9396 40.1841C91.6172 40.3196 91.2682 40.3801 90.919 40.3609C90.8174 40.5871 90.6934 40.8025 90.5488 41.004C90.9139 41.0322 91.2804 40.9727 91.6176 40.8304C91.5642 41.2708 91.456 41.7028 91.2957 42.1166C91.4962 42.1213 91.6939 42.0683 91.8651 41.964C92.0363 41.8597 92.1739 41.7084 92.2615 41.5281C92.3417 41.382 92.4064 41.2279 92.4546 41.0683C92.3602 41.2002 92.234 41.3061 92.0877 41.3764C91.9414 41.4466 91.7797 41.4789 91.6176 41.4703Z" fill="black"/>
<path opacity="0.1" d="M94.4441 39.2834C93.987 39.2384 93.4332 39.0808 93.1371 39.4313C93.0666 39.5283 93.0142 39.6372 92.9825 39.7529C92.9536 39.8365 92.9278 39.9233 92.9053 40.0101C93.2111 39.7689 93.7069 39.8976 94.1222 39.9394C94.5025 39.9704 94.8842 39.8998 95.2282 39.7348C95.5722 39.5698 95.866 39.3163 96.0795 39.0004C96.1771 38.8443 96.2498 38.674 96.2952 38.4956C96.0747 38.7682 95.7907 38.9825 95.4679 39.1199C95.1452 39.2572 94.7936 39.3134 94.4441 39.2834Z" fill="black"/>
</g>
<path d="M102.128 64.6309L107.038 70.528L106.397 76.4799L100.464 67.2032L102.128 64.6309Z" fill="#DCE6F2"/>
<path opacity="0.1" d="M107.034 70.528L106.432 76.1262L106.394 76.4799L101.04 68.1068L100.464 67.2032L100.631 66.9428L102.125 64.6309L102.457 65.0296L107.034 70.528Z" fill="black"/>
<path d="M109.584 56.6472C107.923 57.123 106.336 58.7565 104.955 60.7404C104.022 62.1093 103.187 63.5427 102.457 65.0299C102.003 65.9367 101.604 66.8081 101.272 67.5669L101.04 68.1071C100.48 69.4287 100.168 70.3129 100.168 70.3129C100.168 70.3129 87.4519 60.763 89.4639 60.1199C90.14 59.9044 91.0285 58.4575 91.9073 56.6343L92.0168 56.4028C92.5737 55.2323 93.121 53.9269 93.6071 52.6985C94.6019 50.1744 95.3391 47.9814 95.3391 47.9814C95.3391 47.9814 114.655 55.2002 109.584 56.6472Z" fill="#EFB7B9"/>
<path d="M117.191 47.4443C117.191 47.4443 120.127 52.7499 124.071 52.0264C128.015 51.3029 126.392 49.1775 126.392 49.1775L117.191 47.4443Z" fill="#444053"/>
<path d="M111.503 231.096C108.902 232.283 103.02 231.096 103.02 231.096L100.542 230.942C97.3223 230.736 91.9333 230.389 90.0274 230.235C87.246 230.006 87.9285 228.868 87.9285 228.868V221.99L101.424 218.575C101.424 218.575 106.758 220.398 108.22 221.99C109.607 223.508 110.418 222.341 112.894 222.778C113.016 222.8 113.145 222.826 113.28 222.858C115.63 223.395 116.905 223.607 117.659 225.553C117.81 225.961 117.932 226.381 118.022 226.807C118.718 229.939 114.101 229.916 111.503 231.096Z" fill="#A36468"/>
<path opacity="0.1" d="M117.659 225.552C117.175 225.854 116.667 226.114 116.139 226.33C114.368 227.138 112.685 228.121 110.895 228.884C109.105 229.646 107.177 230.189 105.239 230.044C104.224 229.97 103.188 229.723 102.219 230.012C101.62 230.243 101.055 230.556 100.542 230.941C97.3223 230.736 91.9333 230.388 90.0274 230.234C87.246 230.006 87.9285 228.867 87.9285 228.867V228.064C88.0282 228.064 88.1409 228.035 88.2697 228.025C88.9359 228.014 89.5994 228.113 90.2335 228.318C91.6306 228.697 93.0214 229.07 94.4185 229.443C94.5335 229.01 94.7354 228.605 95.0122 228.252C95.2889 227.899 95.6346 227.607 96.0282 227.392C96.8256 226.969 97.7207 226.764 98.6229 226.797C100.79 226.826 102.84 227.851 105.004 227.954C105.608 228.01 106.217 227.908 106.771 227.658C107.067 227.511 107.328 227.295 107.618 227.131C108.081 226.907 108.571 226.742 109.076 226.639C110.495 226.286 111.888 225.837 113.245 225.295C113.631 225.144 114.082 224.871 114.03 224.459C113.963 223.912 113.103 223.848 112.878 223.346C112.838 223.256 112.82 223.158 112.824 223.059C112.829 222.96 112.856 222.864 112.904 222.777C113.026 222.8 113.155 222.826 113.29 222.858C115.63 223.395 116.905 223.607 117.659 225.552Z" fill="black"/>
<path d="M108.754 246.145C105.696 247.54 98.7744 246.145 98.7744 246.145L95.861 245.974C92.088 245.733 85.7331 245.331 83.4892 245.141C80.2152 244.871 81.02 243.534 81.02 243.534V235.428L96.9008 231.408C96.9008 231.408 103.178 233.553 104.898 235.428C106.53 237.212 107.473 235.839 110.399 236.354C110.544 236.379 110.695 236.411 110.853 236.447C113.619 237.09 115.119 237.331 116.004 239.621C116.183 240.101 116.326 240.595 116.432 241.096C117.231 244.781 111.813 244.752 108.754 246.145Z" fill="#A36468"/>
<path opacity="0.1" d="M115.998 239.621C115.429 239.976 114.831 240.282 114.211 240.537C112.128 241.486 110.145 242.644 108.04 243.541C105.934 244.438 103.665 245.074 101.382 244.907C100.191 244.82 98.9708 244.521 97.8408 244.869C97.1328 245.144 96.4665 245.516 95.861 245.975C92.088 245.734 85.7331 245.332 83.4892 245.142C80.2152 244.872 81.02 243.534 81.02 243.534V242.589C81.1533 242.567 81.2877 242.552 81.4225 242.544C82.2067 242.53 82.9879 242.646 83.7339 242.888L88.6562 244.213C88.7933 243.702 89.0333 243.224 89.3616 242.809C89.6898 242.394 90.0994 242.05 90.5652 241.798C91.5035 241.298 92.5578 241.056 93.6203 241.097C96.17 241.132 98.5813 242.338 101.128 242.46C101.837 242.525 102.551 242.406 103.201 242.116C103.552 241.939 103.845 241.685 104.199 241.496C104.743 241.229 105.32 241.035 105.915 240.917C107.575 240.498 109.205 239.97 110.795 239.335C111.249 239.155 111.78 238.833 111.719 238.351C111.639 237.708 110.628 237.631 110.361 237.039C110.316 236.932 110.295 236.817 110.301 236.701C110.306 236.585 110.338 236.472 110.393 236.37C110.538 236.396 110.689 236.428 110.847 236.463C113.612 237.081 115.112 237.332 115.998 239.621Z" fill="black"/>
<path d="M101.833 190.521L100.973 210.723C100.973 210.723 99.6855 214.849 100.384 216.029C101.083 217.209 102.261 218.386 101.833 219.084C101.405 219.781 96.2538 227.325 94.5894 224.431C92.925 221.537 91.2832 208.997 91.2832 208.997L92.8188 193.508L101.833 190.521Z" fill="#444053"/>
<path d="M105.56 140.185L107.949 143.375V171.118C107.949 171.118 108.648 178.514 107.949 180.041C107.251 181.568 103.709 184.623 103.709 184.623L100.731 169.349L101.375 153.192L105.56 140.185Z" fill="#444053"/>
<path opacity="0.1" d="M101.833 190.521L100.973 210.723C100.973 210.723 99.6855 214.849 100.384 216.029C101.083 217.209 102.261 218.386 101.833 219.084C101.405 219.781 96.2538 227.325 94.5894 224.431C92.925 221.537 91.2832 208.997 91.2832 208.997L92.8188 193.508L101.833 190.521Z" fill="black"/>
<path opacity="0.1" d="M105.56 140.185L107.949 143.375V171.118C107.949 171.118 108.648 178.514 107.949 180.041C107.251 181.568 103.709 184.623 103.709 184.623L100.731 169.349L101.375 153.192L105.56 140.185Z" fill="black"/>
<path d="M107.949 128.352V143.359L105.267 155.041C105.267 155.041 104.408 183.231 105.158 186.659C105.908 190.086 102.582 193.305 102.582 193.305C102.582 193.305 100.651 193.52 100.651 195.019C100.651 196.517 97.4315 200.807 97.4315 200.807L97.5377 209.167C97.5377 209.167 98.9349 224.817 96.7876 227.817C94.6404 230.817 97.5377 231.248 97.5377 231.248C94.8561 240.035 81.9789 238 80.8167 237.035C79.6546 236.071 80.8167 217.099 80.8167 217.099C80.8167 217.099 83.6948 188.16 85.9483 186.874C88.2018 185.588 86.0578 183.98 86.8078 182.051C87.5579 180.122 86.0577 174.871 86.0577 174.871C86.0577 174.871 85.4139 168.652 83.8042 165.652C82.1946 162.652 82.4071 154.398 82.4071 154.398C82.4071 154.398 77.9001 148.394 76.5608 146.038C75.2216 143.681 74.3589 137.571 74.6808 132.96C74.8997 129.844 76.5383 125.307 77.5781 122.696C78.0771 121.446 78.4377 120.635 78.4377 120.635L78.7435 120.716L96.3273 125.314L107.949 128.352Z" fill="#444053"/>
<path opacity="0.1" d="M109.584 56.6467C107.923 57.1226 106.336 58.7561 104.955 60.74H104.594C102.57 60.7414 100.581 60.2091 98.8286 59.1967C97.0763 58.1844 95.6226 56.728 94.6144 54.9747C94.193 54.2481 93.854 53.477 93.6035 52.6756C94.5983 50.1515 95.3355 47.9585 95.3355 47.9585C95.3355 47.9585 114.654 55.1997 109.584 56.6467Z" fill="black"/>
<path d="M116.104 48.6085C116.107 50.3679 115.705 52.1044 114.93 53.6844C114.155 55.2644 113.028 56.6456 111.634 57.7216C110.24 58.7977 108.618 59.5399 106.892 59.8911C105.166 60.2423 103.382 60.193 101.678 59.7472C99.9744 59.3014 98.3957 58.4708 97.0637 57.3195C95.7317 56.1682 94.6821 54.7269 93.9957 53.1066C93.3093 51.4863 93.0044 49.7302 93.1045 47.9737C93.2047 46.2171 93.7071 44.507 94.5732 42.975C94.9221 42.3525 95.3296 41.7646 95.7901 41.2193C96.5493 40.316 97.4416 39.5331 98.4364 38.8977C100.117 37.8312 102.045 37.2183 104.034 37.1189C106.022 37.0194 108.002 37.4369 109.781 38.3305C111.559 39.224 113.075 40.5632 114.181 42.217C115.286 43.8708 115.943 45.7827 116.088 47.766C116.094 48.049 116.104 48.3287 116.104 48.6085Z" fill="#EFB7B9"/>
<path opacity="0.1" d="M106.433 76.1261L106.394 76.4798L101.04 68.1195C100.48 69.4411 100.168 70.3253 100.168 70.3253C100.168 70.3253 87.4519 60.7625 89.4639 60.1194C90.14 59.904 91.0285 58.457 91.9073 56.6339L92.0168 56.4023C92.9504 59.1805 98.3749 64.7336 100.632 66.9587C100.892 67.216 101.108 67.4282 101.275 67.5825L101.62 67.9041L101.8 68.0842C102.621 68.9298 106.085 72.6598 106.433 76.1261Z" fill="black"/>
<path d="M110.434 104.494L109.849 123.327L109.745 126.68C109.745 126.68 102.805 126.037 96.3275 125.33C91.1123 124.761 86.1964 124.147 85.4399 123.786C84.4741 123.333 82.4041 122.983 80.7719 122.761C79.51 122.59 78.5184 122.5 78.5184 122.5C78.5184 122.5 78.1482 122.61 77.5784 122.713C76.3357 122.938 74.1531 123.121 72.8814 122.018C71.2557 120.606 75.5277 115.478 76.5933 114.246L76.8283 113.979L76.4259 110.265L75.3796 100.635C75.3796 100.635 74.7358 95.0884 73.77 92.1141C73.5118 91.2684 73.3255 90.4025 73.213 89.5256C72.8542 86.8091 73.038 84.0484 73.7539 81.4033C74.0597 80.2794 74.2538 79.128 74.3333 77.966C74.4943 74.9917 83.5888 63.4963 85.8423 62.4513C86.856 61.9791 87.6717 61.1667 88.1473 60.1555C88.3043 59.8375 88.4221 59.5017 88.4982 59.1554C89.464 54.9753 91.9074 56.6345 91.9074 56.6345C92.4966 59.9046 101.617 68.5607 101.617 68.5607L101.797 68.7408C102.702 69.6668 106.732 74.0141 106.446 77.7248C106.388 79.1059 106.595 80.4852 107.054 81.7892C108.909 87.6236 109.976 93.6794 110.225 99.7958L110.434 104.494Z" fill="#DCE6F2"/>
<path opacity="0.1" d="M97.5119 82.1299C97.5119 82.1299 95.2583 87.5962 93.5682 88.4804C91.8781 89.3647 98.3167 90.3454 97.5119 82.1299Z" fill="black"/>
<path opacity="0.1" d="M99.2026 92.3389C99.2026 92.3389 94.0518 92.982 94.0518 93.9466C94.0518 94.9112 99.2026 92.3389 99.2026 92.3389Z" fill="black"/>
<path opacity="0.1" d="M104.594 98.6089C104.594 98.6089 97.1093 114.525 95.0168 115.008C92.9243 115.49 104.594 98.6089 104.594 98.6089Z" fill="black"/>
<path opacity="0.1" d="M101.475 69.3677L95.2845 72.0559L87.8125 60.7824C87.9695 60.4645 88.0873 60.1287 88.1634 59.7824C89.1292 55.6023 91.5726 57.2615 91.5726 57.2615C92.1618 60.5316 101.282 69.1877 101.282 69.1877L101.475 69.3677Z" fill="black"/>
<path d="M101.797 68.7247L95.6067 71.4128L88.1348 60.1393C88.2918 59.8214 88.4096 59.4856 88.4857 59.1393C89.4515 54.9592 91.8949 56.6184 91.8949 56.6184C92.484 59.8885 101.604 68.5446 101.604 68.5446L101.797 68.7247Z" fill="#DCE6F2"/>
<path opacity="0.1" d="M109.745 126.68C109.745 126.68 102.804 126.037 96.3272 125.329L107.949 128.368V131.905C107.44 132.365 106.999 132.603 106.713 132.481C105.373 131.918 94.4439 130.149 94.4439 130.149C94.4439 130.149 88.0954 126.934 81.2448 123.075C81.0785 122.983 80.9173 122.882 80.7619 122.773C79.9631 122.231 79.2748 121.543 78.7337 120.744C77.4686 118.915 76.8505 116.564 76.5833 114.259C76.433 112.937 76.3771 111.607 76.4159 110.278C76.449 108.771 76.5867 107.267 76.8279 105.779C76.1654 100.015 75.8429 94.2175 75.8621 88.4158C75.9426 79.4124 84.3933 76.197 84.3933 76.197C99.9263 74.8304 95.1103 99.9111 95.1103 99.9111C95.1103 99.9111 94.2121 106.985 93.9674 107.709C93.7227 108.432 92.8439 109.638 92.963 111.326C93.0821 113.014 96.0503 115.033 96.0503 115.033C96.0503 115.033 98.9476 116.39 100.142 118.4C101.011 119.882 106.658 121.892 109.848 123.326L109.745 126.68Z" fill="black"/>
<path opacity="0.1" d="M114.947 41.4697C114.953 41.9993 114.844 42.5239 114.626 43.0067C114.46 43.4007 114.269 43.7831 114.053 44.1514C113.714 44.8289 113.233 45.4255 112.642 45.9006C111.899 46.4312 110.959 46.5791 110.067 46.7945C109.175 47.01 108.248 47.354 107.739 48.1129C107.464 48.6007 107.279 49.1346 107.195 49.6885C107.11 50.2418 106.889 50.7655 106.552 51.2126C106.376 51.4309 106.133 51.5847 105.86 51.6499C105.587 51.7151 105.301 51.688 105.045 51.5727C104.776 51.3914 104.572 51.1289 104.462 50.8235C104.095 49.9972 104.002 49.0807 103.854 48.1901C103.706 47.2994 103.496 46.383 102.949 45.6659C102.402 44.9489 101.433 44.4762 100.573 44.7559C100.286 44.8666 100.023 45.0341 99.802 45.2485C99.5807 45.4629 99.4051 45.7197 99.2856 46.0035C99.0477 46.5718 98.8843 47.1684 98.7995 47.7785C98.4003 49.9607 97.9292 52.1301 97.3862 54.2866C97.3697 54.375 97.3334 54.4585 97.28 54.531C97.1944 54.6162 97.0789 54.6646 96.9581 54.666C96.237 54.7625 95.5448 54.2577 94.8173 54.3123C94.7423 54.3173 94.6679 54.3291 94.5951 54.3477C93.4188 52.3057 92.8994 49.952 93.1073 47.6053C93.3152 45.2586 94.2403 43.0325 95.7573 41.2286L95.8152 41.2125C96.2992 41.0409 96.739 40.7641 97.1029 40.4022C97.5677 39.9377 97.998 39.4401 98.3907 38.9134L98.6482 38.5919C99.3882 37.7015 100.231 36.9017 101.159 36.2092C101.413 36.0019 101.703 35.8447 102.016 35.7462C102.283 35.6942 102.557 35.6855 102.827 35.7204C103.939 35.8538 105.059 35.8957 106.178 35.8459C106.958 35.7235 107.743 35.644 108.531 35.6079C110.569 35.6658 112.308 37.1031 113.595 38.6787C114.288 39.4858 114.906 40.415 114.947 41.4697Z" fill="black"/>
<path d="M93.0696 43.2804C92.6221 44.0135 91.8141 44.5119 91.5115 45.3158C91.0672 46.483 91.8173 47.9364 91.1284 48.9782C90.8998 49.3287 90.5232 49.5892 90.3944 49.9911C90.1755 50.6696 90.7743 51.3931 90.6197 52.0908C90.4652 52.7886 89.5445 53.377 89.7892 54.0587C89.9337 54.356 90.1874 54.5863 90.4974 54.7018C90.9852 54.9813 91.5467 55.1058 92.107 55.0587C92.9859 54.914 93.6394 54.0522 94.5312 53.9879C95.2555 53.9365 95.9477 54.4381 96.6688 54.3449C96.7896 54.3407 96.9045 54.2913 96.9907 54.2066C97.0454 54.1349 97.0819 54.0511 97.0969 53.9622C97.6378 51.8078 98.1099 49.6385 98.5134 47.4541C98.5956 46.8438 98.758 46.247 98.9963 45.6792C99.1167 45.3959 99.2927 45.1396 99.5139 44.9253C99.735 44.711 99.9969 44.5431 100.284 44.4316C101.144 44.155 102.109 44.6245 102.66 45.3415C103.21 46.0586 103.42 46.975 103.568 47.8657C103.716 48.7564 103.809 49.6728 104.173 50.4991C104.283 50.8056 104.489 51.0691 104.759 51.2516C105.242 51.5313 105.892 51.3095 106.262 50.8914C106.601 50.4441 106.823 49.919 106.906 49.3641C106.99 48.8112 107.174 48.2784 107.45 47.7917C107.959 47.0329 108.889 46.6888 109.778 46.4734C110.666 46.2579 111.603 46.1068 112.353 45.5763C112.943 45.1016 113.423 44.5062 113.763 43.8303C114.24 43.0007 114.684 42.1003 114.645 41.1453C114.603 40.1035 113.985 39.1742 113.325 38.3639C112.038 36.7884 110.296 35.351 108.258 35.2964C107.47 35.3293 106.684 35.4088 105.905 35.5343C104.786 35.5846 103.665 35.5416 102.554 35.4057C102.283 35.3734 102.01 35.3832 101.742 35.4346C101.43 35.53 101.14 35.6875 100.889 35.8977C99.9602 36.589 99.1162 37.3877 98.375 38.2771C97.8971 38.9101 97.3788 39.5115 96.8233 40.0778C96.4592 40.4403 96.0195 40.7181 95.5356 40.8913C95.2137 40.9813 94.8917 40.917 94.5859 41.0167C93.6362 41.3158 93.5106 42.5537 93.0696 43.2804Z" fill="#965D7B"/>
<path opacity="0.1" d="M124.071 52.0232C121.496 52.4958 119.361 50.4154 118.18 48.8977C117.817 48.4368 117.487 47.9512 117.191 47.4443L126.032 49.1099L126.389 49.1775C126.389 49.1775 128.015 51.3029 124.071 52.0232Z" fill="black"/>
<g opacity="0.1">
<path opacity="0.1" d="M90.62 51.1713C90.6561 50.7507 90.5921 50.3277 90.4333 49.9365C90.4333 49.9687 90.4044 50.0008 90.3947 50.033C90.2563 50.4639 90.443 50.9108 90.5621 51.3578C90.5877 51.2977 90.6071 51.2352 90.62 51.1713Z" fill="black"/>
<path opacity="0.1" d="M91.3859 45.9077C91.3528 46.3523 91.3614 46.7991 91.4117 47.2421C91.4447 46.7975 91.4361 46.3508 91.3859 45.9077Z" fill="black"/>
<path opacity="0.1" d="M113.744 42.9011C113.405 43.5786 112.924 44.1752 112.334 44.6503C111.59 45.1809 110.653 45.3288 109.758 45.5443C108.864 45.7597 107.94 46.1037 107.431 46.8626C107.156 47.3506 106.971 47.8845 106.887 48.4382C106.803 48.9929 106.582 49.518 106.243 49.9655C105.873 50.3835 105.222 50.6086 104.74 50.3257C104.469 50.1432 104.264 49.8797 104.154 49.5732C103.79 48.7469 103.693 47.8337 103.548 46.9398C103.404 46.0459 103.188 45.1327 102.641 44.4156C102.093 43.6986 101.124 43.2259 100.265 43.5056C99.9774 43.6167 99.7152 43.7845 99.494 43.9988C99.2728 44.2131 99.097 44.4697 98.9771 44.7532C98.7387 45.3211 98.5764 45.9179 98.4942 46.5282C98.0928 48.7126 97.6207 50.8819 97.0777 53.0363C97.0626 53.1252 97.0262 53.209 96.9714 53.2807C96.8853 53.3654 96.7704 53.4148 96.6495 53.419C95.9284 53.5122 95.2362 53.0106 94.5119 53.062C93.6202 53.1263 92.9666 53.9881 92.0878 54.1296C91.5272 54.1798 90.9648 54.0551 90.4781 53.7727C90.2544 53.6765 90.0536 53.534 89.889 53.3546C89.8137 53.4624 89.7638 53.5858 89.7432 53.7156C89.7225 53.8453 89.7317 53.9781 89.7699 54.1038C89.9117 54.4032 90.1663 54.6344 90.4781 54.7469C90.9648 55.0294 91.5272 55.1541 92.0878 55.1039C92.9666 54.9624 93.6202 54.1006 94.5119 54.0363C95.2362 53.9849 95.9284 54.4865 96.6495 54.3932C96.7704 54.389 96.8853 54.3397 96.9714 54.255C97.0262 54.1833 97.0626 54.0995 97.0777 54.0106C97.6185 51.8669 98.0907 49.6976 98.4942 47.5025C98.5764 46.8922 98.7387 46.2954 98.9771 45.7275C99.097 45.444 99.2728 45.1874 99.494 44.9731C99.7152 44.7587 99.9774 44.591 100.265 44.4799C101.124 44.2002 102.09 44.6729 102.641 45.3899C103.191 46.107 103.4 47.0234 103.548 47.9141C103.697 48.8047 103.79 49.7212 104.154 50.5475C104.264 50.854 104.469 51.1175 104.74 51.3C105.222 51.5797 105.873 51.3578 106.243 50.9398C106.582 50.4922 106.803 49.9672 106.887 49.4125C106.971 48.8587 107.156 48.3249 107.431 47.8369C107.94 47.078 108.87 46.7372 109.758 46.5185C110.647 46.2999 111.584 46.1552 112.334 45.6246C112.924 45.1495 113.405 44.5528 113.744 43.8754C114.22 43.049 114.665 42.1487 114.626 41.1937C114.62 41.0709 114.607 40.9486 114.587 40.8271C114.432 41.5631 114.146 42.2655 113.744 42.9011Z" fill="black"/>
</g>
<path opacity="0.1" d="M114.639 42.9973C115.465 44.4634 115.954 46.0943 116.072 47.7723C113.203 46.1645 110.505 44.3992 109.144 43.7851C106.771 42.7143 97.8987 42.8751 94.5635 42.9748C94.9124 42.3523 95.3198 41.7644 95.7804 41.2191C96.5425 40.315 97.438 39.5322 98.4363 38.8975C99.7583 38.0596 101.237 37.4996 102.783 37.252C104.329 37.0044 105.91 37.0743 107.428 37.4574C108.946 37.8405 110.37 38.5288 111.612 39.4803C112.855 40.4317 113.89 41.6262 114.655 42.9908L114.639 42.9973Z" fill="black"/>
<path opacity="0.1" d="M124.876 50.6598C123.327 51.1357 120.8 50.2161 118.18 48.8977C117.817 48.4368 117.487 47.9512 117.191 47.4443L126.032 49.11C126.617 49.5087 126.766 50.0778 124.876 50.6598Z" fill="black"/>
<path d="M105.28 31.8491C105.28 31.8491 96.8294 31.3667 94.4536 35.9488L94.0705 40.0099L93.4266 39.9392L93.2979 42.7013C93.2979 42.7013 106.214 42.1386 109.153 43.4634C112.092 44.7881 121.225 51.4635 124.885 50.338C128.546 49.2126 124.564 48.1676 124.564 48.1676C124.564 48.1676 119.525 46.0357 119.525 44.3637C119.525 42.6916 118.276 33.8587 105.28 31.8491Z" fill="#444053"/>
<path opacity="0.1" d="M88.9814 182.397C88.9814 182.397 94.3738 187.623 96.7077 187.221C96.7077 187.221 90.1082 186.658 88.9814 182.397Z" fill="black"/>
<path opacity="0.1" d="M87.8545 184.818C87.8545 184.818 88.3374 187.507 89.6251 187.243C90.9128 186.979 87.8545 184.818 87.8545 184.818Z" fill="black"/>
<path opacity="0.1" d="M96.3052 229.746C96.3052 229.746 88.6497 235.695 89.9406 235.855C91.2316 236.016 96.3052 229.746 96.3052 229.746Z" fill="black"/>
<path d="M106.546 111.683L131.334 107.654V131.095L107.782 129.864L106.546 111.683Z" fill="#F1563C"/>
<path opacity="0.05" d="M106.546 111.683L131.334 107.654V131.095L107.782 129.864L106.546 111.683Z" fill="black"/>
<path d="M131.334 107.654L161.061 109.876L159.416 130.275L131.334 131.095V107.654Z" fill="#F1563C"/>
<path opacity="0.1" d="M131.334 107.654L161.061 109.876L159.416 130.275L131.334 131.095V107.654Z" fill="black"/>
<path d="M140.474 100.5L131.334 107.654L161.061 109.876L165.919 102.555L140.474 100.5Z" fill="#F1563C"/>
<path d="M97.5703 103.87L119.886 101.156L131.334 107.654L106.546 111.683L97.5703 103.87Z" fill="#F1563C"/>
<path d="M136.769 113.741V145.79L125.157 144.6L120.106 144.085L118.567 143.925L113.519 143.407L106.546 142.693V111.683L131.331 113.368L136.769 113.741Z" fill="#F1563C"/>
<path d="M161.061 109.876V141.13L151.754 142.915L147.228 143.783L136.769 145.79V113.741L161.061 109.876Z" fill="#F1563C"/>
<path opacity="0.05" d="M161.061 109.876V141.13L151.754 142.915L147.228 143.783L136.769 145.79V113.741L161.061 109.876Z" fill="black"/>
<path d="M97.5703 118.429L106.546 111.683L136.768 113.741L132.319 121.227L97.5703 118.429Z" fill="#F1563C"/>
<path opacity="0.1" d="M97.5703 118.429L106.546 111.683L136.768 113.741L132.319 121.227L97.5703 118.429Z" fill="white"/>
<path d="M161.061 109.876L136.769 113.741L144.675 120.815L170.697 116.455L161.061 109.876Z" fill="#F1563C"/>
<path opacity="0.1" d="M161.061 109.876L136.769 113.741L144.675 120.815L170.697 116.455L161.061 109.876Z" fill="white"/>
<path opacity="0.1" d="M151.754 142.915L147.228 143.783V137.105L151.467 136.037L151.754 142.915Z" fill="white"/>
<path opacity="0.1" d="M125.157 140.182V144.6L120.105 144.085V140.182H125.157Z" fill="white"/>
<path opacity="0.1" d="M118.566 141.574V143.925L113.519 143.407V141.574H118.566Z" fill="white"/>
<path opacity="0.1" d="M133.73 137.838C130.269 142.259 118.84 139.205 118.84 139.205L110.348 130.356L109.195 129.156L111.449 124.976C111.449 124.976 112.093 125.188 113.168 125.561C118.86 127.548 136.643 134.118 133.73 137.838Z" fill="black"/>
<path d="M133.407 137.195C129.947 141.616 118.518 138.561 118.518 138.561L110.026 129.712L108.873 128.513L111.127 124.333C111.127 124.333 111.77 124.545 112.846 124.918C118.537 126.905 136.321 133.475 133.407 137.195Z" fill="#EFB7B9"/>
<path opacity="0.1" d="M112.833 124.918C112.363 126.269 111.169 128.269 110.013 129.712L108.86 128.513L111.114 124.333C111.114 124.333 111.761 124.545 112.833 124.918Z" fill="black"/>
<path d="M84.7155 74.9106C84.7155 74.9106 76.2649 78.126 76.1844 87.1294C76.1652 92.9311 76.4877 98.729 77.1502 104.493C77.1502 104.493 74.7357 117.918 81.5767 121.776C88.4177 125.635 94.7758 128.85 94.7758 128.85C94.7758 128.85 105.705 130.619 107.048 131.181C108.39 131.744 113.055 124.509 112.331 123.303C111.606 122.098 101.655 119.123 100.474 117.114C99.2924 115.104 96.3822 113.75 96.3822 113.75C96.3822 113.75 93.414 111.728 93.2949 110.04C93.1758 108.352 94.0514 107.146 94.2993 106.422C94.5472 105.699 95.4454 98.6247 95.4454 98.6247C95.4454 98.6247 100.249 73.5279 84.7155 74.9106Z" fill="#DCE6F2"/>
<path opacity="0.1" d="M88.5784 104.718C88.5784 104.718 77.1499 106.004 78.0352 110.024C78.0352 110.024 82.378 105.969 88.5784 104.718Z" fill="black"/>
<path opacity="0.1" d="M88.5785 106.326C88.5785 106.326 82.0916 111.069 83.2828 111.391C84.4739 111.712 88.5785 106.326 88.5785 106.326Z" fill="black"/>
<path opacity="0.1" d="M91.4758 108.255C91.4758 108.255 89.6247 111.58 90.671 111.407C91.7172 111.233 91.4758 108.255 91.4758 108.255Z" fill="black"/>
<path d="M210.467 36.1389C210.467 36.1389 198.234 35.4025 199.663 43.975C199.663 43.975 199.377 45.4895 200.751 46.1776C200.751 46.1776 200.774 45.5345 202.007 45.7564C202.446 45.8302 202.892 45.8518 203.336 45.8207C203.938 45.7806 204.51 45.5445 204.965 45.1486C204.965 45.1486 208.407 43.7306 209.746 38.11C209.746 38.11 210.737 36.8816 210.712 36.5665L208.645 37.4508C208.645 37.4508 209.35 38.9396 208.793 40.1775C208.793 40.1775 208.729 37.5055 208.329 37.5665C208.249 37.5665 207.257 38.0842 207.257 38.0842C207.257 38.0842 208.471 40.6759 207.554 42.5634C207.554 42.5634 207.901 39.3672 206.877 38.2707L205.422 39.1196C205.422 39.1196 206.842 41.7981 205.879 43.9846C205.879 43.9846 206.127 40.6309 205.117 39.3254L203.797 40.3511C203.797 40.3511 205.133 42.9943 204.318 44.8078C204.318 44.8078 204.212 40.9042 203.51 40.6084C203.51 40.6084 202.358 41.6245 202.184 42.0425C202.184 42.0425 203.095 43.9718 202.528 44.9718C202.528 44.9718 202.181 42.3705 201.884 42.3576C201.884 42.3576 200.735 44.0811 200.616 45.2515C200.672 44.1604 201.012 43.1028 201.604 42.184C200.942 42.3091 200.331 42.6255 199.847 43.0939C199.847 43.0939 200.024 41.8753 201.888 41.7692C201.888 41.7692 202.853 40.4605 203.092 40.3801C203.092 40.3801 201.237 40.2257 200.114 40.7241C200.114 40.7241 201.102 39.5762 203.433 40.081L204.721 39.0199C204.721 39.0199 202.28 38.6984 201.244 39.0553C201.244 39.0553 202.435 38.0392 205.071 38.7788L206.488 37.9331C206.488 37.9331 204.408 37.4829 203.169 37.6469C203.169 37.6469 204.476 36.9427 206.903 37.7048L207.917 37.2514C207.917 37.2514 206.391 36.9524 205.947 36.9042C205.503 36.8559 205.477 36.7337 205.477 36.7337C206.442 36.5733 207.433 36.6846 208.339 37.0553C208.339 37.0553 210.512 36.2739 210.467 36.1389Z" fill="#F1563C"/>
<path opacity="0.1" d="M247.638 79.0139C247.638 79.0139 235.405 78.2775 236.834 86.85C236.834 86.85 236.547 88.3645 237.922 89.0526C237.922 89.0526 237.945 88.4095 239.181 88.6314C239.62 88.7052 240.066 88.7268 240.51 88.6957C241.105 88.6526 241.67 88.4179 242.12 88.0269C242.12 88.0269 245.565 86.6056 246.904 80.985C246.904 80.985 247.892 79.7599 247.854 79.4447L245.787 80.3258C245.787 80.3258 246.492 81.8146 245.938 83.0525C245.938 83.0525 245.87 80.3805 245.474 80.4415C245.394 80.4415 244.399 80.9592 244.399 80.9592C244.399 80.9592 245.616 83.5541 244.699 85.4384C244.699 85.4384 245.046 82.2422 244.019 81.1457L242.58 81.985C242.58 81.985 244 84.6635 243.037 86.85C243.037 86.85 243.285 83.4963 242.275 82.1908L240.958 83.2197C240.958 83.2197 242.291 85.8596 241.479 87.6732C241.479 87.6732 241.373 83.7696 240.671 83.4737C240.671 83.4737 239.519 84.4898 239.342 84.9078C239.342 84.9078 240.256 86.8371 239.689 87.8371C239.689 87.8371 239.342 85.2358 239.046 85.223C239.046 85.223 237.896 86.9465 237.777 88.1169C237.835 87.0256 238.176 85.9682 238.769 85.0493C238.105 85.1748 237.493 85.4911 237.008 85.9593C237.008 85.9593 237.188 84.7406 239.052 84.6345C239.052 84.6345 240.002 83.3258 240.256 83.2454C240.256 83.2454 238.402 83.0911 237.278 83.5895C237.278 83.5895 238.267 82.4416 240.594 82.9625L241.882 81.9014C241.882 81.9014 239.438 81.5798 238.405 81.9367C238.405 81.9367 239.596 80.9206 242.233 81.6602L243.649 80.8145C243.649 80.8145 241.566 80.3676 240.327 80.5284C240.327 80.5284 241.637 79.8242 244.064 80.5862L245.078 80.1329C245.078 80.1329 243.553 79.8338 243.105 79.7856C242.658 79.7374 242.635 79.6152 242.635 79.6152C243.601 79.4546 244.594 79.5659 245.5 79.9367C245.5 79.9367 247.676 79.1489 247.638 79.0139Z" fill="#F1563C"/>
<path opacity="0.1" d="M173.32 71.4025C173.32 71.4025 176.137 59.4763 167.432 59.4345C167.432 59.4345 165.987 58.8943 165.076 60.1291C165.076 60.1291 165.697 60.2609 165.275 61.4378C165.129 61.8539 165.032 62.2855 164.986 62.724C164.923 63.3217 165.058 63.9234 165.369 64.4378C165.369 64.4378 166.183 68.0713 171.485 70.3479C171.485 70.3479 172.528 71.5312 172.844 71.544L172.329 69.3607C172.329 69.3607 170.739 69.8012 169.612 69.0392C169.612 69.0392 172.261 69.4282 172.264 69.0392C172.264 68.9588 171.943 67.8945 171.943 67.8945C171.943 67.8945 169.177 68.6469 167.471 67.4218C167.471 67.4218 170.565 68.3093 171.823 67.4893L171.244 65.9073C171.244 65.9073 168.347 66.8494 166.363 65.5279C166.363 65.5279 169.631 66.3446 171.093 65.5729L170.304 64.1002C170.304 64.1002 167.471 64.9619 165.819 63.8526C165.819 63.8526 169.683 64.4121 170.101 63.7754C170.101 63.7754 169.296 62.4667 168.913 62.2224C168.913 62.2224 166.866 62.7947 165.964 62.0648C165.964 62.0648 168.588 62.1645 168.649 61.8879C168.649 61.8879 167.146 60.4635 166 60.1419C167.068 60.3848 168.054 60.9012 168.862 61.6404C168.85 60.9665 168.642 60.3106 168.263 59.7529C168.263 59.7529 169.435 60.1387 169.229 62.0037C169.229 62.0037 170.355 63.1613 170.391 63.4249C170.391 63.4249 170.858 61.6275 170.558 60.4346C170.558 60.4346 171.524 61.605 170.613 63.8076L171.437 65.2706C171.437 65.2706 172.184 62.9233 171.994 61.8429C171.994 61.8429 172.796 63.187 171.614 65.6565L172.21 67.1967C172.21 67.1967 173.005 65.2224 173.056 63.9812C173.056 63.9812 173.53 65.3896 172.361 67.6501L172.638 68.7241C172.638 68.7241 173.192 67.2739 173.314 66.843C173.436 66.4121 173.562 66.4089 173.562 66.4089C173.557 67.3871 173.279 68.3447 172.76 69.1742C172.76 69.1742 173.182 71.4186 173.32 71.4025Z" fill="#F1563C"/>
<path opacity="0.1" d="M146.529 75.4673C146.529 75.4673 136.704 68.1264 133.192 76.0782C133.192 76.0782 132.12 77.1876 132.889 78.5156C132.889 78.5156 133.256 77.9979 134.177 78.8564C134.503 79.1594 134.864 79.4228 135.252 79.641C135.778 79.9334 136.385 80.0463 136.981 79.9625C136.981 79.9625 140.638 80.6667 144.849 76.7085C144.849 76.7085 146.352 76.2261 146.494 75.9432L144.276 75.5541C144.276 75.5541 144.044 77.1844 142.901 77.9143C142.901 77.9143 144.315 75.6441 143.948 75.4802C143.874 75.4448 142.766 75.3194 142.766 75.3194C142.766 75.3194 142.354 78.1554 140.551 79.2262C140.551 79.2262 142.602 76.747 142.348 75.2679L140.664 75.1779C140.664 75.1779 140.377 78.1972 138.369 79.4963C138.369 79.4963 140.419 76.8307 140.3 75.1843L138.633 75.3194C138.633 75.3194 138.294 78.2551 136.617 79.3226C136.617 79.3226 138.674 76.0043 138.253 75.374C138.253 75.374 136.73 75.5895 136.353 75.8403C136.353 75.8403 136.06 77.9432 135.03 78.477C135.03 78.477 136.173 76.1136 135.941 75.9496C135.941 75.9496 134.032 76.7567 133.282 77.6763C133.931 76.7958 134.799 76.0997 135.8 75.657C135.177 75.3985 134.492 75.327 133.829 75.4512C133.829 75.4512 134.647 74.5316 136.263 75.4673C136.263 75.4673 137.776 74.8982 138.034 74.9689C138.034 74.9689 136.569 73.821 135.355 73.6216C135.355 73.6216 136.817 73.2036 138.475 74.9078L140.146 74.7374C140.146 74.7374 138.288 73.1296 137.222 72.8595C137.222 72.8595 138.777 72.6634 140.571 74.7277L142.219 74.8017C142.219 74.8017 140.728 73.284 139.605 72.7374C139.605 72.7374 141.082 72.866 142.692 74.8371L143.79 75.0139C143.79 75.0139 142.679 73.9271 142.331 73.6441C141.984 73.3612 142.032 73.2422 142.032 73.2422C142.928 73.6383 143.696 74.275 144.25 75.0814C144.25 75.0814 146.488 75.5991 146.529 75.4673Z" fill="#F1563C"/>
<path opacity="0.1" d="M179.24 7.26365C179.24 7.26365 169.415 -0.0805006 165.903 7.87458C165.903 7.87458 164.831 8.98392 165.6 10.3119C165.6 10.3119 165.967 9.79423 166.888 10.6528C167.216 10.9542 167.578 11.2165 167.966 11.4341C168.492 11.7268 169.099 11.8397 169.695 11.7557C169.695 11.7557 173.352 12.4599 177.563 8.49839C177.563 8.49839 179.067 8.01928 179.205 7.73311L176.987 7.35046C176.987 7.35046 176.758 8.98071 175.612 9.71062C175.612 9.71062 177.029 7.4405 176.662 7.27651C176.588 7.24114 175.48 7.11573 175.48 7.11573C175.48 7.11573 175.055 9.95821 173.252 11.0225C173.252 11.0225 175.3 8.5434 175.049 7.06429L173.365 6.97425C173.365 6.97425 173.075 9.99358 171.07 11.2894C171.07 11.2894 173.12 8.62379 173.001 6.97747L171.337 7.11252C171.337 7.11252 170.996 10.0515 169.319 11.119C169.319 11.119 171.379 7.80063 170.957 7.1704C170.957 7.1704 169.434 7.38583 169.058 7.63664C169.058 7.63664 168.765 9.73956 167.735 10.2733C167.735 10.2733 168.877 7.90996 168.646 7.74275C168.646 7.74275 166.737 8.55305 165.987 9.47268C166.634 8.59122 167.502 7.89494 168.504 7.45336C167.881 7.19292 167.194 7.12136 166.531 7.24757C166.531 7.24757 167.352 6.32794 168.968 7.26365C168.968 7.26365 170.481 6.69129 170.738 6.76525C170.738 6.76525 169.273 5.61732 168.06 5.41475C168.06 5.41475 169.518 4.99995 171.176 6.70094L172.847 6.53052C172.847 6.53052 170.993 4.92278 169.924 4.64946C169.924 4.64946 171.479 4.45654 173.275 6.52087L174.923 6.59161C174.923 6.59161 173.433 5.07391 172.306 4.53049C172.306 4.53049 173.787 4.65911 175.397 6.6302L176.491 6.80705C176.491 6.80705 175.377 5.73308 175.03 5.45655C174.682 5.18002 174.73 5.05783 174.73 5.05783C175.626 5.45352 176.394 6.09035 176.948 6.89708C176.948 6.89708 179.186 7.38583 179.24 7.26365Z" fill="#F1563C"/>
<path opacity="0.1" d="M216.784 16.5663C216.784 16.5663 212.856 4.95521 205.449 9.51797C205.449 9.51797 203.936 9.83952 203.816 11.354C203.816 11.354 204.412 11.1354 204.676 12.3572C204.774 12.7919 204.922 13.2138 205.117 13.6145C205.383 14.1538 205.817 14.5926 206.353 14.8653C206.353 14.8653 208.967 17.5181 214.685 16.6402C214.685 16.6402 216.195 17.0968 216.471 16.9393L214.862 15.3605C214.862 15.3605 213.748 16.5727 212.389 16.5245C212.389 16.5245 214.846 15.457 214.643 15.1129C214.601 15.0454 213.761 14.3155 213.761 14.3155C213.761 14.3155 211.81 16.4152 209.717 16.2769C209.717 16.2769 212.811 15.3959 213.442 14.0261L212.109 13.0003C212.109 13.0003 210.158 15.3219 207.766 15.2512C207.766 15.2512 210.986 14.219 211.8 12.7913L210.352 11.9585C210.352 11.9585 208.42 14.1868 206.418 14.1161C206.418 14.1161 209.997 12.5502 210.007 11.7913C210.007 11.7913 208.632 11.1064 208.179 11.1C208.179 11.1 206.743 12.6659 205.603 12.5244C205.603 12.5244 207.882 11.2222 207.786 10.9553C207.786 10.9553 205.758 10.5405 204.615 10.8749C205.648 10.5154 206.758 10.4323 207.834 10.6337C207.467 10.0675 206.942 9.62052 206.324 9.34755C206.324 9.34755 207.522 9.05494 208.323 10.7398C208.323 10.7398 209.894 11.1289 210.062 11.3315C210.062 11.3315 209.508 9.55977 208.623 8.70445C208.623 8.70445 210.062 9.18999 210.455 11.5405L211.929 12.3444C211.929 12.3444 211.321 9.9617 210.587 9.1289C210.587 9.1289 211.981 9.84916 212.283 12.5662L213.603 13.5598C213.603 13.5598 213.236 11.4633 212.618 10.3765C212.618 10.3765 213.764 11.3218 213.97 13.8589L214.772 14.6241C214.772 14.6241 214.475 13.1 214.353 12.6691C214.231 12.2383 214.331 12.2093 214.331 12.2093C214.842 13.0435 215.113 14.0028 215.113 14.9811C215.113 14.9811 216.671 16.6499 216.784 16.5663Z" fill="#F1563C"/>
<path opacity="0.1" d="M191.152 17.138C191.152 17.138 178.951 15.7811 179.959 24.4275C179.959 24.4275 179.595 25.9259 180.924 26.6783C180.924 26.6783 180.979 26.0352 182.212 26.3246C182.648 26.4182 183.093 26.4625 183.538 26.4564C184.14 26.4456 184.722 26.239 185.196 25.868C185.196 25.868 188.709 24.6236 190.347 19.0769C190.347 19.0769 191.397 17.9033 191.374 17.5849L189.266 18.3631C189.266 18.3631 189.909 19.884 189.266 21.093C189.266 21.093 189.333 18.421 188.944 18.4628C188.863 18.4628 187.846 18.9258 187.846 18.9258C187.846 18.9258 188.928 21.5786 187.917 23.4275C187.917 23.4275 188.425 20.2506 187.456 19.1059L185.959 19.8776C185.959 19.8776 187.247 22.6268 186.169 24.7619C186.169 24.7619 186.587 21.4242 185.644 20.0705L184.276 21.0351C184.276 21.0351 185.473 23.7394 184.569 25.5111C184.569 25.5111 184.662 21.6075 183.976 21.2763C183.976 21.2763 182.772 22.2409 182.576 22.6397C182.576 22.6397 183.39 24.6011 182.775 25.5818C182.775 25.5818 182.56 22.9676 182.276 22.9419C182.276 22.9419 181.04 24.6043 180.86 25.778C180.972 24.6899 181.367 23.65 182.006 22.7619C181.338 22.8541 180.711 23.139 180.203 23.5818C180.203 23.5818 180.441 22.376 182.309 22.3631C182.309 22.3631 183.323 21.1059 183.596 21.0384C183.596 21.0384 181.752 20.7908 180.602 21.2313C180.602 21.2313 181.649 20.1316 183.947 20.7715L185.303 19.7779C185.303 19.7779 182.853 19.2827 181.816 19.6043C181.816 19.6043 183.059 18.6396 185.653 19.5239L187.112 18.7489C187.112 18.7489 185.055 18.1959 183.809 18.2956C183.809 18.2956 185.151 17.6525 187.537 18.5431L188.573 18.1412C188.573 18.1412 187.064 17.765 186.619 17.6943C186.175 17.6235 186.159 17.5013 186.159 17.5013C187.132 17.3898 188.117 17.5501 189.005 17.9644C189.005 17.9644 191.175 17.273 191.152 17.138Z" fill="#F1563C"/>
<path opacity="0.1" d="M297.903 111.728C297.903 111.728 285.709 110.372 286.716 119.008C286.716 119.008 286.353 120.507 287.682 121.259C287.682 121.259 287.737 120.616 288.97 120.902C289.405 120.999 289.85 121.043 290.296 121.034C290.899 121.025 291.481 120.818 291.954 120.446C291.954 120.446 295.466 119.201 297.089 113.658C297.089 113.658 298.139 112.481 298.116 112.166L296.007 112.941C296.007 112.941 296.651 114.465 296.007 115.674C296.007 115.674 296.075 112.999 295.685 113.044C295.605 113.044 294.588 113.503 294.588 113.503C294.588 113.503 295.669 116.156 294.658 118.005C294.658 118.005 295.167 114.831 294.198 113.683L292.701 114.458C292.701 114.458 293.989 117.208 292.914 119.343C292.914 119.343 293.329 116.005 292.386 114.648L291.017 115.613C291.017 115.613 292.215 118.317 291.31 120.085C291.31 120.085 291.404 116.182 290.718 115.854C290.718 115.854 289.517 116.819 289.318 117.217C289.318 117.217 290.135 119.179 289.517 120.159C289.517 120.159 289.302 117.545 289.018 117.52C289.018 117.52 287.782 119.182 287.602 120.356C287.713 119.267 288.109 118.228 288.748 117.339C288.079 117.43 287.452 117.715 286.945 118.159C286.945 118.159 287.183 116.95 289.05 116.938C289.05 116.938 290.068 115.68 290.338 115.616C290.338 115.616 288.493 115.365 287.344 115.806C287.344 115.806 288.39 114.709 290.692 115.349L292.044 114.355C292.044 114.355 289.623 113.899 288.571 114.214C288.571 114.214 289.813 113.249 292.408 114.13L293.866 113.359C293.866 113.359 291.809 112.806 290.563 112.905C290.563 112.905 291.906 112.262 294.291 113.153L295.328 112.748C295.328 112.748 293.818 112.372 293.374 112.304C292.93 112.236 292.914 112.111 292.914 112.111C293.887 111.998 294.872 112.157 295.759 112.571C295.759 112.571 297.936 111.867 297.903 111.728Z" fill="#F1563C"/>
<path opacity="0.1" d="M316.546 123.104C316.546 123.104 304.351 121.751 305.359 130.384C305.359 130.384 304.998 131.883 306.325 132.635C306.325 132.635 306.379 131.992 307.612 132.281C308.047 132.376 308.491 132.419 308.936 132.41C309.535 132.398 310.114 132.193 310.587 131.825C310.587 131.825 314.096 130.58 315.719 125.034C315.719 125.034 316.771 123.86 316.746 123.542L314.637 124.317C314.637 124.317 315.281 125.841 314.637 127.05C314.637 127.05 314.705 124.378 314.315 124.42C314.234 124.42 313.217 124.879 313.217 124.879C313.217 124.879 314.299 127.532 313.288 129.381C313.288 129.381 313.797 126.207 312.828 125.063L311.331 125.834C311.331 125.834 312.618 128.584 311.543 130.719C311.543 130.719 311.958 127.381 311.015 126.027L309.647 126.992C309.647 126.992 310.845 129.696 309.943 131.468C309.943 131.468 310.033 127.561 309.348 127.233C309.348 127.233 308.147 128.198 307.947 128.597C307.947 128.597 308.765 130.558 308.147 131.539C308.147 131.539 307.931 128.925 307.648 128.899C307.648 128.899 306.412 130.561 306.235 131.735C306.346 130.647 306.74 129.608 307.377 128.719C306.709 128.811 306.083 129.096 305.575 129.539C305.575 129.539 305.816 128.33 307.683 128.32C307.683 128.32 308.697 127.063 308.971 126.995C308.971 126.995 307.126 126.748 305.977 127.188C305.977 127.188 307.023 126.088 309.325 126.728L310.677 125.735C310.677 125.735 308.256 125.278 307.204 125.593C307.204 125.593 308.446 124.629 311.041 125.513L312.499 124.738C312.499 124.738 310.442 124.185 309.196 124.285C309.196 124.285 310.539 123.641 312.924 124.532L313.961 124.13C313.961 124.13 312.451 123.754 312.01 123.683C311.569 123.613 311.546 123.49 311.546 123.49C312.52 123.379 313.505 123.539 314.392 123.953C314.392 123.953 316.578 123.243 316.546 123.104Z" fill="#F1563C"/>
<path opacity="0.1" d="M275.155 27.2803C275.155 27.2803 265.33 19.9394 261.818 27.8912C261.818 27.8912 260.746 29.0006 261.515 30.3286C261.515 30.3286 261.882 29.8109 262.803 30.6694C263.129 30.9724 263.49 31.2358 263.878 31.454C264.404 31.7462 265.011 31.8591 265.607 31.7755C265.607 31.7755 269.264 32.4797 273.478 28.5215C273.478 28.5215 274.978 28.0391 275.12 27.7562L272.908 27.3575C272.908 27.3575 272.676 28.9877 271.534 29.7176C271.534 29.7176 272.947 27.4475 272.58 27.2835C272.506 27.2481 271.402 27.1227 271.402 27.1227C271.402 27.1227 270.986 29.9588 269.184 31.0295C269.184 31.0295 271.234 28.5504 270.98 27.0713L269.296 26.9812C269.296 26.9812 269.01 30.0006 267.001 31.2996C267.001 31.2996 269.055 28.634 268.932 26.9877L267.265 27.1227C267.265 27.1227 266.943 30.0585 265.25 31.126C265.25 31.126 267.31 27.8076 266.885 27.1774C266.885 27.1774 265.362 27.3928 264.986 27.6436C264.986 27.6436 264.696 29.7466 263.666 30.2803C263.666 30.2803 264.805 27.9169 264.574 27.753C264.574 27.753 262.665 28.56 261.914 29.4797C262.563 28.5992 263.431 27.9031 264.432 27.4603C263.809 27.2018 263.125 27.1303 262.462 27.2546C262.462 27.2546 263.283 26.3349 264.899 27.2706C264.899 27.2706 266.409 26.7015 266.666 26.7722C266.666 26.7722 265.201 25.6243 263.988 25.425C263.988 25.425 265.449 25.0069 267.107 26.7111L268.778 26.5407C268.778 26.5407 266.924 24.933 265.855 24.6629C265.855 24.6629 267.41 24.4667 269.203 26.5311L270.854 26.605C270.854 26.605 269.361 25.0873 268.237 24.5407C268.237 24.5407 269.718 24.6693 271.324 26.6404L272.422 26.8173C272.422 26.8173 271.311 25.7304 270.964 25.4475C270.616 25.1645 270.668 25.0713 270.668 25.0713C271.562 25.468 272.329 26.1047 272.883 26.9105C272.883 26.9105 275.113 27.4121 275.155 27.2803Z" fill="#F1563C"/>
<path opacity="0.1" d="M282.747 80.2777C282.747 80.2777 279.36 68.4994 271.743 72.7278C271.743 72.7278 270.217 72.9625 270.027 74.4866C270.027 74.4866 270.633 74.2969 270.842 75.5285C270.919 75.9709 271.049 76.4026 271.228 76.8147C271.467 77.3687 271.881 77.8295 272.406 78.1266C272.406 78.1266 274.898 80.8919 280.648 80.2745C280.648 80.2745 282.135 80.7954 282.418 80.6539L280.896 79.0012C280.896 79.0012 279.727 80.1652 278.375 80.0558C278.375 80.0558 280.873 79.0912 280.68 78.7471C280.641 78.6764 279.836 77.9079 279.836 77.9079C279.836 77.9079 277.795 79.9208 275.709 79.6861C275.709 79.6861 278.842 78.9465 279.531 77.6153L278.243 76.5285C278.243 76.5285 276.189 78.76 273.804 78.5864C273.804 78.5864 277.049 77.6957 277.944 76.3098L276.534 75.4127C276.534 75.4127 274.489 77.551 272.506 77.3902C272.506 77.3902 276.154 75.9851 276.199 75.2294C276.199 75.2294 274.853 74.4834 274.399 74.4577C274.399 74.4577 272.896 75.9561 271.753 75.7632C271.753 75.7632 274.09 74.5638 274.006 74.2937C274.006 74.2937 271.998 73.7889 270.842 74.0686C271.889 73.7586 272.998 73.7265 274.061 73.9754C273.721 73.3936 273.217 72.9241 272.612 72.6249C272.612 72.6249 273.823 72.3837 274.544 74.104C274.544 74.104 276.092 74.5606 276.253 74.7728C276.253 74.7728 275.78 72.9754 274.934 72.0847C274.934 72.0847 276.35 72.6313 276.637 74.9979L278.072 75.8693C278.072 75.8693 277.57 73.4577 276.875 72.6088C276.875 72.6088 278.233 73.3902 278.417 76.1169L279.705 77.1683C279.705 77.1683 279.431 75.059 278.864 73.9529C278.864 73.9529 279.968 74.9497 280.059 77.4899L280.825 78.2938C280.825 78.2938 280.599 76.7568 280.503 76.3195C280.406 75.8822 280.503 75.8211 280.503 75.8211C280.979 76.6764 281.208 77.6472 281.163 78.625C281.163 78.625 282.631 80.3549 282.747 80.2777Z" fill="#F1563C"/>
<path opacity="0.1" d="M207.28 106.818C207.28 106.818 200.703 96.4708 194.596 102.664C194.596 102.664 193.199 103.307 193.444 104.834C193.444 104.834 193.975 104.481 194.522 105.606C194.719 106.005 194.963 106.378 195.25 106.719C195.634 107.183 196.16 107.508 196.747 107.645C196.747 107.645 199.918 109.6 205.262 107.387C205.262 107.387 206.836 107.471 207.068 107.256L205.136 106.098C205.136 106.098 204.341 107.545 203.012 107.818C203.012 107.818 205.143 106.21 204.856 105.915C204.801 105.857 203.81 105.349 203.81 105.349C203.81 105.349 202.416 107.85 200.349 108.214C200.349 108.214 203.147 106.622 203.436 105.149L201.894 104.471C201.894 104.471 200.552 107.188 198.215 107.686C198.215 107.686 201.08 105.921 201.547 104.339L199.937 103.876C199.937 103.876 198.579 106.503 196.631 106.905C196.631 106.905 199.734 104.532 199.564 103.792C199.564 103.792 198.063 103.455 197.632 103.558C197.632 103.558 196.612 105.419 195.459 105.555C195.459 105.555 197.365 103.747 197.207 103.509C197.207 103.509 195.137 103.59 194.107 104.185C195.026 103.59 196.085 103.246 197.178 103.188C196.689 102.725 196.074 102.416 195.411 102.297C195.411 102.297 196.502 101.728 197.664 103.175C197.664 103.175 199.274 103.175 199.496 103.336C199.496 103.336 198.53 101.728 197.471 101.127C197.471 101.127 198.984 101.255 199.924 103.445L201.55 103.876C201.55 103.876 200.388 101.706 199.483 101.085C199.483 101.085 201.006 101.452 201.949 104.021L203.469 104.664C203.469 104.664 202.612 102.718 201.753 101.809C201.753 101.809 203.092 102.452 203.894 104.866L204.859 105.423C204.859 105.423 204.216 104.011 203.987 103.622C203.758 103.233 203.849 103.143 203.849 103.143C204.545 103.83 205.037 104.697 205.268 105.648C205.268 105.648 207.193 106.928 207.28 106.818Z" fill="#F1563C"/>
<path d="M250.505 53.949C250.505 53.949 244.25 43.4054 237.95 49.4055C237.95 49.4055 236.534 50.0164 236.733 51.5406C236.733 51.5406 237.271 51.1997 237.786 52.3412C237.97 52.747 238.202 53.1292 238.478 53.4795C238.848 53.9537 239.364 54.2928 239.946 54.4442C239.946 54.4442 243.053 56.4956 248.464 54.4442C248.464 54.4442 250.035 54.576 250.273 54.367L248.384 53.1515C248.384 53.1515 247.547 54.5696 246.207 54.8043C246.207 54.8043 248.387 53.2512 248.113 52.9586C248.055 52.8975 247.083 52.3573 247.083 52.3573C247.083 52.3573 245.612 54.8172 243.542 55.1162C243.542 55.1162 246.388 53.6113 246.719 52.1515L245.2 51.4377C245.2 51.4377 243.774 54.1162 241.42 54.5438C241.42 54.5438 244.34 52.8686 244.855 51.3026L243.265 50.7882C243.265 50.7882 241.823 53.3605 239.865 53.7142C239.865 53.7142 243.04 51.4377 242.892 50.6949C242.892 50.6949 241.404 50.3091 240.96 50.3991C240.96 50.3991 239.882 52.2287 238.726 52.3284C238.726 52.3284 240.686 50.5856 240.538 50.3412C240.538 50.3412 238.465 50.3573 237.419 50.92C238.356 50.3553 239.425 50.045 240.519 50.0197C240.043 49.5417 239.438 49.2131 238.777 49.0743C238.777 49.0743 239.888 48.5373 241.031 50.0197C241.031 50.0197 242.641 50.0743 242.856 50.2383C242.856 50.2383 241.945 48.6306 240.902 47.9682C240.902 47.9682 242.409 48.1418 243.281 50.3605L244.891 50.8428C244.891 50.8428 243.799 48.637 242.911 47.9875C242.911 47.9875 244.424 48.4023 245.287 50.9972L246.784 51.6949C246.784 51.6949 245.989 49.7238 245.174 48.801C245.174 48.801 246.491 49.4859 247.222 51.9232L248.165 52.5084C248.165 52.5084 247.56 51.0775 247.347 50.682C247.135 50.2865 247.225 50.1997 247.225 50.1997C247.9 50.9082 248.364 51.7898 248.567 52.7464C248.567 52.7464 250.412 54.0551 250.505 53.949Z" fill="#F1563C"/>
<path d="M210.931 76.1197C210.931 76.1197 211.253 63.8688 202.731 65.5955C202.731 65.5955 201.205 65.3608 200.562 66.7563C200.562 66.7563 201.205 66.7563 201.025 67.9942C200.966 68.4356 200.96 68.8825 201.006 69.3254C201.064 69.9262 201.319 70.4912 201.73 70.9332C201.73 70.9332 203.266 74.3223 208.935 75.4734C208.935 75.4734 210.194 76.422 210.509 76.3705L209.543 74.3384C209.543 74.3384 208.079 75.0908 206.82 74.5795C206.82 74.5795 209.492 74.422 209.418 74.0297C209.418 73.9493 208.864 72.9718 208.864 72.9718C208.864 72.9718 206.308 74.274 204.392 73.4187C204.392 73.4187 207.612 73.6599 208.664 72.602L207.766 71.1776C207.766 71.1776 205.133 72.6824 202.912 71.7949C202.912 71.7949 206.276 71.93 207.551 70.8785L206.479 69.5923C206.479 69.5923 203.881 71.0136 202.039 70.2611C202.039 70.2611 205.941 70.0264 206.224 69.3158C206.224 69.3158 205.168 68.2 204.743 68.0296C204.743 68.0296 202.857 68.9942 201.827 68.4733C201.827 68.4733 204.402 68.0425 204.418 67.7563C204.418 67.7563 202.657 66.6662 201.469 66.5858C202.565 66.6054 203.636 66.9114 204.576 67.4733C204.429 66.8161 204.094 66.2159 203.61 65.7466C203.61 65.7466 204.837 65.8849 205.004 67.7402C205.004 67.7402 206.347 68.647 206.433 68.8978C206.433 68.8978 206.527 67.0424 205.989 65.9363C205.989 65.9363 207.174 66.8849 206.73 69.2258L207.834 70.4927C207.834 70.4927 208.085 68.0425 207.683 67.0232C207.683 67.0232 208.739 68.1775 208.088 70.8335L208.98 72.2194C208.98 72.2194 209.36 70.1261 209.157 68.8946C209.157 68.8946 209.904 70.1807 209.221 72.6277L209.711 73.6245C209.711 73.6245 209.959 72.0907 209.991 71.6438C210.023 71.1968 210.145 71.1679 210.145 71.1679C210.339 72.1271 210.262 73.1212 209.923 74.0393C209.923 74.0393 210.789 76.1615 210.931 76.1197Z" fill="#F1563C"/>
<path opacity="0.1" d="M225.018 231.787C229.806 231.787 233.688 231.132 233.688 230.324C233.688 229.516 229.806 228.861 225.018 228.861C220.23 228.861 216.349 229.516 216.349 230.324C216.349 231.132 220.23 231.787 225.018 231.787Z" fill="#F1563C"/>
<path opacity="0.1" d="M193.415 254C198.203 254 202.084 253.345 202.084 252.537C202.084 251.729 198.203 251.074 193.415 251.074C188.627 251.074 184.745 251.729 184.745 252.537C184.745 253.345 188.627 254 193.415 254Z" fill="#F1563C"/>
<path opacity="0.1" d="M29.984 242.62C34.7721 242.62 38.6535 241.965 38.6535 241.157C38.6535 240.349 34.7721 239.694 29.984 239.694C25.1959 239.694 21.3145 240.349 21.3145 241.157C21.3145 241.965 25.1959 242.62 29.984 242.62Z" fill="#F1563C"/>
<path opacity="0.1" d="M259.172 252.536C263.961 252.536 267.842 251.881 267.842 251.073C267.842 250.265 263.961 249.61 259.172 249.61C254.384 249.61 250.503 250.265 250.503 251.073C250.503 251.881 254.384 252.536 259.172 252.536Z" fill="#F1563C"/>
<path d="M268.199 234.697C275.348 234.697 281.143 233.718 281.143 232.511C281.143 231.303 275.348 230.324 268.199 230.324C261.049 230.324 255.254 231.303 255.254 232.511C255.254 233.718 261.049 234.697 268.199 234.697Z" fill="#F1563C"/>
<path d="M273.565 228.932C274.156 228.452 274.586 227.804 274.798 227.073C274.959 226.334 274.643 225.449 273.938 225.179C273.146 224.877 272.3 225.424 271.656 225.977C271.012 226.53 270.281 227.163 269.441 227.047C269.872 226.656 270.195 226.16 270.378 225.607C270.561 225.054 270.597 224.464 270.484 223.893C270.448 223.656 270.348 223.434 270.194 223.25C269.753 222.78 268.958 222.983 268.43 223.353C266.756 224.53 266.289 226.8 266.28 228.845C266.112 228.108 266.254 227.34 266.251 226.594C266.248 225.848 266.038 224.986 265.398 224.594C265.004 224.375 264.56 224.264 264.11 224.272C263.357 224.247 262.516 224.321 262.005 224.87C261.361 225.552 261.531 226.7 262.085 227.443C262.639 228.186 263.485 228.665 264.264 229.186C264.888 229.558 265.42 230.064 265.823 230.668C265.868 230.752 265.906 230.84 265.935 230.932H270.655C271.711 230.4 272.69 229.727 273.565 228.932Z" fill="#F1563C"/>
<path d="M24.1641 234.357C24.1641 234.357 29.1057 234.206 30.6026 233.145C32.0996 232.084 38.2098 230.82 38.58 232.521C38.9503 234.222 46.0102 240.974 40.4279 241.019C34.8457 241.064 27.4574 240.151 25.9701 239.244C24.4828 238.338 24.1641 234.357 24.1641 234.357Z" fill="#A8A8A8"/>
<path opacity="0.2" d="M40.5213 240.427C34.939 240.472 27.5508 239.559 26.0634 238.652C24.9303 237.964 24.4796 235.491 24.3282 234.35H24.1641C24.1641 234.35 24.486 238.334 25.9636 239.237C27.4413 240.141 34.8392 241.057 40.4215 241.012C42.0311 241.012 42.5881 240.427 42.5591 239.578C42.3337 240.096 41.7188 240.417 40.5213 240.427Z" fill="black"/>
</g>
<defs>
<linearGradient id="paint0_linear" x1="71.7872" y1="139.365" x2="172.271" y2="139.365" gradientUnits="userSpaceOnUse">
<stop stop-color="#808080" stop-opacity="0.25"/>
<stop offset="0.54" stop-color="#808080" stop-opacity="0.12"/>
<stop offset="1" stop-color="#808080" stop-opacity="0.1"/>
</linearGradient>
<clipPath id="clip0">
<rect width="325" height="254" fill="white"/>
</clipPath>
</defs>
</svg>
