<svg xmlns="http://www.w3.org/2000/svg" width="14" height="15" viewBox="0 0 14 15" fill="none">
  <path fill-rule="evenodd" clip-rule="evenodd" d="M14 12.9887L12.7941 14.213L9.20326 10.5676C8.24303 11.2903 7.05896 11.7239 5.77439 11.7239C2.5904 11.7239 0 9.09428 0 5.86237C0 2.63002 2.5904 0 5.77439 0C8.95827 0 11.5487 2.63002 11.5487 5.86237C11.5487 7.16648 11.1216 8.36809 10.4092 9.34376L14 12.9887ZM5.77439 1.73198C3.53088 1.73198 1.70547 3.58477 1.70547 5.86237C1.70547 8.13955 3.53088 9.99232 5.77439 9.99232C8.01781 9.99232 9.84319 8.13955 9.84319 5.86237C9.84319 3.58477 8.01781 1.73198 5.77439 1.73198Z" fill="#494949"/>
</svg>
