<svg width="356" height="253" viewBox="0 0 356 253" fill="none" xmlns="http://www.w3.org/2000/svg">
<g clip-path="url(#clip0)">
<path opacity="0.1" d="M206.839 46.8484C184.017 46.0839 166.041 28.5346 145.285 20.7672C124.529 12.9997 102.128 4.55255 79.8523 0.43776C65.5248 -2.20916 47.2192 7.70855 35.6775 15.1057C24.566 22.2411 20.9762 34.5244 19.0472 45.9343C17.5944 54.5173 16.741 63.5488 20.7187 71.5847C23.4834 77.164 28.385 81.853 31.7773 87.1978C43.58 105.791 35.2367 128.72 22.4502 146.874C16.4554 155.393 9.49084 163.524 4.86075 172.582C0.230662 181.641 -1.90983 192.035 2.14194 201.284C6.15492 210.458 15.7219 217.335 26.0858 222.177C47.1346 232.011 71.9283 234.828 96.1226 236.421C149.663 239.951 203.486 238.422 257.167 236.893C277.035 236.326 296.987 235.752 316.53 232.792C327.384 231.148 338.587 228.538 346.468 222.259C356.469 214.264 358.948 200.723 352.245 190.7C341.003 173.884 309.928 169.708 302.061 151.658C297.738 141.726 302.177 130.66 308.465 121.448C321.95 101.686 344.55 84.347 345.738 61.7581C346.557 46.2402 335.692 30.7018 318.892 23.3624C301.285 15.6663 276.865 16.6347 263.881 29.3732C250.499 42.4753 226.992 47.5211 206.839 46.8484Z" fill="#F1563C"/>
<g opacity="0.2">
<path opacity="0.2" d="M243.862 175.049C243.648 175.645 243.485 176.258 243.375 176.881C247.47 177.8 251.567 178.797 255.664 179.873C255.728 179.722 255.791 179.56 255.851 179.397C256.477 177.725 256.646 175.917 256.341 174.157C255.922 171.902 254.642 170.084 252.706 169.383C250.77 168.681 248.629 169.252 246.859 170.708C245.492 171.863 244.457 173.362 243.862 175.049Z" fill="#3F3D56"/>
<path opacity="0.2" d="M259.329 169.811C260.902 165.481 259.495 160.997 256.185 159.796C252.876 158.595 248.917 161.131 247.343 165.461C245.77 169.791 247.177 174.275 250.487 175.476C253.796 176.677 257.755 174.14 259.329 169.811Z" fill="#3F3D56"/>
<path opacity="0.2" d="M262.428 159.937C263.995 155.607 262.582 151.127 259.272 149.93C255.963 148.734 252.009 151.275 250.441 155.605C248.874 159.935 250.287 164.415 253.597 165.612C256.906 166.808 260.86 164.267 262.428 159.937Z" fill="#3F3D56"/>
<path opacity="0.2" d="M266.294 150.645C267.867 146.315 266.46 141.831 263.15 140.63C259.841 139.429 255.882 141.965 254.308 146.295C252.735 150.625 254.142 155.108 257.452 156.31C260.761 157.511 264.72 154.974 266.294 150.645Z" fill="#3F3D56"/>
<path opacity="0.2" d="M269.776 141.063C271.35 136.733 269.942 132.249 266.633 131.048C263.323 129.846 259.364 132.383 257.791 136.713C256.217 141.043 257.624 145.526 260.934 146.728C264.244 147.929 268.203 145.392 269.776 141.063Z" fill="#3F3D56"/>
<path opacity="0.2" d="M310.057 81.4618C311.256 80.72 312.401 79.8958 313.485 78.9951L298.674 70.6964L315.661 77.0041C318.587 74.0455 320.878 70.5211 322.394 66.6469C323.91 62.7726 324.619 58.6299 324.477 54.4725L297.324 58.0245L324.022 50.1945C323.288 46.0674 321.712 42.1356 319.391 38.6441C317.07 35.1526 314.054 32.1762 310.532 29.9004C307.009 27.6246 303.055 26.0982 298.916 25.4163C294.778 24.7345 290.543 24.9117 286.476 25.9371C282.408 26.9625 278.596 28.8139 275.276 31.3761C271.957 33.9383 269.201 37.1563 267.18 40.8296C265.159 44.5028 263.917 48.5526 263.532 52.7265C263.146 56.9004 263.625 61.109 264.938 65.0899C263.074 66.2484 261.339 67.6034 259.765 69.1318L276.338 87.1634L257.201 71.9368C254.029 75.9036 251.898 80.5982 250.999 85.5955C250.1 90.5929 250.462 95.7354 252.052 100.558C247.185 103.581 243.268 107.913 240.748 113.056C238.228 118.2 237.207 123.948 237.802 129.644C238.396 135.34 240.583 140.754 244.111 145.267C247.639 149.78 252.367 153.21 257.754 155.164C263.141 157.119 268.969 157.52 274.573 156.321C280.177 155.122 285.33 152.371 289.444 148.383C293.558 144.396 296.465 139.332 297.835 133.771C299.205 128.21 298.981 122.377 297.19 116.937C303.007 113.323 307.44 107.862 309.778 101.428C312.116 94.995 312.223 87.9632 310.082 81.4618H310.057Z" fill="#F1563C"/>
<path opacity="0.1" d="M252.342 80.5875C249.994 87.02 249.887 94.0565 252.039 100.557C247.172 103.581 243.254 107.912 240.734 113.056C238.214 118.199 237.193 123.948 237.788 129.644C238.383 135.34 240.569 140.754 244.098 145.266C247.626 149.779 252.354 153.209 257.74 155.164C263.127 157.119 268.956 157.519 274.56 156.32C280.164 155.121 285.317 152.371 289.43 148.383C293.544 144.396 296.452 139.332 297.821 133.771C299.191 128.21 298.968 122.376 297.176 116.936C302.787 113.462 253.513 77.3702 252.342 80.5875Z" fill="black"/>
</g>
<path d="M262.572 62.8555H97.2669C95.8219 62.8555 94.6504 64.0261 94.6504 65.4702V97.0124C94.6504 98.4564 95.8219 99.6271 97.2669 99.6271H262.572C264.017 99.6271 265.189 98.4564 265.189 97.0124V65.4702C265.189 64.0261 264.017 62.8555 262.572 62.8555Z" fill="#35323E"/>
<g filter="url(#filter0_d)">
<path d="M109.085 18.377C109.085 18.377 111.508 84.2135 107.213 91.9202H252.407C252.407 91.9202 246.24 41.2786 252.407 18.377H109.085Z" fill="white"/>
</g>
<path d="M230.377 89.1152H123.955V102.326H230.377V89.1152Z" fill="#35323E"/>
<path d="M277.761 244.623H80.5109C79.0317 244.623 77.5691 244.312 76.2186 243.708C74.8682 243.105 73.6603 242.224 72.6738 241.123C71.6874 240.021 70.9446 238.724 70.494 237.316C70.0433 235.908 69.895 234.421 70.0587 232.952L74.0929 196.624C74.3585 194.209 74.5501 191.788 74.6677 189.362L75.4259 164.73C75.5998 159.164 75.976 153.613 76.5543 148.076C76.8552 145.205 77.2078 142.34 77.6122 139.481L82.7995 103.369C83.4598 98.848 85.7257 94.7157 89.183 91.7266C92.6404 88.7375 97.0585 87.0912 101.63 87.0883H109.508C113.506 87.1023 117.392 88.409 120.584 90.8131C128.744 96.8988 151.927 101.29 179.256 101.29C206.585 101.29 229.771 96.8988 237.949 90.799C241.142 88.3949 245.027 87.0882 249.025 87.0742H261.787C264.469 87.0742 267.066 88.0188 269.121 89.7421C271.175 91.4654 272.557 93.8571 273.022 96.4971L279.986 135.964C280.692 139.977 281.29 144.006 281.781 148.051C282.599 154.777 283.113 161.532 283.322 168.317L284.028 191.205C284.175 195.978 284.589 200.739 285.265 205.466L289.007 231.652C289.24 233.263 289.123 234.905 288.664 236.467C288.206 238.029 287.416 239.474 286.35 240.705C285.283 241.935 283.964 242.922 282.482 243.598C281 244.274 279.39 244.624 277.761 244.623Z" fill="#EAEAEA"/>
<path opacity="0.1" d="M266.526 153.246H92.2183C88.331 153.246 85.1797 156.395 85.1797 160.28V227.131C85.1797 231.016 88.331 234.165 92.2183 234.165H266.526C270.413 234.165 273.565 231.016 273.565 227.131V160.28C273.565 156.395 270.413 153.246 266.526 153.246Z" fill="black"/>
<path d="M97.2953 167.225C100.277 167.225 102.694 165.204 102.694 162.711C102.694 160.218 100.277 158.197 97.2953 158.197C94.3136 158.197 91.8965 160.218 91.8965 162.711C91.8965 165.204 94.3136 167.225 97.2953 167.225Z" fill="#F1563C"/>
<path opacity="0.1" d="M97.2953 167.225C100.277 167.225 102.694 165.204 102.694 162.711C102.694 160.218 100.277 158.197 97.2953 158.197C94.3136 158.197 91.8965 160.218 91.8965 162.711C91.8965 165.204 94.3136 167.225 97.2953 167.225Z" fill="black"/>
<path d="M97.2953 166.235C100.277 166.235 102.694 164.214 102.694 161.721C102.694 159.228 100.277 157.207 97.2953 157.207C94.3136 157.207 91.8965 159.228 91.8965 161.721C91.8965 164.214 94.3136 166.235 97.2953 166.235Z" fill="#F1563C"/>
<path d="M103.686 182.97C106.668 182.97 109.085 180.949 109.085 178.456C109.085 175.962 106.668 173.941 103.686 173.941C100.704 173.941 98.2871 175.962 98.2871 178.456C98.2871 180.949 100.704 182.97 103.686 182.97Z" fill="#35323E"/>
<path opacity="0.1" d="M103.686 182.97C106.668 182.97 109.085 180.949 109.085 178.456C109.085 175.962 106.668 173.941 103.686 173.941C100.704 173.941 98.2871 175.962 98.2871 178.456C98.2871 180.949 100.704 182.97 103.686 182.97Z" fill="black"/>
<path d="M107.211 198.716C110.193 198.716 112.61 196.695 112.61 194.202C112.61 191.709 110.193 189.688 107.211 189.688C104.23 189.688 101.812 191.709 101.812 194.202C101.812 196.695 104.23 198.716 107.211 198.716Z" fill="#35323E"/>
<path opacity="0.1" d="M107.211 198.716C110.193 198.716 112.61 196.695 112.61 194.202C112.61 191.709 110.193 189.688 107.211 189.688C104.23 189.688 101.812 191.709 101.812 194.202C101.812 196.695 104.23 198.716 107.211 198.716Z" fill="black"/>
<path d="M93.5512 200.587C96.5329 200.587 98.95 198.566 98.95 196.073C98.95 193.58 96.5329 191.559 93.5512 191.559C90.5695 191.559 88.1523 193.58 88.1523 196.073C88.1523 198.566 90.5695 200.587 93.5512 200.587Z" fill="#35323E"/>
<path opacity="0.1" d="M93.5512 200.587C96.5329 200.587 98.95 198.566 98.95 196.073C98.95 193.58 96.5329 191.559 93.5512 191.559C90.5695 191.559 88.1523 193.58 88.1523 196.073C88.1523 198.566 90.5695 200.587 93.5512 200.587Z" fill="black"/>
<path d="M113.821 214.456C116.802 214.456 119.22 212.435 119.22 209.942C119.22 207.449 116.802 205.428 113.821 205.428C110.839 205.428 108.422 207.449 108.422 209.942C108.422 212.435 110.839 214.456 113.821 214.456Z" fill="#35323E"/>
<path opacity="0.1" d="M113.821 214.456C116.802 214.456 119.22 212.435 119.22 209.942C119.22 207.449 116.802 205.428 113.821 205.428C110.839 205.428 108.422 207.449 108.422 209.942C108.422 212.435 110.839 214.456 113.821 214.456Z" fill="black"/>
<path d="M95.7543 215.009C98.736 215.009 101.153 212.988 101.153 210.495C101.153 208.001 98.736 205.98 95.7543 205.98C92.7726 205.98 90.3555 208.001 90.3555 210.495C90.3555 212.988 92.7726 215.009 95.7543 215.009Z" fill="#35323E"/>
<path opacity="0.1" d="M95.7543 215.009C98.736 215.009 101.153 212.988 101.153 210.495C101.153 208.001 98.736 205.98 95.7543 205.98C92.7726 205.98 90.3555 208.001 90.3555 210.495C90.3555 212.988 92.7726 215.009 95.7543 215.009Z" fill="black"/>
<path d="M128.694 214.456C131.675 214.456 134.093 212.435 134.093 209.942C134.093 207.449 131.675 205.428 128.694 205.428C125.712 205.428 123.295 207.449 123.295 209.942C123.295 212.435 125.712 214.456 128.694 214.456Z" fill="#35323E"/>
<path opacity="0.1" d="M128.694 214.456C131.675 214.456 134.093 212.435 134.093 209.942C134.093 207.449 131.675 205.428 128.694 205.428C125.712 205.428 123.295 207.449 123.295 209.942C123.295 212.435 125.712 214.456 128.694 214.456Z" fill="black"/>
<path d="M144.446 214.456C147.427 214.456 149.845 212.435 149.845 209.942C149.845 207.449 147.427 205.428 144.446 205.428C141.464 205.428 139.047 207.449 139.047 209.942C139.047 212.435 141.464 214.456 144.446 214.456Z" fill="#35323E"/>
<path opacity="0.1" d="M144.446 214.456C147.427 214.456 149.845 212.435 149.845 209.942C149.845 207.449 147.427 205.428 144.446 205.428C141.464 205.428 139.047 207.449 139.047 209.942C139.047 212.435 141.464 214.456 144.446 214.456Z" fill="black"/>
<path d="M158.989 214.456C161.97 214.456 164.388 212.435 164.388 209.942C164.388 207.449 161.97 205.428 158.989 205.428C156.007 205.428 153.59 207.449 153.59 209.942C153.59 212.435 156.007 214.456 158.989 214.456Z" fill="#35323E"/>
<path opacity="0.1" d="M158.989 214.456C161.97 214.456 164.388 212.435 164.388 209.942C164.388 207.449 161.97 205.428 158.989 205.428C156.007 205.428 153.59 207.449 153.59 209.942C153.59 212.435 156.007 214.456 158.989 214.456Z" fill="black"/>
<path d="M158.989 213.466C161.97 213.466 164.388 211.445 164.388 208.952C164.388 206.459 161.97 204.438 158.989 204.438C156.007 204.438 153.59 206.459 153.59 208.952C153.59 211.445 156.007 213.466 158.989 213.466Z" fill="#35323E"/>
<path d="M175.073 214.456C178.054 214.456 180.472 212.435 180.472 209.942C180.472 207.449 178.054 205.428 175.073 205.428C172.091 205.428 169.674 207.449 169.674 209.942C169.674 212.435 172.091 214.456 175.073 214.456Z" fill="#35323E"/>
<path opacity="0.1" d="M175.073 214.456C178.054 214.456 180.472 212.435 180.472 209.942C180.472 207.449 178.054 205.428 175.073 205.428C172.091 205.428 169.674 207.449 169.674 209.942C169.674 212.435 172.091 214.456 175.073 214.456Z" fill="black"/>
<path d="M189.616 214.456C192.597 214.456 195.014 212.435 195.014 209.942C195.014 207.449 192.597 205.428 189.616 205.428C186.634 205.428 184.217 207.449 184.217 209.942C184.217 212.435 186.634 214.456 189.616 214.456Z" fill="#35323E"/>
<path opacity="0.1" d="M189.616 214.456C192.597 214.456 195.014 212.435 195.014 209.942C195.014 207.449 192.597 205.428 189.616 205.428C186.634 205.428 184.217 207.449 184.217 209.942C184.217 212.435 186.634 214.456 189.616 214.456Z" fill="black"/>
<path d="M204.045 214.456C207.027 214.456 209.444 212.435 209.444 209.942C209.444 207.449 207.027 205.428 204.045 205.428C201.064 205.428 198.646 207.449 198.646 209.942C198.646 212.435 201.064 214.456 204.045 214.456Z" fill="#35323E"/>
<path opacity="0.1" d="M204.045 214.456C207.027 214.456 209.444 212.435 209.444 209.942C209.444 207.449 207.027 205.428 204.045 205.428C201.064 205.428 198.646 207.449 198.646 209.942C198.646 212.435 201.064 214.456 204.045 214.456Z" fill="black"/>
<path d="M219.692 214.456C222.674 214.456 225.091 212.435 225.091 209.942C225.091 207.449 222.674 205.428 219.692 205.428C216.71 205.428 214.293 207.449 214.293 209.942C214.293 212.435 216.71 214.456 219.692 214.456Z" fill="#35323E"/>
<path opacity="0.1" d="M219.692 214.456C222.674 214.456 225.091 212.435 225.091 209.942C225.091 207.449 222.674 205.428 219.692 205.428C216.71 205.428 214.293 207.449 214.293 209.942C214.293 212.435 216.71 214.456 219.692 214.456Z" fill="black"/>
<path d="M234.344 214.456C237.326 214.456 239.743 212.435 239.743 209.942C239.743 207.449 237.326 205.428 234.344 205.428C231.362 205.428 228.945 207.449 228.945 209.942C228.945 212.435 231.362 214.456 234.344 214.456Z" fill="#35323E"/>
<path opacity="0.1" d="M234.344 214.456C237.326 214.456 239.743 212.435 239.743 209.942C239.743 207.449 237.326 205.428 234.344 205.428C231.362 205.428 228.945 207.449 228.945 209.942C228.945 212.435 231.362 214.456 234.344 214.456Z" fill="black"/>
<path d="M250.538 214.456C253.519 214.456 255.936 212.435 255.936 209.942C255.936 207.449 253.519 205.428 250.538 205.428C247.556 205.428 245.139 207.449 245.139 209.942C245.139 212.435 247.556 214.456 250.538 214.456Z" fill="#35323E"/>
<path opacity="0.1" d="M250.538 214.456C253.519 214.456 255.936 212.435 255.936 209.942C255.936 207.449 253.519 205.428 250.538 205.428C247.556 205.428 245.139 207.449 245.139 209.942C245.139 212.435 247.556 214.456 250.538 214.456Z" fill="black"/>
<path d="M267.174 214.456C270.156 214.456 272.573 212.435 272.573 209.942C272.573 207.449 270.156 205.428 267.174 205.428C264.193 205.428 261.775 207.449 261.775 209.942C261.775 212.435 264.193 214.456 267.174 214.456Z" fill="#35323E"/>
<path opacity="0.1" d="M267.174 214.456C270.156 214.456 272.573 212.435 272.573 209.942C272.573 207.449 270.156 205.428 267.174 205.428C264.193 205.428 261.775 207.449 261.775 209.942C261.775 212.435 264.193 214.456 267.174 214.456Z" fill="black"/>
<path d="M122.196 198.716C125.177 198.716 127.595 196.695 127.595 194.202C127.595 191.709 125.177 189.688 122.196 189.688C119.214 189.688 116.797 191.709 116.797 194.202C116.797 196.695 119.214 198.716 122.196 198.716Z" fill="#35323E"/>
<path opacity="0.1" d="M122.196 198.716C125.177 198.716 127.595 196.695 127.595 194.202C127.595 191.709 125.177 189.688 122.196 189.688C119.214 189.688 116.797 191.709 116.797 194.202C116.797 196.695 119.214 198.716 122.196 198.716Z" fill="black"/>
<path d="M137.176 198.716C140.158 198.716 142.575 196.695 142.575 194.202C142.575 191.709 140.158 189.688 137.176 189.688C134.194 189.688 131.777 191.709 131.777 194.202C131.777 196.695 134.194 198.716 137.176 198.716Z" fill="#35323E"/>
<path opacity="0.1" d="M137.176 198.716C140.158 198.716 142.575 196.695 142.575 194.202C142.575 191.709 140.158 189.688 137.176 189.688C134.194 189.688 131.777 191.709 131.777 194.202C131.777 196.695 134.194 198.716 137.176 198.716Z" fill="black"/>
<path d="M152.6 198.716C155.582 198.716 157.999 196.695 157.999 194.202C157.999 191.709 155.582 189.688 152.6 189.688C149.618 189.688 147.201 191.709 147.201 194.202C147.201 196.695 149.618 198.716 152.6 198.716Z" fill="#35323E"/>
<path opacity="0.1" d="M152.6 198.716C155.582 198.716 157.999 196.695 157.999 194.202C157.999 191.709 155.582 189.688 152.6 189.688C149.618 189.688 147.201 191.709 147.201 194.202C147.201 196.695 149.618 198.716 152.6 198.716Z" fill="black"/>
<path d="M167.362 198.716C170.343 198.716 172.761 196.695 172.761 194.202C172.761 191.709 170.343 189.688 167.362 189.688C164.38 189.688 161.963 191.709 161.963 194.202C161.963 196.695 164.38 198.716 167.362 198.716Z" fill="#35323E"/>
<path opacity="0.1" d="M167.362 198.716C170.343 198.716 172.761 196.695 172.761 194.202C172.761 191.709 170.343 189.688 167.362 189.688C164.38 189.688 161.963 191.709 161.963 194.202C161.963 196.695 164.38 198.716 167.362 198.716Z" fill="black"/>
<path d="M167.362 197.725C170.343 197.725 172.761 195.704 172.761 193.211C172.761 190.718 170.343 188.697 167.362 188.697C164.38 188.697 161.963 190.718 161.963 193.211C161.963 195.704 164.38 197.725 167.362 197.725Z" fill="#35323E"/>
<path d="M182.454 198.716C185.435 198.716 187.852 196.695 187.852 194.202C187.852 191.709 185.435 189.688 182.454 189.688C179.472 189.688 177.055 191.709 177.055 194.202C177.055 196.695 179.472 198.716 182.454 198.716Z" fill="#35323E"/>
<path opacity="0.1" d="M182.454 198.716C185.435 198.716 187.852 196.695 187.852 194.202C187.852 191.709 185.435 189.688 182.454 189.688C179.472 189.688 177.055 191.709 177.055 194.202C177.055 196.695 179.472 198.716 182.454 198.716Z" fill="black"/>
<path d="M196.887 198.716C199.869 198.716 202.286 196.695 202.286 194.202C202.286 191.709 199.869 189.688 196.887 189.688C193.905 189.688 191.488 191.709 191.488 194.202C191.488 196.695 193.905 198.716 196.887 198.716Z" fill="#35323E"/>
<path opacity="0.1" d="M196.887 198.716C199.869 198.716 202.286 196.695 202.286 194.202C202.286 191.709 199.869 189.688 196.887 189.688C193.905 189.688 191.488 191.709 191.488 194.202C191.488 196.695 193.905 198.716 196.887 198.716Z" fill="black"/>
<path d="M212.53 198.716C215.511 198.716 217.929 196.695 217.929 194.202C217.929 191.709 215.511 189.688 212.53 189.688C209.548 189.688 207.131 191.709 207.131 194.202C207.131 196.695 209.548 198.716 212.53 198.716Z" fill="#35323E"/>
<path opacity="0.1" d="M212.53 198.716C215.511 198.716 217.929 196.695 217.929 194.202C217.929 191.709 215.511 189.688 212.53 189.688C209.548 189.688 207.131 191.709 207.131 194.202C207.131 196.695 209.548 198.716 212.53 198.716Z" fill="black"/>
<path d="M227.405 198.716C230.386 198.716 232.804 196.695 232.804 194.202C232.804 191.709 230.386 189.688 227.405 189.688C224.423 189.688 222.006 191.709 222.006 194.202C222.006 196.695 224.423 198.716 227.405 198.716Z" fill="#35323E"/>
<path opacity="0.1" d="M227.405 198.716C230.386 198.716 232.804 196.695 232.804 194.202C232.804 191.709 230.386 189.688 227.405 189.688C224.423 189.688 222.006 191.709 222.006 194.202C222.006 196.695 224.423 198.716 227.405 198.716Z" fill="black"/>
<path d="M242.606 198.716C245.588 198.716 248.005 196.695 248.005 194.202C248.005 191.709 245.588 189.688 242.606 189.688C239.624 189.688 237.207 191.709 237.207 194.202C237.207 196.695 239.624 198.716 242.606 198.716Z" fill="#35323E"/>
<path opacity="0.1" d="M242.606 198.716C245.588 198.716 248.005 196.695 248.005 194.202C248.005 191.709 245.588 189.688 242.606 189.688C239.624 189.688 237.207 191.709 237.207 194.202C237.207 196.695 239.624 198.716 242.606 198.716Z" fill="black"/>
<path d="M257.809 198.716C260.791 198.716 263.208 196.695 263.208 194.202C263.208 191.709 260.791 189.688 257.809 189.688C254.827 189.688 252.41 191.709 252.41 194.202C252.41 196.695 254.827 198.716 257.809 198.716Z" fill="#35323E"/>
<path opacity="0.1" d="M257.809 198.716C260.791 198.716 263.208 196.695 263.208 194.202C263.208 191.709 260.791 189.688 257.809 189.688C254.827 189.688 252.41 191.709 252.41 194.202C252.41 196.695 254.827 198.716 257.809 198.716Z" fill="black"/>
<path d="M118.887 182.97C121.869 182.97 124.286 180.949 124.286 178.456C124.286 175.962 121.869 173.941 118.887 173.941C115.905 173.941 113.488 175.962 113.488 178.456C113.488 180.949 115.905 182.97 118.887 182.97Z" fill="#35323E"/>
<path opacity="0.1" d="M118.887 182.97C121.869 182.97 124.286 180.949 124.286 178.456C124.286 175.962 121.869 173.941 118.887 173.941C115.905 173.941 113.488 175.962 113.488 178.456C113.488 180.949 115.905 182.97 118.887 182.97Z" fill="black"/>
<path d="M134.094 182.97C137.076 182.97 139.493 180.949 139.493 178.456C139.493 175.962 137.076 173.941 134.094 173.941C131.112 173.941 128.695 175.962 128.695 178.456C128.695 180.949 131.112 182.97 134.094 182.97Z" fill="#35323E"/>
<path opacity="0.1" d="M134.094 182.97C137.076 182.97 139.493 180.949 139.493 178.456C139.493 175.962 137.076 173.941 134.094 173.941C131.112 173.941 128.695 175.962 128.695 178.456C128.695 180.949 131.112 182.97 134.094 182.97Z" fill="black"/>
<path d="M148.745 182.97C151.726 182.97 154.143 180.949 154.143 178.456C154.143 175.962 151.726 173.941 148.745 173.941C145.763 173.941 143.346 175.962 143.346 178.456C143.346 180.949 145.763 182.97 148.745 182.97Z" fill="#35323E"/>
<path opacity="0.1" d="M148.745 182.97C151.726 182.97 154.143 180.949 154.143 178.456C154.143 175.962 151.726 173.941 148.745 173.941C145.763 173.941 143.346 175.962 143.346 178.456C143.346 180.949 145.763 182.97 148.745 182.97Z" fill="black"/>
<path d="M163.397 182.97C166.379 182.97 168.796 180.949 168.796 178.456C168.796 175.962 166.379 173.941 163.397 173.941C160.415 173.941 157.998 175.962 157.998 178.456C157.998 180.949 160.415 182.97 163.397 182.97Z" fill="#35323E"/>
<path opacity="0.1" d="M163.397 182.97C166.379 182.97 168.796 180.949 168.796 178.456C168.796 175.962 166.379 173.941 163.397 173.941C160.415 173.941 157.998 175.962 157.998 178.456C157.998 180.949 160.415 182.97 163.397 182.97Z" fill="black"/>
<path d="M163.397 181.979C166.379 181.979 168.796 179.958 168.796 177.465C168.796 174.972 166.379 172.951 163.397 172.951C160.415 172.951 157.998 174.972 157.998 177.465C157.998 179.958 160.415 181.979 163.397 181.979Z" fill="#35323E"/>
<path d="M178.159 182.97C181.14 182.97 183.557 180.949 183.557 178.456C183.557 175.962 181.14 173.941 178.159 173.941C175.177 173.941 172.76 175.962 172.76 178.456C172.76 180.949 175.177 182.97 178.159 182.97Z" fill="#35323E"/>
<path opacity="0.1" d="M178.159 182.97C181.14 182.97 183.557 180.949 183.557 178.456C183.557 175.962 181.14 173.941 178.159 173.941C175.177 173.941 172.76 175.962 172.76 178.456C172.76 180.949 175.177 182.97 178.159 182.97Z" fill="black"/>
<path d="M192.702 182.97C195.683 182.97 198.1 180.949 198.1 178.456C198.1 175.962 195.683 173.941 192.702 173.941C189.72 173.941 187.303 175.962 187.303 178.456C187.303 180.949 189.72 182.97 192.702 182.97Z" fill="#35323E"/>
<path opacity="0.1" d="M192.702 182.97C195.683 182.97 198.1 180.949 198.1 178.456C198.1 175.962 195.683 173.941 192.702 173.941C189.72 173.941 187.303 175.962 187.303 178.456C187.303 180.949 189.72 182.97 192.702 182.97Z" fill="black"/>
<path d="M208.122 182.97C211.103 182.97 213.52 180.949 213.52 178.456C213.52 175.962 211.103 173.941 208.122 173.941C205.14 173.941 202.723 175.962 202.723 178.456C202.723 180.949 205.14 182.97 208.122 182.97Z" fill="#35323E"/>
<path opacity="0.1" d="M208.122 182.97C211.103 182.97 213.52 180.949 213.52 178.456C213.52 175.962 211.103 173.941 208.122 173.941C205.14 173.941 202.723 175.962 202.723 178.456C202.723 180.949 205.14 182.97 208.122 182.97Z" fill="black"/>
<path d="M222.664 182.97C225.646 182.97 228.063 180.949 228.063 178.456C228.063 175.962 225.646 173.941 222.664 173.941C219.683 173.941 217.266 175.962 217.266 178.456C217.266 180.949 219.683 182.97 222.664 182.97Z" fill="#35323E"/>
<path opacity="0.1" d="M222.664 182.97C225.646 182.97 228.063 180.949 228.063 178.456C228.063 175.962 225.646 173.941 222.664 173.941C219.683 173.941 217.266 175.962 217.266 178.456C217.266 180.949 219.683 182.97 222.664 182.97Z" fill="black"/>
<path d="M238.2 182.97C241.181 182.97 243.599 180.949 243.599 178.456C243.599 175.962 241.181 173.941 238.2 173.941C235.218 173.941 232.801 175.962 232.801 178.456C232.801 180.949 235.218 182.97 238.2 182.97Z" fill="#35323E"/>
<path opacity="0.1" d="M238.2 182.97C241.181 182.97 243.599 180.949 243.599 178.456C243.599 175.962 241.181 173.941 238.2 173.941C235.218 173.941 232.801 175.962 232.801 178.456C232.801 180.949 235.218 182.97 238.2 182.97Z" fill="black"/>
<path d="M253.401 182.97C256.382 182.97 258.8 180.949 258.8 178.456C258.8 175.962 256.382 173.941 253.401 173.941C250.419 173.941 248.002 175.962 248.002 178.456C248.002 180.949 250.419 182.97 253.401 182.97Z" fill="#35323E"/>
<path opacity="0.1" d="M253.401 182.97C256.382 182.97 258.8 180.949 258.8 178.456C258.8 175.962 256.382 173.941 253.401 173.941C250.419 173.941 248.002 175.962 248.002 178.456C248.002 180.949 250.419 182.97 253.401 182.97Z" fill="black"/>
<path d="M111.397 167.225C114.379 167.225 116.796 165.204 116.796 162.711C116.796 160.218 114.379 158.197 111.397 158.197C108.415 158.197 105.998 160.218 105.998 162.711C105.998 165.204 108.415 167.225 111.397 167.225Z" fill="#35323E"/>
<path opacity="0.1" d="M111.397 167.225C114.379 167.225 116.796 165.204 116.796 162.711C116.796 160.218 114.379 158.197 111.397 158.197C108.415 158.197 105.998 160.218 105.998 162.711C105.998 165.204 108.415 167.225 111.397 167.225Z" fill="black"/>
<path d="M126.381 167.225C129.363 167.225 131.78 165.204 131.78 162.711C131.78 160.218 129.363 158.197 126.381 158.197C123.4 158.197 120.982 160.218 120.982 162.711C120.982 165.204 123.4 167.225 126.381 167.225Z" fill="#35323E"/>
<path opacity="0.1" d="M126.381 167.225C129.363 167.225 131.78 165.204 131.78 162.711C131.78 160.218 129.363 158.197 126.381 158.197C123.4 158.197 120.982 160.218 120.982 162.711C120.982 165.204 123.4 167.225 126.381 167.225Z" fill="black"/>
<path d="M140.811 167.225C143.793 167.225 146.21 165.204 146.21 162.711C146.21 160.218 143.793 158.197 140.811 158.197C137.829 158.197 135.412 160.218 135.412 162.711C135.412 165.204 137.829 167.225 140.811 167.225Z" fill="#35323E"/>
<path opacity="0.1" d="M140.811 167.225C143.793 167.225 146.21 165.204 146.21 162.711C146.21 160.218 143.793 158.197 140.811 158.197C137.829 158.197 135.412 160.218 135.412 162.711C135.412 165.204 137.829 167.225 140.811 167.225Z" fill="black"/>
<path d="M155.686 167.225C158.668 167.225 161.085 165.204 161.085 162.711C161.085 160.218 158.668 158.197 155.686 158.197C152.704 158.197 150.287 160.218 150.287 162.711C150.287 165.204 152.704 167.225 155.686 167.225Z" fill="#35323E"/>
<path opacity="0.1" d="M155.686 167.225C158.668 167.225 161.085 165.204 161.085 162.711C161.085 160.218 158.668 158.197 155.686 158.197C152.704 158.197 150.287 160.218 150.287 162.711C150.287 165.204 152.704 167.225 155.686 167.225Z" fill="black"/>
<path d="M170.336 167.225C173.318 167.225 175.735 165.204 175.735 162.711C175.735 160.218 173.318 158.197 170.336 158.197C167.355 158.197 164.938 160.218 164.938 162.711C164.938 165.204 167.355 167.225 170.336 167.225Z" fill="#35323E"/>
<path opacity="0.1" d="M170.336 167.225C173.318 167.225 175.735 165.204 175.735 162.711C175.735 160.218 173.318 158.197 170.336 158.197C167.355 158.197 164.938 160.218 164.938 162.711C164.938 165.204 167.355 167.225 170.336 167.225Z" fill="black"/>
<path d="M185.321 167.225C188.302 167.225 190.72 165.204 190.72 162.711C190.72 160.218 188.302 158.197 185.321 158.197C182.339 158.197 179.922 160.218 179.922 162.711C179.922 165.204 182.339 167.225 185.321 167.225Z" fill="#35323E"/>
<path opacity="0.1" d="M185.321 167.225C188.302 167.225 190.72 165.204 190.72 162.711C190.72 160.218 188.302 158.197 185.321 158.197C182.339 158.197 179.922 160.218 179.922 162.711C179.922 165.204 182.339 167.225 185.321 167.225Z" fill="black"/>
<path d="M199.973 167.225C202.955 167.225 205.372 165.204 205.372 162.711C205.372 160.218 202.955 158.197 199.973 158.197C196.991 158.197 194.574 160.218 194.574 162.711C194.574 165.204 196.991 167.225 199.973 167.225Z" fill="#35323E"/>
<path opacity="0.1" d="M199.973 167.225C202.955 167.225 205.372 165.204 205.372 162.711C205.372 160.218 202.955 158.197 199.973 158.197C196.991 158.197 194.574 160.218 194.574 162.711C194.574 165.204 196.991 167.225 199.973 167.225Z" fill="black"/>
<path d="M214.844 167.225C217.826 167.225 220.243 165.204 220.243 162.711C220.243 160.218 217.826 158.197 214.844 158.197C211.862 158.197 209.445 160.218 209.445 162.711C209.445 165.204 211.862 167.225 214.844 167.225Z" fill="#35323E"/>
<path opacity="0.1" d="M214.844 167.225C217.826 167.225 220.243 165.204 220.243 162.711C220.243 160.218 217.826 158.197 214.844 158.197C211.862 158.197 209.445 160.218 209.445 162.711C209.445 165.204 211.862 167.225 214.844 167.225Z" fill="black"/>
<path d="M230.159 167.225C233.14 167.225 235.557 165.204 235.557 162.711C235.557 160.218 233.14 158.197 230.159 158.197C227.177 158.197 224.76 160.218 224.76 162.711C224.76 165.204 227.177 167.225 230.159 167.225Z" fill="#35323E"/>
<path opacity="0.1" d="M230.159 167.225C233.14 167.225 235.557 165.204 235.557 162.711C235.557 160.218 233.14 158.197 230.159 158.197C227.177 158.197 224.76 160.218 224.76 162.711C224.76 165.204 227.177 167.225 230.159 167.225Z" fill="black"/>
<path d="M245.139 167.225C248.121 167.225 250.538 165.204 250.538 162.711C250.538 160.218 248.121 158.197 245.139 158.197C242.157 158.197 239.74 160.218 239.74 162.711C239.74 165.204 242.157 167.225 245.139 167.225Z" fill="#35323E"/>
<path opacity="0.1" d="M245.139 167.225C248.121 167.225 250.538 165.204 250.538 162.711C250.538 160.218 248.121 158.197 245.139 158.197C242.157 158.197 239.74 160.218 239.74 162.711C239.74 165.204 242.157 167.225 245.139 167.225Z" fill="white"/>
<path d="M103.686 181.979C106.668 181.979 109.085 179.958 109.085 177.465C109.085 174.972 106.668 172.951 103.686 172.951C100.704 172.951 98.2871 174.972 98.2871 177.465C98.2871 179.958 100.704 181.979 103.686 181.979Z" fill="#999999"/>
<path d="M107.211 197.725C110.193 197.725 112.61 195.704 112.61 193.211C112.61 190.718 110.193 188.697 107.211 188.697C104.23 188.697 101.812 190.718 101.812 193.211C101.812 195.704 104.23 197.725 107.211 197.725Z" fill="#999999"/>
<path d="M93.5512 199.597C96.5329 199.597 98.95 197.576 98.95 195.082C98.95 192.589 96.5329 190.568 93.5512 190.568C90.5695 190.568 88.1523 192.589 88.1523 195.082C88.1523 197.576 90.5695 199.597 93.5512 199.597Z" fill="#999999"/>
<path d="M113.821 213.466C116.802 213.466 119.22 211.445 119.22 208.952C119.22 206.459 116.802 204.438 113.821 204.438C110.839 204.438 108.422 206.459 108.422 208.952C108.422 211.445 110.839 213.466 113.821 213.466Z" fill="#999999"/>
<path d="M95.7543 214.015C98.736 214.015 101.153 211.993 101.153 209.5C101.153 207.007 98.736 204.986 95.7543 204.986C92.7726 204.986 90.3555 207.007 90.3555 209.5C90.3555 211.993 92.7726 214.015 95.7543 214.015Z" fill="#999999"/>
<path d="M128.694 213.466C131.675 213.466 134.093 211.445 134.093 208.952C134.093 206.459 131.675 204.438 128.694 204.438C125.712 204.438 123.295 206.459 123.295 208.952C123.295 211.445 125.712 213.466 128.694 213.466Z" fill="#999999"/>
<path d="M144.446 213.466C147.427 213.466 149.845 211.445 149.845 208.952C149.845 206.459 147.427 204.438 144.446 204.438C141.464 204.438 139.047 206.459 139.047 208.952C139.047 211.445 141.464 213.466 144.446 213.466Z" fill="#999999"/>
<path d="M175.073 213.466C178.054 213.466 180.472 211.445 180.472 208.952C180.472 206.459 178.054 204.438 175.073 204.438C172.091 204.438 169.674 206.459 169.674 208.952C169.674 211.445 172.091 213.466 175.073 213.466Z" fill="#999999"/>
<path d="M189.616 213.466C192.597 213.466 195.014 211.445 195.014 208.952C195.014 206.459 192.597 204.438 189.616 204.438C186.634 204.438 184.217 206.459 184.217 208.952C184.217 211.445 186.634 213.466 189.616 213.466Z" fill="#999999"/>
<path d="M204.045 213.466C207.027 213.466 209.444 211.445 209.444 208.952C209.444 206.459 207.027 204.438 204.045 204.438C201.064 204.438 198.646 206.459 198.646 208.952C198.646 211.445 201.064 213.466 204.045 213.466Z" fill="#999999"/>
<path d="M219.692 213.466C222.674 213.466 225.091 211.445 225.091 208.952C225.091 206.459 222.674 204.438 219.692 204.438C216.71 204.438 214.293 206.459 214.293 208.952C214.293 211.445 216.71 213.466 219.692 213.466Z" fill="#999999"/>
<path d="M234.344 213.466C237.326 213.466 239.743 211.445 239.743 208.952C239.743 206.459 237.326 204.438 234.344 204.438C231.362 204.438 228.945 206.459 228.945 208.952C228.945 211.445 231.362 213.466 234.344 213.466Z" fill="#999999"/>
<path d="M250.538 213.466C253.519 213.466 255.936 211.445 255.936 208.952C255.936 206.459 253.519 204.438 250.538 204.438C247.556 204.438 245.139 206.459 245.139 208.952C245.139 211.445 247.556 213.466 250.538 213.466Z" fill="#999999"/>
<path d="M267.174 213.466C270.156 213.466 272.573 211.445 272.573 208.952C272.573 206.459 270.156 204.438 267.174 204.438C264.193 204.438 261.775 206.459 261.775 208.952C261.775 211.445 264.193 213.466 267.174 213.466Z" fill="#999999"/>
<path d="M122.196 197.725C125.177 197.725 127.595 195.704 127.595 193.211C127.595 190.718 125.177 188.697 122.196 188.697C119.214 188.697 116.797 190.718 116.797 193.211C116.797 195.704 119.214 197.725 122.196 197.725Z" fill="#999999"/>
<path d="M137.176 197.725C140.158 197.725 142.575 195.704 142.575 193.211C142.575 190.718 140.158 188.697 137.176 188.697C134.194 188.697 131.777 190.718 131.777 193.211C131.777 195.704 134.194 197.725 137.176 197.725Z" fill="#999999"/>
<path d="M152.6 197.725C155.582 197.725 157.999 195.704 157.999 193.211C157.999 190.718 155.582 188.697 152.6 188.697C149.618 188.697 147.201 190.718 147.201 193.211C147.201 195.704 149.618 197.725 152.6 197.725Z" fill="#999999"/>
<path d="M182.454 197.725C185.435 197.725 187.852 195.704 187.852 193.211C187.852 190.718 185.435 188.697 182.454 188.697C179.472 188.697 177.055 190.718 177.055 193.211C177.055 195.704 179.472 197.725 182.454 197.725Z" fill="#999999"/>
<path d="M196.887 197.725C199.869 197.725 202.286 195.704 202.286 193.211C202.286 190.718 199.869 188.697 196.887 188.697C193.905 188.697 191.488 190.718 191.488 193.211C191.488 195.704 193.905 197.725 196.887 197.725Z" fill="#999999"/>
<path d="M212.53 197.725C215.511 197.725 217.929 195.704 217.929 193.211C217.929 190.718 215.511 188.697 212.53 188.697C209.548 188.697 207.131 190.718 207.131 193.211C207.131 195.704 209.548 197.725 212.53 197.725Z" fill="#999999"/>
<path d="M227.405 197.725C230.386 197.725 232.804 195.704 232.804 193.211C232.804 190.718 230.386 188.697 227.405 188.697C224.423 188.697 222.006 190.718 222.006 193.211C222.006 195.704 224.423 197.725 227.405 197.725Z" fill="#999999"/>
<path d="M242.606 197.725C245.588 197.725 248.005 195.704 248.005 193.211C248.005 190.718 245.588 188.697 242.606 188.697C239.624 188.697 237.207 190.718 237.207 193.211C237.207 195.704 239.624 197.725 242.606 197.725Z" fill="#999999"/>
<path d="M257.809 197.725C260.791 197.725 263.208 195.704 263.208 193.211C263.208 190.718 260.791 188.697 257.809 188.697C254.827 188.697 252.41 190.718 252.41 193.211C252.41 195.704 254.827 197.725 257.809 197.725Z" fill="#999999"/>
<path d="M118.887 181.979C121.869 181.979 124.286 179.958 124.286 177.465C124.286 174.972 121.869 172.951 118.887 172.951C115.905 172.951 113.488 174.972 113.488 177.465C113.488 179.958 115.905 181.979 118.887 181.979Z" fill="#999999"/>
<path d="M134.094 181.979C137.076 181.979 139.493 179.958 139.493 177.465C139.493 174.972 137.076 172.951 134.094 172.951C131.112 172.951 128.695 174.972 128.695 177.465C128.695 179.958 131.112 181.979 134.094 181.979Z" fill="#999999"/>
<path d="M148.745 181.979C151.726 181.979 154.143 179.958 154.143 177.465C154.143 174.972 151.726 172.951 148.745 172.951C145.763 172.951 143.346 174.972 143.346 177.465C143.346 179.958 145.763 181.979 148.745 181.979Z" fill="#999999"/>
<path d="M178.159 181.979C181.14 181.979 183.557 179.958 183.557 177.465C183.557 174.972 181.14 172.951 178.159 172.951C175.177 172.951 172.76 174.972 172.76 177.465C172.76 179.958 175.177 181.979 178.159 181.979Z" fill="#999999"/>
<path d="M192.702 181.979C195.683 181.979 198.1 179.958 198.1 177.465C198.1 174.972 195.683 172.951 192.702 172.951C189.72 172.951 187.303 174.972 187.303 177.465C187.303 179.958 189.72 181.979 192.702 181.979Z" fill="#999999"/>
<path d="M208.122 181.979C211.103 181.979 213.52 179.958 213.52 177.465C213.52 174.972 211.103 172.951 208.122 172.951C205.14 172.951 202.723 174.972 202.723 177.465C202.723 179.958 205.14 181.979 208.122 181.979Z" fill="#999999"/>
<path d="M222.664 181.979C225.646 181.979 228.063 179.958 228.063 177.465C228.063 174.972 225.646 172.951 222.664 172.951C219.683 172.951 217.266 174.972 217.266 177.465C217.266 179.958 219.683 181.979 222.664 181.979Z" fill="#999999"/>
<path d="M238.2 181.979C241.181 181.979 243.599 179.958 243.599 177.465C243.599 174.972 241.181 172.951 238.2 172.951C235.218 172.951 232.801 174.972 232.801 177.465C232.801 179.958 235.218 181.979 238.2 181.979Z" fill="#999999"/>
<path d="M253.401 181.979C256.382 181.979 258.8 179.958 258.8 177.465C258.8 174.972 256.382 172.951 253.401 172.951C250.419 172.951 248.002 174.972 248.002 177.465C248.002 179.958 250.419 181.979 253.401 181.979Z" fill="#999999"/>
<path d="M111.397 166.235C114.379 166.235 116.796 164.214 116.796 161.721C116.796 159.228 114.379 157.207 111.397 157.207C108.415 157.207 105.998 159.228 105.998 161.721C105.998 164.214 108.415 166.235 111.397 166.235Z" fill="#999999"/>
<path d="M126.381 166.235C129.363 166.235 131.78 164.214 131.78 161.721C131.78 159.228 129.363 157.207 126.381 157.207C123.4 157.207 120.982 159.228 120.982 161.721C120.982 164.214 123.4 166.235 126.381 166.235Z" fill="#999999"/>
<path d="M140.811 166.235C143.793 166.235 146.21 164.214 146.21 161.721C146.21 159.228 143.793 157.207 140.811 157.207C137.829 157.207 135.412 159.228 135.412 161.721C135.412 164.214 137.829 166.235 140.811 166.235Z" fill="#999999"/>
<path d="M155.686 166.235C158.668 166.235 161.085 164.214 161.085 161.721C161.085 159.228 158.668 157.207 155.686 157.207C152.704 157.207 150.287 159.228 150.287 161.721C150.287 164.214 152.704 166.235 155.686 166.235Z" fill="#999999"/>
<path d="M170.336 166.235C173.318 166.235 175.735 164.214 175.735 161.721C175.735 159.228 173.318 157.207 170.336 157.207C167.355 157.207 164.938 159.228 164.938 161.721C164.938 164.214 167.355 166.235 170.336 166.235Z" fill="#999999"/>
<path d="M185.321 166.235C188.302 166.235 190.72 164.214 190.72 161.721C190.72 159.228 188.302 157.207 185.321 157.207C182.339 157.207 179.922 159.228 179.922 161.721C179.922 164.214 182.339 166.235 185.321 166.235Z" fill="#999999"/>
<path d="M199.973 166.235C202.955 166.235 205.372 164.214 205.372 161.721C205.372 159.228 202.955 157.207 199.973 157.207C196.991 157.207 194.574 159.228 194.574 161.721C194.574 164.214 196.991 166.235 199.973 166.235Z" fill="#999999"/>
<path d="M214.844 166.235C217.826 166.235 220.243 164.214 220.243 161.721C220.243 159.228 217.826 157.207 214.844 157.207C211.862 157.207 209.445 159.228 209.445 161.721C209.445 164.214 211.862 166.235 214.844 166.235Z" fill="#999999"/>
<path d="M230.159 166.235C233.14 166.235 235.557 164.214 235.557 161.721C235.557 159.228 233.14 157.207 230.159 157.207C227.177 157.207 224.76 159.228 224.76 161.721C224.76 164.214 227.177 166.235 230.159 166.235Z" fill="#999999"/>
<path d="M245.139 166.235C248.121 166.235 250.538 164.214 250.538 161.721C250.538 159.228 248.121 157.207 245.139 157.207C242.157 157.207 239.74 159.228 239.74 161.721C239.74 164.214 242.157 166.235 245.139 166.235Z" fill="#999999"/>
<path d="M259.79 167.225C262.771 167.225 265.188 165.204 265.188 162.711C265.188 160.218 262.771 158.197 259.79 158.197C256.808 158.197 254.391 160.218 254.391 162.711C254.391 165.204 256.808 167.225 259.79 167.225Z" fill="#F1563C"/>
<path opacity="0.1" d="M259.79 167.225C262.771 167.225 265.188 165.204 265.188 162.711C265.188 160.218 262.771 158.197 259.79 158.197C256.808 158.197 254.391 160.218 254.391 162.711C254.391 165.204 256.808 167.225 259.79 167.225Z" fill="black"/>
<path d="M259.79 166.235C262.771 166.235 265.188 164.214 265.188 161.721C265.188 159.228 262.771 157.207 259.79 157.207C256.808 157.207 254.391 159.228 254.391 161.721C254.391 164.214 256.808 166.235 259.79 166.235Z" fill="#F1563C"/>
<path d="M259.017 220.514H100.493C98.7269 220.514 97.2949 221.945 97.2949 223.71V226.014C97.2949 227.78 98.7269 229.211 100.493 229.211H259.017C260.784 229.211 262.216 227.78 262.216 226.014V223.71C262.216 221.945 260.784 220.514 259.017 220.514Z" fill="#35323E"/>
<path opacity="0.1" d="M259.017 220.514H100.493C98.7269 220.514 97.2949 221.945 97.2949 223.71V226.014C97.2949 227.78 98.7269 229.211 100.493 229.211H259.017C260.784 229.211 262.216 227.78 262.216 226.014V223.71C262.216 221.945 260.784 220.514 259.017 220.514Z" fill="black"/>
<path d="M259.017 219.852H100.493C98.7269 219.852 97.2949 221.283 97.2949 223.048V225.352C97.2949 227.118 98.7269 228.548 100.493 228.548H259.017C260.784 228.548 262.216 227.118 262.216 225.352V223.048C262.216 221.283 260.784 219.852 259.017 219.852Z" fill="#C6CFDA"/>
<path opacity="0.1" d="M239.743 116.802C239.743 126.105 210.277 136.067 177.055 136.067C143.833 136.067 119.223 125.333 119.223 116.03C119.223 106.727 143.84 102.379 177.055 102.379C210.27 102.379 239.743 107.499 239.743 116.802Z" fill="#F1563C"/>
<path d="M268.935 89.4982C270.942 89.4982 272.57 85.4814 272.57 80.5265C272.57 75.5715 270.942 71.5547 268.935 71.5547C266.927 71.5547 265.299 75.5715 265.299 80.5265C265.299 85.4814 266.927 89.4982 268.935 89.4982Z" fill="#464353"/>
<path d="M90.9052 89.4982C92.9131 89.4982 94.5409 85.4814 94.5409 80.5265C94.5409 75.5715 92.9131 71.5547 90.9052 71.5547C88.8973 71.5547 87.2695 75.5715 87.2695 80.5265C87.2695 85.4814 88.8973 89.4982 90.9052 89.4982Z" fill="#464353"/>
<path opacity="0.1" d="M268.934 78.3809H93.5508V81.0238H268.934V78.3809Z" fill="black"/>
<path d="M268.934 77.9414H93.5508V80.5843H268.934V77.9414Z" fill="#464353"/>
<path d="M183.994 81.2427C182.559 80.8023 179.918 89.4992 179.918 89.4992H187.958C187.958 89.4992 185.43 81.6832 183.994 81.2427ZM183.882 82.3422C184.034 82.3415 184.184 82.3862 184.312 82.4705C184.439 82.5549 184.539 82.6752 184.598 82.8161C184.657 82.9571 184.672 83.1124 184.643 83.2623C184.614 83.4122 184.54 83.5501 184.432 83.6584C184.325 83.7666 184.187 83.8405 184.037 83.8706C183.887 83.9006 183.732 83.8855 183.59 83.8272C183.449 83.7689 183.328 83.67 183.243 83.543C183.158 83.416 183.113 83.2667 183.113 83.1139C183.113 83.0126 183.133 82.9122 183.172 82.8186C183.21 82.725 183.267 82.6399 183.339 82.5682C183.411 82.4966 183.496 82.4397 183.59 82.4009C183.683 82.3621 183.784 82.3422 183.885 82.3422H183.882ZM183.973 84.83C184.915 85.0591 186.583 89.1679 186.583 89.1679H181.293C181.293 89.1679 183.035 84.5975 183.994 84.83H183.973Z" fill="#464353"/>
<path opacity="0.03" d="M282.004 148.333H76.7695C77.0704 145.463 77.4231 142.598 77.8274 139.739L83.0147 103.626C83.6751 99.1054 85.9409 94.9731 89.3983 91.984C92.8556 88.9949 97.2737 87.3486 101.845 87.3457H109.723C113.721 87.3597 117.607 88.6664 120.8 91.0704C128.96 97.1562 152.142 101.547 179.471 101.547C206.8 101.547 229.993 97.1703 238.171 91.0704C241.364 88.6664 245.25 87.3597 249.247 87.3457H262.009C264.692 87.3457 267.288 88.2903 269.343 90.0136C271.398 91.7369 272.779 94.1286 273.244 96.7685L280.209 136.236C280.914 140.263 281.512 144.295 282.004 148.333Z" fill="#F1563C"/>
<path d="M172.961 193.102C172.961 193.102 168.916 185.702 169.6 184.511C170.09 183.571 170.486 182.585 170.782 181.568C170.782 181.568 172.277 180.546 172.277 180.123C172.277 179.7 173.458 178.742 174.083 178.323C174.707 177.903 174.393 175.919 174.083 175.68C173.77 175.355 173.5 174.991 173.278 174.598C173.278 174.598 173.709 173.396 173.278 173.037C172.848 172.677 173.342 172.332 173.278 171.955C173.248 171.395 173.248 170.834 173.278 170.274C172.911 169.704 172.344 169.292 171.688 169.118L171.642 168.928L171.374 167.807C171.374 167.807 172.665 165.341 170.57 164.03C170.421 163.938 170.265 163.855 170.105 163.783C170.105 163.783 170.105 163.723 170.105 163.621C170.061 162.98 169.958 162.344 169.798 161.722C169.689 161.369 169.548 161.14 169.361 161.193C169.317 161.206 169.277 161.229 169.244 161.26C169.159 161.338 169.084 161.427 169.022 161.524C168.784 161.953 168.617 162.417 168.528 162.899C168.466 163.184 168.419 163.472 168.387 163.762C168.296 163.935 168.216 164.114 168.148 164.298C167.894 164.957 167.594 166.102 168.148 166.948C168.61 167.652 169.227 168.653 169.678 169.372V169.397L169.706 169.439L169.66 169.471V169.58L169.699 170.186L170.052 175.419C169.948 175.389 169.842 175.366 169.734 175.352C169.581 175.328 169.425 175.317 169.269 175.32C168.966 174.129 168.13 173.016 167.982 171.772C167.965 171.648 167.957 171.523 167.957 171.398C167.957 170.612 168.165 169.827 168.148 169.044C168.156 168.9 168.156 168.755 168.148 168.611V168.491C168.07 167.922 167.853 167.38 167.518 166.913C167.182 166.446 166.737 166.069 166.222 165.813C165.87 165.633 165.471 165.513 165.118 165.316C164.307 164.861 163.789 164.04 163.052 163.48C162.778 163.261 162.457 163.108 162.113 163.033C161.77 162.958 161.414 162.964 161.074 163.05C160.748 163.099 160.426 163.167 160.108 163.251C159.334 163.453 158.593 163.76 157.904 164.164C157.812 164.22 157.717 164.277 157.629 164.343C157.434 164.471 157.28 164.65 157.184 164.861C157.122 165.041 157.098 165.232 157.114 165.422C157.114 165.559 157.114 165.7 157.114 165.834C157.071 168.132 154.592 169.918 154.388 172.177C154.388 172.233 154.388 172.286 154.388 172.339V172.586V172.765C154.423 173.752 154.934 174.668 155.03 175.652C155.03 175.74 155.03 175.824 155.03 175.912C155.014 176.363 154.928 176.809 154.776 177.234C154.463 177.313 154.162 177.431 153.88 177.586C153.129 178.069 151.764 178.908 151.27 180.507C151.142 180.923 151.077 181.355 151.08 181.79C151.072 183.326 150.931 184.859 150.66 186.371C150.597 186.752 150.508 187.129 150.396 187.499C150.388 187.535 150.388 187.572 150.396 187.608L150.1 191.484L150.043 192.168L149.969 193.141C149.969 193.141 149.99 193.2 150.022 193.299C150.054 193.398 150.103 193.567 150.142 193.747C150.225 194.076 150.238 194.419 150.181 194.754C150.147 194.89 150.073 195.013 149.969 195.107L149.945 195.135C149.814 195.449 149.737 195.782 149.719 196.122C149.691 196.326 149.67 196.548 149.645 196.795C149.5 198.324 149.409 200.618 149.356 202.514C149.303 204.41 149.285 205.862 149.285 205.862C149.527 206.017 149.786 206.145 150.057 206.242C150.035 206.294 150.015 206.347 149.997 206.401C149.751 207.034 149.593 207.698 149.528 208.374C149.405 209.784 149.8 211.359 151.775 212.169C151.901 212.221 152.031 212.265 152.163 212.3C152.322 212.359 152.492 212.384 152.661 212.373C152.83 212.363 152.996 212.318 153.147 212.24C153.147 212.324 153.147 212.406 153.147 212.49C153.168 212.842 153.185 213.16 153.192 213.431C153.256 215.112 153.672 218.054 153.672 218.054C153.672 218.054 153.817 219.256 153.69 219.619C153.563 219.982 153.69 221.42 153.69 221.42C153.69 221.42 154.127 222.124 153.69 222.501C153.252 222.878 153.132 224.665 153.256 224.905C153.255 224.914 153.255 224.924 153.256 224.933C153.351 225.528 152.812 234.398 152.812 234.398C152.812 234.398 152.304 235.755 151.902 237.164C151.5 238.574 151.196 239.959 151.574 240.223C151.929 240.4 152.317 240.504 152.713 240.53C152.713 240.589 152.713 240.649 152.713 240.709C152.702 241.216 152.618 241.718 152.462 242.2C152.29 242.443 152.11 244.339 152.022 245.371C152.022 245.41 152.022 245.449 152.022 245.484C151.836 245.922 151.68 246.371 151.556 246.83C151.556 246.83 150.181 250.273 150.646 251.175C150.69 251.256 150.748 251.328 150.819 251.387C150.833 251.402 150.848 251.417 150.865 251.429C151.528 251.957 153.189 252.07 153.792 252.095L153.771 252.948V253.008H154.557V252.986C154.557 252.877 154.575 252.384 154.599 251.721C154.599 251.605 154.599 251.482 154.599 251.369C154.599 251.256 154.599 251.168 154.599 251.066C154.835 250.453 154.955 249.802 154.952 249.145C154.952 248.393 155.054 247.644 155.255 246.918C155.353 246.545 155.486 246.181 155.654 245.833C155.788 245.098 155.754 244.343 155.555 243.623C155.493 243.442 155.397 243.273 155.273 243.127C155.275 243.096 155.275 243.066 155.273 243.035V242.838C155.264 242.218 155.325 241.6 155.456 240.995C155.454 240.985 155.454 240.976 155.456 240.967C155.456 240.914 155.477 240.868 155.492 240.818V240.787H155.745C156.525 240.811 157.1 240.811 157.1 240.811C157.1 240.811 157.724 237.64 157.66 236.23C157.66 236.171 157.66 236.107 157.66 236.044C157.687 234.955 157.813 233.871 158.038 232.805L158.535 227.942C158.398 227.47 158.398 226.969 158.535 226.497C158.69 226.145 159.007 225.44 159.24 224.965C159.342 224.743 159.427 224.57 159.462 224.496V224.457C159.384 224.428 159.309 224.391 159.24 224.344C159.036 224.207 158.856 223.943 159.462 223.555C160.397 222.952 160.086 221.441 160.086 221.441C160.01 221.28 159.974 221.102 159.983 220.924C159.991 220.745 160.044 220.572 160.136 220.419C160.46 219.94 160.136 218.135 160.136 218.135C160.403 217.66 160.617 217.156 160.774 216.634C161.007 215.929 161.592 212.406 161.867 210.704C161.959 210.147 162.015 209.787 162.015 209.787V209.875V209.971L162.093 210.77V210.876L162.234 212.391C162.234 212.391 162.523 216.373 162.343 217.934C162.345 217.944 162.345 217.953 162.343 217.963C162.33 218.124 162.295 218.283 162.237 218.435C161.91 219.185 161.969 222.156 161.987 222.812C161.987 222.864 161.987 222.91 161.987 222.945C161.853 223.266 161.793 223.613 161.811 223.96C161.823 224.069 161.862 224.173 161.924 224.263C162.011 224.403 162.051 224.568 162.036 224.732C162.036 224.799 162.036 224.869 162.036 224.94C161.992 225.218 161.919 225.491 161.818 225.754C161.818 225.754 161.465 226.631 161.61 227.09C161.627 227.149 161.656 227.204 161.694 227.252C161.723 227.305 161.738 227.364 161.74 227.424C161.857 228.393 161.557 232.668 161.388 235.004C161.317 235.927 161.264 236.551 161.264 236.551L160.771 241.657L160.82 241.689C160.876 241.731 160.982 241.798 161.123 241.883L161.102 242.038C161.031 242.531 160.936 243.095 160.834 243.539C160.824 243.57 160.816 243.602 160.809 243.634C160.62 243.667 160.44 243.739 160.28 243.845C159.222 245.706 159.695 247.179 160.28 247.609C160.49 247.856 160.613 248.164 160.633 248.486L160.778 250.34V250.555C160.778 250.612 160.788 250.67 160.806 250.724L160.852 251.284L160.912 252.067H161.388V251.175H161.416C162.17 251.203 163.384 251.235 163.916 251.193H164.057C164.086 251.189 164.115 251.181 164.142 251.168C164.42 251.034 165.122 249.054 164.494 248.603C163.867 248.152 163.726 246.883 163.726 246.883C163.669 246.714 163.616 246.555 163.56 246.404C163.558 246.372 163.558 246.34 163.56 246.309C163.527 245.758 163.552 245.205 163.634 244.66C163.739 244.008 163.794 243.35 163.8 242.69C163.8 242.633 163.8 242.58 163.8 242.524V242.506C163.909 242.481 164.016 242.447 164.121 242.404H164.145C164.338 242.324 164.518 242.217 164.681 242.087L166.427 234.278L166.61 233.369L167.668 228.207C167.668 228.207 167.298 226.406 167.668 226.092C167.806 225.983 167.844 225.521 167.834 224.979C167.834 224.034 167.668 222.864 167.668 222.864C167.668 222.864 168.165 222.086 168.416 221.603C168.666 221.12 168.416 219.862 168.416 219.862L168.913 216.98C169.299 214.805 169.947 212.686 170.845 210.668C171.854 208.554 171.198 202.821 170.553 199.769L170.5 199.54L171.589 199.011L171.741 198.941C172.252 198.701 172.799 198.455 173.278 198.236H173.31C173.656 198.086 174.009 197.953 174.368 197.838C174.475 197.804 174.585 197.781 174.696 197.771C175.578 197.662 172.961 193.102 172.961 193.102ZM153.489 202.877H153.746C153.714 202.933 153.686 202.99 153.658 203.05C153.639 203.083 153.623 203.117 153.608 203.152C153.513 203.345 153.428 203.544 153.355 203.747C153.383 203.532 153.418 203.3 153.457 203.043L153.489 202.877ZM152.783 206.626C152.783 206.626 152.783 206.626 152.783 206.605C152.783 206.584 152.783 206.559 152.759 206.538L152.716 206.401C152.804 206.373 152.896 206.344 152.988 206.309C152.988 206.309 152.988 206.341 152.988 206.359C152.988 206.376 152.97 206.492 152.963 206.559C152.963 206.559 152.963 206.577 152.963 206.588C152.963 206.598 152.963 206.693 152.963 206.746C152.963 206.799 152.935 206.947 152.924 207.046L152.84 206.778C152.819 206.714 152.804 206.665 152.787 206.619L152.783 206.626Z" fill="url(#paint0_linear)"/>
<path d="M171.469 170.042L169.918 170.595L169.353 169.658C168.92 168.953 168.32 167.956 167.879 167.241C167.1 165.983 168.119 164.069 168.119 164.069C168.119 164.069 168.299 162.152 168.959 161.553C169.618 160.954 169.798 164.069 169.798 164.069C172.432 165.264 171.021 168.079 171.021 168.079L171.275 169.196L171.469 170.042Z" fill="#BE6F72"/>
<path opacity="0.1" d="M171.469 170.042L169.918 170.595L169.354 169.658V169.577C169.926 169.213 170.614 169.078 171.282 169.196L171.469 170.042Z" fill="black"/>
<path d="M168.959 176.343L169.738 175.684L169.347 169.757C169.626 169.569 169.941 169.44 170.272 169.378C170.602 169.316 170.943 169.323 171.271 169.397C171.599 169.471 171.909 169.612 172.181 169.81C172.453 170.008 172.681 170.26 172.852 170.55C172.821 171.108 172.821 171.668 172.852 172.227C172.912 172.579 172.432 172.932 172.852 173.284C173.272 173.637 172.852 174.842 172.852 174.842C173.064 175.231 173.324 175.594 173.624 175.92C173.924 176.16 174.224 178.136 173.624 178.556C173.025 178.975 171.886 179.934 171.886 180.353C171.886 180.772 170.451 181.787 170.451 181.787L169.185 180.117L168.959 176.343Z" fill="#35323E"/>
<path d="M152.12 212.332C149.214 211.102 149.86 208.103 150.406 206.581C150.517 206.275 150.646 205.976 150.791 205.686L152.42 204.695C152.42 204.695 152.751 205.545 153.107 206.683C153.933 209.312 154.881 213.501 152.12 212.332Z" fill="#BE6F72"/>
<path d="M156.112 239.772C155.915 240.155 155.769 240.563 155.679 240.984C155.536 241.662 155.476 242.354 155.499 243.046C155.503 243.311 155.521 243.575 155.552 243.839L152.314 246.062C152.314 246.062 152.332 245.801 152.364 245.417C152.448 244.399 152.621 242.51 152.787 242.267C152.939 241.785 153.021 241.285 153.03 240.78C153.08 240.163 153.101 239.592 153.101 239.592C153.101 239.592 156.987 238.134 156.112 239.772Z" fill="#BE6F72"/>
<path d="M163.749 241.378C163.749 241.378 163.749 241.994 163.728 242.717C163.724 243.374 163.672 244.03 163.573 244.68C163.491 245.223 163.466 245.773 163.499 246.322C163.52 247.027 163.573 247.685 163.573 247.685C163.573 247.685 160.269 244.567 160.604 244.32C160.748 244.11 160.839 243.868 160.868 243.615C160.967 243.178 161.059 242.608 161.126 242.118C161.207 241.536 161.256 241.061 161.256 241.061L163.749 241.378Z" fill="#BE6F72"/>
<path opacity="0.1" d="M156.113 239.772C155.916 240.155 155.77 240.563 155.68 240.984C154.794 240.961 153.91 240.893 153.031 240.78C153.081 240.163 153.102 239.592 153.102 239.592C153.102 239.592 156.988 238.134 156.113 239.772Z" fill="black"/>
<path opacity="0.1" d="M163.751 241.38C163.751 241.38 163.751 241.996 163.729 242.719C162.7 242.979 161.642 242.454 161.127 242.137C161.208 241.556 161.257 241.08 161.257 241.08L163.751 241.38Z" fill="black"/>
<path d="M170.517 210.774C169.652 212.79 169.029 214.902 168.659 217.064L168.179 219.936C168.179 219.936 168.419 221.194 168.179 221.673C167.939 222.153 167.474 222.931 167.474 222.931C167.474 222.931 167.827 225.867 167.474 226.166C167.121 226.466 167.474 228.259 167.474 228.259L166.275 234.31L164.6 242.084C162.981 243.402 160.83 241.731 160.83 241.731L161.306 236.639C161.306 236.639 162.012 227.717 161.726 227.357C161.44 226.998 161.846 225.863 161.846 225.863C161.846 225.863 162.265 224.785 161.966 224.366C161.666 223.946 162.026 223.048 162.026 223.048C162.026 223.048 161.906 219.393 162.265 218.555C162.625 217.716 162.265 212.529 162.265 212.529L162.114 210.915L162.033 210.02V209.932L161.888 210.848C161.624 212.536 161.059 216.039 160.83 216.761C160.679 217.28 160.472 217.781 160.213 218.255C160.213 218.255 160.527 220.052 160.213 220.532C160.125 220.685 160.075 220.858 160.067 221.035C160.059 221.212 160.093 221.389 160.167 221.55C160.167 221.55 160.467 223.048 159.568 223.664C158.669 224.281 159.568 224.563 159.568 224.563C159.568 224.563 158.908 226.001 158.669 226.6C158.536 227.069 158.536 227.565 158.669 228.034L158.189 232.886C157.961 234.01 157.842 235.154 157.836 236.301C157.896 237.675 157.297 240.85 157.297 240.85C157.297 240.85 152.684 240.85 151.972 240.311C151.26 239.772 153.164 234.504 153.164 234.504C153.164 234.504 153.703 225.282 153.584 225.042C153.464 224.803 153.584 223.005 154.003 222.646C154.423 222.286 154.003 221.568 154.003 221.568C154.003 221.568 153.883 220.13 154.003 219.77C154.059 219.252 154.052 218.729 153.982 218.213C153.982 218.213 153.584 215.281 153.524 213.604C153.464 211.926 153.171 208.152 153.171 208.152C153.171 208.152 153.481 205.823 153.524 204.709C153.577 204.217 153.722 203.739 153.95 203.3C154.21 202.757 154.506 202.233 154.839 201.732C154.839 201.732 169.043 197.542 169.65 197.961C169.805 198.07 170.038 198.817 170.263 199.913C170.866 202.969 171.487 208.66 170.517 210.774Z" fill="#F1563C"/>
<path opacity="0.15" d="M170.195 211.305C169.33 213.322 168.706 215.433 168.336 217.595L167.857 220.467C167.857 220.467 168.097 221.725 167.857 222.205C167.617 222.684 167.152 223.463 167.152 223.463C167.152 223.463 167.504 226.398 167.152 226.697C166.799 226.997 167.152 228.791 167.152 228.791L165.953 234.841L164.278 242.615C162.659 243.933 160.508 242.262 160.508 242.262L160.984 237.17C160.984 237.17 161.689 228.248 161.404 227.889C161.118 227.529 161.524 226.394 161.524 226.394C161.524 226.394 161.943 225.316 161.643 224.897C161.344 224.477 161.703 223.579 161.703 223.579C161.703 223.579 161.583 219.925 161.943 219.086C162.303 218.247 161.943 213.06 161.943 213.06L161.792 211.446L161.71 210.551V210.463L161.566 211.379C161.301 213.067 160.737 216.57 160.508 217.292C160.357 217.811 160.15 218.312 159.891 218.786C159.891 218.786 160.205 220.584 159.891 221.063C159.803 221.217 159.752 221.389 159.744 221.566C159.736 221.744 159.771 221.92 159.845 222.081C159.845 222.081 160.145 223.579 159.246 224.196C158.346 224.812 159.246 225.094 159.246 225.094C159.246 225.094 158.586 226.532 158.346 227.131C158.214 227.6 158.214 228.096 158.346 228.565L157.867 233.418C157.638 234.542 157.52 235.685 157.514 236.832C157.574 238.206 156.975 241.381 156.975 241.381C156.975 241.381 152.362 241.381 151.65 240.842C150.937 240.303 152.842 235.035 152.842 235.035C152.842 235.035 153.381 225.813 153.261 225.573C153.141 225.334 153.261 223.537 153.681 223.177C154.101 222.818 153.681 222.099 153.681 222.099C153.681 222.099 153.561 220.661 153.681 220.302C153.736 219.783 153.729 219.261 153.66 218.744C153.66 218.744 153.261 215.812 153.201 214.135C153.141 212.458 152.849 208.683 152.849 208.683C152.849 208.683 153.159 206.354 153.201 205.241C153.255 204.748 153.4 204.27 153.628 203.831C153.887 203.288 154.184 202.764 154.517 202.263C154.517 202.263 168.721 198.073 169.327 198.492C169.483 198.602 169.715 199.349 169.941 200.445C170.544 203.5 171.165 209.191 170.195 211.305Z" fill="#F1563C"/>
<path d="M161.769 174.179C164.054 174.179 165.906 172.328 165.906 170.046C165.906 167.763 164.054 165.912 161.769 165.912C159.485 165.912 157.633 167.763 157.633 170.046C157.633 172.328 159.485 174.179 161.769 174.179Z" fill="#A1616A"/>
<path opacity="0.1" d="M170.243 199.913C169.767 200.157 169.45 200.326 169.45 200.326C169.45 200.326 162.75 203.497 160.824 203.321C159.347 203.18 155.577 203.258 153.938 203.3C154.197 202.757 154.494 202.233 154.826 201.732C154.826 201.732 169.03 197.542 169.637 197.961C169.774 198.07 170.007 198.817 170.243 199.913Z" fill="black"/>
<path d="M158.891 176.641C158.891 176.641 155.054 177.24 154.158 177.839C153.263 178.438 151.461 179.576 151.461 182.029C151.471 183.945 151.249 185.856 150.801 187.72C150.562 188.424 154.578 194.246 154.578 194.246L153.139 203.056C153.139 203.056 158.898 202.876 160.813 203.056C162.727 203.235 169.438 200.06 169.438 200.06C169.438 200.06 173.391 197.967 174.23 197.907C175.07 197.847 172.552 193.294 172.552 193.294C172.552 193.294 168.673 185.93 169.318 184.731C169.791 183.792 170.173 182.809 170.457 181.796L169.752 175.689C169.42 175.591 169.071 175.567 168.729 175.618C168.387 175.67 168.061 175.797 167.774 175.989C166.874 176.648 163.817 176.288 163.817 176.288L158.891 176.641Z" fill="#35323E"/>
<path opacity="0.1" d="M152.389 187.301L150.89 187.721L150.474 193.359C150.474 193.359 151.01 194.857 150.474 195.336C149.938 195.815 149.814 206.056 149.814 206.056C150.367 206.421 151.002 206.639 151.662 206.692C152.322 206.744 152.985 206.628 153.588 206.355C153.588 206.355 153.288 205.217 154.187 201.069C155.086 196.922 155.079 194.864 155.079 194.864C155.079 194.864 155.079 189.715 155.499 188.873C155.919 188.031 155.499 185.938 155.499 185.938C155.499 185.938 154.66 184.8 154.72 184.38C154.78 183.961 152.389 187.301 152.389 187.301Z" fill="black"/>
<path opacity="0.1" d="M153.107 206.683C152.225 206.979 151.264 206.943 150.406 206.581C150.517 206.275 150.646 205.976 150.791 205.686L152.42 204.695C152.42 204.695 152.751 205.545 153.107 206.683Z" fill="black"/>
<path d="M152.3 187.301L150.802 187.721L150.382 193.359C150.382 193.359 150.922 194.857 150.382 195.336C149.843 195.815 149.723 206.056 149.723 206.056C150.275 206.421 150.912 206.639 151.572 206.692C152.233 206.744 152.896 206.628 153.499 206.355C153.499 206.355 153.2 205.217 154.099 201.069C154.998 196.922 154.995 194.864 154.995 194.864C154.995 194.864 154.995 189.715 155.414 188.873C155.834 188.031 155.414 185.938 155.414 185.938C155.414 185.938 154.578 184.8 154.638 184.38C154.698 183.961 152.3 187.301 152.3 187.301Z" fill="#35323E"/>
<path opacity="0.1" d="M167.639 188.199C167.639 188.199 166.86 194.895 164.582 196.163C164.6 196.163 169.678 194.725 167.639 188.199Z" fill="black"/>
<path opacity="0.1" d="M156.193 188.799C156.193 188.799 159.014 190.177 158.352 191.132C157.689 192.087 156.193 188.799 156.193 188.799Z" fill="black"/>
<path opacity="0.1" d="M156.193 191.551C156.193 191.551 157.992 193.408 157.632 194.067C157.272 194.726 156.193 191.551 156.193 191.551Z" fill="black"/>
<path opacity="0.1" d="M170.697 176.162C170.697 176.162 171.403 177.36 171.466 178.139C171.53 178.918 170.697 176.162 170.697 176.162Z" fill="black"/>
<path opacity="0.1" d="M170.697 174.545C170.697 174.545 171.05 174.246 171.953 174.545C172.855 174.845 170.697 174.545 170.697 174.545Z" fill="black"/>
<path opacity="0.1" d="M167.235 209.548C165.751 209.759 164.238 209.566 162.855 208.988L162.097 210.919L162.016 210.024C162.139 209.273 162.368 208.47 162.855 208.262C164.138 209.15 165.674 209.601 167.235 209.548Z" fill="black"/>
<path opacity="0.1" d="M154.945 212.064C154.945 212.064 158.63 212.836 159.664 212.692L154.945 212.064Z" fill="black"/>
<path opacity="0.1" d="M155.326 213.029C155.326 213.029 156.899 212.962 157.685 213.276L155.326 213.029Z" fill="black"/>
<path opacity="0.1" d="M155.506 213.678C156.223 213.833 156.952 213.931 157.685 213.97L155.506 213.678Z" fill="black"/>
<path opacity="0.1" d="M155.432 221.92C155.502 221.874 158.581 221.159 158.958 221.674L155.432 221.92Z" fill="black"/>
<path opacity="0.1" d="M155.432 222.864C155.432 222.864 158.108 222.55 158.175 222.864C158.242 223.178 155.432 222.864 155.432 222.864Z" fill="black"/>
<path opacity="0.1" d="M155.432 223.717C155.432 223.717 158.288 223.132 158.605 223.269C158.923 223.406 155.432 223.717 155.432 223.717Z" fill="black"/>
<path opacity="0.1" d="M155.552 243.845L152.314 246.068C152.314 246.068 152.332 245.807 152.364 245.423C152.749 244.43 153.311 243.515 154.021 242.721C154.751 242.534 155.213 242.721 155.499 243.052C155.503 243.317 155.521 243.581 155.552 243.845Z" fill="black"/>
<path d="M155.864 245.836C155.409 246.877 155.179 248.002 155.191 249.138C155.205 250.073 154.961 250.993 154.486 251.799C154.419 251.912 154.343 252.021 154.26 252.123C154.26 252.123 152.01 252.123 151.224 251.453C151.137 251.386 151.066 251.301 151.016 251.203C150.564 250.305 151.89 246.869 151.89 246.869C152.255 245.363 152.981 243.968 154.006 242.806C156.538 242.154 155.864 245.836 155.864 245.836Z" fill="#35323E"/>
<path opacity="0.1" d="M154.504 251.8C154.437 251.914 154.362 252.022 154.278 252.124C154.278 252.124 152.029 252.124 151.242 251.455C151.63 250.175 152.864 246.303 153.443 246.962C154.021 247.621 154.374 250.542 154.504 251.8Z" fill="black"/>
<path d="M154.194 247.2L154.039 253.007H154.794C154.794 253.007 154.914 247.919 155.252 247.207C155.591 246.495 154.194 247.2 154.194 247.2Z" fill="#35323E"/>
<path opacity="0.1" d="M163.573 247.677C163.573 247.677 160.269 244.558 160.604 244.312C160.748 244.102 160.839 243.86 160.868 243.607C161.503 243.494 162.589 243.762 163.499 246.296C163.52 247.018 163.573 247.677 163.573 247.677Z" fill="black"/>
<path d="M164.067 251.158C164.041 251.169 164.014 251.177 163.986 251.182C163.113 251.232 162.239 251.232 161.366 251.182C161.219 251.178 161.08 251.117 160.977 251.011C160.874 250.906 160.817 250.765 160.816 250.619C160.816 250.404 160.816 250.139 160.816 249.857C160.777 248.973 160.668 247.919 160.354 247.68C159.793 247.253 159.345 245.784 160.354 243.93C160.354 243.93 162.286 242.457 163.679 246.887C163.679 246.887 163.813 248.152 164.42 248.603C165.026 249.054 164.335 251.024 164.067 251.158Z" fill="#35323E"/>
<path opacity="0.1" d="M163.987 251.182C163.114 251.232 162.239 251.232 161.367 251.182C161.22 251.178 161.08 251.116 160.978 251.011C160.875 250.906 160.817 250.765 160.816 250.618C160.816 250.403 160.816 250.139 160.816 249.857C161.06 248.8 161.409 247.68 161.874 247.429C161.843 247.426 163.207 247.271 163.987 251.182Z" fill="black"/>
<path d="M160.584 247.295L160.944 252.123H161.406V246.887L160.584 247.295Z" fill="#35323E"/>
<path opacity="0.1" d="M161.709 163.459C160.403 163.555 159.138 163.961 158.02 164.643C157.713 164.793 157.465 165.041 157.315 165.348C157.243 165.628 157.224 165.92 157.259 166.208C157.298 168.674 154.533 170.56 154.621 173.033C154.656 174.017 155.15 174.929 155.238 175.909C155.39 177.54 154.424 179.045 153.496 180.398C154.451 180.457 155.392 180.145 156.123 179.528C157.097 182.788 157.219 186.243 156.476 189.564H157.802C157.933 189.555 158.065 189.572 158.19 189.613C158.307 189.667 158.411 189.745 158.496 189.842C159.734 191.072 160.566 192.894 160.09 194.578L162.911 193.521C163.598 193.297 164.254 192.985 164.862 192.594C165.472 192.194 165.903 191.572 166.064 190.861C166.138 190.431 166.117 189.913 166.47 189.663C166.646 189.571 166.833 189.502 167.027 189.458C167.803 189.183 168.145 188.288 168.3 187.485C168.494 186.497 168.554 185.487 168.48 184.482C168.356 182.802 167.859 181.092 168.268 179.454C168.501 178.534 169.016 177.692 169.058 176.723C169.125 175.155 167.898 173.802 167.714 172.24C167.587 171.155 167.979 170.056 167.852 168.967C167.78 168.406 167.575 167.87 167.253 167.405C166.93 166.94 166.501 166.56 166.001 166.296C165.648 166.116 165.274 165.996 164.943 165.802C164.16 165.348 163.663 164.53 162.954 163.97C162.245 163.41 161.06 163.198 160.528 163.928L161.709 163.459Z" fill="black"/>
<path d="M161.709 163.279C160.403 163.376 159.138 163.781 158.02 164.463C157.713 164.613 157.465 164.861 157.315 165.168C157.243 165.449 157.224 165.74 157.259 166.028C157.297 168.495 154.533 170.38 154.621 172.854C154.656 173.837 155.15 174.753 155.238 175.729C155.39 177.364 154.424 178.865 153.496 180.219C154.455 180.284 155.401 179.976 156.137 179.359C157.112 182.619 157.233 186.074 156.49 189.395H157.816C157.947 189.386 158.079 189.403 158.204 189.444C158.321 189.498 158.425 189.576 158.511 189.673C159.748 190.903 160.581 192.725 160.104 194.409L162.926 193.352C163.613 193.128 164.268 192.816 164.876 192.425C165.486 192.025 165.917 191.403 166.078 190.692C166.152 190.262 166.131 189.744 166.484 189.493C166.66 189.401 166.847 189.333 167.041 189.289C167.817 189.014 168.159 188.119 168.314 187.316C168.508 186.327 168.568 185.318 168.494 184.313C168.37 182.632 167.873 180.923 168.282 179.285C168.515 178.365 169.03 177.505 169.072 176.554C169.139 174.986 167.912 173.632 167.728 172.071C167.601 170.986 167.993 169.887 167.866 168.798C167.795 168.237 167.589 167.701 167.267 167.236C166.945 166.771 166.515 166.391 166.015 166.127C165.662 165.947 165.288 165.827 164.957 165.633C164.174 165.179 163.677 164.361 162.968 163.801C162.259 163.241 161.074 163.029 160.542 163.759L161.709 163.279Z" fill="#A26565"/>
<g opacity="0.1">
<path opacity="0.1" d="M157.266 165.426C157.266 165.482 157.266 165.535 157.266 165.591C157.261 165.539 157.266 165.482 157.266 165.426Z" fill="black"/>
<path opacity="0.1" d="M167.733 171.184C167.843 170.426 167.896 169.662 167.891 168.896C167.781 169.654 167.728 170.418 167.733 171.184Z" fill="black"/>
<path opacity="0.1" d="M155.25 174.972C155.169 174.081 154.753 173.242 154.654 172.357C154.634 172.52 154.627 172.684 154.633 172.847C154.668 173.82 155.151 174.725 155.246 175.695C155.272 175.455 155.273 175.212 155.25 174.972Z" fill="black"/>
<path opacity="0.1" d="M168.298 178.513C168.161 179.098 168.111 179.7 168.15 180.3C168.166 179.951 168.216 179.604 168.298 179.264C168.53 178.344 169.045 177.484 169.088 176.533C169.093 176.363 169.085 176.194 169.063 176.025C168.957 176.892 168.509 177.671 168.298 178.513Z" fill="black"/>
<path opacity="0.1" d="M156.138 178.594C155.54 179.096 154.8 179.399 154.022 179.461C153.856 179.714 153.669 179.968 153.518 180.211C154.468 180.273 155.406 179.968 156.138 179.358C156.662 181.104 156.943 182.914 156.973 184.736C157.019 182.657 156.737 180.585 156.138 178.594Z" fill="black"/>
<path opacity="0.1" d="M168.332 186.546C168.173 187.353 167.831 188.248 167.056 188.519C166.861 188.562 166.674 188.632 166.498 188.727C166.146 188.977 166.167 189.495 166.093 189.921C165.932 190.633 165.501 191.255 164.89 191.655C164.283 192.046 163.627 192.358 162.94 192.582L160.25 193.59C160.236 193.861 160.192 194.129 160.119 194.39L162.94 193.333C163.627 193.108 164.283 192.797 164.89 192.406C165.501 192.005 165.932 191.384 166.093 190.672C166.167 190.242 166.146 189.724 166.498 189.474C166.674 189.382 166.862 189.313 167.056 189.27C167.831 188.995 168.173 188.1 168.332 187.296C168.494 186.458 168.561 185.605 168.533 184.752C168.512 185.354 168.445 185.954 168.332 186.546Z" fill="black"/>
<path opacity="0.1" d="M158.525 188.902C158.438 188.806 158.334 188.728 158.218 188.673C158.093 188.631 157.961 188.615 157.83 188.623H156.656C156.61 188.873 156.56 189.124 156.504 189.37H157.83C157.961 189.362 158.093 189.378 158.218 189.42C158.335 189.474 158.439 189.552 158.525 189.649C159.462 190.543 160.065 191.73 160.235 193.014C160.386 191.52 159.614 189.984 158.525 188.902Z" fill="black"/>
</g>
<path opacity="0.1" d="M151.947 193.806C151.947 193.806 153.005 193.355 153.259 193.806C153.513 194.257 151.947 193.806 151.947 193.806Z" fill="black"/>
<path opacity="0.1" d="M152.318 194.568C152.318 194.568 153.376 194.117 153.63 194.568C153.884 195.019 152.318 194.568 152.318 194.568Z" fill="black"/>
<path d="M76.377 20.709L76.4722 21.449L79.6917 21.9036C79.6917 21.9036 79.9562 21.7063 80.3688 21.4384C81.134 20.9416 82.4106 20.1945 83.5037 19.9831C85.1858 19.6518 90.5564 17.245 88.8215 17.0865C87.0865 16.9279 87.2734 17.2873 87.2734 17.2873C87.2734 17.2873 85.3692 15.4197 83.3944 17.1288C81.9028 18.4255 78.6197 19.8175 77.1281 20.413L76.377 20.709Z" fill="#EFB7B9"/>
<path d="M89.2307 12.1796C89.723 11.9755 90.2419 11.8426 90.7717 11.785C91.0375 11.7581 91.306 11.7879 91.5595 11.8723C91.813 11.9567 92.0457 12.0939 92.2422 12.2748C92.4502 12.4897 92.5948 12.7646 92.7853 12.9796C93.7656 14.0367 95.6698 13.2439 96.8511 14.0614C97.5776 14.5618 97.8032 15.5132 98.0607 16.359C98.3181 17.2047 98.7871 18.1385 99.6546 18.3182C100.075 18.358 100.498 18.3414 100.913 18.2689C101.121 18.2363 101.334 18.2574 101.532 18.3302C101.729 18.4029 101.905 18.525 102.042 18.6847C102.444 19.2908 101.89 20.3127 102.472 20.7462C102.991 21.1303 103.936 20.5911 104.299 21.1303C104.368 21.2728 104.393 21.4327 104.371 21.5895C104.349 21.7463 104.281 21.8931 104.175 22.0112C103.959 22.2422 103.761 22.4897 103.583 22.7513C103.488 22.931 103.444 23.133 103.455 23.3358C103.466 23.5386 103.532 23.7346 103.645 23.903C103.759 24.0714 103.916 24.206 104.1 24.2923C104.284 24.3786 104.488 24.4136 104.69 24.3934C105.043 24.3582 105.448 24.1467 105.769 24.33C105.866 24.3987 105.946 24.4888 106.002 24.5934C106.058 24.6979 106.09 24.8139 106.094 24.9325C106.12 25.3394 105.987 25.7406 105.725 26.0524C105.462 26.3643 105.089 26.5627 104.683 26.6064C104.059 26.6451 103.484 26.3069 102.92 26.0214C102.356 25.736 101.707 25.4928 101.125 25.7289C100.859 25.8608 100.615 26.0331 100.402 26.2399C99.7391 26.7955 98.99 27.2394 98.1841 27.5543C97.4788 27.8292 96.6501 27.9983 95.9695 27.653C95.2043 27.2618 94.8094 26.3069 93.9983 26.0179C93.1873 25.7289 92.2598 26.2681 91.484 26.7227C90.7082 27.1773 89.6679 27.5684 88.9662 27.0011C88.2645 26.4337 88.4443 25.1686 87.9824 24.3159C87.7968 23.9967 87.5456 23.7204 87.2454 23.5054C86.727 23.1037 86.1381 22.8006 85.6197 22.413C85.0714 22.0461 84.6754 21.4925 84.5054 20.8554C84.3537 20.0837 84.724 19.3084 85.1401 18.6424C85.5562 17.9764 86.0464 17.321 86.198 16.5492C86.2968 15.9713 86.198 15.3687 86.3285 14.7873C86.4234 14.4436 86.6018 14.1286 86.8479 13.8704C87.094 13.6122 87.4001 13.4187 87.739 13.3073C88.1199 13.1769 88.1904 13.2086 88.3808 12.8738C88.4677 12.7064 88.5879 12.5585 88.734 12.4391C88.8802 12.3197 89.0492 12.2314 89.2307 12.1796Z" fill="#965D7B"/>
<g opacity="0.1">
<path opacity="0.1" d="M102.133 18.9238C102.214 19.2618 102.234 19.6113 102.193 19.9563C102.108 19.6191 102.087 19.2687 102.133 18.9238Z" fill="black"/>
<path opacity="0.1" d="M103.593 22.8187C103.534 22.9367 103.495 23.0644 103.481 23.1958C103.418 23.0432 103.389 22.8789 103.395 22.714C103.402 22.5492 103.444 22.3878 103.519 22.2408C103.697 21.9792 103.895 21.7318 104.112 21.5008C104.187 21.3994 104.246 21.2863 104.285 21.166C104.294 21.1759 104.302 21.1865 104.309 21.1977C104.38 21.3398 104.406 21.5001 104.384 21.6573C104.362 21.8146 104.293 21.9615 104.186 22.0787C103.971 22.3108 103.773 22.5581 103.593 22.8187Z" fill="black"/>
<path opacity="0.1" d="M85.5524 21.9084C86.0708 22.303 86.6597 22.6131 87.1781 23.0008C87.4774 23.2168 87.7284 23.4929 87.9151 23.8112C88.3771 24.664 88.1443 25.8868 88.899 26.4964C89.6536 27.1061 90.6445 26.6832 91.4168 26.2181C92.1891 25.7529 93.0812 25.2067 93.9311 25.5133C94.7809 25.8199 95.1371 26.7572 95.9023 27.1484C96.5829 27.5007 97.4081 27.3245 98.1169 27.0497C98.9227 26.7348 99.6719 26.2908 100.335 25.7353C100.548 25.5285 100.792 25.3562 101.058 25.2243C101.64 24.9882 102.296 25.2243 102.853 25.5168C103.41 25.8093 103.988 26.1405 104.616 26.1018C104.976 26.0622 105.313 25.901 105.569 25.6448C105.826 25.3885 105.987 25.0525 106.026 24.6922C106.065 24.7893 106.09 24.8913 106.101 24.9953C106.127 25.4023 105.996 25.804 105.733 26.116C105.47 26.4281 105.096 26.6263 104.69 26.6691C104.062 26.7079 103.488 26.3696 102.927 26.0841C102.366 25.7987 101.71 25.5556 101.128 25.7917C100.869 25.9257 100.631 26.0979 100.423 26.3026C99.7596 26.8575 99.0105 27.3013 98.205 27.617C97.4998 27.8919 96.6675 28.061 95.9905 27.7157C95.2217 27.3245 94.8303 26.3696 94.0157 26.0806C93.2011 25.7917 92.2772 26.3308 91.5049 26.7854C90.7327 27.24 89.6889 27.6276 88.9871 27.0638C88.229 26.4542 88.4617 25.2314 87.9997 24.3786C87.8152 24.0586 87.5638 23.7822 87.2627 23.5681C86.7479 23.1664 86.159 22.8633 85.6371 22.4757C85.0887 22.1096 84.6936 21.5556 84.5263 20.9182C84.4988 20.7825 84.487 20.6442 84.491 20.5059C84.6881 21.0734 85.0596 21.5643 85.5524 21.9084Z" fill="black"/>
</g>
<path d="M86.9309 39.5792L85.7637 39.8294C85.7637 39.8294 86.9168 41.7218 88.6905 40.4814C90.4643 39.241 86.9309 39.5792 86.9309 39.5792Z" fill="#4C4981"/>
<path opacity="0.1" d="M86.9309 39.5792L85.7637 39.8294C85.7637 39.8294 86.9168 41.7218 88.6905 40.4814C90.4643 39.241 86.9309 39.5792 86.9309 39.5792Z" fill="black"/>
<path d="M112.287 57.1961C112.287 57.1961 113.906 58.0313 115.415 59.0004C116.498 59.7051 117.531 60.4522 117.859 61.0231C118.663 62.3868 122.566 63.8598 122.566 63.8598L126.445 66.8092C127.359 67.1123 128.247 68.2188 128.611 68.7157C128.723 68.8672 128.783 68.9623 128.783 68.9623L130.339 68.7615L131.157 67.7043C131.157 67.7043 131.365 65.3609 129.746 65.3891C129.43 65.3747 129.12 65.2955 128.836 65.1566C127.101 64.3884 124.672 61.9851 124.672 61.9851C124.672 61.9851 120.542 56.8297 119.308 56.6605C119.176 56.6405 119.046 56.6075 118.92 56.5618C117.665 56.1214 115.866 54.5039 115.866 54.5039L112.287 57.1961Z" fill="#EFB7B9"/>
<path d="M96.2762 72.0918C96.6853 74.5585 98.5649 79.2946 99.1679 80.2813C99.9155 81.504 100.31 83.9496 100.31 83.9496L100.529 85.6481C100.569 85.8876 100.651 86.1179 100.772 86.3282C100.838 86.4494 100.91 86.5671 100.987 86.6806L104.098 85.7257C104.098 85.7257 103.918 85.0209 103.646 84.1892C103.375 83.3576 102.966 82.3392 102.588 81.9586C101.83 81.2116 101.714 78.5827 101.714 78.5827C101.714 78.5827 101.083 73.5225 100.889 72.8882C100.703 72.2804 100.585 71.6541 100.536 71.0205C100.508 70.6681 100.487 70.2946 100.483 69.8541C100.419 68.591 100.255 67.3349 99.993 66.0977L96.3644 66.7566L96.2692 70.8056C96.1684 71.2287 96.1708 71.6698 96.2762 72.0918Z" fill="#EFB7B9"/>
<path opacity="0.1" d="M128.607 68.7075C128.72 68.8591 128.78 68.9542 128.78 68.9542L130.335 68.7534L131.153 67.6962C131.153 67.6962 131.362 65.3528 129.743 65.381C129.427 65.3666 129.117 65.2874 128.833 65.1484C128.703 65.8532 129.489 66.4311 129.489 66.4311C129.489 66.4311 129.813 66.6672 129.736 67.7702C129.69 68.5208 129.024 68.6794 128.607 68.7075Z" fill="black"/>
<path d="M128.436 68.8606C128.538 69.2376 129.518 69.7944 130.199 70.1397C130.534 70.3124 130.795 70.4322 130.848 70.4569C131.006 70.5344 131.828 69.6182 131.941 68.8817C132.054 68.1452 134.018 65.8441 134.018 65.8441C134.433 64.9377 134.68 63.9634 134.748 62.9687C134.822 61.9644 134.395 61.8868 133.912 62.1124C133.559 62.299 133.243 62.5472 132.978 62.8453C132.642 63.1618 132.224 63.3779 131.772 63.4691C131.155 63.6217 130.566 63.8728 130.03 64.2126C129.553 64.5192 129.092 64.8927 129.007 65.2239C128.827 65.9463 129.652 66.5595 129.652 66.5595C129.652 66.5595 129.977 66.7991 129.903 67.8986C129.829 68.998 128.425 68.8253 128.436 68.8606Z" fill="#935A5E"/>
<path opacity="0.1" d="M130.199 70.1397C130.534 70.3124 130.795 70.4322 130.848 70.4569C131.007 70.5344 131.828 69.6182 131.941 68.8817C132.054 68.1452 134.018 65.8441 134.018 65.8441C134.434 64.9377 134.681 63.9634 134.748 62.9687C134.822 61.9644 134.396 61.8868 133.913 62.1124C133.831 62.9088 133.63 64.4557 133.207 65.2627C132.735 66.2212 130.746 69.3046 130.199 70.1397Z" fill="black"/>
<path opacity="0.1" d="M100.804 86.2508C100.796 86.2714 100.787 86.2914 100.776 86.3107C100.842 86.4319 100.913 86.5495 100.991 86.6631L104.101 85.7081C104.101 85.7081 103.922 85.0033 103.65 84.1717C102.419 83.8193 100.656 85.9794 100.656 85.9794L100.804 86.2508Z" fill="black"/>
<path d="M100.607 88.5661C100.607 88.5661 103.199 89.4752 104.369 89.3343C105.254 89.2285 105.293 88.8162 105.233 87.9705C105.212 87.7027 105.184 87.3891 105.17 87.0261C105.11 85.5285 104.507 85.2289 104.507 85.2289C103.52 82.6389 100.674 86.1134 100.674 86.1134L100.825 86.3953C100.618 86.8356 100.518 87.3186 100.533 87.8049C100.533 88.0604 100.558 88.3153 100.607 88.5661Z" fill="#935A5E"/>
<path opacity="0.1" d="M100.607 88.5662C100.607 88.5662 103.199 89.4754 104.37 89.3345C105.255 89.2287 105.294 88.8164 105.234 87.9707C104.943 88.213 104.604 88.3923 104.24 88.4973C103.876 88.6022 103.494 88.6305 103.118 88.5803C102.22 88.4643 101.347 88.2037 100.533 87.8086C100.534 88.0629 100.559 88.3166 100.607 88.5662Z" fill="black"/>
<path d="M87.7246 25.6672L88.7331 30.1038L88.9377 31.0165L90.8172 31.2526L92.7497 31.4992L94.8655 30.7346C94.8655 30.7346 95.4544 28.7365 94.9678 27.2353C94.8163 26.7007 94.4688 26.2427 93.9945 25.9527C93.846 25.8651 93.7097 25.7585 93.5889 25.6355C93.4437 25.4968 93.3242 25.3333 93.2363 25.1527C93.1335 24.9307 93.0713 24.692 93.0529 24.448C92.9471 23.2534 93.7053 21.946 93.7053 21.946C93.7053 21.946 89.2409 20.4237 89.5901 21.4069C89.8157 22.0447 89.1881 23.1688 88.719 23.8524C88.4651 24.233 88.2571 24.4938 88.2571 24.4938L87.7246 25.6672Z" fill="#EFB7B9"/>
<path opacity="0.1" d="M91.7622 23.9662C93.9025 23.9662 95.6376 22.2323 95.6376 20.0934C95.6376 17.9546 93.9025 16.2207 91.7622 16.2207C89.6218 16.2207 87.8867 17.9546 87.8867 20.0934C87.8867 22.2323 89.6218 23.9662 91.7622 23.9662Z" fill="black"/>
<path d="M91.7427 23.8216C93.883 23.8216 95.6181 22.0878 95.6181 19.9489C95.6181 17.8101 93.883 16.0762 91.7427 16.0762C89.6023 16.0762 87.8672 17.8101 87.8672 19.9489C87.8672 22.0878 89.6023 23.8216 91.7427 23.8216Z" fill="#EFB7B9"/>
<path d="M88.014 40.3896C88.1974 41.2423 89.0402 42.5849 89.0402 42.5849L94.4497 43.9134L98.3287 39.8821V39.8575C98.2088 39.4804 96.7312 34.7126 97.7997 33.5356C98.8682 32.3587 98.505 28.87 98.505 28.87C98.505 28.87 96.5725 26.6465 96.1846 26.1108C95.7967 25.5752 93.286 25.1523 93.286 25.1523C93.4094 25.3215 93.5257 25.4836 93.6386 25.6351C93.9085 26.0389 94.1165 26.4808 94.2557 26.946C94.4145 27.406 94.3956 27.9087 94.2028 28.3555C94.1464 28.4678 94.1026 28.586 94.0723 28.7079C93.6492 30.558 91.7238 30.3007 90.955 30.1175C90.7576 30.0682 90.6377 30.0259 90.6377 30.0259L88.7934 30.0858L87.6367 30.1245C87.6367 30.1245 88.1622 39.2373 88.0387 39.9632C88.0016 40.1022 87.9932 40.2472 88.014 40.3896Z" fill="#87291A"/>
<path d="M87.6126 30.5989L90.9697 30.1584H90.9062C90.799 30.1344 90.6931 30.105 90.5888 30.0703L88.7445 30.1302L87.5879 30.169C87.5879 30.169 87.5985 30.317 87.6126 30.5989Z" fill="#925978"/>
<path d="M91.375 43.1709L92.8314 43.5268L95.12 43.2272L95.7195 42.6035L91.375 43.1709Z" fill="#925978"/>
<path d="M93.7949 43.7624L94.4543 43.9245L94.7259 43.6426L93.7949 43.7624Z" fill="#925978"/>
<path opacity="0.1" d="M88.0154 40.3911C88.8794 40.4792 89.6763 40.5215 89.6763 40.5215L94.1336 40.3558V35.7008C93.603 35.2121 92.9969 34.8123 92.3387 34.5168C91.5629 34.249 90.6461 33.4279 90.8188 31.2537C90.8188 31.1304 90.84 31 90.8576 30.8661C90.8874 30.6241 90.9003 30.3804 90.8964 30.1366C90.8988 29.5994 90.7905 29.0675 90.5782 28.574C90.3658 28.0805 90.054 27.636 89.6622 27.2682L89.5952 27.2118L88.8688 23.8359C88.8202 23.8375 88.7718 23.8434 88.7242 23.8536C88.4703 24.2341 88.2622 24.4949 88.2622 24.4949L87.7262 25.6683L88.7348 30.1049L87.5781 30.1437C87.5781 30.1437 88.1036 39.2564 87.9801 39.9823C87.9651 40.1196 87.977 40.2584 88.0154 40.3911Z" fill="black"/>
<path d="M89.5318 40.5379L93.9891 40.3723V35.7208C93.4636 35.2279 92.8608 34.8243 92.2048 34.5262C91.3831 34.2407 90.4063 33.3386 90.7237 30.8719C90.834 30.2203 90.7827 29.5515 90.5743 28.9242C90.3659 28.297 90.0067 27.7304 89.5283 27.2741L89.4613 27.2177L88.7348 23.8418C88.5069 23.8619 88.286 23.9312 88.0875 24.045C87.889 24.1588 87.7177 24.3143 87.5852 24.5008C87.5049 24.6315 87.4153 24.7563 87.3172 24.8743C87.2264 25.0205 87.0852 25.1285 86.9202 25.1778C86.7552 25.2272 86.5778 25.2145 86.4215 25.1421C85.9525 24.9342 83.9319 24.0849 83.477 24.9166C83.0221 25.7482 82.9375 30.738 82.9375 30.738C83.6069 31.2874 84.0694 32.0479 84.2493 32.8946C84.5596 34.3042 85.078 34.3535 85.078 34.3535L85.6352 38.4412C85.6352 38.4412 86.143 39.3292 85.7656 39.819" fill="#444053"/>
<path d="M87.3164 24.886L88.0746 27.1589L89.5274 27.2858L89.4604 27.2294L88.734 23.8535C88.5061 23.8736 88.2852 23.9429 88.0867 24.0567C87.8882 24.1705 87.7168 24.326 87.5844 24.5125C87.5041 24.6432 87.4145 24.768 87.3164 24.886Z" fill="#444053"/>
<path opacity="0.1" d="M76.377 20.7101L76.4722 21.4501L79.6917 21.9047C79.6917 21.9047 79.9562 21.7074 80.3688 21.4395C80.0162 21.362 78.4293 21.0132 77.59 20.7348C77.2832 20.6396 77.0752 20.5586 77.0681 20.5022C77.0611 20.4458 77.0893 20.4388 77.1386 20.3965L76.377 20.7101Z" fill="black"/>
<path d="M72.6002 25.5093C72.6002 25.5093 76.2465 28.2755 78.5069 28.7231C78.5069 28.7231 81.6806 29.6639 82.936 30.7493L84.3077 25.5023L83.4931 24.9279C83.4931 24.9279 82.4952 25.5445 81.6347 25.3401C80.7743 25.1358 79.8292 25.016 79.8292 25.016C79.0775 24.7396 78.3036 24.5274 77.5159 24.3817C76.9024 24.3323 77.1633 23.5359 77.7628 23.1131C77.845 23.0587 77.931 23.0104 78.0202 22.9686C78.1325 23.129 78.3007 23.2417 78.4918 23.2848C78.6829 23.3278 78.8832 23.298 79.0534 23.2012C79.285 23.0529 79.488 22.8643 79.6529 22.6444C79.9069 22.3221 80.1334 21.9791 80.33 21.6189C80.33 21.6189 78.4293 21.2137 77.4807 20.9142C77.1739 20.819 76.9658 20.738 76.9588 20.6851C76.9306 20.4666 78.655 19.7795 78.655 19.7795C78.655 19.7795 77.1774 19.0747 76.5779 19.5821C76.5779 19.5821 76.9623 19.8746 76.652 20.1601C76.3417 20.4455 72.5544 23.3492 72.5544 23.3492C72.5544 23.3492 70.6748 24.2689 72.6002 25.5093Z" fill="#444053"/>
<path opacity="0.1" d="M75.7363 22.8244L77.7534 23.1134C77.8356 23.059 77.9216 23.0107 78.0108 22.9689C78.1231 23.1293 78.2913 23.242 78.4824 23.285C78.6735 23.3281 78.8738 23.2983 79.0441 23.2015C79.2756 23.0532 79.4786 22.8646 79.6435 22.6447C79.8472 22.3708 80.0322 22.0836 80.1972 21.7849C80.1972 21.7849 78.2929 21.3761 77.3479 21.0801L75.7363 22.8244Z" fill="black"/>
<path d="M75.8516 22.6615L78.0026 22.9681C78.1149 23.1285 78.2831 23.2413 78.4742 23.2843C78.6653 23.3273 78.8656 23.2975 79.0359 23.2007C79.653 22.8483 80.3124 21.6149 80.3124 21.6149C80.3124 21.6149 78.4117 21.2097 77.4631 20.9102L75.8516 22.6615Z" fill="#444053"/>
<path opacity="0.1" d="M115.866 54.4902L112.287 57.1966C112.287 57.1966 113.906 58.0317 115.415 59.0008C116.734 58.1093 117.979 57.2882 118.92 56.5341C117.665 56.1077 115.866 54.4902 115.866 54.4902Z" fill="black"/>
<path opacity="0.1" d="M96.276 72.0906C97.171 71.9789 98.0509 71.7685 98.8996 71.4634C98.8996 71.4634 99.559 71.3189 100.539 70.9912C100.511 70.6388 100.49 70.2653 100.486 69.8248C100.423 68.5617 100.259 67.3056 99.9963 66.0684L96.3677 66.7273L96.2725 70.7762C96.1658 71.208 96.167 71.6594 96.276 72.0906Z" fill="black"/>
<path d="M89.8123 55.6449C90.5457 56.7267 92.5381 61.3077 92.5381 61.3077C92.9861 62.1223 93.4929 62.9031 94.0545 63.6441C94.8479 64.6448 95.398 66.886 96.001 68.6797C96.604 70.4733 95.8212 70.135 95.9093 71.0794C95.9975 72.0238 99.4004 70.8081 99.4004 70.8081C99.4004 70.8081 106.368 69.2752 108.495 65.0289C110.621 60.7827 119.123 56.924 120.837 54.5313C122.551 52.1386 120.347 53.1218 120.435 51.832C120.523 50.5423 119.536 49.4499 119.536 49.4499C119.536 49.4499 116.33 48.5478 115.809 47.917C115.287 47.2862 112.727 45.7111 112.727 45.7111C112.727 45.7111 110.314 44.6539 110.008 44.3015C109.701 43.9491 106.834 42.8074 105.963 42.5889C105.092 42.3704 104.228 41.1265 104.228 41.1265C104.228 41.1265 103.685 41.197 102.884 40.4217C102.084 39.6465 98.7304 38.9805 98.7304 38.9805C92.993 43.1809 89.0329 42.5819 89.0329 42.5819L88.9412 43.3783C85.898 47.3426 89.0858 54.5666 89.8123 55.6449Z" fill="#F1563C"/>
<path opacity="0.1" d="M88.9492 43.3822C88.9492 43.3822 93.8861 45.0137 98.7384 38.9844C93.001 43.1848 89.0409 42.5858 89.0409 42.5858L88.9492 43.3822Z" fill="black"/>
<path opacity="0.1" d="M97.4746 46.2002C97.4746 46.2002 104.129 55.7958 104.527 56.1481C104.926 56.5005 97.8237 46.0804 97.4746 46.2002Z" fill="black"/>
<path opacity="0.1" d="M94.4004 45.4512C94.4004 45.4512 99.0094 52.6011 98.9141 53.5561C98.9141 53.5772 94.4533 46.7057 94.4004 45.4512Z" fill="black"/>
<path opacity="0.1" d="M91.7173 47.4277C91.7173 47.4277 92.5672 51.4273 91.2871 53.6896L91.7173 47.4277Z" fill="black"/>
<path opacity="0.1" d="M89.9463 47.6602C89.9463 47.6602 89.8899 51.1171 89.502 51.8289L89.9463 47.6602Z" fill="black"/>
<path opacity="0.1" d="M101.23 44.5723L107.349 46.9685L105.109 47.261L101.23 44.5723Z" fill="black"/>
<path opacity="0.1" d="M89.1847 17.7981C89.4915 17.999 89.7454 18.3267 90.1086 18.3725C90.3714 18.3803 90.6312 18.3157 90.8597 18.1857C91.4697 17.9215 92.1609 17.7171 92.7921 17.925C93.6913 18.2245 94.185 19.257 95.0807 19.5636C95.3014 19.638 95.5357 19.6633 95.7671 19.6378C95.9986 19.6122 96.2217 19.5364 96.4207 19.4156C96.7739 19.1974 97.0272 18.8494 97.126 18.4465C97.1848 18.098 97.1506 17.7402 97.0267 17.4092C96.9029 17.0782 96.6939 16.7857 96.4207 16.5612C95.87 16.1182 95.2162 15.8212 94.52 15.6979C92.7216 15.2997 90.8526 15.4336 89.0154 15.571C88.8643 15.5676 88.7152 15.6067 88.5852 15.6838C88.3066 15.8917 87.8305 16.9383 87.9293 17.2907C88.0774 17.7629 89.1353 17.4034 89.1847 17.7981Z" fill="black"/>
<path d="M89.1644 17.6536C89.4711 17.8544 89.725 18.1822 90.0918 18.228C90.3545 18.2353 90.6142 18.1707 90.8429 18.0412C91.453 17.7769 92.1441 17.5725 92.7718 17.7804C93.671 18.08 94.1647 19.1125 95.064 19.419C95.2846 19.4935 95.5189 19.5188 95.7504 19.4932C95.9818 19.4677 96.2049 19.3918 96.404 19.271C96.5795 19.1637 96.7321 19.0229 96.8531 18.8567C96.9741 18.6904 97.0612 18.5019 97.1092 18.302C97.1684 17.9535 97.1343 17.5956 97.0105 17.2645C96.8866 16.9334 96.6774 16.6409 96.404 16.4167C95.8523 15.973 95.1972 15.676 94.4997 15.5534C92.7013 15.1552 90.8323 15.2891 88.9986 15.4265C88.8475 15.4231 88.6984 15.4622 88.5684 15.5393C88.2898 15.7472 87.8102 16.7938 87.9125 17.1461C88.0465 17.6113 89.115 17.2589 89.1644 17.6536Z" fill="#965D7B"/>
<path d="M112.861 20.5059L113.447 22.8704L114.208 22.4123L118.334 19.9209C118.334 19.9209 121.459 19.8081 121.702 17.2956C121.945 14.7831 118.228 17.2709 118.031 17.4648C117.834 17.6586 117.382 17.9898 117.382 17.9898L113.538 20.1288L112.861 20.5059Z" fill="#EFB7B9"/>
<path opacity="0.1" d="M112.861 20.506L113.447 22.8705L114.208 22.4124C114.039 21.3552 113.778 20.358 113.538 20.1289L112.861 20.506Z" fill="black"/>
<path opacity="0.1" d="M92.4902 35.9672L93.3295 40.9006L98.3087 39.8435C98.1888 39.4664 96.7113 34.6986 97.7798 33.5217C98.8482 32.3447 98.485 28.8561 98.485 28.8561C98.485 28.8561 96.5526 26.6325 96.1647 26.0969C95.7768 25.5612 93.266 25.1384 93.266 25.1384C93.1632 24.9163 93.1011 24.6776 93.0827 24.4336C93.0013 24.6016 92.9374 24.7775 92.8922 24.9587C92.8922 25.8608 93.2449 26.4774 94.2217 26.932L94.4897 27.0483C94.6413 27.1082 94.807 27.1646 94.9834 27.221L95.0645 27.2456C96.669 27.7214 97.0145 28.6799 97.0145 28.6799C97.5778 29.4181 97.8388 30.3429 97.7445 31.2664C97.5647 32.8098 92.4902 35.9672 92.4902 35.9672Z" fill="black"/>
<path d="M92.7793 35.9362L93.6186 40.8696L99.222 39.6997C99.222 39.6997 99.0527 37.8356 98.6613 37.0779C98.2698 36.3203 98.3474 33.3743 98.3474 33.3743C100.731 30.809 99.4794 28.7193 99.4794 28.7193C99.4794 28.7193 106.483 27.5881 106.603 27.3767C106.723 27.1653 109.071 25.9037 109.071 25.9037C109.071 25.9037 111.61 25.2553 111.952 24.8924C112.08 24.7556 112.22 24.6295 112.368 24.5153C112.412 24.4827 112.458 24.4533 112.506 24.4272L112.693 26.0447H112.763C113.173 26.0013 113.563 25.8479 113.892 25.6007C114.47 25.1567 113.74 20.3149 113.186 20.1352C113.08 20.1086 112.968 20.1086 112.862 20.1352C112.42 20.2711 112.009 20.4926 111.652 20.7871L111.557 20.8646L111.522 20.8928C111.522 20.8928 108.348 22.1367 107.717 22.7076C107.086 23.2784 102.152 24.0079 102.152 24.0079C102.152 24.0079 99.9413 24.5294 99.6557 24.2123C99.3701 23.8951 95.9953 23.3806 95.7132 23.8599C95.4311 24.3391 94.6553 24.2687 94.6553 24.2687C94.0982 23.6308 93.7138 23.8775 93.4775 24.244C93.3432 24.4624 93.2433 24.7001 93.1813 24.9488C93.1813 25.9319 93.6115 26.5733 94.7787 27.0384C94.9515 27.1089 95.1314 27.1723 95.3535 27.2358C96.958 27.7115 97.3036 28.67 97.3036 28.67C97.8665 29.4098 98.1273 30.3354 98.0336 31.26C97.8537 32.7647 92.7793 35.9362 92.7793 35.9362Z" fill="#444053"/>
<path opacity="0.1" d="M112.854 20.1214C112.913 20.1106 112.974 20.1106 113.033 20.1214C113.594 20.294 114.324 25.1429 113.739 25.5869C113.45 25.8061 113.112 25.9523 112.755 26.0133H112.67L112.483 24.3958C112.435 24.4219 112.389 24.4513 112.346 24.4839V24.417C112.492 23.7971 112.496 23.1522 112.358 22.5304C112.22 21.9087 111.944 21.3261 111.549 20.8261L112.854 20.1214Z" fill="black"/>
<path d="M112.492 24.4204L112.679 26.0378C113.118 26.0084 113.54 25.8517 113.892 25.5868C114.47 25.1428 113.74 20.301 113.186 20.1212C112.742 19.9838 111.963 20.5371 111.652 20.7732C112.065 21.2749 112.355 21.8654 112.501 22.4982C112.647 23.131 112.643 23.789 112.492 24.4204Z" fill="#444053"/>
<path d="M94.7779 27.0245L95.5819 26.2669L93.4661 24.2266C93.3319 24.4449 93.232 24.6826 93.1699 24.9313C93.1699 25.918 93.5966 26.5594 94.7779 27.0245Z" fill="#444053"/>
<path opacity="0.1" d="M89.1365 17.3655C89.4433 17.5664 89.6972 17.8941 90.0604 17.9399C90.3232 17.9477 90.5831 17.8831 90.8116 17.7531C91.4216 17.4888 92.1128 17.2845 92.744 17.4924C93.6432 17.7919 94.1545 18.8244 95.0326 19.131C95.2533 19.2054 95.4875 19.2307 95.719 19.2051C95.9505 19.1796 96.1736 19.1037 96.3726 18.983C96.7258 18.7648 96.979 18.4168 97.0779 18.0139C97.1102 17.873 97.1232 17.7284 97.1167 17.584C97.1675 17.8162 97.1675 18.0566 97.1167 18.2888C97.0494 18.5747 96.9023 18.8357 96.6926 19.0415C96.4829 19.2473 96.2191 19.3895 95.9318 19.4516C95.6473 19.5144 95.3511 19.4986 95.0749 19.4058C94.1757 19.0992 93.682 18.0668 92.7863 17.7672C92.1551 17.5593 91.4639 17.7672 90.8539 18.028C90.6254 18.158 90.3655 18.2226 90.1027 18.2148C89.7501 18.1689 89.4821 17.8412 89.1753 17.6404C89.1259 17.2457 88.061 17.6051 87.927 17.1329C87.9124 17.062 87.9124 16.9889 87.927 16.918C88.128 17.2915 89.0801 16.9955 89.1365 17.3655Z" fill="black"/>
<path opacity="0.1" d="M92.4401 28.5039C92.4401 28.5039 91.9923 29.7584 92.56 30.1778C92.56 30.1778 91.9394 28.5215 91.5762 28.5568" fill="black"/>
<path d="M120.168 16.3086C120.168 16.3086 117.287 18.7964 119.368 19.1946C121.449 19.5928 120.168 16.3086 120.168 16.3086Z" fill="#EFB7B9"/>
<path d="M108.939 18.3809L109.493 32.9521L125.531 18.3809H108.939Z" fill="white"/>
<path opacity="0.03" d="M108.939 18.3809L109.493 32.9521L125.531 18.3809H108.939Z" fill="black"/>
</g>
<defs>
<filter id="filter0_d" x="93.2129" y="9.37695" width="171.194" height="99.5432" filterUnits="userSpaceOnUse" color-interpolation-filters="sRGB">
<feFlood flood-opacity="0" result="BackgroundImageFix"/>
<feColorMatrix in="SourceAlpha" type="matrix" values="0 0 0 0 0 0 0 0 0 0 0 0 0 0 0 0 0 0 127 0"/>
<feOffset dx="-1" dy="4"/>
<feGaussianBlur stdDeviation="6.5"/>
<feColorMatrix type="matrix" values="0 0 0 0 0.945098 0 0 0 0 0.337255 0 0 0 0 0.235294 0 0 0 0.13 0"/>
<feBlend mode="normal" in2="BackgroundImageFix" result="effect1_dropShadow"/>
<feBlend mode="normal" in="SourceGraphic" in2="effect1_dropShadow" result="shape"/>
</filter>
<linearGradient id="paint0_linear" x1="162.061" y1="253.001" x2="162.061" y2="161.179" gradientUnits="userSpaceOnUse">
<stop stop-color="#808080" stop-opacity="0.25"/>
<stop offset="0.54" stop-color="#808080" stop-opacity="0.12"/>
<stop offset="1" stop-color="#808080" stop-opacity="0.1"/>
</linearGradient>
<clipPath id="clip0">
<rect width="356" height="253" fill="white"/>
</clipPath>
</defs>
</svg>
