<svg width="27" height="28" viewBox="0 0 27 28" fill="none" xmlns="http://www.w3.org/2000/svg">
<mask id="path-1-inside-1" fill="white">
<path fill-rule="evenodd" clip-rule="evenodd" d="M13.5 26.7266C20.9558 26.7266 27 20.7436 27 13.3633C27 5.98294 20.9558 0 13.5 0C6.04416 0 0 5.98294 0 13.3633C0 16.4275 1.0419 19.2509 2.79416 21.5051L1.06061 28L8.83798 25.9083C10.291 26.4376 11.8614 26.7266 13.5 26.7266Z"/>
</mask>
<path d="M2.79416 21.5051L4.72651 22.0209L4.98256 21.0616L4.37323 20.2777L2.79416 21.5051ZM1.06061 28L-0.871747 27.4842L-1.76504 30.831L1.58004 29.9314L1.06061 28ZM8.83798 25.9083L9.52249 24.0291L8.92876 23.8128L8.31855 23.9769L8.83798 25.9083ZM25 13.3633C25 19.6199 19.8705 24.7266 13.5 24.7266V28.7266C22.0412 28.7266 29 21.8673 29 13.3633H25ZM13.5 2C19.8705 2 25 7.10666 25 13.3633H29C29 4.85923 22.0412 -2 13.5 -2V2ZM2 13.3633C2 7.10666 7.12948 2 13.5 2V-2C4.95883 -2 -2 4.85923 -2 13.3633H2ZM4.37323 20.2777C2.88304 18.3606 2 15.9658 2 13.3633H-2C-2 16.8893 -0.799236 20.1411 1.2151 22.7326L4.37323 20.2777ZM2.99296 28.5158L4.72651 22.0209L0.86181 20.9894L-0.871747 27.4842L2.99296 28.5158ZM8.31855 23.9769L0.541173 26.0686L1.58004 29.9314L9.35742 27.8397L8.31855 23.9769ZM13.5 24.7266C12.098 24.7266 10.7591 24.4795 9.52249 24.0291L8.15348 27.7875C9.82292 28.3956 11.6248 28.7266 13.5 28.7266V24.7266Z" fill="white" mask="url(#path-1-inside-1)"/>
</svg>
