<?xml version="1.0" encoding="UTF-8"?>
<svg width="60px" height="60px" viewBox="0 0 60 60" version="1.1" xmlns="http://www.w3.org/2000/svg" xmlns:xlink="http://www.w3.org/1999/xlink">
    <title>logo copy 2</title>
    <g id="Symbols" stroke="none" stroke-width="1" fill="none" fill-rule="evenodd">
        <g id="New-Menu-60-Scrolling">
            <g id="logo-copy-2">
                <rect id="Rectangle-Copy-2" fill="#F1563C" x="0" y="0" width="60" height="60"></rect>
                <path d="M51.671697,22.0186065 C52.2004269,22.0200965 52.6208627,22.0320167 52.9223275,22.127378 C53.2699056,22.2562843 53.4245931,22.4044093 53.55139,22.7562061 C53.6599056,23.1007374 53.6599056,23.6001905 53.6599056,24.2400343 L53.6596937,26.4022823 C53.6582101,26.9312782 53.6463412,27.3515089 53.55139,27.6527686 C53.4292806,27.9933155 53.268265,28.1580811 52.9223275,28.2818311 C52.5777963,28.3905811 52.0778744,28.3905811 51.4384994,28.3905811 L51.3918588,28.3905811 L51.0635519,28.3920469 C50.0997447,28.3982358 49.3266166,28.4312686 48.7619369,28.6097218 C48.0871713,28.8579249 47.7344369,29.2106593 47.4958431,29.8758155 C47.3594369,30.3070655 47.3078744,30.8601905 47.2884213,31.5262843 C47.3052963,32.2455811 47.354515,32.8380811 47.49889,33.2946436 C47.7374838,33.9600343 48.0904525,34.3127686 48.7652181,34.5609718 C49.3527963,34.7465968 50.1665463,34.7749561 51.1856088,34.7791749 L51.1856088,34.7791749 L51.438265,34.7791749 C52.0781088,34.7791749 52.5777963,34.7791749 52.9220931,34.8881593 C53.2572494,35.0112061 53.4325619,35.1865186 53.5511556,35.5169874 C53.6599056,35.8612843 53.6599056,36.3612061 53.6599056,37.0008155 L53.6596932,39.163054 C53.6582064,39.6920081 53.6463119,40.112085 53.5511556,40.4135499 C53.4281088,40.753628 53.2649838,40.9193311 52.9220931,41.0426124 C52.5777963,41.1513624 52.0781088,41.1513624 51.438265,41.1513624 L51.438265,41.1513624 L49.5093588,41.1513624 C48.8697494,41.1513624 48.3698275,41.1513624 48.0255306,41.0426124 C47.6795931,40.918628 47.5183431,40.7538624 47.3967025,40.4135499 C47.2879525,40.0690186 47.2879525,39.5695655 47.2879525,38.9297218 L47.2879525,38.3505811 C47.2778744,37.4829249 47.2375619,36.7797999 47.0718588,36.2562061 C46.833265,35.5910499 46.4802963,35.2383155 45.805765,34.9901124 C45.1783431,34.7915968 44.2935775,34.7730811 43.1758431,34.7712061 L43.1758431,34.7712061 L42.8958607,34.7707594 C42.3668649,34.7692725 41.9466342,34.757378 41.6453744,34.6622218 C41.2992025,34.5382374 41.1381869,34.3734718 41.0163119,34.0331593 C40.9073275,33.6888624 40.9073275,33.1889405 40.9073275,32.5493311 L40.9073275,32.5493311 L40.9073275,30.6204249 C40.9073275,29.9808155 40.9073275,29.4808936 41.0163119,29.1365968 C41.1431088,28.7847999 41.2973275,28.6364405 41.6453744,28.5075343 C41.9896713,28.3987843 42.4893588,28.3987843 43.1292025,28.3987843 L43.3820931,28.3987843 C44.4011556,28.3945655 45.2146713,28.3662061 45.8022494,28.1803468 C46.477015,27.932378 46.8299838,27.5796436 47.0683431,26.9144874 C47.2767025,26.256128 47.2872494,25.3155811 47.2879525,24.1200343 C47.2884213,23.5383155 47.2947494,23.0784718 47.3969369,22.7562061 C47.5152963,22.4257374 47.6908431,22.2506593 48.025765,22.127378 C48.3700619,22.0183936 48.8697494,22.0183936 49.5093588,22.0183936 Z M43.7034916,37.4366593 C44.125601,37.4366593 44.4677885,37.7788468 44.4677885,38.2009561 L44.4677885,40.1544718 C44.4677885,40.5765811 44.125601,40.9187686 43.7034916,40.9187686 L7.22606971,40.9187686 C6.80396034,40.9187686 6.46153846,40.5765811 6.46153846,40.1544718 L6.46153846,38.2009561 C6.46153846,37.7788468 6.80396034,37.4366593 7.22606971,37.4366593 L43.7034916,37.4366593 Z M17.2607158,22.0222627 C17.7897084,22.0237528 18.2099135,22.0356729 18.5109681,22.1310343 C18.8629994,22.2578311 19.0113588,22.4120499 19.140265,22.7600968 C19.249015,23.1043936 19.249015,23.6040811 19.249015,24.2436905 L19.249015,24.482753 C19.2529994,25.5081436 19.2806556,26.3268155 19.4674525,26.9169718 C19.7154213,27.5917374 20.0681556,27.9447061 20.7335463,28.1832999 C21.1898744,28.3276749 21.7826088,28.3768936 22.5019056,28.3937686 C23.1679994,28.3743155 23.7211244,28.3229874 24.1523744,28.1865811 C24.817765,27.9479874 25.1704994,27.5950186 25.4184681,26.920253 C25.6169838,26.2928311 25.6354994,25.4080655 25.6373744,24.2903311 L25.6373744,24.2903311 L25.6376088,24.2903311 L25.6378216,24.010426 C25.6393117,23.4815872 25.6512318,23.0613565 25.7465931,22.7600968 C25.8703431,22.4139249 26.0351088,22.2529093 26.3754213,22.1310343 C26.7197181,22.0220499 27.21964,22.0220499 27.8592494,22.0220499 L30.0214206,22.0222627 C30.5502626,22.0237528 30.9705189,22.0356729 31.2719838,22.1310343 C31.6237806,22.2578311 31.77214,22.4120499 31.9008119,22.7600968 C32.0095619,23.1043936 32.0095619,23.6040811 32.0095619,24.2436905 L32.0095619,24.2436905 L32.0095619,24.4644718 C32.0135463,25.4985343 32.040265,26.3232999 32.2282338,26.9169718 C32.4759681,27.5917374 32.8289369,27.9447061 33.4940931,28.1832999 C34.1524525,28.3914249 35.092765,28.4019718 36.2885463,28.4024405 L36.2885463,28.4024405 L36.53026,28.4034962 C36.9986069,28.4069032 37.3759123,28.4240365 37.65214,28.5114249 C37.9828431,28.6300186 38.1581556,28.8053311 38.2812025,29.1404874 C38.3901869,29.4847843 38.3901869,29.9844718 38.3901869,30.6243155 L38.389974,32.7864867 C38.388484,33.3153287 38.3765639,33.735585 38.2812025,34.0370499 C38.1522963,34.384628 38.0039369,34.5390811 37.65214,34.665878 C37.3080775,34.7748624 36.80839,34.7748624 36.1683119,34.7748624 L34.0063078,34.7746495 C33.4773536,34.7731595 33.0572767,34.7612393 32.7558119,34.665878 C32.4154994,34.544003 32.2507338,34.3829874 32.1267494,34.0370499 C32.017765,33.6925186 32.017765,33.1928311 32.017765,32.5532218 L32.017765,32.5065811 C32.01589,31.3888468 31.99714,30.5040811 31.7988588,29.8766593 C31.5506556,29.2018936 31.1979213,28.8489249 30.5325306,28.6103311 C30.101515,28.4739249 29.5481556,28.4225968 28.8820619,28.4031436 C28.1629994,28.4200186 27.5704994,28.4692374 27.1139369,28.6136124 C26.4487806,28.8522061 26.0958119,29.2051749 25.8476088,29.8799405 C25.6601088,30.4729093 25.6331556,31.2967374 25.6294056,32.3291593 L25.6294056,32.3291593 L25.6291932,32.7864867 C25.6277064,33.3153287 25.6158119,33.735585 25.5206556,34.0370499 C25.3917494,34.384628 25.24339,34.5390811 24.8915931,34.665878 C24.5470619,34.7748624 24.0476088,34.7748624 23.407765,34.7748624 L21.2455169,34.7746495 C20.7165211,34.7731595 20.2962904,34.7612393 19.9950306,34.665878 C19.6544838,34.544003 19.4897181,34.3829874 19.3659681,34.0370499 C19.2572181,33.6925186 19.2572181,33.1928311 19.2572181,32.5532218 L19.2572181,32.5065811 L19.2557587,32.1782743 C19.2496056,31.2144671 19.2167416,30.4413389 19.0380775,29.8766593 C18.7901088,29.2018936 18.43714,28.8489249 17.7719838,28.6103311 C17.3407338,28.4739249 16.7873744,28.4225968 16.1212806,28.4031436 C15.4024525,28.4200186 14.8094838,28.4692374 14.3531556,28.6136124 C13.687765,28.8522061 13.3350306,29.2051749 13.0870619,29.8799405 C12.900265,30.4700968 12.8728431,31.2887686 12.8686244,32.3141593 L12.8686244,32.3141593 L12.8686244,32.5529874 C12.8686244,33.1928311 12.8686244,33.6925186 12.75964,34.0368155 C12.6365931,34.3719718 12.4612806,34.5472843 12.1308119,34.665878 C11.786515,34.7748624 11.2868275,34.7748624 10.6472181,34.7748624 L8.4848126,34.7746495 C7.95597059,34.7731595 7.53571424,34.7612393 7.2342494,34.665878 C6.89417127,34.5428311 6.72846815,34.3797061 6.60542127,34.0368155 C6.4964369,33.6925186 6.4964369,33.1928311 6.4964369,32.5529874 L6.4964369,32.5529874 L6.4964369,30.6240811 C6.4964369,29.9844718 6.4964369,29.4845499 6.60542127,29.1404874 C6.72917127,28.7943155 6.8939369,28.6330655 7.2342494,28.5111905 C7.57878065,28.4024405 8.07846815,28.4024405 8.71807752,28.4024405 L9.29909315,28.4024405 C10.1658119,28.3925968 10.8682338,28.3520499 11.3915931,28.1865811 C12.0567494,27.9479874 12.4094838,27.5950186 12.6576869,26.920253 C12.8562025,26.2928311 12.8749525,25.4080655 12.8765931,24.2903311 L12.8765931,24.2903311 L12.8770399,24.010426 C12.8785267,23.4815872 12.8904213,23.0613565 12.9855775,22.7600968 C13.1095619,22.4139249 13.2743275,22.2529093 13.61464,22.1310343 C13.9591713,22.0220499 14.4586244,22.0220499 15.0984681,22.0220499 Z M43.9664135,15.8254327 C44.3964916,15.9803546 44.5774291,16.1687921 44.7349291,16.5939483 C44.8532624,16.9679067 44.8664106,17.491865 44.8678715,18.1526546 L44.8680541,23.4208233 C44.8680541,24.2024639 44.8680541,24.8130108 44.7349291,25.2334796 C44.5844603,25.6431671 44.370476,25.8571514 43.9664135,26.0022296 C43.5924551,26.1203546 43.068682,26.1334796 42.4079335,26.1349379 L37.1400072,26.1351202 C36.3583666,26.1351202 35.7480541,26.1351202 35.327351,26.0022296 C34.9115697,25.8517608 34.7090697,25.6525421 34.558601,25.2334796 C34.440476,24.8597296 34.427351,24.3357944 34.4258926,23.6750073 L34.4257103,18.4068389 C34.4257103,17.6251983 34.4257103,17.0146514 34.558601,16.5939483 C34.7097728,16.1711358 34.9113353,15.9742608 35.327351,15.8254327 C35.7013093,15.7070994 36.2250824,15.6939512 36.8858309,15.6924903 L42.1537572,15.6923077 C42.9353978,15.6923077 43.5457103,15.6923077 43.9664135,15.8254327 Z" id="Combined-Shape" fill="#FEFEFE"></path>
            </g>
        </g>
    </g>
</svg>