<svg height="30.6" width="224" version="1.1" xmlns="http://www.w3.org/2000/svg" xmlns:xlink="http://www.w3.org/1999/xlink" x="0px" y="0px"
	 viewBox="0 0 224 30.6" style="enable-background:new 0 0 224 30.6;" xml:space="preserve">
<style type="text/css">
	.moclogo-st0{fill:#3C484E;}
	.moclogo-st1{fill:#7599A5;}
	.moclogo-st2{fill:#F0563C;}
	.moclogo-st3{fill:#FFFFFF;}
</style>
<title>Master Of Code Global</title>
    <path class="moclogo-st0" d="M97.6,9.5c-2.6,0-5.3,0-5.3,3.5v4.5c0,3.6,2.5,3.5,5.1,3.5c0.2,0,0.3,0,0.5,0l0,0c0,0,0,0,0,0
        c0.2,0,0.4,0,0.6,0c0,0,0,0,0,0c1.6,0,2.6-0.3,3.2-1c0.1-0.1,0.1-0.3,0-0.4l-1.3-1.2c-0.1-0.1-0.3-0.2-0.5-0.1
        c-0.5,0.4-1.2,0.4-2.1,0.4c-0.7,0-0.9,0-1.6,0c-1.1,0-1.7-0.1-1.7-1.3v-1.1h6.2c0.9,0,1.6-0.7,1.6-1.5c0-0.4,0-0.9,0-1.5
        C102.5,9.7,100.2,9.5,97.6,9.5z M100.1,13.9c0,0.2-0.1,0.3-0.3,0.3h-5.1v-1.2c0-0.8,0.3-1,0.8-1.1c0.9-0.1,1.2-0.1,2-0.1l1.6,0
        c0.7,0,1,0.3,1,1.4C100.1,13.6,100.1,13.8,100.1,13.9z"/>
    <path class="moclogo-st0" d="M90.2,21.1c-2.4,0-5.6,0.1-5.6-3.4c0-0.2,0-0.4,0-0.6v-5.2V9.6c0-0.5,0-1.7,0-2.8c0-0.2,0.1-0.3,0.3-0.3h1.7
        c0.2,0,0.3,0.1,0.3,0.3c0,1,0,2.3,0,2.8h3.2c0.2,0,0.3,0.1,0.3,0.3v1.7c0,0.2-0.1,0.3-0.3,0.3H87v5.2c0,0.2,0,0.4,0,0.6
        c0,1.1,1,1,1.8,1c0.3,0,0.7,0,1.4,0c0.2,0,0.3,0.1,0.3,0.3v1.7C90.5,21,90.4,21.1,90.2,21.1z"/>
    <path class="moclogo-st0" d="M133.7,7.9c-0.7,0-1.1,0-1.4,0c-0.8,0-1.8-0.1-1.8,1c0,0.2,0,0.4,0,0.6v1.3h2c0.2,0,0.3,0.1,0.3,0.3v1.7
        c0,0.2-0.1,0.3-0.3,0.3h-2c0,0.5,0,6,0,7.7c0,0.2-0.1,0.3-0.3,0.3h-1.7c-0.2,0-0.3-0.1-0.3-0.3c0-1,0-2.3,0-2.8v-2.4V9.4
        c0-0.2,0-0.4,0-0.6c0-3.5,3.1-3.4,5.6-3.4c0.2,0,0.3,0.1,0.3,0.3v1.7C134.1,7.7,133.9,7.9,133.7,7.9z"/>
    <path class="moclogo-st0" d="M108.9,11.8c0.3,0,0.7,0,1.4,0c0.2,0,0.3-0.2,0.3-0.3V9.7c0-0.2-0.1-0.3-0.3-0.3c-2.4,0-5.6-0.1-5.6,3.4
        c0,0.2,0,0.4,0,0.6v5.3v2.1c0,0.2,0.1,0.3,0.3,0.3h1.7c0.2,0,0.3-0.1,0.3-0.3v-7.4c0-0.2,0-0.4,0-0.6
        C107.1,11.7,108.1,11.8,108.9,11.8z"/>
    <path class="moclogo-st0" d="M125.8,17.8c0,2.2-1.3,3.5-3.5,3.5h-3.2c-2.2,0-3.5-1.3-3.5-3.5v-4.4c0-2.2,0.6-4.2,3.5-4.2h3.2
        c3.1,0,3.6,2.1,3.5,4.3L125.8,17.8z M122.3,11.7h-3.2c-1.1,0-1.2,0.3-1.2,1.8v4.4c0,0.9,0.3,1.1,1.2,1.1h3.2
        c0.9,0,1.2-0.3,1.2-1.1l0-4.3C123.4,12,123.4,11.7,122.3,11.7z"/>
    <path class="moclogo-st0" d="M160.2,17.8c0,2.2-1.3,3.5-3.5,3.5h-3.2c-2.2,0-3.5-1.3-3.5-3.5v-4.4c0-2.2,0.6-4.2,3.5-4.2h3.2
        c3.1,0,3.6,2.1,3.5,4.3L160.2,17.8z M156.7,11.7h-3.2c-1.1,0-1.2,0.3-1.2,1.8v4.4c0,0.9,0.3,1.1,1.2,1.1h3.2
        c0.9,0,1.2-0.3,1.2-1.1l0-4.3C157.9,12,157.8,11.7,156.7,11.7z"/>
    <path class="moclogo-st0" d="M168.9,21.1H167c-2.2,0-4.7-0.2-4.7-3.6v-1.7v-2.7c0-2.2,1.3-3.5,3.5-3.5h3.9c0.2,0,0.3-0.1,0.3-0.3V5.7
        c0-0.2,0.1-0.3,0.3-0.3h1.7c0.2,0,0.3,0.1,0.3,0.3v10.1c0,0.6,0,1.2,0,1.7C172.3,19.7,171.4,21.1,168.9,21.1z M170.1,15.8v-3.9
        h-4.2c-0.9,0-1.2,0.3-1.2,1.2v4.4c0,1,0.4,1.1,1.3,1.2c0.3,0,0.7,0,1,0h1.9c1.1,0,1.2-0.6,1.2-1.7
        C170.1,16.6,170.1,16.2,170.1,15.8z"/>
    <path class="moclogo-st0" d="M111.6,18.5h0.8c0.3,0,0.5,0,0.6,0c0.1,0.1,0.2,0.1,0.3,0.3c0,0.1,0,0.3,0,0.6v0.8c0,0.3,0,0.5,0,0.6
        c-0.1,0.1-0.1,0.2-0.3,0.3c-0.1,0-0.3,0-0.6,0h-0.8c-0.3,0-0.5,0-0.6,0c-0.1-0.1-0.2-0.1-0.3-0.3c0-0.1,0-0.3,0-0.6v-0.8
        c0-0.3,0-0.5,0-0.6c0.1-0.1,0.1-0.2,0.3-0.3C111.2,18.5,111.4,18.5,111.6,18.5L111.6,18.5"/>
    <path class="moclogo-st0" d="M135.3,18.5h0.8c0.3,0,0.5,0,0.6,0c0.1,0.1,0.2,0.1,0.3,0.3c0,0.1,0,0.3,0,0.6v0.8c0,0.3,0,0.5,0,0.6
        c-0.1,0.1-0.1,0.2-0.3,0.3c-0.1,0-0.3,0-0.6,0h-0.8c-0.3,0-0.5,0-0.6,0c-0.1-0.1-0.2-0.1-0.3-0.3c0-0.1,0-0.3,0-0.6v-0.8
        c0-0.3,0-0.5,0-0.6c0.1-0.1,0.1-0.2,0.3-0.3C134.9,18.5,135.1,18.5,135.3,18.5L135.3,18.5"/>
    <path class="moclogo-st0" d="M58.6,21.1h-1.7c-0.2,0-0.3-0.1-0.3-0.3l0-7.7c0-0.9-0.3-1.2-1.2-1.2h-2.9v8.8c0,0.2-0.1,0.3-0.3,0.3h-1.7
        c-0.2,0-0.3-0.1-0.3-0.3v-8.8h-4v8.8c0,0.2-0.1,0.3-0.3,0.3H44c-0.2,0-0.3-0.1-0.3-0.3V9.9c0-0.2,0.1-0.3,0.3-0.3h11.3
        c2.2,0,3.5,1.3,3.5,3.5c0,2.5,0,4.6,0,7.7C58.9,21,58.7,21.1,58.6,21.1z"/>
    <path class="moclogo-st0" d="M61.8,9.6c-0.2,0-0.3,0.1-0.3,0.3v1.6c0,0.2,0.1,0.3,0.3,0.3c4.4,0,4.8,0,4.9,0c1.1,0,1.7,0.1,1.7,1.2
        c0,1.1-1,1-1.8,1c-0.4,0-1.2,0-1.2,0c-2.6,0-4.9,0.2-4.9,3.5c0,3.3,2.2,3.5,4.9,3.5c2.6,0,5.3,0,5.3-3.5v-4.5
        c0-3.6-2.6-3.5-5.2-3.5C65.7,9.6,65.6,9.6,61.8,9.6z M68.5,17.5c0,0.8-0.4,1.1-0.9,1.2c-0.8,0.1-3.3,0-3.3,0c-1,0-1.2-0.3-1.2-1.2
        c0-0.8,0.2-1.2,1.2-1.2c0,0,1.7,0,2.7,0c1,0,1.6-0.4,1.6-0.4V17.5z"/>
    <path class="moclogo-st0" d="M179.9,9.5c-2.6,0-5.3,0-5.3,3.5v4.5c0,3.6,2.5,3.5,5.1,3.5c0.2,0,0.3,0,0.5,0l0,0c0,0,0,0,0,0
        c0.2,0,0.4,0,0.6,0c0,0,0,0,0,0c1.6,0,2.6-0.3,3.2-1c0.1-0.1,0.1-0.3,0-0.4l-1.3-1.2c-0.1-0.1-0.3-0.2-0.5-0.1
        c-0.5,0.4-1.3,0.4-2.1,0.4c-0.7,0-0.9,0-1.6,0c-1.1,0-1.7-0.1-1.7-1.3v-1.1h6.2c0.9,0,1.6-0.7,1.6-1.5c0-0.4,0-0.9,0-1.5
        C184.8,9.7,182.5,9.5,179.9,9.5z M182.4,13.9c0,0.2-0.1,0.3-0.3,0.3H177v-1.2c0-0.8,0.3-1,0.8-1.1c0.9-0.1,1.2-0.1,2-0.1l1.6,0
        c0.7,0,1,0.3,1,1.4C182.4,13.6,182.4,13.8,182.4,13.9z"/>
    <path class="moclogo-st0" d="M147.1,18.4c-0.1-0.1-0.3-0.2-0.5-0.1c-0.6,0.4-1.1,0.4-1.8,0.4c0,0,0,0,0,0c-0.1,0-0.2,0-0.3,0c0,0,0,0,0,0
        l-1.7,0c-0.9,0-1.2-0.3-1.2-1.2v-4.4c0-0.8,0.3-1,0.5-1.1c0.5-0.2,1.3-0.1,1.8-0.1c0,0,0,0,0,0c0.2,0,0.6,0,1,0h0
        c0.7,0,1.2,0,1.7,0.4c0.2,0.1,0.4,0,0.5-0.1l1.3-1.3c0.1-0.1,0.1-0.3,0-0.4c-0.7-0.7-1.7-1-3.5-1c0,0,0,0,0,0c-0.1,0-0.2,0-0.3,0
        c0,0,0,0,0,0l0,0c-0.1,0-0.3,0-0.4,0c0,0,0,0,0,0c-0.1,0-0.1,0-0.2,0c-2.2,0-4.7,0.2-4.7,3.6v4.4c0,2.2,1.3,3.5,3.5,3.5h1.7
        c0,0,0,0,0,0l0,0c0,0,0,0,0,0c0,0,0.1,0,0.1,0c0,0,0,0,0,0c0,0,0.1,0,0.1,0l0,0c1.8,0,2.9-0.3,3.6-1c0.1-0.1,0.1-0.3,0-0.4
        L147.1,18.4z"/>
    <path class="moclogo-st0" d="M79.3,14c-1,0-2,0-3,0c-0.7,0-1.1-0.4-1.1-1.1c0-0.7,0.4-1,1.2-1c0,0,1.6,0,1.6,0c0.5,0,1.9,0,2.4,0.4
        c0.2,0.1,0.4,0,0.5-0.1l1.3-1.2c0.1-0.1,0.1-0.3,0-0.4c-0.7-0.8-1.9-1-3.8-1h0h-2c-4.9,0-4.5,6.9,0,6.9c1,0,1.8,0,2.8,0
        c0.9,0,1.3,0.2,1.3,1.2c0,0.9-0.5,1.2-1.3,1.2c0,0-1.5,0-2.8,0c-0.5,0-1.2-0.1-1.6-0.4c-0.2-0.1-0.4,0-0.5,0.1L73,19.7
        c-0.1,0.1-0.1,0.3,0,0.4c0.7,0.7,1.7,1,3.3,1c0,0,0,0,0,0h3c2.2,0,3.5-1.4,3.5-3.5C82.8,15.4,81.5,14,79.3,14z"/>
    <path class="moclogo-st1" d="M198.8,12.9c0.1,0,0.2,0,0.5,0c0.1,0,0.1,0,0.1,0.1v0.6c0,0.1,0,0.1-0.1,0.1c-0.8,0-1.8,0-1.8-1.1
        c0-0.1,0-0.1,0-0.2v-1.7V10c0-0.1,0-0.1,0.1-0.1h0.6c0.1,0,0.1,0,0.1,0.1v2.4c0,0.1,0,0.1,0,0.2C198.2,12.9,198.6,12.9,198.8,12.9
        z"/>
    <path class="moclogo-st1" d="M223.4,12.9c0.1,0,0.2,0,0.5,0c0.1,0,0.1,0,0.1,0.1v0.6c0,0.1,0,0.1-0.1,0.1c-0.8,0-1.8,0-1.8-1.1
        c0-0.1,0-0.1,0-0.2v-1.7V10c0-0.1,0-0.1,0.1-0.1h0.6c0.1,0,0.1,0,0.1,0.1v2.4c0,0.1,0,0.1,0,0.2C222.9,12.9,223.2,12.9,223.4,12.9
        z"/>
    <path class="moclogo-st1" d="M205.8,12.6c0,0.7-0.4,1.1-1.1,1.1h-1c-0.7,0-1.2-0.4-1.2-1.1v-1.4c0-0.7,0.2-1.3,1.2-1.3h1
        c1,0,1.2,0.7,1.2,1.4L205.8,12.6z M204.7,10.6h-1c-0.4,0-0.4,0.1-0.4,0.6v1.4c0,0.3,0.1,0.4,0.4,0.4h1c0.3,0,0.4-0.1,0.4-0.4
        l0-1.4C205,10.7,205,10.6,204.7,10.6z"/>
    <path class="moclogo-st1" d="M215.8,9.9c-0.1,0-0.1,0-0.1,0.1v0.5c0,0.1,0,0.1,0.1,0.1c1.4,0,1.6,0,1.6,0c0.4,0,0.6,0,0.6,0.4
        c0,0.4-0.3,0.3-0.6,0.3c-0.1,0-0.4,0-0.4,0c-0.9,0-1.6,0.1-1.6,1.1c0,1.1,0.7,1.2,1.6,1.2c0.8,0,1.7,0,1.7-1.2v-1.5
        c0-1.2-0.9-1.1-1.7-1.1C217,9.9,217,9.9,215.8,9.9z M218,12.5c0,0.3-0.1,0.4-0.3,0.4c-0.3,0-1.1,0-1.1,0c-0.3,0-0.4-0.1-0.4-0.4
        c0-0.3,0.1-0.4,0.4-0.4c0,0,0.6,0,0.9,0c0.3,0,0.5-0.1,0.5-0.1V12.5z"/>
    <path class="moclogo-st1" d="M193.7,11.4h-1.2c0,0-0.1,0-0.1,0.1v0.6c0,0,0,0.1,0.1,0.1h0.9c0.1,0,0.1,0,0.1,0.1c0,0,0,0.1,0,0.2
        c0,0.4-0.1,0.5-0.3,0.5l-0.5,0c-0.2,0-0.3,0-0.6,0c-0.2,0-0.3-0.1-0.3-0.4v-1.5c0-0.4,0.2-0.4,0.6-0.4c0.2,0,0.3,0,0.5,0
        c0.3,0,0.5,0,0.7,0.1c0.1,0,0.1,0,0.2,0l0.4-0.4c0,0,0-0.1,0-0.1c-0.2-0.2-0.5-0.3-1.1-0.3c0,0,0,0,0,0c-0.1,0-0.1,0-0.2,0h0
        c-0.1,0-0.1,0-0.2,0c-0.8,0-1.7,0-1.7,1.1v1.5c0,1.2,0.9,1.2,1.7,1.2c0.9,0,1.6-0.1,1.6-1.2c0-0.2,0-0.4,0-0.5
        C194.2,11.7,194,11.4,193.7,11.4z"/>
    <path class="moclogo-st1" d="M212.2,11.9c-0.1-0.1-0.2-0.2-0.4-0.3c0.1-0.1,0.2-0.2,0.3-0.3c0.3-0.6-0.1-1.4-1.1-1.4h-1.8
        c-0.1,0-0.1,0-0.1,0.1v3.6c0,0.1,0,0.1,0.1,0.1l2.1,0c0.7,0,1.1-0.5,1.1-1.1C212.4,12.3,212.3,12.1,212.2,11.9z M211,10.7
        c0.3,0,0.4,0.1,0.4,0.3c0,0.2-0.1,0.4-0.4,0.4c0,0-0.2,0-0.4,0c-0.3,0-0.6,0-0.7,0v-0.7C210.1,10.7,211,10.7,211,10.7z
         M211.2,12.9c0,0-1,0-1.3,0v-0.8c0.1,0,0.4,0,0.6,0c0.3,0,0.6,0,0.7,0c0.3,0,0.4,0.1,0.4,0.4C211.6,12.8,211.5,12.9,211.2,12.9z"
        />
    <rect class="moclogo-st2" width="30.6" height="30.6"/>
    <g>
        <g>
            <path class="moclogo-st3" d="M18.9,8.1h2.6c0.4,0,0.7,0,0.9,0.1c0.2,0.1,0.3,0.2,0.4,0.4c0.1,0.2,0.1,0.5,0.1,0.9V12
                c0,0.4,0,0.7-0.1,0.9c-0.1,0.2-0.2,0.3-0.4,0.4c-0.2,0.1-0.5,0.1-0.9,0.1h-2.6c-0.4,0-0.7,0-0.9-0.1c-0.2-0.1-0.3-0.2-0.4-0.4
                c-0.1-0.2-0.1-0.5-0.1-0.9V9.5c0-0.4,0-0.7,0.1-0.9c0.1-0.2,0.2-0.3,0.4-0.4C18.2,8.1,18.5,8.1,18.9,8.1L18.9,8.1"/>
            <path class="moclogo-st3" d="M19.5,14.9c-0.1-0.2-0.2-0.3-0.3-0.3c-0.2-0.1-0.4-0.1-0.7-0.1v0c-0.6,0-1.1,0-1.4-0.1
                c-0.3-0.1-0.5-0.3-0.6-0.6c-0.1-0.3-0.1-0.7-0.1-1.2v-0.1c0-0.3,0-0.6-0.1-0.8c-0.1-0.2-0.1-0.3-0.3-0.3
                c-0.2-0.1-0.4-0.1-0.8-0.1h-1c-0.3,0-0.6,0-0.8,0.1c-0.2,0.1-0.3,0.1-0.3,0.3c-0.1,0.2-0.1,0.4-0.1,0.8v0h0c0,0.6,0,1-0.1,1.3
                c-0.1,0.3-0.3,0.5-0.6,0.6c-0.2,0.1-0.5,0.1-0.8,0.1c-0.4,0-0.7,0-0.9-0.1c-0.3-0.1-0.5-0.3-0.6-0.6c-0.1-0.3-0.1-0.7-0.1-1.2
                v-0.1c0-0.3,0-0.6-0.1-0.8c-0.1-0.2-0.1-0.3-0.3-0.3c-0.2-0.1-0.4-0.1-0.8-0.1h-1c-0.3,0-0.6,0-0.8,0.1
                c-0.2,0.1-0.3,0.1-0.3,0.3c-0.1,0.2-0.1,0.4-0.1,0.8v0h0c0,0.6,0,1-0.1,1.3c-0.1,0.3-0.3,0.5-0.6,0.6c-0.3,0.1-0.6,0.1-1.1,0.1
                H4.5c-0.3,0-0.6,0-0.8,0.1c-0.2,0.1-0.3,0.1-0.3,0.3c-0.1,0.2-0.1,0.4-0.1,0.8v1c0,0.3,0,0.6,0.1,0.8c0.1,0.2,0.1,0.3,0.3,0.3
                c0.2,0.1,0.4,0.1,0.8,0.1h1c0.3,0,0.6,0,0.8-0.1c0.2-0.1,0.3-0.1,0.3-0.3c0.1-0.2,0.1-0.4,0.1-0.8v-0.1c0-0.5,0-0.9,0.1-1.2
                C6.8,15,7,14.8,7.3,14.7c0.2-0.1,0.5-0.1,0.9-0.1c0.3,0,0.6,0,0.8,0.1c0.3,0.1,0.5,0.3,0.6,0.6c0.1,0.3,0.1,0.8,0.1,1.3h0v0
                c0,0.3,0,0.6,0.1,0.8c0.1,0.2,0.1,0.3,0.3,0.3c0.2,0.1,0.4,0.1,0.8,0.1h1c0.3,0,0.6,0,0.8-0.1c0.2-0.1,0.3-0.1,0.3-0.3
                c0.1-0.2,0.1-0.4,0.1-0.8v-0.1c0-0.5,0-0.9,0.1-1.2c0.1-0.3,0.3-0.5,0.6-0.6c0.2-0.1,0.5-0.1,0.9-0.1c0.3,0,0.6,0,0.8,0.1
                c0.3,0.1,0.5,0.3,0.6,0.6c0.1,0.3,0.1,0.8,0.1,1.3h0v0c0,0.3,0,0.6,0.1,0.8c0.1,0.2,0.1,0.3,0.3,0.3c0.2,0.1,0.4,0.1,0.8,0.1h1
                c0.3,0,0.6,0,0.8-0.1c0.2-0.1,0.3-0.1,0.3-0.3c0.1-0.2,0.1-0.4,0.1-0.8v-1C19.6,15.4,19.6,15.1,19.5,14.9z"/>
            <path class="moclogo-st3" d="M27,14.5c0.2-0.1,0.3-0.1,0.3-0.3c0.1-0.2,0.1-0.4,0.1-0.8v-1c0-0.3,0-0.6-0.1-0.8
                c-0.1-0.2-0.1-0.3-0.3-0.3c-0.2-0.1-0.4-0.1-0.8-0.1h-1c-0.3,0-0.6,0-0.8,0.1c-0.2,0.1-0.3,0.2-0.3,0.3
                c-0.1,0.2-0.1,0.4-0.1,0.7h0c0,0.6,0,1.1-0.1,1.4c-0.1,0.3-0.3,0.5-0.6,0.6c-0.3,0.1-0.7,0.1-1.2,0.1H22c-0.3,0-0.6,0-0.8,0.1
                c-0.2,0.1-0.3,0.1-0.3,0.3c-0.1,0.2-0.1,0.4-0.1,0.8v1c0,0.3,0,0.6,0.1,0.8c0.1,0.2,0.1,0.3,0.3,0.3c0.2,0.1,0.4,0.1,0.8,0.1h0
                v0c0.6,0,1,0,1.3,0.1c0.3,0.1,0.5,0.3,0.6,0.6c0.1,0.3,0.1,0.6,0.1,1.1v0.3c0,0.3,0,0.6,0.1,0.8c0.1,0.2,0.1,0.3,0.3,0.3
                c0.2,0.1,0.4,0.1,0.8,0.1h1c0.3,0,0.6,0,0.8-0.1c0.2-0.1,0.3-0.1,0.3-0.3c0.1-0.2,0.1-0.4,0.1-0.8v-1c0-0.3,0-0.6-0.1-0.8
                c-0.1-0.2-0.1-0.3-0.3-0.3c-0.2-0.1-0.4-0.1-0.8-0.1h-0.1c-0.5,0-0.9,0-1.2-0.1c-0.3-0.1-0.5-0.3-0.6-0.6
                c-0.1-0.2-0.1-0.5-0.1-0.9c0-0.3,0-0.6,0.1-0.8c0.1-0.3,0.3-0.5,0.6-0.6c0.3-0.1,0.8-0.1,1.3-0.1v0h0
                C26.5,14.5,26.8,14.5,27,14.5z"/>
        </g>
    </g>
    <g>
        <path class="moclogo-st3" d="M3.7,19.2h18.6c0.2,0,0.4,0.2,0.4,0.4v1c0,0.2-0.2,0.4-0.4,0.4H3.7c-0.2,0-0.4-0.2-0.4-0.4v-1
            C3.3,19.3,3.5,19.2,3.7,19.2z"/>
    </g>
</svg>
