<?xml version="1.0" encoding="utf-8"?>
<!-- Generator: Adobe Illustrator 19.2.1, SVG Export Plug-In . SVG Version: 6.00 Build 0)  -->
<svg version="1.1" id="Layer_1" xmlns="http://www.w3.org/2000/svg" xmlns:xlink="http://www.w3.org/1999/xlink" x="0px" y="0px"
	 viewBox="0 0 42 42" style="enable-background:new 0 0 42 42;" xml:space="preserve">
<style type="text/css">
	.st0{fill:#A3A2A2;}
</style>
<title>ui</title>
<path class="st0" d="M41,1v40H1V1H41 M42,0H0v42h42V0L42,0z"/>
<path class="st0" d="M24,13.3c0-0.4,0-0.9,0.1-1.3c0.1-0.3,0.3-0.5,0.5-0.5c0.4-0.1,0.8-0.1,1.3-0.1h3.4c0.4,0,0.9,0,1.3,0.1
	c0.3,0.1,0.5,0.3,0.5,0.5c0.1,0.4,0.1,0.8,0.1,1.3v3.4c0,0.4,0,0.9-0.1,1.3c-0.1,0.3-0.3,0.5-0.5,0.5c-0.4,0.1-0.8,0.1-1.3,0.1h-3.4
	c-0.4,0-0.9,0-1.3-0.1c-0.3-0.1-0.5-0.3-0.5-0.5C24,17.5,24,17.1,24,16.6V13.3z"/>
<path class="st0" d="M5.2,21.4c0-0.3,0-0.7,0.1-1C5.4,20.2,5.5,20,5.7,20c0.4,0,0.7,0,0.9,0H7c0.5,0,1,0,1.4-0.1s0.8-0.5,0.9-0.9
	c0.1-0.6,0.2-1.3,0.1-1.9h0.1c0-0.3,0-0.7,0.1-1c0.1-0.2,0.2-0.4,0.4-0.4c0.3-0.1,0.7-0.1,1-0.1h1.3c0.3,0,0.7,0,1,0.1
	c0.2,0.1,0.4,0.3,0.4,0.5c0.1,0.3,0.1,0.7,0.1,1v0.2c0,0.6,0,1.1,0.2,1.6c0.1,0.4,0.5,0.8,0.9,0.9s0.8,0.2,1.2,0.1
	c0.4,0,0.8,0,1.2-0.1c0.4-0.1,0.8-0.5,0.9-0.9c0.1-0.7,0.2-1.3,0.1-1.9c0-0.3,0-0.7,0.1-1c0.1-0.2,0.3-0.3,0.5-0.3
	c0.3-0.1,0.7-0.1,1-0.1H21c0.3,0,0.7,0,1,0.1c0.2,0.1,0.4,0.2,0.4,0.4c0.1,0.3,0.1,0.7,0.1,1v0.2c0,0.6,0,1.2,0.2,1.6
	c0.1,0.4,0.4,0.7,0.8,0.8c0.7,0.1,1.3,0.2,1.9,0.1c0.3,0,0.7,0,1,0.1c0.2,0.1,0.4,0.2,0.4,0.4c0,0.3,0.1,0.7,0,1v1.3
	c0,0.3,0,0.7-0.1,1c-0.1,0.2-0.2,0.4-0.4,0.4c-0.3,0.1-0.7,0.1-1,0.1H24c-0.3,0-0.7,0-1-0.1c-0.2-0.1-0.4-0.2-0.4-0.4
	c-0.1-0.3-0.1-0.7-0.1-1c0-0.6,0-1.2-0.2-1.7c-0.1-0.4-0.5-0.8-0.9-0.9c-0.4,0-0.8,0-1.2,0s-0.8,0-1.2,0.2c-0.4,0.1-0.7,0.4-0.9,0.8
	c-0.1,0.4-0.1,1-0.1,1.6v0.1c0,0.3,0,0.7-0.1,1c-0.1,0.2-0.2,0.4-0.4,0.4c-0.3,0.1-0.7,0.1-1,0.1h-1.3c-0.3,0-0.7,0-1-0.1
	c-0.2-0.1-0.4-0.2-0.4-0.4c-0.1-0.3-0.1-0.7-0.1-1c0-0.6,0-1.2-0.2-1.7c-0.1-0.4-0.5-0.8-0.9-0.9C12.4,20,12,20,11.7,20
	s-0.8,0-1.2,0.1S9.7,20.6,9.6,21c-0.1,0.6-0.1,1.2-0.1,1.6v0.2c0,0.3,0,0.7-0.1,1c-0.1,0.2-0.3,0.4-0.5,0.4c-0.3,0.1-0.7,0.1-1,0.1
	H6.6c-0.3,0-0.7,0-1-0.1c-0.2-0.1-0.4-0.2-0.4-0.4c-0.1-0.3-0.1-0.7-0.1-1L5.2,21.4L5.2,21.4z"/>
<path class="st0" d="M30.8,28.1c0,0.2-0.2,0.4-0.4,0.4H5.6c-0.2,0-0.4-0.2-0.4-0.4v-1.5c0-0.2,0.2-0.4,0.4-0.4h24.9
	c0.2,0,0.4,0.2,0.4,0.4C30.8,26.6,30.8,28.1,30.8,28.1z"/>
<path class="st0" d="M37,18.6c0,0.3,0,0.7-0.1,1c-0.1,0.2-0.2,0.4-0.4,0.4c-0.4,0-0.7,0-1,0c-0.6,0-1.2,0-1.7,0.1
	c-0.4,0.1-0.8,0.5-0.9,0.9c-0.1,0.4-0.2,0.8-0.2,1.2c0,0.4,0,0.8,0.2,1.2c0.1,0.4,0.5,0.8,0.9,0.9c0.6,0.1,1.1,0.2,1.6,0.1h0.1
	c0.3,0,0.7,0,1,0.1c0.2,0.1,0.4,0.2,0.4,0.4c0.1,0.3,0.1,0.7,0.1,1V27c0,0.3,0,0.7-0.1,1c-0.1,0.2-0.2,0.4-0.4,0.4
	c-0.3,0.1-0.7,0.1-1,0.1h-1.3c-0.3,0-0.7,0-1-0.1c-0.2-0.1-0.4-0.2-0.4-0.4c-0.1-0.3-0.1-0.7-0.1-1v-0.3c0-0.5,0-1-0.2-1.4
	c-0.1-0.4-0.5-0.8-0.9-0.9c-0.6-0.1-1.2-0.2-1.7-0.2c-0.3,0-0.7,0-1-0.1c-0.2-0.1-0.4-0.2-0.4-0.4c-0.1-0.3-0.1-0.7-0.1-1v-1.3
	c0-0.3,0-0.7,0.1-1c0.1-0.2,0.2-0.4,0.4-0.4c0.3-0.1,0.7-0.1,1-0.1h0.2c0.6,0,1.1,0,1.6-0.1c0.4-0.1,0.8-0.5,0.9-0.9
	c0.1-0.6,0.2-1.3,0.2-1.8c0-0.3,0-0.7,0.1-1c0.1,0,0.1-0.1,0.3-0.1c0.3-0.1,0.7-0.1,1-0.1h1.3c0.3,0,0.7,0,1,0.1
	c0.2,0.1,0.4,0.2,0.4,0.4c0.1,0.3,0.1,0.7,0.1,1C37,17.3,37,18.6,37,18.6z"/>
</svg>
