<?xml version="1.0" encoding="utf-8"?>
<!-- Generator: Adobe Illustrator 19.2.1, SVG Export Plug-In . SVG Version: 6.00 Build 0)  -->
<svg version="1.1" id="Layer_1" xmlns="http://www.w3.org/2000/svg" xmlns:xlink="http://www.w3.org/1999/xlink" x="0px" y="0px"
	 viewBox="0 0 42 42" style="enable-background:new 0 0 42 42;" xml:space="preserve">
<style type="text/css">
	.st0{fill:#A3A2A2;}
</style>
<title>ui</title>
<path class="st0" d="M0,0v42h42V0H0z M24.1,13c0-0.4,0-0.9,0.1-1.3c0.1-0.3,0.3-0.5,0.5-0.5c0.4-0.1,0.8-0.1,1.3-0.1h3.5
	c0.4,0,0.9,0,1.3,0.1c0.3,0.1,0.5,0.3,0.5,0.5c0.1,0.4,0.1,0.8,0.1,1.3v3.5c0,0.4,0,0.9-0.1,1.3c-0.1,0.3-0.3,0.5-0.5,0.5
	c-0.4,0.1-0.8,0.1-1.3,0.1H26c-0.4,0-0.9,0-1.3-0.1c-0.3-0.1-0.5-0.3-0.5-0.5c-0.1-0.4-0.1-0.8-0.1-1.3V13z M4.6,21.5
	c0-0.3,0-0.7,0.1-1c0.1-0.2,0.2-0.4,0.4-0.4C5.5,20,5.8,20,6.1,20h0.4c0.5,0,1,0,1.5-0.1c0.4-0.1,0.8-0.5,0.9-0.9
	C9,18.4,9.1,17.7,9,17h0.1c0-0.3,0-0.7,0.1-1c0.1-0.2,0.2-0.4,0.4-0.4c0.3-0.1,0.7-0.1,1-0.1H12c0.3,0,0.7,0,1,0.1
	c0.2,0.1,0.4,0.3,0.4,0.5c0.1,0.3,0.1,0.7,0.1,1v0.2c0,0.6,0,1.1,0.2,1.7c0.1,0.4,0.5,0.8,0.9,0.9c0.4,0.1,0.8,0.2,1.2,0.1
	c0.4,0,0.8,0,1.2-0.1c0.4-0.1,0.8-0.5,0.9-0.9c0.1-0.7,0.2-1.3,0.1-2c0-0.3,0-0.7,0.1-1c0.1-0.2,0.3-0.3,0.5-0.3
	c0.3-0.1,0.7-0.1,1-0.1h1.4c0.3,0,0.7,0,1,0.1c0.2,0.1,0.4,0.2,0.4,0.4c0.1,0.3,0.1,0.7,0.1,1v0.2c0,0.6,0,1.2,0.2,1.7
	c0.1,0.4,0.4,0.7,0.8,0.8c0.7,0.1,1.3,0.2,2,0.1c0.3,0,0.7,0,1,0.1c0.2,0.1,0.4,0.2,0.4,0.4c0,0.3,0.1,0.7,0,1v1.3
	c0,0.3,0,0.7-0.1,1c-0.1,0.2-0.2,0.4-0.4,0.4c-0.3,0.1-0.7,0.1-1,0.1H24c-0.3,0-0.7,0-1-0.1c-0.2-0.1-0.4-0.2-0.4-0.4
	c-0.1-0.3-0.1-0.7-0.1-1c0-0.6,0-1.2-0.2-1.8c-0.1-0.4-0.5-0.8-0.9-0.9C21,20,20.6,20,20.2,20c-0.4,0-0.8,0-1.2,0.2
	c-0.4,0.1-0.7,0.4-0.9,0.8c-0.2,0.6-0.2,1.2-0.2,1.8v0.1c0,0.3,0,0.7-0.1,1c-0.1,0.2-0.2,0.4-0.4,0.4c-0.3,0.1-0.7,0.1-1,0.1H15
	c-0.3,0-0.7,0-1-0.1c-0.2-0.1-0.4-0.2-0.4-0.4c-0.1-0.3-0.1-0.7-0.1-1c0-0.6,0-1.2-0.2-1.8c-0.1-0.4-0.5-0.8-0.9-0.9
	C12.1,20,11.7,20,11.3,20c-0.4,0-0.8,0-1.2,0.1c-0.4,0.1-0.8,0.5-0.9,0.9c-0.1,0.6-0.1,1.2-0.1,1.7v0.2c0,0.3,0,0.7-0.1,1
	c-0.1,0.2-0.3,0.4-0.5,0.4c-0.3,0.1-0.7,0.1-1,0.1H6.1c-0.3,0-0.7,0-1-0.1c-0.2-0.1-0.4-0.2-0.4-0.4c-0.1-0.3-0.1-0.7-0.1-1V21.5z
	 M31.2,28.4c0,0.2-0.2,0.4-0.4,0.4H5c-0.2,0-0.4-0.2-0.4-0.4v-1.6c0-0.2,0.2-0.4,0.4-0.4h25.8c0.2,0,0.4,0.2,0.4,0.4V28.4z
	 M37.6,18.5c0,0.3,0,0.7-0.1,1c-0.1,0.2-0.2,0.4-0.4,0.4C36.7,20,36.4,20,36,20c-0.6,0-1.2,0-1.8,0.1c-0.4,0.1-0.8,0.5-0.9,0.9
	c-0.1,0.4-0.2,0.8-0.2,1.2c0,0.4,0,0.8,0.2,1.2c0.1,0.4,0.5,0.8,0.9,0.9c0.6,0.1,1.1,0.2,1.7,0.1H36c0.3,0,0.7,0,1,0.1
	c0.2,0.1,0.4,0.2,0.4,0.4c0.1,0.3,0.1,0.7,0.1,1v1.4c0,0.3,0,0.7-0.1,1c-0.1,0.2-0.2,0.4-0.4,0.4c-0.3,0.1-0.7,0.1-1,0.1h-1.4
	c-0.3,0-0.7,0-1-0.1c-0.2-0.1-0.4-0.2-0.4-0.4c-0.1-0.3-0.1-0.7-0.1-1V27c0-0.5,0-1-0.2-1.5c-0.1-0.4-0.5-0.8-0.9-0.9
	c-0.6-0.1-1.2-0.2-1.8-0.2c-0.3,0-0.7,0-1-0.1c-0.2-0.1-0.4-0.2-0.4-0.4c-0.1-0.3-0.1-0.7-0.1-1v-1.3c0-0.3,0-0.7,0.1-1
	c0.1-0.2,0.2-0.4,0.4-0.4c0.3-0.1,0.7-0.1,1-0.1h0.2c0.6,0,1.1,0,1.7-0.1c0.4-0.1,0.8-0.5,0.9-0.9c0.1-0.6,0.2-1.3,0.2-1.9
	c0-0.3,0-0.7,0.1-1c0.1-0.2,0.2-0.4,0.4-0.4c0.3-0.1,0.7-0.1,1-0.1h1.4c0.3,0,0.7,0,1,0.1c0.2,0.1,0.4,0.2,0.4,0.4
	c0.1,0.3,0.1,0.7,0.1,1V18.5z"/>
</svg>
