<svg class="partners-logo brand-logo"
     width="112px"
     height="57px"
     viewBox="0 0 112 57"
     version="1.1"
     xmlns="http://www.w3.org/2000/svg">
    <title>Vonage Logo Color</title>
    <defs>
        <polygon id="path-1"
                 points="0.0164715543 0.0361290323 19.3277677 0.0361290323 19.3277677 24.633425 0.0164715543 24.633425"></polygon>
        <polygon id="path-3"
                 points="0 0.0361290323 10.8936752 0.0361290323 10.8936752 18.098576 0 18.098576"></polygon>
        <polygon id="path-5"
                 points="0.060113783 0.0523706745 8.4983695 0.0523706745 8.4983695 11.807444 0.060113783 11.807444"></polygon>
    </defs>
    <g id="Vonage-Logo" stroke="none" stroke-width="1" fill-rule="evenodd">
        <g id="Group-20-Copy" transform="translate(0.000000, 16)">
            <g id="Group-3" transform="translate(8.950147, 0.045982)">
                <mask id="mask-2">
                    <use xlink:href="#path-1"></use>
                </mask>
                <g id="Clip-2-vonage"></g>
                <path d="M19.3277677,0.03611261 C18.6530581,1.54934428 17.9786768,3.06265806 17.3036387,4.5756434 C15.1711226,9.3550217 13.0461607,14.1377666 10.9009173,18.9113971 C10.2851636,20.2815906 9.58754487,21.6128633 8.64392023,22.7954323 C8.00205513,23.5997959 7.25204927,24.265227 6.21728094,24.5168985 C5.96060059,24.5793032 5.69258886,24.6258604 5.42950381,24.6272563 C3.69908739,24.6370276 1.96858886,24.6324293 0.238090323,24.6317724 C0.181597654,24.6317724 0.125187097,24.6234792 0.0164715543,24.6151038 C0.0860199413,24.5768399 0.105562463,24.5587754 0.127486217,24.5550804 C1.19255367,24.3771449 2.00890557,23.7852856 2.70562111,23.0010393 C3.53289384,22.0695672 4.18740411,21.0180481 4.71275308,19.8980481 C5.75138065,17.683749 6.75749208,15.4540129 7.75522815,13.2209924 C9.70660645,8.85381349 11.6429584,4.47998358 13.5856328,0.108945455 C13.5967179,0.0840656891 13.6104305,0.0603354839 13.6229114,0.03611261 L19.3277677,0.03611261 Z"
                      id="Fill-1" mask="url(#mask-2)"></path>
            </g>
            <g id="Group-6" transform="translate(0.000000, 0.045982)">
                <mask id="mask-4">
                    <use xlink:href="#path-3"></use>
                </mask>
                <g id="Clip-5"></g>
                <path d="M5.58171378,0.03611261 C6.64784868,2.39566686 7.71431202,4.755139 8.77995425,7.11485748 C9.46714487,8.63662874 10.1512974,10.1597959 10.8426757,11.6795965 C10.9073795,11.8218956 10.9124704,11.9346346 10.8466991,12.0810393 C9.97557889,14.0205114 9.11275191,15.9635965 8.2440129,17.9041361 C8.21108622,17.9777079 8.14005982,18.0341185 8.0867695,18.098576 C8.03372551,18.0338721 7.96310968,17.9769689 7.9302651,17.9033971 C5.30089267,11.9999132 2.67431202,6.09511554 0.0483882698,0.190071554 C0.0267108504,0.141215249 0.0158721408,0.0875143695 -5.74780059e-05,0.03611261 L5.58171378,0.03611261 Z"
                      id="Fill-4" mask="url(#mask-4)"></path>
            </g>
            <path d="M73.8413372,15.0588598 L73.8413372,6.50407977 L75.9114487,6.50407977 L75.9114487,18.2722088 L74.9860528,18.2722088 C74.5415015,18.2722088 74.096868,18.2666252 73.6524809,18.2755754 C73.5193783,18.2782029 73.4456422,18.2336164 73.3720704,18.1244903 C71.5211965,15.379505 69.6662991,12.6372293 67.8119765,9.89454311 C67.7786393,9.84527625 67.7432493,9.79740528 67.6665572,9.75240821 L67.6665572,9.98289501 C67.6665572,12.6607132 67.6640938,15.3386135 67.6714018,18.0165138 C67.6719765,18.2239273 67.6209853,18.283376 67.4110264,18.2774639 C66.8575132,18.2619449 66.3031789,18.2670358 65.7493372,18.2754933 C65.5950499,18.2778577 65.5526802,18.2300035 65.5526802,18.0777689 C65.5565396,14.2795402 65.5565396,10.4812293 65.5526802,6.6830827 C65.5526802,6.5301912 65.5960352,6.48412669 65.7497478,6.48576891 C66.4403871,6.49324106 67.1312727,6.49455484 67.821912,6.48472104 C67.9805513,6.48256657 68.0656188,6.53922346 68.1504399,6.66600352 C69.9917889,9.41722933 71.8374076,12.1657455 73.6825337,14.9145079 C73.7191554,14.969112 73.7597185,15.0211707 73.7984751,15.0743789 C73.8127625,15.0692059 73.8270499,15.0640328 73.8413372,15.0588598"
                  id="Fill-7"></path>
            <path d="M101.357487,18.2716258 C100.76374,18.2716258 100.190355,18.2749924 99.6172176,18.2644821 C99.5763261,18.2637431 99.504068,18.1622534 99.5028364,18.1062534 C99.4931472,17.6761537 99.4978276,17.2457255 99.4969243,16.8153795 C99.4967601,16.7503472 99.490766,16.6852328 99.485593,16.582922 C99.3396809,16.7729279 99.2252997,16.938793 99.0940856,17.0901243 C98.4000798,17.8901361 97.5048188,18.3258194 96.4711179,18.4704997 C95.1805724,18.6510628 93.9342029,18.4948868 92.7824258,17.8485877 C91.322156,17.0291977 90.4621208,15.7596727 90.1243965,14.1440481 C89.7796106,12.4943472 89.8811824,10.867966 90.5983437,9.32205396 C91.3632938,7.67317419 92.6893114,6.71156716 94.4547894,6.36497478 C95.8516692,6.09080469 97.2327015,6.16092786 98.5391765,6.78489267 C99.8963144,7.43308035 100.770309,8.48427097 101.095552,9.96728563 C101.100971,9.99232962 101.103024,10.0181126 101.110907,10.0732094 L100.77737,10.0732094 C100.223446,10.0732094 99.6694405,10.0769865 99.1156809,10.068529 C99.0458862,10.0673795 98.9361853,10.0187695 98.9137689,9.96408328 C98.5376164,9.04657009 97.830637,8.52048211 96.8939097,8.30452903 C95.7885255,8.04973724 94.7167249,8.15590733 93.7406663,8.7774088 C92.9111765,9.30554956 92.4528305,10.1018663 92.2422968,11.0385114 C91.9811824,12.2005525 91.9907894,13.3574205 92.4720446,14.4704411 C93.0948598,15.9105114 94.5196575,16.7213619 96.0817455,16.5314381 C97.4687718,16.3627812 98.4687249,15.6575261 99.0137806,14.3557314 C99.0985196,14.1533267 99.1312,13.9292446 99.1970534,13.6807754 L98.9092528,13.6807754 C97.8902499,13.6807754 96.871329,13.676834 95.8524903,13.6845525 C95.6794815,13.6858663 95.6325959,13.6329044 95.6357982,13.4646581 C95.6458158,12.9469455 95.6394933,12.4289865 95.6394933,11.8945232 L101.357487,11.8945232 L101.357487,18.2716258 Z"
                  id="Fill-9"></path>
            <path d="M61.5775015,12.4047472 C61.5180528,11.9465654 61.493912,11.4803367 61.3922581,11.0316798 C61.1216188,9.83761525 60.4688328,8.93053021 59.2998944,8.4624129 C58.5801056,8.17411965 57.8273079,8.12542757 57.0648211,8.23430733 C55.7053842,8.42850088 54.7446804,9.14968563 54.2591554,10.4399848 C53.8175601,11.6134393 53.8123871,12.8188352 54.1525748,14.0164305 C54.4382405,15.0220493 55.0377361,15.7927472 56.0102639,16.2315507 C56.7855601,16.5814276 57.6024868,16.6440786 58.4353431,16.5233748 C59.5655249,16.3596446 60.4396833,15.8056387 60.9963167,14.7940258 C61.4044106,14.0524774 61.5416188,13.2458147 61.5775015,12.4047472 M57.7400235,18.5796094 C56.649173,18.5455331 55.612434,18.3423073 54.6531261,17.8264012 C53.4006804,17.1530053 52.5725044,16.1154452 52.1542287,14.767668 C51.6177947,13.0393865 51.6291261,11.3061783 52.2941466,9.61460059 C53.0052317,7.80568563 54.3783812,6.75047155 56.2634956,6.36635425 C57.4580528,6.12297595 58.6569619,6.15754487 59.8282815,6.5246651 C61.4549912,7.03457713 62.6122698,8.07952727 63.2002698,9.67889384 C63.9116012,11.6136856 63.8921408,13.561451 63.0408094,15.4532164 C62.3284106,17.0360786 61.0541232,17.9719848 59.3775718,18.3537208 C58.8422874,18.4755742 58.286393,18.5068587 57.7400235,18.5796094"
                  id="Fill-11"></path>
            <g id="Group-15" transform="translate(103.460411, 6.450674)">
                <mask id="mask-6">
                    <use xlink:href="#path-5"></use>
                </mask>
                <g id="Clip-14"></g>
                <polygon id="Fill-13" mask="url(#mask-6)"
                         points="2.15584399 9.82625924 8.49484692 9.82625924 8.49484692 11.807444 0.060113783 11.807444 0.060113783 0.0523706745 8.49837771 0.0523706745 8.49837771 2.01852903 2.15584399 2.01852903 2.15584399 4.77394252 8.00349208 4.77394252 8.00349208 6.75151437 2.15584399 6.75151437"></polygon>
            </g>
            <path d="M85.6134979,13.4382018 C84.9278674,11.8297208 84.2516798,10.24341 83.5754921,8.65709912 C83.5545537,8.65816657 83.5336152,8.65923402 83.5126768,8.66030147 C82.8367355,10.2467765 82.1607941,11.8334158 81.4770522,13.4382018 L85.6134979,13.4382018 Z M77.1879613,18.2745654 C77.4324891,17.7118557 77.6649466,17.1759965 77.8981431,16.6403015 C79.1298147,13.8111519 80.3564774,10.9798674 81.5991519,8.15556246 C81.7735566,7.75921056 81.9907413,7.37057713 82.2502956,7.02497009 C82.9265654,6.12470029 84.1753161,6.11583226 84.8369701,7.02784399 C85.1774041,7.49702874 85.4412282,8.0323132 85.6756563,8.5657912 C87.0595625,11.7150111 88.4246651,14.8724422 89.7956798,18.0273279 C89.8276211,18.1006534 89.8542252,18.1764422 89.8904364,18.2696387 C89.8051226,18.2737443 89.7399261,18.2794921 89.6747296,18.2795742 C89.0799144,18.2803132 88.4848528,18.2716094 87.890366,18.2852399 C87.7208059,18.2891812 87.6537208,18.224888 87.5941079,18.082671 C87.2467765,17.2536739 86.8886065,16.4292751 86.541193,15.6003601 C86.485932,15.4684891 86.4164657,15.421193 86.2703894,15.4216035 C84.4517032,15.4270229 82.6329349,15.427105 80.8141666,15.4214393 C80.6645595,15.4209466 80.6012516,15.4753865 80.5466475,15.6056152 C80.201451,16.4285361 79.8479613,17.2480082 79.4968528,18.0685478 C79.4674569,18.1371109 79.435105,18.2043601 79.4030815,18.2745654 L77.1879613,18.2745654 Z"
                  id="Fill-16"></path>
            <path d="M51.5694065,6.52159413 C51.3091132,7.09686686 51.0572774,7.65538886 50.8038815,8.21317185 C49.5468375,10.9804094 48.2971836,13.7510956 47.0243742,16.5111894 C46.8123625,16.9709314 46.5424622,17.419424 46.2229666,17.8109314 C45.5856997,18.5920575 44.389254,18.6150487 43.6719284,17.9051132 C43.2715531,17.5089255 43.0155296,17.0174886 42.7862745,16.5138991 C41.2867554,13.2205736 39.7922452,9.92503109 38.2964211,6.63006334 C38.2802452,6.59450909 38.2685032,6.55698416 38.2429666,6.48899589 L38.728163,6.48899589 C39.2958815,6.48899589 39.8636821,6.49630381 40.4311543,6.48439765 C40.5971836,6.48094897 40.6672246,6.54203988 40.7325032,6.68565279 C42.0769138,9.64503109 43.4266616,12.601946 44.7755883,15.5592716 C44.8090076,15.632515 44.8453009,15.7045267 44.9010545,15.8203859 C44.9556587,15.7212774 44.9966323,15.6572305 45.0278346,15.5887496 C46.1225443,13.1894534 47.2161865,10.7896645 48.3102393,8.38995777 C48.5759519,7.80713079 48.8395296,7.22323636 49.1127144,6.64394018 C49.143424,6.5787437 49.2299695,6.49663226 49.2915531,6.49581114 C50.0232481,6.48628622 50.7551073,6.49055601 51.4869666,6.49228035 C51.504949,6.49236246 51.5230135,6.50459707 51.5694065,6.52159413"
                  id="Fill-18"></path>
        </g>
    </g>
</svg>