<svg version="1.1" id="Layer_1" xmlns="http://www.w3.org/2000/svg" x="0" y="0" viewBox="0 0 165 109" xml:space="preserve"><style>.st41{fill:#7d878f}</style><path d="M72.5 64.4c-.3 0-.7-.1-1-.2-.4-.1-.7-.2-1.1-.3-3.9-1-6.8-3.3-8.6-6.9-.2-.3-.3-.4-.6-.3-6.2.7-12.3-3.8-13.3-10-.8-5.3.9-9.8 4.7-13.5.3-.3.4-.5.3-.9-1.1-4.9.1-9.2 3.5-12.9.2-.2.2-.3.2-.6-.2-1.1.2-2.1 1.1-2.7.9-.6 2-.5 2.9.1.2.1.3.2.6.1 5.5-2.1 10.4-.8 14.7 3.1.3.3.6.8.9.8.3 0 .6-.5 1-.8 2.7-2.4 6-2.9 9.6-2.5.9.1 1.9.3 2.7.7.1 0 .2.1.3.1.4.2.6.6.5.9-.1.4-.5.6-1 .4-1 0-1.9-.3-2.9-.4-3.4-.4-6.6.2-9.1 2.7-.1.1-.3.2-.1.5 2.3 3.1 4.3 6.4 6.2 9.7 0 .1.1.2.2.3.7-.6 1.3-1.3 2-1.9l2.4-2.1c.5-.4.9-.4 1.2 0 .4.4.1 1-.7 1.5-1.7.9-3.2 2.1-4 3.9v.4c1.8 3.2 3.3 6.4 4.9 9.6 1.3 2.5 3 4.8 5.3 6.5.7.5 1.4.9 2.2 1.2 1.4.6 1.8.9 2.2.3 1-1.7 1.5-3.5 1.6-5.5.1-4.4-1-8.6-2.3-12.7-.2-.5-.3-.9-.5-1.4-.1-.4.1-.8.4-.9.4-.1.8.1.9.5 1.5 4.2 2.7 8.5 2.9 13 .1 2.6-.2 5.1-1.5 7.4-.2.4.2.3.3.3 1.3 0 2.5-.1 3.8-.4 5.6-1.5 9.7-6.2 10.5-11.9 1-7.4-4.2-14.5-11.6-15.7-.2 0-.4-.1-.6-.1-.4-.1-.7-.4-.6-.8.1-.4.4-.7.9-.6 1.3.2 2.6.5 3.8 1 5.7 2.6 9 6.9 9.6 13.2.8 8.1-5 15.3-13 16.7-1.2.2-2.5.2-3.8.1-.3 0-.4 0-.6.2-2.3 2.7-5.3 4.3-8.9 4.6-1.5.2-3 0-4.5-.1-.2 0-.5 0-.7-.1-.2 0-.3.1-.4.2-2 3.7-5.2 5.6-9.3 6.3-.1-.2-1.9 0-3.6-.1zM54.2 32c.3-.1.4-.2.6-.3 1.3-.8 2.7-1.3 4.2-1.5 3-.4 6.1-.3 9.1.4.2.1.4 0 .5-.2 2.1-3 4.4-5.9 6.9-8.6.2-.2.2-.4 0-.6-.6-.6-1.2-1.1-1.8-1.6-3.6-2.7-7.4-3.4-11.7-1.9-.3.1-.4.2-.4.5.1 1.9-1.9 3.3-3.7 2.4-.3-.1-.4-.1-.6.1-3 3.3-3.9 7-3.1 11.3zm5.6 23.4h.9c.3 0 .4-.1.3-.4-.4-1.4-.7-2.8-.6-4.2.1-1.7.4-3.5.8-5.1.1-.4 0-.7-.3-1-.7-.7-1.3-1.4-1.9-2.1-2.1-2.4-4.1-4.8-5.3-7.8-.2-.4-.3-.2-.4 0-3 3.2-4.5 6.9-4 11.3.5 5.2 5.2 9.2 10.5 9.3zm12.3-10.5c0-1.7 1.4-2.9 3-2.6.4.1.6 0 .8-.3.8-1.1 1.6-2.1 2.4-3.2.2-.3.6-.6.6-.9 0-.3-.5-.5-.7-.8-2.5-2.3-5.5-3.8-8.7-4.8-.2-.1-.3-.1-.5.1-2.4 3.7-4.4 7.5-5.8 11.7-.1.3 0 .5.2.7 1.9 1.8 3.9 3.4 6 4.9.3.2.4.1.6-.1.9-1 1.7-2.1 2.5-3.2.2-.2.1-.4 0-.6-.3-.1-.4-.5-.4-.9zM85.3 52c0-1.4-.3-3-.8-4.6-.9-3-2.2-5.7-4.2-8.1-.2-.2-.3-.3-.5 0-.9 1.3-1.9 2.5-2.8 3.7-.1.2-.2.3 0 .6.5 1 .5 1.9-.2 2.8-.6.9-1.6 1.1-2.6.9-.3-.1-.4 0-.5.2-.8 1-1.6 2.1-2.4 3.1-.3.3-.2.4.1.6 4 2.4 8.3 4.1 13 4.9.4.1.5 0 .6-.4.1-1.1.3-2.3.3-3.7zM84 57.5c-4.9-.8-9.4-2.6-13.6-5.1-.6-.4-.6-.4-1.1.2-1.5 1.6-3.2 2.9-5.3 3.6-.9.3-.9.3-.4 1.1 3.3 5.2 9.5 6.9 15.2 4.7 2.3-.8 4-2.3 5.2-4.5zm14.4-4.8c-.9-.3-1.8-.6-2.6-1.1-2.7-1.6-4.7-3.9-6.3-6.5-1.3-2.1-2.2-4.4-3.3-6.6-.7-1.4-1.5-2.8-2.2-4.2-1.1 1.1-2 2.2-2.9 3.4-.1.2 0 .3.1.4 1.9 2.1 3.3 4.6 4.2 7.3 1.3 3.5 2 7 .9 10.7-.1.2 0 .3.2.3.5 0 .9.1 1.4.1 2.7.2 5.2-.1 7.6-1.4 1-.7 2-1.4 2.9-2.4zM70 31c.1.2.3.2.4.2 2.4.8 4.7 1.9 6.8 3.4.9.6 1.6 1.3 2.4 2 .2.1.3.2.5 0 .9-1.2 1.9-2.3 3-3.4.2-.2.2-.3.1-.5-1.9-3.3-3.9-6.5-6-9.6-.2-.3-.4-.4-.7 0-2.2 2.5-4.3 5-6.2 7.7-.2 0-.3.1-.3.2zm-8.3 12.5c.2-.6.4-1 .5-1.5 1.3-3.4 3-6.5 4.9-9.6.2-.3.3-.4-.2-.5-2.1-.4-4.2-.5-6.4-.4-2 .1-3.9.6-5.6 1.7-.3.2-.3.3-.2.6.6 1.6 1.5 3 2.5 4.4 1.5 1.8 2.9 3.6 4.5 5.3zm.8 2.8c-.1.7-.3 1.3-.4 1.9-.4 2.2-.5 4.4.2 6.6.1.3.2.4.6.3 2.2-.6 3.9-2 5.5-3.6.2-.2.1-.3-.1-.4-.7-.5-1.5-1-2.2-1.6-1.2-1-2.4-2.1-3.6-3.2z" fill="#00a0de"/><path class="st41" d="M90.3 24.1c0-3.1 2.5-5.5 5.6-5.5 3 0 5.5 2.5 5.5 5.6 0 2.8-2.2 5.5-5.6 5.5-3.1 0-5.5-2.5-5.5-5.6zm5.5 2.5c1.4 0 2.5-1.1 2.5-2.4 0-1.4-1.1-2.5-2.5-2.5s-2.5 1.1-2.5 2.5c.1 1.3 1.1 2.4 2.5 2.4z"/><g><path class="st41" d="M55.5 93.5c-1.4 0-2.6-.5-3.6-1.5-.9-1-1.4-2.2-1.4-3.8 0-1.5.5-2.7 1.4-3.7.9-1 2.1-1.5 3.5-1.5 1.5 0 2.6.5 3.5 1.4.9.9 1.3 2.3 1.3 4v.2h-7.7c0 1 .3 1.7 1 2.3.6.6 1.4.9 2.2.9 1.2 0 2.1-.6 2.8-1.8l1.6.8c-.4.8-1.1 1.5-1.8 1.9-.9.6-1.8.8-2.8.8zm-3-6.4h5.6c-.1-.7-.3-1.2-.8-1.7-.5-.4-1.2-.7-2-.7-.7 0-1.3.2-1.8.6-.5.5-.8 1.1-1 1.8zM64.2 80c0 .4-.1.7-.4.9-.3.3-.6.4-.9.4-.4 0-.7-.1-.9-.4-.3-.3-.4-.6-.4-.9 0-.4.1-.7.4-.9.3-.3.6-.4.9-.4.4 0 .7.1.9.4.3.2.4.5.4.9zm-.4 3.4v9.8H62v-9.8h1.8zM66.3 83.4H68v1.4h.1c.3-.5.7-.9 1.3-1.2.6-.3 1.2-.5 1.8-.5 1.2 0 2.1.3 2.8 1 .6.7 1 1.7 1 2.9v6.2h-1.8v-6.1c0-1.6-.9-2.4-2.4-2.4-.7 0-1.4.3-1.8.9-.5.6-.7 1.3-.7 2.1v5.4h-1.8v-9.7zM84.6 90.5c0 .9-.4 1.6-1.1 2.2-.8.6-1.7.9-2.8.9-1 0-1.9-.3-2.6-.8-.8-.5-1.3-1.2-1.6-2l1.6-.7c.2.6.6 1 1.1 1.4.5.3 1 .5 1.5.5.6 0 1.1-.1 1.5-.4.4-.3.6-.6.6-.9 0-.6-.5-1.1-1.4-1.4l-1.7-.4c-1.9-.5-2.9-1.4-2.9-2.8 0-.9.4-1.6 1.1-2.2.7-.5 1.7-.8 2.8-.8.9 0 1.7.2 2.4.6.7.4 1.2 1 1.5 1.7l-1.8.6c-.2-.4-.5-.7-.9-1-.4-.2-.9-.4-1.4-.4-.5 0-.9.1-1.3.4-.4.2-.6.5-.6.9 0 .6.5 1 1.6 1.2l1.5.4c1.9.5 2.9 1.5 2.9 3zM90 93.4c-.8 0-1.5-.2-2-.7-.5-.5-.8-1.2-.8-2.1v-5.5h-1.7v-1.7h1.7v-3H89v3h2.4v1.7H89V90c0 .7.1 1.1.4 1.3.3.2.5.4.9.4.1 0 .3 0 .4-.1.1 0 .3-.1.4-.1l.6 1.6c-.5.2-1.1.3-1.7.3zM97.5 93.5c-1.4 0-2.6-.5-3.6-1.5-.9-1-1.4-2.2-1.4-3.8 0-1.5.5-2.7 1.4-3.7.9-1 2.1-1.5 3.5-1.5 1.5 0 2.6.5 3.5 1.4.9.9 1.3 2.3 1.3 4v.2h-7.7c0 1 .3 1.7 1 2.3.6.6 1.4.9 2.2.9 1.2 0 2.1-.6 2.8-1.8l1.6.8c-.4.8-1.1 1.5-1.8 1.9-.9.6-1.8.8-2.8.8zm-2.9-6.4h5.6c-.1-.7-.3-1.2-.8-1.7-.5-.4-1.2-.7-2-.7-.7 0-1.3.2-1.8.6-.5.5-.9 1.1-1 1.8zM106.3 80c0 .4-.1.7-.4.9-.3.3-.6.4-.9.4s-.7-.1-.9-.4c-.3-.3-.4-.6-.4-.9 0-.4.1-.7.4-.9.3-.3.6-.4.9-.4s.7.1.9.4c.2.2.4.5.4.9zm-.4 3.4v9.8H104v-9.8h1.9zM108.3 83.4h1.8v1.4h.1c.3-.5.7-.9 1.3-1.2.6-.3 1.2-.5 1.8-.5 1.2 0 2.1.3 2.8 1 .6.7 1 1.7 1 2.9v6.2h-1.8v-6.1c0-1.6-.9-2.4-2.4-2.4-.7 0-1.4.3-1.8.9-.5.6-.7 1.3-.7 2.1v5.4h-1.8v-9.7z"/></g></svg>