<?xml version="1.0" encoding="utf-8"?>
<!-- Generator: Adobe Illustrator 23.0.3, SVG Export Plug-In . SVG Version: 6.00 Build 0)  -->
<svg version="1.1" id="Layer_1" xmlns="http://www.w3.org/2000/svg" xmlns:xlink="http://www.w3.org/1999/xlink" x="0px" y="0px"
	 viewBox="0 0 487.3 328.4" style="enable-background:new 0 0 487.3 328.4;" xml:space="preserve">
<style type="text/css">
	.st0{fill:#FFFFFF;stroke:#FFFFFF;stroke-width:0.25;stroke-miterlimit:10;}
	.st1{fill:none;stroke:#FFFFFF;stroke-miterlimit:10;}
	.st2{fill:#FFFFFF;stroke:#FFFFFF;stroke-miterlimit:10;}
	.st3{fill:#C14736;}
	.st4{fill:#E26F66;}
	.st5{fill:#F1563C;}
	.st6{fill:#FFFFFF;}
</style>
<symbol  id="calendar" viewBox="-36.8 -40.8 73.7 81.7">
	<path class="st0" d="M-13.2-14.6h-9c-0.6,0-1,0.4-1,1v9c0,0.6,0.4,1,1,1h9c0.6,0,1-0.4,1-1v-9C-12.2-14.2-12.7-14.6-13.2-14.6z
		 M-21.2-12.6h7v7h-7V-12.6z"/>
	<path class="st0" d="M4.5-14.6h-9c-0.6,0-1,0.4-1,1v9c0,0.6,0.4,1,1,1h9c0.6,0,1-0.4,1-1v-9C5.5-14.2,5-14.6,4.5-14.6z M-3.5-12.6
		h7v7h-7V-12.6z"/>
	<g>
		<path class="st1" d="M17.7,19.7h-9c-0.6,0-1,0.4-1,1V29H-7.7v-8.3c0-0.6-0.4-1-1-1h-9c-0.6,0-1,0.4-1,1V29H-27
			c-4,0-7.3-3.3-7.3-7.3v-5.5V9.6c0-2.2,1.8-4,4-4h60.6c2.2,0,4,1.8,4,4v6.5v5.5c0,4-3.3,7.3-7.3,7.3h-8.3v-8.3
			C18.7,20.1,18.3,19.7,17.7,19.7z"/>
		<path class="st1" d="M-30.3,3.6c-1.6,0-3,0.6-4,1.6V-31c0-4,3.3-7.3,7.3-7.3h54c4,0,7.3,3.3,7.3,7.3V5.1c-1.1-1-2.5-1.6-4-1.6
			H-30.3z"/>
		<path class="st2" d="M27,31h-8.3v8.3c0,0.6-0.4,1-1,1h-9c-0.6,0-1-0.4-1-1V31H-7.7v8.3c0,0.6-0.4,1-1,1h-9c-0.6,0-1-0.4-1-1V31
			H-27c-5.1,0-9.3-4.2-9.3-9.3v-5.5V9.6V-31c0-5.1,4.2-9.3,9.3-9.3h54c5.1,0,9.3,4.2,9.3,9.3V9.6v6.5v5.5C36.3,26.8,32.1,31,27,31z
			 M9.8,29v2v7.3h7V31v-2v-7.3h-7V29z M-16.7,29v2v7.3h7V31v-2v-7.3h-7V29z M34.3-31c0-4-3.3-7.3-7.3-7.3h-54c-4,0-7.3,3.3-7.3,7.3
			V5.1c1.1-1,2.5-1.6,4-1.6h60.6c1.6,0,3,0.6,4,1.6V-31z M34.3,16.2V9.6c0-2.2-1.8-4-4-4h-60.6c-2.2,0-4,1.8-4,4v6.5v5.5
			c0,4,3.3,7.3,7.3,7.3h8.3v-8.3c0-0.6,0.4-1,1-1h9c0.6,0,1,0.4,1,1V29H7.8v-8.3c0-0.6,0.4-1,1-1h9c0.6,0,1,0.4,1,1V29H27
			c4,0,7.3-3.3,7.3-7.3V16.2z"/>
	</g>
	<path class="st0" d="M22.2-14.6h-9c-0.6,0-1,0.4-1,1v9c0,0.6,0.4,1,1,1h9c0.6,0,1-0.4,1-1v-9C23.2-14.2,22.8-14.6,22.2-14.6z
		 M14.2-12.6h7v7h-7V-12.6z"/>
	<path class="st0" d="M-13.2-31h-9c-0.6,0-1,0.4-1,1v9c0,0.6,0.4,1,1,1h9c0.6,0,1-0.4,1-1v-9C-12.2-30.5-12.7-31-13.2-31z M-21.2-29
		h7v7h-7V-29z"/>
	<path class="st0" d="M4.5-31h-9c-0.6,0-1,0.4-1,1v9c0,0.6,0.4,1,1,1h9c0.6,0,1-0.4,1-1v-9C5.5-30.5,5-31,4.5-31z M-3.5-29h7v7h-7
		V-29z"/>
	<path class="st0" d="M22.2-31h-9c-0.6,0-1,0.4-1,1v9c0,0.6,0.4,1,1,1h9c0.6,0,1-0.4,1-1v-9C23.2-30.5,22.8-31,22.2-31z M14.2-29h7
		v7h-7V-29z"/>
</symbol>
<g>
	<g>
		<g>
			<path class="st3" d="M478.8,162.8L268.7,284.4c-16.9,9.8-37.7,9.8-54.6,0L10.6,167.2C3.5,163.1,0,155.9,0,148.8v35.8h0
				c0,7.1,3.6,14.2,10.6,18.3L214,320.1c16.9,9.8,37.7,9.8,54.6,0l210.1-121.6c5.7-3.3,8.5-9,8.5-14.8v-35.4
				C487.2,154,484.4,159.6,478.8,162.8z"/>
			<path class="st4" d="M213.8,285.7L10.3,168.5C2.9,163.2,0,155.9,0,148.8v35.8h0c0,7.1,3.6,14.2,10.6,18.3L214,320.1
				c3.3,1.9,6.7,3.4,10.2,4.6l-0.3-34.4C220.5,289.1,217,287.6,213.8,285.7z"/>
			<path class="st4" d="M239.9,292.9v34.5c5.4,0.1,10.7-0.5,15.9-1.9V291C250.7,292.4,245.3,293,239.9,292.9z"/>
			<g>
				<path class="st5" d="M478.8,130.5L261.8,5.4c-12.5-7.2-27.9-7.2-40.3,0l-210.9,122c-14.1,8.2-14.1,28.6,0,36.7L214,281.4
					c16.9,9.8,37.7,9.8,54.6,0l210.1-121.6C490.1,153.3,490.1,137,478.8,130.5z"/>
			</g>
			<path class="st6" d="M475.2,161.3L267.6,281.4c-7.9,4.6-17,7-26.2,7c-9.2,0-18.3-2.4-26.3-7l-201-115.8
				c-6.1-3.5-13.9-12.2-14-19.2C0.1,147.2,0,148,0,148.8c0,8.6,4.5,16.4,11.9,20.7l201,115.8c8.8,5.1,18.6,7.6,28.5,7.6
				c9.8,0,19.7-2.5,28.4-7.6l207.6-120.1c6.2-3.6,9.8-9.9,9.8-17C487.3,153.7,480,158.6,475.2,161.3z"/>
		</g>
	</g>
	
		<use xlink:href="#calendar"  width="73.7" height="81.7" id="XMLID_2_" x="-36.8" y="-40.8" transform="matrix(2.2128 1.2775 2.2127 -1.2775 248.121 139.6256)" style="overflow:visible;"/>
</g>
</svg>
