<?xml version="1.0" encoding="utf-8"?>
<!-- Generator: Adobe Illustrator 23.0.3, SVG Export Plug-In . SVG Version: 6.00 Build 0)  -->
<svg version="1.1" id="Layer_1" xmlns="http://www.w3.org/2000/svg" xmlns:xlink="http://www.w3.org/1999/xlink" x="0px" y="0px"
	 viewBox="0 0 1288.5 1189.8" style="enable-background:new 0 0 1288.5 1189.8;" xml:space="preserve">
<style type="text/css">
	.st0{fill:#FFFFFF;}
	.st1{opacity:0.2;fill:#727272;}
	.st2{opacity:0.1;fill:#727272;}
	.st3{opacity:0.3;fill:#727272;}
	.st4{fill:#E26F66;}
	.st5{fill:#C14736;}
	.st6{fill:#F1563C;}
	.st7{opacity:0.5;fill:#E2E2E2;}
	.st8{opacity:0.3;fill:#D4ECFF;}
	.st9{fill:url(#SVGID_1_);}
	.st10{fill:url(#SVGID_2_);}
	.st11{fill:url(#SVGID_3_);}
	.st12{fill:#5E5E5E;}
	.st13{fill:url(#SVGID_4_);}
	.st14{fill:url(#SVGID_5_);}
	.st15{fill:none;stroke:#FFFFFF;stroke-width:0.25;stroke-miterlimit:10;}
	.st16{fill:#B8BCFC;}
	.st17{fill:none;stroke:#FFFFFF;stroke-width:0.75;stroke-miterlimit:10;}
	.st18{fill:#ECF3FA;}
	.st19{opacity:0.3;}
	.st20{fill:#727272;}
	.st21{fill:none;stroke:#FFFFFF;stroke-miterlimit:10;}
	.st22{enable-background:new    ;}
	.st23{fill:#E3DEDA;}
	.st24{fill:#DBB391;}
	.st25{fill:#DBD5D1;}
	.st26{fill:#898989;}
	.st27{opacity:0.7;fill:#A17E85;}
	.st28{fill:#CAC1B8;}
	.st29{fill:#F5F1EE;}
	.st30{fill:url(#SVGID_6_);}
	.st31{fill:#ADADAD;}
	.st32{fill:url(#SVGID_7_);}
	.st33{fill:#69544B;}
	.st34{fill:#4E3F38;}
	.st35{fill:#3B2F2A;}
	.st36{fill:url(#SVGID_8_);}
	.st37{fill:#383A35;}
	.st38{fill:url(#SVGID_9_);}
	.st39{fill:url(#SVGID_10_);}
</style>
<symbol  id="calendar" viewBox="-36.8 -40.8 73.7 81.7">
	<g>
		<path class="st0" d="M-22.2-14.8h9c0.6,0,1.1,0.5,1.1,1.1v9c0,0.6-0.5,1.1-1.1,1.1h-9c-0.6,0-1.1-0.5-1.1-1.1v-9
			C-23.3-14.3-22.8-14.8-22.2-14.8z M-21.1-12.5v6.7h6.7v-6.7H-21.1z"/>
		<path class="st0" d="M-4.5-14.8h9c0.6,0,1.1,0.5,1.1,1.1v9c0,0.6-0.5,1.1-1.1,1.1h-9c-0.6,0-1.1-0.5-1.1-1.1v-9
			C-5.6-14.3-5.1-14.8-4.5-14.8z M-3.4-12.5v6.7h6.7v-6.7H-3.4z"/>
		<path class="st0" d="M27,31.5h-7.8v7.8c0,0.8-0.7,1.5-1.5,1.5h-9c-0.8,0-1.5-0.7-1.5-1.5v-7.8H-7.2v7.8c0,0.8-0.7,1.5-1.5,1.5h-9
			c-0.8,0-1.5-0.7-1.5-1.5v-7.8H-27c-5.4,0-9.8-4.4-9.8-9.8V-31c0-5.4,4.4-9.8,9.8-9.8h54c5.4,0,9.8,4.4,9.8,9.8v52.7
			C36.8,27.1,32.4,31.5,27,31.5z M-16.2,22.2v15.6h6V22.2H-16.2z M10.3,22.2v15.6h6V22.2H10.3z M33.8,4.1V-31c0-3.8-3.1-6.8-6.8-6.8
			h-54c-3.8,0-6.8,3.1-6.8,6.8V4.1c1.1-0.7,2.3-1.1,3.5-1.1h60.6C31.6,3.1,32.8,3.5,33.8,4.1z M30.3,6.1h-60.6c-2,0-3.5,1.6-3.5,3.5
			v12c0,3.8,3.1,6.8,6.8,6.8h7.8v-7.8c0-0.8,0.7-1.5,1.5-1.5h9c0.8,0,1.5,0.7,1.5,1.5v7.8H7.3v-7.8c0-0.8,0.7-1.5,1.5-1.5h9
			c0.8,0,1.5,0.7,1.5,1.5v7.8H27c3.8,0,6.8-3.1,6.8-6.8v-12C33.8,7.7,32.2,6.1,30.3,6.1z"/>
		<path class="st0" d="M13.3-14.8h9c0.6,0,1.1,0.5,1.1,1.1v9c0,0.6-0.5,1.1-1.1,1.1h-9c-0.6,0-1.1-0.5-1.1-1.1v-9
			C12.1-14.3,12.6-14.8,13.3-14.8z M14.4-12.5v6.7h6.7v-6.7H14.4z"/>
		<path class="st0" d="M-22.2-31.1h9c0.6,0,1.1,0.5,1.1,1.1v9c0,0.6-0.5,1.1-1.1,1.1h-9c-0.6,0-1.1-0.5-1.1-1.1v-9
			C-23.3-30.6-22.8-31.1-22.2-31.1z M-21.1-28.8v6.7h6.7v-6.7H-21.1z"/>
		<path class="st0" d="M-4.5-31.1h9c0.6,0,1.1,0.5,1.1,1.1v9c0,0.6-0.5,1.1-1.1,1.1h-9c-0.6,0-1.1-0.5-1.1-1.1v-9
			C-5.6-30.6-5.1-31.1-4.5-31.1z M-3.4-28.8v6.7h6.7v-6.7H-3.4z"/>
		<path class="st0" d="M13.3-31.1h9c0.6,0,1.1,0.5,1.1,1.1v9c0,0.6-0.5,1.1-1.1,1.1h-9c-0.6,0-1.1-0.5-1.1-1.1v-9
			C12.1-30.6,12.6-31.1,13.3-31.1z M14.4-28.8v6.7h6.7v-6.7H14.4z"/>
	</g>
</symbol>
<g>
	<g>
		<g>
			<g>
				<path class="st5" d="M1044.8,142.2L861.3,248.4c-14.8,8.5-33,8.5-47.7,0L635.9,146c-6.2-3.6-9.3-9.8-9.3-16v31.2h0
					c0,6.2,3.1,12.4,9.2,15.9l177.7,102.4c14.8,8.5,33,8.5,47.7,0l183.5-106.2c5-2.9,7.4-7.9,7.4-12.9v-30.9
					C1052.2,134.5,1049.7,139.4,1044.8,142.2z"/>
				<path class="st4" d="M813.3,249.5L635.7,147.1c-6.5-4.6-9-10.9-9-17.2v31.2h0c0,6.2,3.1,12.4,9.2,15.9l177.7,102.4
					c2.9,1.7,5.8,3,8.9,4l-0.2-30C819.2,252.5,816.2,251.2,813.3,249.5z"/>
				<path class="st4" d="M836.2,255.8v30.1c4.7,0.1,9.4-0.4,13.9-1.7v-30.1C845.6,255.3,840.9,255.9,836.2,255.8z"/>
				<g>
					<path class="st6" d="M1044.8,113.9L855.3,4.7c-10.9-6.3-24.3-6.3-35.2,0L635.9,111.3c-12.3,7.1-12.4,24.9,0,32.1l177.7,102.4
						c14.8,8.5,33,8.5,47.7,0l183.5-106.2C1054.7,133.9,1054.7,119.6,1044.8,113.9z"/>
				</g>
				<path class="st0" d="M1041.7,140.9L860.4,245.8c-6.9,4-14.8,6.1-22.9,6.1c-8.1,0-16-2.1-22.9-6.1L639,144.6
					c-5.3-3.1-12.2-10.6-12.2-16.7c-0.1,0.7-0.1,1.4-0.1,2.1c0,7.5,3.9,14.3,10.4,18.1l175.5,101.1c7.7,4.4,16.3,6.6,24.9,6.6
					c8.6,0,17.2-2.2,24.8-6.6l181.3-104.9c5.4-3.1,8.6-8.7,8.6-14.9C1052.2,134.2,1045.8,138.5,1041.7,140.9z"/>
			</g>
		</g>
		<g>
			<path class="st0" d="M893.2,142l-21.6-12.4c-18.6-10.7-48.8-10.7-67.3,0c-9.3,5.4-14.5,12.7-14.5,20.6c0,7.9,5.1,15.2,14.5,20.6
				l21.6,12.4c0.7,0.4,1.4,0.8,2.3,1.2c0.4,0.3,0.6,0.5,0.6,0.5l7.2,19.5l14.1-12.5c0.6-0.5,2-1,3.6-0.9c14.6,1,29-1.8,39.4-7.8
				c9.3-5.4,14.5-12.7,14.5-20.6C907.7,154.7,902.6,147.4,893.2,142z M839.9,190.8l-2.9-7.8c-0.6-1.5-1.8-2.9-3.6-3.9
				c-0.2-0.1-0.4-0.2-0.6-0.3c-0.6-0.3-1.2-0.6-1.7-0.9l-21.6-12.4c-7.2-4.2-11.2-9.6-11.2-15.3s4-11.1,11.2-15.3
				c7.8-4.5,18.1-6.8,28.4-6.8c10.3,0,20.6,2.3,28.4,6.8l21.6,12.4c7.2,4.2,11.2,9.6,11.2,15.3s-4,11.1-11.2,15.3
				c-8.7,5-20.9,7.4-33.3,6.6c-4.3-0.3-8.5,0.9-11,3.1L839.9,190.8z"/>
			<path class="st0" d="M912.3,88.3l-65.5-37.8c-11.5-6.6-30.3-6.6-41.8,0l-39.4,22.8c-5.4,3.1-8.6,7.4-9.1,12
				c-0.4,4,1.3,7.9,4.8,11.2c0,0-0.1,0-0.1,0l-21.3,8l42.9,5.3c0.4,0.1,0.8,0.2,1.1,0.3l18.3,10.6l0.9-0.5
				c21.3-10.4,53.4-9.7,73.1,1.7l11.8,6.8l24.4-14.1c5.9-3.4,9.2-8.1,9.2-13.2C921.5,96.4,918.2,91.7,912.3,88.3z M881.5,116.7
				c-11.8-6.8-27.6-10.3-43.5-10.3c-12.3,0-24.6,2.1-35.2,6.4l-13.7-7.9c-1.4-0.8-3.1-1.3-4.9-1.6l-16.8-2.1c1.5-1,2.4-2.4,2.7-3.8
				c0.3-1.8-0.4-3.6-2-5c-2.2-2-3.3-4.3-3.1-6.5c0.3-2.7,2.3-5.3,5.8-7.3l39.4-22.8c8.6-5,22.6-5,31.2,0L907,93.6
				c3.8,2.2,5.9,5,5.9,7.9c0,2.9-2.1,5.7-5.9,7.9l-19.1,11L881.5,116.7z"/>
			<path class="st0" d="M890.4,98.3l-60.9-35.1c-1.5-0.9-3.8-0.9-5.3,0c-1.1,0.6-1.7,1.6-1.7,2.7s0.6,2,1.7,2.7l60.9,35.1
				c0.8,0.4,1.7,0.7,2.6,0.7s1.9-0.2,2.6-0.7c1.1-0.6,1.7-1.6,1.7-2.6C892.1,99.8,891.5,98.9,890.4,98.3z"/>
			<path class="st0" d="M846.8,93.5l-34.9-20.2c-1.5-0.9-3.8-0.9-5.3,0c-1.1,0.6-1.7,1.6-1.7,2.6c0,1.1,0.6,2,1.7,2.7l34.9,20.2
				c0.8,0.4,1.7,0.7,2.6,0.7c0.9,0,1.9-0.2,2.6-0.7c1.1-0.6,1.7-1.6,1.7-2.7C848.5,95.1,847.9,94.1,846.8,93.5z"/>
			<path class="st0" d="M836.9,144.2l34.9,20.2c0.8,0.4,1.7,0.7,2.6,0.7s1.9-0.2,2.6-0.7c1.1-0.6,1.7-1.6,1.7-2.7
				c0-1.1-0.6-2-1.7-2.7l-34.9-20.2c-1.5-0.9-3.8-0.9-5.3,0c-1.1,0.6-1.7,1.6-1.7,2.7S835.8,143.6,836.9,144.2z"/>
			<path class="st0" d="M858.6,174.2c0.9,0,1.9-0.2,2.6-0.7c1.1-0.6,1.7-1.6,1.7-2.7c0-1.1-0.6-2-1.7-2.7l-34.9-20.2
				c-1.5-0.9-3.8-0.9-5.3,0c-1.1,0.6-1.7,1.6-1.7,2.7s0.6,2,1.7,2.7l34.9,20.2C856.7,174,857.7,174.2,858.6,174.2z"/>
			<path class="st0" d="M813.7,94.7l-19.4-11.2c-1.5-0.9-3.8-0.9-5.3,0c-1.1,0.6-1.7,1.6-1.7,2.7s0.6,2,1.7,2.7l19.4,11.2
				c0.8,0.4,1.7,0.7,2.6,0.7c0.9,0,1.9-0.2,2.6-0.7c1.1-0.6,1.7-1.6,1.7-2.6C815.3,96.3,814.7,95.4,813.7,94.7z"/>
		</g>
	</g>
	<g>
		<g>
			<g>
				<path class="st4" d="M312.3,666.6v-43H304c-7.4-12.6-19.8-24.4-37.5-34.4c-61-34.6-159.8-34.6-220.8,0
					c-17.6,10-30,21.8-37.5,34.4l-8.2,3.4l0,40.8c-0.1,22.7,15.1,44.1,45.7,61.4c61,34.6,159.8,34.6,220.8,0
					C297.1,711.9,312.3,689.2,312.3,666.6z"/>
				<path class="st5" d="M304,623.5c-7.4-12.6-19.8-24.4-37.5-34.4c-30.8-17.5-71.2-26.1-111.6-25.9V755
					c40.4,0.2,80.8-8.4,111.6-25.9c30.5-17.3,45.7-39.9,45.7-62.6v-43H304z"/>
			</g>
		</g>
		<path class="st4" d="M176.9,721.8v32.5c5.8-0.4,10.3-1,13.9-1.4v-32.6C186.1,720.9,182.4,721.3,176.9,721.8z"/>
		
			<ellipse transform="matrix(0.9998 -1.877670e-02 1.877670e-02 0.9998 -11.7591 3.0435)" class="st6" cx="156.2" cy="627.7" rx="156.1" ry="91.1"/>
		<g>
			<path class="st0" d="M234,576.6c-42.9-24.8-112.7-24.8-155.6,0c-21.9,12.6-33.9,29.8-33.9,48.2c0,18.5,12,35.6,33.9,48.3
				c20.8,12,48.4,18.6,77.8,18.6c29.4,0,57-6.6,77.8-18.6c21.9-12.6,33.9-29.8,33.9-48.2C267.9,606.3,255.9,589.2,234,576.6z
				 M256.4,624.8c0,14.2-10,27.8-28.1,38.2c-39.7,22.9-104.3,22.9-144.1,0C66,652.6,56,639,56,624.8c0-14.2,10-27.8,28.1-38.2
				c19.2-11.1,44.8-17.2,72-17.2c27.3,0,52.9,6.1,72,17.2C246.4,597,256.4,610.6,256.4,624.8z"/>
			<path class="st0" d="M127.8,638.5c-2.3-1.3-4.7-2-7.2-1.9c-2.4,0.1-4.7,0.7-6.6,1.8c-2.3,1.3-3.6,3-3.7,5c-0.1,2.1,1.2,4,3.9,5.6
				c2.2,1.3,4.6,1.9,7,1.9c0.1,0,0.1,0,0.2,0c2.4-0.1,4.7-0.6,6.6-1.8c2.3-1.3,3.6-3,3.7-5C131.9,642,130.6,640.1,127.8,638.5z"/>
			<path class="st0" d="M197.3,600.1c-6.8-3.9-14.2-6-22.2-6.4c-8-0.3-15.2,1.3-21.4,4.8l-3.6,2l14.6,8.4l1.2-0.7
				c2.8-1.6,6.2-2.4,9.8-2.2c3.7,0.1,7.3,1.2,10.6,3.1c1.6,0.9,4.3,2.8,4.2,4.6c-0.1,1.5-1.8,3.2-4.7,4.9c-3.5,2-8.3,3.2-14.2,3.4
				l-14.2,0.1c-5.9,0.1-10.6,0.7-14.1,1.6c-3.5,0.9-7.5,2.7-12,5.2l-3.6,2l14.6,8.4l1.2-0.7c5-2.9,10.2-4.5,15.1-4.6l11.6,0
				c12.2-0.2,21.6-2.2,28.2-5.9c7.1-4.1,10.6-8.8,10.4-13.9C208.6,609,204.9,604.4,197.3,600.1z"/>
		</g>
		<path class="st0" d="M266.8,690.7c-61,34.6-160,35.5-221,1c-29.2-16.6-44.5-38.1-45.7-59.8c-1.3,23.6,14,47.4,45.7,65.4
			c61,34.6,160,33.6,221-1c31.7-18,46.9-45.9,45.5-69.5C311.1,648.6,296,674.1,266.8,690.7z"/>
	</g>
	<g>
		<path class="st5" d="M1239.2,519.5c-6-8.4-14.9-16.3-26.7-23.1c-48.2-27.8-126.3-27.8-174.5,0c-33.4,19.3-92,101.6-124.7,150.1
			l-23.9,5.2v31.1c0,0,24.6-5.2,60.3-13.2l0.1,0v0c83.8-18.8,228.9-53.1,262.7-72.6c23.5-13.5,35.4-31.2,36-48.9l0.1-0.1v-31.1
			L1239.2,519.5z M1171.8,572.9c-25.3,14.6-66.4,14.6-91.8,0c-25.3-14.6-25.3-38.4,0-53c25.3-14.6,66.4-14.6,91.8,0
			C1197.1,534.5,1197.1,558.3,1171.8,572.9z"/>
		<path class="st5" d="M1185,470.3c-32.6-18.8-85.5-18.8-118.2,0c-31.7,18.3-32.5,47.6-2.7,66.5c1.9-7.8,7.9-15.4,18.3-21.4
			c25.3-14.6,66.4-14.6,91.8,0c9.2,5.3,15,11.8,17.5,18.7C1217.4,515.1,1215.2,487.7,1185,470.3z"/>
		<path class="st6" d="M1212.5,465.4c-48.2-27.8-126.3-27.8-174.5,0c-48.2,27.8-148.6,186.5-148.6,186.5s274.8-58,323-85.8
			C1260.7,538.3,1260.7,493.2,1212.5,465.4z M1080,541.9c-25.3-14.6-25.3-38.4,0-53s66.4-14.6,91.8,0c25.3,14.6,25.3,38.4,0,53
			C1146.4,556.5,1105.4,556.5,1080,541.9z"/>
	</g>
	<g>
		<g>
			<g>
				<path class="st5" d="M917.3,994.6l-183.5,106.2c-14.8,8.5-33,8.5-47.7,0L508.4,998.4c-6.2-3.6-9.3-9.8-9.3-16v31.2h0
					c0,6.2,3.1,12.4,9.2,15.9L686,1131.9c14.8,8.5,33,8.5,47.7,0l183.5-106.2c5-2.9,7.4-7.9,7.4-12.9v-30.9
					C924.6,986.8,922.2,991.8,917.3,994.6z"/>
				<path class="st4" d="M685.8,1101.9L508.1,999.5c-6.5-4.6-9-10.9-9-17.2v31.2h0c0,6.2,3.1,12.4,9.2,15.9L686,1131.9
					c2.9,1.7,5.8,3,8.9,4l-0.2-30C691.7,1104.9,688.7,1103.5,685.8,1101.9z"/>
				<path class="st4" d="M708.7,1108.1v30.1c4.7,0.1,9.4-0.4,13.9-1.7v-30.1C718,1107.7,713.3,1108.3,708.7,1108.1z"/>
				<g>
					<path class="st6" d="M917.3,966.3L727.8,857.1c-10.9-6.3-24.3-6.3-35.2,0L508.4,963.6c-12.3,7.1-12.4,24.9,0,32.1L686,1098.1
						c14.8,8.5,33,8.5,47.7,0l183.5-106.2C927.1,986.2,927.1,972,917.3,966.3z"/>
				</g>
				<path class="st0" d="M914.1,993.3l-181.3,104.9c-6.9,4-14.8,6.1-22.9,6.1c-8.1,0-16-2.1-22.9-6.1L511.5,997
					c-5.3-3.1-12.2-10.6-12.2-16.7c-0.1,0.7-0.1,1.4-0.1,2.1c0,7.5,3.9,14.3,10.4,18.1l175.5,101.1c7.7,4.4,16.3,6.6,24.9,6.6
					c8.6,0,17.2-2.2,24.8-6.6l181.3-104.9c5.4-3.1,8.6-8.7,8.6-14.9C924.7,986.6,918.3,990.9,914.1,993.3z"/>
			</g>
		</g>
		
			<use xlink:href="#calendar"  width="73.7" height="81.7" id="XMLID_2_" x="-36.8" y="-40.8" transform="matrix(1.9325 1.1157 1.9324 -1.1157 715.8071 974.31)" style="overflow:visible;"/>
	</g>
</g>
</svg>
