<?xml version="1.0" encoding="utf-8"?>
<!-- Generator: Adobe Illustrator 23.0.3, SVG Export Plug-In . SVG Version: 6.00 Build 0)  -->
<svg version="1.1" id="Layer_1" xmlns="http://www.w3.org/2000/svg" xmlns:xlink="http://www.w3.org/1999/xlink" x="0px" y="0px"
	 viewBox="0 0 357.7 250.1" style="enable-background:new 0 0 357.7 250.1;" xml:space="preserve">
<style type="text/css">
	.st0{fill:#C14736;}
	.st1{fill:#E26F66;}
	.st2{fill:#F1563C;}
	.st3{fill:#FFFFFF;}
	.st4{fill:#FFFFFF;stroke:#FFFFFF;stroke-width:0.25;stroke-miterlimit:10;}
	.st5{fill:none;stroke:#FFFFFF;stroke-miterlimit:10;}
	.st6{fill:#FFFFFF;stroke:#FFFFFF;stroke-miterlimit:10;}
</style>
<g>
	<g>
		<g>
			<path class="st1" d="M357.6,148.8V99.5h-9.5c-8.5-14.4-22.7-27.9-42.9-39.4c-69.8-39.6-183-39.6-252.8,0
				c-20.2,11.5-34.4,25-42.9,39.4l-9.4,3.9l-0.1,46.7c-0.1,26,17.3,50.5,52.3,70.3c69.8,39.6,183,39.6,252.8,0
				C340.2,200.7,357.6,174.7,357.6,148.8z"/>
			<path class="st0" d="M348.1,99.5c-8.5-14.4-22.7-27.9-42.9-39.4c-35.3-20-81.6-29.9-127.8-29.6v219.6
				c46.2,0.2,92.5-9.7,127.8-29.6c34.9-19.8,52.4-45.7,52.4-71.7V99.5H348.1z"/>
		</g>
	</g>
	<path class="st1" d="M202.5,212.1v37.2c6.7-0.4,11.9-1.2,15.9-1.6v-37.3C213.1,211,208.9,211.5,202.5,212.1z"/>
	
		<ellipse transform="matrix(0.9998 -1.877670e-02 1.877670e-02 0.9998 -1.9274 3.3767)" class="st2" cx="178.9" cy="104.3" rx="178.8" ry="104.3"/>
	<g>
		<path class="st3" d="M267.9,45.7c-49.1-28.4-129-28.4-178.2,0c-25,14.5-38.8,34.1-38.8,55.2c0,21.2,13.8,40.8,38.8,55.2
			c23.8,13.7,55.4,21.3,89.1,21.3c33.6,0,65.3-7.6,89.1-21.3c25-14.5,38.8-34.1,38.8-55.2S293,60.2,267.9,45.7z M293.6,101
			c0,16.2-11.4,31.8-32.2,43.8c-45.5,26.3-119.5,26.3-164.9,0c-20.8-12-32.2-27.6-32.2-43.8c0-16.2,11.4-31.8,32.2-43.8
			c21.9-12.7,51.2-19.7,82.5-19.7c31.2,0,60.5,7,82.5,19.7C282.1,69.2,293.6,84.7,293.6,101z"/>
		<path class="st3" d="M146.3,116.6c-2.6-1.5-5.4-2.3-8.3-2.1c-2.8,0.1-5.4,0.8-7.6,2.1c-2.7,1.5-4.1,3.5-4.2,5.7
			c-0.2,2.4,1.3,4.6,4.5,6.4c2.5,1.5,5.2,2.2,8,2.2c0.1,0,0.2,0,0.2,0c2.8-0.1,5.4-0.7,7.6-2c2.7-1.5,4.1-3.5,4.3-5.8
			C151,120.6,149.5,118.5,146.3,116.6z"/>
		<path class="st3" d="M225.9,72.6c-7.7-4.5-16.3-6.9-25.4-7.3c-9.2-0.3-17.4,1.5-24.5,5.5l-4.1,2.3l16.7,9.6l1.3-0.8
			c3.2-1.9,7.1-2.8,11.2-2.6c4.3,0.2,8.3,1.4,12.1,3.5c1.9,1.1,5,3.2,4.8,5.3c-0.1,1.7-2,3.7-5.3,5.6c-4,2.3-9.5,3.6-16.3,3.9
			l-16.3,0.1c-6.7,0.2-12.2,0.8-16.2,1.9c-4,1.1-8.6,3.1-13.7,5.9l-4.1,2.3l16.7,9.6l1.3-0.8c5.8-3.3,11.6-5.1,17.3-5.3l13.3,0
			c13.9-0.2,24.8-2.5,32.2-6.8c8.1-4.7,12.1-10,11.9-15.9C238.9,82.9,234.6,77.6,225.9,72.6z"/>
	</g>
	<path class="st3" d="M305.5,176.4c-69.8,39.6-183.2,40.7-253,1.1c-33.5-19-51-43.6-52.4-68.4c-1.5,27,16,54.3,52.4,74.9
		c69.8,39.6,183.2,38.5,253-1.1c36.4-20.6,53.7-52.5,52.1-79.5C356.2,128.2,338.9,157.4,305.5,176.4z"/>
</g>
</svg>
