<?xml version="1.0" encoding="utf-8"?>
<!-- Generator: Adobe Illustrator 23.0.3, SVG Export Plug-In . SVG Version: 6.00 Build 0)  -->
<svg version="1.1" id="Layer_1" xmlns="http://www.w3.org/2000/svg" xmlns:xlink="http://www.w3.org/1999/xlink" x="0px" y="0px"
	 viewBox="0 0 488.8 328.4" style="enable-background:new 0 0 488.8 328.4;" xml:space="preserve">
<style type="text/css">
	.st0{fill:#C14736;}
	.st1{fill:#E26F66;}
	.st2{fill:#F1563C;}
	.st3{fill:#FFFFFF;}
	.st4{fill:#FFFFFF;stroke:#FFFFFF;stroke-width:0.25;stroke-miterlimit:10;}
	.st5{fill:none;stroke:#FFFFFF;stroke-miterlimit:10;}
	.st6{fill:#FFFFFF;stroke:#FFFFFF;stroke-miterlimit:10;}
</style>
<g>
	<g>
		<g>
			<path class="st0" d="M478.8,162.8L268.7,284.4c-16.9,9.8-37.7,9.8-54.6,0L10.6,167.2C3.5,163.1,0,155.9,0,148.8v35.8h0
				c0,7.1,3.6,14.2,10.6,18.3L214,320.1c16.9,9.8,37.7,9.8,54.6,0l210.1-121.6c5.7-3.3,8.5-9,8.5-14.8v-35.4
				C487.2,154,484.4,159.6,478.8,162.8z"/>
			<path class="st1" d="M213.8,285.7L10.3,168.5C2.9,163.2,0,155.9,0,148.8v35.8h0c0,7.1,3.6,14.2,10.6,18.3L214,320.1
				c3.3,1.9,6.7,3.4,10.2,4.6l-0.3-34.4C220.5,289.1,217,287.6,213.8,285.7z"/>
			<path class="st1" d="M239.9,292.9v34.5c5.4,0.1,10.7-0.5,15.9-1.9V291C250.7,292.4,245.3,293,239.9,292.9z"/>
			<g>
				<path class="st2" d="M478.8,130.5L261.8,5.4c-12.5-7.2-27.9-7.2-40.3,0l-210.9,122c-14.1,8.2-14.1,28.6,0,36.7L214,281.4
					c16.9,9.8,37.7,9.8,54.6,0l210.1-121.6C490.1,153.3,490.1,137,478.8,130.5z"/>
			</g>
			<path class="st3" d="M475.2,161.3L267.6,281.4c-7.9,4.6-17,7-26.2,7c-9.2,0-18.3-2.4-26.3-7l-201-115.8
				c-6.1-3.5-13.9-12.2-14-19.2C0.1,147.2,0,148,0,148.8c0,8.6,4.5,16.4,11.9,20.7l201,115.8c8.8,5.1,18.6,7.6,28.5,7.6
				c9.8,0,19.7-2.5,28.4-7.6l207.6-120.1c6.2-3.6,9.8-9.9,9.8-17C487.3,153.7,480,158.6,475.2,161.3z"/>
		</g>
	</g>
	<g>
		<path class="st3" d="M305.3,162.6l-24.7-14.2c-21.3-12.3-55.9-12.3-77.1,0c-10.7,6.2-16.6,14.5-16.6,23.5c0,9,5.9,17.4,16.6,23.6
			l24.7,14.2c0.8,0.5,1.6,0.9,2.6,1.4c0.5,0.3,0.7,0.5,0.7,0.6l8.3,22.3l16.2-14.3c0.7-0.6,2.3-1.2,4.1-1c16.7,1.2,33.3-2.1,45.2-9
			c10.7-6.2,16.6-14.5,16.6-23.5C321.8,177.2,315.9,168.8,305.3,162.6z M244.2,218.4l-3.3-8.9c-0.7-1.7-2.1-3.3-4.1-4.5
			c-0.2-0.1-0.5-0.3-0.7-0.4c-0.7-0.3-1.3-0.7-1.9-1.1l-24.7-14.2c-8.2-4.8-12.8-11-12.8-17.5c0-6.5,4.5-12.7,12.8-17.5
			c9-5.2,20.7-7.8,32.5-7.8c11.8,0,23.5,2.6,32.5,7.8l24.7,14.3c8.2,4.8,12.8,11,12.8,17.5s-4.5,12.7-12.8,17.5
			c-10,5.8-23.9,8.5-38.2,7.5c-4.9-0.3-9.7,1-12.6,3.5L244.2,218.4z"/>
		<path class="st3" d="M327.1,101.1L252,57.8c-13.2-7.6-34.7-7.6-47.9,0L159,83.9c-6.2,3.6-9.9,8.5-10.4,13.7
			c-0.5,4.5,1.5,9.1,5.5,12.8c0,0-0.1,0-0.1,0l-24.4,9.2l49.1,6.1c0.5,0.1,1,0.2,1.3,0.4l21,12.1l1.1-0.5
			c24.4-11.9,61.1-11.1,83.7,1.9l13.5,7.8l27.9-16.1c6.8-3.9,10.5-9.3,10.5-15.1C337.6,110.4,333.9,105.1,327.1,101.1z M291.8,133.6
			c-13.5-7.8-31.7-11.8-49.9-11.8c-14.1,0-28.2,2.4-40.3,7.3l-15.6-9c-1.6-0.9-3.5-1.5-5.7-1.8l-19.2-2.4c1.7-1.2,2.8-2.7,3.1-4.4
			c0.4-2.1-0.4-4.1-2.2-5.8c-2.6-2.3-3.8-4.9-3.5-7.5c0.3-3.1,2.7-6,6.7-8.3l45.1-26.1c9.9-5.7,25.9-5.7,35.8,0l75.1,43.3
			c4.3,2.5,6.7,5.7,6.7,9c0,3.3-2.4,6.5-6.7,9l-21.9,12.6L291.8,133.6z"/>
		<path class="st3" d="M302,112.5l-69.7-40.2c-1.8-1-4.3-1-6.1,0c-1.2,0.7-1.9,1.8-1.9,3c0,1.2,0.7,2.3,1.9,3l69.7,40.2
			c0.9,0.5,2,0.8,3,0.8c1.1,0,2.2-0.2,3-0.8c1.2-0.7,1.9-1.8,1.9-3C303.9,114.3,303.2,113.2,302,112.5z"/>
		<path class="st3" d="M252.1,107l-40-23.1c-1.8-1-4.3-1-6.1,0c-1.2,0.7-1.9,1.8-1.9,3c0,1.2,0.7,2.3,1.9,3l40,23.1
			c0.9,0.5,2,0.8,3,0.8s2.1-0.3,3-0.8c1.2-0.7,1.9-1.8,1.9-3C254,108.9,253.3,107.8,252.1,107z"/>
		<path class="st3" d="M240.7,165.1l40,23.1c0.9,0.5,2,0.8,3,0.8c1.1,0,2.2-0.2,3-0.8c1.2-0.7,1.9-1.8,1.9-3s-0.7-2.3-1.9-3
			l-40-23.1c-1.8-1-4.3-1-6.1,0c-1.2,0.7-1.9,1.8-1.9,3S239.5,164.4,240.7,165.1z"/>
		<path class="st3" d="M265.6,199.5c1.1,0,2.2-0.2,3-0.8c1.2-0.7,1.9-1.8,1.9-3s-0.7-2.3-1.9-3l-40-23.1c-1.8-1-4.3-1-6.1,0
			c-1.2,0.7-1.9,1.8-1.9,3s0.7,2.3,1.9,3l40,23.1C263.5,199.2,264.5,199.5,265.6,199.5z"/>
		<path class="st3" d="M214.1,108.5l-22.3-12.9c-1.8-1-4.3-1-6.1,0c-1.2,0.7-1.9,1.8-1.9,3c0,1.2,0.7,2.3,1.9,3l22.3,12.9
			c0.9,0.5,2,0.8,3,0.8s2.2-0.2,3-0.8c1.2-0.7,1.9-1.8,1.9-3C216.1,110.3,215.4,109.2,214.1,108.5z"/>
	</g>
</g>
</svg>
