<?xml version="1.0" encoding="utf-8"?>
<!-- Generator: Adobe Illustrator 23.0.3, SVG Export Plug-In . SVG Version: 6.00 Build 0)  -->
<svg version="1.1" id="Layer_1" xmlns="http://www.w3.org/2000/svg" xmlns:xlink="http://www.w3.org/1999/xlink" x="0px" y="0px"
	 viewBox="0 0 1288.5 1189.8" style="enable-background:new 0 0 1288.5 1189.8;" xml:space="preserve">
<style type="text/css">
	.st0{opacity:0.2;fill:#727272;}
	.st1{opacity:0.1;fill:#727272;}
	.st2{opacity:0.3;fill:#727272;}
	.st3{fill:#E26F66;}
	.st4{fill:#C14736;}
	.st5{fill:#F1563C;}
	.st6{fill:#FFFFFF;}
	.st7{opacity:0.5;fill:#E2E2E2;}
	.st8{opacity:0.3;fill:#D4ECFF;}
	.st9{fill:url(#SVGID_1_);}
	.st10{fill:url(#SVGID_2_);}
	.st11{fill:url(#SVGID_3_);}
	.st12{fill:#5E5E5E;}
	.st13{fill:url(#SVGID_4_);}
	.st14{fill:url(#SVGID_5_);}
	.st15{fill:none;stroke:#FFFFFF;stroke-width:0.25;stroke-miterlimit:10;}
	.st16{fill:#B8BCFC;}
	.st17{fill:none;stroke:#FFFFFF;stroke-width:0.75;stroke-miterlimit:10;}
	.st18{fill:#ECF3FA;}
	.st19{opacity:0.3;}
	.st20{fill:#727272;}
	.st21{fill:none;stroke:#FFFFFF;stroke-miterlimit:10;}
	.st22{enable-background:new    ;}
	.st23{fill:#E3DEDA;}
	.st24{fill:#DBB391;}
	.st25{fill:#DBD5D1;}
	.st26{fill:#898989;}
	.st27{opacity:0.7;fill:#A17E85;}
	.st28{fill:#CAC1B8;}
	.st29{fill:#F5F1EE;}
	.st30{fill:url(#SVGID_6_);}
	.st31{fill:#ADADAD;}
	.st32{fill:url(#SVGID_7_);}
	.st33{fill:#69544B;}
	.st34{fill:#4E3F38;}
	.st35{fill:#3B2F2A;}
	.st36{fill:url(#SVGID_8_);}
	.st37{fill:#383A35;}
	.st38{fill:url(#SVGID_9_);}
	.st39{fill:url(#SVGID_10_);}
</style>
<g>
	<path class="st1" d="M1037.7,282.7c-11.8-4.2-26.7-7.5-54.5-5.9c0,0-29.6,2-55.7,15.8l-119.3,68.8l63,36.3c14.8,8.5,33,8.5,47.7,0
		l161-92.2C1080,305.7,1051.2,287.5,1037.7,282.7z"/>
	<path class="st0" d="M284.5,788.3c-61.3,36.1-160.1,37.1-220.8,2l222-130.9C346.4,694.5,345.8,752.2,284.5,788.3z"/>
	<path class="st2" d="M1252.4,552.1c-48.2-27.8-126.3-27.8-174.5,0c-48.2,27.8-148.6,186.5-148.6,186.5s274.8-58,323-85.8
		C1300.5,625.1,1300.5,580,1252.4,552.1z"/>
	<path class="st0" d="M562.1,1111.3l157.8-88.7c7.9-4.6,17.6-4.6,25.5,0l63,36.9c7.1,4.1-215.9,130.3-215.9,130.3L592,1152
		l-29.9-17.4C553.1,1129.4,553.1,1116.5,562.1,1111.3z"/>
</g>
</svg>
