<?xml version="1.0" encoding="utf-8"?>
<!-- Generator: Adobe Illustrator 23.0.3, SVG Export Plug-In . SVG Version: 6.00 Build 0)  -->
<svg version="1.1" id="Layer_1" xmlns="http://www.w3.org/2000/svg" xmlns:xlink="http://www.w3.org/1999/xlink" x="0px" y="0px"
	 viewBox="0 0 434.3 288.2" style="enable-background:new 0 0 434.3 288.2;" xml:space="preserve">
<style type="text/css">
	.st0{fill:#C14736;}
	.st1{fill:#F1563C;}
</style>
<g>
	<path class="st0" d="M422.9,90.7c-7.3-10.2-18-19.7-32.3-28c-58.3-33.6-152.7-33.6-211,0C139.2,86,68.4,185.5,28.9,244.3L0,250.6
		v37.7c0,0,29.7-6.3,72.9-15.9l0.1,0v0c101.3-22.7,276.8-64.2,317.6-87.8c28.4-16.4,42.8-37.7,43.5-59.2l0.1-0.2V87.5L422.9,90.7z
		 M341.4,155.2c-30.6,17.7-80.3,17.7-111,0c-30.6-17.7-30.6-46.4,0-64.1c30.6-17.7,80.3-17.7,111,0S372,137.5,341.4,155.2z"/>
	<path class="st0" d="M357.3,31.1c-39.5-22.8-103.4-22.8-142.9,0c-38.3,22.1-39.3,57.5-3.3,80.4c2.2-9.5,9.6-18.6,22.2-25.9
		c30.6-17.7,80.3-17.7,111,0c11.1,6.4,18.2,14.3,21.2,22.6C396.5,85.4,393.8,52.2,357.3,31.1z"/>
	<path class="st1" d="M390.6,25.2c-58.3-33.6-152.7-33.6-211,0C121.4,58.9,0,250.7,0,250.7S332.4,180.7,390.6,147
		C448.9,113.4,448.9,58.9,390.6,25.2z M230.4,117.7c-30.6-17.7-30.6-46.4,0-64.1s80.3-17.7,111,0s30.6,46.4,0,64.1
		S261,135.4,230.4,117.7z"/>
</g>
</svg>
