<svg width="80" height="80" xmlns="http://www.w3.org/2000/svg" xmlns:xlink="http://www.w3.org/1999/xlink"><defs><path id="a" d="M.15.213h24.427V24.13H.15z"/><path id="c" d="M.067.176h39.58v20.412H.068z"/></defs><g fill="none" fill-rule="evenodd"><g transform="translate(40.294 34.595)"><mask id="b" fill="#fff"><use xlink:href="#a"/></mask><path d="M24.578 5.415c0-2.092-.17-3.619-.538-5.202H.15v9.443h14.023c-.282 2.346-1.809 5.88-5.202 8.255l-.047.316 7.553 5.852.523.052c4.807-4.439 7.578-10.97 7.578-18.716" fill="#FFF" mask="url(#b)"/></g><g transform="translate(17.647 44.301)"><mask id="d" fill="#fff"><use xlink:href="#c"/></mask><path d="M22.798 20.588c6.87 0 12.637-2.261 16.85-6.163l-8.03-6.22c-2.148 1.498-5.032 2.544-8.82 2.544-6.729 0-12.44-4.438-14.476-10.573l-.298.026L.17 6.28l-.103.285c4.184 8.312 12.779 14.023 22.73 14.023" fill="#FFF" mask="url(#d)"/></g><path d="M25.97 44.477a15.666 15.666 0 01-.849-5.032c0-1.753.311-3.45.82-5.033l-.014-.337-7.953-6.176-.26.124A25.465 25.465 0 0015 39.445c0 4.1.99 7.972 2.714 11.421l8.255-6.389" fill="#FFF"/><path d="M40.445 23.839c4.778 0 8 2.064 9.838 3.788l7.181-7.011c-4.41-4.1-10.15-6.616-17.02-6.616-9.951 0-18.546 5.71-22.73 14.023l8.227 6.39c2.064-6.136 7.775-10.574 14.504-10.574" fill="#FFF"/><path d="M0 0h80v80H0z"/></g></svg>