<svg width="80" height="80" viewBox="0 0 80 80" fill="none" xmlns="http://www.w3.org/2000/svg">
<g clip-path="url(#clip0_4751_30955)">
<path d="M28.5319 41.6281V27.3916H22.3116C21.4322 27.393 20.5894 27.7435 19.9684 28.3662C19.3474 28.9888 18.9991 29.8326 19 30.712V60.1409C19 61.6215 20.7872 62.3574 21.8298 61.3149L28.6721 54.4726H48.1564C48.5914 54.4729 49.0222 54.3875 49.4242 54.2212C49.8261 54.0549 50.1913 53.811 50.4989 53.5034C50.8065 53.1958 51.0504 52.8306 51.2167 52.4287C51.383 52.0267 51.4684 51.5959 51.4681 51.1609V44.9407H31.8523C30.9728 44.9416 30.1289 44.5931 29.5062 43.972C28.8835 43.3508 28.5331 42.5077 28.5319 41.6281Z" fill="#EAEAEA"/>
<path d="M57.6848 18.001H31.8523C31.4173 18.0006 30.9865 18.0861 30.5846 18.2524C30.1826 18.4187 29.8174 18.6626 29.5098 18.9702C29.2023 19.2777 28.9583 19.643 28.792 20.0449C28.6257 20.4468 28.5403 20.8776 28.5407 21.3126V27.3927H48.1564C48.5911 27.3928 49.0215 27.4786 49.4231 27.6451C49.8246 27.8116 50.1894 28.0556 50.4966 28.3631C50.8038 28.6707 51.0474 29.0357 51.2135 29.4374C51.3796 29.8392 51.4649 30.2697 51.4646 30.7044V44.9321H57.6848C58.1198 44.9325 58.5506 44.8471 58.9525 44.6808C59.3545 44.5145 59.7197 44.2705 60.0273 43.963C60.3349 43.6554 60.5788 43.2902 60.7451 42.8882C60.9114 42.4863 60.9968 42.0555 60.9965 41.6205V21.3117C60.9967 20.8768 60.9112 20.4461 60.7448 20.0443C60.5785 19.6425 60.3345 19.2773 60.027 18.9699C59.7194 18.6624 59.3542 18.4185 58.9523 18.2523C58.5505 18.086 58.1197 18.0006 57.6848 18.001Z" fill="white"/>
<path d="M48.1564 27.3916H28.5319V41.6194C28.5315 42.0544 28.6169 42.4852 28.7832 42.8871C28.9495 43.289 29.1935 43.6543 29.501 43.9618C29.8086 44.2694 30.1738 44.5133 30.5758 44.6796C30.9777 44.846 31.4085 44.9314 31.8435 44.931H51.4593V30.712C51.4615 30.2768 51.3777 29.8455 51.2127 29.4428C51.0477 29.0401 50.8047 28.674 50.4978 28.3654C50.1909 28.0569 49.8261 27.812 49.4243 27.6449C49.0225 27.4778 48.5916 27.3917 48.1564 27.3916Z" fill="#BABABA"/>
</g>
<defs>
<clipPath id="clip0_4751_30955">
<rect width="42" height="43.803" fill="white" transform="translate(19 18)"/>
</clipPath>
</defs>
</svg>
