<svg width="80px" height="80px" viewBox="0 0 80 80" version="1.1"
     xmlns="http://www.w3.org/2000/svg"
     xmlns:xlink="http://www.w3.org/1999/xlink">
    <title id="microsoft-dynamics">Microsoft Dynamics</title>
    <defs>
        <polygon id="path-1md"
                 points="0.000145792887 0.177707006 35.3522042 0.177707006 35.3522042 28.0046931 0.000145792887 28.0046931"></polygon>
    </defs>
    <g id="Microsofr-DYnamics" stroke="none" stroke-width="1" fill="none" fill-rule="evenodd">
        <g>
            <g id="Group-6md" transform="translate(22.000000, 9.000000)">
                <g id="Group-3md" transform="translate(0.000000, 0.204459)">
                    <mask id="mask-2md" fill="white">
                        <use xlink:href="#path-1md"></use>
                    </mask>
                    <g id="Clip-2md"></g>
                    <path d="M0.234267516,0.17755414 C3.92254777,2.2091465 7.60318471,4.25487898 11.3010191,6.26889172 C19.1059873,10.5197197 26.9143949,14.7651975 34.7388535,18.9797197 C35.6010191,19.4444331 35.4970701,19.6580637 34.7828025,20.1625223 C31.2833121,22.6362803 27.8113376,25.1490191 24.3405096,27.6629045 C23.8826752,27.9946242 23.526879,28.1390828 22.9349045,27.8474904 C15.655414,24.2631592 8.36407643,20.7009936 1.05324841,17.1812484 C0.225859873,16.7826497 -0.00840764331,16.3221401 0.000145792887,15.4343694 C0.0481528662,10.3492739 0.0233121019,5.26341401 0.0233121019,0.17755414 L0.234267516,0.17755414 Z"
                          id="Fill-1" fill="#FFFFFF" mask="url(#mask-2md)"></path>
                </g>
                <path d="M0.0980636943,19.5040892 C3.9468535,22.0053631 7.67296815,24.4504586 11.4300382,26.8466369 C12.117172,27.2849809 11.794242,27.7217962 11.6364076,28.1907134 C8.66277707,37.0286752 5.68341401,45.8651083 2.70634395,54.7019236 C2.41780892,55.5587389 2.13844586,56.4189936 2.04634395,57.4137707 C13.6160255,45.4672739 25.1860892,33.5203949 36.7534777,21.5765732 C37.1092739,21.7183567 36.9575541,22.0065096 36.9579363,22.2147898 C36.9678726,27.8265096 36.9579363,33.4386115 36.9793376,39.0503312 C36.9812484,39.615172 36.8130955,39.915172 36.3055796,40.1903312 C24.3820127,46.6485478 12.4691465,53.1270191 0.553987261,59.6016688 C0.434751592,59.6662548 0.309401274,59.7201401 0.0980636943,59.8221783 L0.0980636943,19.5040892 Z"
                      id="Fill-4" fill="#FFFFFF"></path>
            </g>
            <rect id="Rectangle" x="0" y="0" width="80" height="80"></rect>
        </g>
    </g>
</svg>