<svg width="80" height="80" viewBox="0 0 80 80" fill="none" xmlns="http://www.w3.org/2000/svg">
<path d="M53.3571 21H12.9167C11.3008 21 10.3838 22.4317 11.4756 23.9528L16.7599 33.3482V50.1258C16.7599 54.4208 19.817 58 23.9658 58H53.3134C57.4623 58 60.9996 54.3762 60.9996 50.1258V28.919C61.0433 24.6238 57.5059 21 53.3571 21V21Z" fill="white"/>
<path d="M53.5068 32.9908H24.5384C23.269 32.9908 22.0451 32.22 22.0451 30.9953C22.0451 29.7709 23.2692 29 24.5384 29H53.5065C54.7759 29 56 29.7709 56 30.9953C56 32.22 54.7759 32.9908 53.5065 32.9908H53.5068ZM53.5068 40.9729H24.5384C23.269 40.9729 22.0451 40.2018 22.0451 38.9774C22.0451 37.7527 23.2692 36.9819 24.5384 36.9819H53.5065C54.7759 36.9819 56 37.7529 56 38.9774C56 40.2018 54.7759 40.9729 53.5065 40.9729H53.5068ZM45.4828 49H24.4932C23.224 49 22 48.2291 22 47.0047C22 45.7802 23.224 45.0092 24.4932 45.0092H45.4828C46.752 45.0092 47.9759 45.78 47.9759 47.0047C47.9759 48.2293 46.752 49 45.4828 49Z" fill="#D3D3D3"/>
</svg>
