<svg width="80" height="80" xmlns="http://www.w3.org/2000/svg" xmlns:xlink="http://www.w3.org/1999/xlink"><defs><path id="a" d="M0 0h45.921v49.45H0z"/></defs><g fill="none" fill-rule="evenodd"><path d="M0 0h80v80H0z"/><g transform="translate(17 15)"><mask id="b" fill="#ffffff"><use xlink:href="#a"/></mask><path d="M22.469 0h3.616c6.633.618 12.919 4.308 16.449 9.989 5.1 7.757 4.395 18.84-1.8 25.789-1.717 2.002-5.235 1.495-6.286-.934-1.737-3.789-3.109-7.739-4.74-11.571-1.546 3.702-2.918 7.485-4.52 11.17-.697 1.965-3.065 3.232-5.03 2.323-1.49-.556-2.19-2.083-2.751-3.449-2.2-5.545-4.457-11.07-6.689-16.61 1.805-.005 3.61 0 5.422-.005 1.804 4.456 3.597 8.926 5.414 13.376 1.36-3.344 2.69-6.7 4.018-10.057.6-1.508 1.385-3.202 3.072-3.715 1.861-.699 3.876.624 4.58 2.343 1.787 4.042 3.277 8.215 5.014 12.276 1.755-2.992 2.861-6.41 2.67-9.915-.185-7.701-6.429-14.724-14.063-15.787-9.08-1.372-18.327 4.853-20.942 13.568-2.565 7.714.352 16.751 6.843 21.61 4.691 3.777 11.139 4.995 16.912 3.32-.006 1.724-.012 3.448-.006 5.167-1.082.192-2.158.395-3.24.562h-3.696c-6.224-.593-12.245-3.43-16.386-8.16C2.646 37.268.575 31.983 0 26.593V23.05c.507-5.464 2.615-10.824 6.336-14.903C10.422 3.48 16.349.686 22.469 0" fill="#ffffff" mask="url(#b)"/></g></g></svg>